<svg width="18" height="18" viewBox="0 0 18 18" fill="none" xmlns="http://www.w3.org/2000/svg">
<g clip-path="url(#clip0_51838_90037)">
<path opacity="0.32" fill-rule="evenodd" clip-rule="evenodd" d="M0.9375 9.1898C0.9375 7.919 0.9375 7.2836 1.09911 6.69695C1.24229 6.17723 1.47768 5.68747 1.79407 5.25101C2.15121 4.75833 2.64737 4.3614 3.63969 3.56754L4.5022 2.87754C6.10743 1.59336 6.91004 0.951263 7.80016 0.705015C8.58531 0.487807 9.41469 0.487807 10.1998 0.705015C11.09 0.951263 11.8926 1.59335 13.4978 2.87754L14.3603 3.56754C15.3526 4.3614 15.8488 4.75833 16.2059 5.25101C16.5223 5.68747 16.7577 6.17723 16.9009 6.69695C17.0625 7.2836 17.0625 7.919 17.0625 9.1898V9.86215C17.0625 12.3824 17.0625 13.6425 16.572 14.6051C16.1406 15.4518 15.4522 16.1402 14.6055 16.5717C13.6429 17.0621 12.3827 17.0621 9.8625 17.0621H8.1375C5.61726 17.0621 4.35715 17.0621 3.39454 16.5717C2.54781 16.1402 1.8594 15.4518 1.42797 14.6051C0.9375 13.6425 0.9375 12.3824 0.9375 9.86215V9.1898Z" fill="#98A2B3"/>
<path d="M11.25 11.4375C11.5607 11.4375 11.8125 11.6893 11.8125 12C11.8125 12.3107 11.5607 12.5625 11.25 12.5625H6.75C6.43934 12.5625 6.1875 12.3107 6.1875 12C6.1875 11.6893 6.43934 11.4375 6.75 11.4375H11.25Z" fill="#98A2B3"/>
</g>
<defs>
<clipPath id="clip0_51838_90037">
<rect width="18" height="18" fill="white"/>
</clipPath>
</defs>
</svg>
