<svg width="216" height="92" viewBox="0 0 216 92" fill="none" xmlns="http://www.w3.org/2000/svg">
<g clip-path="url(#clip0_12232_16870)">
<path d="M79.9202 51.0727C76.0038 45.8947 70.1424 40.6115 68.5391 39.2447C67.4351 38.2985 66.2523 37.8779 65.1484 37.8779C64.0444 37.8779 62.9405 38.3773 61.9943 39.1659C61.8366 39.3236 61.5737 39.5864 61.232 39.8493C58.919 41.8206 51.7171 48.4442 51.5331 48.6282C51.0337 49.1276 50.2452 49.4693 49.4829 49.4693C48.7995 49.4693 48.0373 49.1276 47.275 48.4442C46.7756 47.9448 44.3049 45.9735 41.4136 42.7405C39.6263 40.7955 38.1807 39.0082 38.1807 39.0082C38.1807 39.0082 37.839 39.6915 37.6812 40.1121C37.5235 40.5326 37.6812 40.7166 37.7601 40.8743C38.7063 42.2411 43.1221 47.498 49.1412 52.7023C50.2452 53.6485 51.428 54.0691 52.5319 54.0691C53.6358 54.0691 54.7398 53.5697 55.686 52.7812C55.8437 52.6234 56.1854 52.3606 56.4483 52.0978C58.735 50.1527 63.1508 46.1575 65.201 44.1862C65.6215 43.7656 65.9632 43.5028 66.1472 43.3451C66.6466 42.8457 67.4351 42.504 68.1974 42.504C68.8808 42.504 69.643 42.8457 70.4053 43.5291C71.6932 44.633 73.7959 46.578 76.2667 49.1276C78.054 51.0727 79.4996 52.86 79.4996 52.86C79.4996 52.86 79.8413 52.1766 79.9991 51.6772C80.183 51.4144 79.9991 51.1778 79.9202 51.0727Z" fill="#95C122"/>
<path d="M56.6317 32.0434C54.5815 33.489 46.2493 41.2166 44.646 43.0828C44.646 43.0828 45.8288 44.3708 47.5373 45.7901C47.9578 46.2107 48.5624 46.1318 48.9829 45.6324C52.2159 42.3994 58.7607 36.6169 59.6018 35.9335C62.0725 33.8045 64.9638 33.6468 67.5922 35.5918C73.9793 40.3493 79.6567 47.9192 80.603 49.3648C80.603 49.3648 80.7607 48.6814 80.8658 48.0769C80.8658 48.0769 80.9447 47.4723 80.7081 46.9729C74.6627 38.2991 68.3019 32.9371 65.8312 31.5966C63.1765 30.1772 59.8646 29.6515 56.6317 32.0434Z" fill="#0E84C7"/>
<path d="M49.8244 27.444C45.7504 30.7558 40.4146 35.6972 39.0479 37.1429C39.0479 37.1429 40.0729 38.4308 41.5974 39.9553C41.9391 40.2182 42.202 40.113 42.5437 39.8765C46.6177 35.9601 51.0335 31.886 53.5831 29.9147C57.92 26.6029 62.9403 26.2612 67.9606 30.1775C69.8268 31.6232 71.4565 33.0688 73.822 35.5395C76.871 38.8514 78.8424 41.6638 81.0502 44.7916C81.0502 44.7916 81.0502 43.9505 80.7874 42.8466C80.7874 42.6889 80.7085 42.3472 80.5246 42.0843C80.104 41.2432 78.1327 37.9314 75.3465 34.6984C69.8268 28.2325 66.331 26.2874 64.0443 25.1047C61.153 23.5539 55.3704 23.107 49.8244 27.444Z" fill="#0E84C7"/>
<path d="M60.9687 60.0095C63.0189 58.5639 71.351 50.8363 72.9544 48.9701C72.9544 48.9701 71.7716 47.6822 70.0631 46.2628C69.6425 45.8423 69.038 45.9211 68.6175 46.4205C65.3056 49.5746 58.7608 55.3572 57.9197 56.0143C55.449 58.1433 52.5577 58.301 49.9293 56.356C43.5422 51.5985 37.8648 44.0286 36.9185 42.583C36.9185 42.583 36.7608 43.2664 36.6557 43.8709C36.6557 43.8709 36.5768 44.4755 36.8134 44.9749C42.8588 53.6487 49.2196 59.0107 51.6903 60.3512C54.5028 61.8757 57.7357 62.2963 60.9687 60.0095Z" fill="#0E84C7"/>
<path d="M67.6978 64.5045C71.7719 61.1927 77.1339 56.2512 78.5007 54.8056C78.5007 54.8056 77.4756 53.5176 75.9511 51.9931C75.6094 51.7303 75.3466 51.8354 75.11 52.072C71.0359 55.9884 66.6202 60.0624 64.0706 62.0075C59.7337 65.3193 54.7133 65.661 49.693 61.7446C47.8269 60.299 46.1972 58.8534 43.8316 56.3826C40.7301 53.1234 38.785 50.3109 36.5771 47.1831C36.5771 47.1831 36.5771 47.9454 36.84 49.1281C36.9188 49.2859 36.9188 49.6276 37.1028 49.8904C37.5234 50.7315 39.4947 54.0433 42.2809 57.3814C47.8006 63.8474 51.2964 65.7924 53.5831 66.9752C56.4744 68.4209 62.3358 68.9203 67.6978 64.5045Z" fill="#0E84C7"/>
<path d="M100.921 26.4448H98.792V30.3612H90.8804V41.2429H98.792V47.1043H100.921V41.2166H108.911V30.3349H100.921V26.4448ZM98.8708 39.2716H93.0094V32.2011H98.8708V39.2716ZM106.861 39.2716H101V32.2011H106.861V39.2716Z" fill="#0E84C7"/>
<path d="M125.917 37.064L124.472 38.1679L124.629 38.3256C125.234 38.9302 125.996 39.8501 126.574 40.7175L126.653 40.8752L128.178 39.6924L128.099 39.5347C127.6 38.8513 126.732 37.9313 126.049 37.1428L125.917 37.064Z" fill="#0E84C7"/>
<path d="M129.15 41.1384H123.867V36.8804H128.283V35.093H123.867V32.3857H128.704V30.6772H117.244V32.3857H122.001V35.093H117.664V36.8804H122.001V41.1384H116.902V42.9258H129.15V41.1384Z" fill="#0E84C7"/>
<path d="M113.853 46.5002H132.12V27.2075H113.853V46.5002ZM130.149 44.7129H115.771V28.9949H130.149V44.7129Z" fill="#0E84C7"/>
<path d="M144.606 38.3256C143.765 37.5633 141.294 35.6183 141.294 35.6183V34.5932H144.107V32.727H141.294V29.7569C143.344 29.4152 144.185 29.1523 144.185 29.1523L143.765 27.2861C143.765 27.2861 141.978 27.7067 140.111 27.9695C137.719 28.3112 136.379 28.3901 136.379 28.3901L136.537 30.2563C136.537 30.2563 138.061 30.0986 139.349 29.8357V32.6481H136.116V34.5143H139.086C138.324 36.9851 137.036 39.3506 135.774 41.2168C135.774 41.2168 137.141 42.7413 137.141 42.6625C137.982 41.4797 138.745 40.1129 139.349 38.6673V46.9205H141.215V37.9839C141.899 38.6673 142.582 39.2718 143.16 39.7712L143.318 39.9289L144.685 38.4044L144.606 38.3256Z" fill="#0E84C7"/>
<path d="M151.229 36.88C151.571 36.4595 151.729 35.9338 151.729 35.9338L149.863 35.5921C150.204 35.4344 150.546 35.1715 150.888 34.9876C153.174 33.5419 154.725 31.8334 155.724 29.8884V29.8095V28.1011H149.179C149.337 27.7594 149.6 27.4177 149.784 27.076L149.863 26.9183L148.075 26.2349L148.023 26.4451C146.998 28.4953 145.473 30.3615 143.607 31.886C143.607 31.886 144.632 32.6482 145.131 33.0688C146.235 32.0437 147.261 31.0186 147.944 30.0987H153.542C152.517 31.3866 151.597 32.3854 150.493 33.1476C149.731 32.4643 149.127 31.9649 148.207 31.2026L148.023 31.0975L146.84 32.3854L146.998 32.4643C147.839 33.1476 148.364 33.5682 148.864 34.0676C147.418 34.8298 145.815 35.5132 143.922 36.0126C143.922 36.0126 145.105 37.616 145.21 37.616C146.314 37.2743 148.522 36.2492 149.468 35.8287C148.18 38.2994 145.473 40.3233 143.528 41.3484C143.528 41.3484 144.369 42.1895 144.974 42.794C148.023 41.4009 150.126 38.6674 150.126 38.6674H154.384C154.121 40.113 152.859 41.9003 151.072 43.0043C150.388 42.3209 149.626 41.6375 148.864 40.8752L147.497 42.058C148.259 42.7414 148.864 43.4248 149.442 44.0031C146.735 45.1859 143.16 45.3699 143.16 45.3699L143.922 46.9732C143.922 46.9732 154.462 46.7104 156.591 38.5622V36.7749L151.229 36.88Z" fill="#0E84C7"/>
<path d="M168.761 28.3896H160.166V30.2558H168.761V28.3896Z" fill="#0E84C7"/>
<path d="M169.103 43.1875C168.498 41.6631 167.578 39.534 166.816 38.0095L166.737 37.8518L164.95 38.6141L165.029 38.7718C165.449 39.7969 165.87 40.7168 166.316 41.8208L161.769 42.9247C162.794 41.3214 163.977 37.5627 164.661 35.6177H169.418V33.7515H159.141V35.6177H162.532C162.374 36.7216 161.165 40.2963 159.561 43.1875C159.404 43.5292 159.062 43.7921 159.062 43.7921L159.667 45.1589C159.667 45.1589 165.186 43.6344 166.816 43.4504L166.974 43.9498L169.103 43.1875Z" fill="#0E84C7"/>
<path d="M173.755 30.6764C173.755 29.3096 173.834 28.0479 173.834 26.6811V26.5234H171.784V26.6811C171.784 28.0479 171.784 29.3884 171.784 30.6764H169.076V32.6214H171.705V35.171C171.705 39.0874 171.021 41.1113 169.497 43.4243C168.551 44.8699 166.947 45.8162 166.947 45.8162L168.472 47.3406C168.472 47.3406 173.729 44.6334 173.729 36.0384V32.6477H177.224C177.224 36.1435 177.067 39.613 176.883 42.9249C176.883 43.95 176.383 44.4494 175.516 44.4494C174.754 44.4494 173.229 44.4494 173.229 44.4494C173.308 45.0539 173.571 46.4995 173.571 46.4995H176.042C177.829 46.4995 178.749 45.3956 178.933 43.3454C179.091 40.1913 179.275 36.0384 179.353 30.8604V30.7026C179.301 30.6764 173.755 30.6764 173.755 30.6764Z" fill="#0E84C7"/>
<path d="M109.516 55.2524C109.253 54.9896 108.912 54.9107 108.675 54.8319C108.071 54.6742 107.387 54.6742 106.888 54.8319C106.625 54.9107 106.388 54.9896 106.126 55.0947C105.863 55.1736 105.705 55.3576 105.521 55.5153C105.442 55.5941 105.363 55.673 105.258 55.7781V50.7578H103.655V63.0852H105.258V57.3815C105.521 56.9609 105.863 56.6981 106.283 56.4352C106.704 56.1724 107.045 56.0935 107.466 56.0935C107.965 56.0935 108.307 56.2512 108.491 56.5141C108.754 56.7769 108.833 57.2763 108.833 57.8809V63.0589H110.436V57.618C110.436 57.0135 110.357 56.5141 110.173 56.1724C110.016 55.7518 109.753 55.4101 109.516 55.2524Z" fill="#0E84C7"/>
<path d="M113.748 51.5996H112.145V53.3869H113.748V51.5996Z" fill="#0E84C7"/>
<path d="M113.748 54.8315H112.145V62.9797H113.748V54.8315Z" fill="#0E84C7"/>
<path d="M121.502 55.3317C121.239 55.0689 121.002 54.9112 120.661 54.8323C120.056 54.6746 119.294 54.6746 118.716 54.7535C118.453 54.8323 118.216 54.9112 117.953 55.0163C117.691 55.0952 117.533 55.2791 117.349 55.4368C117.27 55.5157 117.086 55.5946 117.007 55.7785L116.849 54.8323H115.562V62.9805H117.165V57.2768C117.428 56.8562 117.769 56.5934 118.19 56.3305C118.611 56.0677 118.952 55.9888 119.373 55.9888C119.793 55.9888 120.135 56.1465 120.398 56.4094C120.661 56.6722 120.74 57.1716 120.74 57.7762V62.9542H122.343V57.5133C122.343 57.0139 122.264 56.4882 122.185 56.1465C121.922 55.8311 121.659 55.5946 121.502 55.3317Z" fill="#0E84C7"/>
<path d="M129.834 56.2772C129.571 55.7778 129.229 55.4361 128.651 55.0944C128.151 54.8315 127.468 54.6738 126.601 54.6738C126.338 54.6738 126.18 54.6738 125.917 54.6738C125.654 54.6738 125.497 54.7527 125.234 54.7527C125.076 54.8315 124.813 54.8315 124.629 54.9104C124.472 54.9892 124.288 54.9892 124.13 55.0681H124.051V56.4349L124.209 56.356C124.551 56.2772 124.892 56.0932 125.234 56.0143C125.576 55.9355 125.917 55.9355 126.338 55.9355C126.837 55.9355 127.284 56.0143 127.521 56.1983C127.784 56.356 128.02 56.54 128.125 56.8029C128.204 56.8817 128.204 57.0657 128.204 57.2234C128.204 57.3811 128.283 57.5651 128.283 57.7228V58.0645C128.02 57.9857 127.784 57.9068 127.521 57.9068C127.179 57.828 126.758 57.828 126.338 57.828C125.917 57.828 125.497 57.9068 125.05 57.9857C124.708 58.0645 124.367 58.3274 124.104 58.4851C123.841 58.7479 123.604 58.9845 123.499 59.3262C123.341 59.6679 123.236 60.0096 123.236 60.4301C123.236 60.8507 123.315 61.1923 123.394 61.534C123.552 61.8757 123.736 62.1386 123.999 62.3751C124.261 62.638 124.498 62.7957 124.84 62.8745C125.181 62.9534 125.523 63.0323 125.944 63.0323C126.206 63.0323 126.548 63.0323 126.785 62.9534C127.048 62.8745 127.284 62.7957 127.468 62.6906C127.731 62.6117 127.889 62.4277 128.073 62.3489C128.152 62.27 128.23 62.1912 128.335 62.1912L128.414 62.8745H129.781V57.4337C129.781 57.1708 129.781 56.9343 129.702 56.7503C129.991 56.6977 129.991 56.4349 129.834 56.2772ZM128.467 59.5102V60.8769C128.388 60.9558 128.309 60.9558 128.204 61.0346C128.125 61.1135 127.941 61.1923 127.784 61.3763C127.626 61.4552 127.363 61.534 127.179 61.6392C126.758 61.7969 126.338 61.7969 125.891 61.6392C125.733 61.5603 125.549 61.4815 125.47 61.3763C125.392 61.2712 125.313 61.1135 125.208 60.9558C125.129 60.7981 125.129 60.6141 125.129 60.3512C125.129 59.9307 125.287 59.589 125.549 59.405C125.812 59.2473 126.233 59.0633 126.732 59.0633C127.074 59.0633 127.494 59.0633 127.757 59.1422C127.941 59.405 128.283 59.5102 128.467 59.5102Z" fill="#0E84C7"/>
<path d="M100.579 59.4049C99.8169 60.7717 98.3713 61.5339 96.8468 61.5339C94.4549 61.5339 92.5098 59.5889 92.5098 57.197C92.5098 54.8051 94.4549 52.8601 96.8468 52.8601C98.3713 52.8601 99.8169 53.7012 100.579 54.9891L100.658 55.068H102.366L102.288 54.8051C101.341 52.6761 99.2386 51.2305 96.8468 51.2305C93.6138 51.2305 90.9854 53.8589 90.9854 57.0919C90.9854 60.3249 93.6138 62.9533 96.8468 62.9533C99.2386 62.9533 101.341 61.5865 102.288 59.3786L102.366 59.1158L100.579 59.4049Z" fill="#0E84C7"/>
<path d="M141.478 57.9599C141.215 58.4593 140.979 59.2478 140.637 60.2466C140.295 59.4055 140.032 58.6432 139.796 57.9599L137.167 51.5728H134.959V62.9539H136.668V57.4342C136.668 56.4091 136.668 55.2263 136.589 53.9383C136.931 54.7006 137.194 55.4628 137.43 56.1462L140.243 62.8487H141.084L143.896 56.1462C144.159 55.4628 144.501 54.7006 144.842 53.8595C144.764 55.1474 144.764 56.2514 144.764 57.3553V62.875H146.472V51.5728H144.264L141.478 57.9599Z" fill="#0E84C7"/>
<path d="M163.819 56.2775C163.662 55.9358 163.399 55.673 163.136 55.5153C162.873 55.3576 162.636 55.1736 162.374 55.0159C162.111 54.937 161.874 54.753 161.611 54.753C161.348 54.6742 161.112 54.6742 160.849 54.6742C160.35 54.6742 159.903 54.753 159.482 54.937C159.219 55.0947 158.878 55.2787 158.72 55.4364V50.7578H157.117V63.0852H158.405L158.667 62.3229L158.746 62.4018C158.825 62.5595 159.009 62.6646 159.167 62.8223C159.325 62.9012 159.587 63.0852 159.85 63.164C160.113 63.2429 160.455 63.3217 160.797 63.3217C161.217 63.3217 161.743 63.2429 162.163 63.0589C162.584 62.9012 163.004 62.6383 163.346 62.2178C163.688 61.8761 163.951 61.3767 164.187 60.851C164.345 60.3516 164.529 59.6682 164.529 58.906C164.529 58.4066 164.45 57.8809 164.371 57.4603C164.161 56.9609 164.082 56.6192 163.819 56.2775ZM162.794 58.906C162.794 59.3265 162.715 59.7471 162.636 60.0888C162.558 60.4305 162.374 60.7721 162.216 61.035C162.058 61.2978 161.795 61.4555 161.532 61.6395C161.27 61.7972 160.928 61.7972 160.586 61.7972C160.323 61.7972 160.166 61.7972 159.903 61.7184C159.745 61.6395 159.482 61.5607 159.403 61.4555C159.246 61.3767 159.062 61.2978 158.983 61.1138C158.904 61.035 158.825 60.9561 158.72 60.851V56.8558C158.983 56.5929 159.219 56.4352 159.561 56.2512C160.061 55.9884 160.744 55.9095 161.348 56.1724C161.611 56.2512 161.769 56.3301 162.032 56.5929C162.19 56.7506 162.452 57.0923 162.531 57.434C162.715 57.802 162.794 58.3014 162.794 58.906Z" fill="#0E84C7"/>
<path d="M167.289 54.8315H165.686V62.9797H167.289V54.8315Z" fill="#0E84C7"/>
<path d="M167.289 51.5996H165.686V53.3869H167.289V51.5996Z" fill="#0E84C7"/>
<path d="M170.706 50.7314H169.103V63.0588H170.706V50.7314Z" fill="#0E84C7"/>
<path d="M178.854 56.8555C178.696 56.3561 178.434 55.9092 178.171 55.5675C177.829 55.2258 177.487 54.963 177.146 54.8053C176.305 54.4636 175.279 54.4636 174.438 54.8841C174.018 55.0418 173.597 55.3047 173.256 55.7252C172.914 56.0669 172.651 56.5663 172.414 57.092C172.257 57.5914 172.073 58.2748 172.073 59.0371C172.073 59.7993 172.152 60.4039 172.414 60.9821C172.572 61.4815 172.914 61.9283 173.256 62.27C173.597 62.6117 174.097 62.8746 174.622 63.0323C175.148 63.19 175.647 63.2951 176.226 63.2951C176.725 63.2951 177.172 63.2951 177.592 63.2163C178.013 63.1374 178.355 63.0586 178.696 62.8746L178.775 62.7957V61.4289L178.618 61.5078C178.276 61.5866 177.934 61.7706 177.592 61.7706C177.251 61.8495 176.909 61.8495 176.489 61.8495C176.068 61.8495 175.726 61.7706 175.385 61.6918C175.043 61.6129 174.78 61.4289 174.543 61.2712C174.281 61.1135 174.123 60.8507 173.939 60.509C173.86 60.1673 173.781 59.8256 173.781 59.405H179.222V59.2473C179.222 59.0896 179.222 58.9845 179.222 58.9056V58.7479C179.038 57.9594 178.959 57.3812 178.854 56.8555ZM173.755 57.9594C173.755 57.6966 173.834 57.5389 173.913 57.276C173.992 57.0132 174.175 56.8555 174.333 56.5926C174.491 56.4349 174.754 56.2509 174.938 56.1721C175.358 56.0144 176.042 56.0144 176.462 56.1721C176.725 56.2509 176.883 56.4349 176.962 56.5926C177.119 56.7503 177.224 57.0132 177.303 57.276C177.382 57.4337 177.382 57.6966 177.382 57.9594H173.755Z" fill="#0E84C7"/>
<path d="M151.755 54.6479C149.363 54.6479 147.497 56.593 147.497 58.906C147.497 61.2979 149.442 63.1641 151.755 63.1641C154.147 63.1641 156.013 61.219 156.013 58.906C156.092 56.5141 154.226 54.6479 151.755 54.6479ZM151.755 61.7973C150.152 61.7973 148.864 60.5094 148.864 58.906C148.864 57.3027 150.152 56.0147 151.755 56.0147C153.358 56.0147 154.646 57.3027 154.646 58.906C154.646 60.5094 153.358 61.7973 151.755 61.7973Z" fill="#0E84C7"/>
</g>
<defs>
<clipPath id="clip0_12232_16870">
<rect width="142.803" height="44" fill="white" transform="translate(36.5771 24)"/>
</clipPath>
</defs>
</svg>
