<svg width="223" height="92" viewBox="0 0 223 92" fill="none" xmlns="http://www.w3.org/2000/svg">
<path d="M119.736 62.4337V55.1906H121.424V62.4337H119.736ZM120.562 54.4671C119.968 54.4671 119.588 54.0219 119.588 53.5026C119.588 52.9555 120.005 52.5288 120.58 52.5288C121.202 52.5288 121.573 52.9461 121.573 53.5026C121.573 54.0127 121.202 54.4671 120.58 54.4671H120.562Z" fill="#D91A21"/>
<path d="M136.114 55.2367V56.0805C135.419 55.3849 134.631 55.0511 133.75 55.0511C132.739 55.0511 131.885 55.4128 131.209 56.1176C130.531 56.8318 130.188 57.7312 130.188 58.8071C130.188 59.9015 130.541 60.8195 131.209 61.5337C131.895 62.2663 132.748 62.6188 133.796 62.6188C134.621 62.6188 135.391 62.3034 136.105 61.645V62.4146H137.867V55.2366L136.114 55.2367ZM135.623 60.4859C135.224 60.9124 134.714 61.1258 134.046 61.1258C133.444 61.1258 132.943 60.8847 132.544 60.4674C132.164 60.0408 131.978 59.4934 131.978 58.8073C131.978 58.1767 132.164 57.6201 132.553 57.2028C132.952 56.767 133.462 56.5443 134.065 56.5443C134.705 56.5443 135.215 56.767 135.614 57.2028C136.013 57.6201 136.217 58.1767 136.217 58.835C136.226 59.5028 136.022 60.0406 135.623 60.4859ZM111.946 52H113.782V56.0621C113.782 56.0621 114.441 55.1255 115.869 55.1255C117.167 55.1255 118.373 55.9971 118.373 58.1858V62.4427H116.694V58.0561C116.694 57.3049 116.398 56.3681 115.34 56.3681C114.302 56.3681 113.792 57.1287 113.792 58.0561V62.4427H111.955L111.946 52ZM111.297 60.6621C110.889 61.2092 110.397 61.6915 109.767 62.0438C109.034 62.4612 108.218 62.656 107.328 62.656C106.02 62.656 104.898 62.1829 103.97 61.2834C103.043 60.3466 102.579 59.2429 102.579 57.9076C102.579 56.5165 103.099 55.3202 104.156 54.3834C105.074 53.558 106.131 53.1314 107.328 53.1314C108.181 53.1314 109.006 53.3725 109.767 53.7713C110.379 54.1423 110.898 54.5875 111.306 55.1532L109.739 56.2752C109.646 56.0064 109.479 55.7744 109.293 55.5519C108.774 54.9677 108.125 54.6522 107.309 54.6522C106.52 54.6522 105.862 54.9676 105.343 55.5706C104.814 56.1734 104.554 56.9617 104.554 57.8982C104.554 58.8721 104.814 59.6604 105.343 60.2817C105.853 60.8661 106.502 61.1628 107.309 61.1628C108.097 61.1628 108.746 60.8661 109.293 60.2539C109.47 60.0222 109.637 59.7901 109.739 59.5306C109.73 59.549 110.889 60.3839 111.297 60.6621ZM126.84 55.1255C125.106 55.0884 124.55 56.0621 124.55 56.0621L124.466 55.2182H122.908V62.4428H124.707V58.0562C124.707 57.1381 125.264 56.359 126.284 56.359C127.35 56.359 127.666 57.3143 127.666 58.0562V62.4428H129.335V58.1954C129.335 55.9786 128.139 55.1255 126.84 55.1255Z" fill="black"/>
<path d="M173.326 55.7282C172.723 55.3852 172.111 55.2182 171.425 55.2182C170.507 55.2182 169.672 55.5521 168.958 56.2011C168.133 56.9338 167.715 57.8612 167.715 58.9741C167.715 60.0316 168.068 60.9218 168.81 61.6545C169.533 62.3872 170.405 62.7395 171.444 62.7395C172.13 62.7395 172.77 62.5912 173.354 62.2481C173.929 61.9328 174.384 61.4504 174.717 60.8662C175.042 60.2726 175.228 59.6512 175.228 58.965C175.228 58.3158 175.051 57.6759 174.717 57.0823C174.402 56.5351 173.929 56.062 173.326 55.7282Z" fill="black"/>
<path d="M151.578 56.229C151.578 56.229 152.153 55.2552 153.869 55.2738C155.167 55.3108 156.373 56.1549 156.364 58.3622V62.5912H154.667V58.2323C154.667 57.4718 154.361 56.5443 153.285 56.5443C152.274 56.5443 151.736 57.277 151.736 58.2323V62.5912H149.928V55.3852H151.504L151.578 56.229Z" fill="black"/>
<path d="M146.83 61.7564C146.83 61.7564 146.264 62.7211 144.539 62.6932C143.231 62.6745 141.794 61.8306 141.794 59.6141V55.3851H143.621V59.7624C143.621 60.5043 144.038 61.4596 145.114 61.4596C146.144 61.4596 146.663 60.6898 146.663 59.7624V55.3851H148.481V62.591H146.913L146.83 61.7564Z" fill="black"/>
<path d="M166.361 62.2758C166.862 62.0069 167.27 61.6451 167.576 61.1907L166.222 60.217C166.139 60.4118 166.018 60.5971 165.87 60.7641C165.499 61.2186 165.026 61.4319 164.442 61.4319C163.885 61.4319 163.421 61.2186 163.041 60.7827C162.652 60.3189 162.466 59.7347 162.466 59.0206C162.466 58.3064 162.652 57.7223 163.041 57.277C163.412 56.8318 163.885 56.6 164.442 56.6C165.044 56.6 165.517 56.8318 165.888 57.277C166.018 57.4161 166.139 57.5831 166.222 57.7964L167.558 56.8226C167.252 56.3867 166.834 56.0156 166.343 55.7468C165.74 55.4037 165.081 55.2367 164.423 55.2367C163.477 55.2367 162.624 55.5706 161.9 56.2105C161.066 56.9617 160.639 57.8985 160.639 59.0206C160.639 60.0685 161.01 60.9496 161.752 61.6823C162.494 62.3963 163.384 62.7858 164.423 62.7858C165.119 62.7858 165.786 62.6282 166.361 62.2758Z" fill="black"/>
<path d="M184.279 55.3108C183.203 55.2923 182.452 55.7468 181.831 56.4423C181.413 55.6818 180.699 55.3479 179.948 55.3108C178.408 55.2738 177.768 56.2476 177.768 56.2476L177.694 55.3852H176.062V62.5912H177.889V58.2508C177.889 57.3141 178.381 56.563 179.327 56.563C180.301 56.563 180.579 57.4996 180.579 58.2508V62.5912H182.239V58.3437V58.3622C182.257 57.138 182.804 56.5631 183.648 56.5631C184.622 56.5631 184.919 57.4998 184.919 58.2509V62.5913H186.579V58.3716C186.579 56.1826 185.485 55.3479 184.279 55.3108Z" fill="black"/>
<path d="M170.136 57.1841C170.507 56.7112 170.971 56.4795 171.555 56.4795C172.158 56.4795 172.64 56.7113 173.03 57.1657C173.401 57.6665 173.605 58.2507 173.605 58.9834C173.605 59.7345 173.401 60.3466 173.002 60.8197C172.631 61.2834 172.13 61.5153 171.555 61.5153C170.962 61.5153 170.507 61.2834 170.108 60.8382C169.737 60.356 169.552 59.7439 169.552 58.9834C169.552 58.2693 169.737 57.6571 170.136 57.1841Z" fill="#F5F5F5"/>
<path d="M157.728 63V55.7942H159.416V63H157.728Z" fill="#D91A21"/>
<path d="M157.579 54.0015C157.579 54.5116 157.959 54.9474 158.553 54.9474H158.571C159.193 54.9474 159.564 54.5024 159.564 54.0015C159.564 53.4266 159.193 53 158.571 53C157.996 53 157.579 53.4358 157.579 54.0015Z" fill="#D91A21"/>
<path d="M54.0446 52.305L57.5655 48.7962L54.7852 46.0215L57.5655 43.2035L54.0446 39.7272L51.2749 42.491L49.4393 40.6449C46.5195 37.6975 41.7209 37.6975 38.7904 40.6449C37.309 42.1239 36.5791 44.078 36.5791 46.0215C36.5791 47.9433 37.2984 49.8864 38.7904 51.3764C41.7209 54.3346 46.5193 54.3346 49.4393 51.3764C50.0543 50.764 50.6661 50.1486 51.2749 49.5301L54.0446 52.305ZM45.9721 47.8353C44.9416 48.8717 43.2991 48.8717 42.2793 47.8353C41.7855 47.3387 41.5385 46.6585 41.5385 46.0107C41.5385 45.319 41.8039 44.6538 42.2793 44.1539C43.2989 43.1284 44.9416 43.1284 45.9721 44.1539C46.7772 44.9743 47.797 46.0107 47.797 46.0107C47.797 46.0107 46.7772 47.0041 45.9721 47.8353ZM92.3786 40.6343C89.448 37.6869 84.6603 37.6869 81.7191 40.6343C80.8924 41.4873 79.8834 42.4804 79.8834 42.4804L77.1029 39.7059L73.6141 43.1822L76.3836 46L73.6141 48.7747L77.1029 52.2837L79.8726 49.4982C79.8726 49.4982 80.8817 50.5021 81.7082 51.3445C84.6497 54.3027 89.4373 54.3027 92.3678 51.3445C93.8385 49.8545 94.5791 47.9112 94.5791 45.9896C94.5791 44.0679 93.8494 42.1133 92.3786 40.6343ZM88.8791 47.8353C87.87 48.8717 86.2277 48.8717 85.2077 47.8353C84.3812 47.0041 83.3721 46.0107 83.3721 46.0107C83.3721 46.0107 84.3812 44.9743 85.2077 44.1539C86.2275 43.1284 87.87 43.1284 88.8791 44.1539C89.3836 44.6614 89.6306 45.3307 89.6306 46.0107C89.6306 46.6585 89.3945 47.3386 88.8791 47.8353ZM69.1056 46.0107C69.1056 46.0107 77.2962 37.7624 78.1015 36.9419C81.0534 33.9837 81.0534 29.1903 78.1015 26.2106C75.1708 23.2631 70.4045 23.2631 67.4417 26.2106C66.2932 27.398 65.617 28.0675 65.617 28.0675C65.617 28.0675 64.9513 27.398 63.7921 26.2106C60.84 23.2631 56.0737 23.2631 53.1216 26.2106C50.1802 29.1903 50.1802 33.9837 53.1216 36.9419L62.1389 46.0107C62.1389 46.0107 53.9374 54.2266 53.1216 55.0581C50.1802 58.0163 50.1802 62.8206 53.1216 65.7896C56.0737 68.7368 60.84 68.7368 63.7921 65.7896C64.9513 64.602 65.617 63.911 65.617 63.911C65.617 63.911 66.2932 64.602 67.4417 65.7896C70.4047 68.7368 75.1708 68.7368 78.1015 65.7896C81.0534 62.8206 81.0534 58.0163 78.1015 55.0581C77.2962 54.2266 69.1056 46.0107 69.1056 46.0107ZM56.6103 33.4331C55.6118 32.3967 55.6118 30.7665 56.6103 29.7407C57.6299 28.7368 59.2831 28.7368 60.2815 29.7407L62.1278 31.5976L59.3475 34.3723L62.8256 37.8919L65.6059 35.0956L68.3863 37.8919L71.8644 34.3723L69.0948 31.5976C69.0948 31.5976 69.9535 30.7231 70.9413 29.7407C71.9502 28.7368 73.5927 28.7368 74.6018 29.7407C75.6214 30.7663 75.6214 32.3967 74.6018 33.4331C73.5388 34.502 65.5737 42.5344 65.5737 42.5344C65.5737 42.5344 57.6515 34.502 56.6103 33.4331ZM74.6234 62.27C73.6143 63.274 71.9719 63.274 70.9628 62.27C69.9751 61.2876 69.1165 60.4237 69.1165 60.4237L71.886 57.6275L68.408 54.1185L65.617 56.904L62.8365 54.1077L59.3585 57.6165L62.1389 60.413C62.1389 60.413 61.2694 61.2767 60.2926 62.2591C59.2943 63.263 57.6411 63.263 56.6211 62.2591C55.6229 61.2442 55.6229 59.5708 56.6211 58.5667C57.6625 57.4978 65.6063 49.4654 65.6063 49.4654C65.6063 49.4654 73.5715 57.4978 74.6343 58.5667C75.643 59.5708 75.643 61.2551 74.6234 62.27Z" fill="#D91A21"/>
<path fill-rule="evenodd" clip-rule="evenodd" d="M119.521 32.0715H113.595V29.5H110.486V32.0715H106.601V33.9358H110.486V41.3943H105.688V32.0715H102.579V43.2002H110.506V48.4994H110.991C112.759 48.4211 113.556 47.636 113.615 46.3208V43.2002H118.841C120.24 43.2002 121.405 42.0816 121.483 40.6092V33.9557C121.405 32.9153 120.589 32.0715 119.521 32.0715ZM164.634 40.0402H161.467L165.101 48.2835H162.439L159.777 42.2185L157.834 47.1059C157.543 47.7534 156.824 48.2636 156.086 48.2636H154.745L157.892 40.0595H155.212V38.2144H158.242V35.4274H155.212V33.6022H157.523L155.658 30.4224L157.096 29.5199C157.096 29.5199 158.222 30.6389 159.524 32.464L157.989 33.5827H159.854L162.419 29.5003L164.401 30.9333L162.322 33.583H164.634V35.4082H161.098V38.1952H164.634V40.0402ZM178.68 33.5237C177.534 32.7386 176.193 32.1497 176.193 32.1497L175.241 33.3861L176.193 34.2498H172.502V45.2412H173.24C174.056 45.2412 174.969 44.6919 174.969 43.5924V42.0813H177.806V45.2412H178.603C179.535 45.2412 180.235 44.731 180.273 43.5729V42.0816H183.149V42.8272C183.149 43.1608 182.722 43.3962 182.411 43.3962H181.303L181.789 45.2608H183.576C184.781 45.2608 185.772 44.299 185.772 43.0427V35.7805C185.772 34.9364 185.073 34.269 184.276 34.269H181.4L185.208 31.9727V29.8727H172.366V31.6783H181.75L178.68 33.5237ZM172.21 46.0854C171.55 46.0854 171.025 45.5357 171.025 44.8881V35.4079H166.926V37.2529H168.286V45.6142C168.286 47.0273 169.51 47.9105 170.481 47.9105H186.043V46.0854H172.21ZM168.558 30.2655C168.558 30.2655 170.035 31.286 171.375 33.1901L169.549 34.5836L167.121 31.3056L168.558 30.2655ZM155.327 41.6496L154.123 42.003V31.7575C154.123 30.5994 153.423 29.8929 152.568 29.8929H146.137V31.7575H151.539V34.5839H149.324V32.6799H146.895V44.0443L145.826 44.3782V46.4L151.539 44.7708V48.5H152.568C153.365 48.5 153.889 47.9897 154.123 47.0084V44.0642L155.327 43.7108V41.6496ZM128.088 29.8534H140.931C142.038 29.8534 142.912 30.7562 142.913 31.8354V45.3198C142.913 46.8118 141.727 47.9695 140.309 47.9695H124.3V29.8534H127.137V46.1245H138.891C139.532 46.1245 140.037 45.6341 140.037 44.9667V31.659H128.088V29.8534ZM139.085 42.5133H137.706L138.619 41.3555C137.414 40.2368 136.443 39.6672 136.443 39.6672L135.374 40.7468L136.928 42.5133H134.811V39.4514H139.007V37.6063H134.811V35.3296H139.007V33.5041H128.167V35.3296H131.955V37.6063H128.167V39.4514H131.955V42.5133H128.089V44.3388H139.085L139.085 42.5133ZM183.168 36.075V37.3113H180.293V36.075H183.168ZM177.825 37.3116H174.988V36.0753H177.825V37.3116ZM177.825 40.2949H174.988V39.0586H177.825V40.2949ZM180.293 40.2949H183.168V39.0586H180.293V40.2949ZM118.307 40.649C118.365 40.5056 118.395 40.3519 118.394 40.1969V33.916H113.614V41.3748H117.228C117.381 41.376 117.533 41.3464 117.675 41.2876C117.817 41.2288 117.946 41.1421 118.055 41.0325C118.163 40.9228 118.249 40.7925 118.307 40.649ZM151.519 38.6469H149.304V36.409H151.519V38.6469ZM151.519 42.7097L149.304 43.3377V40.4916H151.519V42.7097Z" fill="black"/>
</svg>
