<svg width="233" height="92" viewBox="0 0 233 92" fill="none" xmlns="http://www.w3.org/2000/svg">
<path fill-rule="evenodd" clip-rule="evenodd" d="M76.9677 40.0824C76.9677 40.0824 71.1066 44.9241 61.763 47.2741C61.763 47.2741 60.2886 47.6394 58.0448 47.9848C58.1383 50.101 58.4164 53.7239 59.2432 56.5611C59.2432 56.5611 60.489 60.8932 62.3011 60.8932C62.3011 60.8932 63.5752 60.8932 64.6511 58.5148C64.6511 58.5148 65.7271 56.1364 66.1801 52.2574L69.5778 51.408C69.5778 51.408 68.7001 58.6281 65.9819 63.2999C65.9819 63.2999 63.1788 68 59.6396 68C59.6396 68 55.3925 68 52.3912 61.6293C52.3912 61.6293 49.8996 56.3405 49.4568 48.5685C47.9354 48.5181 46.403 48.3664 44.9445 48.0669C44.9445 48.0669 37.4979 46.4813 36.3937 41.9228C36.3937 41.9228 35.4593 38.1287 39.5648 33.9382C39.5648 33.9382 43.6137 29.7761 50.8904 27.0013L51.3718 28.87C51.3718 28.87 47.1247 30.6821 44.7746 32.9755C44.7746 32.9755 42.3679 35.3822 42.9059 37.4492C42.9059 37.4492 43.6137 40.0824 48.597 40.8752C48.597 40.8752 49.011 40.939 49.7548 40.9916C50.1264 37.9169 50.8767 34.0103 52.3912 30.7671C52.3912 30.7671 55.3925 24.3681 59.6396 24.3681C59.6396 24.3681 63.8867 24.3681 66.9163 30.8803L65.0192 31.39C65.0192 31.39 64.2264 30.5122 63.1788 30.5122C63.1788 30.5122 60.8854 30.5122 59.3281 35.4672C59.3281 35.4672 58.7575 37.3246 58.3636 40.4115C58.8899 40.3082 59.4292 40.1898 59.9792 40.0541C59.9792 40.0541 66.3499 38.4685 70.4271 35.4389C70.4271 35.4389 74.4477 32.381 73.7682 29.7194C73.7682 29.7194 73.2019 27.426 69.1247 26.435L68.5018 24C68.5018 24 73.7965 24.1982 77.3074 25.9537C77.3074 25.9537 80.9033 27.7091 81.6395 30.6821C81.6395 30.6821 82.8003 35.2124 76.9677 40.0824ZM110.491 29.861V29.9176L110.718 30.0026L111.001 29.9176L111.143 29.8327L111.426 29.861C111.426 29.861 111.766 29.9459 112.049 29.861H112.134L110.718 29.6911L110.491 29.861ZM101.431 25.1042C101.431 25.1042 101.544 25.0759 101.629 24.991C101.629 24.991 103.555 25.0759 104.659 26.9163C104.659 26.9163 106.16 29.4646 106.499 29.7194L106.782 30.0026L107.066 30.1725C107.066 30.1725 107.207 30.2008 107.462 30.0309L107.887 30.2008L108.057 30.3423L108.226 30.4556L108.311 30.2008L108.906 30.1158L109.557 30.1725C109.557 30.1725 109.472 29.9459 108.821 30.0309C108.821 30.0309 108.226 30.1158 108.226 29.8327L110.322 29.6911C110.322 29.6911 110.152 30.0875 109.812 30.0875L109.982 30.4273L109.812 30.5972L110.067 30.6821L110.293 30.4273H110.633L110.661 30.2857H110.746L110.831 30.4556H110.888C110.888 30.4556 110.916 30.0309 111.398 30.2574L111.228 30.8803C111.228 30.8803 111.766 30.8803 111.766 31.0219H111.851L112.049 30.7104L111.907 30.6255L111.936 30.4556L112.304 30.5122C112.304 30.5122 112.474 30.5122 112.474 30.2857L113.436 30.7104V30.7954L112.842 30.6821C112.842 30.6821 112.558 30.6821 112.558 31.1068C112.558 31.1068 112.304 31.0502 112.332 30.7954L112.247 30.7104C112.247 30.7104 112.077 31.305 110.576 31.9279C110.576 31.9279 108.906 32.5508 108.623 32.8906V33.4569C108.623 33.4569 108.623 33.6268 108.453 33.8816L108.566 34.9009C108.566 34.9009 108.566 36.2033 108.736 36.4582L108.878 36.5714C108.878 36.5714 109.217 36.2317 110.293 36.2033L111.086 35.6937L111.992 34.4479C111.992 34.4479 112.643 33.6834 112.757 33.287L112.728 32.9755C112.728 32.9755 113.153 32.6075 113.408 31.9562C113.408 31.9562 113.691 31.2201 113.578 30.7671C113.578 30.7671 113.493 30.4556 113.096 30.2574C113.096 30.2574 112.672 30.1158 112.474 30.0026L112.558 29.9459C112.558 29.9459 113.436 30.1725 113.748 30.4556C113.748 30.4556 114.229 30.852 114.144 31.6731L113.833 33.4286L113.663 35.2124L113.266 35.9768L112.813 38.2986C112.813 38.2986 112.587 40.6486 112.049 40.6486C112.049 40.6486 112.134 41.2149 111.058 41.5547L109.416 41.9228C109.416 41.9228 109.076 42.0643 108.566 43.3951L107.915 45.2355C107.915 45.2355 107.887 45.4054 107.575 45.6885L107.235 46.1699L107.151 48.0669C107.151 48.0669 107.122 49.1995 106.896 49.9073L106.075 51.7477V52.3707C106.075 52.3707 106.046 52.9652 105.82 54.0978C105.82 54.0978 105.961 54.834 105.905 55.0888L105.735 55.4569L105.452 55.7117L105.225 55.5135V56.6178L105.14 56.7027L104.942 56.5328H104.829C104.829 56.5328 104.829 57.6937 104.631 57.6937L104.546 57.2124H104.376V57.1274L104.489 56.9575C104.489 56.9575 104.036 57.2973 103.951 57.2973C103.951 57.2973 103.781 57.269 103.809 56.3629C103.809 56.3629 103.866 55.4569 104.149 55.287L104.319 55.4286V55.1737H103.725C103.725 55.1737 103.696 54.7207 103.47 54.0129C103.47 54.0129 103.215 53.0785 103.045 53.0219C103.045 53.0219 102.818 53.3616 102.818 53.8713C102.818 53.8713 102.818 54.4376 103.13 54.5508L103.187 55.0888L103.102 55.1171L103.045 54.6924L102.734 54.6358L102.818 55.5135H102.649L102.564 54.5508L102.28 53.7014V52.6821L102.394 52.3423L102.111 51.4929L102.054 48.7465L101.941 48.1519L101.771 47.529L101.856 46.0566C101.856 46.0566 101.941 45.3205 101.459 44.4144C101.459 44.4144 100.865 44.7259 99.6756 44.9807L97.8352 45.4054L97.0141 45.7735L96.1647 45.6885L95.3436 45.5187C95.3436 45.5187 95.117 45.3488 95.0038 44.7259L94.7773 43.7632L93.7013 44.0746C93.7013 44.0746 93.1068 44.2445 92.8236 43.5933L92.6537 43.3102L92.5122 43.3385L92.0874 42.4891C92.0874 42.4891 92.1724 42.4041 92.0025 42.1493C92.0025 42.1493 91.6061 41.9228 91.691 40.7336C91.691 40.7336 91.8609 39.5444 91.8326 39.3179C91.8326 39.3179 91.8609 39.3745 92.0308 38.9498L92.2573 38.3835C92.2573 38.3835 92.5971 38.157 92.5971 37.3642L92.8236 37.1377C92.8236 37.1377 93.3616 36.0335 93.3333 35.8919L93.7863 34.6461L94.1261 33.7967L94.4941 32.8623H94.664L94.8622 32.3526L95.117 31.9562C95.117 31.9562 95.2586 32.0129 95.4568 32.6924L95.6833 33.5418L95.8815 33.8816C95.8815 33.8816 96.193 34.5328 95.8815 35.1557H96.108V35.1274H96.193L96.2779 35.0708C96.2779 35.0708 96.8442 34.9858 97.3822 34.4479C97.3822 34.4479 98.2033 34.1364 98.5997 33.8816L99.4774 33.6268C99.4774 33.6268 99.7039 33.3153 101.346 32.7207V32.2677C101.346 32.2677 101.771 31.843 101.799 31.4749L101.714 30.5405L101.856 30.0309L101.969 29.5495C101.969 29.5495 101.969 27.7091 101.799 26.7748L101.544 25.9537H101.799L101.431 25.1042ZM101.686 36.7413L101.346 35.3822C101.346 35.3822 101.063 36.0335 99.7889 36.5714L98.0051 37.3642L96.5327 39.0631C96.5327 39.0631 96.5894 39.2896 96.2779 39.4878L96.108 40.2239L95.7966 40.8185L95.3719 41.3282C95.3719 41.3282 95.1737 41.8095 95.2869 41.9794C95.2869 41.9794 94.9472 42.2342 95.117 42.6589C95.117 42.6589 95.2869 42.6306 95.4285 42.5457C95.4285 42.5457 95.7116 42.574 96.5044 41.8945C96.5044 41.8945 97.2972 41.1583 98.0051 41.0734L99.4491 40.8752C99.4491 40.8752 100.015 40.7053 100.78 40.2239L101.431 39.3745L101.969 38.5817C101.969 38.5817 102.054 38.2136 101.884 37.6474L101.686 36.7413ZM131.416 29.2664L130.311 29.6911L129.547 29.9176L128.952 30.2574C128.471 30.2574 128.273 30.5122 128.273 30.5122C127.31 30.9369 127.14 30.852 127.14 30.852C126.376 31.3616 125.017 31.1351 125.017 31.1351L124.45 30.9652C124.394 30.6821 123.884 30.5405 123.884 30.5405C123.374 30.4273 123.374 30.3707 123.374 30.3707C124.139 29.9176 126.064 29.4363 126.064 29.4363C126.517 29.5212 127.395 28.7851 127.395 28.7851L128.386 28.417L129.377 27.9356L130.481 27.5393H130.793L131.642 27.3694L132.718 27.2561L132.803 27.1712L133.398 27.0296L133.964 27.0862C134.389 26.6049 135.974 26.435 135.974 26.435L138.239 26.0952C138.579 26.0103 139.23 26.3501 139.23 26.3501L140.278 27.5109C141.014 28.4453 141.099 28.87 141.099 28.87L140.844 30.5122C140.646 31.843 141.014 31.8713 141.014 31.8713C140.901 32.9472 140.986 33.287 140.986 33.287C140.844 33.5135 140.759 34.1081 140.759 34.1081L141.014 36.1467L141.099 38.2986L141.156 40.7053L141.326 43.0553V44.1313L141.269 45.1789C141.439 46.5096 141.184 47.6705 141.184 47.6705C141.326 47.7555 141.326 49.2561 141.326 49.2561C141.014 49.3694 141.156 50.1055 141.156 50.1055L141.41 51.0399V52.0875L141.241 53.1068V54.5508C141.184 55.287 140.674 55.9382 140.674 55.9382C140.278 56.3912 140.108 56.3912 140.108 56.3912V56.5328L139.938 56.5611C138.069 55.7117 137.588 55.0322 137.588 55.0322L136.937 53.1068L136.852 52.9369C136.059 51.6911 135.974 51.2098 135.974 51.2098L135.833 51.1248C135.153 50.0772 135.153 49.0296 135.153 49.0296C135.493 48.8597 136.229 49.4826 136.229 49.4826V49.5109L136.569 49.9073L136.993 50.1905C137.163 50.1905 137.22 49.8224 137.22 49.8224L137.163 49.3411L137.248 48.8314L137.135 48.6898L137.163 48.2651L137.418 47.529L137.73 46.7645C137.815 46.5663 137.248 42.9987 137.248 42.9987C137.503 42.7439 137.248 41.5547 137.248 41.5547C137.475 40.7902 137.475 40.3372 137.475 40.3372L137.333 37.9871L137.503 36.3166L137.73 33.9665C137.815 31.7864 137.984 31.4466 137.984 31.4466C137.758 31.2201 137.984 30.1158 137.984 30.1158L137.588 29.3797L137.248 28.87L136.767 28.7001L136.314 28.6718L135.153 28.6152L133.992 28.6718L133.567 28.8417L132.548 28.955L131.416 29.2664ZM105.48 55.8533L105.452 57.0142C105.452 57.0142 105.65 57.0142 105.65 56.4762C105.65 56.4762 105.706 55.9665 105.48 55.8533ZM102.988 56.4762L103.13 56.9575H103.187L103.3 56.7027V56.1931H103.215L103.187 56.2214L103.271 55.9382L102.875 55.7117C102.875 55.7117 102.79 55.9665 102.988 56.4762ZM103.555 57.2973L103.611 57.2124C103.611 57.2124 103.696 56.3629 103.526 56.1931C103.526 56.1931 103.3 56.3913 103.47 57.2973H103.555ZM102.96 59.2793V62.4505H105.622V59.2793H107.915V66.8958H105.622V63.6396H102.96V66.8958H100.638V59.2793H102.96ZM95.1737 61.0631C95.1737 61.0631 94.4941 61.7426 94.4941 63.0734V63.1583C94.4941 63.1583 94.4941 64.5457 95.117 65.2252C95.117 65.2252 95.8532 65.8764 96.9291 65.8764L98.2599 65.7349L99.1093 65.5367V66.6692L98.2599 66.9241L96.7876 67.009C96.7876 67.009 94.6923 67.009 93.3616 66.0746C93.3616 66.0746 92.0874 65.1403 92.0874 63.2999V62.9601C92.0874 62.9601 92.0874 61.2329 93.4182 60.2136C93.4182 60.2136 94.749 59.1377 96.7593 59.1377L98.2033 59.2227L99.1093 59.4492V60.6384L98.2882 60.4402L97.1273 60.3552C97.1273 60.3552 95.8815 60.3552 95.1737 61.0631ZM135.096 39.3179C135.096 39.3179 135.153 39.7992 134.587 40.4221L134.417 40.6486L134.389 40.7336L134.219 41.0734L134.134 41.4698L133.879 41.6396L133.794 41.8095L133.879 41.8378C133.879 41.8378 134.162 41.9228 134.643 41.668L135.096 41.5547L135.634 41.4981L136.002 41.4698L136.229 41.4131C136.229 41.4131 136.739 41.583 137.135 40.9884L137.22 40.2239L137.135 39.7992L136.993 39.4878L136.824 39.4028L136.569 39.2896L135.974 39.2329L135.889 39.148L135.323 38.8932L134.898 38.7233L135.096 39.3179ZM132.407 31.0502L133.143 30.852C133.709 30.852 133.709 31.1918 133.709 31.1918L133.907 31.4749L134.332 32.2111L134.389 32.6075L134.304 32.8623L134.332 33.2304L134.247 33.5985L133.964 33.9665C133.567 34.7876 133.341 34.7876 133.341 34.7876L132.492 35.6937C132.293 36.1184 132.293 36.4865 132.293 36.4865L132.208 36.6281L132.492 36.8263L132.633 36.9678L132.973 37.1377L133.794 37.704L134.247 38.157L134.332 38.5817V38.9498L134.162 39.2896L134.134 39.4878L133.398 40.2522L132.718 41.2149L132.407 41.2432L132.237 41.3848C132.237 41.6396 132.378 41.6396 132.378 41.6396L132.208 42.0927L132.152 42.4607L132.038 42.9138L133.228 42.8288C133.228 42.9987 133.652 42.9987 133.652 42.9987L134.332 43.0553L134.134 43.4234C133.992 43.7632 134.219 43.7632 134.219 43.7632H134.558L134.473 43.9048L134.332 44.1596C134.247 44.4994 133.964 44.6692 133.964 44.6692L133.398 45.1506L132.633 45.6602L132.067 45.8301C131.869 45.9717 131.642 46.0566 131.642 46.0566L131.246 46.1699C130.793 46.4247 130.793 46.3964 130.793 46.3964C130.453 46.7362 130.311 46.6512 130.311 46.6512C129.632 47.1609 129.462 47.1609 129.462 47.1609L129.207 47.3591L128.046 47.7555L127.395 48.0952L126.234 48.3501C125.894 48.435 125.3 48.3501 125.3 48.3501C125.017 48.2368 125.017 48.1802 125.017 48.1802C124.96 48.2368 124.79 48.0103 124.79 48.0103L124.535 47.6139L124.309 46.991V46.6512L124.479 46.3964L124.677 45.9717V45.7735L124.932 45.3205L125.186 44.9807L125.696 44.5843L125.781 44.3861L125.979 43.9897L126.149 43.4234C126.036 43.4234 126.149 43.1686 126.149 43.1686L126.206 42.9138L125.866 42.9704L125.441 42.8855L125.102 42.5457L124.847 42.0927L124.28 42.0077L123.884 41.6396L123.771 41.5547L123.714 41.2149L124.054 40.9035V40.7902L124.026 40.6486L124.365 40.3089L125.017 39.8842L125.441 39.5444L126.517 39.1197L126.885 38.8932L127.367 38.8082L127.565 38.3835L127.621 37.7323L127.565 37.3076L127.48 36.7413C127.48 36.6281 127.31 36.6281 127.31 36.6281H126.715L126.347 36.5714H125.215C124.96 36.4015 124.875 36.0335 124.875 36.0335L124.847 35.5238C123.771 35.0708 123.771 34.9575 123.771 34.9575H123.601C123.431 34.3063 124.309 34.3063 124.309 34.3063L124.79 33.9665L125.186 33.7683L125.385 33.5135L125.441 33.4569L125.555 33.3719L125.951 33.287L126.517 32.9472L127.65 32.4376L127.961 32.3526L128.273 32.296C128.443 32.2677 128.556 32.1827 128.556 32.1827L129.235 32.0129L130.028 31.5598L131.585 31.2201L132.407 31.0502ZM125.47 50.3604L126.121 50.1905L126.8 50.0772L127.197 50.1622C127.367 50.1055 128.046 49.7658 128.046 49.7658L128.867 49.5959L129.207 49.5676L129.802 49.2844L130.396 49.1712L131.585 48.6615L132.463 48.5199L133.228 48.2368L133.482 48.1802L134.332 47.8404C135.238 47.6139 135.464 47.444 135.464 47.444H135.719V47.529L135.323 47.897C133.709 48.6615 133.001 49.1145 133.001 49.1145L131.246 50.3604L130.566 50.7851L129.943 51.0965L129.547 51.2098L128.697 51.6062L127.791 51.8327C127.621 52.0875 126.885 52.2574 126.885 52.2574H126.715C126.631 52.4273 126.064 52.5405 126.064 52.5405L125.271 52.767L124.762 52.6255C124.592 52.5972 124.054 51.6062 124.054 51.6062L123.516 50.417L124.026 50.4453L124.479 50.3604H125.47ZM121.676 32.7773L121.93 32.0129L122.044 31.5598L122.27 31.758L122.525 32.5508L122.78 33.0605L123.006 33.3153L123.261 34.1364C123.261 35.5238 123.459 35.5238 123.459 35.5238L123.516 36.0335L123.459 36.5431H123.516L123.374 37.2226L123.261 37.5341V37.9871L123.431 38.2986V38.4968L123.035 39.6577L122.61 41.6679L122.525 41.9794L122.44 42.4041C122.383 42.4041 122.298 42.8288 122.298 42.8288L122.27 43.3385L122.214 44.1313C121.93 45.4903 122.355 45.7735 122.355 45.7735C122.27 46 122.27 46.5663 122.27 46.5663L122.1 47.8404L122.185 48.2368L122.298 49.5959C122.298 50.417 121.959 50.87 121.959 50.87L121.76 51.1248C121.506 51.2098 121.194 50.9266 121.194 50.9266C120.288 50.1622 120.373 48.6049 120.373 48.6049L120.458 47.9254C120.628 47.7272 120.6 47.3308 120.6 47.3308L120.543 46.5946L120.515 46.0566C120.345 45.6602 120.43 45.009 120.43 45.009L120.628 44.556L120.713 44.018H120.77L120.883 42.2342L121.024 41.6679L121.109 40.8752V40.4788L121.251 39.9691V39.0631L121.166 38.8649L121.421 37.7889L121.591 37.3925L121.619 36.4865L121.76 35.9485L121.676 35.2123V34.0232L121.591 33.6834C121.534 33.2021 121.676 32.7773 121.676 32.7773ZM111.681 30.4273L111.652 30.5972L111.567 30.5405V30.2008L111.681 30.4273ZM111.737 30.2008L112.134 30.3423H111.737V30.2008ZM122.695 66.8957V59.2793H121.081V63.8095L116.154 59.2793H114.908V66.8957H116.579V62.1107L121.704 66.8957H122.695ZM112.643 66.8957V59.2793H110.322V66.8957H112.643ZM123.601 66.8957L127.055 59.2793H129.207L132.803 66.8957H130.396L129.66 65.0837H126.234L125.47 66.8957H123.601ZM129.207 63.9794L127.905 61.148L126.715 63.9794H129.207ZM143.251 59.2793H136.399V60.3835H138.692V66.8957H141.014V60.3835H143.251V59.2793ZM186.741 28.7851L186.43 29.1815L185.977 29.2947L185.75 29.2098L185.835 28.9549L186.656 28.6718L186.826 28.5302H186.741C186.43 28.6152 186.826 28.2471 186.826 28.2471L187.477 27.7658L187.676 27.6242L187.647 27.5959L188.015 27.341L188.327 27.426L188.355 27.341L188.893 26.435L189.233 26.3501L189.827 26.5199L191.413 27.1995L191.781 27.5109L192.121 27.5392L192.687 27.964L192.744 28.8417C192.659 29.0116 192.829 29.5212 192.829 29.5212L192.772 29.9176C192.744 30.2008 193.282 30.2008 193.282 30.2008H194.754L195.773 30.1725L196.679 30.4273C196.934 30.767 196.255 31.2201 196.255 31.2201L195.915 31.4466V32.0129L195.858 32.296C195.688 32.2111 195.179 32.4659 195.179 32.4659L194.782 32.4376L194.358 32.3526L192.942 32.5508L187.392 32.6924L185.637 32.9472L184.561 33.2304L183.4 33.4569L182.324 33.7683C182.154 33.7683 181.815 33.5985 181.815 33.5985L181.305 33.4569C181.078 33.3153 181.078 32.9472 181.078 32.9472C181.078 32.6924 181.163 32.5225 181.163 32.5225L181.39 32.296L181.475 32.4659H181.56L182.041 32.1827L182.834 31.9279L184.731 31.7014L185.637 31.4466L186.769 31.3616L188.242 31.0502L188.61 31.0219L188.978 30.852L189.403 30.3707L188.836 29.7761C188.412 29.4363 188.1 29.3797 188.1 29.3797L187.138 29.2664L186.826 29.0965L187.336 28.87C188.242 28.87 188.185 28.7001 188.185 28.7001L187.251 28.7851L187.053 28.8417L186.741 28.7851ZM156.389 29.7761L156.473 28.8417L157.238 28.9549L157.917 29.2947C159.135 29.861 159.05 31.0219 159.05 31.0219L158.71 33.2021H159.22L160.919 32.2677L162.476 31.5315L163.354 31.6731C163.75 31.5598 164.175 31.843 164.175 31.843L164.826 32.0978L164.939 32.0129C165.647 32.296 165.817 32.7207 165.817 32.7207L166.157 33.6834L166.582 34.3063C166.582 34.4762 166.751 34.731 166.751 34.731L166.865 35.1557L166.78 35.5238L166.865 36.0618C166.921 36.2883 166.751 36.6564 166.751 36.6564L166.61 37.3076L166.497 37.9022C166.355 37.9022 166.242 38.3269 166.242 38.3269L166.1 38.8649L165.279 40.9601L165.732 41.8945L166.157 42.8855L166.015 43.3951V43.8198C165.987 44.1596 165.562 44.4994 165.562 44.4994L165.166 45.0656L164.939 45.4054L164.685 45.6036L162.759 45.8584L162.306 45.9717L161.825 46.0849L161.343 46.1699L160.975 46.3964L160.381 46.4813L159.899 46.5663C159.418 46.5096 159.135 46.7362 159.135 46.7362L158.71 47.1042L157.917 48.1519C157.833 48.435 158.399 49.5959 158.399 49.5959L158.484 49.9073C158.569 50.0206 158.71 50.0206 158.71 50.0206L159.418 50.2754L162.165 49.9923L162.674 49.9073L164.09 49.4826L165.76 49.1712L166.27 48.9447L166.78 48.8314L167.261 48.4916L167.573 48.3217C167.601 48.1802 167.771 48.1802 167.771 48.1802L168.082 48.2368H168.026L167.856 48.3501L167.941 48.3217L168.026 48.3501L168.195 48.6898H168.252V48.435H168.111V48.3217L168.167 48.4067L168.337 48.3501L168.365 48.4067L168.507 48.5766L168.535 48.5199L168.705 48.6898V48.7465L168.592 48.6898V48.7748L168.677 48.8597L168.507 48.9447L168.762 49.0013L168.705 49.1995L168.762 49.2561L168.875 49.1712L169.243 49.1995L169.186 49.2844H169.045L168.96 49.5676L169.186 49.3411L169.243 49.426L169.045 49.5676L169.158 49.6808V49.8224L169.243 49.8507V49.7658L169.328 49.8224V50.0206L169.413 49.9073L169.583 49.9923V50.2471L169.498 50.2754L169.356 50.4453L169.328 50.417L169.186 50.5019L169.158 50.6718C169.045 50.7001 169.102 50.6152 169.102 50.6152L169.045 50.5302L169.158 50.4453V50.417H169.102L168.875 50.7001V50.5302H168.847L168.535 50.8417L168.337 51.2098L168.45 51.1815L168.337 51.3513L168.365 51.4363L168.337 51.5212L168.252 51.4363H168.167L168.195 51.6062H168.111L167.997 51.861H168.111L167.488 52.1158L164.939 52.767L164.769 52.7954C164.854 52.9369 163.439 53.2767 163.439 53.2767L162.136 53.4466C161.995 53.7014 160.721 53.843 160.721 53.843L159.22 53.7014L157.917 53.6731L156.417 53.4466C155.822 53.2767 155.058 52.767 155.058 52.767L154.633 52.5122C154.322 52.2857 154.293 52.1158 154.293 52.1158H154.237C153.699 51.9459 153.274 50.2754 153.274 50.2754L152.793 48.3217L152.113 48.0669L151.292 47.9254L150.443 47.3308C150.301 47.2741 150.131 46.8494 150.131 46.8494L149.791 46.4813C149.508 46.4247 148.97 46.1699 148.97 46.1699C148.432 45.8584 148.291 45.6036 148.291 45.6036C148.036 44.9807 148.291 44.4144 148.291 44.4144L148.63 43.3102L148.885 41.6679L149.027 39.9974C148.942 38.3269 149.027 37.9588 149.027 37.9588L149.367 37.3642C149.706 36.9112 149.706 36.6564 149.706 36.6564L149.791 36.6281L149.876 36.3166L150.131 35.722C150.273 35.2123 150.358 35.2123 150.358 35.2123L150.612 35.722C150.641 36.1467 151.122 36.2317 151.122 36.2317C151.15 36.4582 151.547 36.9678 151.547 36.9678L151.887 37.5624L151.943 38.0438L151.773 39.2046C151.688 40.0824 151.773 40.3372 151.773 40.3372C154.067 38.8082 154.067 38.157 154.067 38.157L154.548 37.3925L154.407 37.1943L154.378 36.6281L153.642 36.713L152.963 36.9112L152.623 36.5431L152.028 36.4582L152.056 36.4015L153.529 35.3539L154.123 34.9575L154.661 34.7027L155.143 34.278C155.398 33.9665 155.794 30.9369 155.794 30.9369C155.907 30.5405 156.389 29.7761 156.389 29.7761ZM163.014 34.3063L161.74 34.0232L161.23 34.0515L160.579 34.2214L160.098 34.4762C159.475 34.6461 159.135 34.816 159.135 34.816L158.739 34.9858C158.342 35.1557 158.342 35.3822 158.342 35.3822C158.229 35.4389 158.087 35.8636 158.087 35.8636L158.002 36.4582C158.087 36.7413 158.625 36.8263 158.625 36.8263C158.993 36.9112 159.333 36.8263 159.333 36.8263H159.645L160.296 36.7413C161.089 36.5714 162.419 35.6371 162.419 35.6371H162.901C163.241 35.2973 163.241 35.0708 163.241 35.0708V34.816L162.986 34.4762L163.014 34.3063ZM162.08 38.9781L161.995 38.8932L160.975 39.0631L159.758 39.4878L158.824 39.9974L158.455 40.4221C158.342 40.6486 158.399 41.045 158.399 41.045L158.257 41.4981L158.484 42.0927C159.135 42.574 160.296 41.8095 160.296 41.8095C161.428 41.2999 161.655 40.9884 161.655 40.9884L161.853 40.6486L162.136 39.2896C162.221 39.1197 162.08 38.9781 162.08 38.9781ZM153.359 42.0643L152.793 41.8378V41.8945L152.198 42.0643C151.773 42.3192 151.462 42.3192 151.462 42.3192H151.434L151.292 42.7439L150.952 43.6782L150.896 44.0746L150.782 44.471L150.867 44.8957L150.641 45.6036L150.697 45.6602L150.896 45.4337C151.207 45.3205 151.462 45.1506 151.462 45.1506C152.028 44.8391 152.198 44.8391 152.198 44.8391L152.793 44.7259L153.047 44.3295L153.104 44.1313L153.444 43.0837C153.614 42.3192 153.359 42.0643 153.359 42.0643ZM177.369 32.2677V32.0129L177.539 31.4749L178.19 32.0412L178.473 32.7773L178.53 33.1171L179.125 34.3063C179.464 35.0425 179.408 35.6087 179.408 35.6087L179.295 36.0335L179.238 36.8829L179.068 37.3076L178.955 37.8172L179.464 37.704L180.286 38.0721C180.54 38.2136 180.739 38.2986 180.739 38.2986L180.993 38.5817L181.248 38.8082L181.333 39.1197C181.333 39.7992 181.22 40.054 181.22 40.054L180.965 40.6486C180.908 40.9884 181.05 41.8378 181.05 41.8378L180.739 45.6036L180.569 46.5663L180.484 47.529L180.229 50.3604L180.059 51.6628L179.634 52.3423H179.323L178.983 52.5972V52.9369C179.238 53.2767 178.615 53.2484 178.615 53.2484L178.219 53.7014C177.369 53.6165 177.369 52.7104 177.369 52.7104L177.398 50.5869L177.737 48.6049L177.992 47.8404L178.19 46.1699L178.389 45.2355V43.5933L178.219 42.3192L178.134 41.6679C177.822 40.9601 177.313 41.13 177.313 41.13L175.557 42.8288L175.302 42.9987L174.849 43.5084L174.594 44.3012L174.453 44.556H174.368L174.311 44.471L174.396 44.3012L174.368 44.2445H174.311V44.3012L174.198 44.6409L174.056 44.8391L174.113 43.9048L174.056 42.9987L173.773 42.574C173.688 42.5457 173.547 42.4607 173.547 42.4607L173.519 41.4698L173.462 40.8185L173.688 40.139L173.887 39.4878L174.538 38.4968L174.963 37.9871L175.727 36.3166L176.208 35.2973L176.378 34.9575L176.463 34.6461L177.029 33.7683C177.029 33.287 177.369 32.2677 177.369 32.2677ZM154.576 65.7915V59.2793H152.283V66.8957H158.399V65.7915H154.576ZM146.62 62.4788V60.3835H150.556V59.2793H144.327V66.8957H150.811V65.7915H146.62V63.6396H149.678V62.4788H146.62ZM166.185 59.2793H159.928V66.8957H166.497V65.7915H162.25V63.6396H165.279V62.4788H162.25V60.3835H166.185V59.2793ZM169.838 63.0734C169.838 61.7992 170.546 61.0631 170.546 61.0631C171.282 60.3552 172.528 60.3552 172.528 60.3552L173.688 60.4402L174.453 60.6383V59.4492L173.547 59.2226L172.131 59.1377C170.093 59.1377 168.762 60.2136 168.762 60.2136C167.431 61.2329 167.431 62.9601 167.431 62.9601V63.2999C167.431 65.1403 168.762 66.0746 168.762 66.0746C170.008 67.009 172.131 67.009 172.131 67.009L173.603 66.9241L174.453 66.6692V65.5367L173.603 65.7349L172.273 65.8764C171.253 65.8764 170.461 65.2252 170.461 65.2252C169.838 64.5457 169.838 63.1583 169.838 63.1583V63.0734ZM176.605 60.2136C177.652 59.1377 179.748 59.1377 179.748 59.1377C181.815 59.1377 182.834 60.2136 182.834 60.2136C183.966 61.2896 183.966 62.9035 183.966 62.9035V63.3282C183.966 65.0837 182.749 66.0746 182.749 66.0746C181.645 67.009 179.719 67.009 179.719 67.009C177.794 67.009 176.69 66.0746 176.69 66.0746C175.472 65.0837 175.472 63.3282 175.472 63.3282V62.9035C175.472 61.2896 176.605 60.2136 176.605 60.2136ZM181.248 60.8932C180.965 60.2703 179.719 60.2703 179.719 60.2703C178.53 60.2703 178.219 60.8649 178.219 60.8649C177.822 61.4595 177.822 62.9884 177.822 62.9884V63.2149C177.822 64.8288 178.19 65.3385 178.19 65.3385C178.53 65.9614 179.719 65.9614 179.719 65.9614C180.739 65.9614 181.163 65.3102 181.163 65.3102C181.588 64.574 181.588 63.2149 181.588 63.2149V62.9884C181.588 61.6577 181.248 60.8932 181.248 60.8932ZM191.186 34.1081H192.036L192.404 34.278L192.744 34.6178C192.914 34.7027 193.282 34.816 193.282 34.816L193.508 35.3822L193.876 35.722L193.848 36.1184V36.4582L193.621 36.713C193.282 37.3925 193.084 37.5341 193.084 37.5341C192.942 37.619 192.772 37.5341 192.772 37.5341L192.432 37.3925H191.413L190.677 37.2226L189.176 36.5431L188.921 36.2883L187.845 35.722C187.506 35.6371 187.307 35.3822 187.307 35.3822C187.138 35.0708 187.251 34.7876 187.251 34.7876C187.336 34.5611 187.506 34.5328 187.506 34.5328L188.355 34.193L189.261 33.9382H190.337C190.592 34.1081 191.186 34.1081 191.186 34.1081ZM186.175 38.6667L187.902 38.3835L189.856 38.242L190.762 38.2986L192.404 38.6667L192.999 38.5817L193.537 38.6383C193.961 38.7233 193.961 38.8082 193.961 38.8082V39.4028L193.678 39.5727C193.452 39.6577 193.423 39.8275 193.423 39.8275L193.367 40.054V40.3089L193.112 40.9601C192.914 41.3282 192.687 41.4131 192.687 41.4131C192.659 41.4698 192.206 41.5547 192.206 41.5547L191.781 41.7529H191.356L190.762 41.8378C190.167 41.4981 189.827 41.4698 189.827 41.4698L189.091 41.3282L188.242 41.2999C187.845 41.2149 187.647 40.9884 187.647 40.9884L186.854 40.3372L186.43 39.7992L186.147 39.2329C186.062 39.0347 186.147 38.8649 186.147 38.8649L186.175 38.6667ZM184.165 46.6512L183.91 45.4903L183.966 44.6409L184.136 43.565L184.334 43.48L184.476 43.6499C184.589 43.9048 184.844 44.018 184.844 44.018L185.382 44.2445L185.892 44.471L186.062 44.8957L186.316 45.1789L186.6 45.5187C186.741 45.6602 187.081 45.6602 187.081 45.6602L187.421 45.5753L187.76 45.4337L190.422 44.1313L191.753 43.2252L192.121 43.3951L192.829 43.3385L193.508 43.5084L193.763 43.7349L194.358 44.2162L194.867 44.9807L195.349 45.5187V46.3964C195.179 46.8494 195.292 47.0759 195.292 47.0759L195.264 48.0103L194.612 49.7374L194.669 50.0772L195.122 50.4453L195.207 50.5019L195.603 50.7001L195.519 51.7477V52.2008L195.207 52.5405L194.867 52.6821L194.414 52.9369L193.338 52.9652L192.517 52.7954L191.102 53.0785L189.742 52.9652L189.403 52.6821L188.978 52.5122L188.61 52.2574C188.525 52.0875 188.525 51.408 188.525 51.408L188.582 50.6152L188.61 50.332L188.808 50.1905C188.893 49.8224 189.261 49.5109 189.261 49.5109L189.856 48.9163L190.818 47.8121C190.932 47.1042 190.762 46.6512 190.762 46.6512L190.564 46.3398C190.111 46.5096 189.403 47.1892 189.403 47.1892L188.921 47.7272L187.647 47.6705L187.562 47.7272V48.1519L187.506 48.6049L187.732 48.9447L187.845 49.2844L187.591 51.6062L187.477 52.0875L187.307 52.767L187.251 53.4183L186.911 54.0129C186.911 54.3809 186.769 54.4376 186.769 54.4376C186.6 54.4659 186.486 54.296 186.486 54.296L186.26 54.0129L185.58 53.7014L185.071 53.5882C184.759 53.4466 184.674 53.0785 184.674 53.0785V52.3707L184.589 52.1725L184.136 50.2754L184.165 49.2844L184.136 47.9254C184.051 47.3308 184.165 46.6512 184.165 46.6512ZM185.212 66.8957H186.769V62.5354L189.742 66.8957H190.988L194.103 62.5354V66.8957H196.198V59.2793H194.697L190.762 64.8288L186.911 59.2793H185.212V66.8957Z" fill="#02489D"/>
</svg>
