<svg width="116" height="92" viewBox="0 0 116 92" fill="none" xmlns="http://www.w3.org/2000/svg">
<g clip-path="url(#clip0_12232_16940)">
<path d="M58.0012 26.5082C52.6206 26.5082 47.7479 28.6906 44.22 32.2212C40.6907 35.7438 38.5096 40.6192 38.5096 46.0024C38.5096 51.3816 40.6907 56.2536 44.22 59.7775C47.7479 63.3034 52.6206 65.4899 58.0012 65.4899C63.383 65.4899 68.2585 63.3034 71.781 59.7775C75.3089 56.2536 77.4853 51.3816 77.4853 46.0024C77.4853 40.6192 75.3089 35.7438 71.781 32.2212C68.2585 28.6906 63.383 26.5082 58.0012 26.5082ZM58.0012 24.1464C70.0688 24.1464 79.8532 33.9321 79.8532 46.0024C79.8532 58.0686 70.0688 67.853 58.0012 67.853C45.9349 67.853 36.1465 58.0686 36.1465 46.0024C36.1465 33.9321 45.9349 24.1464 58.0012 24.1464Z" fill="#007DB8"/>
<path d="M47.6655 45.824C47.6655 44.5504 46.8205 43.8269 45.6241 43.8269H44.8919V47.8223H45.6033C46.7157 47.8223 47.6655 47.2178 47.6655 45.824ZM60.6896 47.2615L55.2956 51.5088L50.3658 47.6275C49.6545 49.3364 47.9355 50.5234 45.9559 50.5234H41.7368V41.1245H45.9559C48.1679 41.1245 49.762 42.5311 50.3645 44.0298L55.2956 40.1526L57.1221 41.5901L52.6027 45.1421L53.4712 45.8219L57.9893 42.2719L59.8184 43.7053L55.2997 47.2615L56.1669 47.9426L60.6896 44.3858V41.1245H63.9683V47.78H67.239V50.5348H60.6896V47.2615ZM71.3923 47.7814H74.6616V50.5348H68.1102V41.1245H71.3923V47.7814Z" fill="#007DB8"/>
</g>
<defs>
<clipPath id="clip0_12232_16940">
<rect width="44" height="44" fill="white" transform="translate(36 24)"/>
</clipPath>
</defs>
</svg>
