<svg width="205" height="92" viewBox="0 0 205 92" fill="none" xmlns="http://www.w3.org/2000/svg">
<g clip-path="url(#clip0_12232_16962)">
<path d="M36.1357 24H168.135V68H36.1357V24Z" fill="#E22319"/>
<path d="M93.597 38.8326C91.6026 38.8326 89.4837 39.7051 88.1126 41.5748V39.2067H83.5007V56.1584H88.1126V46.4361C88.1126 44.6911 89.4837 42.8214 91.9767 42.8214C93.8464 42.8214 95.8408 44.1925 95.8408 46.4361V56.0337H100.453V45.5636C100.577 41.6995 97.7103 38.8326 93.597 38.8326ZM133.608 39.082L129.37 50.6738L125.132 39.082H119.897L126.877 56.0337H131.988L138.843 39.082H133.608ZM78.5149 50.7985C76.5205 52.2943 75.3986 52.5437 73.6536 52.5437C72.0333 52.5437 70.7867 52.0451 69.9142 51.1727L81.7555 46.1869C81.5063 44.3172 80.7583 42.6967 79.7613 41.4503C78.1408 39.5806 75.8972 38.7081 73.0305 38.7081C67.92 38.7081 64.0559 42.4475 64.0559 47.4333C64.0559 52.5437 67.92 56.1587 73.5289 56.1587C76.645 56.1587 79.8858 54.6629 81.3816 52.9176L78.5149 50.7985ZM69.5403 44.1925C70.2883 43.0706 71.5345 42.4475 73.155 42.4475C74.7753 42.4475 76.1464 43.4447 76.7697 44.8158L68.6678 48.1813C68.4186 46.5608 68.9172 45.1897 69.5403 44.1925ZM63.6821 51.7957H53.0872V34.0962H48.3506V56.0337H63.6821V51.7957ZM147.195 56.2829C142.084 56.2829 138.096 52.5437 138.096 47.5577C138.096 42.6965 142.084 38.8326 147.195 38.8326C152.305 38.8326 156.294 42.572 156.294 47.5577C156.418 52.5437 152.43 56.2829 147.195 56.2829ZM147.195 42.8214C144.577 42.8214 142.707 44.8158 142.707 47.558C142.707 50.1755 144.702 52.2946 147.195 52.2946C149.812 52.2946 151.682 50.3002 151.682 47.558C151.806 44.9403 149.812 42.8214 147.195 42.8214ZM111.421 56.2829C106.311 56.2829 102.322 52.5437 102.322 47.5577C102.322 42.6965 106.311 38.8326 111.421 38.8326C116.532 38.8326 120.52 42.572 120.52 47.5577C120.52 52.5435 116.532 56.2829 111.421 56.2829ZM111.421 42.8214C108.804 42.8214 106.934 44.8158 106.934 47.558C106.934 50.1755 108.928 52.2946 111.421 52.2946C114.039 52.2946 115.909 50.3002 115.909 47.558C116.033 44.9403 114.039 42.8214 111.421 42.8214Z" fill="white"/>
</g>
<defs>
<clipPath id="clip0_12232_16962">
<rect width="132.053" height="44" fill="white" transform="translate(36.1089 24)"/>
</clipPath>
</defs>
</svg>
