<svg width="365" height="92" viewBox="0 0 365 92" fill="none" xmlns="http://www.w3.org/2000/svg">
<g clip-path="url(#clip0_12232_17191)">
<path d="M281.61 36.313L282.309 43.8831H280.952L278.812 38.6993H271.695V64.5366L275.973 65.524V67.0462H262.479V65.524L266.757 64.5366V38.6993H259.64L257.5 43.8831H256.143L256.842 36.313H281.61ZM221.623 65.5239V67.0461H208.458V65.5239L212.737 64.5777L209.816 56.555H198.378L195.375 64.66L199.242 65.524V67.0462H189.204V65.524L192.865 64.4955L192.989 64.1251L203.439 36.313L207.018 35.4079L217.962 64.4954L221.623 65.5239ZM208.952 54.1687L204.138 41.0443L199.283 54.1687H208.952ZM308.895 66.0588C311.322 67.2108 314.737 67.9925 317.7 67.9925C324.323 67.9925 329.055 64.3719 329.055 59.2292C329.055 55.156 327.162 52.7287 321.773 49.8898L318.152 47.9973C314.655 46.1459 313.215 44.5824 313.215 42.114C313.215 39.1106 315.684 37.3827 319.14 37.3827C320.497 37.3827 321.937 37.6707 323.377 38.2878L325.887 43.6774H327.203L326.463 36.5186C324.735 35.9015 321.403 35.3667 319.263 35.3667C312.968 35.3667 309.06 38.5346 309.06 43.6774C309.06 47.1333 311.446 50.0545 316.342 52.6053L319.428 54.2098C322.925 56.0201 324.406 57.9126 324.406 60.5045C324.406 64.0016 321.361 66.0176 317.494 66.0176C315.643 66.0176 313.874 65.4416 311.693 64.0839L309.307 58.612H308.031L308.895 66.0588ZM301.826 67.0461V65.5239L297.506 64.5365V38.8226L301.826 37.8351V36.3129H288.331V37.8351L292.651 38.8226V64.5365L288.331 65.5239V67.0461H301.826ZM255.366 65.565V67.0461H247.302L238.168 52.9344H234.589V64.5365L238.744 65.5239V67.0461H226.114V65.5239L229.693 64.5365V38.8226L226.114 37.8351V36.3129C226.813 36.3129 232.244 36.1484 237.633 36.1484C246.396 36.1484 249.935 39.7277 249.935 44.4179C249.935 50.1778 243.845 51.7412 242.776 52.0293L250.963 64.4542L255.366 65.565ZM244.957 44.7471C244.957 39.3987 241.171 38.4935 234.589 38.4935V50.7128H236.564C241.707 50.7128 244.957 48.6968 244.957 44.7471ZM177.78 67.581L188.518 38.8638L191.891 37.8352V36.313H182.676V37.8352L186.049 38.6992L177.739 61.204L169.469 38.7815L173.213 37.8352V36.313H160.747V37.8352L164.162 38.8638L175.023 67.581H177.78ZM158.995 50.8764C158.995 61.779 151.424 67.9915 143.072 67.9915C134.638 67.9915 127.191 61.6144 127.191 51.6992C127.191 41.7017 134.72 35.3657 143.031 35.3657C153.234 35.3657 158.995 43.265 158.995 50.8764ZM153.646 52.4818C153.646 44.5003 148.915 37.2181 142.414 37.2181C135.502 37.2181 132.458 43.4717 132.458 50.5893C132.458 57.7068 136.366 66.1821 143.772 66.1821C150.725 66.1822 153.646 59.5171 153.646 52.4818ZM122.343 37.8352V36.313H112.839V37.8352L116.583 38.6992V58.3651L99.6321 36.313H91.6094V37.8352C91.9385 37.8763 92.3499 37.9586 92.5556 37.9997C93.4195 38.2055 94.7772 38.7403 95.4767 39.3162V64.5364L92.1031 65.5238V67.046H101.566V65.5238L97.8218 64.6598V41.9083L117.735 67.5399H119.133C119.051 66.9639 118.969 63.4257 118.969 61.8211V38.8227L122.343 37.8352Z" fill="#0460A9"/>
<path d="M63.5532 43.678L63.4422 43.9564C65.2696 44.7579 69.3571 47.9396 69.3571 54.338C69.3571 60.3627 64.2741 66.4425 56.2905 66.4425C46.3516 66.4425 42.9265 60.6361 42.9265 55.2981C42.9265 48.4603 47.7082 43.9018 47.7082 37.6739C47.7082 33.3373 44.4277 29.0565 40.036 28.2783L39.8695 28.5567C41.7032 30.502 42.3151 32.3929 42.3151 34.3945C42.3151 41.1213 36.6445 45.9024 36.6445 53.63C36.6445 60.7471 41.6213 67.993 56.0136 67.993C68.843 67.993 75.6094 61.7127 75.6094 55.0202C75.6093 49.2944 71.4942 44.4419 63.5532 43.678Z" fill="url(#paint0_linear_12232_17191)"/>
<path d="M56.1811 58.4113L59.795 23.9971H52.2339L55.8477 58.4113H56.1811Z" fill="#0460A9"/>
</g>
<defs>
<linearGradient id="paint0_linear_12232_17191" x1="36.6444" y1="48.1356" x2="75.6093" y2="48.1356" gradientUnits="userSpaceOnUse">
<stop offset="0.3" stop-color="#E74A21"/>
<stop offset="0.7011" stop-color="#EC9A1E"/>
</linearGradient>
<clipPath id="clip0_12232_17191">
<rect width="292.022" height="44" fill="white" transform="translate(36.6421 24)"/>
</clipPath>
</defs>
</svg>
