<svg width="247" height="92" viewBox="0 0 247 92" fill="none" xmlns="http://www.w3.org/2000/svg">
<g clip-path="url(#clip0_12232_17055)">
<path d="M209.213 60.3069H209.695V58.6426L210.852 56.3334H210.319L209.462 58.0934L208.63 56.3334H208.072L209.233 58.6426L209.213 60.3069ZM207.486 58.1225H206.379V58.5386H207.024V59.7868C206.952 59.8233 206.875 59.8472 206.795 59.8575C206.713 59.8813 206.627 59.8939 206.541 59.895C206.357 59.9047 206.174 59.866 206.01 59.7828C205.846 59.6996 205.706 59.5747 205.605 59.4206C205.381 59.0444 205.275 58.6095 205.301 58.1724C205.275 57.768 205.408 57.3695 205.672 57.0615C205.776 56.9433 205.904 56.8487 206.047 56.7841C206.191 56.7195 206.346 56.6864 206.504 56.687C206.82 56.6949 207.13 56.7792 207.407 56.9325V56.4582C207.123 56.3328 206.814 56.2717 206.504 56.2793C206.268 56.2692 206.033 56.3131 205.817 56.4076C205.6 56.502 205.409 56.6446 205.256 56.8243C204.918 57.242 204.746 57.7693 204.773 58.3056C204.756 58.8108 204.902 59.3081 205.189 59.7244C205.339 59.9295 205.539 60.0935 205.77 60.2011C206 60.3088 206.254 60.3566 206.508 60.3402C206.686 60.3371 206.864 60.3134 207.036 60.2694L207.269 60.1987L207.465 60.1363L207.486 58.1225ZM201.811 58.3597C201.779 57.9088 201.877 57.4582 202.093 57.0615C202.163 56.949 202.261 56.8562 202.376 56.7921C202.492 56.728 202.623 56.6947 202.755 56.6954C202.907 56.6949 203.055 56.7415 203.18 56.8286C203.304 56.9158 203.398 57.0393 203.45 57.1822C203.591 57.5308 203.661 57.9044 203.654 58.2806C203.686 58.7288 203.587 59.1767 203.371 59.5704C203.302 59.6842 203.205 59.7784 203.089 59.844C202.973 59.9095 202.842 59.9443 202.709 59.9449C202.557 59.9444 202.409 59.897 202.284 59.8092C202.16 59.7213 202.066 59.5973 202.014 59.4539C201.868 59.1083 201.798 58.7349 201.811 58.3597ZM201.307 58.3597C201.275 58.8742 201.411 59.3851 201.694 59.8159C201.805 59.983 201.956 60.1194 202.133 60.2125C202.311 60.3056 202.509 60.3524 202.709 60.3485C203.658 60.3485 204.145 59.6578 204.157 58.2681C204.136 56.9658 203.666 56.3001 202.755 56.2751C201.844 56.2502 201.315 56.97 201.307 58.3555M199.148 60.3069H200.899V59.8908H199.651V56.3417H199.164L199.148 60.3069ZM196.002 58.3555C195.967 57.9049 196.064 57.4538 196.281 57.0573C196.351 56.946 196.448 56.854 196.563 56.79C196.678 56.726 196.807 56.692 196.938 56.6912C197.091 56.6903 197.241 56.7365 197.367 56.8236C197.493 56.9107 197.588 57.0345 197.641 57.178C197.782 57.5269 197.849 57.9006 197.841 58.2764C197.877 58.725 197.779 59.174 197.558 59.5663C197.49 59.6806 197.393 59.7752 197.277 59.8409C197.161 59.9065 197.03 59.9409 196.897 59.9407C196.745 59.9406 196.597 59.8933 196.473 59.8053C196.349 59.7174 196.256 59.5931 196.206 59.4498C196.059 59.1042 195.99 58.7307 196.002 58.3555ZM195.495 58.3555C195.465 58.8698 195.6 59.3801 195.881 59.8118C195.993 59.9783 196.144 60.1143 196.321 60.2073C196.499 60.3004 196.696 60.3475 196.897 60.3443C197.849 60.3443 198.332 59.6537 198.349 58.264C198.324 56.9616 197.858 56.2959 196.942 56.271C196.027 56.246 195.503 56.9658 195.495 58.3513M192.166 60.3027H192.628V57.0407L194.08 60.3027H194.683V56.3209H194.221V59.6079L192.773 56.3209H192.17L192.166 60.3027ZM188.891 60.3027H189.378V58.4554H190.726V60.3027H191.213V56.3209H190.726V58.0226H189.378V56.3209H188.891V60.3027ZM188.101 59.7202C187.893 59.8459 187.653 59.9108 187.41 59.9075C187.226 59.9164 187.043 59.8773 186.879 59.7941C186.715 59.711 186.576 59.5866 186.474 59.4331C186.253 59.0556 186.149 58.6214 186.174 58.1849C186.148 57.7805 186.281 57.382 186.545 57.074C186.648 56.9554 186.776 56.8605 186.92 56.7959C187.064 56.7312 187.219 56.6984 187.377 56.6995C187.632 56.6943 187.884 56.7637 188.101 56.8992V56.4041C187.872 56.3028 187.623 56.2544 187.373 56.2626C187.137 56.2526 186.902 56.2965 186.686 56.3909C186.469 56.4854 186.277 56.6279 186.124 56.8077C185.788 57.2259 185.618 57.7532 185.646 58.2889C185.627 58.7945 185.773 59.2924 186.062 59.7077C186.212 59.9126 186.411 60.0764 186.641 60.184C186.87 60.2916 187.124 60.3396 187.377 60.3235C187.616 60.319 187.853 60.2798 188.08 60.207L188.101 59.7202ZM183.187 60.3027H185.055V59.8867H183.69V58.472H184.939V58.0559H183.69V56.8077H184.997V56.3708H183.204L183.187 60.3027ZM181.211 60.3027H181.697V56.7578H182.58V56.3209H180.329V56.7578H181.194L181.211 60.3027ZM176.763 56.7578H177.054C177.243 56.7416 177.433 56.7709 177.608 56.8433C177.783 56.9157 177.939 57.0291 178.061 57.1738C178.268 57.4876 178.367 57.8599 178.344 58.2348C178.344 59.3 177.928 59.8367 177.054 59.8534H176.763V56.7578ZM176.276 60.3027H176.875C177.16 60.3279 177.447 60.2869 177.713 60.183C177.979 60.079 178.218 59.915 178.41 59.7036C178.655 59.3352 178.803 58.9114 178.842 58.4709C178.88 58.0305 178.808 57.5874 178.631 57.1822C178.518 56.9526 178.349 56.7551 178.14 56.608C178.022 56.515 177.888 56.4444 177.745 56.3999C177.539 56.3409 177.326 56.3142 177.112 56.3209H176.28L176.276 60.3027ZM172.839 60.3027H173.289V57.0407L174.745 60.3027H175.369V56.3209H174.907V59.6079L173.455 56.3209H172.852L172.839 60.3027ZM170.114 58.834L170.721 56.8451L171.312 58.834H170.114ZM170.48 56.3375L169.186 60.3194H169.673L169.981 59.2833H171.449L171.757 60.3194H172.265L171.017 56.3375H170.48ZM165.874 60.3194H167.742V59.9033H166.361V58.4886H167.609V58.0726H166.361V56.8243H167.667V56.3875H165.874V60.3194ZM165.084 59.7369C164.874 59.8625 164.633 59.9273 164.389 59.9241C164.205 59.9331 164.023 59.8941 163.86 59.8109C163.696 59.7277 163.557 59.6032 163.457 59.4498C163.234 59.0728 163.129 58.6385 163.153 58.2016C163.129 57.7974 163.261 57.3995 163.523 57.0906C163.627 56.9724 163.755 56.8779 163.899 56.8133C164.042 56.7487 164.198 56.7156 164.355 56.7162C164.611 56.7114 164.862 56.7808 165.079 56.9159V56.4207C164.85 56.3194 164.602 56.2711 164.351 56.2793C164.119 56.2727 163.888 56.3183 163.676 56.4126C163.463 56.5069 163.275 56.6476 163.124 56.8243C162.788 57.2429 162.616 57.7695 162.641 58.3056C162.627 58.8106 162.772 59.3072 163.057 59.7244C163.208 59.9293 163.408 60.093 163.638 60.2006C163.869 60.3082 164.122 60.3562 164.376 60.3402C164.615 60.3356 164.852 60.2964 165.079 60.2237L165.084 59.7369ZM159.317 60.3194H159.779V57.0573L161.231 60.3194H161.834V56.3375H161.372V59.6245L159.92 56.3375H159.317V60.3194ZM156.679 60.3194H158.547V59.9033H157.161V58.4886H158.41V58.0726H157.161V56.8243H158.472V56.3875H156.679V60.3194ZM155.297 60.3194H155.78V56.3375H155.297V60.3194ZM154.503 59.7369C154.296 59.8624 154.058 59.9273 153.816 59.9241C153.632 59.9343 153.449 59.8958 153.285 59.8125C153.12 59.7292 152.981 59.6041 152.88 59.4498C152.658 59.0728 152.552 58.6385 152.576 58.2016C152.55 57.7972 152.683 57.3986 152.947 57.0906C153.051 56.9724 153.179 56.8779 153.322 56.8133C153.466 56.7487 153.621 56.7156 153.779 56.7162C154.033 56.7115 154.283 56.7809 154.499 56.9159V56.4207C154.27 56.3194 154.021 56.2711 153.77 56.2793C153.539 56.2727 153.309 56.3183 153.097 56.4127C152.885 56.507 152.697 56.6477 152.547 56.8243C152.209 57.2416 152.039 57.7696 152.069 58.3056C152.052 58.8109 152.198 59.3083 152.485 59.7244C152.635 59.9293 152.835 60.093 153.066 60.2006C153.296 60.3082 153.55 60.3562 153.804 60.3402C154.041 60.3356 154.277 60.2964 154.503 60.2237V59.7369ZM151.291 56.9117V56.4166C151.191 56.3725 151.086 56.3403 150.979 56.3209C150.851 56.2961 150.722 56.2835 150.592 56.2834C150.32 56.2749 150.053 56.365 149.843 56.5372C149.735 56.6278 149.65 56.7423 149.594 56.8717C149.539 57.001 149.514 57.1415 149.522 57.282C149.512 57.5022 149.57 57.7202 149.689 57.9061C149.878 58.1397 150.111 58.3334 150.375 58.4762C150.565 58.5829 150.733 58.724 150.87 58.8922C150.911 58.9508 150.942 59.0154 150.962 59.0836C150.967 59.1543 150.967 59.2252 150.962 59.2958C150.961 59.3736 150.945 59.4504 150.914 59.5218C150.884 59.5933 150.839 59.6579 150.783 59.7119C150.717 59.7794 150.638 59.8321 150.551 59.8665C150.463 59.901 150.369 59.9163 150.275 59.9116C150.151 59.9096 150.028 59.8828 149.913 59.8326C149.785 59.7827 149.66 59.7243 149.539 59.6578V60.1779C149.792 60.2923 150.068 60.3491 150.346 60.3443C150.5 60.3529 150.655 60.328 150.798 60.2712C150.942 60.2145 151.072 60.1273 151.178 60.0156C151.37 59.7943 151.471 59.5091 151.461 59.2168C151.463 58.9983 151.404 58.7836 151.291 58.5968C151.124 58.3728 150.91 58.1893 150.662 58.0601C150.465 57.951 150.286 57.8104 150.134 57.644C150.091 57.5935 150.061 57.5336 150.047 57.4693C150.024 57.4151 150.013 57.3572 150.013 57.2987C150.012 57.1442 150.07 56.9952 150.176 56.8826C150.235 56.8278 150.304 56.7853 150.38 56.7574C150.456 56.7296 150.536 56.717 150.617 56.7203C150.848 56.7202 151.075 56.7819 151.274 56.8992M145.89 60.3069H146.373V58.4595H147.55V58.0434H146.373V56.7952H147.621V56.3583H145.898L145.89 60.3069ZM142.74 58.3555C142.706 57.9045 142.804 57.4533 143.023 57.0573C143.093 56.9457 143.19 56.8535 143.305 56.7895C143.42 56.7255 143.549 56.6916 143.681 56.6912C143.833 56.6905 143.982 56.7369 144.107 56.824C144.232 56.9112 144.327 57.0348 144.38 57.178C144.52 57.5269 144.588 57.9006 144.579 58.2764C144.614 58.7244 144.517 59.1727 144.301 59.5663C144.231 59.6809 144.134 59.7757 144.017 59.8414C143.9 59.907 143.769 59.9412 143.635 59.9407C143.483 59.9406 143.335 59.8933 143.211 59.8053C143.088 59.7174 142.994 59.5931 142.944 59.4498C142.801 59.103 142.732 58.7304 142.74 58.3555ZM142.233 58.3555C142.202 58.8704 142.339 59.3814 142.624 59.8118C142.735 59.9786 142.886 60.1148 143.063 60.2079C143.241 60.3009 143.439 60.3479 143.639 60.3443C144.588 60.3443 145.07 59.6537 145.087 58.264C145.066 56.9616 144.596 56.2959 143.685 56.271C142.774 56.246 142.245 56.9658 142.233 58.3513M138.837 60.3027H139.32V58.6384L140.477 56.3292H139.94L139.083 58.0892L138.251 56.3292H137.697L138.854 58.6384L138.837 60.3027ZM136.1 60.3027H136.587V56.7578H137.506V56.3209H135.255V56.7578H136.137L136.1 60.3027ZM134.161 60.3027H134.648V56.3209H134.177L134.161 60.3027ZM133.216 56.8951V56.4166C133.117 56.3719 133.012 56.3397 132.904 56.3209C132.778 56.2961 132.65 56.2835 132.521 56.2834C132.249 56.2733 131.983 56.3637 131.773 56.5372C131.665 56.6278 131.58 56.7423 131.524 56.8717C131.468 57.001 131.444 57.1415 131.452 57.282C131.44 57.5018 131.497 57.7199 131.614 57.9061C131.804 58.1386 132.038 58.3322 132.301 58.4762C132.49 58.5829 132.658 58.724 132.796 58.8922C132.84 58.9489 132.871 59.0141 132.888 59.0836C132.893 59.1543 132.893 59.2252 132.888 59.2958C132.887 59.3736 132.871 59.4504 132.84 59.5218C132.809 59.5933 132.765 59.6579 132.709 59.7119C132.643 59.7789 132.564 59.8314 132.476 59.8658C132.389 59.9002 132.295 59.9158 132.201 59.9116C132.075 59.9101 131.95 59.8832 131.835 59.8326C131.708 59.7819 131.584 59.7235 131.465 59.6578V60.1779C131.718 60.2932 131.994 60.3501 132.272 60.3443C132.426 60.3529 132.58 60.328 132.724 60.2712C132.868 60.2145 132.997 60.1273 133.104 60.0156C133.294 59.7939 133.394 59.5087 133.383 59.2168C133.384 58.9989 133.326 58.7848 133.216 58.5968C133.05 58.3728 132.835 58.1893 132.588 58.0601C132.39 57.951 132.212 57.8104 132.06 57.644C131.985 57.5435 131.942 57.4235 131.935 57.2987C131.934 57.2218 131.948 57.1454 131.976 57.074C132.005 57.0026 132.047 56.9375 132.101 56.8826C132.214 56.7769 132.363 56.7188 132.517 56.7203C132.749 56.7191 132.976 56.781 133.175 56.8992M129.114 56.7328H129.497C129.684 56.7249 129.869 56.7806 130.021 56.8909C130.087 56.9562 130.137 57.0351 130.169 57.1222C130.2 57.2092 130.212 57.3021 130.204 57.3944C130.205 57.5689 130.148 57.7389 130.042 57.877C129.972 57.9535 129.886 58.0131 129.79 58.0513C129.695 58.0895 129.591 58.1053 129.488 58.0975H129.185L129.114 56.7328ZM128.623 60.3069H129.185V58.5011H129.401C129.547 58.4886 129.694 58.5252 129.817 58.6051C129.918 58.7011 129.99 58.8237 130.025 58.9588L130.47 60.3069H130.99L130.433 58.7092C130.406 58.6106 130.354 58.5205 130.283 58.447C130.206 58.382 130.112 58.3389 130.013 58.3222C130.132 58.3029 130.246 58.2602 130.349 58.1967C130.452 58.1332 130.541 58.05 130.612 57.9519C130.736 57.7444 130.791 57.5025 130.769 57.2615C130.747 57.0205 130.648 56.793 130.487 56.6121C130.399 56.521 130.293 56.45 130.175 56.4041C130.013 56.3567 129.844 56.3343 129.675 56.3375H128.685L128.623 60.3069ZM125.985 60.3069H127.853V59.8908H126.472V58.4762H127.72V58.0601H126.472V56.8119H127.778V56.375H125.985V60.3069ZM123.717 60.3069H124.204L125.415 56.325H124.928L123.984 59.5746L123.089 56.325H122.556L123.717 60.3069ZM121.537 60.3069H122.024V56.325H121.537V60.3069ZM118.046 60.3069H118.512V57.0449L119.964 60.3069H120.568V56.325H120.106V59.612L118.654 56.325H118.05L118.046 60.3069ZM117.089 56.325H116.607V58.9172C116.62 59.1786 116.554 59.4379 116.419 59.662C116.362 59.7513 116.282 59.824 116.188 59.8729C116.094 59.9218 115.989 59.9452 115.883 59.9407C115.778 59.9446 115.674 59.9208 115.581 59.8719C115.488 59.823 115.41 59.7506 115.354 59.662C115.212 59.4405 115.144 59.1799 115.159 58.9172V56.325H114.676V58.8423C114.655 59.1454 114.706 59.4493 114.826 59.7285C114.912 59.9014 115.047 60.0458 115.213 60.1446C115.411 60.272 115.643 60.3359 115.878 60.3277C116.12 60.3345 116.359 60.2709 116.565 60.1446C116.723 60.0419 116.849 59.898 116.931 59.7285C117.052 59.448 117.106 59.1432 117.089 58.8381V56.325ZM109.812 60.3069H110.274V57.0449L111.726 60.3069H112.329V56.325H111.867V59.612L110.415 56.325H109.812V60.3069ZM107.336 56.7328H107.728C107.914 56.7238 108.098 56.7797 108.248 56.8909C108.313 56.9564 108.364 57.0353 108.396 57.1222C108.428 57.2091 108.442 57.3019 108.435 57.3944C108.435 57.5686 108.378 57.738 108.273 57.877C108.202 57.9531 108.115 58.0123 108.019 58.0505C107.922 58.0887 107.819 58.1047 107.715 58.0975H107.336V56.7328ZM106.854 60.3069H107.336V58.5011H107.557C107.703 58.4886 107.85 58.5252 107.973 58.6051C108.074 58.7018 108.148 58.824 108.185 58.9588L108.626 60.3069H109.213L108.676 58.7092C108.649 58.6106 108.597 58.5205 108.526 58.447C108.449 58.382 108.356 58.3389 108.256 58.3222C108.496 58.2819 108.711 58.149 108.855 57.9519C108.98 57.7444 109.035 57.5025 109.012 57.2615C108.99 57.0205 108.891 56.793 108.73 56.6121C108.643 56.521 108.536 56.45 108.418 56.4041C108.256 56.3567 108.088 56.3343 107.919 56.3375H106.933L106.854 60.3069ZM104.212 60.3069H106.084V59.8908H104.698V58.4762H105.947V58.0601H104.698V56.8119H106.009V56.375H104.212V60.3069ZM100.937 60.3069H101.428V58.4595H102.776V60.3069H103.263V56.325H102.776V58.0268H101.428V56.325H100.937V60.3069ZM98.965 60.3069H99.4518V56.7619H100.334V56.325H98.0829V56.7619H98.965V60.3069ZM97.4504 56.325H97.0219V58.9172C97.0362 59.1781 96.9725 59.4374 96.8388 59.662C96.7786 59.7478 96.6985 59.8179 96.6054 59.8663C96.5124 59.9146 96.409 59.9399 96.3042 59.9399C96.1993 59.9399 96.0959 59.9146 96.0029 59.8663C95.9098 59.8179 95.8298 59.7478 95.7695 59.662C95.6297 59.4395 95.5615 59.1796 95.5739 58.9172V56.325H95.0913V58.8423C95.074 59.1452 95.1252 59.4481 95.2411 59.7285C95.3302 59.8996 95.4639 60.0434 95.628 60.1446C95.8278 60.2716 96.0613 60.3354 96.2979 60.3277C96.5396 60.3345 96.7782 60.2709 96.9844 60.1446C97.1412 60.0408 97.2675 59.8972 97.3506 59.7285C97.4735 59.4486 97.5277 59.1433 97.5087 58.8381L97.4504 56.325ZM91.8875 58.3555C91.849 57.9042 91.9477 57.4517 92.1704 57.0573C92.2392 56.9449 92.3359 56.8521 92.451 56.7879C92.5662 56.7238 92.696 56.6905 92.8278 56.6912C92.9801 56.6911 93.1288 56.7378 93.2538 56.8248C93.3788 56.9118 93.4741 57.0351 93.5268 57.178C93.6655 57.5272 93.732 57.9008 93.7224 58.2764C93.7602 58.7241 93.6646 59.1729 93.4478 59.5663C93.3784 59.6807 93.2807 59.7752 93.164 59.8408C93.0474 59.9064 92.9159 59.9408 92.7821 59.9407C92.6301 59.9412 92.4818 59.8941 92.3579 59.8061C92.2341 59.718 92.1409 59.5935 92.0914 59.4498C91.9428 59.1048 91.8731 58.7309 91.8875 58.3555ZM91.3799 58.3555C91.3501 58.8698 91.4857 59.3801 91.7668 59.8118C91.8778 59.9786 92.029 60.1148 92.2064 60.2079C92.3838 60.3009 92.5818 60.3479 92.7821 60.3443C93.7349 60.3443 94.2175 59.6537 94.23 58.264C94.23 56.9616 93.739 56.2959 92.8278 56.271C91.9166 56.246 91.3882 56.9658 91.3799 58.3513M90.5977 56.8951V56.4166C90.4983 56.3712 90.3934 56.339 90.2856 56.3209C90.1595 56.2961 90.0313 56.2835 89.9028 56.2834C89.6306 56.2741 89.3643 56.3643 89.1539 56.5372C89.0454 56.6272 88.9597 56.7416 88.904 56.8711C88.8483 57.0005 88.8241 57.1414 88.8335 57.282C88.8213 57.5025 88.8796 57.721 88.9999 57.9061C89.1872 58.1397 89.4192 58.3335 89.6823 58.4762C89.8725 58.5818 90.0407 58.723 90.1774 58.8922C90.2211 58.9489 90.2523 59.0141 90.269 59.0836C90.2737 59.1543 90.2737 59.2252 90.269 59.2958C90.2689 59.3737 90.253 59.4507 90.2223 59.5223C90.1915 59.5938 90.1465 59.6583 90.0901 59.7119C90.0253 59.7793 89.9469 59.8319 89.86 59.8664C89.7732 59.9009 89.6799 59.9163 89.5866 59.9116C89.4618 59.9106 89.3385 59.8837 89.2246 59.8326C89.0961 59.7827 88.971 59.7243 88.8502 59.6578V60.1779C89.1035 60.2928 89.3792 60.3496 89.6573 60.3443C89.8116 60.3529 89.9658 60.328 90.1095 60.2712C90.2531 60.2145 90.3828 60.1273 90.4895 60.0156C90.6796 59.7939 90.7792 59.5087 90.7683 59.2168C90.7721 58.998 90.7128 58.7828 90.5977 58.5968C90.4343 58.3717 90.2206 58.1879 89.9736 58.0601C89.7758 57.9494 89.5962 57.8091 89.441 57.644C89.4004 57.5922 89.3707 57.5328 89.3536 57.4693C89.3314 57.4151 89.3201 57.3572 89.3203 57.2987C89.3192 57.2218 89.3334 57.1454 89.3619 57.074C89.3905 57.0026 89.4329 56.9375 89.4867 56.8826C89.5453 56.8281 89.614 56.7857 89.689 56.7579C89.764 56.73 89.8437 56.7173 89.9236 56.7203C90.155 56.7191 90.3822 56.781 90.581 56.8992" fill="#03383B"/>
<path fill-rule="evenodd" clip-rule="evenodd" d="M189.066 38.5666C188.908 39.2115 189.128 39.3987 189.066 40.0062C188.737 40.2517 188.288 40.4514 187.921 40.7011C187.347 41.088 187.397 41.2503 186.648 41.2544C186.648 40.0062 187.817 38.758 188.142 37.7261C188.745 35.7914 186.944 34.8843 186.087 35.7955C185.446 36.4779 185.904 37.8176 185.254 39.8689C184.958 41.0351 184.258 42.0583 183.278 42.7565C181.58 43.8549 178.888 43.8008 176.895 43.8549C174.586 43.9132 175.36 45.8562 176.517 46.1724C177.259 46.3389 178.029 46.3389 178.772 46.1724C179.925 45.981 182.567 44.8036 182.65 45.4693C182.737 46.2099 182.737 44.995 182.65 45.6399C182.617 45.9062 182.375 46.0934 182.205 46.3347C181.765 46.9073 181.17 47.3407 180.49 47.5829L175.414 48.4442C174.857 48.4775 174.428 48.361 174.166 48.6356C174.324 48.723 174.141 48.6647 174.424 48.7022H174.628C175.876 48.7771 175.556 48.7271 176.662 49.318C177.944 50.0087 179.246 49.913 180.79 49.4428C183.898 48.5025 183.881 47.4872 185.034 45.4152C185.255 44.9481 185.56 44.5251 185.933 44.167L190.002 42.1074C191.179 41.4583 192.269 41.4375 191.666 39.9854C191.576 39.7552 191.441 39.5453 191.269 39.3681C191.097 39.1909 190.891 39.0499 190.663 38.9535C190.142 38.783 189.608 38.6563 189.066 38.5749" fill="#03383B"/>
<path fill-rule="evenodd" clip-rule="evenodd" d="M187.572 45.9977C187.339 45.9228 187.805 45.9644 187.227 45.8854C187.116 45.8728 187.005 45.8728 186.894 45.8854C186.653 45.906 186.414 45.9435 186.179 45.9977C182.284 46.7924 186.436 48.6065 187.814 49.888C187.963 50.0336 188.088 50.096 188.255 50.2417C189.857 51.6438 189.561 52.1057 190.947 51.0156C191.779 50.3582 191.363 48.8728 191.288 48.5982C191.022 47.3042 191.633 47.1752 190.152 46.5178C189.603 46.2765 189.432 46.3846 188.875 46.2099C187.626 45.8271 188.117 46.1766 187.572 46.0019" fill="#03383B"/>
<path fill-rule="evenodd" clip-rule="evenodd" d="M210.798 46.7385C210.827 46.6012 211.255 46.1935 210.627 46.027C209.999 45.8606 209.121 46.2101 208.497 46.2434C207.344 46.3058 206.271 46.5679 206.109 46.5596C205.751 46.1019 205.692 45.8939 206.109 45.3447L207.636 43.0147C207.798 42.821 207.902 42.5846 207.933 42.3337C207.965 42.0828 207.924 41.828 207.814 41.6C207.452 41.0425 207.024 41.4585 206.566 41.1381C206.649 40.5764 207.095 40.5681 207.536 40.3975C207.881 40.2686 208.405 40.1437 208.805 39.9815C209.204 39.8192 209.038 39.8067 209.366 39.6153C209.612 39.4738 209.678 39.5113 209.887 39.3449C210.095 39.1784 210.719 38.1341 209.633 38.055C209.5 38.055 209.217 38.055 209.063 38.055C208.688 38.0294 208.312 38.0391 207.939 38.0842C207.523 38.1632 204.96 40.202 203.737 40.331C203.791 39.6944 203.666 40.2686 203.912 39.944L204.777 39.2242C206.608 37.7971 205.888 38.2173 206.982 37.1105C207.486 36.6071 207.977 36.8193 208.018 36.0204C207.602 35.4254 207.186 35.5211 206.716 35.2257C206.87 34.2895 208.518 34.7514 207.44 33.4407L206.862 33.0247C207.007 32.3132 207.224 32.2674 206.679 31.6724C205.264 31.4561 205.376 32.9207 204.96 33.7528C204.719 34.2313 204.76 33.9151 204.457 34.2563C204.041 34.7056 204.698 34.2313 203.766 34.9386C203.688 35.0097 203.606 35.0764 203.521 35.1383C203.42 35.2095 203.307 35.2601 203.187 35.2873C203.067 35.3144 202.943 35.3175 202.822 35.2965C202.655 34.9053 202.901 34.8429 202.476 34.4643C201.644 33.6821 200.858 34.6557 200.483 35.2965C200.191 35.2669 199.908 35.1792 199.651 35.0385L199.193 35.363C198.419 35.9663 198.494 37.7555 198.507 38.6708C198.507 39.3074 198.27 39.6985 198.345 39.9815C198.511 40.3254 198.788 40.6037 199.131 40.772C199.822 41.0799 199.859 40.9967 200.379 40.772C201.265 40.3559 201.211 40.9093 201.473 40.2436C201.594 39.9565 201.473 39.3241 202.143 39.7027L201.84 40.0688C201.822 40.0886 201.805 40.1095 201.79 40.1313C200.612 41.5542 199.996 41.679 199.751 42.0618C199.16 42.9647 197.641 43.489 196.984 43.9425C195.865 44.7206 196.393 45.6734 196.514 46.0229C196.994 46.0617 197.476 46.0506 197.953 45.9896L198.016 45.923L198.078 45.8564L199.614 44.4168C200.687 43.3184 200.417 43.9009 201.311 43.0563C202.605 41.8372 202.668 42.3073 203.179 41.729C203.691 41.1506 203.625 41.6541 204.265 41.238C204.906 40.8219 204.303 40.8885 205.335 40.8635C204.569 42.324 203.5 41.858 203.67 43.1187C203.015 43.4235 202.391 43.7914 201.806 44.2171C201.267 44.6557 200.66 45.0041 200.009 45.249C198.761 45.7025 198.948 45.3821 198.852 45.9438C199.589 46.4722 200.691 45.8856 201.378 45.6983C201.44 45.611 203.042 44.9452 203.296 44.7996C203.899 44.4792 204.498 43.9217 205.376 43.8759C204.86 45.1658 202.98 45.6401 202.788 46.1061C202.514 46.7801 202.988 47.0464 202.709 47.3543C202.485 47.7704 202.747 47.4999 202.202 47.6497L200.292 48.1199C199.622 48.3404 197.862 48.2697 197.571 48.4694C197.625 50.0921 203.208 48.4694 203.962 49.0353C204.099 49.21 204.057 48.9645 204.103 49.4513C204.111 49.5911 204.099 49.7314 204.066 49.8674C203.966 50.2108 203.77 50.5187 203.502 50.7551C203.234 50.9916 202.904 51.147 202.551 51.203C202.676 51.7689 202.609 51.1073 202.701 51.5609C202.792 52.0144 202.509 51.9353 202.543 52.7508C203.629 53.583 204.931 54.0989 205.568 52.5095C205.717 52.2245 205.844 51.9282 205.946 51.6233C206.146 50.8327 206.009 49.5429 206.495 48.8023C209.15 48.6317 211.201 49.4888 210.923 47.554C210.86 47.113 210.739 47.217 210.843 46.7843M203.575 38.0966C203.626 37.8848 203.742 37.6943 203.907 37.5518C204.072 37.4092 204.277 37.3219 204.494 37.3019C204.365 37.8137 204.128 38.1091 203.575 38.0966ZM205.355 42.0868C204.765 42.3905 204.835 42.7733 204.066 42.636L204.482 42.0286C204.794 41.7498 204.702 41.9745 205.048 41.6832C205.88 40.9967 205.335 41.005 206.4 41.2422C206.188 41.8788 205.842 41.8247 205.335 42.0743" fill="#03383B"/>
<path fill-rule="evenodd" clip-rule="evenodd" d="M105.697 39.5447C105.697 38.5669 105.555 38.5336 105.152 38.3672C104.008 37.8929 103.625 37.3603 102.61 37.9511C102.193 38.1966 102.139 38.4837 101.777 38.7167L99.7345 40.0856C99.3184 40.3935 99.1436 40.6431 98.6319 40.6806C98.6297 40.4751 98.6748 40.2718 98.7635 40.0864C98.8522 39.9011 98.9822 39.7385 99.1436 39.6113C99.5306 39.2326 99.4973 39.0787 99.8718 38.7458C101.332 37.456 99.9592 38.413 101.794 37.3853C102.239 37.1398 102.36 36.861 102.297 36.2619C102.185 35.1634 101.881 36.0705 101.328 34.6725C101.162 34.2564 101.212 34.3854 101.278 34.0691C101.463 33.5734 101.506 33.0361 101.403 32.5172C99.9675 31.5644 99.7095 32.2301 99.7095 32.2301C99.7095 32.2301 99.6762 32.2883 99.6679 32.305L98.5944 35.438C98.0827 36.6863 95.6028 37.5767 94.3421 37.8804C93.6931 38.0343 94.1507 38.0884 93.51 38.1883L90.7472 38.8249C90.2438 39.0163 90.3312 38.9164 90.0482 39.2701C89.9513 39.3831 89.8824 39.5173 89.847 39.6618C89.8116 39.8064 89.8107 39.9573 89.8444 40.1022C90.3977 40.4476 90.4851 40.5974 91.3589 40.5516C92.6737 40.4809 95.6153 39.3949 96.3934 39.5946C96.4974 39.7985 96.5057 39.553 96.46 39.9691C96.1571 40.7126 95.7038 41.3855 95.1285 41.9455C94.4878 42.2533 94.3921 41.7541 93.9136 42.6528C93.6098 43.227 93.7097 43.5931 93.3103 43.9925C93.1466 44.1282 92.9987 44.2817 92.8692 44.4502C92.5904 44.8164 92.7486 44.6874 92.3741 44.9786C91.1591 45.9356 91.9289 45.6901 90.9178 46.36C90.4726 46.6554 90.2396 47.0424 89.9068 47.2629C89.6707 47.3928 89.4209 47.4961 89.162 47.5708C88.5836 47.8704 88.1592 49.7053 89.7695 49.6928C91.2299 49.6928 89.9442 48.403 93.7263 45.8774C94.1174 45.6152 94.6292 45.3531 95.0994 45.5528C95.3116 45.6402 95.4406 45.7817 95.6736 45.894C95.9197 45.9886 96.1729 46.0637 96.4308 46.1187C96.514 46.93 96.1396 46.7595 95.686 47.163C95.3573 47.4543 95.1368 47.8579 94.6833 48.0951C94.5377 48.1699 94.2672 48.3156 94.0758 48.3821C93.842 48.4337 93.6165 48.5177 93.406 48.6318C92.9316 48.9771 92.9191 49.8218 93.8012 50.371C95.0245 51.1282 94.5127 51.3196 95.8067 51.0201C96.6389 50.8162 98.2366 50.2129 98.9689 50.5333C99.0604 50.7912 98.9689 51.4944 98.4946 51.6691C98.3032 51.7357 98.4113 51.6691 98.1991 51.7191L97.9162 51.794C97.9953 52.6012 98.2491 51.9895 98.4155 53.2544L99.7469 53.4749C100.716 51.9479 99.0521 50.629 100.783 50.0964C101.386 49.9091 101.349 49.751 101.798 49.5097C103.026 50.1338 102.123 50.4459 102.539 51.6275C102.851 52.5179 104.299 52.7135 104.299 52.7135C105.06 52.2974 104.811 50.9119 104.84 49.9757L104.965 46.9092C104.965 46.4266 105.173 45.3739 105.206 44.0758C105.266 43.5916 105.352 43.111 105.464 42.6361C105.53 42.0951 105.549 41.5495 105.522 41.0051C105.522 40.51 105.664 40.0898 105.668 39.5322M99.1312 48.5527L99.0063 48.6568C98.4613 49.1228 96.41 49.905 95.9523 49.6678C96.331 49.3766 96.8719 49.0437 97.4835 48.611C97.7706 48.403 97.987 48.2656 98.2948 48.0534C98.4269 47.9288 98.5867 47.8374 98.7611 47.7868C98.9354 47.7361 99.1193 47.7277 99.2976 47.7622C99.3434 48.1783 99.385 48.2864 99.1312 48.5527ZM100.013 42.7277C99.7262 43.202 99.8302 43.1978 99.3808 43.5806C98.9314 43.9634 98.661 45.0868 97.7997 44.8289L97.729 43.643L98.9522 42.5779C99.2768 42.3199 99.9051 41.7 100.396 41.7457C100.587 42.3699 100.338 42.1618 100.013 42.711M102.855 45.7983C102.78 46.3725 102.984 48.7857 102.622 49.3433L102.169 49.3807L101.99 48.869C101.923 48.6651 101.948 48.6068 101.752 48.4529C101.432 48.2116 101.137 48.2823 100.833 48.1575C100.746 47.6332 101.016 47.163 101.216 46.6388C101.302 46.4255 101.375 46.2074 101.436 45.9855C101.544 45.7335 101.632 45.4734 101.698 45.2075C101.428 44.6832 101.066 44.8289 100.866 44.0716C101.053 43.7637 101.091 43.8178 101.345 43.5931L102.818 42.2783C103.142 43.0772 102.959 44.9329 102.843 45.7942" fill="#03383B"/>
<path d="M158.43 43.9341C158.531 43.8691 158.619 43.7875 158.692 43.6928C159.017 43.1727 159.882 42.9439 160.511 42.17C160.556 42.1117 160.714 41.9827 160.627 41.9702C160.54 41.9578 158.867 42.8898 158.78 42.9355C158.72 42.9636 158.659 42.9886 158.597 43.0104C158.671 42.6282 158.724 42.242 158.755 41.8537L158.805 41.6623C158.809 41.6488 158.809 41.6343 158.805 41.6207C158.805 41.5334 158.834 41.5042 158.925 41.4876C158.925 41.4876 158.975 41.4876 158.979 41.4668C158.984 41.446 159.038 41.421 159.071 41.4044C159.143 41.3608 159.222 41.3286 159.304 41.3087L159.533 41.2546L159.812 41.2005L160.128 41.1589H160.157C161.605 40.6222 160.64 40.127 160.623 40.1187C160.606 40.1104 160.236 39.8982 159.204 39.944C159.129 39.944 159.071 39.7567 159.083 39.686C159.096 39.6153 159.083 39.582 159.108 39.5362C159.133 39.4904 159.316 38.5002 159.325 38.4003C159.319 38.3603 159.319 38.3197 159.325 38.2796C159.325 38.2214 159.35 38.1631 159.366 38.1091C159.383 38.055 159.366 38.1091 159.366 38.0841C159.366 38.0591 159.4 37.9967 159.412 37.9551C159.435 37.9253 159.448 37.8888 159.45 37.8511C159.624 37.3892 159.674 37.1895 159.225 36.8109C158.647 36.3241 157.64 36.0828 157.145 36.2908C156.728 36.4489 156.687 36.6778 156.753 37.1022C156.753 37.1406 156.76 37.1786 156.774 37.2145C156.774 37.2727 156.795 37.331 156.807 37.3934C156.81 37.4142 156.81 37.4351 156.807 37.4558C156.807 37.5224 156.724 39.9315 156.716 39.998C156.718 40.0257 156.718 40.0536 156.716 40.0813C156.716 40.1562 156.691 40.231 156.674 40.3059L156.612 40.6596C156.612 40.6929 156.612 40.7137 156.566 40.722C156.552 40.727 156.54 40.7374 156.533 40.7511C156.513 40.7997 156.48 40.8415 156.437 40.8718C156.4 40.9051 155.767 41.1339 155.102 41.3711C154.814 41.4709 154.611 41.6915 154.353 41.7872C154.092 41.8684 153.822 41.92 153.55 41.9411C153.536 41.945 153.522 41.945 153.508 41.9411C153.429 41.9572 153.352 41.9824 153.279 42.016C153.231 42.0413 153.183 42.069 153.138 42.0992C153.088 42.145 153.038 42.2407 153.096 42.2698C153.371 42.3905 153.15 43.1602 153.566 43.2101C153.566 43.2101 153.566 43.231 153.566 43.2351C153.658 43.3041 153.754 43.368 153.853 43.4265C153.936 43.4374 154.02 43.4374 154.103 43.4265C154.42 43.3165 154.727 43.1772 155.018 43.0104C155.375 42.8204 155.756 42.6804 156.15 42.5944C156.169 42.5869 156.19 42.5869 156.208 42.5944C156.237 42.603 156.267 42.603 156.296 42.5944L156.429 42.5403H156.466C156.468 42.5568 156.468 42.5736 156.466 42.5902C156.441 42.6817 156.429 42.7733 156.404 42.8606C156.379 42.948 156.25 44.1921 156.208 44.3003L156.15 44.4625C156.136 44.5017 156.108 44.5342 156.071 44.5541L155.955 44.6373C155.875 44.6789 153.221 46.4763 153.183 46.5013C153.141 46.5376 153.089 46.5607 153.034 46.5679C153.021 46.5656 153.009 46.5656 152.996 46.5679C152.934 46.6012 152.892 46.6677 152.821 46.6844C152.797 46.7385 152.751 46.7426 152.701 46.7426C152.474 46.9112 152.296 47.1366 152.185 47.3959C152.114 47.6497 152.355 47.8868 152.347 48.1698C152.35 48.3218 152.407 48.4677 152.509 48.5808C152.611 48.6939 152.75 48.7666 152.901 48.7856C153.115 48.8057 153.33 48.7545 153.512 48.6399C153.545 48.6399 154.606 47.1629 154.623 47.1254C154.953 47.4524 155.214 47.8431 155.389 48.2738C155.461 48.4273 155.501 48.5939 155.507 48.7634C155.513 48.933 155.484 49.1019 155.422 49.2599C155.372 49.3701 155.347 49.4899 155.348 49.6109C155.349 49.7319 155.376 49.8512 155.428 49.9606C155.48 50.0699 155.555 50.1666 155.648 50.2439C155.741 50.3212 155.85 50.3773 155.967 50.4083C156.695 50.5788 157.681 49.7134 157.827 48.4818C157.859 48.0829 157.926 47.6876 158.027 47.3002C158.027 47.1961 158.027 47.0921 158.06 46.9881C158.064 46.9434 158.071 46.899 158.081 46.855C158.116 46.7388 158.137 46.6185 158.143 46.4971C158.143 46.4347 158.426 44.1338 158.426 44.0964C158.43 44.0479 158.43 43.9992 158.426 43.9508M156.009 47.1878C156.009 47.1878 155.863 47.5789 155.871 47.6039C155.578 47.3124 155.248 47.0606 154.889 46.855C154.889 46.8217 156.104 45.536 156.138 45.511L156.158 45.4819C156.172 45.4798 156.186 45.4798 156.2 45.4819C156.2 45.4819 156.05 47.1171 156.013 47.2045" fill="#03383B"/>
<path d="M163.989 46.6636C163.989 46.6636 164.081 48.3279 164.106 48.2946C164.131 48.2613 164.559 48.6899 164.567 48.7107C164.6 48.7612 164.65 48.7971 164.709 48.8105C164.726 48.8168 164.741 48.8285 164.75 48.8438C164.776 48.8813 164.812 48.9102 164.855 48.927C164.871 48.9383 164.886 48.9508 164.9 48.9645C164.929 48.9894 164.959 49.0116 164.992 49.0311C165.033 49.0311 166.136 49.8965 166.939 50.3583C167.361 50.5978 167.809 50.789 168.275 50.9284H168.479C168.526 50.9246 168.573 50.9379 168.612 50.9658C168.628 50.977 168.646 50.9842 168.666 50.9866C168.745 51.0116 169.34 51.1198 169.465 50.7786C169.531 50.7786 169.556 50.712 169.594 50.6704C169.713 50.4392 169.883 50.2375 170.09 50.0799C170.297 49.9223 170.537 49.8127 170.792 49.7592C171.258 49.6177 171.832 49.6011 171.828 49.4055C171.828 48.486 169.09 48.0075 168.986 47.9826C168.882 47.9576 165.504 46.8175 165.379 46.7718L163.968 46.6553" fill="#03383B"/>
<path d="M167.222 47.8412L168.079 47.9119C167.293 47.6422 166.53 47.3082 165.799 46.9133L167.842 44.6207C167.931 44.5264 167.994 44.4104 168.025 44.2841C168.056 44.1578 168.053 44.0257 168.017 43.9009C167.989 43.6946 167.891 43.5041 167.74 43.3615C167.588 43.219 167.392 43.1332 167.184 43.1187C167.139 43.1187 165.853 43.3351 165.749 43.36H165.478L165.395 43.3808L165.316 43.4016C165.325 43.3702 165.336 43.3396 165.349 43.3101C165.374 43.2643 165.458 42.4488 165.466 42.3739C165.474 42.129 165.557 41.8923 165.703 41.6957C165.936 41.4544 168.911 41.0092 169.032 40.9385C169.976 40.3393 169.514 40.0106 169.302 39.2742C169.223 38.9912 168.749 38.933 167.863 38.9621C167.717 38.9621 166.261 39.2534 166.227 39.2534C166.194 39.2534 166.227 39.3158 166.202 39.3033C166.198 39.2869 166.198 39.2697 166.202 39.2534C166.202 39.2201 166.202 39.191 166.202 39.1618C166.202 39.1327 166.352 37.5724 166.327 37.535C166.269 37.358 166.165 37.1998 166.025 37.0768C165.886 36.9539 165.715 36.8707 165.533 36.836C165.327 36.7814 165.116 36.7438 164.904 36.7236C164.759 36.7236 164.401 36.8193 164.272 36.811C164.189 36.8138 164.108 36.8365 164.036 36.877C163.963 36.9175 163.902 36.9748 163.856 37.044C163.856 37.044 163.822 37.0773 163.806 37.0815C163.789 37.0856 163.768 37.1272 163.752 37.1563C163.735 37.1855 163.752 37.2146 163.781 37.2396L163.814 37.2687C163.857 37.3034 163.888 37.35 163.905 37.4025C163.921 37.4551 163.921 37.5113 163.906 37.5641C163.872 37.6848 163.635 40.0314 163.614 40.123C163.598 40.2346 163.56 40.342 163.502 40.4392C163.484 40.462 163.468 40.4872 163.456 40.5141L163.381 40.6805C163.368 40.7208 163.341 40.7557 163.307 40.7804C163.282 40.8012 163.248 40.8137 163.223 40.8345C163.198 40.8553 161.455 41.8538 161.376 41.8955C161.338 41.914 161.297 41.9266 161.255 41.9329C161.193 41.9391 161.13 41.9391 161.068 41.9329C160.756 41.9329 160.594 42.3074 160.565 42.349C160.551 42.3608 160.541 42.3756 160.534 42.3923C160.528 42.4089 160.525 42.4269 160.527 42.4447C160.527 42.478 160.494 42.5903 160.527 42.6069C160.56 42.6236 160.556 43.1062 160.877 43.0896C161.451 43.0605 161.522 43.4682 161.917 43.2685C161.917 43.2685 161.942 43.2685 161.954 43.2685H162C162.223 43.1331 162.436 42.9815 162.637 42.815C162.741 42.7526 163.028 42.4988 163.132 42.4322H163.157C163.157 42.4322 162.986 43.7095 162.99 43.7428C162.994 43.7761 162.99 43.8094 162.915 44.1381C162.72 45.0618 160.419 45.1533 160.323 45.1408C160.294 45.1408 160.024 45.1408 160.373 45.482C160.777 45.8645 161.238 46.183 161.738 46.4265C162.041 46.5942 162.321 46.8012 162.57 47.0423C162.57 47.0631 162.653 47.0922 162.691 47.138L162.637 47.1838L162.578 47.2295C162.551 47.2493 162.526 47.2716 162.504 47.2961L162.47 47.3044C162.27 47.4669 162.04 47.5874 161.793 47.6589C161.545 47.7304 161.286 47.7513 161.031 47.7205H160.952C160.848 47.7205 158.101 46.697 158.039 46.697C157.977 46.697 157.794 46.5597 157.785 46.5597L157.76 46.8426C157.76 46.8426 157.997 46.9841 158.006 46.9841C158.085 46.9841 159.175 47.629 159.254 47.6415C159.275 47.6747 160.577 48.5818 160.594 48.6068L160.552 48.6317C160.552 48.6816 160.615 48.6733 160.64 48.7066C160.585 48.7066 160.544 48.7316 160.519 48.7066C160.494 48.6816 160.323 48.6484 160.236 48.6026C160.236 48.6026 160.207 48.6026 160.194 48.6026C160.182 48.6026 160.265 48.6608 160.282 48.6941C160.298 48.7274 160.344 48.7357 160.369 48.7649C160.394 48.794 160.727 49.131 160.785 49.1809C160.799 49.1957 160.816 49.2071 160.835 49.2142L161.126 49.285C161.18 49.297 161.229 49.3244 161.268 49.364C161.293 49.3931 161.314 49.4472 161.376 49.4139C161.549 49.5524 161.753 49.6468 161.97 49.6888C162.188 49.7309 162.412 49.7193 162.624 49.6553C162.968 49.5082 163.281 49.2979 163.548 49.0353C163.573 49.0353 164.172 48.3446 164.222 48.3155C164.272 48.2864 164.255 48.3155 164.259 48.3155C164.287 48.3615 164.33 48.3967 164.38 48.4154C164.396 48.4218 164.409 48.4336 164.417 48.4486C164.417 48.4486 167.222 49.339 167.442 49.4556L167.222 47.8412ZM164.184 45.7608L163.71 46.1186C163.395 46.0764 163.091 45.9777 162.811 45.8274C162.811 45.8274 162.304 45.5985 162.454 45.507C163.248 45.2414 164.06 45.0301 164.883 44.8746C164.996 44.8746 164.68 45.3281 164.184 45.7608Z" fill="#03383B"/>
<path fill-rule="evenodd" clip-rule="evenodd" d="M149.156 39.5611C149.105 39.4491 149.02 39.3556 148.913 39.2935C148.807 39.2314 148.684 39.2037 148.561 39.2142C148.438 39.2246 148.321 39.2728 148.227 39.352C148.132 39.4312 148.064 39.5377 148.033 39.6568C147.816 40.4598 148.203 40.3142 147.463 40.9425C147.168 41.252 146.859 41.5464 146.535 41.8246C146.104 42.073 145.698 42.3629 145.324 42.69C145.236 41.9019 145.339 41.1042 145.624 40.3641C146.456 39.1159 146.006 40.1145 146.618 38.5251C147.017 37.5531 147.239 36.5172 147.271 35.4669C147.271 34.7513 147.413 34.1937 147.392 33.6404C147.363 32.7666 146.522 31.1439 145.827 31.0024C145.678 31.8346 145.827 33.0412 145.827 33.915C145.827 35.0758 145.603 35.6042 145.532 36.6153C145.302 37.9774 144.918 39.3091 144.388 40.5847C144.163 40.9633 144.217 40.8801 143.972 40.9591C143.439 40.0646 144.221 39.8565 144.538 39.3739C144.7 38.6457 144.454 38.1257 143.83 38.0341C143.566 37.9785 143.291 38.0161 143.051 38.1405C142.811 38.2649 142.622 38.4684 142.515 38.7165C142.249 39.1232 141.916 39.482 141.529 39.7775C141.067 40.2227 141.084 40.7136 140.423 40.7553C140.19 40.3725 140.393 40.5222 140.006 39.8024C139.782 39.3864 139.907 39.2699 140.077 38.7706C140.289 38.1256 140.115 38.3212 140.006 37.7762C139.927 37.3601 140.006 36.8774 139.915 36.4738L139.719 35.9787C139.166 34.7305 137.564 35.0134 136.986 35.5626L136.753 35.7956C136.553 35.9787 136.674 35.8372 136.507 36.012C135.521 37.0563 135.434 37.747 134.768 38.3545C134.244 38.8288 134.132 39.1866 132.738 40.4349C132.322 40.7927 131.489 41.4376 131.36 41.8911C131.777 41.8204 131.598 41.7622 131.972 41.6997C132.733 41.5791 132.288 41.7705 132.538 41.8787L133.965 41.9244C134.747 41.7996 135.629 41.1755 136.141 41.1505C136.241 41.1505 136.283 41.1505 136.291 41.1214C136.328 41.0798 136.174 41.0382 136.291 41.1214L136.441 41.2046C135.126 42.1616 136.233 41.9286 134.926 42.7399C134.31 43.1269 134.406 42.9521 133.824 42.948C133.524 42.948 132.238 43.7801 131.868 44.0006C131.181 44.3831 130.46 44.6993 129.713 44.9451C128.976 45.0616 128.881 44.8661 128.385 44.7371C127.137 45.8647 128.015 46.7925 128.514 46.8716C129.808 47.0796 132.496 45.4444 133.553 44.8994C133.936 44.7038 134.31 44.4167 134.627 44.2545C135.459 43.8384 135.459 43.8883 135.725 44.0464C135.382 44.779 134.926 45.4529 134.373 46.0436C133.923 46.3556 133.799 46.3473 133.574 46.9631C133.342 47.3932 133.251 47.8848 133.312 48.3694C133.62 48.7382 134.061 48.9713 134.539 49.0185C135.334 49.0393 135.201 48.5109 135.787 48.3029C136.066 48.7938 136.079 49.4596 136.378 49.8299C136.59 50.0359 136.871 50.155 137.166 50.1634C137.461 50.1719 137.749 50.0692 137.972 49.8756L139.499 44.6913C139.669 44.3585 139.54 44.8702 139.657 44.2753C139.89 43.077 140.239 43.1394 141.246 41.8953C141.484 41.604 142.033 40.9716 142.574 40.9924C142.624 42.12 141.912 42.5527 141.662 43.6969C141.392 44.9743 140.46 44.4084 140.739 46.3307C141.6 46.6136 141.571 46.8383 142.232 46.1767C142.549 45.8563 143.165 45.3446 143.735 45.4319C144.034 46.2433 143.318 48.8313 143.11 49.884C142.744 51.6814 143.406 50.171 142.353 52.7965C141.762 54.2819 141.658 54.7229 142.532 55.1889C143.081 55.476 144.384 55.6466 144.458 53.8533V50.2168C144.488 49.6468 145.624 47.7536 145.291 45.3404C145.112 44.0131 146.04 43.7884 147.517 42.844C148.727 42.0659 150.055 40.9924 149.152 39.5861M143.418 43.5596C143.367 43.4697 143.334 43.3703 143.321 43.2673C143.309 43.1643 143.318 43.0599 143.348 42.9605C143.435 42.6609 143.556 42.6567 143.893 42.6234C143.797 43.0395 143.872 43.4972 143.418 43.5596Z" fill="#03383B"/>
<path fill-rule="evenodd" clip-rule="evenodd" d="M124.553 41.0092C123.367 40.1396 122.148 40.614 120.809 40.6556C120.168 40.6556 120.305 40.4642 119.818 40.5724C119.552 40.6835 119.298 40.823 119.061 40.9884C118.013 41.5252 115.208 41.9246 113.914 42.2367C112.999 42.4447 110.943 42.8816 110.286 43.2477C110.115 43.3829 109.964 43.5411 109.837 43.7179C109.72 44.0008 110.182 44.4876 110.182 44.4876C111.281 44.5513 112.381 44.4015 113.423 44.0466L116.427 43.1728C116.947 43.0605 116.902 42.919 117.26 42.7568C117.575 42.6212 117.9 42.5112 118.233 42.4281C118.187 42.9731 117.929 43.0314 117.609 43.3517C117.289 43.6721 117.155 43.8926 116.852 44.1839L115.4 45.1325C115.286 45.1744 115.171 45.2105 115.054 45.2407C114.667 45.378 114.971 45.2407 114.73 45.3822C114.126 45.6984 113.44 46.181 112.649 46.5181C111.214 47.1588 111.185 46.6595 111.439 48.3072C114.721 49.3183 114.064 47.862 115.279 47.9951C115.645 48.4736 115.108 48.4112 116.236 49.2434C117.584 50.2128 118.038 49.3349 119.265 48.4653C119.7 48.1396 120.076 47.7413 120.376 47.2878C121.429 45.9897 122.768 45.3115 122.494 43.8926C122.39 43.3642 122.456 43.4766 122.078 43.1811C121.699 42.8857 120.967 42.4364 120.904 42.0744C122.781 41.5127 124.766 43.0813 124.57 41.0467M120.014 44.5084L119.798 44.8704C119.594 45.2407 119.798 45.016 119.465 45.3239C119.445 45.3431 119.424 45.3612 119.402 45.378C118.903 45.844 119.178 45.9481 118.258 46.4099C117.971 46.5555 117.888 46.568 117.305 46.4765L117.11 46.4182C117.284 45.6485 117.388 46.3808 118.774 45.3281C119.19 45.0285 119.074 44.9661 119.411 44.6041C120.11 43.8552 119.548 44.0882 120.085 43.8926C120.276 44.1964 120.164 44.2421 120.001 44.5084" fill="#03383B"/>
<path fill-rule="evenodd" clip-rule="evenodd" d="M116.07 38.3964C116.448 39.0704 116.544 39.2286 117.426 39.4449C118.695 39.757 120.418 40.714 121.171 40.1439C121.774 39.6821 121.778 38.9956 121.495 38.3465C121.212 37.6974 120.78 37.5476 120.326 37.0983C119.873 36.6489 119.286 36.6447 118.57 36.445C117.264 36.0705 116.536 36.2078 116.041 37.3021L116.07 38.3964Z" fill="#03383B"/>
<path d="M41.8085 53.1043L41.7128 52.9254C41.8043 52.8838 41.8875 52.826 41.9583 52.7548C42.0176 52.6952 42.0556 52.6177 42.0665 52.5343C42.083 52.4477 42.0743 52.3581 42.0415 52.2763C42.0161 52.2046 41.9715 52.1413 41.9126 52.0932C41.8576 52.0492 41.7912 52.0218 41.7212 52.0142C41.6515 52.009 41.5816 52.0204 41.5173 52.0475C41.4544 52.0679 41.3992 52.1071 41.3592 52.1598C41.3139 52.2124 41.2863 52.2779 41.2801 52.347C41.2742 52.4524 41.2742 52.5579 41.2801 52.6633C41.2886 52.7788 41.2816 52.8949 41.2593 53.0086C41.2337 53.0989 41.1866 53.1817 41.122 53.2499C41.051 53.3208 40.966 53.3761 40.8724 53.4122C40.7649 53.4533 40.6504 53.4731 40.5353 53.4704C40.428 53.4699 40.3239 53.4333 40.2399 53.3664C40.1563 53.3015 40.0916 53.2153 40.0527 53.1168C40.0086 53.0132 39.9942 52.8994 40.0111 52.7881C40.0309 52.6773 40.0847 52.5755 40.165 52.4968C40.2556 52.4061 40.363 52.334 40.4813 52.2846L40.5769 52.4719C40.4637 52.5156 40.3684 52.5962 40.3065 52.7007C40.2817 52.7482 40.2688 52.801 40.2688 52.8546C40.2688 52.9082 40.2817 52.9611 40.3065 53.0086C40.3224 53.0583 40.3483 53.1043 40.3827 53.1437C40.417 53.183 40.4591 53.2149 40.5062 53.2374C40.5922 53.2686 40.6865 53.2686 40.7725 53.2374C40.8434 53.2148 40.9039 53.1676 40.9431 53.1043C40.9915 52.9798 41.0031 52.844 40.9764 52.7132C40.9605 52.5833 40.9605 52.452 40.9764 52.3221C40.9956 52.2141 41.0463 52.1143 41.122 52.035C41.2008 51.9659 41.2928 51.9135 41.3925 51.881C41.5042 51.8339 41.625 51.8126 41.7461 51.8186C41.8604 51.8233 41.9713 51.8593 42.0665 51.9226C42.1573 51.9868 42.2269 52.0766 42.2662 52.1806C42.3211 52.2987 42.3399 52.4305 42.3203 52.5592C42.2968 52.6828 42.2358 52.7961 42.1456 52.8838C42.0419 52.9861 41.9188 53.0668 41.7836 53.1209M40.8224 51.7104C40.5191 51.8131 40.1926 51.8261 39.8821 51.7479C39.7699 51.7197 39.6671 51.6626 39.5839 51.5823C39.5007 51.502 39.4399 51.4013 39.4078 51.2902C39.372 51.1509 39.3867 51.0035 39.4494 50.8741C39.524 50.7166 39.6407 50.5827 39.7864 50.4872C39.9635 50.3687 40.1589 50.2801 40.3648 50.225C40.5738 50.163 40.792 50.1377 41.0097 50.1502C41.1846 50.1542 41.3548 50.2075 41.5006 50.3041C41.619 50.3883 41.7055 50.51 41.7461 50.6494C41.7887 50.7964 41.7738 50.9541 41.7045 51.0905C41.6265 51.2483 41.5072 51.382 41.3592 51.4774C41.1942 51.5879 41.0132 51.6721 40.8224 51.7271M40.7642 51.5066C40.9921 51.4565 41.2004 51.3408 41.3633 51.1737C41.4229 51.1162 41.4659 51.0438 41.4878 50.964C41.5098 50.8842 41.5099 50.8 41.4882 50.7202C41.4655 50.6414 41.4218 50.5702 41.3617 50.5145C41.3015 50.4587 41.2273 50.4205 41.147 50.404C40.9084 50.3476 40.6586 50.3605 40.4272 50.4414C40.2643 50.4833 40.1095 50.5522 39.9695 50.6453C39.8575 50.7124 39.7644 50.8069 39.699 50.9199C39.6508 51.0181 39.6404 51.1307 39.6699 51.2361C39.6934 51.3121 39.7353 51.3811 39.7919 51.437C39.8486 51.4929 39.9181 51.534 39.9944 51.5565C40.2504 51.6157 40.518 51.5983 40.7642 51.5066ZM38.9376 48.9685L38.896 48.7563L40.2316 48.5067C40.4174 48.4667 40.6075 48.4499 40.7975 48.4567C40.9302 48.4663 41.0573 48.5139 41.1636 48.594C41.2733 48.6818 41.3448 48.8085 41.3633 48.9477C41.3944 49.078 41.3782 49.2151 41.3176 49.3346C41.2535 49.4509 41.1545 49.5441 41.0346 49.6009C40.8521 49.6803 40.6607 49.7376 40.4646 49.7715L39.1332 50.017L39.0916 49.8048L40.423 49.5552C40.5745 49.5338 40.7227 49.4933 40.864 49.4345C40.9464 49.3989 41.015 49.3376 41.0596 49.2598C41.1064 49.1624 41.1134 49.0506 41.0792 48.9481C41.0451 48.8456 40.9724 48.7604 40.8765 48.7105C40.679 48.6572 40.4708 48.6572 40.2732 48.7105L38.9376 48.9685ZM41.1387 47.5247L39.0583 47.6828L39.0999 48.2196H38.8211L38.7254 46.9297L39 46.9048L39.0416 47.4457L41.122 47.2875L41.1387 47.5247ZM41.0471 46.5137L38.6963 46.4388V46.2224L39.6657 46.2515L39.6907 45.4194L38.7213 45.3902V45.1739L41.0721 45.2488V45.4651L39.9653 45.4277L39.9362 46.2598L41.043 46.2973L41.0471 46.5137ZM41.0887 44.8494L38.7587 44.5664L38.896 43.3931L39.1706 43.4264L39.0541 44.3833L39.7739 44.4666L39.8821 43.572L40.1526 43.6053L40.0444 44.4998L40.8432 44.5997L40.9639 43.6011L41.2343 43.6344L41.0887 44.8494ZM41.2843 43.3099L38.9751 42.8938L39.104 42.1823C39.1211 42.0688 39.1638 41.9607 39.2289 41.8661C39.2933 41.7924 39.3817 41.7437 39.4785 41.7288C39.5981 41.7059 39.7209 41.7059 39.8405 41.7288C39.988 41.7528 40.1254 41.8193 40.2358 41.9202C40.2864 41.9689 40.3259 42.0279 40.3518 42.0932C40.3776 42.1586 40.3891 42.2287 40.3856 42.2988C40.4255 42.257 40.4718 42.2219 40.5229 42.1948C40.6307 42.1396 40.7454 42.099 40.864 42.0741L41.5464 41.9119L41.4965 42.174L40.9764 42.2988L40.631 42.3945C40.5685 42.4137 40.5085 42.4403 40.4521 42.4736C40.4225 42.4996 40.396 42.5289 40.3731 42.5609C40.3588 42.5985 40.349 42.6376 40.3439 42.6774L40.2982 42.9229L41.3217 43.1143L41.2843 43.3099ZM40.0361 42.8563L40.1193 42.3987C40.1415 42.3226 40.1415 42.2417 40.1193 42.1657C40.1009 42.1027 40.0592 42.0492 40.0028 42.0159C39.9441 41.9749 39.8775 41.9465 39.8072 41.9327C39.7106 41.9091 39.6088 41.9209 39.5201 41.966C39.4771 41.991 39.4406 42.0259 39.4138 42.0679C39.3871 42.1099 39.3707 42.1577 39.3662 42.2073L39.2705 42.7149L40.0361 42.8563ZM41.6379 41.6789L39.3745 41.0547L39.4369 40.8384L41.4382 40.5014L39.6616 40.0104L39.7198 39.8107L41.9833 40.4389L41.925 40.6512L39.9154 40.9882L41.692 41.4791L41.6379 41.6789ZM40.9556 37.0063L41.0513 36.8108L42.2621 37.4224C42.4333 37.5039 42.594 37.6059 42.7405 37.7261C42.8429 37.8134 42.9168 37.9294 42.9527 38.059C42.9724 38.1284 42.9777 38.2011 42.9684 38.2726C42.9591 38.3441 42.9354 38.413 42.8986 38.4751C42.8425 38.5982 42.7455 38.6982 42.624 38.758C42.5023 38.8114 42.3668 38.8245 42.2371 38.7954C42.0439 38.7522 41.8576 38.6821 41.6837 38.5874L40.4729 37.9758L40.5603 37.7345L41.7711 38.3461C41.9027 38.4188 42.0424 38.476 42.1872 38.5167C42.271 38.544 42.3613 38.544 42.4451 38.5167C42.5226 38.4801 42.5857 38.4186 42.624 38.3419C42.6565 38.2849 42.6736 38.2203 42.6736 38.1547C42.6736 38.089 42.6565 38.0245 42.624 37.9675C42.4931 37.8096 42.3261 37.6854 42.1372 37.6055L40.9556 37.0063ZM43.3355 37.5306L41.355 36.2824L41.4757 36.0951L43.4895 36.3656L41.9375 35.3711L42.0499 35.1964L44.0262 36.4654L43.9097 36.6527L41.8917 36.378L43.4479 37.3725L43.3355 37.5306ZM44.2842 36.1076L42.3786 34.7304L42.5034 34.5556L44.409 35.9329L44.2842 36.1076ZM44.9416 35.238L42.753 34.1728L42.907 33.9981L44.4756 34.797L44.8209 34.9842C44.7419 34.8843 44.6628 34.7762 44.5879 34.668L43.5893 33.2159L43.735 33.0453L45.0872 35.0716L44.9416 35.238ZM45.6489 34.4059L44.0221 32.7083L44.875 31.8761L45.0664 32.0717L44.3674 32.7415L44.8625 33.2616L45.5158 32.6375L45.7113 32.8372L45.0581 33.4614L45.6115 34.0397L46.3354 33.3449L46.5268 33.5446L45.6489 34.4059ZM46.7598 33.3241L45.2911 31.4933L45.8569 31.0398C45.9434 30.9649 46.0459 30.9108 46.1565 30.8817C46.2551 30.8719 46.3542 30.8938 46.4395 30.9441C46.545 31.0036 46.6382 31.0827 46.7141 31.1771C46.8142 31.2942 46.8753 31.4397 46.8888 31.5932C46.8941 31.6637 46.8847 31.7345 46.861 31.8012C46.8374 31.8678 46.8001 31.9288 46.7515 31.9801C46.8094 31.9709 46.8684 31.9709 46.9263 31.9801C47.0436 32.0105 47.1568 32.0552 47.2633 32.1133L47.8832 32.4337L47.671 32.6042L47.2175 32.3255C47.0802 32.2547 46.972 32.2006 46.893 32.1674C46.8348 32.1408 46.7732 32.1226 46.7099 32.1133C46.6714 32.1064 46.6319 32.1064 46.5934 32.1133C46.5571 32.1305 46.5234 32.1529 46.4935 32.1798L46.298 32.338L46.9471 33.1701L46.7598 33.3241ZM46.1108 32.1632L46.4769 31.872C46.5399 31.8234 46.5923 31.7626 46.6308 31.693C46.6497 31.6321 46.6497 31.5668 46.6308 31.5058C46.6119 31.4355 46.5778 31.3702 46.531 31.3144C46.4748 31.2347 46.3923 31.1772 46.298 31.1521C46.2489 31.1423 46.1981 31.1448 46.1502 31.1593C46.1023 31.1738 46.0588 31.1999 46.0234 31.2354L45.6073 31.5557L46.1108 32.1632ZM47.592 31.6806L47.7459 31.5474C47.8071 31.6273 47.8801 31.6975 47.9623 31.7555C48.0354 31.7987 48.1187 31.8216 48.2036 31.822C48.2909 31.8174 48.3755 31.7902 48.4491 31.743C48.5148 31.7028 48.5681 31.6452 48.603 31.5765C48.6375 31.516 48.652 31.4461 48.6447 31.3768C48.6356 31.3087 48.6115 31.2435 48.5741 31.1859C48.5366 31.1284 48.4868 31.0799 48.4283 31.044C48.3667 31.0173 48.2997 31.0058 48.2327 31.0107C48.1289 31.0252 48.0261 31.046 47.9248 31.0731C47.8124 31.1049 47.6963 31.1217 47.5795 31.123C47.4852 31.1149 47.394 31.085 47.3132 31.0356C47.2308 30.9774 47.1601 30.904 47.1052 30.8193C47.0432 30.722 47.0021 30.6129 46.9845 30.4989C46.968 30.394 46.984 30.2866 47.0303 30.191C47.077 30.097 47.1472 30.0168 47.2342 29.958C47.3293 29.8982 47.4382 29.8639 47.5504 29.8581C47.6628 29.8548 47.7734 29.8868 47.8666 29.9497C47.9735 30.0197 48.0654 30.1102 48.137 30.216L47.9748 30.3491C47.9054 30.25 47.8085 30.1733 47.696 30.1286C47.6231 30.1084 47.5457 30.1107 47.4741 30.1354C47.4026 30.16 47.3401 30.2057 47.2951 30.2666C47.25 30.3274 47.2245 30.4004 47.2218 30.4761C47.219 30.5517 47.2393 30.6264 47.2799 30.6903C47.3182 30.7546 47.3767 30.8044 47.4464 30.8318C47.5697 30.8484 47.6951 30.8356 47.8125 30.7943C47.9367 30.7542 48.0652 30.729 48.1953 30.7194C48.3043 30.7176 48.4114 30.748 48.5032 30.8068C48.6 30.8676 48.6812 30.9503 48.7404 31.0481C48.8068 31.15 48.8507 31.2649 48.8693 31.3851C48.8913 31.4973 48.8782 31.6135 48.8319 31.718C48.786 31.8208 48.7107 31.9076 48.6155 31.9677C48.5082 32.0408 48.3832 32.0839 48.2535 32.0925C48.129 32.0914 48.0074 32.0538 47.904 31.9843C47.784 31.9038 47.6808 31.8006 47.6003 31.6806M49.4061 31.4226L48.2411 29.3838L48.4283 29.2715L49.5975 31.3144L49.4061 31.4226ZM50.3214 30.9275L49.3936 29.0718L48.9109 29.3131L48.7861 29.0676L49.947 28.4893L50.0718 28.7347L49.5891 28.9719L50.517 30.8318L50.3214 30.9275ZM51.6529 30.32L51.2784 29.3963L50.1925 28.3769L50.4338 28.2771L50.9955 28.818C51.1037 28.9178 51.2035 29.0177 51.2992 29.1217C51.2992 28.9885 51.2992 28.8388 51.2992 28.6682L51.3325 27.9109L51.5697 27.8152L51.4657 29.3131L51.836 30.2409L51.6529 30.32ZM53.4046 28.5267C53.3142 28.2198 53.3142 27.8933 53.4046 27.5864C53.435 27.4746 53.4945 27.373 53.5771 27.2918C53.6597 27.2107 53.7625 27.1529 53.8747 27.1245C54.0226 27.0898 54.178 27.1105 54.3116 27.1828C54.4618 27.2694 54.5877 27.3925 54.6777 27.5406C54.7889 27.7241 54.8677 27.9254 54.9108 28.1356C54.9622 28.3465 54.9776 28.5645 54.9565 28.7805C54.9461 28.9543 54.8838 29.121 54.7776 29.259C54.6887 29.3736 54.5643 29.4555 54.4239 29.492C54.2738 29.5265 54.1162 29.5027 53.9829 29.4254C53.829 29.3419 53.702 29.2164 53.6168 29.0634C53.5116 28.8943 53.4357 28.7086 53.3921 28.5142M53.6126 28.4684C53.6521 28.6988 53.7576 28.9127 53.9163 29.0842C53.9697 29.1483 54.0398 29.1962 54.1189 29.2227C54.1979 29.2491 54.2828 29.2531 54.3639 29.2341C54.4451 29.2151 54.5194 29.1739 54.5785 29.1151C54.6376 29.0563 54.6791 28.9822 54.6986 28.9012C54.7637 28.6671 54.7637 28.4196 54.6986 28.1855C54.6635 28.0192 54.6032 27.8592 54.5196 27.7112C54.4554 27.5987 54.3638 27.5043 54.2534 27.4366C54.16 27.3795 54.0478 27.3616 53.9413 27.3867C53.8644 27.4058 53.7935 27.444 53.7353 27.4978C53.6771 27.5517 53.6335 27.6193 53.6084 27.6945C53.5281 27.9463 53.5281 28.2167 53.6084 28.4684M55.4849 29.2507L55.2062 26.9165L56.3046 26.7833L56.3379 27.058L55.4558 27.162L55.5432 27.8901L56.3088 27.7986L56.3379 28.069L55.5765 28.1647L55.7055 29.2216L55.4849 29.2507ZM57.9814 28.3062L58.1853 28.2854C58.1855 28.3857 58.2068 28.485 58.2477 28.5766C58.2786 28.6545 58.3322 28.7212 58.4016 28.768C58.4771 28.8139 58.563 28.8397 58.6513 28.8429C58.7276 28.8482 58.8039 28.8324 58.8718 28.7971C58.9344 28.767 58.9855 28.7174 59.0174 28.6557C59.0509 28.5943 59.0694 28.5259 59.0715 28.456C59.0731 28.3898 59.0588 28.3242 59.0299 28.2646C58.9988 28.2026 58.9494 28.1518 58.8884 28.1189C58.7955 28.0711 58.6996 28.0295 58.6013 27.9941C58.4903 27.9584 58.3852 27.9066 58.2893 27.8402C58.2154 27.7809 58.158 27.7035 58.1229 27.6155C58.0865 27.5214 58.0695 27.4209 58.0729 27.3201C58.0772 27.2046 58.1056 27.0912 58.1561 26.9872C58.2038 26.8924 58.2774 26.8131 58.3683 26.7584C58.4623 26.7109 58.5668 26.688 58.6721 26.6918C58.7842 26.6903 58.8943 26.7222 58.9883 26.7833C59.0819 26.8448 59.1545 26.9333 59.1963 27.0371C59.2427 27.1564 59.2653 27.2837 59.2629 27.4116H59.0549C59.0551 27.2907 59.0204 27.1722 58.955 27.0704C58.9194 27.031 58.8757 26.9998 58.8268 26.979C58.778 26.9581 58.7252 26.9482 58.6721 26.9498C58.6198 26.9429 58.5666 26.9475 58.5163 26.9633C58.466 26.9791 58.4198 27.0058 58.3808 27.0413C58.3243 27.1031 58.2897 27.1818 58.2821 27.2652C58.2746 27.3486 58.2947 27.4322 58.3392 27.5032C58.4307 27.586 58.5405 27.6459 58.6596 27.6779C58.7861 27.718 58.9075 27.7725 59.0216 27.8402C59.1098 27.9017 59.179 27.9867 59.2213 28.0857C59.2657 28.1907 59.2843 28.3048 59.2754 28.4185C59.2755 28.5413 59.247 28.6624 59.1922 28.7722C59.1443 28.8744 59.0676 28.9604 58.9715 29.0195C58.8754 29.0787 58.7641 29.1084 58.6513 29.1051C58.5201 29.1047 58.3917 29.0672 58.281 28.9969C58.1788 28.927 58.1016 28.8265 58.0604 28.7098C58.0062 28.5779 57.9793 28.4363 57.9814 28.2937M60.8315 28.4435L61.0354 28.5475C60.9866 28.7559 60.8798 28.9463 60.7275 29.0967C60.667 29.1538 60.5945 29.1966 60.5153 29.2218C60.436 29.247 60.3521 29.254 60.2698 29.2423C60.1906 29.2387 60.1129 29.2191 60.0415 29.1848C59.97 29.1505 59.9061 29.1021 59.8537 29.0426C59.7458 28.9053 59.6768 28.7415 59.654 28.5683C59.6247 28.3571 59.6247 28.1429 59.654 27.9317C59.6793 27.7158 59.7383 27.5052 59.8288 27.3076C59.8992 27.1521 60.0134 27.0205 60.1575 26.929C60.2799 26.8474 60.4278 26.8134 60.5735 26.8333C60.6508 26.8409 60.7255 26.8653 60.7924 26.9049C60.8592 26.9444 60.9166 26.9981 60.9605 27.0621C61.0666 27.2186 61.1271 27.4016 61.1353 27.5905L60.9147 27.6363C60.9077 27.4979 60.8662 27.3635 60.7941 27.2452C60.7646 27.2042 60.7267 27.17 60.6829 27.1449C60.6391 27.1198 60.5905 27.1043 60.5403 27.0996C60.4824 27.0902 60.4232 27.0931 60.3666 27.1081C60.3099 27.1232 60.2571 27.15 60.2116 27.1869C60.1114 27.2744 60.0355 27.3861 59.991 27.5115C59.9408 27.6558 59.9059 27.805 59.887 27.9567C59.8619 28.1305 59.8619 28.3071 59.887 28.4809C59.8986 28.6121 59.9494 28.7368 60.0326 28.8388C60.0996 28.9166 60.1929 28.967 60.2948 28.9802C60.3532 28.9868 60.4123 28.9801 60.4678 28.9606C60.5233 28.9412 60.5736 28.9095 60.6152 28.8679C60.7257 28.7516 60.8032 28.608 60.8398 28.4518M61.2559 29.3797L61.672 27.0704L61.8842 27.1079L61.4681 29.4213L61.2559 29.3797ZM61.8717 29.5003L62.5041 27.2369L63.6442 27.5531L63.5651 27.8194L62.6373 27.5614L62.4417 28.2563L63.3155 28.4976L63.2406 28.7639L62.371 28.5225L62.1546 29.2923L63.1199 29.5627L63.0492 29.829L61.8717 29.5003ZM63.3612 29.9164L64.235 27.7362L64.443 27.8194L64.5512 29.8498L65.2378 28.1398L65.4333 28.2146L64.5554 30.3949L64.3474 30.3117L64.2392 28.2812L63.5527 29.9913L63.3612 29.9164ZM66.332 30.3325L66.4901 30.5031C66.3711 30.6839 66.2039 30.828 66.0075 30.9191C65.9333 30.954 65.8523 30.9721 65.7703 30.9721C65.6883 30.9721 65.6074 30.954 65.5332 30.9191C65.3906 30.8519 65.279 30.7329 65.2211 30.5863C65.1658 30.4212 65.1571 30.2441 65.1961 30.0745C65.2351 29.8647 65.3038 29.6616 65.4 29.4712C65.4974 29.2761 65.6252 29.0977 65.7786 28.9428C65.8996 28.8233 66.0505 28.7385 66.2155 28.6973C66.3564 28.6688 66.5027 28.6878 66.6316 28.7514C66.7014 28.785 66.7632 28.8333 66.8127 28.8928C66.8622 28.9524 66.8984 29.022 66.9187 29.0967C66.9631 29.281 66.9559 29.4738 66.8979 29.6543L66.6774 29.621C66.722 29.4868 66.7292 29.3429 66.6982 29.2049C66.6844 29.1554 66.6602 29.1093 66.6272 29.0699C66.5941 29.0304 66.5531 28.9984 66.5068 28.9761C66.4555 28.9486 66.399 28.9321 66.3409 28.9278C66.2829 28.9235 66.2246 28.9315 66.1698 28.9511C66.044 28.9965 65.9342 29.0775 65.8535 29.1841C65.7548 29.2993 65.6709 29.4265 65.6039 29.5627C65.5215 29.7186 65.4613 29.8853 65.425 30.0579C65.3863 30.1811 65.3863 30.3132 65.425 30.4365C65.4593 30.5345 65.5291 30.6161 65.6205 30.6653C65.6734 30.692 65.7319 30.7059 65.7911 30.7059C65.8504 30.7059 65.9088 30.692 65.9617 30.6653C66.1074 30.594 66.23 30.4829 66.3154 30.3449M66.4028 31.3144L67.6843 29.3422L68.6745 29.983L68.5247 30.216L67.7176 29.6917L67.3015 30.2992L68.0587 30.7902L67.909 31.019L67.1891 30.4989L66.7731 31.1729L67.6052 31.718L67.4554 31.9468L66.4028 31.3144ZM68.3833 32.6417L70.4013 31.2811L70.576 31.4351L69.54 33.6444L69.3569 33.4863L69.6773 32.8206L69.1905 32.3255L68.5872 32.7415L68.3833 32.6417ZM69.3735 32.2256L69.7896 32.5918L70.085 31.9885C70.1766 31.8054 70.2556 31.6556 70.318 31.5391C70.2039 31.6415 70.083 31.736 69.956 31.822L69.3735 32.2256ZM69.6856 33.7776L71.3915 32.1674L71.5455 32.3255L70.7924 34.2186L72.1363 32.9496L72.2778 33.1035L70.5718 34.7179L70.4179 34.5556L71.171 32.6625L69.8271 33.9107L69.6856 33.7776ZM70.834 35.0008L72.6689 33.5363L73.0225 33.9773C73.0849 34.0517 73.1367 34.1343 73.1765 34.2228C73.2076 34.3188 73.2076 34.4222 73.1765 34.5182C73.1476 34.6704 73.0819 34.8133 72.9851 34.9343C72.8717 35.0893 72.7388 35.2291 72.5898 35.3503C72.4598 35.4495 72.3204 35.5359 72.1737 35.6083C72.0655 35.6646 71.951 35.7079 71.8326 35.7373C71.7471 35.7507 71.6601 35.7507 71.5746 35.7373C71.4985 35.7257 71.426 35.6973 71.3624 35.6541C71.2861 35.6063 71.2185 35.5458 71.1627 35.4752L70.834 35.0008ZM71.1835 35.0008L71.404 35.2713C71.4545 35.3426 71.5198 35.4022 71.5954 35.446C71.6541 35.4729 71.7182 35.4857 71.7826 35.4835C71.8901 35.4701 71.9944 35.4377 72.0905 35.3878C72.2265 35.3205 72.3537 35.2367 72.4691 35.1381C72.6256 35.0265 72.7585 34.8851 72.8603 34.7221C72.9234 34.6248 72.9513 34.5087 72.9393 34.3934C72.9159 34.2997 72.8686 34.2136 72.802 34.1437L72.5898 33.8774L71.1835 35.0008ZM72.6689 37.6096L74.4622 36.5653L74.2208 36.0702L74.4622 35.9287L75.1154 37.0521L74.8741 37.1894L74.6036 36.7234L72.8103 37.7677L72.6689 37.6096ZM73.1474 38.4959L75.2901 37.5306L75.777 38.6041L75.5273 38.7164L75.1112 37.8426L74.4538 38.138L74.8241 38.9702L74.5703 39.0867L74.2042 38.2546L73.4719 38.5833L73.888 39.4986L73.6342 39.611L73.1474 38.4959ZM74.9365 40.7385V40.9715C74.726 41.0175 74.5067 41.0031 74.304 40.9299C74.2272 40.9016 74.1576 40.8568 74.1 40.7985C74.0425 40.7403 73.9985 40.6701 73.9712 40.5929C73.9106 40.4463 73.9106 40.2818 73.9712 40.1352C74.0472 39.9773 74.1652 39.8434 74.3124 39.7483C74.4854 39.6234 74.6761 39.5253 74.8782 39.457C75.0819 39.381 75.2974 39.3416 75.5148 39.3405C75.6845 39.3339 75.8523 39.3773 75.9975 39.4653C76.1207 39.5408 76.2135 39.6571 76.2596 39.794C76.2874 39.8661 76.2989 39.9434 76.2932 40.0204C76.2874 40.0974 76.2646 40.1721 76.2263 40.2392C76.1331 40.4024 75.9962 40.5365 75.831 40.6262L75.6896 40.4514C75.8111 40.3849 75.914 40.2891 75.9891 40.1727C76.0097 40.1261 76.0203 40.0758 76.0203 40.025C76.0203 39.9741 76.0097 39.9238 75.9891 39.8772C75.9711 39.8211 75.9414 39.7695 75.902 39.7258C75.8625 39.682 75.8142 39.6471 75.7603 39.6234C75.6402 39.5702 75.5077 39.5515 75.3775 39.5694C75.2245 39.5862 75.0739 39.6197 74.9282 39.6692C74.7634 39.7278 74.6057 39.8046 74.458 39.8981C74.3475 39.9674 74.2594 40.067 74.2042 40.1851C74.167 40.2815 74.167 40.3883 74.2042 40.4847C74.2227 40.541 74.2542 40.5922 74.2961 40.6341C74.338 40.676 74.3892 40.7075 74.4455 40.726C74.6035 40.769 74.7701 40.769 74.9282 40.726M74.3415 41.4791L76.6299 40.9507L76.6798 41.1588L75.7353 41.3793L75.9267 42.2114L76.8712 41.9951L76.917 42.2031L74.6286 42.7315L74.5787 42.5193L75.6563 42.2738L75.4691 41.4417L74.3914 41.6872L74.3415 41.4791ZM74.7118 43.1018L77.046 42.8189L77.0751 43.0394L75.3442 44.1129L77.175 43.8924L77.1999 44.0963L74.8699 44.3792L74.8408 44.1587L76.5716 43.0852L74.7368 43.3057L74.7118 43.1018ZM76.0516 44.6621C76.3702 44.6336 76.6902 44.7002 76.9711 44.8535C77.0726 44.9072 77.1583 44.9865 77.2196 45.0836C77.2809 45.1807 77.3157 45.2922 77.3206 45.4069C77.3266 45.5583 77.2762 45.7066 77.1791 45.823C77.0696 45.9562 76.9257 46.057 76.7631 46.1142C76.5616 46.1879 76.3492 46.2273 76.1348 46.2307C75.9182 46.2423 75.7013 46.2155 75.494 46.1517C75.326 46.104 75.1747 46.0103 75.0571 45.8812C74.9621 45.7709 74.9078 45.6314 74.9032 45.4859C74.8971 45.3338 74.9492 45.185 75.0488 45.0699C75.1588 44.9371 75.3025 44.8365 75.4649 44.7786C75.652 44.711 75.8486 44.6731 76.0474 44.6663M76.0474 44.891C75.8131 44.8869 75.5824 44.9489 75.3817 45.0699C75.3103 45.113 75.2516 45.1742 75.2114 45.2472C75.1713 45.3203 75.1511 45.4026 75.1528 45.4859C75.1552 45.5724 75.1808 45.6567 75.2269 45.7299C75.273 45.8031 75.338 45.8625 75.415 45.902C75.6325 46.0108 75.8759 46.0569 76.1181 46.0352C76.2866 46.0344 76.4538 46.0063 76.6133 45.9519C76.7386 45.914 76.851 45.842 76.9378 45.7439C77.0111 45.6634 77.05 45.5573 77.046 45.4485C77.0419 45.3693 77.0181 45.2924 76.9767 45.2248C76.9352 45.1572 76.8775 45.1011 76.8088 45.0615C76.5757 44.937 76.3097 44.8876 76.0474 44.9201M74.9406 46.5844L77.2831 46.7633V46.9755L75.2028 46.8215L75.1362 47.6246L74.8657 47.6038L74.9406 46.5844ZM75.9808 47.9574C76.3003 47.977 76.607 48.0898 76.8629 48.282C76.955 48.3502 77.0273 48.4416 77.0726 48.5468C77.1179 48.652 77.1346 48.7674 77.1209 48.8811C77.1073 49.0312 77.0356 49.17 76.9212 49.2681C76.7893 49.3842 76.6281 49.4619 76.4551 49.4928C76.0326 49.5659 75.5979 49.5108 75.2069 49.3346C75.0488 49.2631 74.9135 49.1494 74.8158 49.0059C74.737 48.8824 74.7032 48.7354 74.7201 48.5899C74.7385 48.4382 74.8127 48.2988 74.9282 48.1988C75.0619 48.0839 75.2245 48.0076 75.3983 47.9782C75.5924 47.9361 75.7925 47.9291 75.9891 47.9574M75.9559 48.1738C75.7269 48.1352 75.4916 48.1627 75.2777 48.2528C75.1989 48.2809 75.1296 48.3304 75.0774 48.3957C75.0253 48.4611 74.9924 48.5397 74.9824 48.6227C74.9725 48.7057 74.9859 48.7898 75.0212 48.8656C75.0564 48.9414 75.1121 49.0058 75.182 49.0517C75.3795 49.194 75.6131 49.2776 75.856 49.293C76.0242 49.3185 76.1954 49.3185 76.3636 49.293C76.492 49.2745 76.6128 49.2213 76.7131 49.1391C76.7969 49.0705 76.8506 48.972 76.8629 48.8645C76.871 48.786 76.8592 48.7068 76.8287 48.6341C76.7982 48.5614 76.7498 48.4975 76.6881 48.4484C76.4749 48.292 76.2201 48.2023 75.9559 48.1904M75.2569 50.6869L75.5231 50.7659L75.3276 51.4275L74.4954 51.1862C74.4152 51.0658 74.3574 50.9319 74.3248 50.7909C74.2956 50.6734 74.2956 50.5506 74.3248 50.4331C74.3681 50.2814 74.4603 50.1483 74.587 50.0544C74.732 49.9514 74.9043 49.8935 75.0821 49.888C75.2959 49.8765 75.5101 49.9033 75.7145 49.9671C75.9237 50.0261 76.1219 50.1189 76.3012 50.2417C76.4521 50.3373 76.5721 50.4746 76.6466 50.637C76.6946 50.7857 76.6946 50.9459 76.6466 51.0946C76.6184 51.2035 76.5591 51.3019 76.476 51.3776C76.3972 51.4534 76.2995 51.5066 76.193 51.5315C76.0551 51.5523 75.9149 51.5523 75.777 51.5315V51.3193C75.8734 51.3347 75.9717 51.3347 76.0682 51.3193C76.1445 51.3044 76.2152 51.2684 76.2721 51.2153C76.3305 51.1616 76.3724 51.0923 76.3927 51.0156C76.4176 50.93 76.4176 50.8391 76.3927 50.7535C76.3733 50.6734 76.3347 50.5991 76.2804 50.5371C76.2221 50.4752 76.1564 50.4207 76.0848 50.3748C75.948 50.2915 75.8012 50.2258 75.648 50.1793C75.4763 50.1292 75.2984 50.104 75.1195 50.1044C74.9886 50.1059 74.8616 50.1497 74.7576 50.2292C74.67 50.2955 74.6047 50.387 74.5703 50.4913C74.5453 50.5854 74.5453 50.6844 74.5703 50.7784C74.589 50.8649 74.6244 50.9468 74.6743 51.0197L75.0904 51.1404L75.2569 50.6869ZM73.9296 51.8602L74.8574 52.2305L76.347 52.1515L76.2513 52.3928L75.4732 52.4261C75.3234 52.4261 75.182 52.4261 75.0571 52.4261C75.1528 52.5176 75.2569 52.6258 75.3734 52.7506L75.8976 53.304L75.8019 53.537L74.7908 52.4261L73.8672 52.0516L73.9296 51.8602Z" fill="#ED6C00"/>
<path d="M68.304 56.3C65.9219 58.6824 62.7875 60.1651 59.4348 60.4956C56.0821 60.8261 52.7185 59.984 49.9171 58.1126C47.1156 56.2413 45.0497 53.4566 44.0712 50.2329C43.0927 47.0091 43.2622 43.5458 44.5508 40.4331C45.8394 37.3203 48.1674 34.7506 51.1382 33.1618C54.109 31.5729 57.5387 31.0633 60.8431 31.7196C64.1475 32.3759 67.1222 34.1576 69.2602 36.7612C71.3983 39.3647 72.5675 42.629 72.5687 45.998C72.5744 47.9119 72.2004 49.8079 71.4684 51.5763C70.7363 53.3446 69.6608 54.9502 68.304 56.3ZM68.5245 35.4963C66.0902 33.0606 62.8866 31.5445 59.4597 31.2063C56.0328 30.868 52.5947 31.7286 49.7312 33.6412C46.8676 35.5539 44.756 38.4004 43.756 41.6956C42.7561 44.9908 42.9297 48.5307 44.2474 51.7122C45.565 54.8937 47.9452 57.5198 50.9821 59.1431C54.0191 60.7663 57.525 61.2862 60.9023 60.6142C64.2796 59.9422 67.3194 58.1198 69.5037 55.4576C71.6879 52.7954 72.8814 49.4582 72.8808 46.0146C72.8859 44.0605 72.5035 42.1247 71.7558 40.3193C71.0081 38.5138 69.9098 36.8746 68.5245 35.4963Z" fill="#ED6C00"/>
<path d="M73.1637 61.1639C69.6551 64.6747 65.0377 66.8603 60.0983 67.3482C55.1588 67.8361 50.203 66.5962 46.0754 63.8397C41.9477 61.0832 38.9036 56.9806 37.4617 52.2312C36.0198 47.4818 36.2694 42.3793 38.168 37.7933C40.0666 33.2073 43.4966 29.4215 47.8736 27.0811C52.2506 24.7406 57.3038 23.9904 62.172 24.9581C67.0402 25.9258 71.4223 28.5516 74.5714 32.3881C77.7206 36.2247 79.442 41.0345 79.4423 45.9979C79.4516 48.8156 78.9014 51.607 77.8236 54.2104C76.7458 56.8138 75.1619 59.1773 73.1637 61.1639ZM73.559 30.4409C69.9593 26.8385 65.2218 24.5958 60.1539 24.095C55.086 23.5942 50.0012 24.8662 45.7661 27.6944C41.531 30.5225 38.4076 34.7318 36.9282 39.6048C35.4488 44.4778 35.705 49.713 37.653 54.4183C39.6011 59.1236 43.1205 63.0078 47.6115 65.4089C52.1025 67.8101 57.2872 68.5797 62.282 67.5865C67.2768 66.5933 71.7727 63.8988 75.0035 59.9622C78.2342 56.0256 80 51.0905 79.9998 45.9979C80.0084 43.1077 79.4435 40.2445 78.3379 37.5741C77.2323 34.9037 75.608 32.4792 73.559 30.4409Z" fill="#ED6C00"/>
<path fill-rule="evenodd" clip-rule="evenodd" d="M43.5728 58.1224C43.4771 58.293 43.4272 58.2098 43.2857 58.2223C43.1813 58.25 43.0734 58.2626 42.9653 58.2597L42.8072 58.2347C42.7558 58.2113 42.701 58.1959 42.6449 58.189C42.5076 58.189 42.3911 58.3512 42.4827 58.5759C42.6158 58.8921 42.4827 58.8588 42.7781 58.992C42.9695 59.071 43.3523 59.1709 43.4521 59.3373C43.4521 59.3956 43.3231 59.5204 43.2066 59.4871C43.1567 59.4871 43.1858 59.4871 43.1401 59.458L43.0735 59.433C42.9778 59.5995 43.1109 59.5162 42.9695 59.7825L43.1942 60.0072C43.5894 59.8449 43.4521 59.3665 43.8599 59.5038C43.9972 59.5495 44.0138 59.5038 44.1345 59.5287C44.2843 59.8158 44.0638 59.7534 43.9847 60.0363C43.9223 60.2485 44.1719 60.4899 44.1719 60.4899C44.3758 60.4899 44.5173 60.2111 44.6504 60.0363L45.0998 59.4663C45.1705 59.3748 45.3494 59.2 45.5159 58.9545C45.5949 58.8547 45.6615 58.8297 45.7655 58.7174C45.8533 58.6233 45.9327 58.5217 46.0027 58.4137C46.0692 58.318 46.1525 58.2555 46.2315 58.1515C46.3688 57.9643 46.3439 57.9393 46.2898 57.852C46.1358 57.5981 46.1358 57.4359 45.8737 57.4359C45.7572 57.4359 45.7073 57.4733 45.6116 57.4692H45.0332C44.9084 57.4692 44.8418 57.4941 44.7378 57.4317C44.7651 57.3915 44.8016 57.3584 44.8443 57.3353C44.8871 57.3121 44.9347 57.2995 44.9833 57.2986C45.0681 57.272 45.1542 57.2498 45.2413 57.232C45.6989 57.1821 45.3037 57.1779 45.7988 57.232C45.9195 57.232 45.9819 57.2112 46.0526 57.0864C46.1774 56.8617 45.9944 56.9948 46.0817 56.6495C46.1067 56.5455 46.0817 56.5788 46.1566 56.5288C46.2584 56.4579 46.3401 56.3619 46.3938 56.2501C46.2523 55.8673 46.1067 55.9588 46.1067 55.9588L45.4701 56.4082C45.1997 56.5788 44.6047 56.4082 44.3176 56.2917C44.1719 56.2293 44.251 56.2917 44.1179 56.2376L43.5021 55.9754C43.3772 55.9463 43.4105 55.938 43.3065 55.9754C43.2025 56.0129 43.2066 56.0212 43.1526 56.1086C43.166 56.1713 43.1931 56.2303 43.232 56.2813C43.2708 56.3324 43.3204 56.3743 43.3772 56.404C43.6394 56.5746 44.355 56.7702 44.4757 56.9158C44.4757 56.9699 44.5048 56.9158 44.4341 56.9948C44.2753 57.0968 44.0965 57.1635 43.9098 57.1904C43.7434 57.1613 43.7933 57.0531 43.5811 57.1571C43.4396 57.2278 43.4105 57.3111 43.2815 57.3319C43.2305 57.3347 43.1801 57.3445 43.1318 57.361C43.0793 57.3834 43.0223 57.3933 42.9653 57.3901C42.5992 57.3901 42.7822 57.465 42.4952 57.4567C42.3703 57.4567 42.2705 57.4941 42.1789 57.49C42.1148 57.4832 42.0518 57.4678 41.9917 57.4442C41.8378 57.4442 41.5049 57.7146 41.817 57.9352C42.129 58.1557 42.025 57.7146 43.0985 57.7479C43.1568 57.7433 43.2153 57.753 43.269 57.7762C43.3227 57.7994 43.3698 57.8354 43.4064 57.8811C43.4355 57.9227 43.4397 57.9685 43.4688 58.0225C43.5035 58.0743 43.5424 58.123 43.5853 58.1682M43.0028 58.7756C43.1151 58.7756 43.2649 58.7756 43.4188 58.7756H43.6518C43.6946 58.7685 43.7384 58.7724 43.7792 58.7869C43.82 58.8015 43.8563 58.8262 43.8849 58.8588C43.8349 58.9462 43.8308 58.967 43.7434 58.9837H43.7059C43.4478 58.9817 43.1959 58.9036 42.982 58.759M44.0014 58.0891L44.1511 57.8478L44.5298 57.8145C44.6296 57.8145 44.8335 57.777 44.9209 57.8561C44.8709 58.0017 44.8501 57.931 44.7128 57.9892C44.5755 58.0475 44.613 58.0558 44.4715 58.0641C44.33 58.0725 44.1303 58.2555 44.0014 58.0891ZM44.3009 59.6203L44.2094 59.562L44.2427 59.4414C44.2427 59.3914 44.2718 59.3831 44.2427 59.329C44.2136 59.2749 44.147 59.2125 44.1054 59.1459C44.1776 59.0438 44.2751 58.9621 44.3883 58.9088L44.5214 58.8131C44.613 58.7424 44.6171 58.7673 44.6796 58.7007C44.7004 58.5634 44.6088 58.5426 44.6796 58.372C44.7293 58.3503 44.7834 58.3404 44.8377 58.3429L45.2995 58.2972C45.1825 58.5502 45.0188 58.7789 44.8169 58.9712C44.7295 59.0711 44.4341 59.562 44.2884 59.6203" fill="#ED6C00"/>
<path fill-rule="evenodd" clip-rule="evenodd" d="M71.1087 59.2708C71.1062 59.2641 71.1062 59.2567 71.1087 59.25L71.1878 58.7382C71.2335 58.3637 71.2668 58.5177 71.3126 58.2223C71.3833 57.8062 71.4665 57.8728 71.4749 57.6814C71.4832 57.49 71.5539 57.6023 71.6163 57.4234C71.6787 57.2445 71.5706 57.3527 71.7661 57.1904C71.8368 57.6065 71.5622 57.6606 71.7661 57.8811C71.6811 58.0366 71.6141 58.2014 71.5664 58.3721C71.5279 58.5386 71.4618 58.6975 71.3708 58.8422C71.1961 59.121 71.1836 59.0253 71.2543 59.1501C71.4749 59.1501 71.5997 58.863 71.7037 58.734C71.7037 58.7049 71.9117 58.3388 71.945 58.2722C71.9903 58.0893 72.0804 57.9206 72.2071 57.7812C72.2987 58.1099 72.0033 58.4802 72.0366 58.6134C72.0698 58.7465 72.2155 58.7673 72.2113 58.8672C72.2072 58.9671 72.2363 58.8921 72.1531 59.0003L71.8535 59.379C71.7619 59.5204 71.4083 59.7742 71.3792 59.8533C71.633 60.1612 72.4734 59.0211 72.7023 59.0211C72.7564 59.0211 72.7023 58.992 72.7938 59.0794C72.8151 59.1049 72.8333 59.1328 72.8479 59.1626C72.8805 59.2441 72.8891 59.3331 72.8729 59.4193C72.8567 59.5055 72.8163 59.5853 72.7564 59.6494C72.8604 59.741 72.7564 59.6244 72.8354 59.6993C72.9145 59.7742 72.8562 59.7992 72.9852 59.949C73.3181 59.949 73.6468 59.8575 73.5344 59.4539C73.5219 59.376 73.5024 59.2994 73.4762 59.225C73.393 59.0419 73.1724 58.8089 73.16 58.5926C73.6468 58.1765 74.1752 58.0226 73.8298 57.6897C73.7508 57.6106 73.7425 57.6481 73.6967 57.5482C73.6967 57.5191 73.6967 57.3776 73.5594 57.44C73.4221 57.5025 73.2973 57.698 73.1808 57.802C72.9644 57.9851 72.7938 58.1973 72.7647 58.2181C72.6232 58.1848 72.5858 58.1474 72.5816 57.9809L72.5275 57.2986C72.5316 57.2375 72.5171 57.1765 72.4859 57.1238C72.4547 57.0711 72.4083 57.029 72.3528 57.0032C72.1988 56.9491 72.178 57.0905 72.0407 57.0989C71.9741 56.9782 72.0407 56.9116 72.1198 56.8118C72.1988 56.7119 72.2488 56.6287 72.3029 56.5413C72.3569 56.454 72.3028 56.4706 72.3528 56.3874C72.4027 56.3042 72.4027 56.3208 72.4152 56.2542C72.4277 56.1877 72.3944 55.8964 72.1739 56.042L72.0657 56.1294C71.9873 56.1794 71.9147 56.238 71.8493 56.3042C71.7786 56.3791 71.5914 57.1571 71.375 57.3693C71.2876 57.2362 71.35 57.3693 71.35 57.2695L71.4124 56.9949C71.4799 56.755 71.5162 56.5075 71.5206 56.2584C71.5206 56.0836 71.6704 56.0545 71.5581 55.8923C71.3916 55.8382 71.3209 55.9214 71.1836 55.9339C71.0754 55.7258 71.4624 55.5677 71.0588 55.4762H70.884C70.805 55.3181 70.8383 55.2765 70.6427 55.2432C70.339 55.4096 70.5803 55.6593 70.6219 55.9047C70.651 56.0337 70.6219 55.9671 70.6011 56.0753C70.5803 56.1835 70.6427 56.0379 70.572 56.3125C70.572 56.3333 70.572 56.3624 70.5512 56.3874C70.5427 56.4167 70.5284 56.444 70.5091 56.4676C70.4898 56.4912 70.4659 56.5106 70.4388 56.5247C70.3515 56.4706 70.3847 56.4248 70.2433 56.4082C69.9687 56.3832 69.9603 56.687 69.9811 56.8659C69.9216 56.9074 69.8533 56.9345 69.7814 56.9449L69.7398 57.0739C69.6816 57.3069 69.9603 57.6439 70.1018 57.8187C70.2433 57.9934 70.21 58.0517 70.2641 58.0974C70.3486 58.1409 70.4456 58.1542 70.5387 58.1349C70.7176 58.0933 70.7134 58.0683 70.7717 57.9435C70.884 57.7313 70.9548 57.852 70.909 57.6814C70.8882 57.6065 70.7675 57.5025 70.9589 57.4733V57.5898C70.9426 57.8183 70.9078 58.0452 70.8549 58.268C70.8198 58.5416 70.7322 58.8058 70.5969 59.0461C70.5635 59.1394 70.5683 59.2421 70.6104 59.3318C70.6525 59.4214 70.7285 59.4908 70.8216 59.5246C70.9189 59.4587 71.0095 59.3835 71.0921 59.2999M70.9964 56.9283C70.9754 56.8792 70.9701 56.8249 70.9813 56.7727C70.9925 56.7206 71.0195 56.6732 71.0588 56.637C71.0887 56.684 71.0989 56.7409 71.0873 56.7954C71.0756 56.8499 71.0429 56.8977 70.9964 56.9283ZM71.8285 57.3984C71.8826 57.1446 71.7786 57.2279 72.0241 57.1114C72.0782 57.2695 72.0241 57.3111 71.945 57.4359C71.866 57.5607 71.945 57.6439 71.7786 57.7355V57.5524C71.7786 57.4525 71.8077 57.5108 71.8327 57.3984" fill="#ED6C00"/>
<path d="M57.3986 55.2099V51.2822C57.3901 51.1497 57.3318 51.0253 57.2353 50.9342C57.1387 50.8431 57.0112 50.792 56.8785 50.7912C55.5194 50.771 54.1648 50.6318 52.8301 50.3751C52.7759 50.3569 52.7175 50.3555 52.6626 50.3711C52.6076 50.3867 52.5587 50.4186 52.5222 50.4625C52.4556 50.5748 52.4847 50.6581 52.5222 50.787C52.5596 50.916 52.726 51.4777 52.726 51.4777C52.8301 51.9437 53.4542 52.0561 53.8536 52.1435L55.6303 52.5262C56.4832 52.7135 56.7204 53.3584 56.7204 54.253V55.0352C56.7204 55.7175 56.6039 56.1627 56.1503 56.1794C55.5762 56.2085 55.1559 55.6343 54.9312 55.135V55.1017C54.9312 55.056 54.8938 55.0144 54.8813 54.9728L54.3903 53.7703C54.3683 53.6965 54.3282 53.6293 54.2738 53.5748C54.2085 53.528 54.1294 53.5045 54.0492 53.5082H53.4459L54.2239 56.1919C54.3423 56.7814 54.6135 57.3295 55.0103 57.7813C55.5429 58.2847 56.4125 58.5552 57.5692 58.5552C58.7259 58.5552 59.5955 58.2847 60.128 57.7813C60.5246 57.3288 60.797 56.7811 60.9186 56.1919L61.6883 53.5082H61.0892C61.0089 53.5045 60.9298 53.528 60.8645 53.5748C60.8101 53.6293 60.77 53.6965 60.748 53.7703L60.257 54.9728L60.2071 55.1017V55.135C59.9782 55.6343 59.558 56.2085 58.9797 56.1794C58.5261 56.1794 58.4138 55.7175 58.4138 55.0352V54.253C58.4138 53.375 58.6468 52.7135 59.5081 52.5262L61.2806 52.1435C61.6758 52.0561 62.2999 51.9437 62.4081 51.4777C62.4081 51.4777 62.5746 50.9202 62.612 50.787C62.6494 50.6539 62.6786 50.5748 62.612 50.4625C62.5755 50.4186 62.5265 50.3867 62.4716 50.3711C62.4166 50.3555 62.3583 50.3569 62.3041 50.3751C60.9693 50.6315 59.6147 50.7708 58.2557 50.7912C58.1229 50.792 57.9954 50.8431 57.8989 50.9342C57.8024 51.0253 57.744 51.1497 57.7356 51.2822V55.2099C57.7356 55.2519 57.7189 55.2921 57.6893 55.3217C57.6596 55.3514 57.6194 55.368 57.5775 55.368C57.5355 55.368 57.4953 55.3514 57.4657 55.3217C57.436 55.2921 57.4194 55.2519 57.4194 55.2099" fill="#ED6C00"/>
<path d="M57.6485 35.0845C57.6485 35.0845 56.4419 35.7585 56.0092 36.6656C55.8261 37.0525 55.9301 37.3022 56.6292 36.8694C57.5565 36.2791 58.5457 35.7921 59.5791 35.4173C60.7566 35.0013 62.9077 34.4978 63.0575 34.5852C63.1241 34.6185 63.1283 34.7391 63.0034 34.8515C59.9578 37.6517 59.6291 39.732 60.4612 40.0607C61.034 40.1953 61.6344 40.1488 62.1796 39.9276C62.7891 39.6741 63.4326 39.5115 64.0894 39.4449C65.7162 39.395 66.3944 42.4781 64.6386 45.399C63.6567 47.0383 61.0354 49.1187 60.8482 49.0438C60.7649 49.0064 60.7358 48.9148 60.7733 48.765C60.8107 48.6153 61.7386 46.5973 60.9938 46.2686C60.8731 46.2145 60.5777 46.2977 60.3073 46.9551C59.9494 47.7873 59.679 47.962 59.5334 47.9246C59.3877 47.8871 59.4377 47.6541 59.4626 47.5085C59.4876 47.3629 59.5209 47.2172 59.4293 47.2755C59.3378 47.3337 58.5057 48.2741 58.2435 48.2533C58.1478 48.2533 58.0896 48.1451 58.1478 48.0036C58.2061 47.8622 58.2727 47.6749 58.2727 47.6749C57.3685 48.5179 56.2644 49.1164 55.0647 49.4141C54.8718 49.4711 54.6694 49.4881 54.4697 49.464C54.4499 49.4493 54.4338 49.4302 54.4228 49.4082C54.4117 49.3861 54.4059 49.3618 54.4059 49.3371C54.4059 49.3125 54.4117 49.2882 54.4228 49.2661C54.4338 49.2441 54.4499 49.2249 54.4697 49.2102C54.5862 49.1353 56.4544 48.17 57.2657 46.8053C57.5112 46.3892 57.5112 46.1854 57.4488 46.073C57.2866 45.7943 56.4877 46.073 55.9676 46.2936C55.2406 46.6711 54.467 46.9509 53.6667 47.1257C52.4185 47.3379 50.9622 46.9634 50.2008 46.0148C49.8401 45.5616 49.5814 45.036 49.4421 44.4738C49.3028 43.9116 49.2862 43.3261 49.3936 42.7569C49.7847 39.3409 53.0509 37.1732 54.1826 36.4742C55.5515 35.642 57.582 34.7558 57.7359 34.8099C57.815 34.8432 57.8524 34.9638 57.6402 35.0886" fill="#ED6C00"/>
<path fill-rule="evenodd" clip-rule="evenodd" d="M67.6884 59.4703C67.755 59.6284 67.834 59.6367 67.9131 59.774C67.8798 59.878 67.8215 59.9904 67.7841 60.0986C67.7258 60.2733 67.7591 60.2983 67.6052 60.4189C67.4096 60.161 67.4554 59.7116 67.3555 59.4412C67.1766 58.9377 66.6565 59.0251 66.6191 59.3579C66.5983 59.6034 66.9062 59.8156 67.0976 60.344C67.2224 60.6352 67.2387 60.9615 67.1433 61.2636C66.9644 61.7587 66.3944 62.1706 65.9866 62.5118C65.5165 62.8863 65.9866 63.1734 66.2779 63.061C66.4594 62.9803 66.6202 62.8593 66.7481 62.7074C66.9603 62.4868 67.3222 61.8253 67.4429 61.9501C67.5636 62.0749 67.3888 61.8378 67.472 61.9834C67.5095 62.0458 67.472 62.1248 67.4928 62.1997C67.4914 62.3879 67.435 62.5716 67.3306 62.7282L66.411 63.7101C66.2987 63.8016 66.1905 63.8474 66.178 63.9473C66.2238 63.9473 66.178 63.9473 66.2405 63.9223L66.2862 63.889C66.4323 63.7648 66.6187 63.6982 66.8105 63.7018C66.9922 63.6646 67.1642 63.5899 67.3154 63.4825C67.4666 63.375 67.5936 63.2371 67.6884 63.0777C68.1877 62.3911 68.0213 62.1831 67.9297 61.5673C67.9046 61.4298 67.9046 61.2888 67.9297 61.1512L68.4498 60.0819C68.5954 59.7574 68.816 59.5826 68.4498 59.3704C68.3949 59.3353 68.3333 59.3116 68.269 59.3009C68.2046 59.2901 68.1387 59.2926 68.0754 59.308C67.9406 59.356 67.8099 59.4144 67.6842 59.4828" fill="#ED6C00"/>
<path fill-rule="evenodd" clip-rule="evenodd" d="M68.5494 61.2681C68.4953 61.2889 68.5993 61.2223 68.4662 61.2972C68.4404 61.3104 68.4166 61.3272 68.3955 61.3471C68.3479 61.3898 68.3035 61.4356 68.2623 61.4844C67.5799 62.2625 68.7283 61.9921 69.2193 62.0461C69.2775 62.0461 69.3108 62.0461 69.3691 62.0461C69.9224 62.0919 69.9349 62.2334 70.0514 61.7882C70.1222 61.5177 69.7976 61.2723 69.7394 61.2223C69.4814 60.9935 69.5854 60.8728 69.1735 60.9643C69.0646 61.0015 68.9588 61.0474 68.8573 61.1017C68.5411 61.214 68.695 61.214 68.5494 61.2639" fill="#ED6C00"/>
<path d="M60.3823 64.1846C60.4034 64.1598 60.4202 64.1317 60.4322 64.1014C60.4821 63.9433 60.6943 63.8268 60.8067 63.5813C60.8067 63.5605 60.8483 63.5189 60.8067 63.5189C60.765 63.5189 60.3906 63.8809 60.3906 63.8975L60.349 63.9308C60.3435 63.8247 60.331 63.7191 60.3115 63.6146V63.5314C60.3115 63.5106 60.3115 63.5022 60.3365 63.4898C60.3365 63.4898 60.3365 63.4898 60.3573 63.469C60.3723 63.4516 60.3907 63.4374 60.4114 63.4274L60.4655 63.3982L60.5362 63.3649L60.6153 63.3316C60.9606 63.0945 60.6735 63.0279 60.6693 63.0279C60.5382 63.0084 60.4043 63.0257 60.2824 63.0778C60.2824 63.0778 60.2366 63.0362 60.2366 63.0154C60.2343 63.0017 60.2343 62.9876 60.2366 62.9738C60.2366 62.9738 60.2366 62.6909 60.2158 62.6618V62.5369C60.2189 62.5327 60.2205 62.5276 60.2205 62.5224C60.2205 62.5172 60.2189 62.5121 60.2158 62.5078C60.2158 62.3747 60.2158 62.3164 60.0868 62.2499C59.9952 62.2062 59.895 62.1836 59.7935 62.1836C59.692 62.1836 59.5918 62.2062 59.5002 62.2499C59.4045 62.3206 59.4045 62.383 59.4502 62.4912V62.5161L59.4752 62.5619L59.6208 63.236C59.6208 63.236 59.6208 63.236 59.6208 63.2609C59.6186 63.2803 59.6186 63.2998 59.6208 63.3192C59.6188 63.3524 59.6188 63.3858 59.6208 63.419C59.6247 63.4312 59.6247 63.4443 59.6208 63.4565C59.5179 63.5355 59.411 63.6091 59.3005 63.677C59.2339 63.7228 59.1923 63.7935 59.134 63.8393C59.0684 63.8748 59.0003 63.9053 58.9301 63.9308C58.9301 63.9308 58.8885 63.9308 58.8761 63.9682L58.8428 63.9974C58.8428 63.9974 58.8428 64.0431 58.8428 64.0473C58.926 64.0473 58.9177 64.2761 59.03 64.2637L59.1174 64.2928H59.184C59.2596 64.2408 59.3306 64.1823 59.3961 64.118C59.4766 64.0438 59.5678 63.9821 59.6666 63.935C59.6698 63.9368 59.6734 63.9377 59.677 63.9377C59.6807 63.9377 59.6842 63.9368 59.6874 63.935L59.7207 63.9142C59.7207 63.9142 59.7207 63.9641 59.7207 63.9891C59.7207 64.014 59.7706 64.3469 59.7665 64.376C59.7623 64.4051 59.7665 64.4093 59.7665 64.4259C59.7684 64.4305 59.7694 64.4355 59.7694 64.4405C59.7694 64.4455 59.7684 64.4504 59.7665 64.4551L59.7415 64.4842L59.1756 65.1957C59.1675 65.2073 59.1558 65.2161 59.1423 65.2206C59.1423 65.2206 59.1215 65.2539 59.1091 65.2622C59.1091 65.2622 59.1091 65.2622 59.0841 65.283C59.036 65.3437 59.0032 65.4151 58.9884 65.4911C58.9884 65.5618 59.0674 65.6076 59.0841 65.6825C59.0948 65.7225 59.1198 65.7572 59.1542 65.7801C59.1887 65.8031 59.2303 65.8128 59.2713 65.8073C59.33 65.7988 59.3842 65.771 59.4253 65.7282C59.4253 65.7282 59.6125 65.2664 59.6167 65.2539C59.7229 65.3193 59.8161 65.404 59.8913 65.5036C59.9208 65.5391 59.9427 65.5804 59.9555 65.6248C59.9684 65.6691 59.9721 65.7157 59.9662 65.7615C59.9608 65.7939 59.9624 65.827 59.971 65.8587C59.9795 65.8903 59.9948 65.9197 60.0157 65.945C60.0366 65.9702 60.0627 65.9907 60.0922 66.005C60.1217 66.0193 60.1539 66.0271 60.1867 66.0278C60.3906 66.0278 60.6028 65.7283 60.5487 65.3954C60.5275 65.2886 60.5177 65.1798 60.5196 65.0709C60.5216 65.0432 60.5216 65.0153 60.5196 64.9876V64.9502C60.5216 64.9183 60.5216 64.8864 60.5196 64.8545C60.5196 64.8545 60.4322 64.2137 60.428 64.2054C60.4303 64.1916 60.4303 64.1776 60.428 64.1638M60.0119 65.179C60.0099 65.2164 60.0099 65.254 60.0119 65.2914C59.9158 65.2343 59.8122 65.1909 59.7041 65.1624C59.7041 65.1624 59.9329 64.7463 59.9412 64.7255C59.9412 64.7255 60.0119 65.1665 60.0078 65.1915" fill="#ED6C00"/>
<path d="M62.0255 64.5298C62.0255 64.5298 62.1628 64.9459 62.167 64.9459C62.1711 64.9459 62.3126 65.0208 62.3168 65.0208H62.3584H62.3916C62.4012 65.0231 62.4112 65.0231 62.4208 65.0208C62.4208 65.0208 62.7786 65.1706 63.0199 65.2372C63.1473 65.2735 63.2786 65.2944 63.411 65.2996H63.4651C63.4709 65.2967 63.4773 65.2951 63.4838 65.2951C63.4903 65.2951 63.4968 65.2967 63.5026 65.2996C63.5234 65.2996 63.6898 65.2996 63.6981 65.1873C63.6981 65.1873 63.6981 65.1623 63.7272 65.1498C63.7423 65.0811 63.7725 65.0167 63.8157 64.9613C63.8589 64.9058 63.914 64.8608 63.9769 64.8294C64.0892 64.7628 64.2432 64.7171 64.2265 64.6672C64.16 64.43 63.4152 64.4841 63.3944 64.4882L62.3625 64.4092L61.9839 64.4758" fill="#ED6C00"/>
<path d="M62.9575 64.6214L63.1864 64.5798C62.9604 64.5632 62.7362 64.527 62.5165 64.4717C62.5165 64.4717 62.8993 63.731 62.9035 63.731C62.921 63.7007 62.9302 63.6662 62.9302 63.6312C62.9302 63.5961 62.921 63.5617 62.9035 63.5313C62.8816 63.4788 62.8425 63.4353 62.7925 63.4081C62.7426 63.3809 62.6848 63.3715 62.6288 63.3815C62.6288 63.3815 62.2918 63.5272 62.2669 63.5438H62.2003H62.1753H62.1545C62.1539 63.5355 62.1539 63.5272 62.1545 63.5188C62.1545 63.5188 62.1212 63.2858 62.1212 63.265C62.1 63.2016 62.1 63.1329 62.1212 63.0695C62.39 62.9142 62.6679 62.7753 62.9534 62.6534C63.1656 62.4329 63.0199 62.3788 62.9118 62.1999C62.8743 62.1291 62.7453 62.15 62.4957 62.1999C62.4582 62.1999 62.0796 62.383 62.0796 62.3871V62.3622C62.0796 62.3622 62.013 61.9461 62.0006 61.9253C61.9881 61.9045 61.9465 61.8046 61.7468 61.7921C61.69 61.788 61.633 61.788 61.5762 61.7921C61.5346 61.7921 61.4472 61.8504 61.4139 61.8545C61.3932 61.8627 61.3744 61.875 61.3586 61.8908C61.3429 61.9065 61.3305 61.9254 61.3224 61.9461C61.3224 61.9461 61.3224 61.9461 61.3224 61.971C61.3224 61.996 61.3224 61.971 61.3224 61.9918C61.3362 61.9977 61.348 62.0076 61.3561 62.0202C61.3643 62.0328 61.3685 62.0476 61.3681 62.0626C61.3681 62.0959 61.4638 62.7283 61.4638 62.7533C61.4702 62.7834 61.4702 62.8146 61.4638 62.8448C61.4638 62.8656 61.4638 62.8781 61.4638 62.8947C61.468 62.9054 61.468 62.9173 61.4638 62.928H61.443C61.443 62.928 61.0477 63.315 61.0269 63.3441H60.9978H60.9479C60.8647 63.3649 60.848 63.4731 60.8439 63.4814C60.8408 63.4856 60.8392 63.4907 60.8392 63.496C60.8392 63.5012 60.8408 63.5063 60.8439 63.5105V63.5521C60.8439 63.5521 60.8855 63.6853 60.9687 63.6561C61.1185 63.6104 61.1642 63.7144 61.2558 63.6353C61.3041 63.5846 61.3486 63.5303 61.3889 63.4731C61.4139 63.4481 61.4721 63.3607 61.4971 63.3399C61.4971 63.3399 61.5387 63.6853 61.5429 63.6936C61.547 63.7019 61.5429 63.7144 61.5429 63.8018C61.5429 64.0597 60.9562 64.2387 60.9271 64.2428C60.898 64.247 60.848 64.2636 60.9645 64.3302C61.0955 64.4004 61.2355 64.4522 61.3806 64.4841C61.4728 64.5094 61.562 64.5443 61.6469 64.5882C61.6469 64.5882 61.6719 64.5882 61.6843 64.5882V64.609V64.6339C61.6428 64.6897 61.5905 64.7365 61.5304 64.7716C61.4703 64.8066 61.4038 64.8291 61.3348 64.8378H61.3099C61.2849 64.8378 60.4777 64.7629 60.4777 64.7629C60.4528 64.7652 60.4277 64.7652 60.4028 64.7629V64.8378L60.4777 64.8586C60.4985 64.8586 60.8272 64.9501 60.848 64.946C60.848 64.946 61.2641 65.1041 61.2641 65.1083C61.2641 65.1083 61.2849 65.1083 61.2932 65.1083C61.3015 65.1083 61.2683 65.1083 61.2599 65.1083C61.2323 65.106 61.2044 65.106 61.1767 65.1083C61.1767 65.1083 61.1975 65.1083 61.2059 65.1291H61.2308L61.3723 65.2123H61.4513C61.465 65.2086 61.4793 65.2086 61.4929 65.2123C61.4929 65.2123 61.5138 65.2331 61.5221 65.2123C61.576 65.2354 61.6345 65.2456 61.6931 65.242C61.7516 65.2384 61.8085 65.2211 61.8591 65.1915C61.9402 65.1297 62.0094 65.0535 62.063 64.9668C62.063 64.9668 62.1795 64.7421 62.192 64.7338C62.2055 64.7377 62.22 64.7377 62.2336 64.7338C62.2336 64.7338 63.0324 64.7796 63.099 64.7962L62.9575 64.6214ZM62.013 64.2761L61.9173 64.4009C61.832 64.4162 61.7447 64.4162 61.6594 64.4009C61.6594 64.4009 61.5096 64.3718 61.5429 64.3427C61.7335 64.2185 61.9323 64.1073 62.1379 64.0098C62.1711 64.0098 62.1171 64.143 62.013 64.2927" fill="#ED6C00"/>
<path fill-rule="evenodd" clip-rule="evenodd" d="M56.425 63.0404C56.4162 63.0115 56.3982 62.9862 56.3739 62.9682C56.3495 62.9502 56.3201 62.9405 56.2898 62.9405C56.2595 62.9405 56.2301 62.9502 56.2058 62.9682C56.1814 62.9862 56.1635 63.0115 56.1546 63.0404C56.088 63.2276 56.1837 63.1985 55.9965 63.3358C55.9209 63.4064 55.8417 63.473 55.7593 63.5355C55.6524 63.5882 55.5507 63.6509 55.4556 63.7228C55.4473 63.5323 55.4844 63.3427 55.5638 63.1694C55.7843 62.8823 55.6595 63.1153 55.8342 62.7533C55.9446 62.526 56.0136 62.2808 56.0381 62.0293C56.0381 61.8587 56.0963 61.7256 56.1005 61.5925C56.1005 61.3844 55.9299 60.9808 55.7676 60.9351C55.734 61.1665 55.7173 61.4002 55.7177 61.6341C55.6919 61.8509 55.6544 62.0662 55.6054 62.279C55.5284 62.6032 55.4139 62.9174 55.2642 63.2151C55.2059 63.2984 55.2184 63.2817 55.1602 63.2942C55.0478 63.0737 55.2351 63.0362 55.3224 62.9239C55.4098 62.8116 55.3224 62.6285 55.1726 62.5952C55.1106 62.5767 55.0439 62.5808 54.9845 62.6066C54.9252 62.6325 54.8768 62.6786 54.8481 62.7367C54.7754 62.8276 54.6899 62.9075 54.5943 62.9738C54.4736 63.0737 54.4695 63.1902 54.3114 63.1902C54.2614 63.0945 54.3114 63.1319 54.2282 62.953C54.1824 62.849 54.2282 62.824 54.2614 62.7075C54.2947 62.591 54.2614 62.5994 54.2614 62.4662C54.2614 62.3331 54.2614 62.2499 54.2614 62.1542L54.2198 62.0335C54.1933 61.9747 54.1535 61.9228 54.1034 61.8821C54.0534 61.8413 53.9946 61.8127 53.9317 61.7986C53.8687 61.7845 53.8033 61.7852 53.7407 61.8007C53.6781 61.8162 53.6199 61.846 53.5708 61.8879L53.5125 61.942C53.4626 61.9794 53.5125 61.942 53.4501 61.9877C53.1963 62.2207 53.163 62.4038 52.9924 62.5203C52.8282 62.6843 52.6546 62.8385 52.4723 62.9821C52.3683 63.0654 52.1561 63.2068 52.1187 63.3108C52.2185 63.3108 52.1811 63.2859 52.2684 63.2776C52.4515 63.2568 52.3433 63.2984 52.4016 63.3275L52.7428 63.3608C52.9342 63.3608 53.1588 63.211 53.2795 63.211C53.2854 63.2136 53.2918 63.215 53.2982 63.215C53.3047 63.215 53.3111 63.2136 53.317 63.211C53.3263 63.2204 53.3377 63.2275 53.3502 63.2318C53.0174 63.444 53.2878 63.4024 52.9633 63.5771C52.8052 63.6603 52.8343 63.6187 52.6928 63.6104C52.5234 63.6669 52.3602 63.7408 52.206 63.8309C52.0351 63.9117 51.8567 63.9758 51.6735 64.0223C51.4945 64.0223 51.4779 63.989 51.3572 63.9474C51.0369 64.1971 51.2366 64.4342 51.3572 64.4634C51.6651 64.5341 52.335 64.1846 52.6055 64.0723C52.7012 64.0307 52.7969 63.9682 52.8759 63.935C53.084 63.8476 53.084 63.8601 53.1422 63.9058C53.0466 64.0742 52.9259 64.2272 52.7844 64.3594C52.672 64.4259 52.6471 64.4259 52.5805 64.5674C52.5183 64.6669 52.4878 64.783 52.4931 64.9003C52.5615 64.9935 52.6625 65.0574 52.7761 65.0792C52.9675 65.0792 52.9466 64.9668 53.0881 64.9252C53.1464 65.05 53.138 65.2082 53.2046 65.3039C53.2518 65.3563 53.3171 65.3888 53.3874 65.395C53.4576 65.4012 53.5276 65.3805 53.5832 65.3371L54.0368 64.118C54.0825 64.0431 54.0368 64.1638 54.0825 64.0223C54.1574 63.7394 54.2406 63.756 54.4986 63.4773C54.561 63.4107 54.7025 63.2692 54.8315 63.2817C54.8315 63.5522 54.6442 63.6437 54.5693 63.9142C54.4944 64.1846 54.2698 64.0681 54.3031 64.5341C54.5069 64.6132 54.4986 64.6673 54.665 64.5341C54.7117 64.4827 54.769 64.4419 54.8329 64.4146C54.8968 64.3873 54.9659 64.3741 55.0353 64.376C55.0193 64.7392 54.9449 65.0975 54.8148 65.437C54.6983 65.8531 54.8814 65.5119 54.586 66.1194C54.4196 66.4647 54.3863 66.5687 54.586 66.6977C54.7108 66.7768 55.0229 66.835 55.0686 66.4065L55.1269 65.5327C55.3039 65.1722 55.4004 64.7775 55.4098 64.376C55.389 64.0556 55.6137 64.0182 55.984 63.8143C56.2877 63.6479 56.6248 63.3982 56.4292 63.0612M54.9854 63.9225C54.9758 63.9001 54.9708 63.8761 54.9708 63.8517C54.9708 63.8274 54.9758 63.8034 54.9854 63.781C55.0145 63.7103 55.0395 63.7103 55.1227 63.7061C55.0936 63.8101 55.1019 63.9183 54.9937 63.9225" fill="#ED6C00"/>
<path fill-rule="evenodd" clip-rule="evenodd" d="M50.6584 61.7962C50.4712 61.4093 50.0842 61.3801 49.7306 61.1846C49.56 61.1014 49.6224 61.0681 49.4809 61.0265C49.3965 61.0185 49.3115 61.0185 49.2271 61.0265C48.7152 60.9356 48.2115 60.8035 47.7209 60.6312C47.3679 60.5209 47.0059 60.4415 46.6391 60.394C46.577 60.4049 46.5168 60.4245 46.4602 60.4523C46.3895 60.5106 46.4602 60.7019 46.4602 60.7019C46.7355 60.8699 47.0407 60.9829 47.3589 61.0348L48.2618 61.222C48.4116 61.2678 48.4199 61.222 48.5364 61.222C48.6375 61.2302 48.7377 61.2469 48.836 61.272C48.7486 61.4051 48.6737 61.3885 48.5489 61.4259C48.4241 61.4634 48.3533 61.5008 48.2327 61.5383L47.7251 61.584C47.69 61.5795 47.6552 61.5725 47.6211 61.5632C47.5046 61.5632 47.6002 61.5632 47.5212 61.5632C47.3173 61.5632 47.0718 61.5923 46.8263 61.5632C46.3645 61.5341 46.4103 61.3968 46.2646 61.8586C46.9761 62.5784 47.0053 62.1083 47.3048 62.3122C47.334 62.4869 47.2008 62.3954 47.3797 62.7615C47.5961 63.2026 47.8374 63.0361 48.2743 62.982C48.4332 62.9573 48.5867 62.9052 48.7278 62.8281C49.1772 62.6367 49.6182 62.645 49.743 62.2373C49.793 62.0875 49.7971 62.1208 49.743 61.9959C49.689 61.8711 49.56 61.6464 49.5891 61.5466C50.155 61.6631 50.4545 62.3413 50.6875 61.7837M49.0232 62.0542L48.9192 62.1166C48.811 62.1873 48.8984 62.154 48.7694 62.1915H48.7445C48.5531 62.2414 48.6072 62.308 48.3284 62.2997C48.2327 62.2997 48.2077 62.2997 48.0704 62.1873L48.0288 62.1457C48.1786 61.9668 48.1037 62.1749 48.6113 62.0916C48.7611 62.0708 48.7403 62.0375 48.8818 61.9918C49.1647 61.8961 48.9858 61.8794 49.1522 61.9002C49.1522 62.0084 49.1231 62.0043 49.044 62.05" fill="#ED6C00"/>
<path fill-rule="evenodd" clip-rule="evenodd" d="M48.8152 59.9489C48.8019 60.0371 48.8145 60.1273 48.8515 60.2085C48.8884 60.2898 48.948 60.3585 49.0232 60.4066C49.3103 60.6646 49.6224 61.1514 49.8928 61.1056C49.9882 61.0861 50.0738 61.0339 50.1346 60.9578C50.1954 60.8818 50.2276 60.7869 50.2257 60.6895C50.2197 60.5223 50.1756 60.3586 50.0967 60.211C50.0343 60.0113 49.8886 59.9489 49.7305 59.795C49.4434 59.5203 49.2354 59.4538 48.9566 59.6701L48.8152 59.9489Z" fill="#ED6C00"/>
</g>
<defs>
<clipPath id="clip0_12232_17055">
<rect width="174.968" height="44" fill="white" transform="translate(36 24)"/>
</clipPath>
</defs>
</svg>
