<?xml version="1.0" encoding="UTF-8" standalone="no"?>
<svg
   xmlns:dc="http://purl.org/dc/elements/1.1/"
   xmlns:cc="http://creativecommons.org/ns#"
   xmlns:rdf="http://www.w3.org/1999/02/22-rdf-syntax-ns#"
   xmlns:svg="http://www.w3.org/2000/svg"
   xmlns="http://www.w3.org/2000/svg"
   xmlns:sodipodi="http://sodipodi.sourceforge.net/DTD/sodipodi-0.dtd"
   xmlns:inkscape="http://www.inkscape.org/namespaces/inkscape"
   width="1000"
   height="252.021"
   viewBox="0 0 1000 252.021"
   fill="none"
   version="1.1"
   id="svg28">
  <metadata
     id="metadata116">
    <rdf:RDF>
      <cc:Work
         rdf:about="">
        <dc:format>image/svg+xml</dc:format>
        <dc:type
           rdf:resource="http://purl.org/dc/dcmitype/StillImage" />
        <dc:title></dc:title>
      </cc:Work>
    </rdf:RDF>
  </metadata>
  <defs
     id="defs28" />
  <sodipodi:namedview
     id="namedview28"
     pagecolor="#ffffff"
     bordercolor="#666666"
     borderopacity="1"
     inkscape:showpageshadow="true"
     inkscape:pageopacity="0"
     inkscape:pagecheckerboard="0"
     inkscape:deskcolor="#d1d1d1"
     inkscape:zoom="1.23"
     inkscape:cx="508.90621"
     inkscape:cy="152.34976"
     inkscape:window-width="1920"
     inkscape:window-height="1009"
     inkscape:window-x="-8"
     inkscape:window-y="-8"
     inkscape:window-maximized="1"
     inkscape:current-layer="svg28"
     inkscape:document-rotation="0"
     showgrid="false" />
  <path
     d="m 261.33887,64.278587 c -4.90288,-9.1782 -12.05188,-16.327523 -21.23072,-21.254858 -9.22608,-4.927227 -18.3083,-7.439147 -42.38894,-7.439147 h -2.89826 l 9.99896,-11.665965 c 5.2179,-6.06248 4.49334,-15.2648757 -1.56988,-20.4578077 -5.96556,-5.120487 -15.07088,-4.492477 -20.45784,1.569978 L 156.58616,35.608735 h -44.0796 L 86.155,4.8616923 c -5.21717,-5.893378 -14.32302,-6.521338 -20.28889,-1.37671 -6.06248,5.217096 -6.76289,14.3953057 -1.56988,20.4577867 l 9.99947,11.665966 h -3.23658 c -23.71858,0 -32.99338,2.51192 -41.85771,7.173475 l -0.53134,0.289825 C 19.49176,47.975216 12.34233,55.124539 7.43923,64.326891 2.51195,73.553395 0,82.659139 0,106.73947 v 74.87557 c 0.0483,23.23531 2.56027,32.38895 7.14941,41.18134 l 0.28982,0.53135 c 4.9031,9.17778 12.05253,16.32679 21.23084,21.25486 l 0.82117,0.43474 c 8.76771,4.54058 17.97007,7.00409 41.56788,7.00409 h 127.33635 c 23.21116,-0.0483 32.36584,-2.5601 41.1572,-7.14901 l 0.53134,-0.28982 c 9.17882,-4.90392 16.32784,-12.05293 21.2307,-21.25486 4.92808,-9.22714 7.43988,-18.33246 7.43988,-42.41309 v -74.17517 c 0,-23.742096 -2.5118,-33.01701 -7.15006,-41.881233 z m -22.1968,42.412583 v 74.51329 c 0,9.22607 -0.43472,15.9414 -1.28006,20.53029 l -0.0483,0.28983 c -0.55549,2.84994 -1.18344,4.61304 -2.60842,7.29392 -2.12538,3.98508 -5.09608,6.95578 -9.08222,9.08116 -2.65672,1.42601 -4.41982,2.05398 -7.26976,2.60948 -4.6372,0.89362 -11.56884,1.32835 -21.1341,1.32835 H 70.74514 c -9.22661,0 -15.9412,-0.43473 -20.50614,-1.28005 l -0.28993,-0.0483 c -2.85005,-0.5555 -4.61325,-1.18347 -7.27009,-2.60948 -3.98529,-2.12538 -6.9562,-5.09608 -9.08169,-9.08116 -1.42507,-2.65672 -2.05303,-4.41982 -2.60853,-7.29392 C 30.14334,197.6289 29.7086,191.2517 29.6603,182.50866 v -76.15562 c 0,-9.226085 0.43483,-15.940672 1.28016,-20.529773 l 0.0483,-0.289824 c 0.55549,-2.850152 1.18346,-4.637403 2.60853,-7.294339 2.12549,-3.985194 5.0964,-6.956107 9.08169,-9.081592 2.65683,-1.424971 4.42003,-2.053029 7.27009,-2.608527 4.37184,-0.845322 10.74829,-1.280164 19.49176,-1.328468 h 1.30431 127.31219 c 9.22714,0 15.9414,0.434842 20.50614,1.280164 l 0.28984,0.0483 c 2.84994,0.555498 4.61304,1.183556 7.26976,2.608526 3.98614,2.125486 6.95684,5.096398 9.08222,9.081592 1.42498,2.656936 2.05292,4.420036 2.60842,7.29434 0.89364,4.661556 1.32836,11.569358 1.32836,21.157731 z"
     fill="#06b6f2"
     id="path1" />
  <path
     d="m 521.75786,105.99076 h -20.72353 c -4.00924,0 -7.24666,3.23637 -7.24666,7.24561 v 113.52095 c 0,4.00926 3.23742,7.24562 7.24666,7.24562 h 20.72353 c 4.00924,0 7.24561,-3.23636 7.24561,-7.24562 V 113.23637 c 0,-3.98508 -3.23637,-7.24561 -7.24561,-7.24561 z"
     fill="#06b6f2"
     id="path2" />
  <path
     d="m 521.75786,53.578598 h -20.72353 c -4.00924,0 -7.24666,3.236585 -7.24666,7.246035 V 81.54804 c 0,4.009452 3.23742,7.246035 7.24666,7.246035 h 20.72353 c 4.00924,0 7.24561,-3.236583 7.24561,-7.246035 V 60.824633 c 0,-4.00945 -3.23637,-7.246035 -7.24561,-7.246035 z"
     fill="#06b6f2"
     id="path3" />
  <path
     d="m 642.52861,105.99076 h -20.72352 c -4.01028,0 -7.24666,3.23637 -7.24666,7.24561 v 113.52095 c 0,4.00926 3.23638,7.24562 7.24666,7.24562 h 20.72352 c 4.00924,0 7.24563,-3.23636 7.24563,-7.24562 V 113.23637 c 0,-3.98508 -3.23639,-7.24561 -7.24563,-7.24561 z"
     fill="#06b6f2"
     id="path4" />
  <path
     d="m 642.52861,53.578598 h -20.72352 c -4.01028,0 -7.24666,3.236585 -7.24666,7.246035 V 81.54804 c 0,4.009452 3.23638,7.246035 7.24666,7.246035 h 20.72352 c 4.00924,0 7.24563,-3.236583 7.24563,-7.246035 V 60.824633 c 0,-4.00945 -3.23639,-7.246035 -7.24563,-7.246035 z"
     fill="#06b6f2"
     id="path5" />
  <path
     d="m 582.14848,53.578598 h -20.7235 c -4.01029,0 -7.24668,3.236585 -7.24668,7.246035 V 226.75732 c 0,4.00926 3.23639,7.24562 7.24668,7.24562 h 20.7235 c 4.00925,0 7.24562,-3.23636 7.24562,-7.24562 V 60.824633 c 0,-4.00945 -3.23637,-7.246035 -7.24562,-7.246035 z"
     fill="#06b6f2"
     id="path6" />
  <path
     d="M 871.98362,105.99076 H 851.2601 c -4.00924,0 -7.24561,3.23637 -7.24561,7.24561 v 113.52095 c 0,4.00926 3.23637,7.24562 7.24561,7.24562 h 20.72352 c 4.01028,0 7.24666,-3.23636 7.24666,-7.24562 V 113.23637 c 0,-3.98508 -3.23638,-7.24561 -7.24666,-7.24561 z"
     fill="#06b6f2"
     id="path7" />
  <path
     d="M 871.98362,53.578598 H 851.2601 c -4.00924,0 -7.24561,3.236585 -7.24561,7.246035 V 81.54804 c 0,4.009452 3.23637,7.246035 7.24561,7.246035 h 20.72352 c 4.01028,0 7.24666,-3.236583 7.24666,-7.246035 V 60.824633 c 0,-4.00945 -3.23638,-7.246035 -7.24666,-7.246035 z"
     fill="#06b6f2"
     id="path8" />
  <path
     d="m 992.75439,105.99076 h -20.72351 c -4.00925,0 -7.24562,3.23637 -7.24562,7.24561 v 113.52095 c 0,4.00926 3.23637,7.24562 7.24562,7.24562 h 20.72351 c 4.00924,0 7.24561,-3.23636 7.24561,-7.24562 V 113.23637 c 0,-3.98508 -3.23637,-7.24561 -7.24561,-7.24561 z"
     fill="#06b6f2"
     id="path9" />
  <path
     d="m 992.75439,53.578598 h -20.72351 c -4.00925,0 -7.24562,3.236585 -7.24562,7.246035 V 81.54804 c 0,4.009452 3.23637,7.246035 7.24562,7.246035 h 20.72351 c 4.00924,0 7.24561,-3.236583 7.24561,-7.246035 V 60.824633 c 0,-4.00945 -3.23637,-7.246035 -7.24561,-7.246035 z"
     fill="#06b6f2"
     id="path10" />
  <path
     d="m 932.369,53.578598 h -20.72352 c -4.00923,0 -7.2456,3.236585 -7.2456,7.246035 V 226.75732 c 0,4.00926 3.23637,7.24562 7.2456,7.24562 H 932.369 c 4.00924,0 7.24667,-3.23636 7.24667,-7.24562 V 60.824633 c 0,-4.00945 -3.23743,-7.246035 -7.24667,-7.246035 z"
     fill="#06b6f2"
     id="path11" />
  <path
     d="m 453.74882,136.71428 c 8.09093,-8.96147 11.49638,-18.74305 11.49638,-29.75744 0,-29.418146 -23.93574,-53.378242 -53.37919,-53.378242 h -51.42182 -28.40492 -0.0966 c -4.00924,0 -7.24562,3.236585 -7.24562,7.246035 V 226.75732 c 0,4.00926 3.23638,7.24562 7.24562,7.24562 h 0.62796 27.87356 65.43105 c 29.4193,0 53.3792,-23.93572 53.3792,-53.37814 0,-18.18754 -10.16909,-35.98866 -25.50562,-43.91052 z M 411.86601,86.66859 c 11.18345,0 20.28878,9.105744 20.28878,20.28825 0,11.18345 -9.10533,20.28878 -20.28878,20.28878 H 360.44419 V 86.66859 Z m 14.0334,114.245 h -65.43106 v -40.57756 h 65.43106 c 11.18343,0 20.28877,9.10533 20.28877,20.28877 -0.0241,11.20655 -9.10534,20.28879 -20.28877,20.28879 z"
     fill="#06b6f2"
     id="path12" />
  <path
     d="m 803.96935,136.71428 c 8.09198,-8.96147 11.49742,-18.74305 11.49742,-29.75744 0,-29.418146 -23.93575,-53.378242 -53.37921,-53.378242 h -51.42285 -28.40386 -0.0966 c -4.00924,0 -7.24562,3.236585 -7.24562,7.246035 V 226.75732 c 0,4.00926 3.23638,7.24562 7.24562,7.24562 h 0.62794 27.87253 65.43211 c 29.41824,0 53.37814,-23.93572 53.37814,-53.37814 0,-18.18754 -10.16802,-35.98866 -25.50561,-43.91052 z M 762.08756,86.66859 c 11.18347,0 20.28879,9.105744 20.28879,20.28825 0,11.18345 -9.10532,20.28878 -20.28879,20.28878 H 710.66471 V 86.66859 Z m 14.03341,114.245 h -65.43212 v -40.57756 h 65.43212 c 11.1824,0 20.28878,9.10533 20.28878,20.28877 -0.0242,11.20655 -9.10638,20.28879 -20.28878,20.28879 z"
     fill="#06b6f2"
     id="path13" />
  <path
     d="m 86.94781,106.28058 c 10.67574,0 19.32228,8.64644 19.32228,19.3227 v 36.22911 c 0,10.67626 -8.64654,19.32271 -19.32228,19.32271 -10.67573,0 -19.32269,-8.64645 -19.32269,-19.32271 v -36.22911 c 0,-10.67626 8.64696,-19.3227 19.32269,-19.3227 z"
     fill="#06b6f2"
     id="path14" />
  <path
     d="m 183.56295,106.28058 c 10.67626,0 19.3227,8.64644 19.3227,19.3227 v 36.22911 c 0,10.67626 -8.64644,19.32271 -19.3227,19.32271 -10.6752,0 -19.3227,-8.64645 -19.3227,-19.32271 v -36.22911 c 0,-10.67626 8.6475,-19.3227 19.3227,-19.3227 z"
     fill="#06b6f2"
     id="path15" />
  <path
     d="m 261.33887,64.278587 c -4.90288,-9.1782 -12.05188,-16.327523 -21.23072,-21.254858 -9.22608,-4.927227 -18.3083,-7.439147 -42.38894,-7.439147 h -2.89826 l 9.99896,-11.665965 c 5.2179,-6.06248 4.49334,-15.2648757 -1.56988,-20.4578077 -5.96556,-5.120487 -15.07088,-4.492477 -20.45784,1.569978 L 156.58616,35.608735 h -44.0796 L 86.155,4.8616923 c -5.21717,-5.893378 -14.32302,-6.521338 -20.28889,-1.37671 -6.06248,5.217096 -6.76289,14.3953057 -1.56988,20.4577867 l 9.99947,11.665966 h -3.23658 c -23.71858,0 -32.99338,2.51192 -41.85771,7.173475 l -0.53134,0.289825 C 19.49176,47.975216 12.34233,55.124539 7.43923,64.326891 2.51195,73.553395 0,82.659139 0,106.73947 v 74.87557 c 0.0483,23.23531 2.56027,32.38895 7.14941,41.18134 l 0.28982,0.53135 c 4.9031,9.17778 12.05253,16.32679 21.23084,21.25486 l 0.82117,0.43474 c 8.76771,4.54058 17.97007,7.00409 41.56788,7.00409 h 127.33635 c 23.21116,-0.0483 32.36584,-2.5601 41.1572,-7.14901 l 0.53134,-0.28982 c 9.17882,-4.90392 16.32784,-12.05293 21.2307,-21.25486 4.92808,-9.22714 7.43988,-18.33246 7.43988,-42.41309 v -74.17517 c 0,-23.742096 -2.5118,-33.01701 -7.15006,-41.881233 z m -22.1968,42.412583 v 74.51329 c 0,9.22607 -0.43472,15.9414 -1.28006,20.53029 l -0.0483,0.28983 c -0.55549,2.84994 -1.18344,4.61304 -2.60842,7.29392 -2.12538,3.98508 -5.09608,6.95578 -9.08222,9.08116 -2.65672,1.42601 -4.41982,2.05398 -7.26976,2.60948 -4.6372,0.89362 -11.56884,1.32835 -21.1341,1.32835 H 70.74514 c -9.22661,0 -15.9412,-0.43473 -20.50614,-1.28005 l -0.28993,-0.0483 c -2.85005,-0.5555 -4.61325,-1.18347 -7.27009,-2.60948 -3.98529,-2.12538 -6.9562,-5.09608 -9.08169,-9.08116 -1.42507,-2.65672 -2.05303,-4.41982 -2.60853,-7.29392 C 30.14334,197.6289 29.7086,191.2517 29.6603,182.50866 v -76.15562 c 0,-9.226085 0.43483,-15.940672 1.28016,-20.529773 l 0.0483,-0.289824 c 0.55549,-2.850152 1.18346,-4.637403 2.60853,-7.294339 2.12549,-3.985194 5.0964,-6.956107 9.08169,-9.081592 2.65683,-1.424971 4.42003,-2.053029 7.27009,-2.608527 4.37184,-0.845322 10.74829,-1.280164 19.49176,-1.328468 h 1.30431 127.31219 c 9.22714,0 15.9414,0.434842 20.50614,1.280164 l 0.28984,0.0483 c 2.84994,0.555498 4.61304,1.183556 7.26976,2.608526 3.98614,2.125486 6.95684,5.096398 9.08222,9.081592 1.42498,2.656936 2.05292,4.420036 2.60842,7.29434 0.89364,4.661556 1.32836,11.569358 1.32836,21.157731 z"
     fill="#06b6f2"
     id="path16" />
  <path
     d="m 521.75786,105.99076 h -20.72353 c -4.00924,0 -7.24666,3.23637 -7.24666,7.24561 v 113.52095 c 0,4.00926 3.23742,7.24562 7.24666,7.24562 h 20.72353 c 4.00924,0 7.24561,-3.23636 7.24561,-7.24562 V 113.23637 c 0,-3.98508 -3.23637,-7.24561 -7.24561,-7.24561 z"
     fill="#06b6f2"
     id="path17" />
  <path
     d="m 521.75786,53.578598 h -20.72353 c -4.00924,0 -7.24666,3.236585 -7.24666,7.246035 V 81.54804 c 0,4.009452 3.23742,7.246035 7.24666,7.246035 h 20.72353 c 4.00924,0 7.24561,-3.236583 7.24561,-7.246035 V 60.824633 c 0,-4.00945 -3.23637,-7.246035 -7.24561,-7.246035 z"
     fill="#06b6f2"
     id="path18" />
  <path
     d="m 642.52861,105.99076 h -20.72352 c -4.01028,0 -7.24666,3.23637 -7.24666,7.24561 v 113.52095 c 0,4.00926 3.23638,7.24562 7.24666,7.24562 h 20.72352 c 4.00924,0 7.24563,-3.23636 7.24563,-7.24562 V 113.23637 c 0,-3.98508 -3.23639,-7.24561 -7.24563,-7.24561 z"
     fill="#06b6f2"
     id="path19" />
  <path
     d="m 642.52861,53.578598 h -20.72352 c -4.01028,0 -7.24666,3.236585 -7.24666,7.246035 V 81.54804 c 0,4.009452 3.23638,7.246035 7.24666,7.246035 h 20.72352 c 4.00924,0 7.24563,-3.236583 7.24563,-7.246035 V 60.824633 c 0,-4.00945 -3.23639,-7.246035 -7.24563,-7.246035 z"
     fill="#06b6f2"
     id="path20" />
  <path
     d="m 582.14848,53.578598 h -20.7235 c -4.01029,0 -7.24668,3.236585 -7.24668,7.246035 V 226.75732 c 0,4.00926 3.23639,7.24562 7.24668,7.24562 h 20.7235 c 4.00925,0 7.24562,-3.23636 7.24562,-7.24562 V 60.824633 c 0,-4.00945 -3.23637,-7.246035 -7.24562,-7.246035 z"
     fill="#06b6f2"
     id="path21" />
  <path
     d="M 871.98362,105.99076 H 851.2601 c -4.00924,0 -7.24561,3.23637 -7.24561,7.24561 v 113.52095 c 0,4.00926 3.23637,7.24562 7.24561,7.24562 h 20.72352 c 4.01028,0 7.24666,-3.23636 7.24666,-7.24562 V 113.23637 c 0,-3.98508 -3.23638,-7.24561 -7.24666,-7.24561 z"
     fill="#06b6f2"
     id="path22" />
  <path
     d="M 871.98362,53.578598 H 851.2601 c -4.00924,0 -7.24561,3.236585 -7.24561,7.246035 V 81.54804 c 0,4.009452 3.23637,7.246035 7.24561,7.246035 h 20.72352 c 4.01028,0 7.24666,-3.236583 7.24666,-7.246035 V 60.824633 c 0,-4.00945 -3.23638,-7.246035 -7.24666,-7.246035 z"
     fill="#06b6f2"
     id="path23" />
  <path
     d="m 992.75439,105.99076 h -20.72351 c -4.00925,0 -7.24562,3.23637 -7.24562,7.24561 v 113.52095 c 0,4.00926 3.23637,7.24562 7.24562,7.24562 h 20.72351 c 4.00924,0 7.24561,-3.23636 7.24561,-7.24562 V 113.23637 c 0,-3.98508 -3.23637,-7.24561 -7.24561,-7.24561 z"
     fill="#06b6f2"
     id="path24" />
  <path
     d="m 992.75439,53.578598 h -20.72351 c -4.00925,0 -7.24562,3.236585 -7.24562,7.246035 V 81.54804 c 0,4.009452 3.23637,7.246035 7.24562,7.246035 h 20.72351 c 4.00924,0 7.24561,-3.236583 7.24561,-7.246035 V 60.824633 c 0,-4.00945 -3.23637,-7.246035 -7.24561,-7.246035 z"
     fill="#06b6f2"
     id="path25" />
  <path
     d="m 932.369,53.578598 h -20.72352 c -4.00923,0 -7.2456,3.236585 -7.2456,7.246035 V 226.75732 c 0,4.00926 3.23637,7.24562 7.2456,7.24562 H 932.369 c 4.00924,0 7.24667,-3.23636 7.24667,-7.24562 V 60.824633 c 0,-4.00945 -3.23743,-7.246035 -7.24667,-7.246035 z"
     fill="#06b6f2"
     id="path26" />
  <path
     d="m 453.74882,136.71428 c 8.09093,-8.96147 11.49638,-18.74305 11.49638,-29.75744 0,-29.418146 -23.93574,-53.378242 -53.37919,-53.378242 h -51.42182 -28.40492 -0.0966 c -4.00924,0 -7.24562,3.236585 -7.24562,7.246035 V 226.75732 c 0,4.00926 3.23638,7.24562 7.24562,7.24562 h 0.62796 27.87356 65.43105 c 29.4193,0 53.3792,-23.93572 53.3792,-53.37814 0,-18.18754 -10.16909,-35.98866 -25.50562,-43.91052 z M 411.86601,86.66859 c 11.18345,0 20.28878,9.105744 20.28878,20.28825 0,11.18345 -9.10533,20.28878 -20.28878,20.28878 H 360.44419 V 86.66859 Z m 14.0334,114.245 h -65.43106 v -40.57756 h 65.43106 c 11.18343,0 20.28877,9.10533 20.28877,20.28877 -0.0241,11.20655 -9.10534,20.28879 -20.28877,20.28879 z"
     fill="#06b6f2"
     id="path27" />
  <path
     d="m 803.96935,136.71428 c 8.09198,-8.96147 11.49742,-18.74305 11.49742,-29.75744 0,-29.418146 -23.93575,-53.378242 -53.37921,-53.378242 h -51.42285 -28.40386 -0.0966 c -4.00924,0 -7.24562,3.236585 -7.24562,7.246035 V 226.75732 c 0,4.00926 3.23638,7.24562 7.24562,7.24562 h 0.62794 27.87253 65.43211 c 29.41824,0 53.37814,-23.93572 53.37814,-53.37814 0,-18.18754 -10.16802,-35.98866 -25.50561,-43.91052 z M 762.08756,86.66859 c 11.18347,0 20.28879,9.105744 20.28879,20.28825 0,11.18345 -9.10532,20.28878 -20.28879,20.28878 H 710.66471 V 86.66859 Z m 14.03341,114.245 h -65.43212 v -40.57756 h 65.43212 c 11.1824,0 20.28878,9.10533 20.28878,20.28877 -0.0242,11.20655 -9.10638,20.28879 -20.28878,20.28879 z"
     fill="#06b6f2"
     id="path28" />
</svg>
