<svg width="164" height="56" viewBox="0 0 164 56" fill="none" xmlns="http://www.w3.org/2000/svg">
<rect width="164" height="56" rx="6.58824" stroke="#EAECF0"/>
<rect x="0.5" y="0.5" width="163" height="55" rx="6.08824" fill="white" stroke="#EAECF0"/>
<path d="M90.8135 20.8809C95.1524 20.8809 99.4913 20.8809 103.962 20.8809C103.962 25.4575 103.962 30.0342 103.962 34.7496C99.6228 34.7496 95.2839 34.7496 90.8135 34.7496C90.8135 30.1729 90.8135 25.5962 90.8135 20.8809Z" fill="#07367F"/>
<path d="M124.134 21.0605C126.927 21.0605 129.721 21.0605 132.599 21.0605C132.599 22.6816 132.599 22.6816 132.218 23.1093C132.054 23.2059 131.89 23.3025 131.721 23.402C131.476 23.5525 131.476 23.5525 131.227 23.706C130.966 23.8495 130.704 23.9894 130.438 24.1225C131.686 24.2116 131.686 24.2116 132.959 24.3026C132.981 25.3378 132.998 26.3728 133.009 27.4082C133.013 27.7602 133.019 28.1122 133.027 28.4642C133.038 28.9708 133.043 29.4772 133.047 29.9839C133.052 30.1408 133.056 30.2977 133.061 30.4593C133.062 31.2643 133.043 31.5817 132.526 32.2327C131.786 32.7951 131.364 32.7851 130.438 32.7679C130.259 32.233 130.081 31.698 129.897 31.1469C130.072 31.1246 130.246 31.1023 130.426 31.0793C130.608 31.0422 130.79 31.005 130.978 30.9668C131.067 30.7885 131.067 30.7885 131.158 30.6065C130.564 30.6065 129.969 30.6065 129.357 30.6065C129.357 31.2009 129.357 31.7953 129.357 32.4077C128.762 32.4077 128.168 32.4077 127.556 32.4077C127.556 31.8133 127.556 31.2189 127.556 30.6065C126.961 30.6065 126.367 30.6065 125.755 30.6065C125.755 31.3198 125.755 32.033 125.755 32.7679C125.309 32.8571 125.309 32.8571 124.854 32.948C125.453 33.0821 126.004 33.1503 126.617 33.1486C126.783 33.1486 126.949 33.1486 127.12 33.1485C127.296 33.1476 127.473 33.1467 127.655 33.1457C127.838 33.1455 128.02 33.1452 128.208 33.145C128.79 33.1439 129.372 33.1417 129.953 33.1394C130.349 33.1385 130.744 33.1377 131.139 33.1369C132.106 33.1349 133.073 33.1318 134.04 33.1281C133.921 33.6631 133.802 34.198 133.68 34.7492C133.126 34.8875 132.759 34.9525 132.209 34.9554C131.989 34.9572 131.989 34.9572 131.766 34.9589C131.609 34.9591 131.452 34.9593 131.291 34.9595C131.046 34.9604 131.046 34.9604 130.797 34.9613C130.452 34.9622 130.107 34.9627 129.762 34.9626C129.238 34.963 128.714 34.9663 128.191 34.9697C127.854 34.9703 127.518 34.9706 127.182 34.9708C127.027 34.9721 126.872 34.9734 126.713 34.9747C125.416 34.9699 124.074 34.8686 122.974 34.1188C122.859 34.0426 122.744 33.9664 122.626 33.888C122.332 33.6685 122.332 33.6685 121.972 33.3082C121.259 34.1107 121.259 34.1107 120.531 34.9293C120.111 34.509 119.691 34.0887 119.271 33.6685C119.271 33.1281 119.271 33.1281 119.579 32.8059C119.711 32.6968 119.844 32.5877 119.98 32.4752C120.111 32.3652 120.243 32.2551 120.379 32.1417C120.488 32.0512 120.598 31.9606 120.711 31.8673C121.015 31.5642 120.933 31.1793 120.949 30.7634C120.956 30.5771 120.964 30.3908 120.971 30.1988C120.982 29.9047 120.982 29.9047 120.993 29.6047C121.001 29.4079 121.008 29.2111 121.016 29.0084C121.036 28.5205 121.054 28.0326 121.072 27.5446C120.656 27.5446 120.24 27.5446 119.811 27.5446C119.811 26.8908 119.811 26.237 119.811 25.5634C120.821 25.5634 121.832 25.5634 122.873 25.5634C122.877 25.9971 122.882 26.4308 122.887 26.8776C122.894 27.2985 122.902 27.7193 122.91 28.1402C122.915 28.4323 122.919 28.7244 122.922 29.0165C122.925 29.4369 122.934 29.857 122.943 30.2773C122.943 30.4075 122.944 30.5377 122.944 30.6719C122.971 31.6083 123.056 31.69 123.773 32.4077C123.833 29.733 123.892 27.0583 123.953 24.3026C124.786 24.2431 125.618 24.1837 126.475 24.1225C126.029 23.7658 126.029 23.7658 125.574 23.402C125.634 23.2237 125.693 23.0454 125.755 22.8617C125.22 22.8022 124.685 22.7428 124.134 22.6816C124.134 22.1466 124.134 21.6117 124.134 21.0605Z" fill="#06357E"/>
<path d="M81.8048 20.6992C82.4586 20.6992 83.1124 20.6992 83.786 20.6992C83.786 21.5313 83.786 22.3635 83.786 23.2208C85.5097 23.2208 87.2334 23.2208 89.0093 23.2208C89.0093 25.6577 89.0093 28.0947 89.0093 30.6054C87.2856 30.6054 85.5619 30.6054 83.786 30.6054C83.786 32.0914 83.786 33.5773 83.786 35.1083C83.1322 35.1083 82.4784 35.1083 81.8048 35.1083C81.8048 33.6223 81.8048 32.1364 81.8048 30.6054C80.0216 30.6054 78.2385 30.6054 76.4014 30.6054C76.4014 28.1685 76.4014 25.7316 76.4014 23.2208C78.1845 23.2208 79.9676 23.2208 81.8048 23.2208C81.8048 22.3887 81.8048 21.5566 81.8048 20.6992Z" fill="#01327C"/>
<path d="M30.473 19.9785C31.8995 19.9785 33.326 19.9785 34.7957 19.9785C34.9657 20.3881 35.1356 20.7976 35.3107 21.2196C35.4828 21.6339 35.655 22.0481 35.8273 22.4623C35.9498 22.7571 36.0723 23.0519 36.1948 23.3467C36.8396 24.8989 37.4874 26.4494 38.158 27.9907C38.2086 28.1073 38.2592 28.2239 38.3114 28.3439C38.5482 28.8893 38.7866 29.434 39.0271 29.9778C39.1109 30.17 39.1946 30.3622 39.2809 30.5602C39.3543 30.7264 39.4276 30.8926 39.5032 31.0639C39.6588 31.5058 39.6588 31.5058 39.6588 32.2262C38.47 32.2262 37.2813 32.2262 36.0565 32.2262C35.8782 31.7507 35.6999 31.2752 35.5162 30.7853C35.2784 30.1909 35.0407 29.5966 34.7957 28.9842C33.4286 28.9842 32.0616 28.9842 30.6531 28.9842C30.1182 30.589 30.1182 30.589 29.5724 32.2262C28.3242 32.2262 27.076 32.2262 25.79 32.2262C25.9382 31.4856 26.1187 30.8904 26.3909 30.1936C26.4333 30.0845 26.4757 29.9754 26.5193 29.863C26.6582 29.506 26.7982 29.1494 26.9383 28.7928C27.0351 28.5446 27.132 28.2964 27.2287 28.0482C27.4287 27.5357 27.6292 27.0234 27.83 26.5113C28.0752 25.8861 28.3195 25.2605 28.5635 24.6347C28.7868 24.0619 29.0108 23.4892 29.2347 22.9166C29.3592 22.5978 29.3592 22.5978 29.4861 22.2725C29.5634 22.0757 29.6406 21.8789 29.7202 21.6762C29.7875 21.5043 29.8549 21.3323 29.9243 21.1551C30.0895 20.7552 30.2795 20.3656 30.473 19.9785Z" fill="#062F79"/>
<path d="M15.7051 34.3876C18.7628 34.3835 21.8205 34.3803 24.8782 34.3783C26.298 34.3774 27.7178 34.3761 29.1376 34.3741C30.3752 34.3723 31.6128 34.3711 32.8504 34.3707C33.5056 34.3705 34.1608 34.3699 34.816 34.3686C35.5478 34.3671 36.2795 34.3671 37.0113 34.3672C37.228 34.3665 37.4448 34.3659 37.6681 34.3652C37.8681 34.3655 38.0681 34.3657 38.2742 34.366C38.4472 34.3658 38.6202 34.3657 38.7984 34.3655C39.2999 34.3876 39.2999 34.3876 39.8481 34.4903C40.3997 34.5705 40.7433 34.5095 41.2812 34.3876C41.6566 34.3719 42.0325 34.3657 42.4083 34.366C42.6353 34.3657 42.8624 34.3655 43.0963 34.3652C43.3465 34.3659 43.5967 34.3665 43.8469 34.3672C44.1115 34.3672 44.376 34.3672 44.6405 34.3671C45.3576 34.3671 46.0746 34.3681 46.7916 34.3694C47.5414 34.3705 48.2911 34.3706 49.0409 34.3708C50.4601 34.3714 51.8794 34.3729 53.2987 34.3747C54.9147 34.3767 56.5307 34.3777 58.1467 34.3786C61.4705 34.3805 64.7943 34.3836 68.118 34.3876C68.118 34.982 68.118 35.5764 68.118 36.1888C64.755 36.193 61.392 36.1962 58.029 36.1981C56.4675 36.199 54.906 36.2003 53.3444 36.2024C51.9833 36.2042 50.6222 36.2053 49.2611 36.2057C48.5405 36.206 47.8199 36.2065 47.0993 36.2078C46.4207 36.209 45.7422 36.2094 45.0636 36.2091C44.8149 36.2092 44.5661 36.2096 44.3174 36.2102C43.977 36.2111 43.6367 36.2108 43.2963 36.2104C43.0109 36.2107 43.0109 36.2107 42.7198 36.2109C42.1817 36.1888 42.1817 36.1888 41.583 36.0861C41.4239 36.0606 41.2649 36.035 41.101 36.0087C41.0416 36.0681 40.9822 36.1275 40.9209 36.1888C40.595 36.2061 40.2684 36.2107 39.942 36.2104C39.7296 36.2107 39.5171 36.2109 39.2983 36.2112C39.0632 36.2105 38.828 36.2099 38.5857 36.2092C38.3373 36.2092 38.0888 36.2092 37.8404 36.2093C37.1639 36.2094 36.4874 36.2083 35.8109 36.207C35.1046 36.2059 34.3984 36.2058 33.6921 36.2056C32.3538 36.205 31.0155 36.2036 29.6773 36.2017C28.1541 36.1997 26.6308 36.1987 25.1076 36.1978C21.9735 36.196 18.8393 36.1928 15.7051 36.1888C15.7051 35.5944 15.7051 35 15.7051 34.3876Z" fill="#EB770A"/>
<path d="M90.8135 20.8809C95.1524 20.8809 99.4913 20.8809 103.962 20.8809C103.962 25.4575 103.962 30.0342 103.962 34.7496C99.6228 34.7496 95.2839 34.7496 90.8135 34.7496C90.8135 30.1729 90.8135 25.5962 90.8135 20.8809ZM92.7947 22.682C92.7947 26.0699 92.7947 29.4579 92.7947 32.9484C95.826 32.9484 98.8573 32.9484 101.98 32.9484C101.98 29.5605 101.98 26.1726 101.98 22.682C98.9492 22.682 95.9179 22.682 92.7947 22.682Z" fill="#07367F"/>
<path d="M22.7185 19.9274C22.991 19.9286 22.991 19.9286 23.2689 19.9297C23.8432 19.9327 24.4175 19.9395 24.9918 19.9464C25.3835 19.9491 25.7753 19.9516 26.1671 19.9538C27.1224 19.9597 28.0777 19.9687 29.0331 19.9802C28.807 20.6644 28.5709 21.3381 28.3014 22.0064C28.2091 22.2363 28.2091 22.2363 28.1149 22.4708C28.0093 22.725 27.8954 22.976 27.7723 23.2222C27.489 23.2233 27.489 23.2233 27.1999 23.2245C26.4936 23.2284 25.7874 23.2382 25.0811 23.2497C24.7765 23.2539 24.4718 23.2565 24.1672 23.2574C21.8352 23.2159 21.8352 23.2159 19.8473 24.3029C19.2489 24.9462 19.0802 25.4262 19.048 26.2841C19.0891 27.2264 19.3005 27.9114 19.9936 28.5806C21.0958 29.2104 22.1895 29.2383 23.427 29.2785C23.6026 29.2855 23.7781 29.2925 23.9589 29.2996C24.3895 29.3165 24.8201 29.3315 25.2507 29.3461C24.8941 30.2971 24.5374 31.2481 24.17 32.2279C18.7878 32.4153 18.7878 32.4153 17.1245 31.0037C15.8793 29.712 15.3923 28.2451 15.4233 26.4755C15.425 26.3174 15.4267 26.1592 15.4284 25.9962C15.4677 24.7758 15.6801 23.8534 16.4251 22.862C16.5055 22.7471 16.5858 22.6321 16.6686 22.5137C18.1909 20.5364 20.3172 19.8887 22.7185 19.9274Z" fill="#042670"/>
<path d="M52.0749 19.764C52.4231 19.7657 52.4231 19.7657 52.7784 19.7675C53.0209 19.7705 53.2634 19.7735 53.5059 19.7766C53.7526 19.7784 53.9993 19.7801 54.2461 19.7816C54.8474 19.7858 55.4487 19.7922 56.05 19.7991C56.05 20.869 56.05 21.9389 56.05 23.0412C55.6624 23.0544 55.6624 23.0544 55.2669 23.0679C54.9238 23.0814 54.5807 23.095 54.2376 23.1087C53.9829 23.1171 53.9829 23.1171 53.723 23.1256C52.1086 23.158 52.1086 23.158 50.693 23.8404C49.8321 25.028 49.8017 25.9041 49.9262 27.3639C50.2831 28.1777 50.7382 28.5861 51.5127 29.0169C52.3041 29.3139 53.1343 29.2382 53.9674 29.2101C54.1508 29.2068 54.3341 29.2036 54.5229 29.2002C54.972 29.1918 55.421 29.1789 55.8699 29.165C55.8699 30.116 55.8699 31.067 55.8699 32.0468C53.3551 32.4061 50.4591 32.6618 48.3122 31.0914C47.1163 30.0972 46.4627 29.0272 46.2695 27.4644C46.2453 27.0129 46.2396 26.5665 46.2451 26.1144C46.2466 25.9561 46.2481 25.7978 46.2496 25.6347C46.2953 23.8822 46.7458 22.661 47.9583 21.3758C49.1644 20.2774 50.4344 19.7494 52.0749 19.764Z" fill="#072A74"/>
<path d="M57.3125 19.7988C60.8787 19.7988 64.445 19.7988 68.1193 19.7988C68.1193 20.8687 68.1193 21.9386 68.1193 23.0409C66.9305 23.0409 65.7418 23.0409 64.517 23.0409C64.517 26.0722 64.517 29.1035 64.517 32.2266C63.3283 32.2266 62.1395 32.2266 60.9148 32.2266C60.9148 29.1953 60.9148 26.164 60.9148 23.0409C59.726 23.0409 58.5373 23.0409 57.3125 23.0409C57.3125 21.971 57.3125 20.9011 57.3125 19.7988Z" fill="#09367F"/>
<path d="M107.923 20.5195C108.19 20.5654 108.456 20.6148 108.722 20.6659C108.945 20.7066 108.945 20.7066 109.172 20.7482C109.295 20.7916 109.418 20.835 109.544 20.8798C109.724 21.4201 109.724 21.4201 109.544 21.9604C110.733 21.9604 111.922 21.9604 113.146 21.9604C113.057 21.3363 113.057 21.3363 112.966 20.6996C113.62 20.6996 114.274 20.6996 114.948 20.6996C115.037 21.3237 115.037 21.3237 115.128 21.9604C116.435 21.9604 117.743 21.9604 119.09 21.9604C119.09 22.5548 119.09 23.1492 119.09 23.7616C115.881 23.7616 112.671 23.7616 109.364 23.7616C109.275 23.3158 109.275 23.3158 109.184 22.861C108.856 23.5657 108.776 24.1306 108.766 24.9054C108.763 25.1325 108.759 25.3597 108.755 25.5937C108.753 25.8397 108.751 26.0857 108.749 26.3317C108.746 26.5848 108.742 26.8379 108.739 27.0911C108.729 27.7552 108.722 28.4193 108.715 29.0835C108.708 29.7621 108.699 30.4406 108.69 31.1191C108.673 32.449 108.657 33.7788 108.644 35.1087C107.99 35.1087 107.336 35.1087 106.662 35.1087C106.603 32.8501 106.543 30.5915 106.482 28.2644C106.126 28.7102 106.126 28.7102 105.762 29.165C105.346 28.6895 104.93 28.214 104.501 27.7241C104.638 27.4886 104.638 27.4886 104.778 27.2484C106.042 25.0679 107.123 22.9131 107.923 20.5195Z" fill="#0B3880"/>
<path d="M40.9219 20.3398C42.1701 20.3398 43.4182 20.3398 44.7043 20.3398C44.7043 24.2627 44.7043 28.1856 44.7043 32.2273C43.4561 32.2273 42.2079 32.2273 40.9219 32.2273C40.9219 28.3045 40.9219 24.3816 40.9219 20.3398Z" fill="#0D357C"/>
<path d="M15.7051 34.3885C18.7566 34.3718 21.808 34.3589 24.8596 34.3511C26.2765 34.3474 27.6935 34.3424 29.1104 34.3341C30.3458 34.3269 31.5812 34.3223 32.8166 34.3207C33.4704 34.3197 34.1241 34.3175 34.7779 34.3123C35.5088 34.3065 36.2395 34.3063 36.9704 34.3067C37.2936 34.3028 37.2936 34.3028 37.6233 34.2988C38.8685 34.305 39.6833 34.4355 40.7408 35.1089C41.101 35.5142 41.101 35.5142 41.2812 35.8294C40.9209 36.1896 40.9209 36.1896 40.4828 36.2339C40.2972 36.2336 40.1116 36.2333 39.9203 36.2329C39.7077 36.2334 39.495 36.2339 39.2759 36.2344C39.0414 36.2331 38.8069 36.2318 38.5653 36.2305C38.3168 36.2304 38.0683 36.2304 37.8199 36.2307C37.1441 36.2308 36.4684 36.2286 35.7926 36.2261C35.0868 36.2239 34.3811 36.2237 33.6753 36.2232C32.3383 36.2221 31.0013 36.2192 29.6643 36.2155C28.1424 36.2115 26.6205 36.2095 25.0986 36.2077C21.9674 36.204 18.8362 36.1976 15.7051 36.1896C15.7051 35.5952 15.7051 35.0009 15.7051 34.3885Z" fill="#042973"/>
<path d="M134.76 21.0605C136.246 21.0605 137.732 21.0605 139.263 21.0605C139.263 23.3978 139.263 23.3978 138.857 24.7458C138.497 25.942 138.497 25.942 138.779 27.1169C138.879 27.258 138.979 27.3992 139.082 27.5446C139.404 28.3471 139.496 29.035 139.499 29.8974C139.502 30.1112 139.505 30.325 139.508 30.5453C139.436 31.2064 139.329 31.5392 138.902 32.0475C138.456 32.2142 138.456 32.2142 137.968 32.2839C137.539 32.3451 137.539 32.3451 137.101 32.4077C136.982 31.8133 136.863 31.2189 136.741 30.6065C137.038 30.4877 137.335 30.3688 137.642 30.2463C137.767 29.1802 137.589 28.6889 137.034 27.7698C136.504 26.7315 136.554 26.1283 136.871 25.0141C137.108 24.2884 137.36 23.5713 137.642 22.8617C137.226 22.8617 136.809 22.8617 136.381 22.8617C136.381 26.844 136.381 30.8263 136.381 34.9293C135.846 34.9293 135.311 34.9293 134.76 34.9293C134.76 30.3526 134.76 25.7759 134.76 21.0605Z" fill="#02327D"/>
<path d="M92.7949 22.6816C95.8262 22.6816 98.8575 22.6816 101.981 22.6816C101.981 26.0696 101.981 29.4575 101.981 32.9481C98.9494 32.9481 95.9181 32.9481 92.7949 32.9481C92.7949 29.5602 92.7949 26.1722 92.7949 22.6816ZM93.6955 23.5822C93.6955 24.1171 93.6955 24.6521 93.6955 25.2032C94.6465 25.2032 95.5975 25.2032 96.5773 25.2032C96.5773 25.6193 96.5773 26.0353 96.5773 26.464C95.6857 26.464 94.7942 26.464 93.8756 26.464C93.8756 27.0584 93.8756 27.6528 93.8756 28.2652C94.7077 28.2652 95.5398 28.2652 96.3972 28.2652C96.3972 28.919 96.3972 29.5728 96.3972 30.2464C95.3868 30.2464 94.3763 30.2464 93.3353 30.2464C93.3353 30.8408 93.3353 31.4351 93.3353 32.0475C96.0099 32.0475 98.6846 32.0475 101.44 32.0475C101.44 31.5126 101.44 30.9777 101.44 30.4265C101.084 30.4265 100.727 30.4265 100.36 30.4265C100.36 30.3076 100.36 30.1888 100.36 30.0663C100.538 30.0068 100.716 29.9474 100.9 29.8862C100.792 29.2817 100.567 28.9175 100.18 28.4453C100.417 28.3858 100.655 28.3264 100.9 28.2652C100.9 27.6708 100.9 27.0764 100.9 26.464C100.068 26.464 99.2358 26.464 98.3784 26.464C98.3784 26.1074 98.3784 25.7508 98.3784 25.3833C99.3294 25.3833 100.28 25.3833 101.26 25.3833C101.26 24.789 101.26 24.1946 101.26 23.5822C98.7639 23.5822 96.2675 23.5822 93.6955 23.5822Z" fill="#EBEDF2"/>
<path d="M139.624 27.9043C142.417 27.9043 145.211 27.9043 148.089 27.9043C148.089 28.4987 148.089 29.093 148.089 29.7054C147.316 29.7054 146.544 29.7054 145.747 29.7054C145.837 31.3102 145.837 31.3102 145.928 32.9475C146.284 32.9475 146.641 32.9475 147.008 32.9475C147.068 32.472 147.127 31.9965 147.188 31.5066C147.991 31.6849 147.991 31.6849 148.809 31.8668C148.866 32.9402 148.782 33.6179 148.269 34.5685C147.605 35.0112 147.08 35.0013 146.31 35.0075C146.183 35.0134 146.055 35.0194 145.924 35.0255C145.274 35.0321 144.87 34.9423 144.309 34.6121C143.748 33.7086 143.851 32.85 143.89 31.8105C143.894 31.6084 143.898 31.4063 143.902 31.198C143.913 30.7003 143.928 30.203 143.946 29.7054C143.59 29.7054 143.233 29.7054 142.866 29.7054C142.877 29.8763 142.888 30.0472 142.899 30.2233C142.897 31.5435 142.44 32.8319 141.605 33.848C140.222 35.2226 140.222 35.2226 139.444 35.2889C138.937 34.8949 138.937 34.8949 138.543 34.3884C138.565 34.0274 138.565 34.0274 138.723 33.6679C139.031 33.4118 139.031 33.4118 139.41 33.1726C140.313 32.5285 140.75 31.8219 140.967 30.734C141.012 30.3926 141.04 30.049 141.065 29.7054C140.589 29.7054 140.114 29.7054 139.624 29.7054C139.624 29.1111 139.624 28.5167 139.624 27.9043Z" fill="#09377F"/>
<path d="M110.086 29.5254C112.761 29.5254 115.435 29.5254 118.191 29.5254C118.191 31.2491 118.191 32.9728 118.191 34.7487C115.516 34.7487 112.842 34.7487 110.086 34.7487C110.086 33.025 110.086 31.3013 110.086 29.5254Z" fill="#08377F"/>
<path d="M144.487 20.5195C144.547 20.9356 144.606 21.3517 144.667 21.7803C145.856 21.7803 147.045 21.7803 148.269 21.7803C148.269 23.0285 148.269 24.2767 148.269 25.5627C147.794 25.5627 147.318 25.5627 146.829 25.5627C146.829 25.9788 146.829 26.3948 146.829 26.8235C144.808 26.8235 142.787 26.8235 140.705 26.8235C140.705 26.348 140.705 25.8725 140.705 25.3826C140.348 25.3826 139.991 25.3826 139.624 25.3826C139.624 24.2533 139.624 23.124 139.624 21.9604C140.634 21.9604 141.645 21.9604 142.686 21.9604C142.627 21.5444 142.567 21.1283 142.506 20.6996C143.879 20.5195 143.879 20.5195 144.487 20.5195Z" fill="#08377F"/>
<path d="M119.811 25.5645C120.821 25.5645 121.832 25.5645 122.873 25.5645C122.877 25.9982 122.882 26.4319 122.887 26.8787C122.894 27.2996 122.902 27.7204 122.91 28.1413C122.915 28.4333 122.919 28.7255 122.922 29.0176C122.925 29.438 122.934 29.8581 122.943 30.2784C122.943 30.4086 122.944 30.5388 122.944 30.673C122.962 31.2907 123.01 31.632 123.388 32.1298C123.876 32.4834 124.211 32.5154 124.809 32.5438C125.075 32.5592 125.075 32.5592 125.347 32.5748C125.549 32.5818 125.549 32.5818 125.755 32.5889C125.755 32.6483 125.755 32.7077 125.755 32.769C125.309 32.8581 125.309 32.8581 124.854 32.9491C125.453 33.0832 126.004 33.1513 126.617 33.1497C126.783 33.1496 126.949 33.1496 127.12 33.1496C127.296 33.1487 127.473 33.1478 127.655 33.1468C127.838 33.1465 128.02 33.1463 128.208 33.146C128.79 33.145 129.372 33.1428 129.953 33.1405C130.349 33.1396 130.744 33.1387 131.139 33.138C132.106 33.136 133.073 33.1329 134.04 33.1292C133.921 33.6641 133.802 34.1991 133.68 34.7502C133.126 34.8886 132.759 34.9535 132.209 34.9565C132.062 34.9577 131.916 34.9588 131.766 34.96C131.609 34.9602 131.452 34.9604 131.291 34.9606C131.046 34.9615 131.046 34.9615 130.797 34.9624C130.452 34.9633 130.107 34.9637 129.762 34.9637C129.238 34.9641 128.714 34.9674 128.191 34.9708C127.854 34.9713 127.518 34.9717 127.182 34.9719C127.027 34.9731 126.872 34.9744 126.713 34.9758C125.416 34.9709 124.074 34.8697 122.974 34.1198C122.859 34.0437 122.744 33.9675 122.626 33.8891C122.332 33.6695 122.332 33.6695 121.972 33.3093C121.259 34.1117 121.259 34.1117 120.531 34.9303C119.901 34.2999 119.901 34.2999 119.271 33.6695C119.271 33.1292 119.271 33.1292 119.579 32.807C119.711 32.6979 119.844 32.5887 119.98 32.4763C120.111 32.3662 120.243 32.2562 120.379 32.1428C120.488 32.0523 120.598 31.9617 120.711 31.8684C121.015 31.5653 120.933 31.1804 120.949 30.7645C120.956 30.5782 120.964 30.3919 120.971 30.1999C120.978 30.0038 120.986 29.8078 120.993 29.6057C121.001 29.409 121.008 29.2122 121.016 29.0095C121.036 28.5216 121.054 28.0337 121.072 27.5457C120.656 27.5457 120.24 27.5457 119.811 27.5457C119.811 26.8919 119.811 26.2381 119.811 25.5645Z" fill="#06357E"/>
<path d="M110.086 27.0039C112.761 27.0039 115.435 27.0039 118.191 27.0039C118.191 27.5983 118.191 28.1927 118.191 28.805C115.516 28.805 112.842 28.805 110.086 28.805C110.086 28.2107 110.086 27.6163 110.086 27.0039Z" fill="#0D3A81"/>
<path d="M110.263 24.6621C112.878 24.6621 115.493 24.6621 118.188 24.6621C118.188 25.197 118.188 25.732 118.188 26.2831C115.572 26.2831 112.957 26.2831 110.263 26.2831C110.263 25.7482 110.263 25.2133 110.263 24.6621Z" fill="#00317C"/>
<path d="M83.7881 25.2031C84.858 25.2031 85.9278 25.2031 87.0301 25.2031C87.0301 26.3324 87.0301 27.4617 87.0301 28.6253C85.9603 28.6253 84.8904 28.6253 83.7881 28.6253C83.7881 27.496 83.7881 26.3667 83.7881 25.2031Z" fill="#F0F1F5"/>
<path d="M78.5635 25.2031C79.6333 25.2031 80.7032 25.2031 81.8055 25.2031C81.8055 26.3324 81.8055 27.4617 81.8055 28.6253C80.7356 28.6253 79.6658 28.6253 78.5635 28.6253C78.5635 27.496 78.5635 26.3667 78.5635 25.2031Z" fill="#F5F6F8"/>
<path d="M112.064 31.3262C113.432 31.3262 114.799 31.3262 116.207 31.3262C116.207 31.8611 116.207 32.396 116.207 32.9472C114.84 32.9472 113.473 32.9472 112.064 32.9472C112.064 32.4123 112.064 31.8773 112.064 31.3262Z" fill="#EEF0F4"/>
<path d="M121.792 20.8809C122.093 21.2806 122.367 21.6766 122.636 22.0966C122.752 22.268 122.752 22.268 122.87 22.4428C123.425 23.3002 123.425 23.3002 123.369 23.7811C123.159 24.3071 122.838 24.4399 122.332 24.6632C121.99 24.6583 121.99 24.6583 121.612 24.4831C121.324 24.1021 121.085 23.7444 120.846 23.3349C120.781 23.2286 120.715 23.1222 120.648 23.0127C120.343 22.5045 120.171 22.2036 120.171 21.6013C121.387 20.8809 121.387 20.8809 121.792 20.8809Z" fill="#09377F"/>
<path d="M141.245 23.7617C142.909 23.7617 144.574 23.7617 146.288 23.7617C146.288 24.1778 146.288 24.5938 146.288 25.0225C144.624 25.0225 142.96 25.0225 141.245 25.0225C141.245 24.6064 141.245 24.1904 141.245 23.7617Z" fill="white"/>
<path d="M32.4553 22.8613C32.5741 22.8613 32.693 22.8613 32.8155 22.8613C32.9963 23.3339 33.1763 23.8067 33.3558 24.2797C33.4074 24.4142 33.4589 24.5486 33.512 24.6871C33.8962 25.7023 33.8962 25.7023 33.8962 26.1034C33.1235 26.1034 32.3508 26.1034 31.5547 26.1034C32.1208 23.7876 32.1208 23.7876 32.4553 22.8613Z" fill="#EBF0F3"/>
<path d="M98.1963 28.2637C98.6718 28.2637 99.1473 28.2637 99.6372 28.2637C99.3895 28.5338 99.3895 28.5338 99.0969 28.804C98.978 28.804 98.8591 28.804 98.7366 28.804C98.8016 28.8908 98.8666 28.9777 98.9336 29.0671C99.059 29.2378 99.059 29.2378 99.1869 29.4119C99.3123 29.5812 99.3123 29.5812 99.4402 29.7538C99.6372 30.0648 99.6372 30.0648 99.6372 30.425C99.1617 30.425 98.6862 30.425 98.1963 30.425C98.1963 29.7118 98.1963 28.9985 98.1963 28.2637Z" fill="#D7DBE6"/>
<path d="M129.355 28.2637C129.95 28.2637 130.544 28.2637 131.157 28.2637C131.157 28.5014 131.157 28.7392 131.157 28.9841C130.562 28.9841 129.968 28.9841 129.355 28.9841C129.355 28.7464 129.355 28.5086 129.355 28.2637Z" fill="#F4F5F8"/>
<path d="M125.752 28.2637C126.346 28.2637 126.941 28.2637 127.553 28.2637C127.553 28.5014 127.553 28.7392 127.553 28.9841C126.959 28.9841 126.364 28.9841 125.752 28.9841C125.752 28.7464 125.752 28.5086 125.752 28.2637Z" fill="#F4F5F8"/>
<path d="M129.355 25.9219C129.95 25.9219 130.544 25.9219 131.157 25.9219C131.157 26.1596 131.157 26.3974 131.157 26.6423C130.562 26.6423 129.968 26.6423 129.355 26.6423C129.355 26.4046 129.355 26.1668 129.355 25.9219Z" fill="#F4F5F8"/>
<path d="M125.752 25.9219C126.346 25.9219 126.941 25.9219 127.553 25.9219C127.553 26.1596 127.553 26.3974 127.553 26.6423C126.959 26.6423 126.364 26.6423 125.752 26.6423C125.752 26.4046 125.752 26.1668 125.752 25.9219Z" fill="#F4F5F8"/>
<path d="M127.196 22.6816C127.969 22.6816 128.742 22.6816 129.538 22.6816C128.817 23.4021 128.817 23.4021 128.277 23.5822C127.703 23.2445 127.703 23.2445 127.196 22.8618C127.196 22.8023 127.196 22.7429 127.196 22.6816Z" fill="#F4F5F8"/>
</svg>
