<svg width="164" height="56" viewBox="0 0 164 56" fill="none" xmlns="http://www.w3.org/2000/svg">
<rect width="164" height="56" rx="6.58824" stroke="#EAECF0"/>
<rect x="0.5" y="0.5" width="163" height="55" rx="6.08824" fill="white" stroke="#EAECF0"/>
<path d="M36.7432 12.3536L36.6076 12.3543C36.2297 12.3531 36.0315 12.4155 35.7385 12.6587C35.5084 12.9261 35.4353 13.1292 35.4276 13.4823L35.4281 13.6424C35.4254 13.8247 35.4231 14.007 35.4225 14.1893C35.4221 14.3229 35.4212 14.4565 35.4199 14.5901C35.4157 14.9541 35.4126 15.3181 35.411 15.6821C35.4101 15.9139 35.4092 16.1456 35.4079 16.3773C35.4038 17.0987 35.4 17.8201 35.3987 18.5415C35.3971 19.3801 35.3938 20.2186 35.3852 21.0572C35.3785 21.7106 35.374 22.364 35.3728 23.0174L35.3727 23.1445C35.3725 23.4915 35.3723 23.8384 35.3683 24.1853C35.3631 24.5569 35.3591 24.9284 35.3605 25.3001C35.3614 25.4374 35.362 25.5747 35.3622 25.712L35.3595 25.8267C35.3504 26.1956 35.3413 26.5648 35.4165 26.9279C35.5359 27.2403 35.5359 27.2403 36.1172 27.555C36.2877 27.6399 36.4323 27.7216 36.5874 27.8284C36.8913 28.0428 37.1571 28.2111 37.5046 28.3501V14.4248L41.6058 14.4376L41.8045 14.4384C42.3441 14.4408 42.8838 14.4431 43.4235 14.4441C43.5865 14.4442 43.7496 14.4444 43.9127 14.4447C44.1775 14.4463 44.4422 14.4479 44.707 14.448L44.954 14.448L45.1858 14.4502L45.3955 14.4493C45.4971 14.4496 45.5424 14.4498 45.5873 14.4456C45.6234 14.4422 45.6592 14.436 45.7239 14.4248C45.804 14.3047 45.8846 14.185 45.9666 14.0661C46.0536 13.9404 46.1405 13.8145 46.2273 13.6885L46.3692 13.4823L46.5112 13.2777L46.6473 13.0795C46.8035 12.8534 46.916 12.643 47.0145 12.387C45.6692 12.3809 44.3238 12.3761 42.9785 12.3733C42.3243 12.3719 41.6702 12.3704 41.016 12.3674C40.4415 12.3647 39.8671 12.3624 39.2926 12.3616L39.2049 12.3615C38.9306 12.3612 38.6563 12.361 38.382 12.3594C38.0918 12.3575 37.8016 12.3559 37.5114 12.356C37.4043 12.3562 37.2971 12.3562 37.19 12.3561C37.0411 12.3546 36.8921 12.3532 36.7432 12.3536Z" fill="#0059C3"/>
<path d="M72.7596 12.3869C73.3753 12.3869 73.6627 12.3869 73.9308 12.459C74.1654 12.5221 74.3852 12.6404 74.7974 12.8624V26.3801C76.1111 26.5163 76.7932 26.587 77.4627 26.5242C78.1857 26.4565 78.8942 26.2332 80.3676 25.7688C80.71 25.3472 80.7952 24.9351 80.7968 24.4023L80.7988 24.2395C80.8009 24.063 80.8021 23.8866 80.8032 23.7102L80.8072 23.3419C80.8107 23.0196 80.8134 22.6973 80.8159 22.375C80.8185 22.0715 80.8216 21.7679 80.8247 21.4644L80.8255 21.3874C80.8321 20.7421 80.8378 20.0968 80.843 19.4514L80.6905 19.4624C80.2111 19.4953 79.7322 19.52 79.252 19.5359C79.0051 19.5443 78.7592 19.5557 78.5129 19.5744C77.4143 19.6556 77.0764 19.6806 76.8091 19.5551C76.6903 19.4994 76.5855 19.4139 76.4341 19.2905C76.0948 18.9007 75.8494 18.4677 75.6331 18C75.55 17.8321 75.4528 17.6985 75.3409 17.5494V17.4136C76.0844 17.3977 76.8279 17.3857 77.5715 17.3784C77.917 17.3749 78.2624 17.3701 78.6078 17.3623C80.6244 17.318 81.297 17.3032 81.8705 17.5343C82.1574 17.6499 82.4196 17.827 82.813 18.0929C82.9272 18.2071 82.9118 18.4429 82.8991 18.6391C82.8953 18.6967 82.8918 18.7511 82.8918 18.7978L82.8929 19.0007C82.8939 19.2235 82.8943 19.4464 82.8947 19.6693L82.8959 20.1337C82.8966 20.4593 82.897 20.7848 82.8972 21.1104C82.8976 21.526 82.8992 21.9416 82.9012 22.3572C82.9024 22.6776 82.9028 22.9979 82.9029 23.3183C82.9031 23.4714 82.9036 23.6245 82.9045 23.7775C82.9121 25.1654 82.7788 26.2755 81.794 27.3311C80.0532 28.9823 76.904 28.7208 74.5371 28.5243L74.5364 28.5243C73.8643 28.4685 73.2553 28.418 72.7596 28.418V12.3869Z" fill="#0059C3"/>
<path d="M49.3244 17.3457C50.2704 17.3281 51.2165 17.3151 52.1627 17.307C52.6022 17.3031 53.0416 17.2979 53.4811 17.2893C53.9066 17.2811 54.3319 17.2767 54.7575 17.2748C54.9185 17.2735 55.0794 17.2708 55.2403 17.2667C56.4653 17.2369 57.3556 17.4969 58.4268 18.0929C58.4315 18.9911 58.4351 19.8892 58.4373 20.7874C58.4384 21.2045 58.4398 21.6217 58.4422 22.0388C58.4444 22.4418 58.4456 22.8448 58.4461 23.2478C58.4465 23.4011 58.4472 23.5543 58.4483 23.7076C58.4577 25.0629 58.3441 26.3059 57.3503 27.3341C56.1539 28.4219 54.7815 28.4393 53.2541 28.4313L52.8242 28.4307C52.4501 28.4302 52.076 28.4289 51.7019 28.4273C51.3497 28.4261 50.9975 28.4254 50.6453 28.4248L50.5529 28.4247C49.8038 28.4232 49.0546 28.4209 48.3055 28.418C48.3007 27.8275 48.2971 27.237 48.2949 26.6464C48.2939 26.3722 48.2924 26.0979 48.2901 25.8236C48.2879 25.5585 48.2867 25.2934 48.2861 25.0282C48.2858 24.9275 48.285 24.8268 48.2839 24.7262C48.2742 23.8081 48.4056 23.1073 48.9848 22.3724C49.5338 21.8128 50.2264 21.5318 51.0026 21.5187C51.2284 21.5175 51.4539 21.5206 51.6796 21.5241C51.8003 21.5247 51.9209 21.5252 52.0416 21.5256C52.3565 21.5268 52.6714 21.5302 52.9863 21.5339C53.2825 21.5372 53.5787 21.5387 53.8748 21.5403L53.9536 21.5407C54.5843 21.5443 55.2149 21.5501 55.8455 21.5573C55.6024 22.0032 55.527 22.1414 55.4407 22.2723C55.4019 22.331 55.3609 22.3883 55.3016 22.4714L55.1962 22.6196L55.0898 22.7672L54.9818 22.9189C54.8853 23.0541 54.7885 23.1891 54.6907 23.3234L54.6057 23.4652C54.545 23.5315 54.5154 23.564 54.4789 23.5844C54.444 23.6038 54.4029 23.6122 54.3224 23.6285L54.1252 23.6279L53.9012 23.6293L53.6593 23.627L53.4109 23.6284C53.0908 23.6302 52.7708 23.6295 52.4508 23.6287L52.3564 23.6284C52.1001 23.6283 51.8438 23.6297 51.5875 23.6312L51.3461 23.6289L51.1215 23.6303L50.924 23.6296C50.7007 23.6727 50.6215 23.7615 50.4792 23.9348C50.3927 24.1077 50.3919 24.2884 50.391 24.4758C50.3908 24.5133 50.3906 24.5511 50.3898 24.5891L50.3855 24.7439C50.381 24.9072 50.377 25.0705 50.373 25.2339L50.3641 25.5658C50.3569 25.8373 50.35 26.1087 50.3433 26.3802C50.8996 26.3744 51.4559 26.368 52.0121 26.3606C52.2705 26.3573 52.5288 26.3541 52.7872 26.3515C53.0369 26.349 53.2867 26.3458 53.5364 26.3423C53.6312 26.341 53.7261 26.34 53.821 26.3392C54.5983 26.3324 55.3125 26.3196 55.9134 25.7688C56.2476 25.3097 56.3306 24.9093 56.335 24.3498L56.337 24.1871C56.3391 24.0099 56.3408 23.8328 56.3425 23.6556L56.3468 23.2867C56.3505 22.9633 56.3539 22.6399 56.3572 22.3165C56.3603 22.0129 56.3637 21.7093 56.3672 21.4058L56.3681 21.3261C56.3754 20.6786 56.3823 20.0311 56.3889 19.3836L56.1755 19.3877C55.5109 19.4001 54.8464 19.4092 54.1817 19.4152C53.84 19.4184 53.4983 19.4227 53.1567 19.4297C52.8268 19.4363 52.497 19.44 52.167 19.4416C52.0413 19.4427 51.9156 19.4449 51.79 19.4482C51.0934 19.4658 50.8902 19.4709 50.724 19.395C50.6556 19.3638 50.5935 19.3188 50.5057 19.2552C50.3827 19.0996 50.294 18.9502 50.2075 18.7722L50.0724 18.5865C49.96 18.4236 49.8478 18.2606 49.7362 18.0972L49.6151 17.9224L49.5008 17.7557L49.3979 17.6058C49.3601 17.5419 49.3418 17.5109 49.3328 17.4774C49.3244 17.4457 49.3244 17.4117 49.3244 17.3457Z" fill="#0059C3"/>
<path fill-rule="evenodd" clip-rule="evenodd" d="M40.9818 32.1246C40.7283 32.132 40.4751 32.1404 40.2218 32.1543C40.2218 32.2511 40.2218 32.3019 40.2364 32.3481C40.2525 32.3992 40.2863 32.4448 40.3577 32.5406L40.4935 32.6977C39.9506 32.7001 39.4077 32.7035 38.8649 32.7086L38.7991 32.7092C38.5443 32.7117 38.2891 32.7143 38.0343 32.7155C37.7632 32.7165 37.492 32.7179 37.2209 32.7208C37.1177 32.7221 37.0146 32.7232 36.9114 32.7242C36.7629 32.7243 36.6144 32.7244 36.4659 32.7264L36.3293 32.7286L36.301 32.7287C36.0506 32.7304 35.9195 32.7313 35.7121 32.8894C35.6027 33.0373 35.6027 33.0373 35.5719 33.2677L35.5762 33.5394C35.5774 33.6885 35.5789 33.8375 35.5822 33.9866C35.5846 34.0901 35.5864 34.1937 35.5878 34.2973C35.5911 34.6019 35.5965 34.9064 35.6027 35.211H36.6896V35.8903H38.8633V36.5696H37.1651V37.7244H38.8633V38.2678H35.6706C35.6706 38.6854 36.0032 39.0945 36.2834 39.3906C36.3795 39.462 36.445 39.5107 36.5178 39.5427C36.673 39.6109 36.8616 39.6033 37.4524 39.5794L37.7085 39.5585C37.5751 39.6592 37.4412 39.759 37.3055 39.8567C37.0996 40.0032 36.8939 40.1497 36.6907 40.2997L36.6113 40.3586C36.4396 40.4861 36.2685 40.6131 36.084 40.7222C35.9069 40.8204 35.7483 40.9254 35.5902 41.0523C35.5212 41.1668 35.4716 41.2487 35.4389 41.337C35.3561 41.5601 35.3805 41.823 35.4669 42.7511C35.543 42.7511 35.543 42.7511 35.87 42.5141L36.0103 42.4114C36.1555 42.3052 36.3005 42.1986 36.4453 42.0918L36.9496 41.7197C37.1216 41.5927 37.2937 41.4658 37.4658 41.3389L37.6268 41.2203C37.7331 41.1417 37.8396 41.0633 37.9462 40.985L38.0288 40.9258C38.2705 40.7527 38.5116 40.5801 38.7348 40.3829L38.872 40.2571C39.7032 39.5231 40.4017 39.4325 41.4887 39.4867C41.6511 39.495 41.8136 39.5015 41.9762 39.5062C42.456 39.5176 42.9351 39.534 43.4145 39.5585C43.3892 39.6089 43.3723 39.6428 43.3564 39.677C43.3241 39.7465 43.296 39.8179 43.2107 40.034C43.7367 40.3738 44.2643 40.7107 44.7942 41.0444C45.1168 41.2474 45.4389 41.4509 45.758 41.6595C46.3473 42.045 46.9416 42.4101 47.5581 42.7511C47.6255 42.2569 47.6823 41.7454 47.5581 41.2567C47.5067 41.1793 47.4719 41.1269 47.4289 41.0822C47.3387 40.9883 47.2126 40.9287 46.8215 40.7438C46.4721 40.5852 46.1549 40.387 45.8316 40.1809L45.5882 40.0255L44.8409 39.5585L47.0826 39.4905L46.7429 38.8792C46.6523 38.6945 46.5664 38.5455 46.4378 38.3851C46.3482 38.3234 46.2854 38.2802 46.2167 38.2511C46.0559 38.1829 45.8623 38.1918 45.2158 38.2217C45.1038 38.227 44.9917 38.2312 44.8796 38.2342C44.6198 38.24 44.3603 38.247 44.1007 38.2581L43.89 38.2678V37.7244H45.5882V36.5696H43.89V35.8903H46.0637V35.211H47.1505L47.1513 35.1737C47.1562 34.933 47.1612 34.6924 47.1638 34.4516C47.1649 34.3481 47.1661 34.2447 47.1675 34.1412C47.171 33.9889 47.1744 33.8367 47.1759 33.6844L47.177 33.5394L47.1778 33.4979L47.1784 33.4708C47.1833 33.2432 47.1867 33.0868 47.0419 32.889C46.9624 32.8289 46.9216 32.798 46.8761 32.7785C46.8281 32.7579 46.7749 32.7497 46.6656 32.733L46.4115 32.7348C46.2641 32.7347 46.1168 32.7349 45.9695 32.7369C45.8643 32.7384 45.7591 32.7394 45.6539 32.7399C45.3782 32.7406 45.1025 32.7422 44.8268 32.7451C44.5411 32.7482 44.2554 32.7501 43.9697 32.7516C43.4139 32.7542 42.8582 32.7584 42.3025 32.7638L42.1238 32.7656C42.1238 32.5541 42.0335 32.4253 41.9101 32.2575C41.8454 32.2044 41.8026 32.1693 41.754 32.1466C41.6593 32.1023 41.5427 32.1049 41.199 32.1125L40.9818 32.1246ZM36.7575 34.7356V33.9204H45.9957V34.7356H43.89V34.1921H42.6672V34.7356H40.4935V35.8903H42.6672V36.5696H40.4935V37.7244H42.6672V38.2678H40.086V34.1921H38.8633V34.7356H36.7575Z" fill="#0059C3"/>
<path d="M106.759 17.3326L106.95 17.329L107.16 17.3262L107.381 17.3225C108.104 17.3113 108.827 17.3055 109.549 17.3006C109.958 17.2977 110.367 17.293 110.775 17.2857C111.216 17.2778 111.656 17.2738 112.096 17.2722C112.263 17.2711 112.429 17.2686 112.595 17.2647C113.837 17.2372 114.741 17.4854 115.826 18.093C115.831 19 115.834 19.907 115.836 20.8141C115.838 21.2353 115.839 21.6565 115.841 22.0777C115.844 22.4847 115.845 22.8917 115.845 23.2986C115.846 23.4534 115.846 23.6082 115.847 23.763C115.857 25.1733 115.729 26.3101 114.702 27.3843C113.517 28.4575 112.092 28.4435 110.601 28.429L110.472 28.4277L110.332 28.4266L109.835 28.4247C109.449 28.4234 109.064 28.4209 108.679 28.4184L108.626 28.4181V26.3802L109.362 26.3702C109.599 26.3665 109.835 26.3626 110.072 26.3587C110.236 26.3561 110.4 26.3537 110.564 26.3516C110.8 26.3485 111.036 26.3445 111.272 26.3404L111.492 26.3381C112.203 26.3242 112.757 26.2361 113.313 25.7689C113.67 25.3385 113.74 24.8725 113.742 24.3268L113.744 24.1613C113.746 23.9861 113.747 23.811 113.748 23.6358L113.752 23.3095C113.756 22.9528 113.759 22.5961 113.762 22.2394L113.763 22.105L113.788 19.3836H107.742V28.3502C107.488 28.2482 107.319 28.1688 107.102 28.0174L106.934 27.9017L106.762 27.7813L106.422 27.5462L106.272 27.441C106.195 27.3849 106.155 27.3553 106.112 27.3312C106.064 27.3042 106.012 27.2841 105.902 27.2415C105.676 27.033 105.673 26.9874 105.655 26.6987L105.654 26.6892C105.652 26.5301 105.653 26.3711 105.655 26.212L105.654 25.9489C105.653 25.7108 105.655 25.4728 105.657 25.2348C105.658 25.0145 105.658 24.7942 105.658 24.5738L105.658 24.4869C105.658 24.0681 105.66 23.6493 105.663 23.2305C105.666 22.7468 105.667 22.2631 105.667 21.7794C105.667 21.264 105.668 20.7485 105.67 20.2331C105.67 20.0849 105.671 19.9366 105.671 19.7883C105.671 19.5116 105.673 19.2348 105.675 18.9581L105.675 18.7097C105.68 18.2706 105.682 18.1074 105.738 17.966C105.772 17.8824 105.824 17.8064 105.908 17.6854C106.183 17.4318 106.389 17.3387 106.759 17.3326Z" fill="#0059C3"/>
<path d="M60.9105 17.3128L60.6679 17.3166C60.343 17.3199 60.1287 17.3723 59.8531 17.5495C59.6768 17.7584 59.5905 17.8988 59.5479 18.1695L59.5487 18.4006C59.5481 18.537 59.5476 18.6734 59.549 18.8098C59.55 18.9095 59.5506 19.0092 59.5506 19.109C59.5502 19.3809 59.5508 19.6529 59.5526 19.9249C59.5546 20.2137 59.5555 20.5026 59.5558 20.7914C59.5564 21.337 59.5582 21.8826 59.5609 22.4282C59.564 23.0541 59.5659 23.68 59.5673 24.3059C59.5702 25.654 59.575 27.002 59.5814 28.3501C59.6474 28.3501 59.6813 28.3501 59.713 28.3416C59.7465 28.3327 59.7776 28.3143 59.8414 28.2765L59.9913 28.1736L60.1581 28.0594L60.3328 27.9382C60.4962 27.8266 60.6593 27.7144 60.8221 27.602L61.0079 27.467C61.1753 27.3653 61.3308 27.26 61.485 27.1388C61.6854 26.9188 61.6915 26.7403 61.6953 26.4499L61.6886 26.2391C61.6889 26.001 61.6882 25.7631 61.6838 25.525C61.6807 25.3681 61.6785 25.2112 61.6776 25.0543L61.6771 24.8846C61.6768 24.7809 61.6762 24.6772 61.6743 24.3556L61.6743 24.353L61.6743 24.3483C61.6589 23.1071 61.6511 22.4865 61.6443 21.8659C61.6374 21.2453 61.6313 20.6247 61.6192 19.3835H69.5668V28.3501C69.6644 28.3501 69.7203 28.3501 69.7722 28.3356C69.842 28.3161 69.9044 28.2704 70.0508 28.1633C70.2259 28.0281 70.3891 27.9039 70.5886 27.8076C70.9267 27.6534 71.2257 27.4824 71.4921 27.2204C71.7765 26.8137 71.7765 26.8137 71.7288 25.3147C71.7207 25.0675 71.7174 24.8205 71.7161 24.5732C71.7139 24.1056 71.7068 23.6382 71.6955 23.1707C71.6826 22.635 71.6753 22.0994 71.6701 21.5635C71.6625 20.7662 71.6531 19.969 71.6364 19.1718L71.6307 18.9108L71.626 18.6613L71.6206 18.436C71.6199 18.4042 71.6207 18.3731 71.6215 18.3427C71.6247 18.2235 71.6275 18.1157 71.5367 18.025C70.4043 17.3478 69.3071 17.2483 68.0227 17.2676C67.7587 17.2718 67.4947 17.2732 67.2307 17.2735C66.7866 17.2739 66.3425 17.2762 65.8985 17.2812C65.3269 17.288 64.7555 17.2921 64.1839 17.2934C63.6853 17.2945 63.1867 17.2967 62.6881 17.2999C62.5294 17.3009 62.3707 17.3019 62.212 17.3026C61.9592 17.3038 61.7063 17.3054 61.4535 17.3084C61.3603 17.3096 61.2671 17.3107 61.1738 17.3118L60.9105 17.3128Z" fill="#0059C3"/>
<path d="M118.02 17.3331L118.201 17.3298L118.4 17.3274L118.609 17.324C119.25 17.3144 119.892 17.3092 120.533 17.3051C120.963 17.3023 121.393 17.2982 121.823 17.2909C122.24 17.2837 122.657 17.2801 123.074 17.2787C123.231 17.2777 123.389 17.2754 123.546 17.2719C124.704 17.2475 125.609 17.4561 126.626 18.0251C126.717 18.1157 126.715 18.2228 126.713 18.3417C126.713 18.3718 126.712 18.4027 126.713 18.4343L126.72 18.6585L126.727 18.9066L126.735 19.1664C126.757 19.9606 126.77 20.7551 126.781 21.5496C126.788 22.0834 126.798 22.6168 126.816 23.1504C126.831 23.6162 126.841 24.0817 126.844 24.5478C126.846 24.7942 126.85 25.04 126.862 25.2862C126.927 26.7769 126.927 26.7769 126.538 27.2499C126.164 27.5839 125.751 27.8339 125.304 28.0563C125.216 28.0993 125.172 28.1204 125.132 28.1464C125.093 28.1716 125.057 28.2013 124.986 28.2599C124.931 28.2994 124.9 28.3217 124.866 28.3342C124.821 28.3502 124.771 28.3502 124.657 28.3502V19.3837H119.018L119.073 21.0246C119.081 21.3695 119.089 21.7142 119.095 22.0592C119.104 22.6057 119.115 23.1518 119.136 23.6981C119.153 24.139 119.163 24.5795 119.167 25.0207C119.17 25.1883 119.175 25.3558 119.184 25.5231C119.225 26.3738 119.239 26.6578 119.13 26.8822C119.075 26.9946 118.99 27.092 118.862 27.2382C118.484 27.5654 118.07 27.82 117.628 28.0519C117.54 28.0973 117.496 28.1197 117.456 28.1464C117.417 28.1721 117.381 28.2019 117.311 28.2603C117.255 28.2996 117.224 28.3218 117.19 28.3342C117.145 28.3502 117.095 28.3502 116.981 28.3502C116.976 27.0199 116.972 25.6896 116.97 24.3592C116.969 23.7415 116.968 23.1238 116.965 22.5061C116.963 21.9677 116.962 21.4293 116.961 20.8909C116.961 20.6058 116.961 20.3208 116.959 20.0357C116.958 19.7673 116.957 19.4989 116.958 19.2305C116.958 19.1321 116.957 19.0337 116.956 18.9353C116.955 18.8007 116.956 18.6661 116.956 18.5315L116.956 18.3034C116.995 17.9731 117.111 17.7532 117.354 17.5284C117.581 17.3755 117.753 17.3373 118.02 17.3331Z" fill="#0059C3"/>
<path d="M95.828 17.3378L96.0678 17.3375L96.3312 17.3382L96.6084 17.3382C96.8593 17.3382 97.1102 17.3386 97.3611 17.339C97.5985 17.3394 97.8358 17.3395 98.0732 17.3396L98.1477 17.3396C98.6442 17.3398 99.1408 17.3404 99.6373 17.341C100.203 17.3418 100.768 17.3422 101.333 17.3425C102.496 17.3432 103.659 17.3444 104.822 17.3459C104.735 17.5686 104.648 17.7577 104.509 17.9522L104.404 18.0994L104.295 18.2502L104.19 18.3987C104.084 18.5465 103.978 18.6938 103.871 18.8404L103.793 18.9729C103.64 19.2137 103.584 19.3022 103.505 19.3548C103.458 19.3854 103.404 19.404 103.319 19.4333C103.143 19.4507 102.975 19.4511 102.8 19.4455L102.597 19.4457C102.382 19.4453 102.167 19.4411 101.952 19.4368C101.819 19.436 101.686 19.4355 101.553 19.4352C101.113 19.4327 100.674 19.4263 100.234 19.42L100.075 19.4177L96.7382 19.3838V28.3503C96.5005 28.2552 96.3481 28.1918 96.1491 28.0521L96.0122 27.9568L95.8721 27.8578L95.5972 27.6657L95.4658 27.5706C95.3894 27.5168 95.3515 27.4902 95.3117 27.4672C95.2732 27.445 95.2327 27.4261 95.1529 27.3889C94.9033 27.2574 94.7317 27.1593 94.6445 26.882C94.6234 26.654 94.6224 26.4331 94.6277 26.2041L94.6265 25.9432C94.6254 25.7078 94.6282 25.4725 94.6317 25.2371C94.6344 25.0175 94.6345 24.7979 94.6346 24.5783L94.6347 24.4967C94.6354 24.0821 94.6385 23.6677 94.643 23.2532C94.6489 22.722 94.651 22.1909 94.652 21.6597C94.6528 21.202 94.6553 20.7444 94.6581 20.2867C94.659 20.1401 94.6596 19.9935 94.6601 19.8469C94.6613 19.573 94.6643 19.2993 94.6675 19.0254L94.6682 18.7804C94.6747 18.3647 94.6966 18.0498 94.9041 17.6856C95.2023 17.4023 95.4243 17.3374 95.828 17.3378Z" fill="#0059C3"/>
<path d="M85.4704 17.3225L85.2976 17.3226C84.9166 17.3174 84.6339 17.3266 84.3075 17.5495C84.1426 17.7582 84.0439 17.9051 84.0023 18.1696L84.0031 18.4007C84.0025 18.5371 84.002 18.6735 84.0034 18.8099C84.0044 18.9096 84.0049 19.0093 84.005 19.109C84.0046 19.381 84.0052 19.653 84.007 19.9249C84.009 20.2138 84.0098 20.5027 84.0102 20.7915C84.0108 21.3371 84.0125 21.8827 84.0152 22.4282C84.0184 23.0542 84.0203 23.6801 84.0217 24.306C84.0246 25.6541 84.0294 27.0021 84.0357 28.3501C84.0781 28.3501 84.1085 28.3501 84.138 28.3448C84.2136 28.3313 84.283 28.283 84.5301 28.1111C84.6223 28.046 84.7146 27.981 84.8071 27.9163L84.9459 27.8194C85.0475 27.7437 85.1522 27.6721 85.2585 27.6029C85.5343 27.497 85.7829 27.395 85.9947 27.182C86.0413 27.1096 86.0769 27.0543 86.1037 26.9951C86.1903 26.8033 86.1845 26.5697 86.1598 25.5805C86.1554 25.4111 86.1524 25.2417 86.1509 25.0722C86.1488 24.6277 86.1441 24.1834 86.1351 23.739C86.1257 23.2786 86.12 22.8183 86.1158 22.3579C86.1074 21.4058 86.0939 20.4539 86.0759 19.502L86.0736 19.3836C86.4349 19.3994 86.7962 19.4119 87.1578 19.4201C87.3059 19.4231 87.4539 19.4265 87.602 19.4303C87.6853 19.434 87.7693 19.4385 87.8539 19.4432C88.3026 19.4676 88.7648 19.4928 89.1983 19.3836C89.4258 19.2134 89.531 19.0755 89.6597 18.8245C89.6985 18.7271 89.7171 18.6801 89.7417 18.6365C89.7645 18.5958 89.7924 18.558 89.8463 18.485C89.9071 18.4075 89.9665 18.3289 90.0243 18.2493L90.1068 18.1354C90.2937 17.8815 90.4451 17.6421 90.5569 17.3458C89.8713 17.3415 89.1857 17.338 88.5002 17.3358L88.4179 17.3356C88.0956 17.3346 87.7733 17.3337 87.4511 17.3318C87.1087 17.3295 86.7663 17.3275 86.4239 17.3267C86.2935 17.3265 86.1631 17.3262 86.0327 17.3259C85.8453 17.3243 85.6579 17.3227 85.4704 17.3225Z" fill="#0059C3"/>
<path d="M82.4733 32.2219C82.6757 32.2201 82.8781 32.2187 83.0805 32.2177L83.2555 32.2159L83.422 32.2153L83.5761 32.2142C83.642 32.2184 83.6717 32.2203 83.6964 32.2325C83.7166 32.2424 83.7334 32.2592 83.764 32.2898C83.7883 32.4075 83.8087 32.526 83.8275 32.6446L83.865 32.8778L83.9056 33.1359L83.9489 33.406C83.98 33.6004 84.0109 33.7948 84.0417 33.9892C84.0905 34.297 84.1398 34.6048 84.1891 34.9125C84.3294 35.7878 84.469 36.6632 84.6083 37.5387C84.6851 38.0218 84.7623 38.5049 84.84 38.9879C84.889 39.2934 84.9376 39.5989 84.9858 39.9045C85.0161 40.0954 85.0468 40.2863 85.0776 40.4772C85.0984 40.6069 85.1187 40.7367 85.139 40.8665C85.1874 41.195 85.2116 41.3589 85.2522 41.5185C85.2926 41.677 85.3492 41.8314 85.4621 42.1393C85.6892 42.2907 85.7534 42.2877 86.0101 42.2754L86.0234 42.2748C86.8743 42.2555 87.0795 42.2508 87.2504 42.3249C87.3047 42.3485 87.3555 42.3799 87.4225 42.4214C87.6277 42.6325 87.7314 42.8892 87.8397 43.1584C87.9069 43.2495 87.9746 43.3402 88.0435 43.4301V43.5659C87.698 43.5727 87.3525 43.5776 87.007 43.5809C86.8897 43.5822 86.7724 43.5841 86.6552 43.5864C85.7414 43.6044 85.3998 43.6111 85.1228 43.4807C84.9574 43.4028 84.815 43.276 84.5876 43.0734C84.1224 42.6012 84.0291 41.9932 83.9335 41.3707L83.9334 41.37C83.9265 41.3251 83.9196 41.2801 83.9126 41.2351C83.8958 41.1321 83.8789 41.0291 83.862 40.9261C83.8256 40.7038 83.7897 40.4814 83.7542 40.2589C83.6926 39.8743 83.6284 39.4902 83.5642 39.106L83.4005 38.1204C83.3701 37.9377 83.3401 37.7549 83.3102 37.5721L83.2826 37.4077L83.2577 37.2536L83.2359 37.1208C83.2163 36.9365 83.2183 36.7545 83.2206 36.5693L82.96 36.5766C82.1476 36.5987 81.3352 36.615 80.5225 36.6256C80.1048 36.6313 79.6872 36.639 79.2696 36.6513C78.8661 36.6632 78.4629 36.6696 78.0593 36.6724C77.9057 36.6744 77.7522 36.6783 77.5987 36.6842C76.766 36.7149 76.524 36.7238 76.3317 36.6304C76.2529 36.5921 76.1825 36.5367 76.0832 36.4585C75.8606 36.2154 75.4767 35.7605 75.4767 35.4145H83.0168L82.8809 34.8711C82.8615 34.7698 82.8435 34.6682 82.8281 34.5662L82.8034 34.4056L82.7785 34.2385L82.7517 34.0627C82.7238 33.8793 82.6962 33.6959 82.6686 33.5125L82.6116 33.1371C82.5652 32.8321 82.5192 32.527 82.4733 32.2219Z" fill="#0059C3"/>
<path d="M80.0151 37.3763C79.7548 37.2149 79.4989 37.0917 79.2127 36.9772V41.7322C79.0148 41.7322 78.9322 41.7322 78.8501 41.7381C78.7912 41.7423 78.7325 41.7495 78.6319 41.7619L78.3763 41.8001L78.1182 41.8383L77.9221 41.868C77.935 41.4653 77.9452 41.0627 77.9519 40.6598C77.9544 40.4951 77.9572 40.3303 77.9603 40.1656C77.9681 39.9233 77.9757 39.6813 77.9792 39.4389L77.9818 39.208C77.9909 38.9951 77.9929 38.7917 77.9743 38.5794C77.9506 38.4998 77.9325 38.4389 77.9034 38.3839C77.8087 38.2049 77.5975 38.0875 76.6994 37.5886V42.0039L75.3408 42.1398V43.3625L75.3946 43.3625L75.4539 43.3627C75.6243 43.3633 75.7949 43.3639 75.9649 43.3524L76.0925 43.338L76.2418 43.3216L76.4004 43.3033C76.5798 43.2834 76.7591 43.2633 76.9384 43.2429C77.0673 43.2282 77.1962 43.2136 77.3252 43.1991C77.5965 43.1686 77.8678 43.1381 78.1391 43.1073C78.4885 43.0676 78.8378 43.028 79.1872 42.9888C80.6011 42.83 82.0143 42.6709 83.4243 42.4794V41.2567C83.1748 41.2567 82.9394 41.2678 82.6923 41.2947L82.5412 41.3119C82.0503 41.3669 81.5612 41.4324 81.0722 41.5029L80.4354 41.5963V39.6943H82.4053V38.5396H80.4354V37.7244C80.315 37.5859 80.2746 37.5393 80.2269 37.5021C80.2029 37.4833 80.177 37.4668 80.1381 37.4421L80.0151 37.3763Z" fill="#0059C3"/>
<path d="M118.829 32.3182C118.966 32.3209 119.103 32.3257 119.239 32.3325L119.452 32.3381C119.624 32.3429 119.797 32.3496 119.97 32.358C119.867 32.676 119.685 32.92 119.489 33.182L119.452 33.2326C119.043 33.7898 118.646 34.3547 118.253 34.9234C117.949 35.3637 117.637 35.7982 117.32 36.2299C117.74 36.233 117.946 36.2345 118.145 36.1976C118.338 36.1619 118.524 36.0901 118.89 35.9489C119.019 35.799 119.127 35.6556 119.222 35.4827C119.488 35.5118 119.625 35.6569 119.796 35.8367L119.82 35.8624L119.851 35.8945L120.034 36.0837L120.173 36.2299C120.066 36.4903 119.889 36.6774 119.699 36.8777L119.681 36.8964L119.572 37.0124C119.496 37.0944 119.419 37.1762 119.342 37.258C119.185 37.4247 119.029 37.5921 118.872 37.7595L118.627 38.0219C118.318 38.3529 118.011 38.6853 117.704 39.0185C117.517 39.221 117.475 39.2671 117.431 39.3117C117.418 39.3248 117.405 39.3378 117.388 39.3546L117.584 39.3359C117.827 39.3128 118.07 39.2901 118.312 39.2675C118.417 39.2577 118.522 39.2479 118.626 39.2379C118.719 39.229 118.811 39.2204 118.904 39.2117L119.08 39.1954L119.219 39.1819C119.56 39.1508 119.884 39.1508 120.23 39.1508H120.241V40.3735C119.719 40.4269 119.197 40.4801 118.675 40.5329C118.433 40.5575 118.19 40.5821 117.948 40.6069C117.714 40.631 117.479 40.6547 117.245 40.6783L116.849 40.7189C116.437 40.7601 116.035 40.7919 115.622 40.7811C115.523 39.8778 115.493 39.6063 115.589 39.3905C115.63 39.2978 115.695 39.2153 115.787 39.0975C115.974 38.9027 116.183 38.7383 116.395 38.5724L116.437 38.5394C116.528 38.443 116.616 38.3442 116.701 38.2423C116.897 38.0121 117.104 37.7996 117.32 37.5885C116.753 37.624 116.187 37.6631 115.622 37.7243C115.526 36.9113 115.569 36.3741 116.08 35.7196C116.158 35.6229 116.237 35.5266 116.316 35.4307C116.504 35.1953 116.674 34.9472 116.845 34.6988L116.913 34.5996C116.992 34.4854 117.072 34.3713 117.152 34.2573L117.271 34.088C117.492 33.7723 117.715 33.4574 117.938 33.1429L118.032 33.0102L118.123 32.8855C118.161 32.8311 118.184 32.7987 118.204 32.7648C118.233 32.7151 118.257 32.662 118.314 32.5311C118.499 32.332 118.553 32.3297 118.801 32.3193L118.829 32.3182Z" fill="#0059C3"/>
<path d="M92.4185 17.3901C92.1441 17.1954 91.8767 17.0209 91.5756 16.8703V28.3502C91.6416 28.3502 91.6755 28.3502 91.7072 28.3417C91.7407 28.3328 91.7718 28.3144 91.8356 28.2766L91.9855 28.1737L92.1523 28.0595L92.327 27.9383C92.4904 27.8267 92.6534 27.7145 92.8163 27.6021L93.0021 27.4671C93.1705 27.3682 93.3245 27.2656 93.4782 27.1447C93.5572 27.0553 93.6059 27.0001 93.6368 26.9364C93.6865 26.8339 93.6902 26.7091 93.7 26.3839L93.6979 26.144C93.703 25.8757 93.7076 25.6076 93.7071 25.3392C93.7066 25.1472 93.7069 24.9552 93.7084 24.7631C93.7121 24.3104 93.7139 23.8577 93.7123 23.405C93.7106 22.9358 93.7119 22.4669 93.7187 21.9978C93.7247 21.5913 93.7283 21.1849 93.7281 20.7784L93.7279 20.6882C93.7273 20.476 93.7267 20.2637 93.73 20.0515C93.7315 19.9724 93.7335 19.8928 93.7356 19.8129C93.7493 19.2825 93.7634 18.7366 93.6134 18.2288C93.4371 17.9512 93.2033 17.7975 92.9104 17.6589C92.7246 17.577 92.5826 17.5029 92.4185 17.3901Z" fill="#0059C3"/>
<path d="M121.722 36.5988L121.957 36.5988L122.208 36.6041L122.467 36.6056C122.694 36.6072 122.92 36.6102 123.147 36.614C123.359 36.6172 123.572 36.6188 123.784 36.6203L123.841 36.6207C124.294 36.6245 124.747 36.6303 125.2 36.6373V37.86H122.211V42.3433L124.058 42.3263L124.64 42.3231C124.792 42.3211 124.945 42.319 125.097 42.3168L125.336 42.3165C125.556 42.3141 125.665 42.3129 125.77 42.2913C125.873 42.2701 125.972 42.2292 126.169 42.1481C126.315 41.97 126.313 41.8706 126.309 41.6534L126.308 41.6258C126.334 41.395 126.367 41.2448 126.533 41.0778C127.164 40.5769 127.298 40.4702 127.445 40.4474C127.485 40.4413 127.526 40.4413 127.578 40.4413C127.588 40.7215 127.594 41.0016 127.599 41.2819L127.608 41.5199C127.616 42.1037 127.526 42.5776 127.118 43.0161C126.657 43.4404 126.197 43.5769 125.585 43.5737L125.434 43.5737C125.27 43.5737 125.106 43.5732 124.942 43.5726L124.601 43.5723C124.302 43.5721 124.002 43.5714 123.703 43.5707C123.423 43.57 123.143 43.5697 122.863 43.5694L122.786 43.5693C122.187 43.5686 121.588 43.5674 120.989 43.566C120.981 42.7128 120.975 41.8595 120.971 41.0063C120.969 40.6101 120.967 40.2139 120.963 39.8177C120.959 39.4354 120.957 39.0531 120.956 38.6708C120.956 38.5249 120.955 38.379 120.953 38.2331C120.95 38.0288 120.95 37.8247 120.95 37.6204L120.946 37.4374C120.949 37.1452 120.963 37.0135 121.136 36.7693C121.355 36.6187 121.459 36.5958 121.722 36.5988Z" fill="#0059C3"/>
<path d="M41.2613 26.3099C40.3031 26.3247 39.3457 26.3495 38.3879 26.3803V28.4182H47.1506C47.1506 28.3263 47.1506 28.2758 47.1373 28.2292C47.121 28.1724 47.085 28.1212 47.0051 28.0077C46.8991 27.8668 46.8062 27.7302 46.7216 27.5752C46.5226 27.1923 46.3096 26.8348 46.0206 26.5125C45.62 26.1828 45.62 26.1828 44.3756 26.2367C44.2123 26.244 44.0489 26.2489 43.8854 26.2514C43.4553 26.2549 43.0257 26.263 42.5958 26.2778C42.151 26.2933 41.7063 26.3029 41.2613 26.3099Z" fill="#0059C3"/>
<path d="M64.4044 19.7912C64.6851 19.9035 64.8722 20.0046 65.1142 20.1757L65.3226 20.322L65.5379 20.4747C65.6797 20.5746 65.8215 20.6745 65.9633 20.7743L66.1529 20.9086C66.2311 20.965 66.2676 20.9913 66.3063 21.0138C66.3401 21.0335 66.3756 21.0503 66.4419 21.0817C66.464 21.8493 66.4812 22.6169 66.4915 23.3848C66.4965 23.7414 66.5032 24.0978 66.514 24.4543C66.5244 24.7988 66.53 25.143 66.5325 25.4876C66.5342 25.6186 66.5376 25.7497 66.5428 25.8806C66.5805 26.88 66.5805 26.88 66.3488 27.1807C66.0926 27.4211 65.8016 27.5785 65.4912 27.7388C65.3969 27.8034 65.3035 27.8697 65.2124 27.9388L65.003 28.0869L64.7878 28.2403C64.6967 28.296 64.6517 28.3235 64.603 28.337C64.5557 28.3501 64.5047 28.3501 64.4044 28.3501V19.7912Z" fill="#0059C3"/>
<path d="M99.7992 26.3203C99.0955 26.3328 98.3925 26.3539 97.6892 26.3801V28.418H104.482C104.482 28.3204 104.482 28.2645 104.468 28.2126C104.448 28.1428 104.402 28.0804 104.295 27.934L104.29 27.927C104.153 27.7541 104.033 27.6019 103.952 27.3955C103.85 27.111 103.729 26.8641 103.538 26.6283C103.425 26.5251 103.34 26.4469 103.242 26.389C102.937 26.2083 102.516 26.2249 100.779 26.293C100.453 26.3062 100.126 26.3143 99.7992 26.3203Z" fill="#0059C3"/>
<path d="M120.717 32.5615C121.373 32.5505 122.03 32.542 122.687 32.5369C122.992 32.5344 123.297 32.5311 123.602 32.5257C123.897 32.5205 124.192 32.5177 124.487 32.5164C124.599 32.5156 124.711 32.5139 124.823 32.5113C125.616 32.4936 126.149 32.6145 126.83 33.037C126.856 33.6795 126.875 34.3217 126.887 34.9645C126.892 35.2631 126.9 35.5613 126.912 35.8597C126.972 37.3468 126.986 37.689 126.867 37.9759C126.831 38.0617 126.784 38.1425 126.722 38.2475C126.443 38.5455 126.131 38.6964 125.743 38.8109H125.608V33.7843L125.601 33.7845C124.94 33.8058 124.609 33.8165 124.277 33.8287C123.945 33.8409 123.612 33.8547 122.948 33.8822C122.014 33.9076 121.761 33.9145 121.55 33.8232C121.472 33.7893 121.399 33.7416 121.299 33.6763C121.014 33.3924 120.851 33.0731 120.717 32.6974V32.5615Z" fill="#0059C3"/>
<path d="M42.1197 42.2557C40.9916 41.9996 39.8637 41.7461 38.7274 41.5284C38.6837 41.6408 38.6535 41.7183 38.6288 41.7976C38.574 41.9735 38.5459 42.1577 38.4557 42.7511C39.0562 42.8872 39.6569 43.023 40.2576 43.1583L40.3386 43.1765C40.6185 43.2395 40.8985 43.3025 41.1784 43.3659C41.4783 43.4339 41.7782 43.5018 42.0783 43.5693L42.4226 43.6466L42.4737 43.6583C43.0792 43.7963 43.6754 43.9321 44.2975 43.9738C44.4025 43.5886 44.4663 43.2166 44.5013 42.819C44.3906 42.7821 44.3399 42.7653 44.2887 42.7507C44.2457 42.7386 44.2022 42.728 44.1222 42.7087L43.6671 42.6054L43.269 42.5154C43.0806 42.4728 42.8922 42.4301 42.7038 42.3876C42.5091 42.3437 42.3143 42.2998 42.1197 42.2557Z" fill="#0059C3"/>
<path d="M76.4277 32.9013H81.794V34.124H76.4277V32.9013Z" fill="#0059C3"/>
<path d="M120.241 42.9548V41.7321C120.184 41.7321 120.151 41.7321 120.118 41.7333C120.072 41.7349 120.027 41.7386 119.919 41.7476L117.369 41.9803C116.786 42.0333 116.204 42.0865 115.622 42.1397V43.3624L115.748 43.3626C115.945 43.3631 116.143 43.3636 116.34 43.353L116.492 43.3396L116.667 43.3245L116.851 43.3078L117.25 43.2725C117.456 43.2538 117.663 43.2352 117.869 43.217C118.663 43.1475 119.452 43.0676 120.241 42.9548Z" fill="#0059C3"/>
<path d="M40.0183 39.9659C40.4454 40.0118 40.8574 40.0922 41.2762 40.1867L41.4781 40.2316C41.6179 40.2627 41.7577 40.294 41.8975 40.3254C42.1117 40.3736 42.3261 40.4213 42.5405 40.469L43.1432 40.6036L43.4816 40.6796C43.5358 40.6929 43.5686 40.7009 43.601 40.71C43.6505 40.7238 43.6992 40.74 43.8222 40.781C43.7825 41.1987 43.7132 41.5953 43.6184 42.0037C42.4323 41.7798 41.2573 41.5074 40.0817 41.2348L39.8824 41.1886C39.8119 40.8868 39.8358 40.6884 39.9121 40.3862L39.9713 40.1471L40.0183 39.9659Z" fill="#0059C3"/>
<path d="M92.0595 14.1235C91.8976 14.1308 91.7372 14.1399 91.5756 14.1532C91.5714 14.3441 91.568 14.5351 91.5656 14.726L91.5628 14.9598L91.5576 15.192L91.5557 15.4136C91.5539 15.5264 91.5531 15.5771 91.5566 15.6275C91.5594 15.6685 91.5652 15.7093 91.5755 15.7833C91.6956 15.8633 91.8154 15.9442 91.9343 16.0261C92.06 16.1132 92.1859 16.2001 92.3119 16.2868L92.5181 16.4288L92.7226 16.5707L92.9209 16.7068C93.1564 16.8695 93.3417 16.9654 93.6134 17.0741V14.6287C93.4742 14.5591 93.3543 14.4925 93.2447 14.4317C92.8882 14.2338 92.6407 14.0964 92.1925 14.1114L92.0595 14.1235Z" fill="#0059C3"/>
<path d="M84.6469 35.4148C84.9284 35.3996 85.2097 35.3886 85.4915 35.3812C85.5871 35.3782 85.6827 35.374 85.7782 35.3687C86.311 35.3398 86.4836 35.3304 86.6255 35.3919C86.6934 35.4213 86.7544 35.467 86.8445 35.5345C86.9702 35.6931 87.064 35.8482 87.1603 36.0262L87.4999 36.5696H84.8507C84.7442 36.1436 84.7119 36.0144 84.6935 35.8833C84.6855 35.8263 84.6801 35.7689 84.6724 35.6865L84.657 35.5294L84.6469 35.4148Z" fill="#0059C3"/>
<path d="M85.6984 32.9662C85.502 32.778 85.3132 32.5971 85.0544 32.4938C84.9859 32.6041 84.9516 32.6595 84.9123 32.711C84.8728 32.7629 84.8283 32.8109 84.7391 32.9072L84.6426 33.0118L84.4534 33.2182L84.3072 33.3769C84.5426 33.615 84.7822 33.848 85.0256 34.0778L85.1606 34.2048L85.2963 34.3341L85.4283 34.4582C85.5886 34.6098 85.7362 34.7121 85.9375 34.8034L86.0665 34.6643L86.2347 34.4807C86.4193 34.2803 86.5775 34.1044 86.6847 33.8524C86.4879 33.6876 86.2927 33.5222 86.1044 33.3477L85.9906 33.241C85.912 33.1675 85.8334 33.0939 85.7549 33.0203C85.736 33.0022 85.7171 32.9841 85.6984 32.9662Z" fill="#0059C3"/>
</svg>
