<svg width="164" height="56" viewBox="0 0 164 56" fill="none" xmlns="http://www.w3.org/2000/svg">
<rect width="164" height="56" rx="6.58824" stroke="#EAECF0"/>
<rect x="0.5" y="0.5" width="163" height="55" rx="6.08824" fill="white" stroke="#EAECF0"/>
<path d="M87.0808 40.3041V34.8814H88.3445V40.3041H87.0808ZM87.6988 34.3398C87.2544 34.3398 86.9697 34.0065 86.9697 33.6177C86.9697 33.2082 87.2822 32.8887 87.7126 32.8887C88.1779 32.8887 88.4556 33.2011 88.4556 33.6177C88.4556 33.9996 88.1779 34.3398 87.7126 34.3398H87.6988Z" fill="#D91A21"/>
<path d="M120.541 34.915C121.034 34.9151 121.527 35.0401 121.979 35.2969C122.346 35.4981 122.659 35.7763 122.888 36.1025L121.888 36.832C121.825 36.6725 121.735 36.5475 121.638 36.4434C121.36 36.11 121.006 35.9355 120.555 35.9355C120.138 35.9356 119.785 36.1101 119.507 36.4434C119.215 36.7766 119.076 37.2135 119.076 37.748C119.076 38.2826 119.215 38.7201 119.507 39.0674C119.791 39.3935 120.138 39.5537 120.555 39.5537C120.992 39.5537 121.346 39.3939 121.624 39.0537C121.735 38.9287 121.825 38.7893 121.888 38.6436L122.901 39.373C122.672 39.7132 122.367 39.9842 121.992 40.1855C121.562 40.4493 121.062 40.5674 120.541 40.5674C119.763 40.5674 119.096 40.2758 118.541 39.7412C117.986 39.1927 117.708 38.5326 117.708 37.748C117.708 36.9081 118.027 36.2069 118.652 35.6445C119.194 35.1654 119.833 34.915 120.541 34.915ZM125.783 34.9014C126.297 34.9014 126.755 35.0266 127.206 35.2832C127.657 35.5331 128.012 35.8873 128.248 36.2969C128.498 36.7413 128.63 37.221 128.63 37.707C128.63 38.2205 128.491 38.6856 128.248 39.1299C127.998 39.5672 127.658 39.9289 127.228 40.165C126.79 40.4219 126.311 40.5322 125.797 40.5322C125.019 40.5322 124.367 40.2682 123.825 39.7197C123.27 39.1713 123.006 38.5052 123.006 37.7139C123.006 36.8807 123.319 36.1862 123.937 35.6377C124.471 35.1518 125.096 34.9014 125.783 34.9014ZM104.967 38.3037C104.967 38.8592 105.28 39.5742 106.085 39.5742C106.856 39.5742 107.244 38.998 107.244 38.3037V35.0264H108.605V40.4209H107.432L107.369 39.7969C107.357 39.8179 106.926 40.5186 105.654 40.498C104.675 40.484 103.6 39.8517 103.6 38.1924V35.0264H104.967V38.3037ZM77.7949 33.3389C78.4336 33.3389 79.0518 33.5198 79.6211 33.8184C80.0793 34.096 80.4681 34.4292 80.7734 34.8525L79.6006 35.6934C79.5313 35.4921 79.4056 35.3179 79.2666 35.1514C78.8778 34.7142 78.3922 34.4776 77.7812 34.4775C77.1912 34.4775 76.6984 34.7139 76.3096 35.165C75.9138 35.6163 75.7188 36.2071 75.7188 36.9082C75.7188 37.6372 75.9139 38.2273 76.3096 38.6924C76.6914 39.1297 77.1772 39.3516 77.7812 39.3516C78.3712 39.3515 78.857 39.1299 79.2666 38.6719C79.3985 38.4984 79.5242 38.3242 79.6006 38.1299C79.5938 38.1437 80.4608 38.7692 80.7666 38.9775C80.4611 39.3869 80.0931 39.748 79.6211 40.0117C79.0727 40.3241 78.4614 40.4697 77.7949 40.4697C76.816 40.4696 75.9755 40.1158 75.2812 39.4424C74.5872 38.7411 74.2402 37.9146 74.2402 36.915C74.2402 35.8736 74.6295 34.9777 75.4209 34.2764C76.1082 33.6586 76.8994 33.3389 77.7949 33.3389ZM97.5771 34.7764C98.2363 34.7765 98.8261 35.0265 99.3467 35.5469V34.915H100.659V40.2891H99.3398V39.7129C98.8052 40.2058 98.2292 40.4424 97.6113 40.4424C96.8268 40.4424 96.1875 40.1783 95.6738 39.6299C95.174 39.0953 94.9103 38.408 94.9102 37.5889C94.9102 36.7835 95.1671 36.1098 95.6738 35.5752C96.1806 35.0475 96.8203 34.7764 97.5771 34.7764ZM112.64 34.9434C113.612 34.9711 114.514 35.6028 114.507 37.2549V40.4219H113.236V37.1582C113.236 36.5888 113.008 35.8946 112.202 35.8945C111.445 35.8945 111.043 36.443 111.043 37.1582V40.4219H109.688V35.0264H110.869L110.925 35.6582C110.933 35.6447 111.367 34.9295 112.64 34.9434ZM135.406 34.9707C136.309 34.9985 137.129 35.6239 137.129 37.2627V40.4219H135.886V37.1719C135.886 36.6096 135.663 35.9083 134.935 35.9082C134.303 35.9082 133.893 36.3387 133.879 37.2549V40.4219H132.636V37.1719C132.636 36.6096 132.428 35.9085 131.699 35.9082C130.991 35.9082 130.623 36.4707 130.623 37.1719V40.4219H129.255V35.0264H130.477L130.532 35.6719C130.542 35.6568 131.024 34.9433 132.164 34.9707C132.726 34.9985 133.261 35.249 133.573 35.8184C134.038 35.2976 134.601 34.9569 135.406 34.9707ZM82.6279 35.5332C82.6372 35.5202 83.1312 34.832 84.1904 34.832C85.1623 34.8322 86.0644 35.4849 86.0645 37.123V40.3105H84.8076V37.0264C84.8076 36.464 84.5856 35.7627 83.7939 35.7627C83.0165 35.7628 82.6348 36.3321 82.6348 37.0264V40.3105H81.2598L81.2529 32.4922H82.6279V35.5332ZM92.4043 34.832C93.3761 34.8322 94.2715 35.4715 94.2715 37.1309V40.3105H93.0215V37.0264C93.0215 36.4709 92.7857 35.7559 91.9873 35.7559C91.2236 35.7559 90.8066 36.339 90.8066 37.0264V40.3105H89.46V34.9014H90.626L90.6885 35.5332C90.6885 35.5332 91.1059 34.8042 92.4043 34.832ZM97.8125 35.8945C97.3612 35.8946 96.9791 36.0615 96.6807 36.3877C96.3894 36.7001 96.251 37.117 96.251 37.5889C96.251 38.1023 96.3894 38.5118 96.6738 38.8311C96.9724 39.1435 97.3475 39.3242 97.7988 39.3242C98.2986 39.3242 98.6809 39.165 98.9795 38.8457C99.2781 38.5124 99.4305 38.1093 99.4238 37.6094C99.4238 37.1167 99.2711 36.7001 98.9727 36.3877C98.6742 36.0614 98.2916 35.8945 97.8125 35.8945Z" fill="black"/>
<path d="M125.876 35.8438C126.327 35.8438 126.688 36.0175 126.979 36.3574C127.257 36.7324 127.41 37.1702 127.41 37.7188C127.41 38.2808 127.257 38.7387 126.959 39.0928C126.681 39.4399 126.306 39.6142 125.876 39.6143C125.432 39.6143 125.091 39.4405 124.793 39.1074C124.515 38.7465 124.376 38.288 124.376 37.7188C124.376 37.1842 124.515 36.7252 124.813 36.3711C125.091 36.0171 125.439 35.8438 125.876 35.8438Z" fill="#F5F5F5"/>
<path d="M115.525 40.7269V35.3322H116.789V40.7269H115.525Z" fill="#D91A21"/>
<path d="M115.416 33.99C115.416 34.3719 115.701 34.6982 116.145 34.6982H116.159C116.624 34.6982 116.902 34.365 116.902 33.99C116.902 33.5596 116.624 33.2402 116.159 33.2402C115.728 33.2402 115.416 33.5665 115.416 33.99Z" fill="#D91A21"/>
<path d="M37.9001 32.7202L40.5361 30.0933L38.4545 28.016L40.5361 25.9063L37.9001 23.3037L35.8265 25.3728L34.4523 23.9907C32.2663 21.7841 28.6738 21.7841 26.4798 23.9907C25.3706 25.098 24.8242 26.561 24.8242 28.016C24.8242 29.4548 25.3628 30.9095 26.4798 32.025C28.6738 34.2397 32.2662 34.2397 34.4523 32.025C34.9126 31.5666 35.3707 31.1058 35.8265 30.6427L37.9001 32.7202ZM31.8565 29.3739C31.0849 30.1499 29.8553 30.1499 29.0918 29.3739C28.7221 29.0022 28.5372 28.4929 28.5372 28.0079C28.5372 27.49 28.7358 26.9921 29.0918 26.6177C29.8551 25.85 31.0849 25.85 31.8565 26.6177C32.4592 27.232 33.2227 28.0079 33.2227 28.0079C33.2227 28.0079 32.4592 28.7516 31.8565 29.3739ZM66.5996 23.9828C64.4055 21.7762 60.8211 21.7762 58.6191 23.9828C58.0002 24.6214 57.2448 25.3649 57.2448 25.3649L55.1631 23.2877L52.5512 25.8903L54.6246 27.9999L52.5512 30.0772L55.1631 32.7042L57.2367 30.6188C57.2367 30.6188 57.9922 31.3705 58.611 32.0011C60.8132 34.2158 64.3975 34.2158 66.5915 32.0011C67.6926 30.8856 68.247 29.4307 68.247 27.9921C68.247 26.5534 67.7007 25.0901 66.5996 23.9828ZM63.9796 29.3739C63.2241 30.1499 61.9946 30.1499 61.231 29.3739C60.6122 28.7516 59.8567 28.0079 59.8567 28.0079C59.8567 28.0079 60.6122 27.232 61.231 26.6177C61.9945 25.85 63.2241 25.85 63.9796 26.6177C64.3573 26.9977 64.5422 27.4988 64.5422 28.0079C64.5422 28.4929 64.3655 29.002 63.9796 29.3739ZM49.1758 28.0079C49.1758 28.0079 55.3079 21.8327 55.9108 21.2184C58.1207 19.0037 58.1207 15.4151 55.9108 13.1843C53.7166 10.9776 50.1483 10.9776 47.9301 13.1843C47.0702 14.0732 46.564 14.5745 46.564 14.5745C46.564 14.5745 46.0656 14.0732 45.1977 13.1843C42.9876 10.9776 39.4192 10.9776 37.2091 13.1843C35.007 15.4151 35.007 19.0037 37.2091 21.2184L43.96 28.0079C43.96 28.0079 37.8199 34.1589 37.2091 34.7813C35.007 36.996 35.007 40.5928 37.2091 42.8156C39.4192 45.0221 42.9876 45.0221 45.1977 42.8156C46.0656 41.9265 46.564 41.4092 46.564 41.4092C46.564 41.4092 47.0702 41.9265 47.9301 42.8156C50.1484 45.0221 53.7166 45.0221 55.9108 42.8156C58.1207 40.5928 58.1207 36.996 55.9108 34.7813C55.3079 34.1589 49.1758 28.0079 49.1758 28.0079ZM39.8209 18.5915C39.0735 17.8156 39.0735 16.5951 39.8209 15.8272C40.5843 15.0755 41.822 15.0755 42.5695 15.8272L43.9518 17.2173L41.8702 19.2947L44.4742 21.9296L46.5557 19.8362L48.6373 21.9296L51.2412 19.2947L49.1677 17.2173C49.1677 17.2173 49.8106 16.5627 50.5501 15.8272C51.3055 15.0755 52.5352 15.0755 53.2906 15.8272C54.054 16.595 54.054 17.8156 53.2906 18.5915C52.4948 19.3917 46.5316 25.4053 46.5316 25.4053C46.5316 25.4053 40.6004 19.3917 39.8209 18.5915ZM53.3068 40.1806C52.5513 40.9323 51.3217 40.9323 50.5663 40.1806C49.8268 39.4451 49.184 38.7984 49.184 38.7984L51.2574 36.7049L48.6536 34.0779L46.564 36.1633L44.4823 34.0699L41.8785 36.6967L43.96 38.7903C43.96 38.7903 43.3091 39.437 42.5777 40.1725C41.8304 40.9241 40.5927 40.9241 39.8291 40.1725C39.0817 39.4127 39.0817 38.1598 39.8291 37.4081C40.6087 36.6079 46.556 30.5943 46.556 30.5943C46.556 30.5943 52.5193 36.6079 53.3149 37.4081C54.0702 38.1598 54.0702 39.4208 53.3068 40.1806Z" fill="#D91A21"/>
<path fill-rule="evenodd" clip-rule="evenodd" d="M86.9199 17.5717H82.4835V15.6465H80.1562V17.5717H77.2471V18.9674H80.1562V24.5513H76.5636V17.5717H74.2363V25.9033H80.171V29.8706H80.5344C81.858 29.812 82.4545 29.2242 82.4983 28.2396V25.9033H86.411C87.4582 25.9033 88.331 25.0658 88.389 23.9635V18.9823C88.3307 18.2034 87.7199 17.5717 86.9199 17.5717ZM120.695 23.5376H118.324L121.044 29.709H119.051L117.059 25.1684L115.604 28.8273C115.386 29.3121 114.848 29.6941 114.295 29.6941H113.291L115.648 23.552H113.641V22.1706H115.91V20.0841H113.641V18.7177H115.371L113.975 16.337L115.051 15.6614C115.051 15.6614 115.895 16.4991 116.869 17.8655L115.72 18.703H117.117L119.037 15.6467L120.52 16.7195L118.964 18.7033H120.695V20.0697H118.047V22.1562H120.695V23.5376ZM131.211 18.6589C130.353 18.0711 129.349 17.6302 129.349 17.6302L128.636 18.5559L129.349 19.2025H126.585V27.4314H127.138C127.749 27.4314 128.433 27.0201 128.433 26.197V25.0656H130.556V27.4314H131.153C131.851 27.4314 132.375 27.0494 132.404 26.1823V25.0658H134.556V25.6241C134.556 25.8738 134.236 26.05 134.004 26.05H133.175L133.538 27.446H134.877C135.778 27.446 136.52 26.7259 136.52 25.7854V20.3485C136.52 19.7165 135.997 19.2169 135.4 19.2169H133.247L136.098 17.4977V15.9255H126.484V17.2773H133.509L131.211 18.6589ZM126.367 28.0633C125.873 28.0633 125.48 27.6518 125.48 27.167V20.0695H122.411V21.4508H123.429V27.7106C123.429 28.7685 124.345 29.4298 125.073 29.4298H136.723V28.0633H126.367ZM123.633 16.2196C123.633 16.2196 124.738 16.9836 125.742 18.4091L124.375 19.4524L122.557 16.9983L123.633 16.2196ZM113.727 24.7424L112.825 25.007V17.3366C112.825 16.4696 112.302 15.9406 111.662 15.9406H106.847V17.3366H110.891V19.4526H109.232V18.0271H107.414V26.5353L106.614 26.7852V28.2989L110.891 27.0791V29.8711H111.662C112.258 29.8711 112.651 29.4891 112.825 28.7544V26.5502L113.727 26.2856V24.7424ZM93.3344 15.9111H102.949C103.778 15.9111 104.432 16.587 104.433 17.3949V27.4902C104.433 28.6072 103.545 29.474 102.484 29.474H90.4983V15.9111H92.6219V28.0926H101.422C101.902 28.0926 102.28 27.7255 102.28 27.2258V17.2629H93.3344V15.9111ZM101.567 25.389H100.534L101.218 24.5222C100.316 23.6848 99.589 23.2583 99.589 23.2583L98.789 24.0665L99.9526 25.389H98.3671V23.0967H101.509V21.7154H98.3671V20.0109H101.509V18.6442H93.3929V20.0109H96.2292V21.7154H93.3929V23.0967H96.2292V25.389H93.3347V26.7557H101.567L101.567 25.389ZM134.571 20.5689V21.4945H132.418V20.5689H134.571ZM130.571 21.4948H128.447V20.5692H130.571V21.4948ZM130.571 23.7282H128.447V22.8026H130.571V23.7282ZM132.418 23.7282H134.571V22.8026H132.418V23.7282ZM86.0115 23.9934C86.0551 23.886 86.077 23.7709 86.0761 23.6548V18.9526H82.4979V24.5367H85.2034C85.3182 24.5376 85.4321 24.5154 85.5384 24.4714C85.6447 24.4274 85.7413 24.3625 85.8225 24.2804C85.9038 24.1983 85.968 24.1008 86.0115 23.9934ZM110.876 22.4944H109.218V20.819H110.876V22.4944ZM110.876 25.5361L109.218 26.0062V23.8755H110.876V25.5361Z" fill="black"/>
</svg>
