<svg width="164" height="56" viewBox="0 0 164 56" fill="none" xmlns="http://www.w3.org/2000/svg">
<rect width="164" height="56" rx="6.58824" stroke="#EAECF0"/>
<rect x="0.5" y="0.5" width="163" height="55" rx="6.08824" fill="white" stroke="#EAECF0"/>
<g clip-path="url(#clip0_53672_556008)">
<path d="M64.0218 31.3127C61.4652 27.9325 57.6389 24.4837 56.5922 23.5915C55.8716 22.9738 55.0994 22.6992 54.3788 22.6992C53.6581 22.6992 52.9375 23.0252 52.3198 23.54C52.2168 23.6429 52.0453 23.8145 51.8222 23.9861C50.3123 25.273 45.6109 29.5969 45.4908 29.717C45.1648 30.043 44.65 30.266 44.1524 30.266C43.7063 30.266 43.2087 30.043 42.7111 29.5969C42.3851 29.2709 40.7722 27.984 38.8848 25.8735C37.7181 24.6038 36.7744 23.437 36.7744 23.437C36.7744 23.437 36.5513 23.8831 36.4483 24.1577C36.3454 24.4322 36.4483 24.5523 36.4998 24.6553C37.1175 25.5475 40.0001 28.9792 43.9294 32.3765C44.65 32.9942 45.4222 33.2687 46.1428 33.2687C46.8635 33.2687 47.5841 32.9427 48.2018 32.428C48.3047 32.325 48.5278 32.1535 48.6994 31.9819C50.1922 30.7122 53.0748 28.1041 54.4131 26.8172C54.6876 26.5427 54.9107 26.3711 55.0308 26.2682C55.3568 25.9421 55.8716 25.7191 56.3692 25.7191C56.8153 25.7191 57.3129 25.9421 57.8105 26.3883C58.6512 27.1089 60.0239 28.3786 61.6368 30.043C62.8035 31.3127 63.7472 32.4795 63.7472 32.4795C63.7472 32.4795 63.9703 32.0333 64.0733 31.7073C64.1934 31.5358 64.0733 31.3813 64.0218 31.3127Z" fill="#95C122"/>
<path d="M48.8183 18.8895C47.48 19.8332 42.0408 24.8777 40.9941 26.096C40.9941 26.096 41.7663 26.9367 42.8816 27.8633C43.1561 28.1378 43.5507 28.0863 43.8253 27.7603C45.9357 25.6499 50.2082 21.875 50.7572 21.4289C52.3701 20.0391 54.2575 19.9361 55.9734 21.2059C60.1428 24.3115 63.849 29.2531 64.4667 30.1968C64.4667 30.1968 64.5697 29.7507 64.6383 29.3561C64.6383 29.3561 64.6898 28.9614 64.5354 28.6354C60.5889 22.9732 56.4366 19.4729 54.8238 18.5978C53.0908 17.6712 50.9288 17.3281 48.8183 18.8895Z" fill="#0E84C7"/>
<path d="M44.3748 15.886C41.7152 18.048 38.2321 21.2737 37.3398 22.2174C37.3398 22.2174 38.009 23.0582 39.0042 24.0534C39.2273 24.2249 39.3988 24.1563 39.6219 24.0019C42.2814 21.4453 45.164 18.7858 46.8284 17.4989C49.6595 15.3369 52.9368 15.1139 56.214 17.6705C57.4322 18.6142 58.4961 19.5579 60.0403 21.1708C62.0307 23.3327 63.3175 25.1687 64.7588 27.2105C64.7588 27.2105 64.7588 26.6614 64.5873 25.9408C64.5873 25.8378 64.5358 25.6148 64.4157 25.4432C64.1411 24.8941 62.8543 22.7322 61.0355 20.6217C57.4322 16.4008 55.1502 15.131 53.6574 14.3589C51.77 13.3466 47.9952 13.0549 44.3748 15.886Z" fill="#0E84C7"/>
<path d="M51.6502 37.1455C52.9885 36.2018 58.4277 31.1572 59.4744 29.939C59.4744 29.939 58.7023 29.0982 57.587 28.1717C57.3124 27.8972 56.9178 27.9486 56.6433 28.2746C54.4813 30.3336 50.2089 34.1085 49.6598 34.5374C48.0469 35.9273 46.1595 36.0302 44.4437 34.7605C40.2742 31.6548 36.568 26.7132 35.9503 25.7695C35.9503 25.7695 35.8474 26.2156 35.7787 26.6103C35.7787 26.6103 35.7273 27.0049 35.8817 27.3309C39.8281 32.9932 43.9804 36.4935 45.5933 37.3686C47.4292 38.3637 49.5397 38.6383 51.6502 37.1455Z" fill="#0E84C7"/>
<path d="M56.044 40.0788C58.7035 37.9169 62.2038 34.6911 63.096 33.7474C63.096 33.7474 62.4269 32.9066 61.4317 31.9115C61.2086 31.7399 61.037 31.8085 60.8826 31.9629C58.2231 34.5195 55.3405 37.1791 53.6761 38.4488C50.845 40.6107 47.5678 40.8338 44.2905 38.2772C43.0723 37.3335 42.0085 36.3898 40.4642 34.7769C38.4395 32.6493 37.1698 30.8133 35.7285 28.7715C35.7285 28.7715 35.7285 29.2691 35.9001 30.0412C35.9516 30.1442 35.9516 30.3672 36.0717 30.5388C36.3462 31.0879 37.6331 33.2498 39.4519 35.4289C43.0551 39.6499 45.3372 40.9196 46.83 41.6917C48.7174 42.6354 52.5437 42.9614 56.044 40.0788Z" fill="#0E84C7"/>
<path d="M77.7303 15.2344H76.3404V17.791H71.1758V24.8945H76.3404V28.7208H77.7303V24.8774H82.9464V17.7738H77.7303V15.2344ZM76.3919 23.6076H72.5656V18.992H76.3919V23.6076ZM81.608 23.6076H77.7817V18.992H81.608V23.6076Z" fill="#0E84C7"/>
<path d="M94.0492 22.166L93.1055 22.8867L93.2084 22.9896C93.6031 23.3843 94.1007 23.9848 94.4781 24.551L94.5296 24.654L95.5248 23.8818L95.4733 23.7789C95.1473 23.3328 94.5811 22.7322 94.135 22.2175L94.0492 22.166Z" fill="#0E84C7"/>
<path d="M96.1569 24.8251H92.7081V22.0455H95.5907V20.8787H92.7081V19.1114H95.8652V17.9961H88.3842V19.1114H91.4898V20.8787H88.6587V22.0455H91.4898V24.8251H88.1611V25.9919H96.1569V24.8251Z" fill="#0E84C7"/>
<path d="M86.1699 28.3266H98.095V15.7324H86.1699V28.3266ZM96.8081 27.1599H87.4225V16.8992H96.8081V27.1599Z" fill="#0E84C7"/>
<path d="M106.247 22.9897C105.698 22.4921 104.085 21.2224 104.085 21.2224V20.5532H105.921V19.335H104.085V17.3961C105.423 17.173 105.972 17.0014 105.972 17.0014L105.698 15.7832C105.698 15.7832 104.531 16.0577 103.313 16.2293C101.751 16.4524 100.876 16.5039 100.876 16.5039L100.979 17.7221C100.979 17.7221 101.974 17.6191 102.815 17.4476V19.2835H100.705V20.5017H102.643C102.146 22.1146 101.305 23.6589 100.481 24.8771C100.481 24.8771 101.374 25.8723 101.374 25.8208C101.923 25.0487 102.42 24.1565 102.815 23.2128V28.6005H104.033V22.7666C104.479 23.2128 104.925 23.6074 105.303 23.9334L105.406 24.0364L106.298 23.0412L106.247 22.9897Z" fill="#0E84C7"/>
<path d="M110.571 22.0468C110.794 21.7722 110.897 21.4291 110.897 21.4291L109.679 21.206C109.902 21.1031 110.125 20.9315 110.348 20.8114C111.841 19.8677 112.853 18.7524 113.505 17.4827V17.4312V16.3159H109.233C109.336 16.0928 109.508 15.8698 109.628 15.6467L109.679 15.5438L108.512 15.0977L108.478 15.2349C107.809 16.5733 106.814 17.7915 105.595 18.7867C105.595 18.7867 106.265 19.2843 106.591 19.5588C107.311 18.8896 107.98 18.2205 108.427 17.6199H112.081C111.412 18.4607 110.812 19.1127 110.091 19.6103C109.593 19.1642 109.199 18.8382 108.598 18.3406L108.478 18.2719L107.706 19.1127L107.809 19.1642C108.358 19.6103 108.701 19.8848 109.027 20.2108C108.083 20.7084 107.037 21.1545 105.801 21.4806C105.801 21.4806 106.573 22.5272 106.642 22.5272C107.363 22.3042 108.804 21.635 109.422 21.3604C108.581 22.9733 106.814 24.2945 105.544 24.9637C105.544 24.9637 106.093 25.5128 106.488 25.9074C108.478 24.998 109.851 23.2135 109.851 23.2135H112.63C112.459 24.1573 111.635 25.324 110.468 26.0447C110.022 25.5986 109.525 25.1524 109.027 24.6548L108.135 25.427C108.632 25.8731 109.027 26.3192 109.405 26.6967C107.637 27.4688 105.304 27.5889 105.304 27.5889L105.801 28.6356C105.801 28.6356 112.682 28.464 114.072 23.1449V21.9781L110.571 22.0468Z" fill="#0E84C7"/>
<path d="M122.016 16.5039H116.405V17.7221H122.016V16.5039Z" fill="#0E84C7"/>
<path d="M122.239 26.1637C121.844 25.1686 121.244 23.7787 120.746 22.7836L120.695 22.6806L119.528 23.1782L119.58 23.2811C119.854 23.9503 120.129 24.5509 120.42 25.2715L117.452 25.9922C118.121 24.9455 118.893 22.4919 119.339 21.2221H122.445V20.0039H115.736V21.2221H117.949C117.847 21.9428 117.057 24.2763 116.011 26.1637C115.908 26.3868 115.685 26.5584 115.685 26.5584L116.079 27.4506C116.079 27.4506 119.682 26.4554 120.746 26.3353L120.849 26.6613L122.239 26.1637Z" fill="#0E84C7"/>
<path d="M125.276 17.9962C125.276 17.1039 125.328 16.2803 125.328 15.3881V15.2852H123.989V15.3881C123.989 16.2803 123.989 17.1554 123.989 17.9962H122.222V19.2659H123.938V20.9302C123.938 23.4868 123.492 24.808 122.496 26.318C121.879 27.2617 120.832 27.8794 120.832 27.8794L121.827 28.8746C121.827 28.8746 125.259 27.1072 125.259 21.4965V19.283H127.541C127.541 21.5651 127.438 23.83 127.318 25.992C127.318 26.6611 126.992 26.9871 126.426 26.9871C125.928 26.9871 124.933 26.9871 124.933 26.9871C124.984 27.3818 125.156 28.3255 125.156 28.3255H126.769C127.936 28.3255 128.536 27.6048 128.656 26.2665C128.759 24.2075 128.879 21.4965 128.931 18.1163V18.0133C128.896 17.9962 125.276 17.9962 125.276 17.9962Z" fill="#0E84C7"/>
<path d="M83.34 34.0395C83.1684 33.868 82.9453 33.8165 82.7909 33.765C82.3963 33.6621 81.9502 33.6621 81.6241 33.765C81.4526 33.8165 81.2981 33.868 81.1266 33.9366C80.955 33.9881 80.852 34.1082 80.7319 34.2111C80.6804 34.2626 80.629 34.3141 80.5603 34.3827V31.1055H79.5137V39.1527H80.5603V35.4294C80.7319 35.1548 80.955 34.9832 81.2295 34.8117C81.504 34.6401 81.7271 34.5886 82.0016 34.5886C82.3276 34.5886 82.5507 34.6916 82.6708 34.8631C82.8424 35.0347 82.8939 35.3607 82.8939 35.7554V39.1356H83.9405V35.5838C83.9405 35.1891 83.889 34.8631 83.7689 34.6401C83.666 34.3656 83.4944 34.1425 83.34 34.0395Z" fill="#0E84C7"/>
<path d="M86.1033 31.6562H85.0566V32.823H86.1033V31.6562Z" fill="#0E84C7"/>
<path d="M86.1033 33.7656H85.0566V39.0847H86.1033V33.7656Z" fill="#0E84C7"/>
<path d="M91.1668 34.091C90.9953 33.9194 90.8408 33.8164 90.6178 33.765C90.2231 33.662 89.7255 33.662 89.3481 33.7135C89.1765 33.765 89.0221 33.8164 88.8505 33.8851C88.6789 33.9366 88.5759 34.0567 88.4558 34.1596C88.4044 34.2111 88.2842 34.2626 88.2328 34.3827L88.1298 33.765H87.2891V39.0841H88.3357V35.3607C88.5073 35.0862 88.7304 34.9146 89.0049 34.743C89.2794 34.5714 89.5025 34.5199 89.777 34.5199C90.0516 34.5199 90.2746 34.6229 90.4462 34.7945C90.6178 34.9661 90.6693 35.2921 90.6693 35.6867V39.0669H91.7159V35.5151C91.7159 35.1891 91.6644 34.8459 91.613 34.6229C91.4414 34.417 91.2698 34.2626 91.1668 34.091Z" fill="#0E84C7"/>
<path d="M96.6046 34.7088C96.433 34.3828 96.2099 34.1597 95.8325 33.9366C95.5065 33.7651 95.0603 33.6621 94.4941 33.6621C94.3225 33.6621 94.2196 33.6621 94.048 33.6621C93.8764 33.6621 93.7735 33.7136 93.6019 33.7136C93.4989 33.7651 93.3273 33.7651 93.2072 33.8165C93.1043 33.868 92.9842 33.868 92.8812 33.9195H92.8298V34.8117L92.9327 34.7602C93.1558 34.7088 93.3788 34.5887 93.6019 34.5372C93.8249 34.4857 94.048 34.4857 94.3225 34.4857C94.6485 34.4857 94.9402 34.5372 95.0947 34.6573C95.2662 34.7602 95.4207 34.8804 95.4893 35.0519C95.5408 35.1034 95.5408 35.2235 95.5408 35.3265C95.5408 35.4294 95.5922 35.5495 95.5922 35.6525V35.8755C95.4207 35.8241 95.2662 35.7726 95.0947 35.7726C94.8716 35.7211 94.5971 35.7211 94.3225 35.7211C94.048 35.7211 93.7735 35.7726 93.4818 35.8241C93.2587 35.8755 93.0357 36.0471 92.8641 36.1501C92.6925 36.3216 92.5381 36.4761 92.4694 36.6991C92.3665 36.9222 92.2979 37.1453 92.2979 37.4198C92.2979 37.6943 92.3493 37.9174 92.4008 38.1404C92.5037 38.3635 92.6239 38.5351 92.7954 38.6895C92.967 38.8611 93.1214 38.964 93.3445 39.0155C93.5676 39.067 93.7906 39.1185 94.0652 39.1185C94.2367 39.1185 94.4598 39.1185 94.6142 39.067C94.7858 39.0155 94.9402 38.964 95.0603 38.8954C95.2319 38.8439 95.3349 38.7238 95.455 38.6723C95.5065 38.6209 95.5579 38.5694 95.6266 38.5694L95.678 39.0155H96.5703V35.4637C96.5703 35.2922 96.5703 35.1377 96.5188 35.0176C96.7075 34.9833 96.7075 34.8117 96.6046 34.7088ZM95.7124 36.8192V37.7115C95.6609 37.763 95.6094 37.7629 95.5408 37.8144C95.4893 37.8659 95.3692 37.9174 95.2662 38.0375C95.1633 38.089 94.9917 38.1404 94.8716 38.2091C94.5971 38.312 94.3225 38.312 94.0308 38.2091C93.9279 38.1576 93.8078 38.1061 93.7563 38.0375C93.7048 37.9688 93.6534 37.8659 93.5847 37.763C93.5333 37.66 93.5332 37.5399 93.5332 37.3683C93.5332 37.0938 93.6362 36.8707 93.8078 36.7506C93.9794 36.6477 94.2539 36.5275 94.5799 36.5275C94.803 36.5275 95.0775 36.5275 95.2491 36.579C95.3692 36.7506 95.5922 36.8192 95.7124 36.8192Z" fill="#0E84C7"/>
<path d="M77.506 36.7503C77.0084 37.6425 76.0647 38.1401 75.0695 38.1401C73.5081 38.1401 72.2383 36.8704 72.2383 35.309C72.2383 33.7476 73.5081 32.4779 75.0695 32.4779C76.0647 32.4779 77.0084 33.0269 77.506 33.8677L77.5574 33.9192H78.6727L78.6212 33.7476C78.0035 32.3578 76.6309 31.4141 75.0695 31.4141C72.959 31.4141 71.2432 33.1299 71.2432 35.2404C71.2432 37.3508 72.959 39.0667 75.0695 39.0667C76.6309 39.0667 78.0035 38.1744 78.6212 36.7331L78.6727 36.5616L77.506 36.7503Z" fill="#0E84C7"/>
<path d="M104.206 35.8081C104.035 36.1342 103.88 36.6489 103.657 37.3009C103.434 36.7519 103.263 36.2543 103.108 35.8081L101.392 31.6387H99.9512V39.0682H101.066V35.465C101.066 34.7958 101.066 34.0237 101.015 33.1829C101.238 33.6805 101.41 34.1781 101.564 34.6242L103.4 38.9996H103.949L105.785 34.6242C105.957 34.1781 106.18 33.6805 106.403 33.1314C106.351 33.9722 106.351 34.6929 106.351 35.4135V39.0168H107.467V31.6387H106.025L104.206 35.8081Z" fill="#0E84C7"/>
<path d="M118.789 34.7087C118.686 34.4857 118.515 34.3141 118.343 34.2111C118.172 34.1082 118.017 33.9881 117.846 33.8851C117.674 33.8336 117.52 33.7135 117.348 33.7135C117.177 33.6621 117.022 33.6621 116.851 33.6621C116.525 33.6621 116.233 33.7135 115.958 33.8336C115.787 33.9366 115.564 34.0567 115.461 34.1597V31.1055H114.414V39.1527H115.255L115.426 38.6551L115.478 38.7066C115.529 38.8096 115.649 38.8782 115.752 38.9811C115.855 39.0326 116.027 39.1527 116.199 39.2042C116.37 39.2557 116.593 39.3072 116.816 39.3072C117.091 39.3072 117.434 39.2557 117.708 39.1356C117.983 39.0326 118.258 38.861 118.481 38.5865C118.704 38.3634 118.875 38.0374 119.03 37.6943C119.133 37.3683 119.253 36.9221 119.253 36.4246C119.253 36.0985 119.201 35.7554 119.15 35.4808C119.012 35.1548 118.961 34.9318 118.789 34.7087ZM118.12 36.4246C118.12 36.6991 118.069 36.9736 118.017 37.1967C117.966 37.4197 117.846 37.6428 117.743 37.8144C117.64 37.986 117.468 38.0889 117.297 38.209C117.125 38.312 116.902 38.312 116.679 38.312C116.507 38.312 116.404 38.312 116.233 38.2605C116.13 38.209 115.958 38.1575 115.907 38.0889C115.804 38.0374 115.684 37.986 115.632 37.8658C115.581 37.8144 115.529 37.7629 115.461 37.6943V35.0862C115.632 34.9146 115.787 34.8117 116.01 34.6916C116.336 34.52 116.782 34.4685 117.177 34.6401C117.348 34.6916 117.451 34.743 117.623 34.9146C117.726 35.0176 117.897 35.2406 117.949 35.4637C118.069 35.7039 118.12 36.0299 118.12 36.4246Z" fill="#0E84C7"/>
<path d="M121.054 33.7656H120.008V39.0847H121.054V33.7656Z" fill="#0E84C7"/>
<path d="M121.054 31.6562H120.008V32.823H121.054V31.6562Z" fill="#0E84C7"/>
<path d="M123.284 31.0879H122.237V39.1351H123.284V31.0879Z" fill="#0E84C7"/>
<path d="M128.605 35.0876C128.502 34.7616 128.33 34.4699 128.158 34.2468C127.935 34.0238 127.712 33.8522 127.489 33.7492C126.94 33.5262 126.271 33.5262 125.722 33.8007C125.447 33.9037 125.173 34.0753 124.95 34.3498C124.727 34.5728 124.555 34.8989 124.401 35.242C124.298 35.568 124.178 36.0141 124.178 36.5117C124.178 37.0093 124.229 37.404 124.401 37.7815C124.504 38.1075 124.727 38.3992 124.95 38.6222C125.173 38.8453 125.499 39.0169 125.842 39.1198C126.185 39.2228 126.511 39.2914 126.889 39.2914C127.215 39.2914 127.506 39.2914 127.781 39.2399C128.056 39.1884 128.279 39.137 128.502 39.0169L128.553 38.9654V38.0731L128.45 38.1246C128.227 38.1761 128.004 38.2962 127.781 38.2962C127.558 38.3477 127.335 38.3477 127.06 38.3477C126.786 38.3477 126.563 38.2962 126.34 38.2447C126.117 38.1933 125.945 38.0731 125.791 37.9702C125.619 37.8672 125.516 37.6957 125.396 37.4726C125.344 37.2495 125.293 37.0265 125.293 36.752H128.845V36.649C128.845 36.5461 128.845 36.4774 128.845 36.4259V36.323C128.725 35.8082 128.673 35.4308 128.605 35.0876ZM125.276 35.8082C125.276 35.6367 125.327 35.5337 125.379 35.3621C125.43 35.1905 125.55 35.0876 125.653 34.916C125.756 34.8131 125.928 34.693 126.048 34.6415C126.323 34.5385 126.769 34.5385 127.043 34.6415C127.215 34.693 127.318 34.8131 127.369 34.916C127.472 35.019 127.541 35.1905 127.592 35.3621C127.644 35.4651 127.644 35.6367 127.644 35.8082H125.276Z" fill="#0E84C7"/>
<path d="M110.914 33.6465C109.353 33.6465 108.135 34.9162 108.135 36.4261C108.135 37.9875 109.404 39.2058 110.914 39.2058C112.476 39.2058 113.694 37.9361 113.694 36.4261C113.746 34.8647 112.527 33.6465 110.914 33.6465ZM110.914 38.3136C109.868 38.3136 109.027 37.4728 109.027 36.4261C109.027 35.3795 109.868 34.5387 110.914 34.5387C111.961 34.5387 112.802 35.3795 112.802 36.4261C112.802 37.4728 111.961 38.3136 110.914 38.3136Z" fill="#0E84C7"/>
</g>
<defs>
<clipPath id="clip0_53672_556008">
<rect width="93.2212" height="28.723" fill="white" transform="translate(35.7275 13.6387)"/>
</clipPath>
</defs>
</svg>
