<svg width="164" height="56" viewBox="0 0 164 56" fill="none" xmlns="http://www.w3.org/2000/svg">
<rect width="164" height="56" rx="6.58824" stroke="#EAECF0"/>
<rect x="0.5" y="0.5" width="163" height="55" rx="6.08824" fill="white" stroke="#EAECF0"/>
<path d="M21.8945 21.4174C21.8945 21.4174 27.2719 13.973 36.0505 18.6002C36.0505 18.6002 40.537 15.5073 46.1896 15.6535C46.8294 15.6778 51.3158 15.629 52.8463 17.829C53.5833 18.9412 53.5105 20.3295 52.2309 21.3849C52.2309 21.3849 46.141 16.514 31.143 21.1657C31.143 21.1657 28.9726 19.9805 26.1867 20.1752C23.5709 20.3783 21.8945 21.4174 21.8945 21.4174Z" fill="#6FB92C"/>
<path d="M50.6031 39.5853L56.5715 26.9777C56.5715 26.9777 53.5347 18.2261 37.4027 20.4749C23.0039 22.5045 14.6465 32.6685 14.6465 32.6685C14.6465 32.6685 24.1701 26.1415 36.3014 29.6242C46.3676 32.5142 50.6031 39.5853 50.6031 39.5853Z" fill="#00428D"/>
<path d="M136.383 21.1534L135.42 22.9173V30.4026H132.465V24.5002H130.699V22.6802H131.475C132.228 22.6802 132.914 22.2514 133.245 21.5753L133.451 21.1533L136.383 21.1534ZM75.8205 22.3627V23.8765L74.3062 25.0381V25.5481H75.468V27.1095H74.3062V29.2027C74.3062 29.5835 74.1347 29.8787 73.8106 30.0787C73.5068 30.2993 73.0875 30.3867 72.5097 30.3926L72.4472 30.3929H68.0254V28.9266H71.3067C71.5737 28.9266 71.7453 28.898 71.831 28.841C71.9116 28.7874 71.9669 28.7087 71.9734 28.5578L71.9741 28.5268V27.1095H68.0272V25.548H71.9741V24.7906L73.08 23.8385H67.7413V22.3627H75.8206H75.8205ZM127.557 16.9405V22.5143C127.557 23.2788 126.947 23.9009 126.187 23.9209L126.149 23.9216H119.616L119.586 28.2047V28.21C119.586 28.4039 119.661 28.5903 119.796 28.73C119.93 28.8698 120.113 28.9522 120.307 28.9599L120.336 28.9605H121.514V30.3733H118.387C117.623 30.3733 117 29.7637 116.98 29.0041L116.98 28.966V16.9405H127.557ZM149.836 21.164V23.1452H148.579V28.9452C148.579 29.7223 147.949 30.3524 147.172 30.3524H139.986V28.465H144.745C144.994 28.465 145.232 28.3661 145.408 28.1902C145.584 28.0143 145.683 27.7758 145.683 27.527V23.1451H137.605V21.1638H149.836L149.836 21.164ZM124.033 24.5304L124.323 25.4167H127.544V27.3167H124.9L125.087 27.9094C125.177 28.1947 125.356 28.4439 125.597 28.6208C125.838 28.7976 126.13 28.893 126.429 28.8929H127.544V30.3321H124.735C124.362 30.3321 123.999 30.2152 123.696 29.9978C123.393 29.7803 123.166 29.4733 123.046 29.12L122.255 26.7768L121.473 24.5304H124.033H124.033ZM115.946 20.9962V22.4705H112.624V24.1322H115.972V25.8267H112.624V28.3753C112.624 28.6124 112.651 28.7528 112.73 28.8054C112.809 28.8581 112.994 28.8844 113.292 28.8844H115.296V30.3236H111.904C111.605 30.3236 111.315 30.2709 110.99 30.2183C110.639 30.1657 110.401 30.0603 110.217 29.8673C110.024 29.7092 109.918 29.4371 109.918 29.095V25.8442H107.994V24.1149H109.918V22.4531H108.152V20.9963H115.946V20.9962ZM90.1092 25.4367L89.4203 28.3033C89.2572 28.8554 89.045 29.6355 88.6772 29.9704C88.3183 30.2971 87.4125 30.3051 86.83 30.3053H85.3551V28.2038C86.0493 28.244 86.5266 28.1742 86.787 27.9942C87.1774 27.7244 87.3146 27.1556 87.3691 26.9293L87.7565 25.4367H90.1091H90.1092ZM79.2841 16.8311V18.1925H82.945V29.0614C82.945 29.3098 82.8932 29.5616 82.6876 29.8134C82.4819 30.0654 81.9345 30.28 80.9431 30.28H79.6083V28.8328H79.7513C79.9229 28.8328 80.0755 28.8042 80.1326 28.7472C80.2184 28.69 80.2756 28.6043 80.2756 28.4615V19.7161H79.2938V29.1852C79.2938 29.3566 79.2365 29.566 79.0934 29.766C78.9505 29.9469 78.7122 30.0897 78.369 30.1754C78.0164 30.261 77.7016 30.2896 77.4442 30.2896H75.6329V28.8235H75.7758C76.0906 28.8235 76.3289 28.7949 76.4146 28.7091C76.5291 28.6521 76.5863 28.4807 76.5863 28.2713V19.697H76.0333V18.1927H76.5863V16.8312H79.2841V16.8311ZM104.41 19.7068V24.1885H104.963V25.6185H104.41V28.5403C104.41 28.7847 104.356 29.038 104.301 29.3097C104.22 29.5539 104.084 29.7802 103.83 29.9431C103.576 30.1061 103.277 30.1876 102.915 30.2236C102.545 30.2494 102.111 30.2751 101.573 30.2778L101.483 30.278H97.9122L91.4689 30.2689V25.6096H90.8889V24.1796H91.4689V19.7249H100.087L104.41 19.7069L104.41 19.7068ZM66.926 25.5154L66.0872 29.166C66.0584 29.2802 65.9727 29.4612 65.8582 29.6038C65.7153 29.7752 65.5056 29.9276 65.2196 30.0704C64.8954 30.2134 64.4377 30.2704 63.7419 30.2704H62.7744V28.3459H63.2781C63.6214 28.3459 63.8597 28.2317 63.9169 27.9937L64.6034 25.5154H66.926ZM101.746 25.6095H94.0608V28.8028H96.4794L96.4745 26.8763H99.0131V28.8028H101.017C101.303 28.8026 101.505 28.8002 101.582 28.7484C101.684 28.6977 101.738 28.5997 101.745 28.4766L101.746 28.4499V25.6096V25.6095ZM101.755 21.164H94.0607V24.1704H96.4794V22.496H99.0131V24.1704L101.755 24.1795V21.1638V21.164ZM65.0605 20.9046V20.9139L65.6707 21.9996C65.7543 22.2501 66.2151 22.214 66.6972 22.212H67.0213V23.761H65.5296C65.3008 23.761 65.0339 23.7324 64.7479 23.6754C64.4809 23.6182 64.2808 23.561 64.1663 23.4754C64.052 23.3897 63.9089 23.2754 63.7849 23.1232C63.6706 22.9802 63.5848 22.8374 63.5562 22.7137L62.803 20.9046H65.0605ZM87.9518 20.9046V20.9139L88.5618 21.9996C88.6454 22.2501 89.1063 22.214 89.5884 22.212H89.9124V23.761H88.4208C88.1919 23.761 87.9251 23.7324 87.6391 23.6754C87.372 23.6182 87.1719 23.561 87.0575 23.4754C86.9431 23.3897 86.8001 23.2754 86.6761 23.1232C86.5618 22.9802 86.476 22.8374 86.4474 22.7137L85.6942 20.9046H87.9516H87.9518ZM124.862 21.1268H119.581V22.4849H124.247C124.466 22.4849 124.598 22.4323 124.704 22.3534C124.801 22.2799 124.854 22.2067 124.861 22.1052L124.862 22.0813V21.1268ZM73.1497 16.6719V17.3384H75.8206V18.6917H73.1497V19.4886H75.8206V21.7547H73.4246V20.9454H70.4391V21.7547H67.7986V19.4886H70.6394V18.6917H67.8271V17.3384H70.6394V16.672H73.1497V16.6719ZM137.499 16.97L135.503 19.4798C135.327 19.7007 135.104 19.879 134.849 20.0016C134.595 20.1242 134.317 20.1878 134.034 20.1878H130.699V18.3683H132.293C132.79 18.3683 133.262 18.149 133.583 17.769L134.257 16.9703H137.499V16.97ZM112.507 16.8088L112.244 17.7389H116.048V19.1606H111.681L111.383 19.5528C111.251 19.7106 111.093 19.8424 110.847 19.9564C110.636 20.0617 110.205 20.1143 109.538 20.1143H108.14V18.6516H108.571C108.914 18.6516 109.16 18.6252 109.265 18.5462C109.344 18.4936 109.45 18.3356 109.538 18.0636L109.942 16.8088H112.507ZM87.9518 16.8704V16.88L88.5618 18.0595C88.6454 18.3098 89.1063 18.2737 89.5884 18.2717H89.9124V19.8207H88.4208C88.1919 19.8207 87.9251 19.7921 87.6391 19.7351C87.372 19.6779 87.1719 19.6209 87.0575 19.5351C86.9431 19.4495 86.8001 19.3352 86.6761 19.1829C86.5618 19.0399 86.476 18.8973 86.4474 18.7735L85.6942 16.8704H87.9516H87.9518ZM65.0605 16.8704V16.88L65.6707 18.0595C65.7543 18.3098 66.2151 18.2737 66.6972 18.2717H67.0213V19.8207H65.5296C65.3008 19.8207 65.0339 19.7921 64.7479 19.7351C64.4809 19.6779 64.2808 19.6209 64.1663 19.5351C64.052 19.4495 63.9089 19.3352 63.7849 19.1829C63.6706 19.0399 63.5848 18.8973 63.5562 18.7735L62.803 16.8704H65.0605ZM124.862 18.3357H119.581V19.7842H124.862V18.3356V18.3357ZM96.9063 16.7743L96.3807 17.3264H104.836L104.79 17.3355H104.836V18.7654H94.9398L94.4867 19.0008C94.0535 19.2479 93.3097 19.3575 92.2975 19.3625L92.2211 19.3628H91.2243V17.9238H91.8314C92.1032 17.9238 92.357 17.8967 92.5201 17.8152C92.6724 17.7644 92.8326 17.6429 93.008 17.4943L93.0458 17.4623L93.7889 16.7743H96.9063ZM149.695 16.9667V18.5726H137.842V16.9667H149.695Z" fill="black"/>
<path d="M65.5793 39.0099C66.2108 39.0099 66.7521 38.8402 67.2032 38.5009C67.6872 38.1384 67.9906 37.6371 68.1218 36.9892H67.1868C67.072 37.4057 66.8751 37.7219 66.5964 37.9302C66.3339 38.1153 65.9894 38.2156 65.5711 38.2156C64.9313 38.2156 64.4558 38.0227 64.1523 37.6526C63.8734 37.3054 63.7339 36.8041 63.7339 36.1562C63.7339 35.5239 63.8734 35.0302 64.1604 34.6754C64.4721 34.2744 64.9314 34.0816 65.5466 34.0816C65.9566 34.0816 66.2929 34.1587 66.5553 34.3283C66.826 34.498 67.0064 34.7603 67.1049 35.1227H68.0399C67.9496 34.5675 67.6953 34.1201 67.2689 33.7963C66.826 33.4569 66.2519 33.2871 65.5629 33.2871C64.6278 33.2871 63.9144 33.5726 63.4223 34.1587C62.9876 34.6676 62.7744 35.3387 62.7744 36.1562C62.7744 36.9892 62.9793 37.6526 63.3977 38.1461C63.8732 38.7169 64.6034 39.0099 65.5793 39.0099ZM70.3929 38.9161V36.4665H73.3561V38.9164H74.3138V33.3809H73.3561V35.691H70.3928V33.3809H69.435V38.916H70.3928L70.3929 38.9161ZM76.9405 38.9161V33.381H76.0024V38.9161H76.9405ZM79.5934 38.9161V34.8695H79.6264L82.5683 38.9161H83.5078V33.381H82.5353V37.3734H82.5023L79.5934 33.381H78.6292V38.9161H79.5934ZM85.7636 38.9161L86.3025 37.5285H89.0626L89.6015 38.9161H90.6378L88.3745 33.381H86.9905L84.7273 38.9161H85.7636ZM88.7614 36.7584H86.6038L87.5295 34.6006H87.7499L88.7615 36.7584H88.7614ZM96.8148 38.9161C97.4417 38.9161 97.9366 38.8076 98.2831 38.5906C98.6873 38.327 98.8936 37.916 98.8936 37.3579C98.8936 36.9858 98.7946 36.6835 98.6049 36.4664C98.4068 36.2416 98.1181 36.0943 97.7304 36.0245C98.0274 35.9159 98.2501 35.7687 98.4068 35.5672C98.5636 35.3501 98.646 35.0865 98.646 34.7764C98.646 34.3577 98.4893 34.0243 98.1841 33.7764C97.8542 33.5127 97.3921 33.381 96.8065 33.381H94.1089V38.9161H96.8147H96.8148ZM96.6289 35.7265H95.1408V34.1316H96.6456C97.0446 34.1316 97.3272 34.1942 97.5101 34.3193C97.6764 34.4365 97.7679 34.632 97.7679 34.8978C97.7679 35.1871 97.6764 35.3982 97.5101 35.531C97.3355 35.6561 97.0446 35.7265 96.6289 35.7265ZM96.719 38.1656H95.1408V36.4771H96.7432C97.1663 36.4771 97.4752 36.5455 97.6705 36.6824C97.8577 36.8193 97.9553 37.04 97.9553 37.3518C97.9553 37.656 97.8251 37.8691 97.5649 38.006C97.3614 38.1125 97.0768 38.1658 96.7189 38.1658L96.719 38.1656ZM103.252 39.0101C104.149 39.0101 104.858 38.7402 105.376 38.2002C105.87 37.6836 106.117 37.0047 106.117 36.1565C106.117 35.308 105.87 34.6217 105.376 34.1047C104.858 33.5572 104.149 33.2872 103.252 33.2872C102.346 33.2872 101.638 33.5572 101.128 34.1125C100.633 34.637 100.395 35.3158 100.395 36.1564C100.395 36.9894 100.633 37.6681 101.128 38.1925C101.638 38.7324 102.346 39.01 103.252 39.01V39.0101ZM103.209 38.1658C102.605 38.1658 102.132 37.9732 101.806 37.5958C101.488 37.2262 101.333 36.7333 101.333 36.1095C101.333 35.4779 101.488 34.9852 101.806 34.6154C102.14 34.2303 102.605 34.0378 103.209 34.0378C103.813 34.0378 104.278 34.2149 104.604 34.5847C104.922 34.9543 105.085 35.4626 105.085 36.1095C105.085 36.7564 104.922 37.2569 104.604 37.6189C104.278 37.9809 103.813 38.1658 103.209 38.1658H103.209ZM108.201 38.9162V36.4665H111.164V38.9164H112.122V33.3809H111.164V35.691H108.201V33.3809H107.243V38.916H108.201L108.201 38.9162ZM114.565 38.9162L115.104 37.5286H117.583L118.122 38.9162H119.158L116.895 33.3811H115.792L113.529 38.9162H114.565ZM117.282 36.7585H115.405L116.331 34.3194H116.364L117.282 36.7585ZM121.128 38.9162V33.3811H120.19V38.9162H121.128ZM128.431 38.9162C129.058 38.9162 129.553 38.8078 129.899 38.5907C130.303 38.3271 130.51 37.9161 130.51 37.358C130.51 36.9859 130.411 36.6836 130.221 36.4665C130.023 36.2417 129.734 36.0944 129.346 36.0247C129.644 35.9161 129.866 35.7689 130.023 35.5673C130.18 35.3502 130.262 35.0867 130.262 34.7765C130.262 34.3579 130.105 34.0245 129.8 33.7765C129.47 33.5129 129.008 33.3811 128.423 33.3811H125.725V38.9162H128.431H128.431ZM128.151 35.7265H126.663V34.1316H128.168C128.567 34.1316 128.849 34.1942 129.032 34.3193C129.199 34.4365 129.29 34.632 129.29 34.8978C129.29 35.1871 129.199 35.3982 129.032 35.531C128.858 35.6561 128.567 35.7265 128.151 35.7265ZM128.241 38.1656H126.663V36.4771H128.266C128.689 36.4771 128.998 36.5455 129.193 36.6824C129.38 36.8193 129.478 37.04 129.478 37.3518C129.478 37.656 129.348 37.8691 129.087 38.006C128.884 38.1125 128.599 38.1656 128.241 38.1656ZM132.39 38.9164L132.929 37.5285H135.408L135.947 38.9164H136.983L134.72 33.3811H133.617L131.354 38.9161H132.39V38.9164ZM135.107 36.7585H133.23L134.156 34.3194H134.189L135.107 36.7585ZM139.167 38.9162V34.8696H139.2L142.142 38.9162H143.081V33.3811H142.109V37.3735H142.076L139.167 33.3811H138.203V38.9162H139.167ZM145.741 38.9162V37.0093L146.464 36.3502L148.805 38.9162H150.117L147.12 35.7534L149.727 33.381H148.498L145.741 35.9937V33.3809H144.77V38.916H145.741V38.9162Z" fill="black"/>
</svg>
