<svg width="164" height="56" viewBox="0 0 164 56" fill="none" xmlns="http://www.w3.org/2000/svg">
<rect width="164" height="56" rx="6.58824" stroke="#EAECF0"/>
<rect x="0.5" y="0.5" width="163" height="55" rx="6.08824" fill="white" stroke="#EAECF0"/>
<path d="M47.7122 12.3984C47.7122 12.3984 51.4666 12.5394 53.9563 13.7842C53.9563 13.7842 56.5063 15.0287 57.0286 17.1367C57.0286 17.1367 57.8523 20.3501 53.7161 23.8037C53.7161 23.8037 49.5596 27.2367 42.9339 28.9033C42.9339 28.9033 41.8866 29.1603 40.2942 29.4053C40.3605 30.9058 40.5563 33.4764 41.1428 35.4893C41.1496 35.5127 42.0317 38.5615 43.3118 38.5615C43.3238 38.5614 44.2199 38.5493 44.9778 36.874C44.988 36.8513 45.7437 35.1687 46.0628 32.4365L48.4719 31.835C48.4661 31.8828 47.8405 36.9701 45.9221 40.2676C45.9221 40.2676 43.9339 43.6006 41.4241 43.6006C41.3979 43.6005 38.4035 43.5811 36.2844 39.083C36.2797 39.073 34.5167 35.3244 34.2034 29.8193C33.1257 29.7835 32.0402 29.6779 31.0071 29.4658C31.0071 29.4658 25.7257 28.3411 24.9426 25.1084C24.9358 25.08 24.2959 22.4022 27.1917 19.4463C27.1917 19.4463 30.0628 16.4941 35.2229 14.5264L35.5647 15.8525C35.5418 15.8623 32.5462 17.1435 30.886 18.7637C30.8635 18.7863 29.1819 20.4806 29.5608 21.9365C29.5691 21.9664 30.0918 23.8076 33.5969 24.3652C33.5969 24.3652 33.8897 24.4071 34.4153 24.4443C34.679 22.2645 35.2111 19.496 36.2844 17.1973C36.2844 17.1973 38.4124 12.6594 41.4241 12.6592C41.4241 12.6592 44.4358 12.6591 46.5842 17.2773L45.2395 17.6387C45.2395 17.6387 44.6768 17.0166 43.9339 17.0166C43.9109 17.0168 42.2998 17.0415 41.2034 20.5303C41.1975 20.5496 40.798 21.8622 40.5208 24.0332C40.8943 23.96 41.2778 23.8795 41.6682 23.7832C41.6682 23.7832 46.1861 22.6591 49.0774 20.5107C49.0774 20.5107 51.9284 18.3415 51.4465 16.4541C51.4392 16.4251 51.0187 14.8214 48.1536 14.125L47.7122 12.3984ZM68.7766 37.376L69.4192 37.5371V38.3799L68.8372 38.2393L68.0139 38.1797C68.0139 38.1797 67.1302 38.1797 66.6282 38.6816C66.617 38.6929 66.1467 39.1749 66.1467 40.1074V40.167C66.1467 40.167 66.1465 41.1509 66.5882 41.6328C66.5882 41.6328 67.1103 42.0947 67.8733 42.0947L68.8167 41.9941L69.4192 41.8535V42.6572L68.8167 42.8379L67.7727 42.8984C67.7584 42.8984 66.2822 42.8947 65.343 42.2354C65.3279 42.2242 64.4397 41.5616 64.4397 40.2676V40.0264C64.4398 40.0037 64.4485 38.7952 65.3831 38.0791C65.3831 38.0791 66.3276 37.3164 67.7532 37.3164L68.7766 37.376ZM122.204 37.377L122.847 37.5371V38.3809L122.305 38.2402L121.482 38.1797C121.482 38.1797 120.599 38.18 120.076 38.6816C120.076 38.6816 119.574 39.2039 119.574 40.1074V40.168C119.575 40.1861 119.578 41.1564 120.016 41.6338C120.029 41.6445 120.587 42.0957 121.301 42.0957L122.244 41.9951L122.847 41.8545V42.6572L122.244 42.8379L121.2 42.8984C121.2 42.8984 119.694 42.8989 118.811 42.2363C118.811 42.2363 117.868 41.5734 117.867 40.2686V40.0273C117.867 40.0273 117.867 38.802 118.811 38.0791C118.82 38.0721 119.761 37.3164 121.2 37.3164L122.204 37.377ZM126.602 37.3164C128.057 37.3165 128.78 38.0684 128.79 38.0791C129.593 38.8421 129.593 39.9873 129.593 39.9873V40.2881C129.593 41.533 128.73 42.2363 128.73 42.2363C127.947 42.8987 126.581 42.8984 126.581 42.8984C125.226 42.8984 124.444 42.2459 124.433 42.2363C123.569 41.5336 123.57 40.2881 123.57 40.2881V39.9873C123.57 38.8488 124.364 38.0871 124.372 38.0791C125.115 37.3161 126.602 37.3164 126.602 37.3164ZM79.0149 42.8184H77.3684V37.417H79.0149V42.8184ZM84.9983 40.6299V37.417H86.1428V42.8184H85.4397L81.8059 39.4248V42.8184H80.6214V37.417H81.5051L84.9983 40.6299ZM90.761 37.417L93.3108 42.8184H91.6048L91.0823 41.5332H88.6526L88.1106 42.8184H86.7854L89.2346 37.417H90.761ZM100.72 38.2002H99.134V42.8184H97.4876V38.2002H95.8606V37.417H100.72V38.2002ZM105.901 38.2002H103.11V39.6855H105.278V40.5088H103.11V42.0352H106.081V42.8184H101.483V37.417H105.901V38.2002ZM108.751 42.0352H111.462V42.8184H107.125V37.417H108.751V42.0352ZM116.984 38.2002H114.193V39.6855H116.341V40.5088H114.193V42.0352H117.204V42.8184H112.546V37.417H116.984V38.2002ZM134.412 41.3525L137.203 37.417H138.267V42.8184H136.782V39.7256L134.573 42.8184H133.69L131.581 39.7256V42.8184H130.477V37.417H131.682L134.412 41.3525ZM72.1497 39.665H74.0374V37.416H75.6633V42.8174H74.0374V40.5088H72.1497V42.8174H70.5032V37.416H72.1497V39.665ZM126.581 38.1201C125.743 38.1202 125.519 38.5364 125.517 38.541C125.239 38.9582 125.237 40.0244 125.237 40.0469V40.208C125.237 41.3524 125.497 41.7139 125.497 41.7139C125.736 42.152 126.568 42.1552 126.581 42.1553C127.304 42.1553 127.606 41.6934 127.606 41.6934C127.905 41.1748 127.906 40.2212 127.907 40.208V40.0469C127.906 39.1034 127.665 38.5615 127.665 38.5615C127.464 38.1198 126.581 38.1201 126.581 38.1201ZM88.9944 40.75H90.761L89.8372 38.7422L88.9944 40.75ZM71.2034 13.1016C71.2252 13.1026 72.5751 13.1722 73.3518 14.4668C73.364 14.4874 74.4163 16.2731 74.6565 16.4541L74.8577 16.6553L75.0579 16.7754C75.0579 16.7754 75.1586 16.796 75.3391 16.6758L75.6409 16.7959L75.761 16.8965L75.8811 16.9766L75.9417 16.7959L76.3635 16.7354L76.8255 16.7754C76.8225 16.7682 76.7538 16.617 76.303 16.6758C76.2933 16.6771 75.8815 16.7332 75.8811 16.5352L77.3674 16.4346C77.3661 16.4376 77.2456 16.7156 77.0061 16.7158L77.1262 16.9561L77.0061 17.0771L77.1868 17.1377L77.3469 16.9561H77.5882L77.6087 16.8564H77.6682L77.7288 16.9766H77.7688C77.7691 16.9724 77.7914 16.6766 78.1301 16.8359L78.01 17.2773C78.0202 17.2774 78.3902 17.2792 78.3909 17.3779H78.4514L78.5921 17.1572L78.4915 17.0967L78.512 16.9766L78.7727 17.0166C78.7727 17.0166 78.8927 17.0168 78.8928 16.8564L79.5764 17.1572V17.2178L79.1546 17.1377C79.1546 17.1377 78.9534 17.1373 78.9534 17.4385C78.9483 17.4373 78.7736 17.3957 78.7932 17.2178L78.7327 17.1572C78.7327 17.1572 78.6121 17.5788 77.5481 18.0205C77.5481 18.0205 76.3633 18.4622 76.1624 18.7031V19.1055C76.1622 19.1138 76.1583 19.2321 76.0423 19.4062L76.1223 20.1289C76.1223 20.1289 76.1221 21.0522 76.2424 21.2334L76.343 21.3135C76.343 21.3135 76.5842 21.0729 77.3469 21.0527L77.9094 20.6914L78.552 19.8076C78.5601 19.7981 79.0144 19.263 79.094 18.9844L79.0735 18.7637C79.0735 18.7637 79.3752 18.5027 79.5559 18.041C79.5559 18.041 79.7564 17.5185 79.676 17.1973C79.6735 17.1885 79.6104 16.9736 79.3352 16.8359C79.3352 16.8359 79.0334 16.7356 78.8928 16.6553L78.9534 16.6152C78.9534 16.6152 79.5763 16.7758 79.7971 16.9766C79.8056 16.9836 80.1378 17.2651 80.0784 17.8398L79.8567 19.085L79.7366 20.3496L79.4553 20.8916L79.134 22.5381C79.134 22.5381 78.9736 24.2051 78.5921 24.2051C78.5921 24.2051 78.6519 24.6067 77.8889 24.8477L76.7249 25.1084C76.7249 25.1084 76.4837 25.209 76.1223 26.1523L75.6604 27.458C75.6597 27.462 75.6363 27.5819 75.4192 27.7793L75.179 28.1201L75.1184 29.4658C75.1184 29.4658 75.0983 30.2685 74.9378 30.7705L74.3557 32.0762V32.5176C74.3557 32.5176 74.3357 32.94 74.1751 33.7432C74.1785 33.7611 74.274 34.2677 74.2346 34.4453L74.1145 34.7061L73.9133 34.8877L73.7532 34.7471V35.5293L73.6926 35.5898L73.552 35.4697H73.4719C73.4719 35.4846 73.4706 36.293 73.3313 36.293L73.2708 35.9512H73.1507V35.8916L73.2307 35.7705C73.2235 35.7759 72.9101 36.011 72.8499 36.0117C72.8499 36.0117 72.7292 35.9912 72.7493 35.3486C72.7505 35.3302 72.7927 34.7046 72.9905 34.5859L73.1106 34.6865V34.5059H72.6887C72.6887 34.5059 72.6687 34.1846 72.5081 33.6826C72.5081 33.6826 72.3278 33.0201 72.2073 32.9795C72.2073 32.9795 72.0462 33.2206 72.0462 33.582C72.0462 33.582 72.0462 33.9839 72.2669 34.0645L72.3079 34.4453L72.2473 34.4658L72.2073 34.1641L71.9866 34.124L72.0462 34.7471H71.926L71.8655 34.0645L71.6653 33.4619V32.7383L71.7454 32.498L71.5442 31.8955L71.5042 29.9473L71.4241 29.5264L71.304 29.084L71.3635 28.04C71.3647 28.0295 71.4201 27.5119 71.0823 26.876C71.0671 26.8838 70.6455 27.0999 69.8176 27.2773L68.513 27.5781L67.9299 27.8398L67.3284 27.7793L66.7454 27.6592C66.7454 27.6592 66.5855 27.5382 66.5051 27.0967L66.344 26.4141L65.5813 26.6348C65.5813 26.6348 65.1591 26.7548 64.9583 26.293L64.8382 26.0928L64.7376 26.1123L64.4368 25.5107C64.4368 25.5107 64.4966 25.4502 64.3762 25.2695C64.3762 25.2695 64.0954 25.1087 64.1555 24.2656C64.1555 24.2656 64.276 23.4232 64.2561 23.2617C64.2586 23.2649 64.2833 23.2836 64.3967 23L64.5569 22.5986C64.5569 22.5986 64.7981 22.4382 64.7981 21.876L64.9583 21.7148C64.9654 21.7001 65.3391 20.932 65.3196 20.832L65.6409 19.9482L65.8821 19.3457L66.1428 18.6836H66.2639L66.4046 18.3223L66.5852 18.041C66.5908 18.0436 66.6899 18.0946 66.8264 18.5625L66.9866 19.165L67.1272 19.4062C67.1304 19.413 67.3463 19.8711 67.1272 20.3096H67.2874V20.29H67.3479L67.4085 20.25C67.4169 20.2487 67.8142 20.1851 68.1917 19.8076C68.2079 19.8014 68.7779 19.5844 69.0549 19.4062L69.677 19.2256C69.677 19.2256 69.8378 19.0046 71.0022 18.583V18.2617C71.0022 18.2617 71.3034 17.9602 71.3235 17.6992L71.263 17.0371L71.3635 16.6758L71.4436 16.334C71.4436 16.3213 71.4434 15.0256 71.3235 14.3662L71.1428 13.7842H71.3235L71.0628 13.1816C71.0669 13.1806 71.1448 13.1602 71.2034 13.1016ZM72.552 35.2275C72.6705 35.3465 72.6133 35.9327 72.6116 35.9502L72.5715 36.0107H72.511C72.3906 35.3684 72.552 35.2275 72.552 35.2275ZM73.9368 34.9873C74.0974 35.0676 74.0579 35.4287 74.0579 35.4287C74.0578 35.7995 73.9246 35.8103 73.9173 35.8105L73.9368 34.9873ZM72.3704 35.0469L72.3108 35.248L72.3303 35.2275H72.3909V35.5889L72.3108 35.7695H72.2708L72.1702 35.4287C72.0321 35.0736 72.0881 34.8929 72.0901 34.8867L72.3704 35.0469ZM97.1653 13.8848C97.4049 13.8251 97.862 14.0626 97.8674 14.0654L98.6106 14.8887C99.1325 15.5511 99.1926 15.8525 99.1926 15.8525L99.012 17.0166C98.8714 17.9603 99.1331 17.9805 99.1331 17.9805C99.0539 18.7329 99.111 18.9778 99.1126 18.9844C99.0138 19.1424 98.9534 19.5529 98.9514 19.5664L99.1331 21.0127L99.1926 22.5381L99.2327 24.2451L99.3538 25.9121V26.6748L99.3137 27.418C99.4331 28.3535 99.2562 29.1706 99.2532 29.1846C99.3536 29.2448 99.3538 30.3096 99.3538 30.3096C99.1367 30.3885 99.2294 30.8937 99.2327 30.9111L99.4133 31.5742V32.3174L99.2932 33.04V34.0645C99.2532 34.5821 98.8977 35.0404 98.8919 35.0479C98.62 35.3586 98.4982 35.3688 98.4905 35.3691V35.4697L98.3694 35.4893C97.0557 34.892 96.7091 34.4133 96.7034 34.4053L96.2415 33.04L96.1809 32.9199C95.6187 32.0364 95.5589 31.6943 95.5589 31.6943L95.4583 31.6348C94.9764 30.8918 94.9758 30.1484 94.9758 30.1484C95.2168 30.028 95.7395 30.4697 95.7395 30.4697V30.4902L95.9807 30.7705L96.2815 30.9717C96.3998 30.9716 96.4403 30.7198 96.4417 30.7109L96.4016 30.3691L96.4622 30.0078L96.3821 29.9072L96.4016 29.6064L96.5823 29.084L96.804 28.542C96.863 28.3987 96.4678 25.9076 96.4622 25.8721C96.6424 25.6918 96.4631 24.8521 96.4622 24.8477C96.6209 24.312 96.6223 23.992 96.6223 23.9844L96.5227 22.3174L96.6428 21.1328L96.804 19.4668C96.8636 17.9365 96.9822 17.6847 96.9846 17.6797C96.824 17.5191 96.9846 16.7354 96.9846 16.7354L96.7034 16.2139L96.4622 15.8525L96.1204 15.7314L95.7991 15.7119L94.9758 15.6719L94.1536 15.7119L93.8518 15.832L93.1292 15.9121L92.3255 16.1328L91.5432 16.4346L91.0003 16.5947L90.5794 16.8359C90.238 16.8359 90.0969 17.0166 90.0969 17.0166C89.4287 17.3114 89.2993 17.2601 89.2942 17.2578C88.7573 17.6157 87.8067 17.462 87.7883 17.459L87.387 17.3379C87.3468 17.1371 86.9846 17.0371 86.9846 17.0371C86.6235 16.9568 86.6233 16.916 86.6233 16.916C87.1654 16.5947 88.5315 16.2539 88.5315 16.2539C88.8529 16.3136 89.4749 15.792 89.4749 15.792L90.178 15.5312L90.8801 15.1895L91.6633 14.9082H91.884L92.4866 14.7881L93.2493 14.708L93.3098 14.6475L93.7317 14.5469L94.1331 14.5869C94.4345 14.2457 95.5589 14.125 95.5589 14.125L97.1653 13.8848ZM135.376 26.1523L135.878 26.1123L136.36 26.2324L136.54 26.3936L136.962 26.7344L137.324 27.2773L137.665 27.6582V28.2812C137.548 28.5953 137.621 28.7558 137.624 28.7627L137.605 29.4258L137.143 30.6504L137.183 30.8916L137.504 31.1523L137.565 31.1924L137.846 31.333L137.785 32.0762V32.3975L137.565 32.6377L137.324 32.7383L137.002 32.9189L136.24 32.9395L135.657 32.8184L134.654 33.0195L133.69 32.9395L133.449 32.7383L133.147 32.6182L132.886 32.4375C132.826 32.318 132.826 31.843 132.826 31.835L132.866 31.2725L132.886 31.0723L133.027 30.9717C133.087 30.7107 133.348 30.4893 133.348 30.4893L133.77 30.0684L134.452 29.2852C134.531 28.7931 134.417 28.4743 134.412 28.4619L134.272 28.2402C133.954 28.3593 133.46 28.8319 133.449 28.8428L133.107 29.2246L132.203 29.1846L132.143 29.2246V29.5254L132.103 29.8467L132.264 30.0879L132.344 30.3291L132.163 31.9756L132.083 32.3164L131.962 32.7988L131.922 33.2607L131.682 33.6826C131.682 33.9369 131.586 33.9814 131.581 33.9834C131.461 34.0035 131.38 33.8828 131.38 33.8828L131.22 33.6826L130.738 33.4609L130.376 33.3809C130.155 33.2804 130.095 33.0195 130.095 33.0195V32.5176L130.035 32.377L129.714 31.0312L129.734 30.3291L129.714 29.3652C129.655 28.9504 129.731 28.4771 129.734 28.4619L129.553 27.6387L129.593 27.0361L129.714 26.2725L129.855 26.2129L129.954 26.333C130.035 26.5137 130.216 26.5938 130.216 26.5938L130.597 26.7549L130.958 26.915L131.079 27.2168L131.26 27.417L131.46 27.6582C131.561 27.7586 131.802 27.7588 131.802 27.7588L132.043 27.6982L132.283 27.5986L134.171 26.6748L135.115 26.0322L135.376 26.1523ZM110.639 15.9121L111.12 16.1533C111.984 16.5549 111.924 17.3779 111.924 17.3779L111.683 18.9238H112.044L113.249 18.2617L114.354 17.7393L114.976 17.8398C115.251 17.7611 115.546 17.9523 115.558 17.96L116.02 18.1406L116.101 18.0811C116.602 18.2818 116.723 18.583 116.723 18.583L116.964 19.2656L117.265 19.707C117.265 19.8239 117.378 19.9976 117.385 20.0078L117.466 20.3096L117.406 20.5703L117.466 20.9521C117.506 21.1128 117.385 21.374 117.385 21.374L117.285 21.835L117.204 22.2568C117.104 22.2575 117.024 22.5586 117.024 22.5586L116.924 22.9395L116.341 24.4258L116.662 25.0879L116.964 25.791L116.864 26.1523V26.4541C116.843 26.6926 116.548 26.931 116.542 26.9355L116.261 27.3369L116.101 27.5781L115.919 27.7188L114.554 27.8994L114.233 27.9795L113.892 28.0596L113.55 28.1201L113.289 28.2812L112.867 28.3408L112.527 28.4014C112.194 28.3622 111.995 28.5137 111.985 28.5215L111.683 28.7832L111.12 29.5254C111.06 29.7262 111.462 30.5498 111.462 30.5498L111.523 30.7705C111.581 30.8488 111.678 30.8505 111.683 30.8506L112.185 31.0312L114.133 30.8311L114.494 30.7705L115.498 30.4697L116.683 30.249L117.044 30.0879L117.406 30.0078L117.746 29.7666L117.968 29.6465C117.988 29.5461 118.109 29.5459 118.109 29.5459L118.329 29.5859H118.289L118.168 29.666L118.229 29.6465L118.289 29.666L118.409 29.9072H118.449V29.7266H118.349V29.6465L118.389 29.7061L118.51 29.666L118.53 29.7061L118.63 29.8271L118.651 29.7871L118.771 29.9072V29.9473L118.691 29.9072V29.9678L118.751 30.0273L118.63 30.0879L118.811 30.1279L118.771 30.2686L118.811 30.3086L118.891 30.249L119.153 30.2686L119.113 30.3291H119.012L118.951 30.5293L119.113 30.3691L119.153 30.4297L119.012 30.5293L119.092 30.6104V30.71L119.153 30.7305V30.6699L119.212 30.71V30.8506L119.273 30.7705L119.393 30.8311V31.0117L119.333 31.0312L119.233 31.1523L119.212 31.1318L119.113 31.1924L119.092 31.3125C119.012 31.3326 119.052 31.2725 119.052 31.2725L119.012 31.2129L119.092 31.1523V31.1318H119.052L118.891 31.333V31.2129H118.871L118.651 31.4336L118.51 31.6943L118.59 31.6738L118.51 31.7949L118.53 31.8545L118.51 31.915L118.449 31.8545H118.389L118.409 31.9756H118.349L118.269 32.1562H118.349L117.907 32.3369L116.101 32.7988L115.98 32.8184C116.04 32.918 115.051 33.1567 115.036 33.1602L114.113 33.2803C114.012 33.4605 113.114 33.561 113.109 33.5615L112.044 33.4609L111.12 33.4414L110.057 33.2803C109.639 33.161 109.104 32.806 109.093 32.7988L108.791 32.6182C108.575 32.4605 108.552 32.3412 108.551 32.3369H108.511C108.13 32.2164 107.828 31.0312 107.828 31.0312L107.487 29.6465L107.005 29.4658L106.422 29.3652L105.82 28.9434C105.721 28.9032 105.603 28.6124 105.599 28.6025L105.359 28.3408C105.158 28.3007 104.776 28.1201 104.776 28.1201C104.401 27.9029 104.297 27.7244 104.294 27.7188C104.113 27.277 104.294 26.875 104.294 26.875L104.535 26.0918L104.716 24.9277L104.816 23.7432C104.755 22.5585 104.816 22.2969 104.816 22.2969L105.057 21.876C105.291 21.5635 105.298 21.3836 105.298 21.374L105.359 21.3535L105.418 21.1328L105.599 20.7109C105.699 20.3495 105.76 20.3496 105.76 20.3496L105.941 20.7109C105.961 21.0121 106.302 21.0723 106.302 21.0723C106.322 21.2322 106.601 21.5918 106.603 21.5947L106.844 22.0166L106.884 22.3574L106.764 23.1807C106.704 23.8031 106.764 23.9844 106.764 23.9844C108.39 22.9001 108.39 22.4375 108.39 22.4375L108.732 21.8955L108.631 21.7549L108.611 21.3535L108.089 21.4141L107.607 21.5547L107.366 21.293L106.945 21.2334L106.964 21.1934L108.009 20.4502L108.43 20.1689L108.812 19.9883L109.154 19.6865C109.334 19.4631 109.615 17.3174 109.615 17.3174C109.695 17.0362 110.036 16.4941 110.036 16.4941L110.097 15.832L110.639 15.9121ZM125.497 18.1006L125.698 18.623L125.739 18.8633L126.159 19.707C126.4 20.2291 126.361 20.6309 126.361 20.6309L126.281 20.9316L126.24 21.5342L126.119 21.835L126.039 22.1973L126.401 22.1162L126.983 22.3779C127.158 22.4755 127.296 22.5348 127.304 22.5381L127.485 22.7393L127.665 22.8994L127.726 23.1201C127.726 23.602 127.646 23.7832 127.646 23.7832L127.465 24.2051C127.425 24.4439 127.524 25.0365 127.526 25.0479L127.304 27.7188L127.184 28.4014L127.123 29.084L126.943 31.0918L126.823 32.0156L126.521 32.4971H126.3L126.06 32.6777V32.9189C126.24 33.1598 125.798 33.1396 125.798 33.1396L125.517 33.4609C124.922 33.4012 124.915 32.7743 124.915 32.7588L124.935 31.2529L125.176 29.8467L125.357 29.3047L125.497 28.1201L125.638 27.458V26.293L125.517 25.3896L125.457 24.9277C125.241 24.4366 124.89 24.5412 124.875 24.5459L123.63 25.751L123.449 25.8711L123.128 26.2324L122.948 26.7949L122.847 26.9756H122.786L122.746 26.915L122.807 26.7949L122.786 26.7549H122.746V26.7949L122.666 27.0361L122.566 27.1768L122.606 26.5137L122.566 25.8711L122.365 25.5703C122.306 25.5507 122.209 25.4933 122.204 25.4902L122.184 24.7871L122.144 24.3252L122.305 23.8438L122.446 23.3818L122.907 22.6787L123.208 22.3174L123.75 21.1328L124.092 20.4102L124.212 20.1689L124.273 19.9482L124.674 19.3252C124.674 18.9872 124.91 18.2764 124.915 18.2617V18.0811L125.035 17.6992L125.497 18.1006ZM95.3792 29.0234V29.084L95.0979 29.3447C93.9622 29.8827 93.4591 30.2031 93.4514 30.208L92.2063 31.0918L91.7249 31.3936L91.2835 31.6143L91.0022 31.6943L90.3997 31.9756L89.7571 32.1357C89.6366 32.3165 89.1145 32.4375 89.1145 32.4375H88.9944C88.9349 32.5562 88.5436 32.6354 88.5325 32.6377L87.97 32.7988L87.6087 32.6982C87.4891 32.6782 87.1127 31.9866 87.1067 31.9756L86.7249 31.1318L87.0862 31.1523L87.4075 31.0918H88.1106L88.5725 30.9717L89.054 30.8916L89.3352 30.9512C89.4557 30.911 89.9378 30.6699 89.9378 30.6699L90.5198 30.5498L90.761 30.5293L91.1829 30.3291L91.6048 30.249L92.4475 29.8867L93.0706 29.7871L93.6126 29.5859L93.7932 29.5459L94.3958 29.3047C95.0379 29.1441 95.1985 29.0234 95.1985 29.0234H95.3792ZM85.8421 17.9004L86.0227 18.4619L86.2034 18.8232L86.3635 19.0039L86.5442 19.5869C86.5442 20.5469 86.6784 20.5698 86.6848 20.5703L86.7249 20.9316L86.6848 21.293H86.7249L86.6253 21.7754L86.5442 21.9961V22.3174L86.6653 22.5381V22.6787L86.384 23.502L86.0823 24.9277L86.0227 25.1484L85.9622 25.4492C85.922 25.4495 85.8616 25.751 85.8616 25.751L85.8421 26.1123L85.802 26.6748C85.6053 27.6192 85.8901 27.8308 85.9016 27.8389C85.8414 27.9995 85.8421 28.4014 85.8421 28.4014L85.721 29.3047L85.7815 29.5859L85.8616 30.5498C85.8616 31.1207 85.6305 31.4408 85.6214 31.4531L85.4807 31.6338C85.3 31.694 85.0784 31.4932 85.0784 31.4932C84.4363 30.9509 84.4964 29.8467 84.4964 29.8467L84.5569 29.3652C84.6773 29.2247 84.6575 28.9434 84.6575 28.9434L84.6165 28.4219L84.5969 28.04C84.4765 27.7589 84.5364 27.2969 84.5364 27.2969L84.677 26.9756L84.7376 26.5938H84.7776L84.8577 25.3291L84.9583 24.9277L85.0188 24.3652V24.084L85.1194 23.7227V23.0801L85.0589 22.9395L85.2395 22.1768L85.3596 21.8955L85.3801 21.2529L85.4807 20.8721L85.4202 20.3496V19.5059L85.3596 19.2656C85.3201 18.9297 85.4171 18.6324 85.4202 18.623L85.6008 18.0811L85.6809 17.7598L85.8421 17.9004ZM93.552 17.2578C93.9454 17.2578 93.9532 17.4887 93.9534 17.498L94.094 17.6992L94.3958 18.2207L94.4358 18.502L94.3753 18.6826L94.3958 18.9443L94.3352 19.2051L94.134 19.4658C93.857 20.0397 93.6972 20.0487 93.6926 20.0488L93.0901 20.6914C92.952 20.9875 92.9495 21.2446 92.9495 21.2529L92.8889 21.3535L93.0901 21.4941L93.1907 21.5947L93.4319 21.7148L94.0139 22.1162L94.3352 22.4375L94.3958 22.7393V23L94.2747 23.2412L94.2551 23.3818L93.7327 23.9238L93.2512 24.6064L93.0296 24.626L92.9094 24.7266C92.9094 24.9073 93.01 24.9072 93.01 24.9072L92.8889 25.2285L92.8489 25.4902L92.7688 25.8115L93.6126 25.751C93.6127 25.8704 93.9089 25.8711 93.9133 25.8711L94.3958 25.9111L94.2551 26.1729C94.1572 26.408 94.3075 26.413 94.3147 26.4131H94.5559L94.4954 26.5137L94.3958 26.6943C94.3355 26.9353 94.134 27.0557 94.134 27.0557L93.7327 27.3975L93.1907 27.7588L92.7893 27.8789C92.6488 27.9793 92.4876 28.04 92.4876 28.04L92.2063 28.1201C91.902 28.2913 91.8859 28.2827 91.885 28.2812C91.6509 28.5152 91.5495 28.4648 91.5442 28.4619C91.0624 28.8233 90.9417 28.8232 90.9417 28.8232L90.761 28.9639L89.9378 29.2451L89.4758 29.4854L88.6526 29.666C88.4152 29.7253 88.0026 29.6677 87.9905 29.666C87.7942 29.5875 87.7894 29.5477 87.7893 29.5459C87.7504 29.5846 87.6363 29.4352 87.6292 29.4258L87.4485 29.1445L87.2874 28.7021V28.4619L87.4075 28.2812L87.5481 27.9795V27.8389L87.7288 27.5176L87.9094 27.2773L88.2717 26.9961L88.3313 26.8555L88.4719 26.5742L88.5921 26.1729C88.5149 26.1722 88.5876 26.0024 88.5921 25.9922L88.6331 25.8115L88.3919 25.8516L88.0901 25.791L87.8499 25.5498L87.6692 25.2285L87.2669 25.1689L86.9866 24.9072L86.9055 24.8477L86.8655 24.6064L87.1067 24.3857V24.3047L87.0862 24.2051L87.3274 23.9639L87.7893 23.6631L88.0901 23.4219L88.8538 23.1201L89.1145 22.96L89.4563 22.8994L89.5969 22.5986L89.637 22.1367L89.5969 21.835L89.5364 21.4336C89.5361 21.3535 89.4153 21.3535 89.4153 21.3535H88.9944L88.7327 21.3135H87.9299C87.7492 21.193 87.6887 20.9316 87.6887 20.9316L87.6692 20.5703C86.9176 20.2538 86.9057 20.1713 86.9055 20.1689H86.7854C86.6656 19.7095 87.281 19.707 87.2874 19.707L87.6292 19.4658L87.9094 19.3252L88.0501 19.1445L88.0901 19.1045L88.1712 19.0439L88.4524 18.9844L88.8538 18.7432L89.6565 18.3818L89.8772 18.3213L90.0989 18.2812C90.2164 18.2615 90.2956 18.2038 90.2991 18.2012L90.7815 18.0811L91.343 17.7598L92.4475 17.5186L93.0296 17.3975L93.552 17.2578ZM107.487 25.0879L107.065 25.209C106.77 25.3856 106.553 25.3896 106.543 25.3896H106.523L106.422 25.6904L106.182 26.3535L106.141 26.6348L106.061 26.915L106.121 27.2168L105.96 27.7188L106.001 27.7588L106.141 27.5986C106.362 27.5183 106.543 27.3975 106.543 27.3975C106.934 27.1825 107.058 27.1769 107.065 27.1768L107.487 27.0957L107.667 26.8154L107.707 26.6748L107.949 25.9316C108.068 25.3919 107.89 25.2106 107.888 25.209L107.487 25.0479V25.0879ZM71.0022 20.4707C70.9961 20.4843 70.7877 20.9377 69.8977 21.3135L68.6331 21.876L67.5891 23.0811C67.5911 23.0899 67.6228 23.2454 67.4085 23.3818L67.2874 23.9043L67.0667 24.3252L66.7659 24.6865C66.7659 24.6865 66.6255 25.0277 66.7053 25.1484C66.7053 25.1484 66.4647 25.3297 66.5852 25.6309C66.5903 25.63 66.7078 25.6096 66.8059 25.5508C66.8102 25.5511 67.0126 25.5654 67.5686 25.0889C67.5686 25.0889 68.1311 24.5661 68.6331 24.5059L69.6575 24.3662C69.669 24.3627 70.0667 24.2406 70.6008 23.9043L71.0628 23.3018L71.4436 22.7393C71.4436 22.7393 71.5043 22.4785 71.384 22.0771L71.2434 21.4346L71.0022 20.4707ZM113.289 23.0801L112.426 23.3818L111.763 23.7432L111.502 24.0439C111.422 24.2046 111.462 24.4863 111.462 24.4863L111.362 24.8076L111.523 25.2285C111.985 25.5698 112.808 25.0283 112.808 25.0283C113.611 24.667 113.771 24.4453 113.771 24.4453L113.911 24.2051L114.113 23.2412C114.171 23.1242 114.078 23.0261 114.073 23.0205L114.012 22.96L113.289 23.0801ZM95.0999 22.959L95.5012 23.1396L95.5618 23.2002L95.9837 23.2402L96.1643 23.3213L96.2844 23.3809L96.385 23.6016L96.4456 23.9033L96.385 24.4453C96.1039 24.8669 95.7424 24.7461 95.7424 24.7461L95.5823 24.7861L95.3206 24.8066L94.9397 24.8467L94.6184 24.9268C94.287 25.1022 94.0877 25.051 94.0764 25.0479L94.0159 25.0273L94.0764 24.9072L94.2571 24.7861L94.3167 24.5059L94.4378 24.2646L94.4573 24.2041L94.5784 24.0439C94.9743 23.6083 94.9407 23.27 94.9397 23.2607L94.7991 22.8389L95.0999 22.959ZM134.412 22.5381L135.576 22.7988L135.998 22.7393L136.38 22.7793C136.67 22.8374 136.681 22.8953 136.681 22.8994V23.3213L136.481 23.4414C136.325 23.4999 136.3 23.6153 136.299 23.6221L136.259 23.7832V23.9639L136.078 24.4258C135.939 24.6852 135.779 24.7464 135.778 24.7471C135.757 24.7872 135.436 24.8477 135.436 24.8477L135.135 24.9883H134.834L134.412 25.0479C133.991 24.8069 133.749 24.7871 133.749 24.7871L133.228 24.6865L132.625 24.667C132.344 24.6068 132.203 24.4453 132.203 24.4453L131.641 23.9844L131.34 23.6025L131.139 23.2012C131.079 23.0606 131.139 22.9395 131.139 22.9395L131.159 22.7988L132.384 22.5986L133.77 22.498L134.412 22.5381ZM134.111 19.4463C134.289 19.5652 134.703 19.5664 134.713 19.5664H135.316L135.576 19.6865L135.818 19.9277C135.938 19.988 136.199 20.0684 136.199 20.0684L136.36 20.4697L136.62 20.7109L136.601 20.9922V21.2334L136.44 21.4141C136.203 21.8871 136.064 21.9925 136.059 21.9961C135.961 22.0545 135.845 21.9994 135.838 21.9961L135.597 21.8955H134.874L134.352 21.7754L133.287 21.293L133.107 21.1123L132.344 20.7109C132.103 20.6507 131.962 20.4697 131.962 20.4697C131.845 20.2552 131.918 20.0597 131.922 20.0488C131.98 19.8936 132.095 19.8696 132.103 19.8682L132.705 19.627L133.348 19.4463H134.111ZM113.47 19.5264L113.008 19.6465L112.667 19.8271C112.235 19.9449 111.995 20.0632 111.985 20.0684L111.703 20.1885C111.43 20.3058 111.422 20.4617 111.422 20.4697C111.342 20.5099 111.241 20.8115 111.241 20.8115L111.181 21.2334C111.241 21.434 111.623 21.4941 111.623 21.4941C111.884 21.5542 112.125 21.4941 112.125 21.4941H112.346L112.808 21.4336C113.37 21.3129 114.314 20.6504 114.314 20.6504H114.655C114.895 20.4095 114.896 20.249 114.896 20.249V20.0684L114.715 19.8271L114.735 19.707L113.831 19.5059L113.47 19.5264ZM133.749 14.1855L134.874 14.667L135.135 14.8877L135.376 14.9082L135.778 15.209L135.818 15.832C135.758 15.9516 135.876 16.307 135.878 16.3135L135.838 16.5947C135.818 16.7955 136.199 16.7959 136.199 16.7959H137.243L137.966 16.7754L138.609 16.9561C138.787 17.1939 138.32 17.5106 138.308 17.5186L138.067 17.6787V18.0811L138.027 18.2812C137.906 18.221 137.544 18.4023 137.544 18.4023L137.263 18.3818L136.962 18.3213L135.958 18.4619L132.023 18.5625L130.778 18.7432L130.015 18.9443L129.192 19.1045L128.429 19.3252C128.311 19.3252 128.077 19.2097 128.068 19.2051L127.706 19.1045C127.546 19.0041 127.545 18.7432 127.545 18.7432C127.545 18.5664 127.603 18.4474 127.606 18.4424L127.766 18.2812L127.826 18.4023H127.887L128.228 18.2012L128.79 18.0205L130.135 17.8594L130.778 17.6787L131.581 17.6191L132.625 17.3975L132.886 17.3779L133.147 17.2578L133.449 16.916L133.047 16.4941C132.746 16.2532 132.525 16.2129 132.525 16.2129L131.842 16.1328L131.621 16.0127L131.983 15.8516C132.613 15.8516 132.586 15.7358 132.585 15.7314L131.922 15.792L131.782 15.832L131.561 15.792L131.34 16.0723L131.019 16.1533L130.859 16.0928L130.918 15.9121L131.501 15.7109L131.621 15.6113H131.561C131.34 15.6713 131.621 15.4102 131.621 15.4102L132.083 15.0684L132.224 14.9688L132.203 14.9482L132.464 14.7676L132.686 14.8281L132.705 14.7676L133.087 14.125L133.328 14.0645L133.749 14.1855ZM78.3323 16.9561L78.3118 17.0771L78.2522 17.0361V16.7959L78.3323 16.9561ZM78.6536 16.8955H78.3723V16.7959L78.6536 16.8955ZM78.6536 16.5547H78.593C78.3923 16.6148 78.1516 16.5547 78.1516 16.5547L77.9505 16.5352L77.8508 16.5947L77.6497 16.6553L77.4895 16.5947V16.5547L77.6497 16.4346L78.6536 16.5547Z" fill="#02489D"/>
</svg>
