<svg width="164" height="56" viewBox="0 0 164 56" fill="none" xmlns="http://www.w3.org/2000/svg">
<rect width="164" height="56" rx="6.58824" stroke="#EAECF0"/>
<rect x="0.5" y="0.5" width="163" height="55" rx="6.08824" fill="white" stroke="#EAECF0"/>
<g clip-path="url(#clip0_53672_555992)">
<path d="M85.1229 18.1744C85.7993 18.1744 86.4757 18.1744 87.1726 18.1744C87.1726 18.6576 87.1726 19.1407 87.1726 19.6385C88.8878 19.6385 90.603 19.6385 92.3701 19.6385C92.3819 21.5209 92.3819 21.5209 92.3844 22.3233C92.3862 22.8708 92.3882 23.4183 92.3922 23.9659C92.3954 24.4073 92.3971 24.8487 92.3979 25.2901C92.3984 25.4585 92.3995 25.6269 92.4011 25.7953C92.4032 26.0312 92.4035 26.2671 92.4034 26.503C92.4044 26.5726 92.4055 26.6422 92.4065 26.7139C92.404 27.1248 92.3576 27.3682 92.0773 27.6909C91.8177 27.864 91.7102 27.8552 91.4027 27.854C91.3089 27.8539 91.2151 27.8539 91.1185 27.8539C91.0161 27.8532 90.9138 27.8524 90.8114 27.8516C90.7067 27.8514 90.6019 27.8512 90.4972 27.851C90.2217 27.8504 89.9463 27.849 89.6708 27.8474C89.3896 27.8459 89.1085 27.8452 88.8273 27.8445C88.2757 27.8429 87.7242 27.8404 87.1726 27.8373C87.1734 27.9098 87.1742 27.9822 87.1749 28.0568C87.1776 28.325 87.1793 28.5932 87.1807 28.8614C87.1814 28.9776 87.1824 29.0937 87.1837 29.2099C87.1854 29.3767 87.1863 29.5435 87.1869 29.7103C87.1877 29.7624 87.1884 29.8145 87.1892 29.8682C87.1892 29.9966 87.1816 30.125 87.1726 30.2531C87.0262 30.3995 87.0262 30.3995 86.8428 30.4173C86.7673 30.417 86.6919 30.4167 86.6142 30.4164C86.5324 30.4162 86.4506 30.4161 86.3664 30.4159C86.2807 30.415 86.1949 30.4141 86.1066 30.4132C86.0206 30.4132 85.9346 30.4131 85.8459 30.4131C85.2064 30.4097 85.2064 30.4097 85.1229 30.3263C85.1229 29.5049 85.1229 28.6836 85.1229 27.8373C83.4077 27.8373 81.6926 27.8373 79.9254 27.8373C79.9107 25.9337 79.9107 25.9337 79.9076 25.1229C79.9054 24.5694 79.9028 24.016 79.8978 23.4625C79.8938 23.0164 79.8916 22.5702 79.8907 22.124C79.89 21.9537 79.8887 21.7834 79.8867 21.6131C79.8841 21.3747 79.8837 21.1364 79.8839 20.8981C79.8826 20.8275 79.8812 20.7569 79.8799 20.6842C79.8824 20.3532 79.8877 20.2007 80.0927 19.9304C80.4283 19.6847 80.6137 19.6202 81.0341 19.6219C81.125 19.6219 81.2158 19.6219 81.3094 19.6219C81.4082 19.6226 81.5069 19.6234 81.6057 19.6242C81.707 19.6245 81.8084 19.6247 81.9097 19.6248C82.1759 19.6254 82.4421 19.6268 82.7083 19.6284C82.9802 19.6299 83.252 19.6306 83.5239 19.6313C84.0569 19.6329 84.5899 19.6355 85.1229 19.6385C85.1229 19.1553 85.1229 18.6722 85.1229 18.1744ZM81.9019 21.0294C81.9019 21.0294 81.8927 21.3702 81.8936 21.5417C81.8936 21.5952 81.8936 21.6488 81.8936 21.704C81.8936 21.8818 81.8942 22.0597 81.8948 22.2375C81.8949 22.3605 81.895 22.4835 81.8951 22.6065C81.8954 22.9308 81.8961 23.2551 81.8969 23.5795C81.8978 23.9683 81.8981 24.3571 81.8985 24.7459C81.8993 25.3372 81.9007 25.9284 81.9019 26.5197C82.9649 26.5197 84.0278 26.5197 85.1229 26.5197C85.125 25.5456 85.125 25.5456 85.1265 24.5716C85.1269 24.1746 85.1274 23.7776 85.1284 23.3806C85.1304 22.5724 85.132 21.0294 85.132 21.0294H81.9019ZM87.1726 21.0294C87.1726 21.0294 87.1726 24.653 87.1726 26.5197C88.2114 26.5197 89.2502 26.5197 90.3204 26.5197C90.3204 24.6837 90.3204 21.0294 90.3204 21.0294H87.1726Z" fill="#263995"/>
<path d="M95.9523 18.1568C96.0034 18.1567 96.0545 18.1565 96.1071 18.1564C96.2782 18.1562 96.4492 18.157 96.6203 18.1578C96.743 18.1578 96.8656 18.1578 96.9883 18.1577C97.3213 18.1577 97.6543 18.1585 97.9873 18.1596C98.3353 18.1605 98.6833 18.1606 99.0313 18.1607C99.6904 18.1612 100.349 18.1624 101.008 18.1639C101.759 18.1655 102.509 18.1663 103.259 18.167C104.803 18.1686 106.346 18.1711 107.889 18.1744C107.902 21.9036 107.907 25.6327 107.916 29.3618C107.875 29.7164 107.75 29.955 107.496 30.2027C107.161 30.4179 106.832 30.4087 106.441 30.4088C106.368 30.4089 106.368 30.4089 106.293 30.4091C106.129 30.4094 105.966 30.4092 105.802 30.409C105.684 30.4091 105.567 30.4092 105.449 30.4093C105.131 30.4097 104.812 30.4095 104.494 30.4093C104.16 30.4091 103.827 30.4093 103.494 30.4094C102.935 30.4095 102.375 30.4094 101.816 30.409C101.169 30.4086 100.521 30.4088 99.8739 30.4092C99.3185 30.4095 98.7631 30.4095 98.2076 30.4093C97.8757 30.4092 97.5438 30.4092 97.2118 30.4095C96.9001 30.4097 96.5884 30.4095 96.2766 30.4091C96.1619 30.409 96.0472 30.409 95.9325 30.4092C95.7766 30.4094 95.6207 30.4091 95.4648 30.4088C95.3773 30.4087 95.2899 30.4087 95.1998 30.4087C95.0055 30.3995 95.0055 30.3995 94.9322 30.3263C94.925 30.1767 94.923 30.0268 94.923 29.8771C94.9228 29.8296 94.9227 29.7822 94.9226 29.7333C94.9223 29.5732 94.9225 29.4131 94.9228 29.253C94.9227 29.1387 94.9226 29.0243 94.9224 28.91C94.9221 28.5986 94.9222 28.2872 94.9224 27.9757C94.9226 27.6504 94.9224 27.3251 94.9223 26.9997C94.9222 26.4531 94.9224 25.9065 94.9227 25.3599C94.9231 24.7275 94.923 24.0951 94.9226 23.4626C94.9222 22.9204 94.9222 22.3782 94.9224 21.8359C94.9225 21.5117 94.9225 21.1876 94.9223 20.8634C94.9221 20.5585 94.9222 20.2537 94.9226 19.9488C94.9227 19.8367 94.9227 19.7247 94.9225 19.6126C94.9223 19.46 94.9226 19.3073 94.923 19.1546C94.923 19.0691 94.923 18.9836 94.923 18.8954C94.9323 18.6868 94.9322 18.6868 95.0055 18.4672C95.0538 18.4672 95.1021 18.4672 95.1519 18.4672C95.1519 18.4189 95.1519 18.3706 95.1519 18.3208C95.4182 18.1534 95.642 18.1563 95.9523 18.1568ZM96.9088 19.4921C96.9088 22.6325 96.9088 25.773 96.9088 29.0086C99.8318 29.0086 102.755 29.0086 105.766 29.0086C105.766 25.8681 105.766 22.7277 105.766 19.4921C102.843 19.4921 99.9204 19.4921 96.9088 19.4921Z" fill="#263995"/>
<path d="M97.5676 20.3705C100.08 20.3705 102.592 20.3705 105.181 20.3705C105.181 20.8054 105.181 21.765 105.181 21.765C105.181 21.765 104.071 21.7564 103.358 21.765C102.984 21.7695 102.719 21.7628 102.399 21.7614C102.399 22.3412 102.399 22.921 102.399 23.5183C103.317 23.5183 104.235 23.5183 105.181 23.5183C105.181 23.9531 105.181 24.388 105.181 24.836C104.287 24.8601 103.393 24.8843 102.472 24.9092C102.448 25.6097 102.424 26.3103 102.399 27.0321C102.713 27.0321 103.027 27.0321 103.351 27.0321C103.351 26.718 103.351 26.404 103.351 26.0804C103.955 26.0804 104.559 26.0804 105.181 26.0804C105.187 26.416 105.191 26.7514 105.195 27.087C105.196 27.1823 105.198 27.2776 105.2 27.3758C105.201 27.4673 105.202 27.5589 105.202 27.6532C105.203 27.7375 105.205 27.8219 105.206 27.9088C105.176 28.1698 105.158 28.2489 104.961 28.423C104.727 28.4672 104.495 28.4599 104.258 28.4562C104.185 28.4563 104.113 28.4563 104.039 28.4563C103.8 28.4561 103.561 28.4539 103.322 28.4516C103.157 28.451 102.991 28.4506 102.826 28.4503C102.39 28.4492 101.955 28.4463 101.519 28.4431C101.074 28.4401 100.63 28.4387 100.185 28.4373C99.3126 28.4341 98.4401 28.429 97.5676 28.423C97.5676 27.964 97.5676 27.505 97.5676 27.0321C98.4856 27.0321 99.4036 27.0321 100.349 27.0321C100.325 26.3315 100.301 25.631 100.276 24.9092C98.9354 24.8729 98.9354 24.8729 97.5676 24.836C97.5676 24.4011 97.5676 23.9663 97.5676 23.5183C98.4856 23.5183 99.4036 23.5183 100.349 23.5183C100.349 22.9385 100.349 22.3587 100.349 21.7614C99.4314 21.7614 98.5134 21.7614 97.5676 21.7614C97.5676 21.3024 97.5676 20.8434 97.5676 20.3705Z" fill="#263995"/>
<path d="M128.167 23.2255C131.017 23.2255 133.868 23.2255 136.805 23.2255C136.805 24.7402 136.805 24.7402 136.407 25.1791C135.976 25.568 135.976 25.568 135.707 25.568C135.707 25.6163 135.707 25.6646 135.707 25.7144C135.575 25.8053 135.438 25.8894 135.3 25.9706C134.925 26.1942 134.559 26.4269 134.197 26.6706C133.817 26.9263 133.434 27.1758 133.046 27.4204C132.842 27.5507 132.641 27.6844 132.44 27.819C132.064 28.0709 131.685 28.3187 131.306 28.5648C131.251 28.6003 131.196 28.6358 131.14 28.6724C131.089 28.7055 131.037 28.7386 130.985 28.7727C130.939 28.8023 130.893 28.8319 130.846 28.8625C130.729 28.9354 130.729 28.9354 130.583 29.0086C132.636 29.0328 134.689 29.0569 136.805 29.0818C136.805 29.4925 136.805 29.9032 136.805 30.3263C136.732 30.3995 136.732 30.3995 136.584 30.4085C134.782 30.4066 132.979 30.4044 131.176 30.4032C130.076 30.4024 128.975 30.4011 127.874 30.3995C127.868 30.1646 127.864 29.9298 127.86 29.6949C127.859 29.6287 127.857 29.5626 127.855 29.4944C127.85 29.103 127.878 28.8373 128.094 28.4962C128.142 28.4962 128.19 28.4962 128.24 28.4962C128.24 28.4479 128.24 28.3995 128.24 28.3498C128.357 28.2574 128.357 28.2574 128.522 28.153C128.582 28.1143 128.643 28.0756 128.705 28.0357C128.77 27.9944 128.836 27.9531 128.904 27.9105C129.039 27.8242 129.173 27.7379 129.308 27.6515C129.376 27.6086 129.443 27.5657 129.512 27.5216C129.775 27.3526 130.035 27.1791 130.294 27.0046C130.664 26.7569 131.037 26.5156 131.413 26.278C131.774 26.0471 132.13 25.8069 132.486 25.568C132.68 25.4383 132.873 25.3087 133.067 25.1791C133.113 25.1483 133.159 25.1175 133.206 25.0858C133.25 25.0565 133.294 25.0272 133.339 24.997C133.377 24.9712 133.416 24.9454 133.456 24.9188C133.618 24.8141 133.784 24.7158 133.95 24.6164C132.042 24.5922 130.133 24.568 128.167 24.5432C128.094 24.3235 128.094 24.3235 128.167 23.2255Z" fill="#263995"/>
<path d="M91.7845 32.4492C92.2435 32.4492 92.7025 32.4492 93.1754 32.4492C93.2342 32.57 93.2931 32.6908 93.3538 32.8152C93.5382 33.1849 93.9394 33.9041 93.9394 33.9041C93.9394 33.9041 94.4325 34.8089 94.6609 35.2736C94.8636 35.6795 95.0807 36.0773 95.2983 36.4754C95.5636 35.8005 95.8255 35.1245 96.0761 34.444C96.0974 34.3863 96.1187 34.3286 96.1407 34.2692C96.2392 34.0011 96.3356 33.7326 96.4264 33.4618C96.4572 33.3707 96.4881 33.2796 96.5199 33.1858C96.5588 33.0671 96.5588 33.0671 96.5985 32.9459C96.7015 32.7143 96.7736 32.5949 96.982 32.4492C97.1823 32.4279 97.3509 32.4211 97.5493 32.4309C97.6259 32.4329 97.6259 32.4329 97.704 32.4349C97.8294 32.4383 97.9547 32.4436 98.08 32.4492C98.3602 33.1579 98.6313 33.8679 98.8804 34.5881C98.9917 34.907 99.117 35.2131 99.2602 35.5186C99.3814 35.8042 99.4618 36.1035 99.5441 36.4022C99.7091 36.2489 99.8212 36.1008 99.9299 35.9038C99.9599 35.8496 99.99 35.7953 100.021 35.7395C100.052 35.6819 100.084 35.6243 100.116 35.5649C100.149 35.5055 100.181 35.446 100.215 35.3847C100.427 34.9984 100.626 34.6076 100.82 34.2121C101.04 33.7808 101.278 33.3581 101.523 32.941C101.604 32.8032 101.604 32.8032 101.686 32.599C101.813 32.4492 101.813 32.4492 102.091 32.4134C102.198 32.4159 102.306 32.4202 102.413 32.4263C102.468 32.428 102.523 32.4296 102.579 32.4313C102.714 32.4356 102.85 32.4422 102.985 32.4492C102.941 32.7755 102.809 33.0307 102.651 33.3139C102.597 33.4121 102.543 33.5104 102.49 33.6087C102.449 33.6843 102.449 33.6843 102.407 33.7614C102.279 34.0016 102.158 34.2455 102.038 34.4898C101.809 34.9517 101.571 35.4077 101.328 35.8623C101.135 36.2237 100.951 36.5886 100.77 36.9558C100.576 37.3471 100.384 37.7299 100.13 38.0859C99.8792 38.1694 99.6842 38.1663 99.4206 38.1637C99.3342 38.163 99.2479 38.1624 99.1589 38.1617C99.0597 38.1604 99.0597 38.1604 98.9585 38.1591C98.7443 37.7613 98.5934 37.3694 98.4558 36.9395C98.3646 36.6708 98.2606 36.4085 98.1532 36.146C97.9617 35.6763 97.7955 35.2015 97.6408 34.7185C97.5922 34.5721 97.5434 34.4256 97.4944 34.2793C97.1672 34.9966 96.859 35.7249 96.6159 36.4754C96.5022 36.8234 96.3805 37.1674 96.2499 37.5094C96.2326 37.5572 96.2152 37.6049 96.1973 37.6541C96.1229 37.845 96.0634 37.987 95.8996 38.1145C95.6856 38.1734 95.4882 38.1951 95.2662 38.2049C95.1441 38.2131 95.1441 38.2131 95.0195 38.2214C94.76 38.1522 94.7371 38.1286 94.5994 37.9143C94.5377 37.8017 94.4779 37.688 94.4198 37.5735C94.3864 37.5109 94.353 37.4484 94.3186 37.384C94.2086 37.1766 94.1013 36.968 93.9943 36.7591C93.7041 36.1968 93.4047 35.6441 93.0867 35.0971C92.9053 34.7756 92.7431 34.4457 92.5806 34.1143C92.3943 33.7375 92.1934 33.3681 91.9927 32.9989C91.7845 32.6114 91.7845 32.6114 91.7845 32.4492Z" fill="#263995"/>
<path d="M109.866 23.5183C113.973 23.5183 118.079 23.5183 122.311 23.5183C122.311 24.0256 122.311 24.5329 122.311 25.0556C118.204 25.0556 114.097 25.0556 109.866 25.0556C109.866 24.5483 109.866 24.041 109.866 23.5183Z" fill="#263995"/>
<path d="M112.395 32.4374C112.466 32.4367 112.537 32.436 112.61 32.4353C112.726 32.4348 112.726 32.4348 112.844 32.4343C112.923 32.4339 113.003 32.4335 113.085 32.4331C113.254 32.4324 113.422 32.4319 113.591 32.4316C113.848 32.4309 114.104 32.4286 114.36 32.4263C114.524 32.4258 114.689 32.4255 114.853 32.4252C114.929 32.4243 115.005 32.4234 115.083 32.4224C115.746 32.4244 116.37 32.5274 116.893 32.9616C117.203 33.3667 117.233 33.8562 117.186 34.3525C117.12 34.74 117.012 35.0085 116.701 35.2584C116.396 35.4624 116.075 35.577 115.722 35.6702C115.759 35.6949 115.796 35.7196 115.834 35.7451C115.906 35.7941 115.906 35.7941 115.978 35.844C116.026 35.8763 116.074 35.9086 116.123 35.9418C116.16 35.973 116.197 36.0041 116.235 36.0362C116.235 36.0845 116.235 36.1328 116.235 36.1826C116.283 36.1826 116.331 36.1826 116.381 36.1826C116.381 36.2309 116.381 36.2792 116.381 36.329C116.429 36.329 116.478 36.329 116.527 36.329C116.82 36.7252 116.82 36.7252 116.82 36.9146C116.869 36.9146 116.917 36.9146 116.967 36.9146C117.061 37.0376 117.061 37.0376 117.159 37.1983C117.191 37.251 117.224 37.3036 117.258 37.3579C117.333 37.5003 117.333 37.5003 117.333 37.6467C117.381 37.6467 117.429 37.6467 117.479 37.6467C117.699 37.9677 117.699 37.9677 117.699 38.1591C116.455 38.2598 116.455 38.2598 116.101 38.0176C115.795 37.6175 115.795 37.6175 115.795 37.3539C115.747 37.3539 115.699 37.3539 115.649 37.3539C115.543 37.2268 115.443 37.0947 115.347 36.9604C115.294 36.8874 115.241 36.8143 115.186 36.7391C115.063 36.5486 115.063 36.5486 115.063 36.4022C115.015 36.4022 114.967 36.4022 114.917 36.4022C114.848 36.3225 114.783 36.2396 114.72 36.1551C114.304 35.6592 113.795 35.7279 113.16 35.6702C113.16 36.4915 113.16 37.3129 113.16 38.1591C112.774 38.1591 112.387 38.1591 111.989 38.1591C111.987 37.4254 111.986 36.6918 111.985 35.9581C111.985 35.6175 111.984 35.2768 111.983 34.9362C111.982 34.6077 111.982 34.2793 111.982 33.9508C111.982 33.8252 111.981 33.6996 111.981 33.574C111.981 33.3987 111.98 33.2234 111.98 33.0481C111.98 32.9957 111.98 32.9433 111.98 32.8892C111.981 32.4828 111.991 32.4406 112.395 32.4374ZM113.233 33.4008C113.233 33.884 113.233 34.3671 113.233 34.8649C113.564 34.8728 113.895 34.8786 114.226 34.8832C114.366 34.8869 114.366 34.8869 114.509 34.8907C115.026 34.896 115.381 34.8953 115.795 34.5721C115.955 34.3792 115.942 34.2818 115.937 34.0277C115.854 33.7098 115.758 33.6046 115.503 33.4008C115.249 33.3507 115.249 33.3507 114.97 33.3651C114.896 33.3659 114.896 33.3659 114.819 33.3667C114.661 33.3687 114.503 33.3733 114.345 33.378C114.237 33.3798 114.13 33.3815 114.022 33.383C113.759 33.3867 113.496 33.3938 113.233 33.4008Z" fill="#263995"/>
<path d="M121.245 32.4172C121.374 32.415 121.374 32.415 121.505 32.4127C121.505 32.4127 122.894 32.6402 123.482 33.1812C123.985 33.7343 124.247 34.2638 124.287 35.0113C124.29 35.065 124.293 35.1187 124.296 35.174C124.317 35.9083 124.13 36.496 123.775 37.1343C123.726 37.1343 123.678 37.1343 123.628 37.1343C123.609 37.1811 123.589 37.2279 123.569 37.2761C123.482 37.4271 123.482 37.4271 123.262 37.5003C123.262 37.5486 123.262 37.5969 123.262 37.6467C122.294 38.2422 121.362 38.3454 120.253 38.1408C119.542 37.9561 118.942 37.4625 118.55 36.8506C118.132 36.0942 118.074 35.159 118.293 34.325C118.512 33.7114 118.91 33.1772 119.456 32.8152C119.528 32.8152 119.601 32.8152 119.675 32.8152C119.675 32.7669 119.675 32.7186 119.675 32.6688C119.675 32.6688 120.672 32.4137 121.245 32.4172ZM119.844 34.07C119.478 34.6315 119.454 35.2366 119.529 35.8898C119.705 36.492 120.032 36.8163 120.567 37.1205C121.12 37.2926 121.644 37.2764 122.164 37.0116C122.535 36.7662 122.797 36.4177 122.935 35.9942C123.063 35.3337 123.041 34.64 122.677 34.0597C122.36 33.6986 121.962 33.4396 121.484 33.3614C120.766 33.3435 120.298 33.495 119.844 34.07Z" fill="#263995"/>
<path d="M107.757 32.408C107.838 32.4072 107.919 32.4064 108.003 32.4056C108.518 32.4102 108.904 32.4897 109.353 32.742C109.429 32.7836 109.429 32.7836 109.507 32.826C109.628 32.8937 109.747 32.964 109.866 33.0348C109.866 33.0831 109.866 33.1315 109.866 33.1812C109.908 33.1963 109.95 33.2114 109.994 33.227C110.221 33.3654 110.319 33.54 110.452 33.7669C110.452 33.8152 110.452 33.8635 110.452 33.9133C108.992 33.9954 108.992 33.9954 108.499 33.5733C108.108 33.3458 107.591 33.4126 107.157 33.4741C106.872 33.5836 106.638 33.7076 106.498 33.9865C106.45 33.9865 106.402 33.9865 106.352 33.9865C106.331 34.0499 106.31 34.1133 106.288 34.1786C106.206 34.4257 106.206 34.4257 106.123 34.6179C105.954 35.272 106.049 35.8174 106.309 36.4319C106.58 36.8751 107.037 37.0773 107.523 37.2075C107.992 37.2412 108.44 37.0784 108.841 36.8414C108.877 36.769 108.877 36.769 108.914 36.695C108.963 36.695 109.011 36.695 109.061 36.695C109.173 36.4777 109.262 36.2656 109.353 36.0362C108.87 36.0362 108.387 36.0362 107.889 36.0362C107.889 35.7463 107.889 35.4564 107.889 35.1577C108.759 35.1577 109.629 35.1577 110.525 35.1577C110.715 35.634 110.7 36.0278 110.535 36.5149C110.465 36.6767 110.388 36.832 110.305 36.9878C110.276 37.0513 110.248 37.1147 110.218 37.18C109.743 37.8031 109.064 38.0849 108.311 38.2069C107.261 38.3394 106.419 38.0819 105.547 37.5003C105.547 37.452 105.547 37.4036 105.547 37.3539C105.499 37.3539 105.45 37.3539 105.4 37.3539C104.925 36.7201 104.725 36.1166 104.719 35.3362C104.718 35.2843 104.718 35.2325 104.717 35.179C104.73 34.267 105.061 33.6431 105.677 32.9905C106.28 32.4865 106.999 32.3916 107.757 32.408Z" fill="#263995"/>
<path d="M89.14 32.4126C89.2733 32.4069 89.2733 32.4069 89.4093 32.4012C89.6885 32.4543 89.7835 32.532 89.9484 32.7608C90.0759 32.9663 90.1856 33.1777 90.2884 33.3963C90.3388 33.5001 90.3895 33.6039 90.4402 33.7077C90.4813 33.7919 90.4813 33.7919 90.5232 33.8779C90.6918 34.2185 90.8675 34.5554 91.0433 34.8924C91.0807 34.9641 91.1181 35.0359 91.1566 35.1098C91.3924 35.56 91.6356 36.0052 91.8851 36.448C92.6629 37.8299 92.6629 37.8299 92.6629 38.1591C92.2621 38.202 91.8912 38.2229 91.4917 38.1591C91.2529 37.9539 91.1658 37.7159 91.0524 37.4271C90.9839 37.3042 90.9138 37.1821 90.842 37.061C90.6864 36.7871 90.6864 36.7871 90.6864 36.6218C89.6477 36.6218 88.6089 36.6218 87.5386 36.6218C87.4903 36.7668 87.442 36.9117 87.3922 37.061C87.3095 37.2416 87.2251 37.4191 87.136 37.5964C87.1135 37.6426 87.0909 37.6889 87.0677 37.7366C86.8977 38.077 86.8977 38.077 86.7334 38.1591C86.5466 38.1644 86.3619 38.1659 86.1752 38.1637C86.1235 38.1634 86.0718 38.163 86.0185 38.1627C85.8908 38.1618 85.7631 38.1605 85.6353 38.1591C85.6722 37.7788 85.813 37.5021 86.0059 37.18C86.2321 36.7905 86.4481 36.3994 86.6465 35.995C86.9948 35.2875 87.361 34.5895 87.7279 33.8914C87.8227 33.7103 87.9166 33.5288 88.0102 33.3471C88.0619 33.2476 88.1137 33.1481 88.1655 33.0486C88.2093 32.9635 88.2532 32.8785 88.2984 32.7909C88.5179 32.4298 88.7423 32.4227 89.14 32.4126ZM89.0759 33.7669C88.9719 33.9604 88.8683 34.1541 88.7648 34.3479C88.7214 34.4287 88.7214 34.4287 88.677 34.5111C88.6482 34.5651 88.6195 34.6191 88.5898 34.6748C88.5637 34.7235 88.5377 34.7721 88.5108 34.8223C88.3728 35.1006 88.2504 35.3863 88.1243 35.6702C88.7765 35.6702 89.4288 35.6702 90.1008 35.6702C90.0398 35.4264 89.9794 35.2684 89.8629 35.0522C89.8304 34.9914 89.7979 34.9306 89.7645 34.8679C89.7135 34.7736 89.7135 34.7736 89.6616 34.6773C89.5943 34.5523 89.5272 34.4271 89.4603 34.3019C89.4304 34.2466 89.4006 34.1914 89.3699 34.1344C89.2955 33.9865 89.2955 33.9865 89.2223 33.7669C89.174 33.7669 89.1257 33.7669 89.0759 33.7669Z" fill="#263995"/>
<path d="M132.14 32.4374C132.206 32.4367 132.273 32.436 132.341 32.4353C132.414 32.435 132.486 32.4346 132.561 32.4343C132.636 32.4339 132.71 32.4335 132.787 32.4331C132.945 32.4324 133.104 32.4319 133.262 32.4316C133.503 32.4309 133.743 32.4286 133.984 32.4263C134.138 32.4258 134.292 32.4255 134.446 32.4252C134.517 32.4243 134.589 32.4234 134.662 32.4224C135.253 32.4243 135.768 32.5401 136.293 32.8152C136.293 32.8635 136.293 32.9118 136.293 32.9616C136.341 32.9616 136.389 32.9616 136.439 32.9616C136.82 33.3744 136.838 33.877 136.828 34.4117C136.783 34.877 136.602 35.167 136.261 35.478C135.758 35.8717 135.215 35.8996 134.591 35.8969C134.459 35.8967 134.459 35.8967 134.324 35.8964C134.214 35.8957 134.105 35.895 133.991 35.8944C133.464 35.8921 133.464 35.8921 132.925 35.8898C132.925 36.6387 132.925 37.3875 132.925 38.1591C132.563 38.1591 132.2 38.1591 131.827 38.1591C131.705 38.0368 131.745 37.8878 131.744 37.7245C131.744 37.6471 131.744 37.6471 131.744 37.568C131.744 37.5139 131.744 37.4597 131.744 37.4039C131.744 37.2241 131.744 37.0442 131.744 36.8643C131.744 36.7399 131.744 36.6154 131.744 36.4909C131.744 36.2298 131.744 35.9686 131.744 35.7074C131.745 35.3719 131.745 35.0363 131.744 34.7008C131.744 34.4437 131.744 34.1866 131.744 33.9295C131.744 33.8058 131.744 33.682 131.744 33.5582C131.744 33.3856 131.744 33.2129 131.744 33.0403C131.744 32.9886 131.744 32.937 131.744 32.8838C131.746 32.4939 131.751 32.4407 132.14 32.4374ZM132.925 33.4008C132.925 33.9323 132.925 34.4638 132.925 35.0113C133.22 35.0173 133.514 35.0216 133.808 35.0251C133.891 35.0269 133.974 35.0287 134.06 35.0306C134.595 35.0353 134.949 34.9935 135.405 34.7048C135.543 34.4816 135.569 34.2437 135.56 33.9865C135.435 33.6739 135.272 33.5478 134.975 33.4008C134.742 33.3708 134.742 33.3708 134.491 33.3794C134.399 33.3801 134.308 33.3808 134.214 33.3815C134.119 33.3834 134.025 33.3852 133.927 33.3871C133.831 33.3881 133.735 33.3891 133.636 33.3901C133.399 33.3927 133.162 33.3966 132.925 33.4008Z" fill="#263995"/>
<path d="M125.458 32.4492C125.869 32.4492 126.28 32.4492 126.703 32.4492C126.704 32.557 126.706 32.6648 126.707 32.7759C126.713 33.1776 126.719 33.5792 126.726 33.9808C126.729 34.1544 126.731 34.3279 126.734 34.5014C126.737 34.7515 126.741 35.0015 126.746 35.2515C126.747 35.3286 126.747 35.4056 126.748 35.485C126.758 35.9982 126.833 36.4268 126.996 36.9146C127.501 37.1888 128.049 37.2037 128.592 37.061C128.897 36.8702 129.013 36.6679 129.119 36.329C129.195 35.8958 129.207 35.4692 129.215 35.0299C129.216 34.9559 129.218 34.8819 129.22 34.8056C129.224 34.5707 129.229 34.3358 129.233 34.1009C129.236 33.941 129.239 33.7811 129.243 33.6212C129.25 33.2305 129.258 32.8399 129.265 32.4492C129.651 32.4492 130.038 32.4492 130.436 32.4492C130.44 32.9688 130.442 33.4884 130.444 34.0081C130.445 34.1847 130.446 34.3612 130.447 34.5378C130.449 34.7924 130.45 35.047 130.451 35.3016C130.451 35.3798 130.452 35.4581 130.453 35.5387C130.453 36.1059 130.41 36.6576 130.148 37.1709C130.113 37.2422 130.113 37.2422 130.077 37.315C129.997 37.4271 129.997 37.4271 129.777 37.5003C129.741 37.609 129.741 37.609 129.704 37.7199C129.566 37.8188 129.566 37.8188 129.393 37.912C129.337 37.9432 129.281 37.9743 129.223 38.0064C128.828 38.1835 128.428 38.1747 128.002 38.1774C127.943 38.1789 127.884 38.1804 127.823 38.182C127.266 38.1855 126.715 38.0615 126.264 37.7199C125.585 37.0379 125.442 36.2748 125.442 35.336C125.443 35.2633 125.443 35.1906 125.444 35.1157C125.444 35.0389 125.444 34.962 125.445 34.8828C125.445 34.6405 125.447 34.3981 125.449 34.1558C125.45 33.9901 125.451 33.8245 125.451 33.6589C125.453 33.2557 125.455 32.8524 125.458 32.4492Z" fill="#263995"/>
<path d="M80.4841 32.4302C80.5704 32.4308 80.5704 32.4308 80.6585 32.4314C80.7191 32.4313 80.7797 32.4311 80.8421 32.431C81.043 32.4307 81.2438 32.4315 81.4447 32.4323C81.5838 32.4324 81.7229 32.4324 81.8621 32.4324C82.1538 32.4325 82.4456 32.4331 82.7373 32.4341C83.1122 32.4354 83.487 32.4357 83.8619 32.4356C84.1492 32.4356 84.4365 32.436 84.7238 32.4365C84.862 32.4368 85.0003 32.4369 85.1386 32.437C85.3314 32.4371 85.5242 32.4378 85.717 32.4386C85.7747 32.4385 85.8324 32.4385 85.8918 32.4385C86.2858 32.4408 86.2858 32.4408 86.3674 32.5224C86.3674 32.7881 86.3674 33.0539 86.3674 33.3276C84.6281 33.3276 82.8887 33.3276 81.0967 33.3276C81.0967 33.8833 81.0967 34.4389 81.0967 35.0113C82.377 35.0113 83.6574 35.0113 84.9765 35.0113C84.9765 35.2771 84.9765 35.5428 84.9765 35.8166C83.6962 35.8166 82.4158 35.8166 81.0967 35.8166C81.0996 36.5601 81.0996 36.5601 81.1033 37.3037C81.1035 37.3956 81.1036 37.4876 81.1038 37.5823C81.1044 37.7244 81.1044 37.7244 81.105 37.8693C81.0967 38.0859 81.0967 38.0859 81.0235 38.1591C80.8382 38.1645 80.655 38.1659 80.4699 38.1637C80.4178 38.1634 80.3658 38.163 80.3122 38.1627C80.1833 38.1618 80.0543 38.1605 79.9254 38.1591C79.922 37.4362 79.9194 36.7134 79.9178 35.9905C79.9171 35.6549 79.916 35.3193 79.9144 34.9836C79.9128 34.6599 79.9119 34.3362 79.9115 34.0125C79.9113 33.8888 79.9107 33.7651 79.9099 33.6414C79.9089 33.4686 79.9087 33.2958 79.9088 33.1229C79.9083 33.0714 79.9077 33.0199 79.9072 32.9669C79.9092 32.4981 80.0249 32.4329 80.4841 32.4302Z" fill="#263995"/>
<path d="M130.656 18.1744C130.608 18.3677 130.559 18.5609 130.509 18.76C132.587 18.76 134.664 18.76 136.805 18.76C136.805 19.1949 136.805 19.6297 136.805 20.0777C133.93 20.0777 131.056 20.0777 128.094 20.0777C128.188 19.6061 128.284 19.1671 128.432 18.7143C128.449 18.6617 128.466 18.6092 128.483 18.555C128.524 18.428 128.565 18.3012 128.606 18.1744C128.893 18.16 129.18 18.1465 129.466 18.1332C129.548 18.1291 129.629 18.125 129.713 18.1208C129.791 18.1172 129.869 18.1137 129.95 18.1101C130.022 18.1066 130.094 18.1032 130.168 18.0996C130.363 18.1012 130.363 18.1012 130.656 18.1744Z" fill="#263995"/>
<path d="M128.571 20.9469C128.678 20.9466 128.678 20.9466 128.787 20.9462C128.866 20.9464 128.945 20.9465 129.027 20.9467C129.109 20.9466 129.192 20.9464 129.277 20.9463C129.552 20.946 129.827 20.9462 130.102 20.9464C130.292 20.9464 130.482 20.9463 130.673 20.9462C131.072 20.9461 131.471 20.9463 131.87 20.9466C132.332 20.947 132.794 20.9469 133.255 20.9465C133.699 20.9461 134.143 20.9461 134.586 20.9464C134.775 20.9464 134.965 20.9464 135.154 20.9462C135.417 20.946 135.681 20.9463 135.945 20.9467C136.024 20.9465 136.103 20.9464 136.185 20.9462C136.256 20.9464 136.327 20.9466 136.401 20.9469C136.464 20.9469 136.526 20.9469 136.59 20.9469C136.732 20.9562 136.732 20.9562 136.805 21.0294C136.805 21.44 136.805 21.8507 136.805 22.2738C133.954 22.2738 131.104 22.2738 128.167 22.2738C128.094 21.9822 128.097 21.788 128.121 21.4915C128.128 21.4066 128.134 21.3218 128.141 21.2344C128.182 20.9092 128.269 20.947 128.571 20.9469Z" fill="#263995"/>
<path d="M125.355 25.3401C125.438 25.3405 125.52 25.3409 125.605 25.3413C125.694 25.3415 125.783 25.3417 125.875 25.342C125.968 25.3426 126.062 25.3432 126.158 25.3438C126.252 25.3442 126.346 25.3445 126.443 25.3448C126.676 25.3457 126.909 25.3469 127.142 25.3484C127.008 26.625 126.806 27.8948 126.604 29.1622C126.587 29.2641 126.571 29.366 126.555 29.4678C126.533 29.6102 126.51 29.7525 126.487 29.8948C126.474 29.9764 126.461 30.0581 126.447 30.1422C126.41 30.3263 126.41 30.3263 126.337 30.3995C126.19 30.4059 126.044 30.4073 125.897 30.4066C125.764 30.4063 125.764 30.4063 125.628 30.4059C125.534 30.4053 125.44 30.4047 125.344 30.4041C125.25 30.4037 125.156 30.4034 125.059 30.4031C124.826 30.4022 124.593 30.401 124.36 30.3995C124.402 29.8769 124.463 29.3618 124.548 28.8445C124.559 28.7764 124.569 28.7083 124.581 28.6381C124.615 28.423 124.65 28.2079 124.685 27.9929C124.72 27.7789 124.754 27.5648 124.789 27.3507C124.811 27.2132 124.833 27.0757 124.855 26.9382C124.928 26.486 124.998 26.0335 125.062 25.58C125.106 25.3508 125.118 25.3505 125.355 25.3401Z" fill="#263995"/>
<path d="M124.817 21.6785C125.133 21.6781 125.462 21.6781 125.787 21.6785C125.859 21.6786 125.931 21.6786 126.005 21.6787C126.19 21.6882 126.19 21.6882 126.41 21.7614C126.477 21.9147 126.477 21.9147 126.533 22.1168C126.565 22.2277 126.565 22.2277 126.597 22.3407C126.629 22.4593 126.629 22.4593 126.662 22.5804C126.684 22.66 126.706 22.7397 126.729 22.8218C126.774 22.9808 126.818 23.1399 126.862 23.2992C126.913 23.4858 126.966 23.6719 127.021 23.8577C127.215 24.5223 127.215 24.5223 127.215 24.6896C126.563 24.6896 125.911 24.6896 125.239 24.6896C124.484 22.6143 124.484 22.6143 124.36 21.7614C124.485 21.6365 124.647 21.6787 124.817 21.6785Z" fill="#263995"/>
<path d="M124.36 18.1744C125.037 18.1744 125.713 18.1744 126.41 18.1744C126.489 18.4447 126.567 18.7149 126.648 18.9934C126.815 19.5695 126.985 20.1441 127.169 20.7151C127.215 20.883 127.215 20.883 127.215 21.1026C126.563 21.1026 125.911 21.1026 125.239 21.1026C124.997 20.5053 124.805 19.9305 124.647 19.3068C124.59 19.09 124.525 18.8802 124.452 18.6685C124.36 18.394 124.36 18.394 124.36 18.1744Z" fill="#263995"/>
<path d="M109.866 23.5183C113.973 23.5183 118.079 23.5183 122.311 23.5183C122.311 24.0256 122.311 24.5329 122.311 25.0556C118.204 25.0556 114.097 25.0556 109.866 25.0556C109.866 24.5483 109.866 24.041 109.866 23.5183Z" fill="#263995"/>
<path d="M49.9312 14.432C49.9963 14.432 50.0614 14.4319 50.1266 14.4318C50.6348 14.4305 51.1416 14.4383 51.6494 14.4607C51.661 14.4612 51.6726 14.4617 51.6846 14.4622C51.8202 14.4683 51.9557 14.4755 52.0912 14.4836C52.1097 14.4847 52.1282 14.4858 52.1467 14.4869C53.1981 14.5493 54.2476 14.6575 55.912 14.9197C55.9258 14.9221 55.9396 14.9245 55.9538 14.9269C56.6444 15.0458 57.3291 15.1887 58.0105 15.3526C58.0311 15.3575 58.0311 15.3575 58.052 15.3625C59.4358 15.6954 60.7941 16.1318 64.4554 17.7732C64.4921 17.7935 64.529 17.8133 64.566 17.8331C64.7378 17.9252 64.9071 18.0208 65.0748 18.12C65.1149 18.1437 65.155 18.1672 65.1952 18.1907C65.4034 18.3128 65.6082 18.4383 65.8094 18.5717C65.8529 18.6002 65.8971 18.6273 65.9414 18.6544C66.1719 18.7965 66.3947 18.9537 66.6147 19.1113C66.6326 19.1241 66.6504 19.1369 66.6683 19.1496C66.8323 19.2664 66.9927 19.3874 67.1522 19.5102C67.1627 19.5183 67.1731 19.5264 67.184 19.5347C67.362 19.6719 67.5375 19.8119 67.7085 19.9577C67.7523 19.9951 67.7967 20.0315 67.8416 20.0677C67.9081 20.1218 67.971 20.1791 68.0338 20.2374C68.0718 20.2724 68.1104 20.3064 68.1494 20.3403C68.3161 20.4858 68.478 20.6368 68.6329 20.7948C68.6673 20.8296 68.7011 20.8622 68.7391 20.8931C68.7789 20.9271 68.811 20.9631 68.8449 21.0028C68.8923 21.0565 68.9439 21.1061 68.9949 21.1563C69.0626 21.2228 69.1286 21.2896 69.1905 21.3617C69.2221 21.3983 69.2553 21.4333 69.2884 21.4686C69.3479 21.5325 69.404 21.5983 69.4587 21.6665C69.4862 21.6999 69.5148 21.7318 69.5441 21.7637C69.5964 21.8211 69.6444 21.8809 69.6919 21.9421C69.7307 21.9922 69.7703 22.0415 69.8106 22.0904C69.905 22.205 69.9936 22.3232 70.0807 22.4434C70.1024 22.4733 70.1243 22.5032 70.1462 22.533C70.3576 22.8217 70.5519 23.1232 70.7328 23.4319C70.7414 23.4465 70.7414 23.4465 70.7501 23.4614C70.857 23.6437 70.9557 23.8298 71.0516 24.0181C71.0722 24.0584 71.093 24.0986 71.1139 24.1387C71.6134 25.1077 71.9165 26.191 72.0443 27.4059C72.0464 27.4282 72.0464 27.4282 72.0485 27.451C72.0912 27.939 72.0901 28.4396 72.0443 28.9273C72.0435 28.936 72.0427 28.9447 72.0419 28.9536C71.9413 30.0417 71.6365 31.0928 71.1692 32.0789C71.1542 32.1108 71.1395 32.1428 71.1249 32.1749C71.0544 32.3295 70.9728 32.4776 70.8901 32.626C70.8801 32.6442 70.8801 32.6442 70.8698 32.6628C70.7103 32.9512 70.5393 33.2331 70.3524 33.5047C70.3453 33.5151 70.3381 33.5255 70.3308 33.5361C70.1326 33.8236 69.9242 34.1026 69.703 34.3727C69.6859 34.3936 69.6689 34.4146 69.6519 34.4355C69.5415 34.5715 69.4277 34.7046 69.309 34.8334C69.2833 34.8617 69.258 34.8903 69.2329 34.9192C69.1874 34.9714 69.1407 35.0224 69.0933 35.0729C69.0849 35.0818 69.0766 35.0907 69.0679 35.0999C68.9993 35.1729 68.9289 35.2439 68.8574 35.3141C68.8227 35.3482 68.7904 35.3817 68.7598 35.4195C68.7256 35.4595 68.6894 35.4917 68.6496 35.5257C68.5983 35.5709 68.551 35.6201 68.5031 35.6688C68.439 35.734 68.3744 35.7974 68.3051 35.8571C68.2652 35.8916 68.2268 35.9278 68.1883 35.9639C68.1237 36.0242 68.0587 36.0836 67.9916 36.141C67.9779 36.1528 67.9641 36.1646 67.9504 36.1764C67.9109 36.2104 67.8712 36.2443 67.8315 36.2782C67.8163 36.2912 67.8011 36.3042 67.7859 36.3173C67.7005 36.3905 67.614 36.4619 67.5251 36.531C67.4662 36.5769 67.4083 36.624 67.3505 36.6714C67.2558 36.7488 67.1586 36.8226 67.0602 36.8954C67.0343 36.9147 67.0084 36.9342 66.9826 36.9536C66.0138 37.685 64.9654 38.3075 63.0732 39.2494C63.0586 39.2561 63.044 39.2627 63.029 39.2696C62.5603 39.4834 62.0847 39.6803 61.6042 39.8659C61.5933 39.8701 61.5824 39.8743 61.5711 39.8786C60.5643 40.2669 59.5304 40.6031 58.4827 40.8626C58.4629 40.8676 58.4432 40.8726 58.4235 40.8775C58.3575 40.8942 58.2916 40.9107 58.2256 40.9273C58.1974 40.9344 58.1692 40.9415 58.141 40.9486C57.9386 40.9996 57.7358 41.0478 57.532 41.0928C57.5217 41.0951 57.5113 41.0974 57.5006 41.0997C57.4915 41.1018 57.4823 41.1038 57.4729 41.1059C57.4465 41.1119 57.4203 41.1184 57.3941 41.125C57.3748 41.1292 57.3556 41.1332 57.3363 41.1373C57.3254 41.1395 57.3146 41.1418 57.3034 41.1441C57.2808 41.1488 57.2581 41.1536 57.2355 41.1583C57.2247 41.1605 57.2138 41.1628 57.2027 41.1651C57.1879 41.1682 57.1879 41.1682 57.1729 41.1713C57.1554 41.1751 57.1379 41.1792 57.1206 41.1836C57.0917 41.1907 57.0627 41.1968 57.0335 41.2027C57.022 41.205 57.0104 41.2073 56.9985 41.2097C56.9799 41.2134 56.9799 41.2134 56.9609 41.2172C56.9481 41.2198 56.9353 41.2223 56.922 41.225C56.8949 41.2304 56.8677 41.2358 56.8406 41.2412C56.7992 41.2495 56.7578 41.2578 56.7163 41.2661C56.6899 41.2714 56.6635 41.2767 56.6371 41.2819C56.6248 41.2844 56.6125 41.2869 56.5998 41.2894C56.5411 41.3011 56.4825 41.312 56.4235 41.3217C56.3905 41.3277 56.3576 41.3338 56.3247 41.3398C55.2726 41.5342 54.2128 41.6788 51.1304 41.8903C51.1146 41.8908 51.0988 41.8913 51.0825 41.8918C51.0535 41.8926 51.0245 41.8935 50.9955 41.8943C50.9301 41.8962 50.8648 41.8986 50.7995 41.902C50.6416 41.9102 50.4844 41.9139 50.3264 41.9136C50.3025 41.9137 50.2786 41.9137 50.2546 41.9137C50.205 41.9137 50.1554 41.9137 50.1058 41.9136C50.0431 41.9135 49.9803 41.9136 49.9176 41.9137C49.4598 41.9141 49.4598 41.9141 49.2384 41.9017C49.1663 41.8976 49.0943 41.8977 49.0221 41.8988C48.9979 41.8991 48.9736 41.8994 48.9493 41.8996C48.9341 41.8998 48.9341 41.8998 48.9185 41.9001C48.882 41.8988 48.882 41.8988 48.831 41.8925C48.7527 41.8834 48.6744 41.8827 48.5957 41.8811C48.3328 41.8754 48.0709 41.8584 47.8086 41.8399C47.7714 41.8373 47.7342 41.8347 47.697 41.8321C46.7898 41.7686 45.8868 41.6743 44.9866 41.5447C44.9739 41.5429 44.9612 41.541 44.9482 41.5392C44.3334 41.451 43.7231 41.3392 43.1147 41.2148C43.0906 41.2099 43.0906 41.2099 43.0661 41.2049C43.0362 41.1988 43.0063 41.1926 42.9764 41.1864C42.8989 41.1706 42.8226 41.1586 42.7438 41.1512C42.7438 41.1425 42.7438 41.1339 42.7438 41.125C42.7203 41.1258 42.7203 41.1258 42.6963 41.1266C42.6625 41.1278 42.6388 41.1249 42.6067 41.1139C42.5438 41.0934 42.4799 41.0787 42.4155 41.0635C42.3861 41.0565 42.3567 41.0495 42.3273 41.0424C42.3119 41.0388 42.2965 41.0351 42.2807 41.0314C41.9803 40.9599 41.6808 40.8858 41.3821 40.8079C41.3599 40.8021 41.3377 40.7964 41.3154 40.7909C41.2858 40.7834 41.2564 40.7753 41.2269 40.7671C41.2148 40.7637 41.2026 40.7603 41.1901 40.7568C40.8055 40.6491 40.4224 40.5382 40.042 40.4167C40.0295 40.4127 40.0171 40.4088 40.0042 40.4047C39.071 40.107 38.1606 39.7575 37.2627 39.3663C37.2368 39.355 37.211 39.3438 37.1851 39.3326C37.0376 39.2687 36.8911 39.2041 36.7481 39.1307C36.7018 39.1071 36.6549 39.0852 36.6077 39.0635C36.4924 39.0101 36.379 38.9532 36.2655 38.8961C36.2454 38.886 36.2253 38.876 36.2052 38.8659C36.1755 38.851 36.1457 38.836 36.1159 38.8211C36.0673 38.7966 36.0186 38.7723 35.9698 38.7481C35.9604 38.7434 35.951 38.7387 35.9413 38.7339C35.9236 38.7251 35.906 38.7164 35.8883 38.7077C35.8238 38.6756 35.7621 38.6398 35.7003 38.6029C35.6586 38.5789 35.616 38.5575 35.5728 38.5362C35.4688 38.4851 35.3683 38.4283 35.2678 38.3707C35.2552 38.3634 35.2425 38.3562 35.2295 38.3487C34.8786 38.1478 34.5318 37.9404 34.1932 37.7194C34.1656 37.7014 34.1379 37.6836 34.1101 37.6658C33.9917 37.5898 33.875 37.5116 33.7594 37.4313C33.733 37.413 33.7065 37.3948 33.68 37.3767C33.4803 37.2401 33.2849 37.0982 33.0906 36.9542C33.081 36.947 33.0713 36.9399 33.0614 36.9325C32.9634 36.8599 32.8666 36.7865 32.7728 36.7085C32.7312 36.6744 32.6888 36.6413 32.6463 36.6082C32.5775 36.5545 32.5102 36.4991 32.4438 36.4424C32.4 36.405 32.3558 36.3683 32.3111 36.332C32.1855 36.2296 32.0628 36.1242 31.9445 36.0134C31.9079 35.9791 31.8707 35.9456 31.8328 35.9127C31.78 35.8666 31.7285 35.8193 31.6774 35.7713C31.6684 35.7628 31.6593 35.7543 31.65 35.7456C31.587 35.6863 31.5255 35.6257 31.4648 35.5641C31.4209 35.5197 31.3753 35.4786 31.3269 35.4393C31.3044 35.4172 31.2932 35.3959 31.2807 35.3672C31.272 35.3672 31.2633 35.3672 31.2544 35.3672C31.2387 35.3511 31.2387 35.3511 31.2192 35.327C31.1705 35.2695 31.1178 35.2168 31.0642 35.1639C31.0072 35.1073 30.9511 35.051 30.8993 34.9895C30.8698 34.9557 30.8391 34.9232 30.8084 34.8906C30.7366 34.8146 30.6674 34.7379 30.6021 34.6562C30.5674 34.6134 30.5315 34.5719 30.4954 34.5302C30.4303 34.4548 30.3681 34.3775 30.3071 34.2988C30.2828 34.2676 30.2581 34.2366 30.2332 34.2058C29.9332 33.8359 29.6646 33.4398 29.4182 33.0326C29.4112 33.021 29.4042 33.0094 29.397 32.9975C29.2487 32.7519 29.1102 32.501 28.9841 32.2433C28.9724 32.2195 28.9603 32.196 28.9482 32.1724C28.6428 31.5785 28.4195 30.9378 28.2574 30.2908C28.2514 30.2671 28.2453 30.2434 28.2393 30.2197C28.1315 29.7971 28.0679 29.3613 28.028 28.9273C28.0264 28.911 28.0249 28.8946 28.0233 28.8778C27.9799 28.3916 27.9823 27.8918 28.028 27.4059C28.0288 27.3972 28.0296 27.3886 28.0304 27.3796C28.1309 26.2928 28.4338 25.2376 29.0084 24.0408C29.0287 24.0012 29.0488 23.9615 29.0689 23.9218C29.1697 23.7235 29.2753 23.5296 29.392 23.34C29.4 23.3269 29.4081 23.3138 29.4164 23.3003C29.5145 23.141 29.6141 22.9829 29.7199 22.8285C29.7273 22.8176 29.7348 22.8067 29.7424 22.7954C29.8623 22.6199 29.9867 22.4488 30.1169 22.2808C30.1367 22.2552 30.1564 22.2295 30.1759 22.2037C30.3014 22.039 30.4329 21.8791 30.5675 21.7218C30.5861 21.6999 30.6046 21.678 30.623 21.6561C30.7072 21.5565 30.7946 21.4605 30.884 21.3656C30.9188 21.3286 30.9528 21.291 30.9864 21.253C31.0405 21.1923 31.0977 21.1351 31.1559 21.0783C31.1879 21.0468 31.2169 21.0162 31.2447 20.9807C31.2523 20.9716 31.2598 20.9624 31.2675 20.953C31.2762 20.953 31.2849 20.953 31.2938 20.953C31.2973 20.9451 31.3008 20.9373 31.3044 20.9292C31.32 20.9005 31.3344 20.882 31.3594 20.8612C31.368 20.8612 31.3767 20.8612 31.3856 20.8612C31.3856 20.8525 31.3856 20.8439 31.3856 20.8349C31.4071 20.8171 31.4291 20.7997 31.4512 20.7825C31.4732 20.7608 31.4951 20.7389 31.5167 20.7169C31.6868 20.5447 31.6868 20.5447 31.763 20.48C31.8042 20.4441 31.844 20.4067 31.884 20.3693C31.9486 20.3091 32.0136 20.2497 32.0807 20.1923C32.0944 20.1805 32.1081 20.1687 32.1219 20.1569C32.1614 20.1228 32.2011 20.0889 32.2407 20.055C32.256 20.042 32.2712 20.029 32.2863 20.016C32.3718 19.9427 32.4583 19.8714 32.5472 19.8022C32.6061 19.7563 32.664 19.7093 32.7217 19.6619C32.8165 19.5844 32.9137 19.5107 33.012 19.4378C33.038 19.4185 33.0639 19.3991 33.0897 19.3796C33.5286 19.0482 33.9856 18.7352 34.4547 18.4479C34.4748 18.4355 34.4748 18.4355 34.4954 18.4229C34.7676 18.2559 35.042 18.0926 35.3212 17.9374C35.3479 17.9225 35.3745 17.9075 35.4012 17.8925C35.546 17.8111 35.6928 17.734 35.8402 17.6577C35.8736 17.6402 35.907 17.6227 35.9403 17.6051C36.0888 17.5265 36.2381 17.4499 36.3884 17.3748C36.3997 17.3692 36.4111 17.3635 36.4227 17.3577C36.6219 17.2582 36.8224 17.1623 37.0253 17.0707C37.0458 17.0614 37.0458 17.0614 37.0667 17.0519C37.528 16.8431 37.9958 16.6498 38.4681 16.4674C38.479 16.4632 38.4899 16.459 38.5011 16.4546C39.6653 16.0056 40.8599 15.6465 43.8586 14.9722C43.8714 14.9699 43.8842 14.9675 43.8974 14.9651C44.8883 14.7834 45.8891 14.6522 48.3573 14.4648C48.374 14.464 48.3907 14.4632 48.4078 14.4624C48.506 14.4577 48.6041 14.4534 48.7023 14.4495C48.7337 14.4483 48.7652 14.447 48.7966 14.4456C49.1746 14.4297 49.5529 14.432 49.9312 14.432ZM48.7901 15.6542C48.7621 15.6552 48.7341 15.6562 48.706 15.6572C48.4864 15.6652 48.2669 15.6769 48.0475 15.6895C48.033 15.6903 48.033 15.6903 48.0183 15.6911C46.7593 15.7636 45.5052 15.9048 43.5817 16.2458C43.5707 16.2479 43.5596 16.25 43.5483 16.2522C43.4925 16.2628 43.4368 16.2736 43.3811 16.2845C43.3706 16.2866 43.3601 16.2887 43.3493 16.2908C43.3251 16.296 43.3013 16.3026 43.2776 16.3096C43.2047 16.33 43.1305 16.3429 43.0561 16.3567C43.0256 16.3625 42.9951 16.3682 42.9646 16.374C42.9444 16.3778 42.9444 16.3778 42.9239 16.3816C42.8941 16.3875 42.865 16.3943 42.8356 16.4018C42.8049 16.4089 42.7741 16.4158 42.7434 16.4227C42.7346 16.4247 42.7257 16.4267 42.7166 16.4288C42.679 16.4372 42.6414 16.4457 42.6038 16.4541C42.5763 16.4603 42.5488 16.4665 42.5212 16.4727C42.4966 16.4783 42.4966 16.4783 42.4715 16.4839C42.4397 16.4912 42.4081 16.4988 42.3766 16.5067C42.3561 16.5118 42.3356 16.5168 42.315 16.5218C41.6654 16.6803 41.02 16.8537 40.383 17.0576C40.3707 17.0615 40.3584 17.0655 40.3458 17.0695C39.3849 17.3771 38.4432 17.7301 37.5237 18.1462C37.5101 18.1524 37.4964 18.1586 37.4824 18.1649C37.2361 18.2767 36.9927 18.3943 36.7499 18.5135C36.7415 18.5176 36.7331 18.5217 36.7244 18.526C36.5238 18.6245 36.3256 18.7264 36.1301 18.8347C36.0926 18.8553 36.055 18.8755 36.0174 18.8957C35.8305 18.9958 35.6468 19.1004 35.4646 19.2086C35.451 19.2166 35.4375 19.2246 35.4235 19.2329C35.1329 19.4051 34.8498 19.5871 34.5686 19.7742C34.5569 19.782 34.5451 19.7898 34.533 19.7979C34.3398 19.9264 34.1471 20.056 33.9628 20.1972C33.9113 20.2363 33.8601 20.2748 33.8054 20.3095C33.7388 20.3526 33.6786 20.4039 33.6173 20.4542C33.5613 20.5002 33.5048 20.5452 33.4472 20.589C33.3335 20.6759 33.2237 20.7673 33.1147 20.86C33.0698 20.8982 33.0243 20.9356 32.9783 20.9727C32.9118 21.0268 32.8488 21.0842 32.7859 21.1425C32.757 21.1692 32.7278 21.1953 32.698 21.221C32.597 21.3087 32.4983 21.3994 32.4048 21.495C32.3827 21.5166 32.3599 21.5365 32.3364 21.5565C32.2719 21.6126 32.2116 21.6727 32.1513 21.7332C32.1324 21.7522 32.1134 21.7711 32.0944 21.79C32.0326 21.8518 31.9726 21.9144 31.9158 21.9807C31.8933 22.0067 31.8694 22.0308 31.8446 22.0547C31.8028 22.096 31.7637 22.1388 31.7254 22.1834C31.6963 22.2167 31.6664 22.2492 31.6364 22.2818C31.5831 22.3403 31.5325 22.4004 31.4828 22.4621C31.4536 22.4977 31.4237 22.5327 31.3935 22.5675C31.3192 22.6531 31.2487 22.7408 31.1804 22.8313C31.1609 22.857 31.1413 22.8825 31.1216 22.9081C31.05 23.0012 30.979 23.0947 30.9093 23.1892C30.9031 23.1976 30.8969 23.206 30.8905 23.2147C30.861 23.248 30.861 23.248 30.8478 23.2876C35.7993 23.2876 40.7507 23.2876 45.8522 23.2876C45.8566 22.9803 45.8609 22.673 45.8653 22.3564C45.9412 22.0377 45.9412 22.0377 45.9809 21.9457C45.9854 21.935 45.9898 21.9243 45.9944 21.9133C46.1282 21.597 46.3081 21.3157 46.5342 21.0579C46.5447 21.0458 46.5551 21.0338 46.5659 21.0213C46.7453 20.8173 46.9619 20.6718 47.2097 20.5636C47.2347 20.5526 47.2597 20.5415 47.2846 20.5304C47.3026 20.5225 47.3207 20.5145 47.3387 20.5065C47.4463 20.4589 47.5534 20.4102 47.6606 20.3615C47.7313 20.3295 47.8021 20.2975 47.8729 20.2656C47.9403 20.2351 48.0077 20.2045 48.075 20.1736C48.2959 20.0724 48.5135 19.9737 48.7508 19.9168C48.7648 19.9134 48.7789 19.91 48.7934 19.9065C48.9806 19.8623 49.1683 19.8308 49.359 19.8078C49.3679 19.8067 49.3768 19.8057 49.3859 19.8046C49.6056 19.7786 49.8228 19.7705 50.0438 19.7702C50.0719 19.7702 50.0999 19.7701 50.1279 19.77C50.2192 19.7697 50.3104 19.7696 50.4017 19.7694C50.4332 19.7694 50.4648 19.7693 50.4963 19.7693C50.6444 19.769 50.7924 19.7688 50.9405 19.7687C51.1111 19.7686 51.2817 19.7683 51.4523 19.7677C51.5845 19.7673 51.7167 19.7671 51.8488 19.7671C51.9277 19.7671 52.0065 19.7669 52.0853 19.7666C52.1594 19.7663 52.2334 19.7663 52.3074 19.7664C52.3346 19.7664 52.3617 19.7663 52.3888 19.7661C52.4259 19.7659 52.463 19.766 52.5001 19.7662C52.5161 19.766 52.5161 19.766 52.5325 19.7657C52.6162 19.7667 52.6883 19.7889 52.749 19.8489C52.7537 19.8564 52.7585 19.864 52.7634 19.8718C52.7684 19.8793 52.7734 19.8869 52.7785 19.8948C53.3164 20.8897 52.8122 22.1566 52.8167 23.2876C58.2312 23.2876 63.6458 23.2876 69.2244 23.2876C69.1429 23.1538 69.1429 23.1538 69.0802 23.0777C69.0715 23.0777 69.0629 23.0777 69.0539 23.0777C69.0502 23.0677 69.0464 23.0577 69.0425 23.0474C69.0282 23.0102 69.0282 23.0102 69.0015 22.9728C68.9928 22.9728 68.9842 22.9728 68.9752 22.9728C68.9719 22.9632 68.9686 22.9537 68.9651 22.9439C68.9481 22.9051 68.9284 22.8782 68.9015 22.8457C68.8921 22.8343 68.8826 22.8228 68.8729 22.811C68.8634 22.7995 68.8539 22.7879 68.8441 22.7761C68.8274 22.755 68.8107 22.734 68.7941 22.7129C68.7353 22.6395 68.6745 22.5679 68.6135 22.4964C68.5953 22.4749 68.5772 22.4533 68.5591 22.4316C68.4907 22.3498 68.4206 22.27 68.3476 22.1923C68.3162 22.1588 68.2862 22.1249 68.2575 22.0891C68.2476 22.0777 68.2378 22.0664 68.2277 22.0547C68.219 22.0547 68.2103 22.0547 68.2014 22.0547C68.198 22.0469 68.1945 22.0391 68.1909 22.0311C68.1746 22.0012 68.1581 21.9829 68.1334 21.9596C68.1013 21.9285 68.0712 21.897 68.0424 21.8629C67.9977 21.8111 67.9503 21.7623 67.9022 21.7137C67.8909 21.7021 67.8909 21.7021 67.8793 21.6903C67.8604 21.6713 67.8408 21.6531 67.8211 21.635C67.8124 21.635 67.8038 21.635 67.7948 21.635C67.7948 21.6263 67.7948 21.6177 67.7948 21.6088C67.7862 21.6088 67.7775 21.6088 67.7686 21.6088C67.7656 21.6014 67.7627 21.594 67.7596 21.5864C67.7373 21.5475 67.7096 21.5238 67.676 21.494C67.6618 21.4813 67.6476 21.4686 67.6335 21.4559C67.6258 21.449 67.6181 21.442 67.6101 21.4349C67.5534 21.3833 67.4981 21.3303 67.4425 21.2776C67.382 21.2203 67.3202 21.1648 67.2571 21.1104C67.2497 21.104 67.2422 21.0976 67.2346 21.091C67.2132 21.0725 67.1917 21.0541 67.1702 21.0358C67.1542 21.0221 67.1383 21.0085 67.1223 20.9948C67.1103 20.9845 67.1103 20.9845 67.0979 20.9739C67.0737 20.9532 67.0496 20.9324 67.0254 20.9115C66.9379 20.8361 66.8499 20.7617 66.7587 20.6907C66.7486 20.6828 66.7386 20.6749 66.7283 20.6668C66.6828 20.6267 66.6828 20.6267 66.6275 20.612C66.6275 20.6033 66.6275 20.5947 66.6275 20.5857C66.6101 20.5687 66.6101 20.5687 66.5866 20.5519C66.5777 20.5451 66.5688 20.5384 66.5596 20.5315C66.5498 20.5242 66.54 20.517 66.53 20.5095C66.5095 20.4941 66.489 20.4786 66.4685 20.4632C66.4579 20.4553 66.4473 20.4473 66.4364 20.4392C66.3962 20.4089 66.3563 20.3783 66.3164 20.3476C66.1932 20.2529 66.0682 20.1613 65.9408 20.0722C65.9086 20.0497 65.8764 20.027 65.8443 20.0044C65.7364 19.9285 65.6282 19.8531 65.5184 19.7799C65.5049 19.7709 65.5049 19.7709 65.4911 19.7617C65.4279 19.7198 65.364 19.679 65.2999 19.6383C65.2658 19.6167 65.2318 19.5948 65.1978 19.573C64.961 19.4209 64.7195 19.2766 64.4766 19.1345C64.4392 19.1126 64.4019 19.0905 64.3646 19.0684C64.3547 19.0625 64.3447 19.0566 64.3345 19.0505C64.3157 19.0394 64.297 19.0282 64.2783 19.0171C64.2277 18.9871 64.1765 18.9598 64.1237 18.9339C64.0714 18.9076 64.0204 18.8787 63.9691 18.8504C63.7902 18.7522 63.609 18.6586 63.4273 18.5659C63.4127 18.5585 63.3981 18.551 63.383 18.5433C63.1919 18.4461 62.9989 18.3538 62.8042 18.2642C62.7426 18.2359 62.6813 18.2071 62.6202 18.1778C62.4713 18.1063 62.3201 18.0405 62.1682 17.9757C62.1592 17.9719 62.1502 17.968 62.1409 17.9641C61.8716 17.8493 61.602 17.7359 61.3284 17.6315C61.3104 17.6246 61.2924 17.6177 61.2745 17.6108C60.2078 17.2024 60.2078 17.2024 59.113 16.8807C59.068 16.8695 59.0234 16.8565 58.9787 16.8438C58.7194 16.7707 58.4597 16.6993 58.199 16.6313C58.1803 16.6265 58.1803 16.6265 58.1612 16.6215C58.0211 16.5849 57.8808 16.5496 57.7398 16.517C57.7162 16.5115 57.6925 16.506 57.669 16.5001C57.6306 16.4905 57.592 16.4819 57.5533 16.4732C57.5447 16.4712 57.536 16.4693 57.5271 16.4673C57.5087 16.4631 57.4904 16.459 57.4721 16.4549C57.4444 16.4486 57.4167 16.4424 57.389 16.4361C57.3537 16.4282 57.3185 16.4202 57.2832 16.4123C57.2561 16.4062 57.229 16.4001 57.2019 16.3939C57.1219 16.3758 57.0414 16.3608 56.9607 16.3463C56.8893 16.333 56.8186 16.3176 56.7478 16.3012C56.5665 16.2591 56.3843 16.2235 56.2014 16.1895C56.1848 16.1864 56.1682 16.1834 56.1511 16.1802C54.9486 15.9575 53.7345 15.8098 52.1617 15.696C52.1487 15.6952 52.1357 15.6944 52.1223 15.6935C51.999 15.6857 51.8764 15.6782 51.7528 15.6812C51.715 15.6805 51.715 15.6805 51.6697 15.6743C51.5989 15.6652 51.5279 15.6629 51.4565 15.6604C51.4339 15.6596 51.4339 15.6596 51.4109 15.6587C51.361 15.6569 51.3112 15.6552 51.2614 15.6536C51.2528 15.6533 51.2442 15.653 51.2353 15.6527C50.841 15.6394 50.447 15.6375 50.0525 15.6385C50.0004 15.6387 49.9482 15.6387 49.896 15.6387C49.5272 15.6387 49.1587 15.6393 48.7901 15.6542ZM48.7172 21.426C48.6914 21.4375 48.6656 21.4491 48.6397 21.4606C48.586 21.4847 48.5322 21.5087 48.4784 21.5328C48.3977 21.569 48.3169 21.6049 48.236 21.6408C48.2164 21.6495 48.2164 21.6495 48.1964 21.6584C48.1705 21.6699 48.1446 21.6814 48.1187 21.6929C48.037 21.7291 47.9553 21.7654 47.8736 21.8019C47.8271 21.8226 47.7805 21.8431 47.7338 21.8635C47.7102 21.8739 47.6866 21.8843 47.663 21.8947C47.6522 21.8994 47.6413 21.904 47.6302 21.9088C47.4861 21.9727 47.3809 22.0771 47.3184 22.2231C47.2848 22.3121 47.2671 22.3895 47.2672 22.485C47.2672 22.4937 47.2672 22.5024 47.2672 22.5114C47.2672 22.54 47.2673 22.5686 47.2674 22.5972C47.2675 22.6171 47.2675 22.637 47.2675 22.6569C47.2675 22.7092 47.2677 22.7614 47.2678 22.8136C47.268 22.867 47.268 22.9204 47.2681 22.9737C47.2682 23.0784 47.2684 23.183 47.2687 23.2876C47.2913 23.2877 47.2913 23.2877 47.3143 23.2877C47.4564 23.2882 47.5984 23.289 47.7404 23.29C47.8134 23.2905 47.8864 23.2909 47.9594 23.2911C48.0299 23.2913 48.1004 23.2918 48.1709 23.2924C48.1978 23.2926 48.2246 23.2927 48.2515 23.2927C48.2892 23.2927 48.3269 23.2931 48.3646 23.2935C48.3756 23.2935 48.3867 23.2934 48.398 23.2933C48.4736 23.2947 48.5318 23.3081 48.5934 23.3532C48.6671 23.4331 48.6691 23.5183 48.6695 23.6226C48.6698 23.6386 48.6702 23.6547 48.6705 23.6713C48.6714 23.7227 48.6718 23.774 48.6721 23.8253C48.6724 23.8578 48.6728 23.8902 48.6731 23.9227C48.6739 24.0178 48.674 24.113 48.674 24.2081C48.6739 24.2578 48.674 24.3075 48.6741 24.3573C48.6742 24.4553 48.6742 24.5533 48.6742 24.6514C48.6742 24.769 48.6743 24.8867 48.6744 25.0043C48.6746 25.2883 48.6747 25.5723 48.6747 25.8562C48.6748 25.9907 48.6748 26.1251 48.6749 26.2596C48.675 26.7203 48.6752 27.181 48.6752 27.6417C48.6752 27.6705 48.6752 27.6994 48.6752 27.7282C48.6752 27.7571 48.6752 27.786 48.6752 27.8149C48.6752 27.8729 48.6753 27.9309 48.6753 27.9889C48.6753 28.0105 48.6753 28.0105 48.6753 28.0325C48.6753 28.4994 48.6755 28.9663 48.6758 29.4332C48.6761 29.9276 48.6763 30.4219 48.6763 30.9162C48.6763 30.9705 48.6763 31.0248 48.6764 31.079C48.6764 31.099 48.6764 31.099 48.6764 31.1195C48.6764 31.3343 48.6765 31.549 48.6767 31.7638C48.6769 31.9795 48.6769 32.1953 48.6768 32.411C48.6768 32.5391 48.6768 32.6672 48.677 32.7953C48.6772 32.8809 48.6771 32.9665 48.677 33.0521C48.6769 33.1009 48.6769 33.1496 48.6771 33.1983C48.6786 33.6626 48.6786 33.6626 48.5869 33.8351C48.5824 33.8437 48.5779 33.8524 48.5733 33.8613C48.4754 34.0408 48.3043 34.1764 48.1462 34.3008C48.0978 34.3392 48.0501 34.3785 48.0024 34.4179C47.9929 34.4257 47.9834 34.4336 47.9736 34.4416C47.954 34.4578 47.9344 34.474 47.9149 34.4901C47.8662 34.5303 47.8175 34.5704 47.7688 34.6105C47.7594 34.6183 47.7501 34.626 47.7404 34.6339C47.6893 34.676 47.6381 34.7179 47.5868 34.7597C47.5757 34.7689 47.5646 34.778 47.5532 34.7874C47.527 34.8089 47.5006 34.83 47.474 34.8509C47.3744 34.9306 47.2815 35.0128 47.2556 35.1442C47.2542 35.1741 47.2535 35.204 47.2533 35.234C47.2532 35.2429 47.2531 35.2518 47.253 35.261C47.2528 35.2904 47.2526 35.3199 47.2525 35.3493C47.2524 35.3594 47.2524 35.3695 47.2523 35.3799C47.252 35.4334 47.2519 35.4868 47.2517 35.5402C47.2516 35.5953 47.2511 35.6503 47.2506 35.7053C47.2503 35.7477 47.2502 35.7902 47.2501 35.8327C47.2501 35.8529 47.2499 35.8732 47.2497 35.8935C47.2443 36.0465 47.2443 36.0465 47.3081 36.1803C47.3962 36.2666 47.5098 36.2551 47.6246 36.2542C47.6463 36.2543 47.668 36.2544 47.6897 36.2546C47.7492 36.2548 47.8088 36.2547 47.8683 36.2545C47.9325 36.2543 47.9968 36.2546 48.061 36.2547C48.1868 36.255 48.3126 36.255 48.4385 36.2548C48.5407 36.2546 48.6429 36.2546 48.7452 36.2547C48.7597 36.2547 48.7743 36.2547 48.7893 36.2547C48.8189 36.2547 48.8484 36.2548 48.878 36.2548C49.1552 36.255 49.4324 36.2548 49.7096 36.2544C49.9475 36.2541 50.1853 36.2542 50.4232 36.2545C50.6994 36.2548 50.9756 36.255 51.2518 36.2548C51.2813 36.2547 51.3108 36.2547 51.3402 36.2547C51.3547 36.2547 51.3692 36.2547 51.3841 36.2547C51.4862 36.2546 51.5884 36.2547 51.6905 36.2549C51.815 36.255 51.9394 36.255 52.0639 36.2546C52.1274 36.2545 52.1909 36.2544 52.2544 36.2546C52.3125 36.2548 52.3706 36.2547 52.4288 36.2544C52.4498 36.2543 52.4708 36.2543 52.4918 36.2545C52.6472 36.2571 52.6472 36.2571 52.7773 36.1803C52.8267 36.115 52.8314 36.0568 52.8319 35.9765C52.832 35.9681 52.832 35.9596 52.8321 35.9508C52.8323 35.9228 52.8324 35.8947 52.8325 35.8667C52.8325 35.8571 52.8325 35.8474 52.8326 35.8375C52.8328 35.7865 52.8329 35.7355 52.8329 35.6845C52.833 35.6321 52.8333 35.5797 52.8337 35.5273C52.8339 35.4868 52.834 35.4463 52.834 35.4057C52.8341 35.3864 52.8342 35.3672 52.8344 35.3479C52.8356 35.1993 52.8274 35.0695 52.7291 34.9518C52.6787 34.9012 52.6221 34.8589 52.5652 34.8158C52.5127 34.7758 52.463 34.7328 52.4134 34.6892C52.3512 34.6348 52.2884 34.5816 52.2234 34.5304C52.1753 34.4921 52.128 34.453 52.0806 34.4138C52.0614 34.398 52.0422 34.3822 52.023 34.3664C51.9934 34.342 51.9638 34.3176 51.9342 34.2931C51.9054 34.2694 51.8766 34.2457 51.8478 34.222C51.8389 34.2147 51.8301 34.2074 51.8211 34.1999C51.8129 34.1931 51.8047 34.1864 51.7962 34.1795C51.7855 34.1707 51.7855 34.1707 51.7745 34.1616C51.7526 34.1447 51.7526 34.1447 51.715 34.1343C51.7059 34.1169 51.6972 34.0994 51.6887 34.0818C51.6729 34.0654 51.6564 34.0496 51.6395 34.0343C51.4968 33.8944 51.4153 33.6875 51.4099 33.4887C51.4097 33.4637 51.4097 33.4387 51.4097 33.4137C51.4097 33.3997 51.4096 33.3857 51.4095 33.3713C51.4093 33.3243 51.4093 33.2774 51.4093 33.2304C51.4092 33.1961 51.4091 33.1618 51.409 33.1276C51.4087 33.0524 51.4086 32.9772 51.4085 32.9021C51.4084 32.7879 51.4081 32.6738 51.4078 32.5596C51.4072 32.3622 51.4068 32.1648 51.4065 31.9674C51.4061 31.7678 51.4057 31.5682 51.4052 31.3686C51.4052 31.3561 51.4051 31.3435 51.4051 31.3306C51.405 31.2793 51.4048 31.228 51.4047 31.1767C51.4018 29.9942 51.4 28.8116 51.3987 27.6291C51.3987 27.6185 51.3987 27.608 51.3987 27.5971C51.3987 27.565 51.3986 27.5329 51.3986 27.5008C51.3986 27.4902 51.3986 27.4795 51.3986 27.4686C51.3985 27.4147 51.3984 27.3609 51.3984 27.307C51.398 26.9924 51.3977 26.6779 51.3973 26.3634C51.3972 26.3308 51.3972 26.2983 51.3971 26.2657C51.3969 26.0703 51.3966 25.8748 51.3964 25.6793C51.3962 25.5491 51.396 25.4188 51.3959 25.2886C51.3959 25.2778 51.3958 25.2671 51.3958 25.256C51.3954 24.8973 51.3951 24.5385 51.3948 24.1797C51.3946 23.836 51.3943 23.4924 51.3938 23.1487C51.3937 23.0993 51.3937 23.0499 51.3936 23.0005C51.3936 22.9908 51.3936 22.9811 51.3935 22.9711C51.3933 22.8163 51.3933 22.6615 51.3932 22.5067C51.3932 22.3533 51.3931 22.1999 51.3928 22.0464C51.3926 21.9639 51.3925 21.8813 51.3926 21.7987C51.3927 21.7235 51.3926 21.6483 51.3923 21.5731C51.3922 21.5459 51.3922 21.5187 51.3923 21.4915C51.3924 21.4547 51.3923 21.4179 51.3921 21.3811C51.3922 21.3704 51.3922 21.3598 51.3923 21.3488C51.3917 21.2889 51.3849 21.2499 51.3477 21.2022C51.3086 21.1751 51.2761 21.1727 51.2291 21.1726C51.2091 21.1725 51.2091 21.1725 51.1887 21.1724C51.1742 21.1724 51.1596 21.1725 51.1446 21.1726C51.1292 21.1725 51.1138 21.1725 51.0979 21.1724C51.0556 21.1723 51.0133 21.1723 50.971 21.1724C50.9265 21.1725 50.882 21.1724 50.8374 21.1724C50.7624 21.1723 50.6873 21.1724 50.6123 21.1725C50.5263 21.1727 50.4403 21.1726 50.3543 21.1725C50.28 21.1724 50.2057 21.1723 50.1315 21.1724C50.0873 21.1725 50.0432 21.1724 49.999 21.1724C49.5272 21.1717 49.1476 21.2323 48.7172 21.426ZM30.8347 23.3007C30.8109 23.3323 30.7878 23.3642 30.765 23.3966C30.758 23.4066 30.751 23.4165 30.7438 23.4268C30.6652 23.5397 30.5919 23.6557 30.5199 23.7729C30.5147 23.7813 30.5095 23.7898 30.5041 23.7986C30.4694 23.8552 30.4355 23.9123 30.4019 23.9696C30.3962 23.9793 30.3904 23.9891 30.3845 23.9991C30.2694 24.1954 30.1633 24.396 30.0609 24.5992C30.0541 24.6127 30.0472 24.6262 30.0402 24.6401C29.5689 25.5796 29.289 26.6223 29.2059 28.156C29.2059 28.1679 29.2059 28.1798 29.2059 28.192C29.2078 29.255 29.4331 30.3097 31.0839 33.3736C31.0898 33.3813 31.0956 33.389 31.1017 33.3969C31.2051 33.5331 31.313 33.6653 31.4239 33.7955C31.4613 33.8395 31.4978 33.8842 31.534 33.9293C31.5978 34.0079 31.6672 34.081 31.7366 34.1546C31.7685 34.1884 31.7996 34.2228 31.8299 34.2581C31.8668 34.3011 31.9063 34.3408 31.9471 34.3802C31.9712 34.405 31.9936 34.4302 32.016 34.4564C32.0719 34.5206 32.1317 34.5808 32.192 34.6408C32.211 34.6597 32.2299 34.6787 32.2488 34.6977C32.3105 34.7593 32.3729 34.8192 32.4391 34.8759C32.4675 34.9006 32.4939 34.927 32.5201 34.954C32.5638 34.9982 32.6086 35.0399 32.6558 35.0803C32.689 35.1092 32.7213 35.139 32.7537 35.1688C32.8133 35.2231 32.8747 35.2744 32.9374 35.325C32.9719 35.3535 33.0051 35.3829 33.0382 35.4131C33.106 35.4748 33.1767 35.5325 33.248 35.5901C33.2642 35.6034 33.2803 35.6167 33.2964 35.6299C33.4005 35.7155 33.5063 35.798 33.6145 35.8783C33.6599 35.9121 33.7049 35.9465 33.7498 35.981C33.8735 36.0764 33.9993 36.1686 34.1268 36.259C34.1377 36.2668 34.1486 36.2745 34.1598 36.2825C34.4652 36.4989 34.7787 36.7052 35.0973 36.9017C35.1172 36.9139 35.1172 36.9139 35.1374 36.9264C35.453 37.1208 35.7736 37.3051 36.1004 37.48C36.1369 37.4997 36.1732 37.5196 36.2094 37.5397C36.386 37.6369 36.5645 37.7292 36.745 37.819C36.7587 37.8258 36.7724 37.8327 36.7866 37.8397C36.9865 37.9394 37.1869 38.0372 37.3906 38.1291C37.4331 38.1482 37.4754 38.1676 37.5178 38.187C38.1839 38.4905 38.8653 38.7599 39.5567 39.0002C39.5687 39.0044 39.5806 39.0085 39.593 39.0128C40.9336 39.4782 42.304 39.8419 47.754 40.6266C47.7681 40.6275 47.7822 40.6284 47.7967 40.6293C48.5142 40.6753 49.2315 40.6969 49.9504 40.6956C50.0342 40.6954 50.118 40.6955 50.2018 40.6957C50.8221 40.6966 51.4417 40.6797 52.0609 40.6421C52.0796 40.641 52.0983 40.6399 52.1171 40.6388C53.265 40.5704 54.4094 40.4446 62.0591 38.4029C62.1076 38.3816 62.1563 38.3605 62.2049 38.3395C62.5821 38.1761 62.9534 38.0008 63.3224 37.8198C63.3304 37.8159 63.3384 37.812 63.3466 37.8079C63.526 37.7199 63.7034 37.6291 63.8783 37.5324C63.9302 37.5038 63.9823 37.4756 64.0346 37.4477C64.2284 37.3444 64.419 37.2368 64.6077 37.1247C64.619 37.118 64.6302 37.1114 64.6418 37.1045C64.7182 37.0593 64.7942 37.0134 64.87 36.9673C64.8809 36.9607 64.8918 36.9541 64.9031 36.9472C65.0931 36.8317 65.2785 36.7094 65.4635 36.5861C65.475 36.5784 65.4866 36.5708 65.4984 36.5629C65.7527 36.3936 66.0023 36.2186 66.2472 36.0361C66.2565 36.0291 66.2658 36.0222 66.2755 36.015C66.5309 35.8252 66.7792 35.6265 67.021 35.4196C67.0283 35.4134 67.0357 35.4071 67.0432 35.4006C67.0817 35.3677 67.1201 35.3348 67.1584 35.3018C67.1885 35.276 67.2188 35.2502 67.2492 35.2247C67.3642 35.1277 67.4738 35.0256 67.5828 34.9219C67.6105 34.8957 67.6383 34.8697 67.6662 34.8437C67.7681 34.7488 67.8683 34.6523 67.967 34.554C67.9824 34.5387 67.9824 34.5387 67.998 34.5231C68.0527 34.4683 68.105 34.4122 68.1556 34.3535C68.1785 34.3273 68.2026 34.3027 68.2277 34.2786C68.2695 34.2372 68.3086 34.1945 68.3469 34.1499C68.376 34.1165 68.4059 34.084 68.4359 34.0515C68.4892 33.993 68.5398 33.9328 68.5895 33.8712C68.6187 33.8355 68.6486 33.8006 68.6788 33.7658C68.7531 33.6801 68.8237 33.5924 68.892 33.5018C68.9111 33.4766 68.9304 33.4516 68.9497 33.4265C69.3283 32.9361 69.6586 32.4141 69.9458 31.8653C69.956 31.8457 69.956 31.8457 69.9665 31.8258C70.4785 30.841 70.7851 29.7438 70.8664 28.1773C70.8664 28.1594 70.8664 28.1594 70.8663 28.1412C70.8644 27.0783 70.6392 26.0235 69.2376 23.3007C69.1912 23.3558 69.1534 23.4144 69.1154 23.4753C69.1052 23.4915 69.1052 23.4915 69.0948 23.5081C69.0724 23.5439 69.0501 23.5797 69.0277 23.6155C69.012 23.6406 68.9963 23.6657 68.9806 23.6908C68.9391 23.7571 68.8976 23.8235 68.8562 23.8898C68.815 23.9558 68.7738 24.0217 68.7326 24.0876C68.7162 24.1139 68.6998 24.1401 68.6834 24.1663C68.6342 24.245 68.6342 24.245 68.5851 24.3237C68.5769 24.3367 68.5688 24.3497 68.5605 24.3631C68.5441 24.3893 68.5277 24.4154 68.5114 24.4416C68.4699 24.508 68.4284 24.5744 68.3869 24.6408C68.306 24.7705 68.2248 24.9 68.1431 25.0292C68.0655 25.1519 67.9887 25.275 67.9119 25.3982C67.8707 25.4641 67.8295 25.53 67.7883 25.5959C67.7719 25.6222 67.7555 25.6484 67.7391 25.6746C67.5751 25.937 67.4112 26.1993 67.2473 26.4616C67.2391 26.4746 67.231 26.4876 67.2226 26.501C67.2063 26.5271 67.19 26.5532 67.1736 26.5793C67.1316 26.6465 67.0897 26.7137 67.0477 26.781C67.0067 26.8469 66.9654 26.9127 66.9242 26.9785C66.9055 27.0084 66.887 27.0384 66.8685 27.0684C66.8095 27.1637 66.7451 27.2469 66.6669 27.3272C66.6498 27.3456 66.6498 27.3456 66.6323 27.3643C66.4189 27.5893 66.143 27.7786 65.8537 27.8912C65.8537 27.8999 65.8537 27.9085 65.8537 27.9174C65.8612 27.9211 65.8686 27.9248 65.8763 27.9285C65.9866 27.9858 66.0611 28.0547 66.116 28.1666C66.1588 28.3025 66.1267 28.4372 66.0636 28.5601C66.0253 28.6258 65.9827 28.6885 65.9403 28.7515C65.9026 28.8082 65.8663 28.8658 65.8299 28.9232C65.8142 28.9479 65.7985 28.9726 65.7828 28.9973C65.7711 29.0158 65.7711 29.0158 65.7591 29.0347C65.6465 29.2119 65.5336 29.389 65.4204 29.5658C65.3711 29.6428 65.3219 29.7199 65.2728 29.797C65.2579 29.8205 65.243 29.844 65.228 29.8674C65.187 29.9318 65.1461 29.9963 65.1055 30.061C64.8807 30.418 64.6072 30.7583 64.2667 31.0127C64.2595 31.0183 64.2523 31.0238 64.2448 31.0295C64.1465 31.1048 64.0464 31.1741 63.939 31.2358C63.8918 31.263 63.8493 31.2924 63.8077 31.3275C63.8183 31.3332 63.8289 31.3389 63.8398 31.3448C63.9446 31.4033 64.0143 31.4435 64.0544 31.5603C64.0957 31.7199 64.0598 31.8753 63.979 32.0177C63.9615 32.0458 63.9438 32.0736 63.9257 32.1013C63.9135 32.1202 63.9014 32.1391 63.8892 32.158C63.8607 32.2021 63.832 32.2461 63.8032 32.29C63.7517 32.3689 63.7009 32.4482 63.6503 32.5276C63.5805 32.6368 63.5103 32.7457 63.4395 32.8542C63.3825 32.9418 63.3262 33.0298 63.2699 33.1178C63.2002 33.227 63.1302 33.3359 63.0592 33.4442C63.0197 33.5049 62.9807 33.5658 62.9423 33.6272C62.8498 33.7747 62.7587 33.9145 62.6404 34.0425C62.63 34.0544 62.6197 34.0662 62.609 34.0785C62.5493 34.1468 62.4876 34.2081 62.4174 34.2654C62.4106 34.2711 62.4038 34.2767 62.3968 34.2825C62.2777 34.3813 62.1555 34.4725 62.0239 34.554C62.0139 34.5602 62.0038 34.5664 61.9935 34.5728C61.583 34.8241 61.1633 34.9516 60.6835 34.9511C60.6556 34.9512 60.6276 34.9513 60.5996 34.9513C60.5232 34.9515 60.4467 34.9516 60.3703 34.9516C60.2877 34.9517 60.2051 34.9519 60.1225 34.952C59.9796 34.9523 59.8366 34.9525 59.6936 34.9527C59.5438 34.9528 59.3939 34.953 59.244 34.9533C59.2347 34.9533 59.2254 34.9533 59.2158 34.9533C59.1684 34.9534 59.1209 34.9535 59.0735 34.9536C58.7382 34.9542 58.4028 34.9546 58.0674 34.955C57.7417 34.9554 57.416 34.9559 57.0902 34.9564C57.0802 34.9564 57.0701 34.9564 57.0598 34.9565C56.9589 34.9566 56.858 34.9568 56.7571 34.9569C56.5515 34.9573 56.346 34.9576 56.1404 34.9579C56.131 34.9579 56.1215 34.958 56.1118 34.958C55.4812 34.959 54.8506 34.9598 54.2201 34.9606C54.221 34.9744 54.2219 34.9883 54.2229 35.0025C54.229 35.096 54.2348 35.189 54.2351 35.2827C54.2352 35.2922 54.2352 35.3018 54.2353 35.3116C54.2354 35.3426 54.2354 35.3737 54.2355 35.4047C54.2356 35.4273 54.2357 35.4499 54.2358 35.4726C54.236 35.5459 54.2362 35.6193 54.2363 35.6926C54.2364 35.7181 54.2364 35.7435 54.2365 35.7689C54.2367 35.8881 54.2369 36.0073 54.237 36.1266C54.2371 36.2638 54.2375 36.401 54.238 36.5383C54.2384 36.6447 54.2386 36.7512 54.2386 36.8577C54.2387 36.9211 54.2388 36.9846 54.2391 37.048C54.2394 37.1075 54.2395 37.1671 54.2393 37.2266C54.2393 37.2484 54.2394 37.2703 54.2396 37.2921C54.2398 37.3219 54.2397 37.3517 54.2396 37.3815C54.2396 37.3982 54.2396 37.4149 54.2397 37.432C54.2298 37.5029 54.2011 37.5512 54.1487 37.6009C53.9837 37.7096 53.6985 37.6643 53.5081 37.6643C53.4762 37.6643 53.4443 37.6643 53.4124 37.6644C53.3344 37.6645 53.2563 37.6645 53.1783 37.6645C53.0848 37.6645 52.9912 37.6646 52.8976 37.6647C52.6717 37.6649 52.4457 37.665 52.2198 37.665C52.1128 37.6651 52.0059 37.6651 51.8989 37.6652C51.5326 37.6653 51.1662 37.6655 50.7999 37.6655C50.7769 37.6655 50.7539 37.6655 50.731 37.6655C50.708 37.6655 50.685 37.6655 50.6619 37.6655C50.6158 37.6656 50.5696 37.6656 50.5235 37.6656C50.5063 37.6656 50.5063 37.6656 50.4888 37.6656C50.1173 37.6656 49.7459 37.6658 49.3744 37.6661C48.9813 37.6665 48.5882 37.6666 48.1951 37.6666C48.1519 37.6667 48.1088 37.6667 48.0656 37.6667C48.0497 37.6667 48.0497 37.6667 48.0334 37.6667C47.8626 37.6667 47.6917 37.6668 47.5209 37.667C47.3492 37.6672 47.1776 37.6672 47.0059 37.6671C46.904 37.6671 46.8021 37.6671 46.7001 37.6673C46.624 37.6675 46.5478 37.6674 46.4717 37.6673C46.4409 37.6672 46.4101 37.6673 46.3794 37.6674C46.0135 37.6687 46.0135 37.6687 45.9275 37.599C45.8361 37.508 45.8361 37.3982 45.8356 37.2758C45.8356 37.2577 45.8357 37.2395 45.8357 37.2213C45.8357 37.202 45.8356 37.1826 45.8356 37.1633C45.8355 37.1108 45.8355 37.0583 45.8356 37.0059C45.8357 36.9505 45.8356 36.8951 45.8356 36.8397C45.8355 36.7464 45.8356 36.6531 45.8357 36.5598C45.8358 36.453 45.8358 36.3463 45.8356 36.2396C45.8355 36.1472 45.8355 36.0548 45.8356 35.9624C45.8356 35.9076 45.8356 35.8528 45.8355 35.7979C45.8355 35.746 45.8355 35.6941 45.8357 35.6421C45.8357 35.6235 45.8357 35.6048 45.8356 35.5862C45.835 35.3773 45.8513 35.1689 45.8653 34.9606C45.8511 34.9606 45.8369 34.9605 45.8223 34.9605C45.196 34.96 44.5697 34.9594 43.9435 34.9585C43.934 34.9585 43.9245 34.9585 43.9147 34.9584C43.7084 34.9582 43.5022 34.9579 43.2959 34.9576C43.1948 34.9574 43.0936 34.9573 42.9924 34.9571C42.9824 34.9571 42.9723 34.9571 42.9619 34.9571C42.636 34.9566 42.31 34.9563 41.9841 34.956C41.6489 34.9557 41.3138 34.9553 40.9787 34.9547C40.9313 34.9547 40.8839 34.9546 40.8365 34.9545C40.8272 34.9545 40.8179 34.9545 40.8083 34.9545C40.6585 34.9542 40.5086 34.9541 40.3588 34.954C40.208 34.954 40.0572 34.9538 39.9064 34.9534C39.8248 34.9532 39.7432 34.9531 39.6615 34.9532C39.5867 34.9532 39.5118 34.9531 39.4369 34.9528C39.41 34.9527 39.383 34.9527 39.3561 34.9528C39.1461 34.9533 38.944 34.936 38.7427 34.872C38.7319 34.8687 38.721 34.8653 38.7099 34.8619C38.6002 34.827 38.4941 34.7851 38.3894 34.7376C38.3808 34.7337 38.3722 34.7298 38.3634 34.7258C38.0769 34.594 37.7926 34.4094 37.5725 34.182C37.552 34.1575 37.552 34.1575 37.5237 34.1605C37.5194 34.1475 37.5151 34.1345 37.5106 34.1212C37.502 34.1212 37.4933 34.1212 37.4844 34.1212C37.4812 34.1137 37.478 34.1063 37.4747 34.0987C37.4552 34.0633 37.4315 34.0382 37.4037 34.0089C37.3416 33.9411 37.2909 33.8694 37.2409 33.7925C37.2275 33.7721 37.2275 33.7721 37.2139 33.7513C37.1237 33.6138 37.0352 33.4753 36.9469 33.3365C36.9019 33.2657 36.8566 33.1951 36.8114 33.1244C36.8026 33.1107 36.7938 33.0969 36.7848 33.0828C36.7123 32.9696 36.6394 32.8567 36.5663 32.744C36.4556 32.5735 36.3457 32.4026 36.2364 32.2312C36.2213 32.2074 36.2061 32.1836 36.1908 32.1599C36.0716 31.974 35.9698 31.8059 36.0154 31.5767C36.0485 31.4713 36.1029 31.418 36.1991 31.3669C36.2073 31.3624 36.2156 31.358 36.2242 31.3534C36.2418 31.3443 36.2597 31.3358 36.2777 31.3275C36.2404 31.2979 36.2012 31.2734 36.1601 31.2494C35.9846 31.1472 35.8269 31.0284 35.6744 30.8947C35.6636 30.8853 35.6527 30.8759 35.6415 30.8663C35.4796 30.7239 35.3306 30.5711 35.2008 30.3989C35.1926 30.3894 35.1844 30.3799 35.176 30.3701C35.1674 30.3701 35.1587 30.3701 35.1498 30.3701C35.1467 30.3614 35.1437 30.3527 35.1405 30.3437C35.1187 30.2932 35.091 30.2479 35.0621 30.2012C35.0558 30.191 35.0496 30.1808 35.0431 30.1703C34.9825 30.0723 34.9194 29.9759 34.8562 29.8795C34.7985 29.7915 34.7418 29.7029 34.6858 29.6138C34.6316 29.5276 34.5768 29.4418 34.5219 29.3561C34.4475 29.24 34.3733 29.1239 34.2994 29.0076C34.2608 28.9467 34.2219 28.8859 34.1827 28.8254C33.9235 28.4249 33.9235 28.4249 33.9431 28.2322C33.9773 28.0957 34.0634 28.0049 34.1792 27.9305C34.1964 27.9213 34.2138 27.9122 34.2317 27.9043C34.1956 27.8803 34.167 27.8682 34.1268 27.8535C33.9616 27.7859 33.8033 27.6787 33.6677 27.5633C33.6533 27.5513 33.639 27.5394 33.6246 27.5274C33.4368 27.3699 33.2887 27.2074 33.1619 26.9969C33.1434 26.9664 33.1249 26.936 33.1063 26.9056C33.1017 26.898 33.097 26.8904 33.0923 26.8825C33.0481 26.8102 33.0027 26.7387 32.957 26.6673C32.8912 26.5645 32.8264 26.4611 32.7623 26.3572C32.6436 26.1648 32.5236 25.9733 32.4027 25.7823C32.3252 25.6597 32.2484 25.5365 32.1715 25.4134C32.1303 25.3474 32.0891 25.2815 32.0479 25.2156C32.0315 25.1894 32.0151 25.1631 31.9987 25.1369C31.9906 25.1239 31.9825 25.1109 31.9742 25.0975C31.3102 24.0352 31.3102 24.0352 31.2856 23.9958C31.2692 23.9697 31.2529 23.9435 31.2366 23.9174C31.1946 23.8502 31.1526 23.783 31.1107 23.7158C31.0036 23.544 31.0036 23.544 30.8954 23.3728C30.8864 23.3586 30.8773 23.3444 30.868 23.3298C30.8614 23.3202 30.8547 23.3106 30.8478 23.3007C30.8435 23.3007 30.8392 23.3007 30.8347 23.3007ZM33.4054 24.7041C33.425 24.7531 33.4427 24.7901 33.4703 24.8339C33.4781 24.8462 33.4859 24.8586 33.4939 24.8713C33.5023 24.8846 33.5107 24.8978 33.5193 24.9115C33.5373 24.94 33.5552 24.9685 33.5732 24.997C33.5824 25.0115 33.5916 25.0261 33.601 25.0411C33.6431 25.1079 33.6849 25.1748 33.7267 25.2418C33.7431 25.2681 33.7595 25.2943 33.7759 25.3205C34.071 25.7927 34.071 25.7927 34.0957 25.8321C34.1119 25.8581 34.1282 25.8842 34.1445 25.9102C34.1872 25.9785 34.2299 26.0469 34.2724 26.1153C34.2856 26.1366 34.2856 26.1366 34.2991 26.1583C34.316 26.1854 34.3328 26.2125 34.3496 26.2396C34.3647 26.2637 34.3799 26.2878 34.3952 26.3118C34.4074 26.331 34.4192 26.3505 34.4302 26.3704C34.4769 26.4483 34.5493 26.4728 34.6309 26.5058C34.6438 26.5113 34.6568 26.5168 34.6701 26.5224C34.6981 26.5343 34.7263 26.5458 34.7546 26.557C34.7935 26.5728 34.8311 26.5903 34.8688 26.6088C35.0665 26.7024 35.2402 26.7143 35.4565 26.7122C35.492 26.7123 35.5275 26.7124 35.563 26.7126C35.6397 26.7129 35.7164 26.7128 35.7931 26.7124C35.9071 26.7118 36.0212 26.7119 36.1352 26.7121C36.3272 26.7125 36.5192 26.7123 36.7112 26.7118C36.9013 26.7113 37.0914 26.7111 37.2815 26.7112C37.2992 26.7112 37.2992 26.7112 37.3174 26.7112C37.3776 26.7112 37.4378 26.7112 37.498 26.7113C37.9239 26.7116 38.3499 26.7113 38.7758 26.7107C39.1888 26.7102 39.6018 26.7098 40.0148 26.7097C40.0339 26.7097 40.0339 26.7097 40.0534 26.7097C40.3317 26.7096 40.6101 26.7096 40.8885 26.7096C40.9255 26.7096 40.9626 26.7096 40.9997 26.7096C41.0118 26.7096 41.024 26.7096 41.0366 26.7096C41.0611 26.7096 41.0857 26.7096 41.1102 26.7096C41.1711 26.7096 41.2319 26.7096 41.2928 26.7096C41.5785 26.7096 41.8642 26.7095 42.15 26.7091C42.3292 26.7089 42.5084 26.7087 42.6876 26.7086C42.8009 26.7086 42.9141 26.7084 43.0274 26.7082C43.1032 26.708 43.179 26.7079 43.2549 26.708C43.2979 26.708 43.341 26.7079 43.3841 26.7078C44.0322 26.7057 44.0322 26.7057 44.2783 26.8813C44.2919 26.8908 44.3054 26.9002 44.3193 26.91C44.4447 27.0223 44.5118 27.1842 44.5825 27.333C44.5934 27.3557 44.6043 27.3785 44.6153 27.4012C44.694 27.565 44.771 27.7296 44.8467 27.8947C44.8787 27.9643 44.9125 28.0328 44.9472 28.101C44.9017 28.1114 44.8597 28.1158 44.813 28.1158C44.7993 28.1158 44.7856 28.1159 44.7715 28.1159C44.749 28.1158 44.749 28.1158 44.7261 28.1158C44.7101 28.1158 44.6941 28.1158 44.6776 28.1158C44.6329 28.1159 44.5883 28.1158 44.5437 28.1158C44.4952 28.1157 44.4467 28.1158 44.3982 28.1158C44.3132 28.1158 44.2282 28.1158 44.1432 28.1157C44.0167 28.1156 43.8903 28.1156 43.7639 28.1157C43.5512 28.1157 43.3385 28.1156 43.1259 28.1156C42.9152 28.1155 42.7046 28.1154 42.494 28.1154C42.4744 28.1154 42.4744 28.1154 42.4543 28.1154C42.3879 28.1154 42.3214 28.1154 42.255 28.1154C41.784 28.1154 41.3131 28.1153 40.8421 28.1152C40.3845 28.115 39.9269 28.1149 39.4694 28.1149C39.4553 28.1149 39.4412 28.1149 39.4266 28.1149C39.285 28.1149 39.1434 28.1148 39.0018 28.1148C38.7134 28.1148 38.4249 28.1148 38.1365 28.1147C38.1232 28.1147 38.1099 28.1147 38.0963 28.1147C37.2103 28.1146 36.3243 28.1144 35.4383 28.1142C35.4547 28.1649 35.4712 28.2079 35.5004 28.2526C35.5076 28.2637 35.5148 28.2749 35.5222 28.2864C35.5299 28.2982 35.5377 28.3101 35.5457 28.3224C35.5625 28.3483 35.5792 28.3743 35.5959 28.4003C35.6089 28.4203 35.6089 28.4203 35.6221 28.4408C35.6639 28.5059 35.7048 28.5715 35.7457 28.6372C35.7539 28.6502 35.762 28.6633 35.7704 28.6768C35.787 28.7033 35.8036 28.7299 35.8201 28.7564C35.8611 28.8222 35.9022 28.8879 35.9433 28.9536C35.9937 29.0343 36.0442 29.1149 36.0945 29.1956C36.1033 29.2096 36.112 29.2236 36.1209 29.2379C36.1374 29.2643 36.1539 29.2907 36.1704 29.3171C36.1855 29.3413 36.2006 29.3655 36.2158 29.3897C36.2314 29.4146 36.247 29.4396 36.2625 29.4646C36.3174 29.5523 36.3767 29.6265 36.4483 29.7012C36.457 29.7107 36.4657 29.7202 36.4746 29.7301C36.6178 29.8817 36.793 30.0026 36.986 30.0815C36.994 30.085 37.002 30.0885 37.0103 30.092C37.1306 30.1361 37.2588 30.1263 37.385 30.1259C37.4125 30.126 37.44 30.126 37.4675 30.1261C37.5429 30.1263 37.6183 30.1263 37.6937 30.1262C37.7751 30.1261 37.8565 30.1263 37.9379 30.1264C38.0789 30.1266 38.2199 30.1267 38.361 30.1267C38.509 30.1266 38.657 30.1267 38.805 30.1269C38.8188 30.1269 38.8188 30.1269 38.8329 30.1269C38.8797 30.127 38.9265 30.127 38.9733 30.1271C39.0685 30.1272 39.1637 30.1274 39.2589 30.1275C39.2684 30.1275 39.2779 30.1275 39.2877 30.1275C39.5144 30.1278 39.7411 30.1279 39.9678 30.128C39.9826 30.128 39.9826 30.128 39.9978 30.128C40.0781 30.1281 40.1585 30.1281 40.2388 30.1281C40.4699 30.1283 40.7011 30.1284 40.9322 30.1286C40.9421 30.1286 40.952 30.1286 40.9622 30.1286C41.1883 30.1287 41.4144 30.1289 41.6406 30.1292C41.6501 30.1292 41.6596 30.1292 41.6694 30.1292C41.7644 30.1293 41.8594 30.1294 41.9545 30.1296C42.1583 30.1298 42.3621 30.13 42.5659 30.13C42.7146 30.13 42.8632 30.1301 43.0119 30.1303C43.0923 30.1304 43.1728 30.1304 43.2533 30.1304C43.327 30.1303 43.4008 30.1304 43.4745 30.1305C43.5011 30.1306 43.5277 30.1306 43.5543 30.1305C43.8492 30.1299 44.1703 30.1402 44.3971 30.3566C44.5035 30.4675 44.564 30.6092 44.6292 30.7463C44.6397 30.7681 44.6501 30.7899 44.6606 30.8117C44.6862 30.8648 44.7116 30.918 44.7369 30.9712C44.756 31.011 44.7751 31.0509 44.7943 31.0907C44.8635 31.2348 44.9316 31.3795 44.9997 31.5243C42.524 31.5286 40.0483 31.5329 37.4975 31.5374C37.5801 31.6831 37.5801 31.6831 37.6688 31.8243C37.7276 31.914 37.785 32.0046 37.8418 32.0956C37.8543 32.1156 37.8543 32.1156 37.867 32.136C37.884 32.1633 37.901 32.1906 37.918 32.2179C37.9592 32.284 38.0005 32.3501 38.0418 32.4161C38.1002 32.5094 38.1584 32.6028 38.2166 32.6962C38.2414 32.7359 38.2663 32.7756 38.2912 32.8152C38.3195 32.8603 38.3474 32.9055 38.3749 32.9512C38.5388 33.2199 38.786 33.4408 39.0923 33.5319C39.1558 33.5472 39.2173 33.5479 39.2824 33.5477C39.2954 33.5478 39.3084 33.5479 39.3219 33.5479C39.3656 33.5481 39.4092 33.5482 39.4529 33.5482C39.4846 33.5483 39.5162 33.5484 39.5478 33.5486C39.6256 33.5489 39.7035 33.5491 39.7813 33.5492C39.8745 33.5493 39.9678 33.5497 40.061 33.55C40.297 33.5507 40.533 33.5512 40.769 33.5516C40.833 33.5517 40.8969 33.5518 40.9608 33.5519C41.3578 33.5527 41.7548 33.5533 42.1517 33.5537C42.2437 33.5538 42.3356 33.5539 42.4275 33.554C42.4389 33.554 42.4503 33.554 42.4621 33.554C42.8324 33.5544 43.2028 33.5553 43.5731 33.5565C43.954 33.5578 44.3348 33.5585 44.7156 33.5587C44.7694 33.5587 44.8232 33.5588 44.877 33.5588C44.8929 33.5588 44.8929 33.5588 44.9091 33.5588C45.0794 33.5589 45.2497 33.5595 45.42 33.5603C45.5912 33.561 45.7624 33.5613 45.9336 33.561C46.0353 33.5608 46.1369 33.561 46.2386 33.5618C46.3146 33.5624 46.3905 33.5622 46.4665 33.5617C46.4972 33.5616 46.5279 33.5618 46.5586 33.5622C46.7393 33.5698 46.7393 33.5698 46.8964 33.4942C46.9265 33.4646 46.9532 33.4323 46.9802 33.3998C47.004 33.379 47.0283 33.3588 47.0531 33.3391C47.0648 33.3293 47.0766 33.3194 47.0886 33.3093C47.1245 33.2818 47.1245 33.2818 47.1624 33.2621C47.2197 33.2286 47.2597 33.1978 47.277 33.1328C47.2911 33.0319 47.2874 32.9299 47.2861 32.8284C47.2861 32.7934 47.2863 32.7585 47.2864 32.7236C47.2867 32.6476 47.2865 32.5716 47.2859 32.4956C47.285 32.3811 47.285 32.2666 47.2851 32.1521C47.2853 31.9602 47.2848 31.7683 47.284 31.5764C47.2828 31.317 47.2825 31.0575 47.2824 30.7981C47.2816 30.1742 47.2796 29.5504 47.2777 28.9265C47.2748 27.5331 47.2718 26.1397 47.2687 24.7041C42.6938 24.7041 38.1189 24.7041 33.4054 24.7041ZM52.8167 24.7041C52.8126 26.0964 52.8086 27.4887 52.8044 28.9232C52.8026 29.3633 52.8008 29.8034 52.799 30.2569C52.7983 30.6504 52.7983 30.6504 52.7979 31.0439C52.7977 31.2311 52.7969 31.4184 52.7957 31.6056C52.7945 31.7966 52.7941 31.9875 52.7944 32.1784C52.7945 32.292 52.7941 32.4055 52.7929 32.519C52.7922 32.594 52.7921 32.669 52.7927 32.744C52.793 32.7867 52.7929 32.8294 52.7921 32.8721C52.7828 33.0584 52.7828 33.0584 52.8593 33.2203C52.8994 33.2583 52.9423 33.2894 52.989 33.3186C53.0258 33.3422 53.058 33.3699 53.0913 33.3982C53.1017 33.4065 53.1121 33.4149 53.1228 33.4235C53.1577 33.4523 53.1577 33.4523 53.1794 33.4748C53.237 33.532 53.277 33.5546 53.3584 33.5562C53.3704 33.556 53.3823 33.5558 53.3947 33.5555C53.4142 33.5557 53.4142 33.5557 53.4341 33.5559C53.4777 33.5562 53.5213 33.5558 53.5649 33.5555C53.5964 33.5555 53.628 33.5557 53.6596 33.5558C53.7282 33.5561 53.7968 33.556 53.8655 33.5557C53.9676 33.5553 54.0696 33.5554 54.1717 33.5556C54.3541 33.5559 54.5364 33.5557 54.7187 33.5553C54.8783 33.555 55.0379 33.5548 55.1975 33.5548C55.2081 33.5548 55.2187 33.5548 55.2296 33.5548C55.2726 33.5548 55.3156 33.5548 55.3585 33.5549C55.7618 33.5549 56.165 33.5545 56.5682 33.5538C56.9263 33.5532 57.2845 33.553 57.6426 33.5531C57.6656 33.5531 57.6885 33.5531 57.7115 33.5531C57.7229 33.5531 57.7342 33.5531 57.746 33.5531C57.8032 33.5531 57.8604 33.5531 57.9176 33.5531C57.9289 33.5531 57.9401 33.5531 57.9518 33.5531C58.2511 33.5532 58.5504 33.553 58.8497 33.5527C58.8604 33.5527 58.871 33.5527 58.882 33.5527C58.898 33.5527 58.898 33.5527 58.9142 33.5527C58.9248 33.5527 58.9355 33.5527 58.9464 33.5527C58.9678 33.5526 58.9891 33.5526 59.0105 33.5526C59.1594 33.5525 59.3083 33.5524 59.4572 33.5524C59.6491 33.5524 59.8411 33.5523 60.033 33.5518C60.1345 33.5516 60.2359 33.5515 60.3374 33.5516C60.4132 33.5517 60.489 33.5514 60.5649 33.5511C60.5955 33.551 60.6261 33.551 60.6567 33.5511C60.8798 33.5523 60.8798 33.5523 61.0927 33.4916C61.1063 33.4858 61.12 33.4799 61.134 33.4739C61.2416 33.4257 61.3306 33.3565 61.4206 33.2818C61.4325 33.272 61.4445 33.2622 61.4568 33.2521C61.581 33.146 61.6644 33.0108 61.7493 32.8727C61.7665 32.8449 61.7838 32.8171 61.801 32.7894C61.8097 32.7753 61.8184 32.7612 61.8273 32.7468C61.8686 32.6801 61.9102 32.6137 61.9518 32.5473C61.9682 32.521 61.9846 32.4948 62.001 32.4686C62.2984 31.9927 62.2984 31.9927 62.324 31.9517C62.3407 31.925 62.3574 31.8983 62.374 31.8717C62.411 31.8125 62.448 31.7534 62.4851 31.6944C62.4913 31.6845 62.4975 31.6747 62.5039 31.6645C62.5153 31.6464 62.5267 31.6283 62.5382 31.6102C62.5636 31.5762 62.5636 31.5762 62.5748 31.5374C60.0991 31.5374 57.6233 31.5374 55.0726 31.5374C55.1202 31.4378 55.1678 31.3383 55.2169 31.2357C55.2479 31.1699 55.279 31.104 55.3099 31.0381C55.3232 31.0099 55.3364 30.9818 55.3497 30.9536C55.3888 30.8706 55.4278 30.7876 55.4661 30.7042C55.4747 30.6854 55.4747 30.6854 55.4836 30.6663C55.4938 30.6443 55.5039 30.6222 55.5138 30.6C55.6011 30.4126 55.7451 30.2728 55.9382 30.1996C56.0893 30.1497 56.2408 30.1319 56.3994 30.1323C56.4165 30.1323 56.4165 30.1323 56.4339 30.1322C56.4719 30.1322 56.5099 30.1322 56.5479 30.1323C56.5755 30.1322 56.6031 30.1322 56.6307 30.1322C56.6905 30.1321 56.7504 30.1321 56.8103 30.1321C56.9078 30.1321 57.0052 30.1321 57.1026 30.132C57.2349 30.1319 57.3672 30.1318 57.4995 30.1318C57.7229 30.1317 57.9462 30.1315 58.1695 30.1313C58.2171 30.1312 58.2647 30.1312 58.3123 30.1311C58.3217 30.1311 58.3312 30.1311 58.341 30.1311C58.3602 30.1311 58.3794 30.131 58.3986 30.131C58.4179 30.131 58.4372 30.131 58.4565 30.131C58.6838 30.1307 58.9111 30.1305 59.1383 30.1303C59.1532 30.1303 59.1532 30.1303 59.1685 30.1302C59.4909 30.13 59.8134 30.1298 60.1358 30.1297C60.4675 30.1296 60.7993 30.1293 61.131 30.1288C61.1778 30.1288 61.2247 30.1287 61.2716 30.1286C61.2808 30.1286 61.29 30.1286 61.2995 30.1286C61.4478 30.1284 61.5961 30.1284 61.7444 30.1285C61.8934 30.1285 62.0425 30.1284 62.1915 30.1281C62.2722 30.1279 62.353 30.1278 62.4337 30.128C62.5076 30.1281 62.5815 30.128 62.6555 30.1277C62.6822 30.1276 62.7089 30.1276 62.7356 30.1278C62.8744 30.1283 62.9966 30.1266 63.1256 30.0684C63.1412 30.0615 63.1567 30.0545 63.1728 30.0474C63.3261 29.9639 63.4579 29.86 63.5847 29.7405C63.6019 29.7253 63.6019 29.7253 63.6194 29.7098C63.7234 29.6133 63.7922 29.5035 63.8648 29.3827C63.9032 29.3192 63.9428 29.2566 63.9823 29.1938C63.999 29.1669 64.0158 29.1401 64.0325 29.1133C64.0903 29.0207 64.1481 28.9282 64.2059 28.8357C64.2474 28.7693 64.2889 28.7029 64.3304 28.6365C64.3387 28.6231 64.3471 28.6098 64.3556 28.596C64.3721 28.5696 64.3886 28.5432 64.4051 28.5167C64.4443 28.4538 64.4839 28.3911 64.5244 28.3289C64.5318 28.3174 64.5392 28.3059 64.5469 28.2941C64.5609 28.2725 64.5749 28.251 64.5891 28.2296C64.5953 28.2201 64.6014 28.2106 64.6077 28.2008C64.6158 28.1885 64.6158 28.1885 64.6241 28.1759C64.638 28.151 64.638 28.151 64.6208 28.1142C61.4915 28.1142 58.3623 28.1142 55.1382 28.1142C55.1481 28.0646 55.1552 28.0358 55.1765 27.9928C55.1818 27.9822 55.187 27.9715 55.1924 27.9606C55.201 27.9434 55.201 27.9434 55.2097 27.926C55.2156 27.914 55.2215 27.9019 55.2276 27.8895C55.2469 27.8504 55.2663 27.8114 55.2857 27.7723C55.3122 27.7187 55.3387 27.665 55.3651 27.6114C55.3716 27.5981 55.3781 27.5849 55.3849 27.5713C55.4221 27.4954 55.4584 27.4193 55.4932 27.3423C55.497 27.3338 55.5009 27.3254 55.5048 27.3167C55.5219 27.279 55.5386 27.2412 55.5551 27.2033C55.6352 27.0245 55.7659 26.8769 55.9451 26.7936C55.9972 26.7739 56.0488 26.7588 56.103 26.746C56.1115 26.7439 56.1201 26.7418 56.1289 26.7397C56.3537 26.6921 56.5972 26.7092 56.8254 26.71C56.8603 26.7101 56.8953 26.7102 56.9302 26.7103C57.0058 26.7104 57.0814 26.7106 57.1569 26.7109C57.2799 26.7112 57.4029 26.7115 57.526 26.7118C57.5582 26.7118 57.5905 26.7119 57.6227 26.712C57.6445 26.712 57.6664 26.7121 57.6882 26.7121C57.7553 26.7123 57.8224 26.7124 57.8895 26.7126C58.2297 26.7134 58.5699 26.7139 58.91 26.7141C58.9341 26.7142 58.9582 26.7142 58.9822 26.7142C59.2034 26.7144 59.4245 26.7145 59.6456 26.7147C59.7971 26.7148 59.9485 26.7149 60.1 26.715C60.1126 26.715 60.1251 26.715 60.1381 26.715C60.5453 26.7153 60.9526 26.7163 61.3598 26.7175C61.7794 26.7188 62.1989 26.7194 62.6184 26.7192C62.6778 26.7192 62.7372 26.7191 62.7966 26.7191C62.8083 26.7191 62.8199 26.7191 62.832 26.7191C63.0191 26.7191 63.2062 26.7197 63.3933 26.7207C63.5818 26.7216 63.7703 26.7218 63.9588 26.7212C64.0607 26.721 64.1625 26.721 64.2644 26.722C64.6711 26.7256 65.0385 26.7259 65.4034 26.5243C65.4585 26.4949 65.5152 26.4719 65.5735 26.4495C65.6174 26.4295 65.6368 26.4047 65.6602 26.3631C65.6725 26.3423 65.6725 26.3423 65.6849 26.321C65.693 26.3063 65.7011 26.2915 65.7094 26.2763C65.7184 26.2608 65.7273 26.2454 65.7364 26.2299C65.7543 26.1991 65.7721 26.1682 65.7897 26.1372C65.8228 26.0797 65.858 26.0239 65.8939 25.9681C65.9065 25.9483 65.9191 25.9284 65.9316 25.9086C65.938 25.8985 65.9445 25.8883 65.9511 25.8779C65.991 25.8147 66.0305 25.7512 66.0701 25.6878C66.1351 25.5836 66.2004 25.4796 66.2661 25.3759C66.3275 25.2788 66.3884 25.1813 66.4492 25.0838C66.4893 25.0196 66.5295 24.9554 66.5701 24.8914C66.5775 24.8798 66.5848 24.8683 66.5924 24.8563C66.6062 24.8345 66.6201 24.8127 66.634 24.7909C66.6401 24.7814 66.6462 24.7718 66.6525 24.7619C66.6578 24.7536 66.6632 24.7452 66.6687 24.7366C66.6811 24.719 66.6811 24.719 66.68 24.7041C62.1051 24.7041 57.5302 24.7041 52.8167 24.7041Z" fill="#263995"/>
</g>
<defs>
<clipPath id="clip0_53672_555992">
<rect width="109.806" height="28.33" fill="white" transform="translate(27.002 14)"/>
</clipPath>
</defs>
</svg>
