<svg width="188" height="48" viewBox="0 0 188 48" fill="none" xmlns="http://www.w3.org/2000/svg">
<path d="M6.58789 0.5H180.611C183.974 0.5 186.7 3.22561 186.7 6.58789V41.4121C186.7 44.7744 183.974 47.5 180.611 47.5H6.58789C3.22572 47.4998 0.500186 44.7743 0.5 41.4121V6.58789C0.50018 3.33053 3.05845 0.670639 6.27539 0.507812L6.58789 0.5Z" fill="white"/>
<path d="M6.58789 0.5H180.611C183.974 0.5 186.7 3.22561 186.7 6.58789V41.4121C186.7 44.7744 183.974 47.5 180.611 47.5H6.58789C3.22572 47.4998 0.500186 44.7743 0.5 41.4121V6.58789C0.50018 3.33053 3.05845 0.670639 6.27539 0.507812L6.58789 0.5Z" stroke="#EAECF0"/>
<mask id="mask0_53672_556590" style="mask-type:luminance" maskUnits="userSpaceOnUse" x="12" y="8" width="164" height="32">
<path d="M175.2 8H12V40H175.2V8Z" fill="white"/>
</mask>
<g mask="url(#mask0_53672_556590)">
<path d="M26.6537 14.5572C26.8014 14.3661 26.8622 14.0273 26.8622 14.0273H17.7852C17.7852 14.0273 17.8981 14.4009 17.9936 14.5572H26.6537Z" fill="#A88337"/>
<path d="M26.1332 15.3306C26.2983 15.183 26.472 14.8789 26.472 14.8789H18.168C18.168 14.8789 18.2635 15.1048 18.472 15.3306H26.1419H26.1332Z" fill="#A88337"/>
<path d="M25.4722 16.0262C25.6806 15.9133 25.8457 15.6875 25.8457 15.6875H18.749C18.749 15.6875 18.914 15.8786 19.0878 16.0262H25.4808H25.4722Z" fill="#A88337"/>
<path d="M24.6476 16.6864C24.856 16.6082 25.0819 16.4258 25.0819 16.4258H19.54C19.54 16.4258 19.54 16.4692 19.9309 16.6864H24.6476Z" fill="#A88337"/>
<path d="M20.5645 17.0938C20.5645 17.0938 21.1464 17.4325 22.293 17.4325C23.4396 17.4325 24.1693 17.0938 24.1693 17.0938H20.5645Z" fill="#A88337"/>
<path d="M20.4778 17.8681C20.4778 17.8681 21.1726 17.9028 21.5809 18.2242C21.9718 18.5629 22.2758 19.1275 22.2758 19.1275C22.2758 19.1275 22.519 18.589 22.9099 18.3024C23.3094 17.9984 23.9435 17.8681 23.9435 17.8681H31.101L32.5082 19.9528H26.0803C26.0803 19.9528 25.6286 19.9701 24.9511 20.3697C24.595 20.5695 24.3257 20.9343 24.3257 20.9343C24.3257 20.9343 24.2736 21.0993 24.1954 21.1948C24.1173 21.2904 24.0651 21.3686 23.9696 21.4033C23.874 21.4381 23.8914 21.4207 23.8914 21.4207H20.5473C20.5473 21.4207 20.4083 21.3686 20.3388 21.247C20.2606 21.134 20.3214 21.1775 20.2432 21.0819C20.1824 20.9864 20.0521 20.7432 19.5483 20.4044C19.0185 20.057 18.5147 20.0222 18.5147 20.0222H12L13.4245 17.8594H20.4691L20.4778 17.8681Z" fill="#003974"/>
<path d="M15.4141 20.8094V31.4848C15.4141 31.4848 15.4488 32.4229 16.2479 33.6998C17.0384 34.9767 18.1849 35.5586 18.1849 35.5586L19.0883 34.1514C19.0883 34.1514 18.2979 33.6824 17.6985 32.779C17.1166 31.8757 17.1166 31.1026 17.1166 31.1026V20.8008H15.4228L15.4141 20.8094Z" fill="#003974"/>
<path d="M27.5223 20.7773V31.0705C27.5223 31.0705 27.392 32.1042 26.9056 32.8425C26.4191 33.5895 25.6113 34.1976 25.6113 34.1976L26.4799 35.5874C26.4799 35.5874 27.7915 34.6319 28.4343 33.6156C29.0771 32.5993 29.2248 31.0792 29.2248 31.0792V20.786H27.531L27.5223 20.7773Z" fill="#003974"/>
<path d="M12.7383 20.8094V31.5196C12.7383 31.5196 12.8512 33.1786 13.8849 34.8985C14.9185 36.627 16.7947 37.8344 16.7947 37.8344L17.6808 36.4272C17.6808 36.4272 16.482 35.7845 15.5179 34.3165C14.5363 32.8312 14.4842 31.4761 14.4842 31.4761V20.8008H12.7383V20.8094Z" fill="#003974"/>
<path d="M20.4775 21.9414V33.2508C20.4775 33.2508 20.4341 33.2856 20.4254 33.4593C20.408 33.6331 20.2951 33.746 20.2951 33.746L16.5166 40.0001H28.0953L24.3168 33.607L24.2039 33.3203L24.1605 33.025V21.9588H22.7533V33.4419C22.7533 33.4419 22.7533 33.607 22.8141 33.7373C22.8488 33.8676 22.927 34.0761 22.927 34.0761L25.2549 37.9067H19.357L21.6502 34.0934C21.6502 34.0934 21.7283 33.9631 21.7805 33.7807C21.8152 33.607 21.8326 33.4419 21.8326 33.4419V21.9414H20.4775Z" fill="#A88337"/>
<path d="M30.1364 20.7782V31.2972C30.1364 31.2972 30.119 32.6522 29.1201 34.2071C28.1212 35.7706 26.9746 36.4221 26.9746 36.4221L27.8259 37.8466C27.8259 37.8466 29.5544 36.7521 30.6402 35.0236C31.7086 33.295 31.8476 31.2885 31.8476 31.2885V20.7695H30.1364V20.7782Z" fill="#003974"/>
<path d="M17.7336 13.732C17.7336 13.732 17.1516 10.5616 19.4795 8.98067C19.4795 8.98067 20.5306 8.00781 22.2417 8.00781C24.0658 8.00781 25.1169 8.9633 25.1169 8.9633C27.6532 10.8221 26.9062 13.7407 26.9062 13.7407H17.7336V13.732Z" fill="#A88337"/>
<path d="M50.7586 23.7917V27.1533H55.2494C53.3993 26.4236 51.8966 25.3031 50.7586 23.7917ZM45.5383 33.1207H54.485V31.5225H45.5383V33.1207ZM54.485 28.682H45.5383V30.0632H54.485V28.682ZM44.9041 27.1533H49.0562V23.8091C48.0052 25.3118 46.6153 26.4323 44.9041 27.1533ZM56.1702 27.5702V35.466H54.4764V34.6321H45.5383V35.466H43.8445V27.6658C43.5404 27.7961 43.0279 27.9872 42.2983 28.2304L41.4297 26.6147C43.636 26.0849 45.5556 25.1294 47.1886 23.757H41.5687V22.2456H49.0388V20.7689C46.3113 20.8384 44.3569 20.8818 43.1669 20.8818L42.5676 19.2054C43.2538 19.2315 44.1137 19.2401 45.13 19.2401C49.9682 19.2401 53.6251 18.9622 56.1094 18.4062L56.8911 19.9003C55.2408 20.239 53.1908 20.5083 50.75 20.7168V22.2456H58.4199V23.757H52.5654C53.9465 25.0946 55.9444 26.0241 58.5676 26.5452L57.7685 28.2043C57.5252 28.0914 57.256 27.9958 56.9693 27.909C56.674 27.8221 56.4134 27.7179 56.1702 27.5789" fill="#003974"/>
<path d="M73.2977 23.6952H76.6071V21.9146H73.2977V23.6952ZM73.6972 25.224C73.4279 25.8407 73.0721 26.388 72.6204 26.857H77.2588C76.8593 26.414 76.4855 25.8668 76.1468 25.224H73.6887H73.6972ZM72.3164 30.0796H76.5031V28.299H72.3164V30.0796ZM69.1895 20.3858H71.6129V18.4922H73.2977V20.3858H76.6161V18.4922H78.2577V20.3858H81.2631V21.819H78.2577V23.6952H81.5324V25.224H78.0577C78.5441 26.2056 79.7692 27.1784 81.7324 28.1513L80.9505 29.7669C79.83 29.0981 78.9089 28.4379 78.1884 27.7864V31.5128H72.3164V32.6768C72.3164 33.1024 72.5249 33.3109 72.9505 33.3109H78.3617C78.8743 33.3109 79.1783 33.1198 79.2737 32.7463C79.3697 32.3554 79.4561 31.6865 79.5431 30.7224L81.2892 31.3565C81.0983 33.0416 80.8375 34.0579 80.5073 34.3967C80.1948 34.7267 79.5692 34.8918 78.6311 34.8918H72.7244C71.9425 34.8918 71.4044 34.7441 71.0828 34.4575C70.7788 34.1534 70.6311 33.5888 70.6311 32.7637V28.6898C70.3271 28.9417 69.7713 29.3239 68.9548 29.8364L67.9212 28.3076C69.9361 27.3955 71.2044 26.3706 71.7431 25.2327H68.8332V23.7039H71.6215V21.8798H69.198V20.8983L68.086 22.2794C67.0871 21.3673 66.1836 20.6638 65.3761 20.1513L66.5745 18.8049C67.6081 19.4563 68.4769 20.0557 69.1895 20.603V20.3684V20.3858ZM67.4433 26.8831C66.462 26.0492 65.6108 25.389 64.8983 24.92L65.9927 23.5562C66.8529 24.0166 67.7473 24.6073 68.6855 25.3195L67.4519 26.8831H67.4433ZM68.5724 29.8277C68.0775 31.7908 67.3041 33.5975 66.262 35.2479L64.8027 33.7539C65.8711 32.2425 66.6007 30.6182 66.9831 28.8983L68.5639 29.8277H68.5724Z" fill="#003974"/>
<path d="M99.9991 23.287C98.653 22.21 97.5581 21.4108 96.7245 20.907L97.8189 19.7083C98.6093 20.1427 99.7127 20.8896 101.146 21.9233L99.9991 23.287ZM99.669 27.7084C98.4183 26.666 97.3149 25.8582 96.3597 25.2849L97.4279 24.0688C98.3399 24.5466 99.4605 25.2849 100.798 26.3099L99.669 27.7084ZM95.717 31.4V29.7062L101.806 28.7941V18.3359H103.5V28.5943L105.142 28.3164V29.9668L103.5 30.2447V35.4651H101.806V30.4619L95.717 31.3913V31.4ZM91.4866 20.9765C90.8439 21.0981 89.9058 21.2024 88.6637 21.2892L88.2813 19.7605C91.0002 19.6302 93.3282 19.1872 95.2823 18.4488L95.8994 19.9429C95.0221 20.2469 94.1101 20.4901 93.1543 20.6899V23.2523H95.9255V24.8158H93.1543V24.9808C94.5095 26.2404 95.5431 27.248 96.2295 28.0037L95.213 29.5672C94.8482 29.0547 94.4834 28.5943 94.1186 28.1861C93.8061 27.8126 93.4845 27.4043 93.1543 26.97V35.413L91.4781 35.4825V28.0037C91.0178 29.1676 90.1922 30.5227 89.0023 32.0775L87.9863 30.4358C89.5149 28.6986 90.6615 26.831 91.4258 24.8158H88.0989V23.2523H91.4866V20.9765Z" fill="#003974"/>
<path d="M118.102 23.7292H115.957V26.9517C116.93 26.6391 117.633 26.3698 118.085 26.1527V27.9333C117.711 28.1418 116.999 28.4197 115.957 28.7672V33.2232C115.957 34.0832 115.835 34.6564 115.592 34.9344C115.34 35.221 114.758 35.3687 113.855 35.3687H112.422L112.005 33.5272L113.585 33.5794C113.985 33.5794 114.185 33.3796 114.185 32.98V29.271C113.151 29.5403 112.343 29.7487 111.744 29.8877L111.31 27.9247C112.369 27.7944 113.325 27.6119 114.185 27.3774V23.7205H111.492V22.0701H114.185V18.3438H115.974V22.0701H118.12V20.9062H122.028V18.3438H123.826V20.9062H128.118V22.5565H123.826V24.9974H127.501V26.5088C127.344 27.1602 126.945 28.0202 126.302 29.0712C125.668 30.1223 125.008 30.9561 124.321 31.5642C125.538 32.5631 126.902 33.2666 128.43 33.6923L127.501 35.4035C125.903 34.8823 124.4 33.9789 122.993 32.6933C121.073 34.1613 119.24 35.0734 117.503 35.4382L116.504 33.7878C118.25 33.3969 119.996 32.6152 121.742 31.4425C120.813 30.4957 119.891 29.2015 118.997 27.5685L120.509 26.9691C121.342 28.4545 122.176 29.6098 123.018 30.4436C124.261 29.4621 125.138 28.2113 125.659 26.6825H118.441V25.006H122.046V22.5652H118.137L118.12 23.7292H118.102Z" fill="#003974"/>
<path d="M145.473 24.8158C145.751 26.2925 146.403 27.8473 147.436 29.4716C148.461 31.0959 149.886 32.5031 151.693 33.6931L150.294 35.3696C147.019 33.2241 144.778 29.7062 143.562 24.8158H143.267C142.451 29.1937 140.01 32.7203 135.936 35.4043L134.555 33.6758C136.275 32.6942 137.751 31.4 138.994 29.8017C140.218 28.2035 140.974 26.5444 141.269 24.8332H134.998V22.9048H141.582C141.738 21.8017 141.817 20.2816 141.817 18.3359H143.727C143.727 20.4206 143.675 21.9407 143.58 22.9048H151.293V24.8332L145.473 24.8158Z" fill="#003974"/>
<path d="M166.84 24.6356C166.284 25.0265 165.572 25.3652 164.712 25.6518L163.93 24.4358C164.764 24.2534 165.398 24.0362 165.824 23.7756C165.581 23.5932 165.172 23.3066 164.608 22.907L165.554 22.1079C165.789 22.2643 165.998 22.4032 166.189 22.5075C166.423 22.6638 166.675 22.8549 166.953 23.0721C167.318 22.8375 167.735 22.464 168.212 21.9428L169.176 22.7594C168.725 23.211 168.317 23.5671 167.935 23.8538C168.282 24.1578 168.629 24.4792 168.977 24.818L167.813 25.7126C167.257 25.0004 166.936 24.6356 166.849 24.6356M166.736 20.9092C166.128 21.3001 165.424 21.6649 164.608 22.021L163.678 20.805C164.695 20.527 165.363 20.2751 165.676 20.0579C165.372 19.8147 164.963 19.5281 164.442 19.2067L165.424 18.3555C165.893 18.6595 166.379 18.9895 166.857 19.3543C167.378 19.0069 167.752 18.6769 167.969 18.3728L168.881 19.1893C168.612 19.5541 168.256 19.8842 167.804 20.1709C168.047 20.388 168.369 20.7094 168.768 21.135L167.656 21.9515C167.17 21.2566 166.857 20.9092 166.727 20.9092M173.059 27.4586H159.926V30.134H158.31V26.0254H159.222L159.022 19.0417C160.603 18.9895 161.932 18.8158 163.027 18.5118L163.826 19.8582C163.149 20.0927 162.071 20.2491 160.586 20.3533L160.638 21.2827H163.478V22.5249H160.699L160.716 23.5585H163.478V24.818H160.751L160.786 26.0341H172.173L172.191 24.818H169.646V23.5585H172.243L172.278 22.5249H169.637V21.2827H172.312L172.33 20.2838H169.437V18.8506H173.928L173.728 26.0341H174.693V30.1426H173.059V27.4673V27.4586ZM171.426 28.2404V29.5693C170.358 30.1426 169.046 30.6638 167.474 31.1502H175.022V32.6182H167.474V33.3652C167.474 34.6595 166.927 35.3109 165.824 35.3109H163.149L162.731 33.8343L165.224 33.9038C165.589 33.9038 165.771 33.7213 165.771 33.3565V32.6095H157.876V31.1415H165.771V30.3598C166.606 30.2121 167.665 29.9515 168.959 29.578H161.298V28.2317H171.435L171.426 28.2404Z" fill="#003974"/>
</g>
</svg>
