<svg width="164" height="56" viewBox="0 0 164 56" fill="none" xmlns="http://www.w3.org/2000/svg">
<rect width="164" height="56" rx="6.58824" stroke="#EAECF0"/>
<rect x="0.5" y="0.5" width="163" height="55" rx="6.08824" fill="white" stroke="#EAECF0"/>
<path fill-rule="evenodd" clip-rule="evenodd" d="M93.5091 33.047L98.6122 33.0481C99.1832 29.4576 99.7542 25.8129 100.325 22.2223C100.45 21.4919 100.766 21.1812 101.078 20.9416C101.385 20.7056 101.715 20.5859 102.173 20.5762L105.831 20.5786L107.653 17.4835C105.365 17.4835 103.073 17.4851 100.785 17.4851C99.7652 17.4999 98.2858 17.9057 97.1255 18.8704C96.1014 19.7216 95.4228 20.9842 95.244 22.1501L93.5091 33.047ZM17.3001 17.4824L16.8073 20.5771L19.6109 22.4864L16.2164 24.2875L14.8242 33.0486L19.9171 33.0468L22.3985 17.4822L17.3001 17.4824ZM24.4704 17.4851L35.646 17.4813C37.5098 17.4946 39.6022 19.1946 39.3472 21.7575C38.7618 25.5148 38.1676 29.2913 37.5657 33.0486L32.473 33.0488L34.198 22.2004C34.2918 21.6634 34.1483 21.2761 33.9189 21.0092C33.6747 20.7248 33.3282 20.5784 32.9069 20.5786C31.5825 20.5788 30.3944 20.5748 29.0697 20.5753L27.0918 33.0495L21.9967 33.0497L24.4704 17.4851ZM40.1381 29.9517L39.6492 33.0431C43.5118 33.0453 47.1741 33.0417 51.0364 33.0442C52.1526 33.0486 53.4105 32.588 54.3304 31.8536C54.9895 31.3274 55.4936 30.7138 55.8681 29.9754C56.1308 29.4571 56.3331 28.8201 56.4049 28.2584C56.4771 27.6918 56.4585 27.2091 56.3605 26.7299C56.1878 25.8864 55.7769 25.2271 55.2335 24.7174C54.5658 24.091 53.6636 23.7121 52.7578 23.7079C50.9858 23.7125 49.0891 23.7061 47.3172 23.7106C46.443 23.7057 45.9925 22.9156 46.0201 22.4049C46.0374 22.0858 46.1268 21.7763 46.2842 21.5053C46.598 20.9655 47.1597 20.5795 47.8031 20.5771L57.2013 20.579L57.6999 17.4789C53.8013 17.4822 50.2671 17.4806 46.3684 17.484C44.5608 17.4893 42.6657 18.5014 41.6762 20.1997C41.2847 20.8716 40.9679 21.6849 40.9264 22.495C40.8899 23.204 40.9551 23.8534 41.1856 24.4202C41.7745 25.8688 43.1276 26.8032 44.709 26.8059C46.537 26.8067 48.1915 26.8034 50.0196 26.8043C50.3685 26.8037 50.6716 26.9165 50.8867 27.1106C51.2219 27.4133 51.3654 27.9148 51.3122 28.2924C51.2524 28.7165 51.0333 29.1387 50.709 29.4534C50.4137 29.7398 50.0346 29.938 49.5433 29.9407L40.1381 29.9517ZM59.7821 17.4795L71.4208 17.4707C73.0435 17.4681 73.887 18.0523 74.5523 18.7688C74.8731 19.1144 75.1405 19.5437 75.3165 20.0515C75.5099 20.6093 75.5914 21.2618 75.4695 22.0019C75.1288 24.2319 74.7746 26.3342 74.4198 28.5642C74.1731 29.8643 73.5078 30.8456 72.6831 31.6105C72.3038 31.9624 71.8631 32.253 71.3753 32.4935C70.6486 32.8516 69.7455 33.0453 68.9811 33.0492C67.4626 33.0488 66.1543 33.0488 64.6359 33.0486C63.7537 33.0501 63.0518 32.9417 62.4499 32.6851C62.1655 34.6185 61.8828 36.5526 61.5984 38.4858L56.1794 40.2035L58.7165 24.2754L62.0988 22.4853L59.2756 20.5722L59.7821 17.4795ZM64.3804 20.5757L62.8917 29.9411C64.4749 29.9535 65.9784 29.9438 67.5322 29.9407C67.7128 29.9407 67.893 29.9237 68.0537 29.8773C68.2887 29.8095 68.4918 29.6881 68.6744 29.5455C69.0453 29.2553 69.2955 28.8406 69.3746 28.4235C69.697 26.404 70.0169 24.3847 70.3393 22.3654C70.3967 22.0364 70.4157 21.7173 70.3285 21.442C70.2761 21.2768 70.181 21.1273 70.0772 21.0008C69.8621 20.7382 69.5377 20.574 69.1059 20.5722L64.3804 20.5757ZM78.2828 17.4806L83.3858 17.4813L81.7145 27.9176C81.5609 28.7923 81.6231 29.0983 81.8804 29.4465C82.0959 29.7387 82.4825 29.935 82.9173 29.9385C84.201 29.938 85.4998 29.9449 86.7834 29.9442L88.7631 17.4873L93.8602 17.4826L91.383 33.0512L80.3489 33.0497C79.0699 33.0462 77.9798 32.4396 77.3145 31.5904C76.725 30.8378 76.3004 29.8144 76.5782 28.219C77.1613 24.615 77.7001 21.0854 78.2828 17.4806Z" fill="#0068B7"/>
<path fill-rule="evenodd" clip-rule="evenodd" d="M111.959 16.4707C113.249 17.034 114.876 17.9199 116.297 18.8842C116.289 19.8283 116.3 20.555 116.295 21.5208C114.771 20.4958 113.334 19.7332 111.958 19.1213C111.952 18.2522 111.965 17.3396 111.959 16.4707ZM136.87 17.4741L138.972 17.4714L138.975 16.4842L141.037 16.4886L141.034 17.4714L143.132 17.4701L143.124 18.9674L141.039 18.9745L141.034 20.1478C141.344 20.1478 141.522 20.147 141.832 20.147C142.099 20.1503 142.48 20.2794 142.705 20.4883C142.944 20.7109 143.143 21.0909 143.137 21.4884L143.133 27.4434L141.028 27.4361L141.034 28.921L143.131 28.9202L143.131 30.3817L141.042 30.3819L141.041 32.2829L138.97 33.0393L138.973 30.3737L136.875 30.3713L136.879 28.9195L138.979 28.9219L138.973 27.4403L136.878 27.4463L136.865 20.1295L138.97 20.1322L138.971 18.97L136.87 18.9718L136.87 17.4741ZM138.931 21.5988L138.928 23.072L141.056 23.0683L141.056 21.5968L138.931 21.5988ZM138.93 24.5296L138.934 25.9907H141.061L141.062 24.5283L138.93 24.5296ZM144.173 18.9612L144.175 17.4767C145.712 17.4705 147.139 17.486 148.677 17.48C148.97 17.4847 149.278 17.6136 149.507 17.819C149.783 18.0669 149.955 18.4319 149.954 18.8954C149.953 20.9324 149.946 22.934 149.95 24.9339C149.953 27.1307 149.965 29.3256 149.952 31.5628C149.948 31.941 149.751 32.3632 149.491 32.6083C149.214 32.8693 148.835 33.0491 148.491 33.0477L146.82 33.0464L146.825 31.5851C147.088 31.5838 147.133 31.5908 147.396 31.5895C147.696 31.5906 147.884 31.3599 147.887 31.1194L147.889 27.1199C147.379 27.1201 146.732 27.1208 146.222 27.1212C146.203 28.2496 146.163 29.2728 146.121 30.3223C146.095 30.952 146.076 31.5913 146.041 32.2683C145.324 32.52 144.653 32.7806 143.937 33.0325C144.086 30.4144 144.126 27.8649 144.152 25.3057C144.171 23.3933 144.194 21.4753 144.177 19.5188L146.239 19.5243L146.241 21.5911L147.884 21.5964L147.883 18.9592L144.173 18.9612ZM146.235 23.0415L146.229 25.6683L147.881 25.6643L147.885 23.0413H146.235V23.0415ZM131.5 20.1675C132.636 20.6471 134.553 21.6862 135.832 22.5507C135.84 23.4951 135.822 24.2518 135.83 25.1958C134.494 24.2821 132.742 23.3604 131.496 22.8011C131.499 21.9324 131.497 21.0364 131.5 20.1675ZM131.508 16.476C131.501 17.3447 131.511 18.2608 131.506 19.1301C132.641 19.621 134.425 20.5307 135.837 21.5328C135.831 20.5881 135.841 19.8255 135.835 18.8811C134.53 17.947 132.638 16.9876 131.508 16.476ZM121.688 17.476L121.69 16.4893L124.76 16.4868L124.762 17.4749C125.776 17.4749 126.607 17.4831 127.621 17.4831C128.331 17.495 129.09 18.1237 129.091 18.9943C129.076 20.4877 129.116 21.9675 129.107 23.4611C129.104 24.4216 128.287 24.9909 127.613 24.9915L120.411 24.9975L120.408 25.6749C121.16 25.6749 121.725 25.676 122.477 25.676C123.046 26.3548 123.681 27.0049 124.241 27.5609C124.955 26.8801 125.416 26.4279 126.065 25.6723L129.197 25.6725C128.285 26.962 127.102 28.1696 126.007 29.222C127.395 30.4634 128.935 31.7392 130.416 33.0429C129.053 33.0429 127.727 33.0287 126.364 33.0287C124.4 31.1534 122.354 29.0584 120.403 26.7834C120.399 28.3083 120.385 29.6192 120.403 31.1227C120.395 31.404 120.643 31.5908 120.978 31.5838L122.802 31.582L122.257 33.0522C121.086 33.0522 120.043 33.0541 118.872 33.0541C118.234 33.0477 117.346 32.5244 117.349 31.512L117.34 17.4776L121.688 17.476ZM120.416 18.974L120.414 20.5159L125.2 20.5175L124.666 21.9772L120.409 21.9775L120.411 23.4986C122.162 23.4986 123.84 23.5079 125.591 23.5079C125.795 23.5039 126.046 23.3628 126.047 23.0239C126.042 21.7335 126.034 20.6935 126.038 19.4031C126.037 19.169 125.814 18.9747 125.564 18.9762L120.416 18.974ZM135.824 25.7555C135.829 27.0154 135.828 28.3032 135.827 29.4788C135.327 29.9849 134.829 30.4519 134.333 30.8862C133.395 31.7057 132.464 32.4105 131.531 33.0367C131.529 31.8759 131.525 30.892 131.525 29.8361C131.837 29.6126 132.163 29.3867 132.471 29.1421C133.65 28.2023 134.776 27.0731 135.824 25.7555ZM116.294 25.7557C116.29 27.1817 116.304 28.2626 116.301 29.4748C114.709 31.0194 113.78 31.8739 111.961 33.0561C111.961 31.8719 111.948 30.9419 111.952 29.8462C113.61 28.691 114.675 27.6953 116.294 25.7557ZM111.957 20.1675C111.941 21.0364 111.955 21.9333 111.954 22.8026C113.311 23.4282 114.774 24.1783 116.292 25.2141C116.29 24.2697 116.291 23.5066 116.296 22.5624C114.784 21.5663 113.331 20.7608 111.957 20.1675Z" fill="#0068B7"/>
</svg>
