<svg width="164" height="56" viewBox="0 0 164 56" fill="none" xmlns="http://www.w3.org/2000/svg">
<rect width="164" height="56" rx="6.58824" stroke="#EAECF0"/>
<rect x="0.5" y="0.5" width="163" height="55" rx="6.08824" fill="white" stroke="#EAECF0"/>
<path d="M68.9839 28.4919C68.9839 36.4956 62.4956 42.9839 54.4919 42.9839C46.4883 42.9839 40 36.4956 40 28.4919C40 20.4883 46.4883 14 54.4919 14C62.4956 14 68.9839 20.4883 68.9839 28.4919Z" fill="#326F9E"/>
<path fill-rule="evenodd" clip-rule="evenodd" d="M57.2978 16.1985C56.5101 16.0286 55.7545 15.9798 54.952 15.9766C54.6277 16.0048 54.4781 16.0392 54.4323 16.3828L54.4322 16.6122L54.4306 16.8767L54.432 17.1692C54.431 17.4969 54.4303 17.8245 54.4309 18.1522C54.4313 18.3932 54.4313 18.6342 54.4311 18.8752C54.4307 19.1268 54.4303 19.3784 54.4301 19.63L54.4299 20.2039C54.4299 20.4158 54.4299 20.6277 54.4301 20.8397C54.4306 21.3265 54.4309 21.8135 54.4307 22.3003L54.4304 22.9297C54.4298 24.2451 54.4302 25.5604 54.4313 26.8757C54.4322 28.0093 54.4323 29.143 54.4315 30.2767C54.4304 31.5969 54.4298 32.917 54.4303 34.2372L54.4315 38.8675C54.4309 39.2116 54.4302 39.5558 54.431 39.9L54.432 40.2092L54.4306 40.5016L54.4322 40.7661L54.4321 40.8219C54.4313 41.095 54.4312 41.1542 54.6528 41.3758C54.7752 41.3911 54.8364 41.3987 54.8977 41.3987C54.9589 41.3987 55.0201 41.3911 55.1426 41.3758C55.2679 41.1878 55.3131 41.12 55.3359 41.0455C55.3488 41.0035 55.3545 40.9593 55.3635 40.8902L55.3642 40.6678L55.3664 40.4106L55.3658 40.1278C55.3676 39.8101 55.3691 39.4923 55.3695 39.1745L55.37 38.8616L55.3711 38.474C55.3737 37.9058 55.3758 37.3376 55.377 36.7694C55.3779 36.2854 55.3791 35.8015 55.3807 35.3175L55.3833 34.5443C55.3878 33.3428 55.3916 32.1413 55.3946 30.9399C55.3976 29.7684 55.4008 28.5969 55.4047 27.4255L55.409 26.1172C55.419 23.1652 55.4278 20.2133 55.4355 17.2613L55.4365 16.8843L55.6773 16.9023L55.9952 16.9271C56.3644 16.9555 56.7168 16.9954 57.0774 17.0802C57.365 17.1506 57.6467 17.2033 57.9407 17.2394L58.2775 17.2761C58.2659 17.3161 58.2558 17.3506 58.2468 17.3809C58.2415 17.3987 58.2366 17.4151 58.2318 17.4303L58.2223 17.4602C58.208 17.5035 58.1951 17.5373 58.1797 17.5698C58.1508 17.6306 58.113 17.6871 58.0413 17.7947L57.8657 18.0572C57.7339 18.2563 57.6017 18.4551 57.4693 18.6538L57.2707 18.9506L57.0759 19.245L56.899 19.5098L56.71 19.8233C56.2266 20.5703 56.1508 21.2396 56.1624 22.1131C56.1645 22.2553 56.1657 22.3974 56.1661 22.5397C56.1662 22.8383 56.1669 23.1369 56.1698 23.4356C56.1743 23.8217 56.178 24.2078 56.1786 24.5939C56.1788 24.8971 56.1796 25.2002 56.1812 25.5034L56.1839 25.9366L56.1854 26.3577L56.1902 26.7463L56.1907 26.8019C56.1936 27.1739 56.1948 27.3286 56.4161 27.6605L56.421 27.6611C56.6413 27.6832 56.727 27.6917 56.8129 27.6956C56.8672 27.698 56.9217 27.6985 57.0103 27.6993L57.2626 27.697C57.5418 27.6981 57.8209 27.6988 58.1 27.6976C58.3 27.6966 58.5 27.6961 58.7 27.696L59.1377 27.6962C59.4076 27.6961 59.6775 27.6957 59.9475 27.6948C60.4898 27.6926 61.032 27.6909 61.5743 27.6914C61.8828 27.6918 62.1913 27.6919 62.4998 27.6917L63.4452 27.69C63.7358 27.6902 64.0264 27.6903 64.317 27.6889L64.5825 27.6874L64.8349 27.6882C64.8532 27.688 64.8712 27.688 64.8886 27.688L64.9554 27.6882C65.2303 27.6894 65.3993 27.6903 65.6249 27.4646C65.7677 25.5621 64.63 23.4961 63.5224 22.0128C63.439 21.9037 63.3561 21.7943 63.2738 21.6846C63.0814 21.4059 62.8914 21.152 62.6614 20.9046L62.6528 20.8969C62.6192 20.8663 62.5874 20.8375 62.5569 20.8102C62.5378 20.7931 62.5192 20.7765 62.5011 20.7606C62.4861 20.7474 62.4713 20.7346 62.4568 20.7222C62.3523 20.6328 62.2606 20.5643 62.1601 20.5127C61.8194 20.3379 61.3786 20.3579 60.0004 20.4203C59.7805 20.4306 59.5604 20.4386 59.3403 20.4444C58.7487 20.4573 58.1576 20.4749 57.5664 20.5011L57.3958 20.509C57.5523 20.2608 57.7085 20.0128 57.8607 19.7621C57.8884 19.7164 57.916 19.6706 57.9435 19.6246C57.9769 19.5688 58.0101 19.5127 58.043 19.4565L58.1769 19.2202L58.4796 18.6966L58.6328 18.4242L58.783 18.167C58.8482 18.0437 58.8787 17.986 58.9165 17.9335C58.9496 17.8874 58.9884 17.8452 59.0612 17.766C59.7657 17.9582 60.1251 18.0562 60.4555 18.2148C60.7994 18.3797 61.1118 18.6101 61.7494 19.0804L61.7507 19.0812C64.0754 20.7381 65.8942 23.4114 66.3781 26.2461C66.4569 26.7699 66.5782 27.1846 66.8005 27.6605L67.3883 27.5626C67.5043 25.4195 66.5123 23.3359 65.3923 21.556C63.6313 18.85 60.6993 16.9666 57.5768 16.2563L57.2978 16.1985ZM57.1019 24.4277H63.9595C64.3593 25.2273 64.4702 25.4489 64.544 25.6823C64.5588 25.7291 64.5722 25.7765 64.5861 25.8291C64.5987 25.877 64.6118 25.929 64.6269 25.989L64.6962 26.2549C64.7171 26.3572 64.7288 26.414 64.7352 26.4714C64.7411 26.5241 64.7427 26.5773 64.7431 26.6667L64.7432 26.7122L64.7433 26.7788H57.1019V24.4277ZM59.0153 21.239C58.377 21.2507 57.7402 21.2702 57.1019 21.2927V23.546H63.4697C63.3718 23.2524 63.2575 23.0597 63.084 22.8051C62.9511 22.6277 62.8185 22.4501 62.686 22.2724C62.4964 21.978 62.3086 21.7429 62.0587 21.4965L62.0574 21.4957C61.9278 21.4045 61.8319 21.3369 61.7273 21.2884C61.4311 21.1512 61.0648 21.1652 59.6652 21.2189C59.4486 21.2274 59.232 21.2341 59.0153 21.239Z" fill="white"/>
<path fill-rule="evenodd" clip-rule="evenodd" d="M51.5391 17.1487C51.553 16.9448 51.5672 16.7377 51.4199 16.5904H51.419C51.0257 16.5639 50.7577 16.5458 50.4976 16.5829C49.9424 16.6622 49.423 16.9928 47.7954 18.0286C45.0109 19.8621 43.0038 22.7906 42.3056 26.0529C41.9954 27.6777 41.6399 30.6244 42.603 32.069C42.7283 32.1097 42.7895 32.1296 42.8522 32.1418C42.8673 32.1448 42.8826 32.1473 42.8989 32.1495C42.9166 32.1518 42.9355 32.1539 42.9568 32.156C42.9931 32.1595 43.0365 32.1627 43.0928 32.167L43.2887 31.971C43.3204 31.6685 43.2765 31.3889 43.2244 31.0916C43.0474 30.1222 42.9475 29.1867 42.9726 28.2005C43.0873 25.4784 44.1082 22.6039 46.1297 20.7049C46.1252 21.0051 46.1302 21.2986 46.1551 21.5978L46.1906 21.9249L46.2293 22.2954C46.39 23.8223 46.4858 25.341 46.5216 26.8768C46.2446 26.8748 45.9676 26.8732 45.6906 26.872L45.3521 26.8707L45.0148 26.8682L44.6943 26.8672L44.3973 26.8657C44.1704 26.8768 44.1704 26.8768 44.0724 26.9748C44.0684 27.1706 44.0683 27.3666 44.0724 27.5626C44.1264 27.5895 44.1655 27.6091 44.1984 27.6235C44.2251 27.6352 44.2478 27.6435 44.271 27.6496C44.2792 27.6518 44.2876 27.6537 44.2962 27.6554L44.3095 27.6578L44.3185 27.6592C44.3597 27.6651 44.4102 27.6677 44.4885 27.6716L44.759 27.6701L45.0517 27.6691L45.3582 27.6666C45.6485 27.6654 45.9387 27.6641 46.2289 27.6621L46.4236 27.6605C46.2815 30.0925 45.8841 32.4352 44.6357 34.561L44.6019 34.6164C44.3917 34.9598 44.1968 35.2784 44.1704 35.6937L44.3663 35.8897L44.3675 35.8899L44.3717 35.8908C44.4771 35.9132 44.5336 35.9251 44.5903 35.9263C44.5939 35.9264 44.5976 35.9265 44.6013 35.9264L44.6108 35.9263C44.6242 35.926 44.6379 35.9252 44.6525 35.9237C44.6994 35.919 44.756 35.9085 44.8425 35.8925L44.8508 35.8908L44.855 35.8899L44.8562 35.8897L44.8592 35.8862C44.9252 35.8117 44.9708 35.76 45.0055 35.7196C45.041 35.678 45.065 35.6482 45.0875 35.6173C45.1141 35.5807 45.1387 35.5427 45.1779 35.4819L45.2848 35.3019C46.5193 33.2798 47.0859 30.9867 47.3053 28.6402V27.6605H50.7341C50.733 28.5486 50.7319 29.4368 50.731 30.3249L50.7292 32.4772C50.7287 33.2576 50.7281 34.0381 50.727 34.8184C50.7261 35.504 50.7253 36.1896 50.725 36.8752V37.0301C50.7248 37.3404 50.7247 37.6507 50.7242 37.9609L50.723 39.3827L50.7219 39.747L50.7224 40.0775C50.7223 40.1062 50.7221 40.1339 50.7219 40.1606C50.7203 40.396 50.7192 40.5622 50.8321 40.788C50.9341 40.7901 51.0362 40.791 51.1383 40.7909C51.2322 40.7909 51.326 40.7899 51.4199 40.788C51.4444 40.7635 51.4635 40.7444 51.4782 40.7225C51.5291 40.647 51.5295 40.5374 51.531 40.0496L51.5303 39.7676C51.5308 39.4526 51.5311 39.1376 51.5308 38.8225C51.5306 38.5906 51.5306 38.3587 51.5307 38.1269L51.5313 37.2504C51.5314 36.9128 51.5313 36.5752 51.5312 36.2376L51.5305 27.1622C51.5311 25.8928 51.5314 24.6234 51.5311 23.3539L51.5305 18.9012L51.5309 18.4084C51.531 18.2414 51.531 18.0746 51.5308 17.9077L51.5303 17.6106L51.531 17.3288C51.5308 17.2702 51.5349 17.2097 51.5391 17.1487ZM50.7341 17.57V26.8768H47.3053L47.2686 25.5849C47.217 23.9865 47.0878 22.4069 46.8515 20.8251C46.812 20.4786 46.7795 20.1711 46.8155 19.8233C47.5437 18.9374 49.5317 17.57 50.7341 17.57Z" fill="white"/>
<path d="M53.3792 16.1985C53.0976 16.1373 53.0976 16.1373 52.7914 16.1006C52.6755 16.2165 52.6281 16.2639 52.6038 16.3209C52.5869 16.3603 52.581 16.4044 52.571 16.4789L52.5711 16.7056L52.5697 16.967L52.5713 17.256L52.5707 17.4982L52.5704 17.8063L52.5706 18.0951L52.5708 18.2274C52.5714 18.4655 52.5717 18.7037 52.5716 18.9418C52.5708 19.589 52.5708 20.2361 52.5718 20.8832C52.5729 21.5717 52.5731 22.2602 52.5731 22.9487C52.573 24.1741 52.5737 25.3997 52.5751 26.6251C52.5764 27.8197 52.5774 29.0144 52.5773 30.2091V30.6553C52.5773 32.0192 52.5777 33.3832 52.5785 34.7472C52.5789 35.2287 52.5791 35.7102 52.5791 36.1917C52.5792 36.7844 52.5795 37.377 52.5803 37.9697L52.5813 38.6985C52.5812 39.0386 52.5811 39.3787 52.5817 39.7189L52.5824 40.0244L52.5819 40.3133L52.5829 40.5748V40.5929C52.5831 40.8324 52.5831 40.9592 52.6934 41.1798C52.9322 41.2533 52.9322 41.2533 53.1833 41.2778C53.2989 41.1622 53.3463 41.1148 53.3707 41.0576C53.3877 41.0179 53.3936 40.9734 53.4036 40.898L53.4033 40.6691L53.4045 40.4053L53.4028 40.1136C53.4033 39.7868 53.4036 39.46 53.4026 39.1332C53.4018 38.8927 53.4014 38.6524 53.4014 38.4121C53.4016 37.8276 53.4015 37.2432 53.4003 36.6588C53.3988 35.8955 53.3979 35.1322 53.3977 34.369C53.3972 33.1328 53.3962 31.8968 53.3943 30.6606C53.3926 29.4552 53.391 28.2499 53.3902 27.0444L53.3892 25.6985C53.3871 22.5319 53.3837 19.3652 53.3792 16.1985Z" fill="white"/>
<path d="M58.1645 28.8344C58.0891 28.7868 57.9913 28.7749 57.6897 28.7382C57.5799 28.8479 57.5317 28.8962 57.5062 28.9545C57.4861 29.0002 57.4801 29.052 57.4694 29.1446L57.4696 29.4107L57.4683 29.7159L57.47 30.0519L57.4695 30.479C57.4694 30.7077 57.4695 30.9365 57.4701 31.1652C57.4711 31.4981 57.4714 31.8311 57.4714 32.164L57.4721 33.253C57.4723 33.4468 57.4726 33.6407 57.4731 33.8345C57.474 34.2297 57.4748 34.6249 57.4752 35.0201L57.4756 35.7829C57.4755 36.4117 57.4758 37.0405 57.4766 37.6692L57.4767 37.7837C57.477 38.0122 57.4773 38.2406 57.4774 38.469L57.4777 38.9827L57.4786 39.4284L57.4796 39.7807L57.4794 40.1174L57.4807 40.4217L57.4807 40.4409L57.48 40.4743C57.4793 40.4996 57.4782 40.5244 57.4771 40.5487C57.4697 40.7137 57.4634 40.8555 57.5917 40.9839L57.5956 40.9842L57.6512 40.9885C57.6765 40.9904 57.6987 40.992 57.7187 40.9933L57.7486 40.9951C57.7777 40.9967 57.8026 40.9976 57.8275 40.9977C57.8445 40.9977 57.8615 40.9974 57.8798 40.9967C57.8912 40.9963 57.9031 40.9959 57.9159 40.9952L57.9583 40.9926C57.9917 40.9904 58.031 40.9875 58.0798 40.9839H58.0816L58.0823 40.9833C58.1918 40.8736 58.2399 40.8255 58.2653 40.7674C58.2852 40.722 58.2912 40.6706 58.3019 40.579L58.3018 40.3151L58.303 40.0124L58.3013 39.6791C58.3019 39.3111 58.3022 38.943 58.3012 38.5749C58.3002 38.2448 58.2999 37.9146 58.2999 37.5845C58.3 37.0322 58.2995 36.4798 58.2982 35.9276C58.2972 35.5009 58.2963 35.0741 58.296 34.6473L58.2947 32.1244C58.2943 31.86 58.294 31.5956 58.2939 31.3312C58.2939 31.014 58.2935 30.6969 58.2928 30.3797L58.2918 30.0303L58.2919 29.6964L58.2906 29.3945C58.2905 29.3143 58.2896 29.234 58.2874 29.1538C58.2853 29.0806 58.2822 29.0073 58.2775 28.9341C58.2316 28.8882 58.2006 28.8572 58.1645 28.8344Z" fill="white"/>
<path d="M61.4953 28.8344C61.5143 28.8464 61.5319 28.8606 61.551 28.8781C61.5682 28.8939 61.5866 28.9124 61.6083 28.9341C61.6181 29.0699 61.6212 29.2063 61.6214 29.3425L61.6227 29.6093L61.6226 29.9044L61.6236 30.2133C61.6245 30.5521 61.6247 30.8909 61.6248 31.2298L61.6262 32.4417C61.6265 32.7642 61.6266 33.0867 61.6265 33.4092L61.627 34.0909C61.6275 34.4957 61.6285 34.9004 61.6295 35.3052C61.6306 35.7896 61.6308 36.2739 61.6308 36.7582C61.6309 36.9913 61.6313 37.2244 61.6321 37.4574C61.633 37.7828 61.6327 38.1082 61.6322 38.4335L61.6338 38.7279L61.6326 38.9956L61.6327 39.2289C61.6226 39.3066 61.6167 39.3521 61.5993 39.3927C61.5747 39.45 61.5272 39.4976 61.4124 39.6124C61.1109 39.5756 61.0131 39.5637 60.9377 39.5161C60.9015 39.4934 60.8705 39.4624 60.8246 39.4164C60.8149 39.2806 60.8118 39.1443 60.8116 39.008L60.8103 38.7412L60.8104 38.4462L60.8094 38.1372C60.8084 37.7985 60.8083 37.4596 60.8082 37.1207L60.8072 36.4175C60.8066 35.9254 60.8064 35.4333 60.8065 34.9413C60.8065 34.3093 60.8051 33.6773 60.8035 33.0453C60.8024 32.5609 60.8022 32.0766 60.8022 31.5924C60.8021 31.3592 60.8017 31.1262 60.8009 30.8931C60.8 30.5677 60.8002 30.2424 60.8008 29.917L60.7992 29.6226L60.8004 29.3549L60.8003 29.1216C60.8062 29.0754 60.8108 29.0406 60.8171 29.0114L60.8192 29.0023C60.8205 28.9968 60.8218 28.9917 60.8233 28.9866C60.8263 28.9766 60.8297 28.9671 60.8337 28.9578C60.8582 28.9005 60.9058 28.853 61.0205 28.7382C61.3221 28.7749 61.4199 28.7868 61.4953 28.8344Z" fill="white"/>
<path d="M67.3733 28.8344C67.2979 28.7868 67.2001 28.7749 66.8985 28.7382C66.7865 28.8501 66.7385 28.8981 66.7124 28.956C66.7009 28.9812 66.6937 29.0082 66.687 29.0433C66.6841 29.0588 66.6813 29.0759 66.6783 29.095L66.6723 29.1338C66.5379 31.8309 65.5181 34.5597 63.6534 36.5387L63.4322 36.7568C63.2404 37.0116 63.2322 37.1452 63.2738 37.4571C63.2923 37.4757 63.3073 37.4907 63.3211 37.5034C63.3343 37.5157 63.3463 37.5257 63.3591 37.5347C63.4032 37.5658 63.4564 37.5839 63.5998 37.6328C63.7369 37.6434 63.8022 37.6485 63.8604 37.6305C63.9132 37.6141 63.9602 37.5787 64.0498 37.5111L64.2289 37.2918L64.4325 37.0438L64.6453 36.7714C64.7936 36.5867 64.9405 36.4009 65.0861 36.2142C66.5117 34.2693 67.798 31.4057 67.4863 28.9341C67.4404 28.8882 67.4094 28.8572 67.3733 28.8344Z" fill="white"/>
<path d="M109.228 16.1484H115.106V17.8139H109.228V16.1484Z" fill="#3976A3"/>
<path d="M98.8806 16.2352H99.1588C99.4614 16.2353 99.7641 16.2361 100.067 16.2368L100.697 16.2372C101.25 16.2376 101.802 16.2386 102.355 16.2396C102.597 16.2401 102.838 16.2404 103.08 16.2407L104.047 16.2416C105.154 16.2427 106.26 16.2443 107.366 16.2464V17.8139L107.031 17.8142C105.989 17.8159 104.947 17.8201 103.905 17.8268L103.249 17.8304L102.941 17.8317C102.727 17.8323 102.512 17.8328 102.297 17.833C101.78 17.8334 101.263 17.8361 100.746 17.8406C100.656 17.8412 100.567 17.8416 100.477 17.8418C100.369 17.8421 100.262 17.8421 100.154 17.8419C100.051 17.8417 99.9479 17.842 99.8447 17.8426L99.6315 17.844C99.5306 17.8449 99.4298 17.846 99.3289 17.8472H99.3254L99.0782 17.8447C98.6872 17.8524 98.4919 17.8859 98.1558 18.1013C97.8831 18.5231 97.8938 18.8589 97.9001 19.3516L97.898 19.6399C97.8962 19.9543 97.8977 20.2686 97.8993 20.5829L97.8962 21.24C97.8934 21.8169 97.8933 22.3937 97.894 22.9706C97.8947 23.8925 97.8917 24.8144 97.8879 25.7364C97.887 26.0576 97.8876 26.379 97.8883 26.7002L97.8871 27.2956L97.8889 27.564C97.8843 28.5529 97.722 29.5155 97.0004 30.2372C96.4924 30.5857 96.1331 30.7454 95.5125 30.7454V29.0799L96.0023 28.982C96.2274 28.4432 96.227 27.9518 96.2264 27.3786V27.3761L96.2284 27.0693C96.2297 26.8501 96.2307 26.6309 96.2311 26.4117C96.2319 26.0645 96.234 25.7173 96.2363 25.3702C96.241 24.6332 96.2442 23.8962 96.2473 23.1591C96.2507 22.3052 96.2549 21.4513 96.2606 20.5975C96.2625 20.2558 96.2634 19.9142 96.2641 19.5727L96.2681 18.9426L96.2678 18.6558C96.2747 17.9067 96.3377 17.2977 96.884 16.7362C97.5385 16.2349 98.0887 16.2321 98.8806 16.2352Z" fill="#3976A3"/>
<path d="M119.612 16.2464H121.278V17.9118H124.902V19.4793H121.18V29.1779H124.902V30.6474H115.889V29.0799H119.612V19.4793H115.889V17.9118H119.612V16.2464Z" fill="#3976A3"/>
<path fill-rule="evenodd" clip-rule="evenodd" d="M74.4498 16.2464H89.9285V17.8139H87.4793V22.6142H90.0264V24.1816H87.4793V30.6474H85.9118V24.1816H78.5644V27.0227C78.2437 28.1986 77.8309 29.2997 76.7362 29.9622C76.0692 30.3318 75.445 30.6649 74.6703 30.6535L74.2539 30.6474V29.0799L74.7376 28.9697C75.5222 28.7536 76.1312 28.3845 76.6078 27.7184C76.9218 27.04 76.9385 26.3269 76.9556 25.5963V25.5619L76.997 24.1816H74.2539V22.5162H76.997V17.9118H74.4498V16.2464ZM78.6624 17.9118H85.9118V22.5162H78.6624V17.9118Z" fill="#3976A3"/>
<path d="M109.326 18.6956H115.106V20.263H112.95V30.7454H111.383V20.361H109.326V18.6956Z" fill="#3976A3"/>
<path d="M115.106 21.4386H113.734V30.6474H115.106V21.4386Z" fill="#3976A3"/>
<path fill-rule="evenodd" clip-rule="evenodd" d="M82.7008 34.1589C82.7869 34.2149 82.8666 34.2732 82.9417 34.3356C83.0589 34.433 83.165 34.5401 83.2668 34.664L83.3647 33.9782H84.0505V39.0725H83.3647L83.2668 38.3867L83.0946 38.5084C82.316 39.0455 81.6776 39.2953 80.7197 39.1704C79.8926 38.9047 79.4019 38.4254 78.9746 37.6887C78.6736 36.9598 78.6477 36.1742 78.9134 35.4294C79.2116 34.7629 79.7139 34.246 80.3837 33.9449C81.1597 33.7341 81.9872 33.7868 82.7008 34.1589ZM80.3278 34.762L80.0706 34.9273C79.5911 35.3942 79.4214 35.858 79.391 36.5253C79.4151 37.184 79.6283 37.5819 80.0821 38.0465C80.5373 38.4534 80.9612 38.6365 81.5765 38.6201C82.1362 38.5251 82.6291 38.2443 83.0219 37.8418L83.2733 37.4334C83.498 36.8872 83.471 36.1457 83.279 35.5928C82.9627 35.0486 82.4945 34.6678 81.8952 34.4681C81.3024 34.4151 80.8394 34.4288 80.3278 34.762Z" fill="#3976A3"/>
<path d="M110.599 21.4386H109.424V29.3738L109.13 29.4718V30.6474C109.674 30.6474 109.797 30.5876 110.207 30.2555C110.528 29.8649 110.644 29.5803 110.648 29.0724L110.644 28.8455C110.644 28.5909 110.644 28.3363 110.641 28.0816C110.639 27.8999 110.637 27.7184 110.636 27.5367C110.635 27.0603 110.633 26.5839 110.629 26.1075C110.624 25.614 110.622 25.1205 110.62 24.627C110.616 23.7729 110.611 22.9189 110.604 22.0649L110.599 21.4386Z" fill="#3976A3"/>
<path fill-rule="evenodd" clip-rule="evenodd" d="M101.698 34.0012C102.074 34.2232 102.322 34.3959 102.566 34.762L102.664 33.9782H103.252V38.9745H102.664L102.566 38.2887L102.45 38.407C101.891 38.9363 101.277 39.1652 100.509 39.2133C99.8458 39.1811 99.2397 38.9112 98.7576 38.4602C98.1154 37.7375 97.9993 37.1621 98.0282 36.189C98.0924 35.4744 98.3292 34.9822 98.8434 34.4681C99.6823 33.8606 100.699 33.6087 101.698 34.0012ZM99.1556 35.1355C98.7256 35.762 98.5926 36.2089 98.6899 36.9585C98.832 37.6053 99.3087 38.0103 99.823 38.3867C100.227 38.6145 100.641 38.6499 101.097 38.5826C101.648 38.4005 102.122 38.0718 102.468 37.603C102.735 37.0624 102.715 36.5278 102.664 35.9376C102.445 35.3044 101.982 34.8536 101.392 34.5396C100.543 34.232 99.7656 34.5255 99.1556 35.1355Z" fill="#3976A3"/>
<path d="M114.91 32.0189H114.224V39.0725H114.91L114.921 38.6442C114.927 38.4087 114.933 38.1732 114.94 37.9376L114.953 37.4744C114.958 37.2468 114.964 37.0192 114.971 36.7917L114.977 36.5755L114.977 36.5483V36.5474C114.986 36.1973 114.993 35.8835 115.106 35.5457C115.369 35.0688 115.662 34.7452 116.183 34.566C116.644 34.5038 117.063 34.493 117.457 34.762C117.795 35.1723 117.895 35.4688 117.908 35.984L117.908 36.2215C117.913 36.4759 117.918 36.7302 117.92 36.9846C117.922 37.1612 117.924 37.3377 117.926 37.5142L117.932 37.8534L117.935 38.0162C117.938 38.2574 117.942 38.4987 117.944 38.7401L117.947 39.0725H118.632C118.637 38.853 118.64 38.6336 118.644 38.4142C118.647 38.2068 118.649 37.9995 118.652 37.7922L118.657 37.2662C118.659 37.1721 118.662 37.0769 118.665 36.9811L118.67 36.8446C118.697 36.1568 118.724 35.4431 118.456 34.8109C118.224 34.3778 117.914 34.0641 117.457 33.8803C116.819 33.8011 116.274 33.7861 115.693 34.0762L115.008 34.664L114.91 32.0189Z" fill="#3976A3"/>
<path d="M74.8417 32.0189H74.2539V38.9745H74.8417L74.9397 36.9172L75.1532 37.0878C75.2063 37.1304 75.2593 37.1729 75.3122 37.2158C75.356 37.2513 75.3997 37.2869 75.4432 37.3227C75.4982 37.3679 75.553 37.4134 75.6074 37.4595L75.7785 37.6091C75.9742 37.7781 76.1667 37.9481 76.3494 38.1314C76.6809 38.469 77.0073 38.7912 77.3888 39.0725C77.7322 39.1596 77.9166 39.1373 78.2705 39.0725V38.8765L78.0968 38.7365C77.896 38.5831 77.7958 38.5066 77.6984 38.4263C77.6036 38.3482 77.5116 38.2666 77.3323 38.1075L77.3198 38.0965L77.3184 38.0951L77.0949 37.8969C76.5292 37.4027 76.0003 36.9142 75.5275 36.3294C75.9426 35.9485 76.3577 35.5693 76.7949 35.2135C77.2746 34.8303 77.7073 34.4721 78.0746 33.9782L77.8637 33.9748L77.5909 33.9721C77.4256 33.97 77.2601 33.9712 77.0949 33.9782C76.9641 34.099 76.8806 34.1761 76.8093 34.2402C76.7822 34.2647 76.7568 34.2872 76.7312 34.3096C76.6696 34.3637 76.607 34.4166 76.5163 34.4923L76.3541 34.6273C76.1108 34.8351 75.868 35.0433 75.6254 35.2518L74.8417 35.9376V32.0189Z" fill="#3976A3"/>
<path d="M108.204 33.9844C108.677 34.3127 108.928 34.7173 109.13 35.2518C109.139 35.3064 109.146 35.3607 109.151 35.4147C109.166 35.5493 109.171 35.6829 109.172 35.8173C109.173 35.9248 109.171 36.0329 109.168 36.1427L109.166 36.3897C109.164 36.6472 109.159 36.9046 109.154 37.1621C109.152 37.3379 109.15 37.5136 109.149 37.6895L109.147 37.8467L109.146 37.9848L109.143 38.1659C109.139 38.4354 109.135 38.7049 109.13 38.9745H108.542L108.536 38.6885L108.531 38.4434L108.523 38.126C108.519 37.961 108.515 37.7959 108.511 37.6309L108.507 37.4653C108.505 37.3684 108.503 37.2715 108.501 37.1746C108.496 36.9549 108.49 36.7353 108.485 36.5158L108.481 36.3122C108.465 35.767 108.41 35.2548 108.058 34.8232C107.703 34.5433 107.353 34.5259 106.917 34.5331C106.507 34.5901 106.185 34.7601 105.897 35.0559C105.433 35.7198 105.433 36.4525 105.433 37.2224C105.432 37.3161 105.432 37.4103 105.432 37.505L105.423 37.9615C105.416 38.3318 105.411 38.702 105.407 39.0725H104.721V33.9782H105.407L105.505 34.664L105.641 34.5423L105.823 34.3823L106.003 34.2239C106.612 33.746 107.491 33.6875 108.204 33.9844Z" fill="#3976A3"/>
<path d="M93.0634 33.9782H92.3776C92.3715 34.3585 92.3665 34.7388 92.3632 35.1192C92.3621 35.2756 92.3607 35.4321 92.3592 35.5885C92.358 35.6637 92.3565 35.7386 92.355 35.8131C92.3385 36.636 92.3228 37.4163 92.6715 38.1908C93.0029 38.6926 93.3701 39.0016 93.9451 39.1704C94.8605 39.2927 95.548 39.1144 96.284 38.5704L96.2848 38.5692L96.2859 38.5681L96.2879 38.5655C96.4712 38.317 96.5939 38.1507 96.6746 37.9659C96.837 37.5944 96.8298 37.1486 96.8083 35.812C96.8057 35.6572 96.8037 35.5023 96.8022 35.3475C96.7987 34.891 96.7934 34.4347 96.7861 33.9782H96.1003C96.098 34.2485 96.0952 34.5188 96.0915 34.789C96.0895 34.9403 96.0872 35.0915 96.0846 35.2428C96.0815 35.4152 96.0786 35.5876 96.0758 35.76C96.0738 36.0135 96.0717 36.267 96.067 36.5206L96.062 36.7622V36.7899C96.0615 37.2239 96.0611 37.513 95.8153 37.8893C95.5106 38.1919 95.3062 38.3662 94.8669 38.4146L94.8449 38.4152C94.3495 38.4307 93.9389 38.4434 93.5532 38.0928C93.2274 37.6895 93.1158 37.4045 93.102 36.9007L93.1016 36.6761C93.0966 36.4353 93.092 36.1947 93.0899 35.9538C93.0885 35.7868 93.0865 35.6197 93.0837 35.4527L93.0784 35.1595L93.0739 34.8854C93.0708 34.6878 93.0681 34.4903 93.0661 34.2926L93.0634 33.9782Z" fill="#3976A3"/>
<path d="M87.5773 33.9782H86.8915C86.8915 34.0276 86.8915 34.0645 86.8926 34.0949C86.8937 34.1266 86.896 34.1512 86.9006 34.1753C86.906 34.2035 86.9147 34.2311 86.9285 34.2688C86.9364 34.2904 86.9461 34.3154 86.9578 34.3456L87.0519 34.5543L87.1579 34.7911C87.2363 34.9647 87.3142 35.1383 87.3917 35.3123C87.4752 35.4996 87.5589 35.6868 87.6426 35.874L87.7671 36.1519L87.9456 36.5487L88.0504 36.7824C88.0808 36.8503 88.1112 36.9183 88.1414 36.9863L88.2596 37.2521L88.2821 37.3014L88.341 37.4283C88.5959 37.9767 88.8596 38.5441 88.6656 39.1482C88.3767 39.7011 88.1545 40.2407 87.9691 40.8358H88.6549C89.1832 39.6657 89.7087 38.4944 90.2266 37.3196L90.455 36.8009C90.572 36.5367 90.6891 36.2725 90.8055 36.0081L90.9165 35.7558C91.1759 35.172 91.402 34.5878 91.5939 33.9782H90.9081C90.6222 34.623 90.3342 35.2668 90.0456 35.9104L89.2427 37.7009L87.5773 33.9782Z" fill="#3976A3"/>
<path d="M105.211 26.141H106.779L106.839 26.7127L106.919 27.4513L106.959 27.8286L106.999 28.1883L107.034 28.521L107.035 28.5222L107.035 28.5236C107.041 28.6002 107.046 28.654 107.053 28.6972C107.058 28.7314 107.064 28.759 107.072 28.7856C107.083 28.8179 107.097 28.8489 107.119 28.8892L107.136 28.9206L107.17 28.982L107.464 29.0799V30.7454C106.787 30.6607 106.381 30.5322 105.867 30.0833C105.453 29.5351 105.354 28.8913 105.291 28.2227L105.267 27.9916C105.207 27.3729 105.195 26.7626 105.211 26.141Z" fill="#3976A3"/>
<path d="M100.705 26.141H99.1372C99.108 26.4629 99.0784 26.7847 99.0471 27.1065C99.0342 27.2377 99.0213 27.369 99.0087 27.5002L98.9737 27.8917L98.9363 28.2648L98.9297 28.355L98.9267 28.3944C98.925 28.4159 98.9234 28.4356 98.9218 28.454C98.9164 28.5174 98.9112 28.5638 98.9037 28.6098C98.8993 28.6374 98.894 28.6648 98.8874 28.6957C98.8831 28.716 98.8781 28.7378 98.8724 28.7621L98.8559 28.8316L98.8443 28.8801L98.8434 28.884L98.5494 29.0799C98.5434 29.1605 98.5377 29.241 98.5331 29.3217C98.5302 29.3735 98.5278 29.4255 98.5261 29.4773C98.5249 29.5121 98.5241 29.5468 98.5237 29.5815L98.5233 29.6252C98.5232 29.6465 98.5233 29.6678 98.5236 29.6892L98.5311 29.9249L98.534 30.0871L98.5371 30.2453L98.5402 30.3891L98.5434 30.52C98.5452 30.5951 98.5472 30.6702 98.5494 30.7454C99.0345 30.6812 99.435 30.6052 99.8597 30.3535C100.151 30.0201 100.349 29.7941 100.481 29.5347C100.759 28.989 100.746 28.2952 100.705 26.1418V26.141Z" fill="#3976A3"/>
<path d="M112.167 33.8803C112.467 33.9975 112.731 34.1309 112.95 34.3701V34.762L112.559 34.9579L112.418 34.8171C112.068 34.6036 111.695 34.5313 111.285 34.566C111.043 34.7495 110.997 34.8329 110.93 35.1355C111.019 35.5879 111.273 35.7611 111.636 36.0077L111.677 36.0355C111.845 36.1369 112.015 36.2369 112.185 36.3355L112.187 36.3367C112.624 36.5965 112.78 36.6888 112.884 36.8216C112.917 36.863 112.944 36.9081 112.973 36.9634C112.996 37.0052 113.019 37.0528 113.046 37.1088L113.048 37.1131C113.124 37.64 113.117 38.0539 112.877 38.5336C112.484 38.9705 112.201 39.155 111.603 39.1949C111.023 39.1875 110.55 38.953 110.109 38.5826C110.134 38.3989 110.134 38.3989 110.207 38.1908C110.277 38.1487 110.323 38.121 110.36 38.1C110.381 38.0881 110.4 38.0784 110.419 38.0692C110.464 38.0473 110.511 38.0291 110.598 37.9954L110.599 37.9948L110.789 38.1908C111.188 38.4515 111.506 38.4398 111.971 38.3867L112.265 38.2887C112.33 37.9923 112.371 37.7111 112.363 37.407C112.101 37.0055 111.694 36.8017 111.278 36.5937C111.242 36.5754 111.205 36.5569 111.168 36.5383C111.126 36.5173 111.085 36.4961 111.044 36.4745C110.638 36.2379 110.451 35.9839 110.305 35.5457C110.245 35.1515 110.219 34.8073 110.43 34.4573C110.944 33.8515 111.38 33.7852 112.167 33.8803Z" fill="#3976A3"/>
<path d="M95.1206 28.884H91.6918V30.5494H95.1206V28.884Z" fill="#3976A3"/>
<path d="M91.6918 16.5403H95.1206V18.1078H91.6918V16.5403Z" fill="#3976A3"/>
<path d="M95.1206 22.4183H91.6918V23.8877H95.1206V22.4183Z" fill="#3976A3"/>
<path fill-rule="evenodd" clip-rule="evenodd" d="M100.019 18.2057H101.586V18.8915L101.765 18.8888C102.019 18.8853 102.274 18.8821 102.528 18.8793C102.887 18.8755 103.246 18.8724 103.605 18.87C103.834 18.8679 104.063 18.8653 104.291 18.8619C104.621 18.8571 104.95 18.8549 105.279 18.8532L105.588 18.8471C106.164 18.8469 106.532 18.8746 106.975 19.2833C107.428 19.786 107.423 20.2372 107.415 20.8779L107.415 20.8937L107.415 21.19C107.415 21.3962 107.414 21.6024 107.412 21.8086C107.409 22.1233 107.41 22.438 107.411 22.7527L107.41 23.0795L107.409 23.3551L107.41 23.639C107.401 24.2731 107.303 24.699 106.877 25.1919C106.548 25.4693 106.255 25.4675 105.851 25.4651L105.801 25.4648L105.455 25.4638L105.095 25.4613L104.731 25.46C104.434 25.4588 104.137 25.4572 103.84 25.4552L103.846 25.8115C103.848 25.9274 103.849 26.0434 103.851 26.1593C103.852 26.2627 103.854 26.3662 103.855 26.4696L103.856 26.5832L103.861 27.1283C103.862 27.2356 103.864 27.343 103.865 27.4503C103.866 27.5324 103.868 27.6145 103.869 27.6966C103.874 27.97 103.876 28.2432 103.878 28.5166L103.884 28.7706C103.884 29.3434 103.774 29.7787 103.448 30.2555C103.015 30.6451 102.651 30.7 102.088 30.6719L101.39 30.6474V29.0799L102.076 28.884L102.174 25.4552L101.613 25.4636L101.367 25.4677C101.183 25.4709 100.99 25.4746 100.624 25.4817C99.9204 25.487 99.6675 25.4889 99.4488 25.4033C99.3261 25.3551 99.2141 25.2795 99.0393 25.1613C98.6215 24.5887 98.5872 24.0056 98.5885 23.3179L98.586 23.0166L98.5852 22.8297L98.5851 22.76L98.585 22.5924L98.5853 22.4618L98.5856 22.3889C98.5862 22.0697 98.5816 21.751 98.5766 21.4319C98.5763 21.297 98.5762 21.1622 98.5761 21.0273L98.5762 20.8198L98.5708 20.5328C98.5787 19.9514 98.6759 19.6357 99.0834 19.2144C99.3858 18.9614 99.6306 18.8915 100.019 18.8915V18.2057ZM100.215 22.9081H105.799C105.799 23.0393 105.799 23.1413 105.798 23.2231C105.797 23.2584 105.796 23.2899 105.795 23.3184C105.791 23.4269 105.781 23.4914 105.761 23.5523C105.744 23.6043 105.719 23.6536 105.683 23.7256C105.448 23.9394 105.322 23.9363 105.007 23.9354L104.7 23.9372L104.369 23.9329L104.029 23.9326C103.907 23.9323 103.785 23.9318 103.663 23.931L103.476 23.9296L103.317 23.9281C102.953 23.9245 102.589 23.924 102.225 23.9241C101.994 23.9231 101.764 23.922 101.534 23.9207L101.202 23.92L100.896 23.9163L100.626 23.914C100.53 23.9023 100.477 23.8958 100.43 23.875C100.372 23.849 100.324 23.8007 100.215 23.6918V22.9081ZM101.185 20.4266L100.885 20.4304C100.584 20.433 100.418 20.4344 100.326 20.5178C100.215 20.6195 100.215 20.8433 100.215 21.3406H105.799V20.8508C105.607 20.5905 105.491 20.4761 105.172 20.4104L104.907 20.4113L104.606 20.4095L104.283 20.4138L103.606 20.4149L103.233 20.4186C103.002 20.4207 102.77 20.4223 102.539 20.4226C102.306 20.4226 102.074 20.4231 101.841 20.424L101.509 20.426L101.185 20.4266Z" fill="#3976A3"/>
<path fill-rule="evenodd" clip-rule="evenodd" d="M123.543 34.0456C124.248 34.4246 124.748 35.084 125 35.8396V36.5253H120.494C120.603 37.0452 120.655 37.2968 120.773 37.5131C120.883 37.7161 121.051 37.8879 121.375 38.2208L121.376 38.2214C121.844 38.4849 122.206 38.5369 122.747 38.4847C123.386 38.2529 123.828 37.9642 124.217 37.407L124.706 37.505C124.765 37.6795 124.788 37.7504 124.78 37.8175C124.776 37.8475 124.766 37.8767 124.75 37.9142C124.742 37.934 124.732 37.9561 124.72 37.9818C124.251 38.6308 123.693 38.9204 122.943 39.1704C122.029 39.254 121.334 39.1453 120.616 38.5581C119.87 37.6458 119.712 36.9252 119.808 35.7416C119.895 35.4414 120.019 35.2113 120.2 34.9579L120.414 34.6456C121.266 33.7934 122.404 33.5807 123.543 34.0456ZM123.267 34.6273C123.868 34.9718 124.093 35.3718 124.314 36.0355H120.494C120.72 35.3578 120.967 34.9808 121.547 34.5721C122.134 34.3803 122.699 34.3704 123.267 34.6273Z" fill="#3976A3"/>
<path d="M85.422 33.9782H86.0098V38.9745H85.422V33.9782Z" fill="#3976A3"/>
<path d="M86.0027 31.9448C85.9404 31.9152 85.867 31.9091 85.7159 31.8965C85.2387 31.9363 85.1712 32.165 85.1281 32.6067C85.2332 32.7644 85.282 32.8375 85.3489 32.8845C85.4069 32.9253 85.4784 32.9466 85.6118 32.9863C85.7862 32.9934 85.8592 32.9964 85.9259 32.9772C85.9739 32.9635 86.0186 32.9381 86.0955 32.8945C86.2524 32.6242 86.2384 32.4236 86.2057 32.1169C86.1105 32.0217 86.0616 31.9727 86.0027 31.9448Z" fill="#3976A3"/>
</svg>
