<svg width="108" height="48" viewBox="0 0 108 48" fill="none" xmlns="http://www.w3.org/2000/svg">
<path d="M6.58789 0.5H100.722C104.084 0.5 106.81 3.22561 106.811 6.58789V41.4121C106.81 44.7744 104.084 47.5 100.722 47.5H6.58789C3.22572 47.4998 0.500186 44.7743 0.5 41.4121V6.58789C0.500186 3.22572 3.22572 0.500186 6.58789 0.5Z" fill="white"/>
<path d="M6.58789 0.5H100.722C104.084 0.5 106.81 3.22561 106.811 6.58789V41.4121C106.81 44.7744 104.084 47.5 100.722 47.5H6.58789C3.22572 47.4998 0.500186 44.7743 0.5 41.4121V6.58789C0.500186 3.22572 3.22572 0.500186 6.58789 0.5Z" stroke="#EAECF0"/>
<path fill-rule="evenodd" clip-rule="evenodd" d="M12 24V40L47.9828 39.9986C86.5997 39.9972 84.5383 40.0153 86.0094 39.6644C86.9071 39.4503 87.7508 39.1299 88.6897 38.6466C92.3212 36.7771 94.7318 33.3154 95.2377 29.2432C95.2857 28.8576 95.3103 25.1453 95.3103 18.3294V8H53.6552H12V24ZM83.9069 11.1083C85.6945 11.9306 88.1721 12.8107 90.2238 13.3523L91.2406 13.6207L91.241 20.9328C91.2412 25.5403 91.2151 28.4546 91.1703 28.8117C90.8368 31.4719 89.1277 33.8256 86.678 34.9983C84.4447 36.0674 81.9972 36.0566 79.7541 34.9676C77.7012 33.9711 76.0974 32.0288 75.5269 29.8485C75.251 28.7939 75.235 28.2595 75.2559 20.7952L75.2759 13.6248L76.3793 13.3273C78.4108 12.7796 80.9624 11.8688 82.4861 11.1474C82.8446 10.9778 83.1737 10.8364 83.2172 10.8332C83.2609 10.8301 83.5712 10.9539 83.9069 11.1083ZM25.2399 12.3096C25.3492 12.3661 25.4588 12.4762 25.4836 12.5543C25.5747 12.8413 25.1403 13.2301 24.8454 13.1255C24.4515 12.9858 24.3592 12.5899 24.6645 12.3499C24.8806 12.1798 24.9761 12.1732 25.2399 12.3096ZM26.6443 12.2834C26.8989 12.3994 26.9968 12.6662 26.8608 12.8736C26.7331 13.0686 26.4667 13.1869 26.2937 13.1255C25.8998 12.9858 25.8075 12.5899 26.1128 12.3499C26.3201 12.1868 26.408 12.1758 26.6443 12.2834ZM55.1561 15.0517L55.1743 17.3103H62.4148C66.397 17.3103 69.6552 17.295 69.6552 17.2761C69.6552 17.0316 69.2801 15.5857 69.1623 15.3761C68.9668 15.0283 68.4972 14.7106 68.0876 14.6492C67.6146 14.5783 66.9491 14.6642 66.4614 14.8594C66.2206 14.9557 65.9563 15.0345 65.8739 15.0345C65.743 15.0345 65.7241 14.9965 65.7241 14.7325C65.7241 14.467 65.747 14.4216 65.9138 14.3564C66.4023 14.1655 66.7877 14.1093 67.6207 14.1075C68.6594 14.1052 68.9357 14.1928 69.4838 14.698C69.9085 15.0894 70.0945 15.4765 70.3121 16.4217C70.4114 16.8523 70.5291 17.2281 70.5739 17.2565C70.6186 17.285 70.7405 17.3087 70.8448 17.3093C71.0234 17.3103 71.0345 17.3283 71.0345 17.6207V17.931H62.6207H54.2069V15.669C54.2069 13.2746 54.2025 13.2414 53.8828 13.2414C53.7472 13.2414 53.7241 13.206 53.7241 12.9976V12.7538L54.431 12.7734L55.1379 12.7931L55.1561 15.0517ZM83.0603 13.7632C82.939 14.1881 82.9203 14.2137 82.7586 14.1768C82.6638 14.1551 82.3534 14.1206 82.069 14.1001L81.5517 14.0629L81.8966 14.2478C82.0862 14.3494 82.3154 14.4905 82.4059 14.5612C82.5697 14.6891 82.5677 14.6897 81.933 14.6897C81.5826 14.6897 81.1175 14.7359 80.8997 14.7923C80.4903 14.8983 79.6872 15.2284 79.7328 15.2719C79.747 15.2854 79.9293 15.2672 80.1379 15.2315C80.5705 15.1574 81.3073 15.2071 81.7403 15.3394C81.9851 15.4143 82.0113 15.4378 81.8966 15.4797C81.8207 15.5073 81.5373 15.6356 81.2668 15.7647C80.7263 16.0227 80.1033 16.6207 79.7966 17.1759L79.6275 17.4818L79.9 17.2671C80.5093 16.7871 81.3646 16.3697 81.976 16.2541L82.1935 16.213L81.9586 16.5621C81.7406 16.8861 81.5115 17.5206 81.421 18.0517C81.3708 18.3458 81.4154 18.3348 81.5799 18.0125C81.8606 17.4621 82.6629 16.6207 82.9069 16.6207C82.9754 16.6207 82.9858 19.3714 82.9212 20.4261L82.877 21.1495L82.6971 21.1165C82.5228 21.0844 82.521 21.0875 82.6379 21.2195C82.7043 21.2944 82.7586 21.369 82.7586 21.3852C82.7586 21.4015 82.6112 21.4038 82.431 21.3903C82.0337 21.3608 82.0825 21.4132 82.7395 21.7218L83.2376 21.9559L83.7739 21.7021L84.3103 21.4485L84.0172 21.4483C83.7106 21.4483 83.6534 21.3859 83.8276 21.2414C83.9788 21.1159 83.9541 21.0492 83.7697 21.0845L83.6083 21.1153L83.563 20.0232C83.5381 19.4225 83.5176 18.4112 83.5175 17.7759C83.5173 16.8348 83.535 16.6207 83.6132 16.6207C83.7892 16.6207 84.4344 17.2694 84.771 17.7847C84.9539 18.0646 85.1029 18.2663 85.1023 18.233C85.1016 18.1997 85.0575 17.9666 85.0041 17.7151C84.9 17.224 84.6248 16.6135 84.3941 16.3621C84.2185 16.1706 84.2755 16.1692 84.8721 16.3507C85.4119 16.5148 85.9421 16.7916 86.4655 17.1824C86.6647 17.3311 86.8276 17.4348 86.8276 17.4127C86.8276 17.2873 86.3106 16.6039 85.9829 16.296C85.6543 15.9872 85.0774 15.6492 84.5862 15.4775C84.4726 15.4378 84.5 15.4135 84.7424 15.3394C85.1754 15.2071 85.9123 15.1574 86.3448 15.2315C86.5534 15.2672 86.7367 15.2845 86.752 15.2698C86.7998 15.2241 86.0309 14.9083 85.599 14.7964C85.3724 14.7377 84.9161 14.6897 84.585 14.6897C83.8772 14.6897 83.876 14.6217 84.5776 14.2713L85 14.0603L84.4483 14.0983C84.1448 14.1192 83.8112 14.1558 83.7069 14.1797C83.568 14.2114 83.5172 14.1965 83.5172 14.124C83.5172 13.9458 83.3064 13.3103 83.2472 13.3103C83.2155 13.3103 83.1314 13.5141 83.0603 13.7632ZM51.296 14.2073C52.0494 14.5314 52.458 15.2565 52.3987 16.1641C52.3607 16.7462 52.1937 17.1126 51.8075 17.4616C51.1634 18.0434 49.8815 18.1394 48.9708 17.6739L48.5967 17.4828L48.1802 17.6897L47.7637 17.8966H43.1405H38.5172L38.1754 17.739L37.8337 17.5815L37.4858 17.739L37.1379 17.8966H31.8276H26.5172L26.4963 17.681L26.4753 17.4656L26.0825 17.681C25.7295 17.8747 25.6302 17.8966 25.1034 17.8966C24.3874 17.8966 23.9583 17.7178 23.6488 17.2906C23.3748 16.9123 23.2901 16.5486 23.3241 15.8957C23.3854 14.7189 24.0672 14.069 25.2403 14.069C25.6184 14.069 25.7802 14.1071 26.111 14.2741C26.3623 14.401 26.5271 14.4503 26.5431 14.4034C26.6101 14.2071 26.8409 14.069 27.1022 14.069H27.3768L27.3953 15.6724L27.4138 17.2759L32 17.2949C34.5224 17.3054 36.6559 17.297 36.741 17.2764C36.8752 17.2439 36.7857 17.1467 36.0686 16.5458C35.6137 16.1646 35.2414 15.807 35.2414 15.7512C35.2414 15.559 35.5097 15.1244 35.7686 14.897C36.6331 14.138 38.2652 13.9834 39.3846 14.5544C39.9343 14.8349 40.4138 15.3925 40.4138 15.7514C40.4138 15.8068 40.043 16.1566 39.5897 16.5287C38.9846 17.0254 38.7917 17.2199 38.8639 17.2603C38.9179 17.2906 40.8948 17.3064 43.2569 17.2956C47.1148 17.2779 47.5779 17.264 47.8088 17.1593C48.1803 16.9909 48.3239 16.7085 48.3753 16.0442C48.4392 15.2195 48.5341 14.9292 48.8551 14.5761C49.2421 14.1504 49.7112 13.985 50.4183 14.0248C50.7477 14.0433 51.0713 14.1106 51.296 14.2073ZM49.9325 14.5597C49.4926 14.7352 49.3209 15.0586 49.237 15.869C49.202 16.2079 49.1249 16.6009 49.0657 16.7426C48.9593 16.9971 48.9603 17.0017 49.1514 17.155C49.4482 17.3929 49.7628 17.4683 50.311 17.4332C50.8925 17.3959 51.1577 17.2468 51.3452 16.8516C51.4897 16.5469 51.5156 15.6117 51.3899 15.2355C51.1978 14.6613 50.4949 14.3353 49.9325 14.5597ZM24.8568 14.7555C24.4128 14.9823 24.2413 15.3485 24.2418 16.069C24.2422 16.7184 24.353 17.0011 24.7119 17.2686C25.0051 17.4872 25.7203 17.4726 26.1379 17.2396L26.4483 17.0665L26.4672 15.9841L26.4862 14.9019L26.2609 14.7854C25.8985 14.5979 25.1946 14.583 24.8568 14.7555ZM37.1228 14.922C36.7121 15.0267 36.3199 15.2715 36.198 15.4994C36.1522 15.585 36.1277 15.6643 36.1436 15.6757C36.1594 15.6872 36.3741 15.8674 36.6207 16.0761C36.8672 16.285 37.2421 16.6008 37.4539 16.778L37.8387 17.1003L38.6608 16.4046C39.1128 16.022 39.4934 15.6803 39.5065 15.6454C39.5589 15.505 39.2783 15.219 38.9328 15.0609C38.4766 14.8521 37.647 14.7884 37.1228 14.922ZM68.7838 18.6257C69.1379 18.9043 68.9517 19.3802 68.4893 19.3783C68.2026 19.377 68.1199 19.3333 68.0103 19.1252C67.8586 18.8368 68.1106 18.5021 68.4907 18.4871C68.5519 18.4848 68.6839 18.5471 68.7838 18.6257ZM52.5517 20.8621V21.1034H52.2296C51.7912 21.1034 51.6552 21.2366 51.6552 21.6659V22H52.1379H52.6207V22.2069V22.4138H51.5862H50.5517V22.2069C50.5517 22.0077 50.5632 22 50.8621 22H51.1724V21.5873C51.1724 21.234 51.1999 21.1439 51.363 20.9612C51.5594 20.7414 51.8422 20.6401 52.2931 20.6277C52.5441 20.6209 52.5517 20.6279 52.5517 20.8621ZM55.0207 20.7724C55.081 20.8328 55.1034 21.3663 55.1034 22.7414C55.1034 25.2852 55.077 25.2414 56.6134 25.2414C57.4612 25.2414 57.5152 25.2331 57.6168 25.0881C57.7072 24.959 57.724 24.6573 57.7231 23.1743C57.7225 22.206 57.6992 21.3781 57.6714 21.3346C57.6435 21.291 57.5431 21.2444 57.4483 21.2311C57.3041 21.2108 57.2723 21.1645 57.2545 20.9483L57.233 20.6897H57.8523C58.1928 20.6897 58.5206 20.7085 58.5806 20.7315C58.6762 20.7682 58.6897 20.9961 58.6901 22.5763C58.6903 23.568 58.7212 24.4902 58.7589 24.6258C58.7966 24.7614 58.9076 24.9476 59.0056 25.0396C59.1713 25.1951 59.2357 25.2069 59.9195 25.2068C61.086 25.2066 61.3269 24.9987 61.403 23.9263C61.475 22.9127 61.7497 22.4405 62.4483 22.1299C62.8959 21.931 63.6677 21.9175 64.2029 22.0992C64.7082 22.271 65.1787 22.7412 65.3445 23.2403C65.4427 23.5361 65.4591 23.7382 65.4259 24.2439C65.3855 24.8581 65.3896 24.8821 65.5595 25.0421C65.7234 25.1961 65.7952 25.2083 66.6605 25.2295L67.5862 25.2521V23.3294C67.5862 21.2949 67.5779 21.2414 67.2621 21.2414C67.1265 21.2414 67.1034 21.206 67.1034 20.9976V20.7538L67.8103 20.7735L68.5172 20.7931L68.5353 23.3276L68.5534 25.8621H67.3078C66.349 25.8621 66.0172 25.8388 65.8668 25.7611C65.6374 25.6424 65.3103 25.2731 65.3103 25.1326C65.3103 24.986 65.2725 25.0069 64.9439 25.3357C64.5297 25.7498 64.0834 25.8967 63.2414 25.8961C62.646 25.8956 62.5429 25.8751 62.1116 25.6713L61.637 25.447L61.2551 25.6339C60.9528 25.7817 60.7469 25.8268 60.2674 25.8497C59.9342 25.8656 59.585 25.8594 59.4913 25.8359C59.2532 25.7761 58.8944 25.459 58.7936 25.2192L58.709 25.0179L58.5786 25.2848C58.4881 25.4702 58.3543 25.5991 58.1406 25.7069C57.8657 25.8455 57.731 25.8621 56.8797 25.8621C55.7322 25.8621 55.5372 25.8002 55.2483 25.3446C55.059 25.0462 55.0434 25.0363 54.9982 25.1855C54.9232 25.4332 54.6188 25.7181 54.3488 25.7932C54.2088 25.832 53.0682 25.8614 51.6942 25.8617C49.6393 25.862 49.2237 25.8449 48.8687 25.7453C48.338 25.5964 47.9299 25.2128 47.7969 24.7378C47.6755 24.3043 47.734 23.6276 47.9252 23.2528C48.07 22.969 48.0865 22.9587 48.3648 22.979C48.7359 23.0059 48.7748 23.1608 48.4916 23.4832C48.1215 23.9048 48.1393 24.587 48.5284 24.893C48.9223 25.2028 49.2623 25.2414 51.6032 25.2414C52.9872 25.2414 53.8516 25.2149 53.9356 25.17C54.0624 25.1021 54.069 25.0067 54.069 23.2183C54.069 21.2284 54.0601 21.1724 53.7448 21.1724C53.6166 21.1724 53.5862 21.135 53.5862 20.977C53.5862 20.8695 53.6069 20.7609 53.6322 20.7357C53.7157 20.6521 54.9326 20.6843 55.0207 20.7724ZM70.8801 23.3276L70.8983 25.8621H70.4146H69.931V23.6345C69.931 21.2766 69.9263 21.2414 69.6069 21.2414C69.4713 21.2414 69.4483 21.206 69.4483 20.9976V20.7538L70.1552 20.7735L70.8621 20.7931L70.8801 23.3276ZM78.8966 21.7303C79.8951 21.9555 80.372 22.1057 80.9341 22.372C81.5919 22.6837 82.6897 23.3546 82.6897 23.4452C82.6897 23.4741 82.5183 23.6114 82.3089 23.7505C81.9952 23.9588 81.9039 23.9903 81.7903 23.9295C81.6076 23.8317 81.5075 23.9027 81.5559 24.0956C81.5877 24.2221 81.5408 24.2876 81.3091 24.4409C81.0747 24.596 80.9898 24.6186 80.8388 24.5659C80.5812 24.4762 80.3448 24.5772 80.3448 24.7771C80.3448 25.1813 80.797 25.213 81.5057 24.8584C81.9077 24.6573 82.0208 24.627 82.1371 24.6892C82.3239 24.7892 82.4345 24.7127 82.3855 24.5174C82.3519 24.3834 82.4123 24.3171 82.7937 24.0686L83.2414 23.7769L83.689 24.0686C84.0705 24.3171 84.1308 24.3834 84.0972 24.5174C84.0482 24.7127 84.1588 24.7892 84.3457 24.6892C84.4619 24.627 84.575 24.6573 84.977 24.8584C85.5588 25.1494 85.9371 25.1821 86.0963 24.9548C86.1743 24.8434 86.1822 24.7723 86.1279 24.6708C86.0669 24.5569 86.0045 24.541 85.7362 24.5713C85.4682 24.6015 85.3754 24.578 85.1561 24.4243C84.9543 24.2829 84.9031 24.2071 84.9305 24.0904C84.9751 23.9008 84.8728 23.833 84.6897 23.931C84.5719 23.9941 84.4875 23.9637 84.1719 23.7446C83.9644 23.6006 83.7943 23.4614 83.7939 23.4352C83.7926 23.3578 85.0242 22.6179 85.6207 22.3379C86.2119 22.0602 87.0728 21.7961 87.4124 21.7883C87.527 21.7856 87.6828 21.7541 87.7586 21.7182C88.0297 21.5901 86.3978 21.7123 85.8276 21.8629C85.222 22.0228 84.0482 22.555 83.5597 22.8911L83.2484 23.1052L82.7532 22.7848C81.6935 22.0994 80.5563 21.7336 79.3448 21.6885C78.7188 21.6652 78.6404 21.6726 78.8966 21.7303ZM26.0781 22.1719C26.5169 22.3249 26.9525 22.7172 27.1466 23.1341C27.2973 23.4576 27.309 23.5686 27.3097 24.6724L27.3103 25.8621H25.2414H23.1724V25.5517V25.2414H24.7931H26.4138L26.4121 24.5345C26.4101 23.6863 26.3279 23.2881 26.0904 22.9768C25.858 22.672 25.5526 22.5517 25.0115 22.5517C24.5514 22.5517 24.2069 22.7163 24.2069 22.9361C24.2069 23.0068 24.1194 23.0345 23.8966 23.0345H23.5862V22.6234V22.2122L23.8448 22.1448C24.4889 21.9768 25.5559 21.9898 26.0781 22.1719ZM36.8002 22.307C37.5086 22.5206 38.1219 23.0493 38.2731 23.5767C38.3351 23.7927 38.3283 23.8005 37.4741 24.5007L36.6126 25.2069L38.2201 25.2261C40.1256 25.2488 40.069 25.2714 40.069 24.4889C40.069 23.9782 40.0025 23.8621 39.7103 23.8621C39.5357 23.8621 39.5172 23.8391 39.5172 23.6207V23.3793H40.2414H40.9655V23.9677C40.9655 24.959 41.1743 25.2414 41.907 25.2414C42.519 25.2414 42.5517 25.1929 42.5517 24.2848C42.5517 23.48 42.5119 23.3793 42.1931 23.3793C42.0184 23.3793 42 23.3563 42 23.1379V22.8966H42.7241H43.4483L43.4484 23.7414C43.4486 25.0327 43.6024 25.2386 44.569 25.2403L45.1034 25.2414V24.1059C45.1034 23.0538 45.0937 22.9651 44.9701 22.899C44.8967 22.8597 44.7726 22.8276 44.6942 22.8276C44.5774 22.8276 44.5517 22.7841 44.5517 22.5862V22.3448H45.2759H46V24.1034V25.8621H45.0792C44.2379 25.8621 44.1386 25.8487 43.93 25.7069C43.8044 25.6216 43.6415 25.4352 43.568 25.2927L43.4343 25.0336L43.2861 25.3272C43.0863 25.723 42.7953 25.8618 42.1654 25.8619C41.5939 25.8621 41.2935 25.7078 41.0739 25.3012L40.941 25.055L40.7981 25.3328C40.5303 25.8532 40.4479 25.8696 38.2069 25.8472C36.4447 25.8296 36.2156 25.8142 35.9919 25.6985C35.7461 25.5712 35.7369 25.5715 35.3514 25.7157C34.9948 25.8492 34.8217 25.8621 33.3827 25.8621H31.805L31.4513 26.3065C30.9886 26.888 30.747 27.0345 30.2505 27.0345C29.8653 27.0345 29.8621 27.0328 29.8621 26.8285C29.8621 26.6604 29.9042 26.605 30.0912 26.5268C30.3381 26.4237 30.8276 26.024 30.8276 25.9256C30.8276 25.8925 30.3091 25.8569 29.6754 25.8465L28.5232 25.8276L28.3628 25.3793C28.233 25.0165 28.2071 24.8259 28.2272 24.3793C28.2576 23.704 28.4059 23.3853 28.8935 22.9468C29.4072 22.485 29.7083 22.3993 30.9483 22.3619L32 22.3301V23.7857V25.2414H33.3793C34.1379 25.2414 34.7586 25.2303 34.7586 25.2167C34.7586 25.196 33.5303 24.151 33.1882 23.8807C33.0244 23.7512 33.1897 23.2931 33.5188 22.9639C34.2428 22.2399 35.6465 21.9589 36.8002 22.307ZM63.0152 22.5163C62.5059 22.6913 62.3754 22.9145 62.2777 23.7771C62.2392 24.1163 62.1634 24.5198 62.1091 24.6737C62.0201 24.9259 62.0218 24.9635 62.1259 25.0546C62.407 25.3008 62.7271 25.4012 63.2214 25.3981C64.016 25.3933 64.3633 25.1132 64.4825 24.3811C64.6125 23.5821 64.4012 22.8604 63.9654 22.6156C63.6719 22.4506 63.3147 22.4133 63.0152 22.5163ZM34.7099 22.9691C34.3714 23.1027 33.9702 23.4632 34.0144 23.5941C34.0386 23.6658 35.6625 25.0345 35.7233 25.0345C35.7771 25.0345 37.407 23.6576 37.4329 23.5903C37.4712 23.4906 37.1521 23.1648 36.8728 23.0184C36.448 22.7959 35.2199 22.7679 34.7099 22.9691ZM30.102 23.0296C29.7953 23.1032 29.5399 23.2921 29.3633 23.5761C29.2396 23.775 29.2069 23.9285 29.2069 24.3103C29.2069 24.5759 29.2494 24.8939 29.3014 25.0172L29.3961 25.2414H30.1808H30.9655V24.1034V22.9655L30.6379 22.9726C30.4577 22.9765 30.2166 23.0021 30.102 23.0296ZM81.3103 27.3123C80.2085 27.7303 79.9477 27.8012 79.4662 27.8141C79.0745 27.8247 78.9668 27.8499 78.9666 27.931C78.966 28.0821 79.8434 32.1423 79.8857 32.1846C79.9054 32.2043 80.2418 32.133 80.6332 32.0261C81.1497 31.8851 81.5072 31.8313 81.9374 31.8297C82.4887 31.8277 82.5551 31.8433 82.8929 32.0534L83.2559 32.2792L83.5689 32.0719C84.1032 31.718 84.6403 31.7083 85.8496 32.0306C86.241 32.135 86.5795 32.2021 86.6019 32.1798C86.6359 32.1458 87.4758 28.358 87.533 27.9803C87.5492 27.8741 87.4852 27.8534 87.069 27.8301C86.5981 27.8036 86.2632 27.7144 85.2759 27.3523C84.2386 26.972 83.6363 27.2036 83.3673 28.0862C83.324 28.2285 83.2688 28.3448 83.2448 28.3448C83.2207 28.3448 83.1635 28.2047 83.1177 28.0334C83.0719 27.8622 82.9325 27.6109 82.808 27.475C82.6016 27.2497 82.5421 27.2252 82.1356 27.1982C81.7963 27.1756 81.5989 27.2029 81.3103 27.3123ZM82.6506 29.0328C82.8995 29.1274 83.1029 29.4933 83.1032 29.847C83.1038 30.5074 82.7632 30.8534 82.1516 30.814C81.8761 30.7962 81.8243 30.7699 81.8057 30.6386C81.7851 30.4941 81.803 30.4866 82.0815 30.5233C82.4047 30.5659 82.5771 30.48 82.6474 30.2414C82.6847 30.115 82.6605 30.1054 82.3587 30.1263C81.9202 30.1568 81.7103 29.9966 81.7103 29.631C81.7103 29.1432 82.1708 28.8503 82.6506 29.0328ZM81.4331 29.9138L81.4138 30.7931L81.2241 30.8149L81.0345 30.8368V30.181C81.0345 29.5792 80.9723 29.3388 80.8628 29.5161C80.7865 29.6395 80.6897 29.5912 80.6897 29.4298C80.6897 29.2421 80.9846 29.039 81.2607 29.0363L81.4524 29.0345L81.4331 29.9138ZM84.4138 29.169C84.4138 29.2843 84.3574 29.3064 84.0172 29.3241C83.6452 29.3435 83.6194 29.3562 83.5994 29.5285C83.5792 29.7039 83.5899 29.7106 83.8408 29.677C84.3203 29.6131 84.6232 30.0363 84.4399 30.5141C84.3763 30.68 84.0435 30.8276 83.7332 30.8276C83.3506 30.8276 83.2414 30.7706 83.2414 30.5708C83.2414 30.423 83.2641 30.4048 83.3966 30.4458C83.8848 30.5971 84.069 30.5411 84.069 30.2414C84.069 30.0053 83.8972 29.8929 83.6843 29.9899C83.3407 30.1465 83.3103 30.111 83.3103 29.5517V29.0345H83.8621C84.3631 29.0345 84.4138 29.0468 84.4138 29.169ZM85.7931 29.1904C85.7931 29.2762 85.655 29.6719 85.4862 30.0697C85.1995 30.7458 85.1656 30.7945 84.969 30.8147C84.8373 30.8282 84.7586 30.8048 84.7586 30.7519C84.7586 30.7055 84.9138 30.3797 85.1034 30.0279C85.2931 29.6761 85.4483 29.3708 85.4483 29.3493C85.4483 29.3279 85.2466 29.3103 85 29.3103C84.5977 29.3103 84.5517 29.2962 84.5517 29.1724C84.5517 29.0447 84.5977 29.0345 85.1724 29.0345C85.771 29.0345 85.7931 29.04 85.7931 29.1904ZM82.1719 29.405C82.0156 29.6434 82.1335 29.8621 82.4184 29.8621C82.673 29.8621 82.7502 29.7003 82.6126 29.4552C82.4781 29.2154 82.3087 29.1961 82.1719 29.405ZM37.1207 30.161L37.3793 30.1203V30.5774C37.3793 31.0181 37.3732 31.0345 37.2082 31.0345C37.0828 31.0345 37.0254 30.988 36.9934 30.8605C36.9308 30.6109 36.7072 30.4828 36.3345 30.4828C36.0661 30.4828 35.9853 30.5141 35.8671 30.6645C35.6898 30.8899 35.6842 31.1325 35.8524 31.3007C35.923 31.3712 36.2069 31.4977 36.4833 31.5817C36.7597 31.6656 37.0605 31.7832 37.1517 31.8429C37.697 32.2002 37.6197 33.1727 37.0203 33.4946C36.753 33.6383 35.9821 33.6581 35.7414 33.5275C35.6426 33.474 35.5862 33.4694 35.5862 33.5148C35.5862 33.5541 35.4931 33.5862 35.3793 33.5862H35.1724V33.1034V32.6207H35.3793C35.5476 32.6207 35.5864 32.6497 35.5872 32.7759C35.5894 33.0901 35.8316 33.2414 36.3326 33.2414C36.7339 33.2414 36.9459 33.0997 37.0052 32.792C37.0708 32.4514 36.842 32.2345 36.2292 32.0565C35.6283 31.8819 35.3401 31.6428 35.2682 31.2592C35.2062 30.9287 35.3581 30.502 35.6021 30.3214C35.8266 30.1552 36.2865 30.0777 36.6207 30.1496C36.7534 30.1782 36.9785 30.1833 37.1207 30.161ZM24.4828 30.3103C24.4828 30.4559 24.4506 30.4828 24.2759 30.4828H24.069V31.2069C24.069 31.6052 24.0923 31.9274 24.1207 31.923C24.2023 31.9103 25.3793 30.6415 25.3793 30.5663C25.3793 30.5292 25.3172 30.4826 25.2414 30.4628C25.1588 30.4412 25.1034 30.3687 25.1034 30.2823C25.1034 30.1464 25.1401 30.1379 25.729 30.1379C26.3381 30.1379 26.3539 30.142 26.3324 30.2931C26.3189 30.3881 26.255 30.4562 26.1677 30.4687C26.0892 30.4799 25.7854 30.73 25.4928 31.0244L24.9606 31.5597L25.5163 32.3833C25.8219 32.8363 26.1334 33.2349 26.2084 33.2692C26.2834 33.3034 26.3448 33.3888 26.3448 33.4588C26.3448 33.5697 26.2865 33.5862 25.8966 33.5862C25.4708 33.5862 25.4483 33.578 25.4483 33.4225C25.4483 33.2901 24.8518 32.3036 24.6112 32.0381C24.5754 31.9985 24.4568 32.065 24.3105 32.2068C24.0848 32.4256 24.069 32.4692 24.069 32.8756V33.3103H24.2759C24.4368 33.3103 24.4828 33.341 24.4828 33.4483C24.4828 33.5766 24.4368 33.5862 23.8276 33.5862C23.2478 33.5862 23.1724 33.5722 23.1724 33.4646C23.1724 33.3978 23.2422 33.3124 23.3276 33.275C23.4809 33.2077 23.4828 33.1906 23.4828 31.8621C23.4828 30.5199 23.4824 30.5172 23.3276 30.4952C23.2152 30.4792 23.1724 30.4269 23.1724 30.3055C23.1724 30.1398 23.1797 30.1379 23.8276 30.1379C24.4805 30.1379 24.4828 30.1386 24.4828 30.3103ZM27.5426 30.2838C27.6607 30.4523 27.625 30.595 27.4401 30.694C27.2612 30.7897 27.0345 30.6588 27.0345 30.4597C27.0345 30.1395 27.3621 30.0261 27.5426 30.2838ZM46.191 31.7137C46.2087 33.1839 46.2159 33.2566 46.3461 33.2907C46.4213 33.3103 46.4828 33.3848 46.4828 33.4563C46.4828 33.5676 46.429 33.5862 46.1081 33.5862C45.7919 33.5862 45.7265 33.5643 45.6889 33.446C45.6446 33.3063 45.6433 33.3064 45.3961 33.4592C44.9026 33.7642 44.1927 33.6025 43.9115 33.1211C43.8412 33.0007 43.7669 32.738 43.7463 32.5373C43.6338 31.4391 44.4481 30.6997 45.337 31.0929L45.6552 31.2337V30.8582C45.6552 30.5037 45.6456 30.4828 45.4828 30.4828C45.344 30.4828 45.3103 30.4485 45.3103 30.307C45.3103 30.1353 45.3201 30.1318 45.7414 30.1519L46.1724 30.1724L46.191 31.7137ZM48.8966 30.3103C48.8966 30.4568 48.8647 30.4828 48.6852 30.4828H48.4739L48.4956 31.6958L48.5172 32.9088L48.7108 33.0751C48.8689 33.211 48.9801 33.2414 49.3195 33.2414C49.6865 33.2414 49.7581 33.2179 49.9363 33.0398L50.1379 32.8382V31.6605V30.4828H49.931C49.7563 30.4828 49.7241 30.4559 49.7241 30.3103C49.7241 30.1399 49.731 30.1379 50.3103 30.1379C50.8897 30.1379 50.8966 30.1399 50.8966 30.3103C50.8966 30.4335 50.8593 30.4828 50.766 30.4828C50.6942 30.4828 50.6166 30.5319 50.5936 30.5919C50.5706 30.6519 50.5517 31.1649 50.5517 31.732C50.5517 32.8377 50.4976 33.0862 50.1986 33.3536C49.8273 33.6854 48.9414 33.7463 48.4731 33.4721C48.01 33.2009 47.9674 33.0717 47.9472 31.8746C47.9255 30.5997 47.9067 30.4828 47.7228 30.4828C47.6231 30.4828 47.5862 30.4362 47.5862 30.3103C47.5862 30.1386 47.5885 30.1379 48.2414 30.1379C48.8943 30.1379 48.8966 30.1386 48.8966 30.3103ZM54.9773 30.2521C55.0467 30.3148 55.1034 30.4057 55.1034 30.4541C55.1034 30.57 54.9112 30.7586 54.7931 30.7586C54.7417 30.7586 54.6508 30.7099 54.5911 30.6503C54.5315 30.5906 54.4828 30.4997 54.4828 30.4483C54.4828 30.3358 54.6693 30.1379 54.7754 30.1379C54.8171 30.1379 54.9079 30.1893 54.9773 30.2521ZM66.0046 30.2093C66.2626 30.3474 66.1077 30.8037 65.8219 30.7471C65.7582 30.7345 65.6614 30.6566 65.6066 30.574C65.5171 30.439 65.5214 30.4096 65.6501 30.2809C65.815 30.116 65.8261 30.1138 66.0046 30.2093ZM67.3793 30.6897V31.0345H67.6552C67.9034 31.0345 67.931 31.0517 67.931 31.2069C67.931 31.3621 67.9034 31.3793 67.6552 31.3793H67.3793V32.2621C67.3793 33.2357 67.4073 33.3103 67.7724 33.3103C67.9497 33.3103 68 33.3392 68 33.4409C68 33.5939 67.8711 33.6552 67.5493 33.6552C67.2348 33.6552 66.9964 33.5366 66.9041 33.334C66.8606 33.2384 66.8276 32.7804 66.8276 32.2726V31.3793H66.6552C66.5172 31.3793 66.4828 31.3448 66.4828 31.2069C66.4828 31.069 66.5172 31.0345 66.6552 31.0345C66.8161 31.0345 66.8276 31.0115 66.8276 30.6897V30.3448H67.1034H67.3793V30.6897ZM30.6723 31.2065C30.8168 31.3745 30.8276 31.4517 30.8276 32.3206C30.8276 33.1963 30.8361 33.2566 30.9655 33.2903C31.0419 33.3103 31.1034 33.3844 31.1034 33.4563C31.1034 33.5733 31.0454 33.5862 30.5172 33.5862C29.977 33.5862 29.931 33.5754 29.931 33.4483C29.931 33.3471 29.977 33.3103 30.1034 33.3103H30.2759V32.4162C30.2759 31.6028 30.2638 31.5157 30.1425 31.4507C29.9469 31.3461 29.7271 31.3653 29.3943 31.5163L29.099 31.6504L29.1185 32.4631L29.1379 33.2759L29.3276 33.2977C29.4616 33.3131 29.5172 33.3586 29.5172 33.4528C29.5172 33.5748 29.4641 33.5862 28.8966 33.5862C28.3497 33.5862 28.2759 33.5717 28.2759 33.4646C28.2759 33.3978 28.3457 33.3124 28.431 33.275C28.5805 33.2094 28.5862 33.1739 28.5862 32.3103C28.5862 31.4468 28.5805 31.4113 28.431 31.3457C28.3457 31.3083 28.2759 31.2229 28.2759 31.1561C28.2759 31.0534 28.3404 31.0345 28.6897 31.0345C29.0886 31.0345 29.1034 31.0409 29.1034 31.2125V31.3906L29.3458 31.2408C29.8772 30.9123 30.4075 30.8986 30.6723 31.2065ZM33.3621 31.0339C33.671 31.0344 33.7241 31.0536 33.7241 31.165C33.7241 31.2469 33.6594 31.3117 33.5502 31.339C33.3977 31.3773 33.3859 31.4006 33.4543 31.5284C33.5617 31.7291 33.4849 32.1246 33.3003 32.321C33.103 32.5311 32.6764 32.6447 32.298 32.5879C32.0126 32.5452 32 32.5508 32 32.7199C32 32.8919 32.0124 32.8966 32.4655 32.8982C33.387 32.9014 33.7241 33.0853 33.7241 33.5846C33.7241 33.8974 33.518 34.1848 33.1975 34.3187C32.8808 34.451 31.9132 34.4437 31.6488 34.307C31.2657 34.1089 31.2306 33.6866 31.5735 33.3986C31.7177 33.2774 31.7381 33.2277 31.671 33.1606C31.5556 33.0452 31.5642 32.7517 31.6881 32.5748C31.7801 32.4435 31.7751 32.4019 31.6371 32.1499C31.4925 31.8859 31.4897 31.8542 31.5869 31.5732C31.7274 31.1665 32.1494 30.938 32.6552 30.9946C32.8448 31.0159 33.163 31.0336 33.3621 31.0339ZM39.5314 31.0372C39.9975 31.1667 40.069 31.3412 40.069 32.3494C40.069 33.1715 40.0784 33.2351 40.2069 33.2759C40.402 33.3378 40.3823 33.5619 40.1772 33.6133C39.976 33.6639 39.6664 33.5578 39.6137 33.4203C39.5823 33.3386 39.5325 33.3467 39.329 33.4668C39.0556 33.6281 38.5357 33.6563 38.2872 33.5233C38.1053 33.426 37.931 33.1024 37.931 32.8621C37.931 32.3463 38.4023 32.0407 39.1357 32.0808L39.5515 32.1034L39.5397 31.8411C39.5332 31.6968 39.4907 31.5339 39.4452 31.479C39.3343 31.3454 38.6906 31.3464 38.5132 31.4806C38.4396 31.5363 38.323 31.5828 38.2543 31.584C38.1543 31.5858 38.1335 31.5411 38.1508 31.3621C38.1703 31.16 38.203 31.13 38.4828 31.0572C38.8795 30.9541 39.2095 30.9479 39.5314 31.0372ZM27.6017 32.1552C27.6204 33.2583 27.6231 33.2762 27.7759 33.2979C27.8756 33.3121 27.931 33.3675 27.931 33.4531C27.931 33.5741 27.878 33.5862 27.3448 33.5862C26.8309 33.5862 26.7586 33.5712 26.7586 33.4646C26.7586 33.3978 26.8284 33.3124 26.9138 33.275C27.061 33.2104 27.0699 33.1633 27.0884 32.3546C27.1086 31.4653 27.0687 31.3103 26.8192 31.3103C26.7357 31.3103 26.6897 31.2614 26.6897 31.1724C26.6897 31.0487 26.7357 31.0345 27.1362 31.0345H27.5828L27.6017 32.1552ZM41.4483 32.0552C41.4483 32.7571 41.4741 33.1017 41.531 33.1586C41.6493 33.2769 42.0236 33.2608 42.308 33.1252L42.5517 33.009V32.1597V31.3103H42.3793C42.2529 31.3103 42.2069 31.2736 42.2069 31.1724C42.2069 31.0487 42.2529 31.0345 42.6534 31.0345H43.1L43.119 32.1552C43.1377 33.2583 43.1403 33.2762 43.2931 33.2979C43.3928 33.3121 43.4483 33.3675 43.4483 33.4531C43.4483 33.5698 43.3974 33.5862 43.0358 33.5862C42.6538 33.5862 42.6201 33.5735 42.5802 33.4146L42.5372 33.2428L42.363 33.3798C41.9475 33.7066 41.2859 33.7177 41.0374 33.4019C40.9115 33.2419 40.8966 33.1248 40.8966 32.3023V31.3819L40.7241 31.3387C40.6163 31.3116 40.5517 31.2466 40.5517 31.165C40.5517 31.0503 40.6063 31.0345 41 31.0345H41.4483V32.0552ZM51.931 31.2069C51.931 31.3017 51.9434 31.3793 51.9585 31.3793C51.9736 31.3793 52.121 31.3021 52.2861 31.2077C52.5081 31.0808 52.6881 31.0359 52.9777 31.0353C53.3191 31.0346 53.3876 31.0578 53.5122 31.2162C53.6408 31.3796 53.6552 31.4915 53.6552 32.3261C53.6552 33.1963 53.6638 33.2566 53.7931 33.2903C53.8832 33.3139 53.931 33.3844 53.931 33.4936C53.931 33.6586 53.9237 33.6605 53.3621 33.6407C52.8316 33.6221 52.7916 33.6102 52.771 33.4655C52.7531 33.3392 52.7819 33.3103 52.9262 33.3103H53.1034V32.4884C53.1034 32.0363 53.0846 31.6174 53.0616 31.5574C53.0046 31.4088 52.4926 31.413 52.1748 31.5645L51.931 31.6807V32.4955V33.3103H52.1428C52.3228 33.3103 52.3511 33.3335 52.3324 33.4655C52.3115 33.6126 52.2795 33.6207 51.7241 33.6207C51.1749 33.6207 51.1366 33.6112 51.1166 33.4708C51.1006 33.3589 51.1355 33.3153 51.2546 33.2984C51.4119 33.2761 51.4138 33.265 51.4138 32.3448C51.4138 31.4318 51.4108 31.4134 51.2586 31.3917C51.1463 31.3758 51.1034 31.3234 51.1034 31.2021C51.1034 31.0432 51.125 31.0345 51.5172 31.0345C51.9126 31.0345 51.931 31.0421 51.931 31.2069ZM55.0616 31.1436C55.0846 31.2036 55.1034 31.7157 55.1034 32.2815C55.1034 33.2643 55.1096 33.3103 55.2414 33.3103C55.3431 33.3103 55.3793 33.3563 55.3793 33.4855C55.3793 33.6606 55.379 33.6608 54.8103 33.6407C54.2861 33.6223 54.2397 33.6089 54.2201 33.4708C54.2041 33.3589 54.239 33.3153 54.358 33.2984C54.5154 33.2761 54.5172 33.265 54.5172 32.3448C54.5172 31.4318 54.5142 31.4134 54.3621 31.3917C54.2497 31.3758 54.2069 31.3234 54.2069 31.2021C54.2069 31.0435 54.2289 31.0345 54.6133 31.0345C54.9203 31.0345 55.03 31.0612 55.0616 31.1436ZM56.5862 31.2069C56.5862 31.3043 56.5332 31.351 56.4059 31.3657L56.2256 31.3867L56.486 32.0899C56.6292 32.4767 56.7743 32.866 56.8083 32.9552C56.8621 33.0961 56.9079 33.019 57.1592 32.3631C57.4874 31.5071 57.507 31.3793 57.3103 31.3793C57.2092 31.3793 57.1724 31.3333 57.1724 31.2069C57.1724 31.0383 57.1839 31.0345 57.6897 31.0345C58.181 31.0345 58.2069 31.0423 58.2069 31.1906C58.2069 31.2819 58.1465 31.3748 58.0612 31.4147C57.9578 31.463 57.791 31.7924 57.4854 32.5517C57.0734 33.5752 57.0463 33.6216 56.8492 33.6414C56.7361 33.6529 56.6119 33.6219 56.5734 33.5725C56.5349 33.5231 56.3206 33.0201 56.0971 32.4547C55.8206 31.7552 55.652 31.4165 55.5695 31.395C55.4959 31.3757 55.4483 31.2976 55.4483 31.1961C55.4483 31.031 55.4556 31.0292 56.0172 31.049C56.5336 31.0671 56.5862 31.0817 56.5862 31.2069ZM60.273 31.2731C60.4947 31.4855 60.6197 31.8153 60.6203 32.1897L60.6207 32.4138H59.6842H58.7477L58.7944 32.6379C58.8602 32.9536 59.011 33.1667 59.2277 33.2505C59.4721 33.3449 59.9734 33.2868 60.1289 33.1461C60.3244 32.9692 60.5517 33.0009 60.5517 33.2051C60.5517 33.4403 60.2208 33.5994 59.6557 33.6361C59.2842 33.6602 59.1535 33.6377 58.8971 33.505C58.0149 33.0488 57.9772 31.7636 58.8292 31.1854C59.0376 31.044 59.134 31.0259 59.5657 31.047C60.0038 31.0685 60.0872 31.0951 60.273 31.2731ZM61.8497 31.2615L61.8718 31.454L62.1107 31.2443C62.2786 31.0968 62.4207 31.0345 62.5886 31.0345C62.8058 31.0345 62.8276 31.0525 62.8276 31.2325C62.8276 31.4168 62.8048 31.4335 62.4975 31.4743C61.8977 31.5539 61.8621 31.6126 61.8621 32.5212V33.3103H62.0738C62.2539 33.3103 62.2821 33.3335 62.2634 33.4655C62.2428 33.6111 62.2042 33.6219 61.6379 33.6406L61.0345 33.6606V33.4854C61.0345 33.3596 61.0712 33.3103 61.165 33.3103C61.3514 33.3103 61.3793 33.1848 61.3793 32.3448C61.3793 31.5048 61.3514 31.3793 61.165 31.3793C61.0711 31.3793 61.0345 31.33 61.0345 31.2034C61.0345 31.033 61.0466 31.0282 61.431 31.0483C61.808 31.0679 61.8287 31.0785 61.8497 31.2615ZM64.7414 31.0779C64.8686 31.112 64.8966 31.1679 64.8966 31.3874C64.8966 31.6017 64.8712 31.6552 64.7693 31.6552C64.6993 31.6552 64.5859 31.5931 64.5172 31.5172C64.4283 31.419 64.3048 31.3793 64.0882 31.3793C63.7026 31.3793 63.5172 31.4781 63.5172 31.6837C63.5172 31.9117 63.646 31.9931 64.1457 32.0812C64.8546 32.206 65.1418 32.6411 64.8859 33.2026C64.7164 33.5748 63.9357 33.761 63.2931 33.5826C63.05 33.515 63.0345 33.4944 63.0345 33.2381C63.0345 33.0174 63.0591 32.9655 63.164 32.9655C63.2352 32.9655 63.3368 33.0306 63.3895 33.1101C63.5226 33.3105 64.0678 33.3721 64.309 33.2141C64.4989 33.0897 64.5417 32.8244 64.3919 32.7001C64.3419 32.6586 64.1323 32.5889 63.9263 32.5453C63.3598 32.4254 63.1894 32.3141 63.0963 32.0032C62.9922 31.656 63.1067 31.3485 63.4083 31.1645C63.6237 31.0332 64.3888 30.9834 64.7414 31.0779ZM66.1379 32.1724C66.1719 33.261 66.1746 33.2761 66.3317 33.2984C66.4507 33.3153 66.4856 33.3589 66.4696 33.4708C66.4497 33.6111 66.4111 33.6207 65.8686 33.6207C65.3625 33.6207 65.2867 33.6049 65.2708 33.4962C65.2592 33.418 65.3146 33.3481 65.4193 33.3082C65.5845 33.2454 65.5862 33.2352 65.5862 32.3121V31.3793H65.4138C65.275 31.3793 65.2414 31.345 65.2414 31.2036C65.2414 31.0319 65.2511 31.0283 65.6724 31.0484L66.1034 31.069L66.1379 32.1724ZM69.3793 31.2069C69.3793 31.3467 69.3453 31.3793 69.1995 31.3793C69.057 31.3793 69.0291 31.4043 69.0651 31.5C69.3021 32.13 69.6285 32.8948 69.6607 32.8955C69.7218 32.8971 70.2697 31.4941 70.2319 31.4329C70.2137 31.4034 70.1386 31.3793 70.0649 31.3793C69.9681 31.3793 69.931 31.3316 69.931 31.2069C69.931 31.0374 69.9402 31.0345 70.4828 31.0345C70.9914 31.0345 71.0345 31.0454 71.0345 31.1746C71.0345 31.2534 70.9719 31.3379 70.8914 31.3677C70.7897 31.4053 70.6139 31.7281 70.2823 32.4861C69.6938 33.8311 69.6369 33.9387 69.376 34.1996C69.1144 34.4612 68.6897 34.5095 68.6897 34.2777C68.6897 34.199 68.7698 34.0998 68.8793 34.0428C68.9837 33.9885 69.1439 33.864 69.2354 33.7661L69.4017 33.5879L68.9718 32.5699C68.7354 32.0099 68.4821 31.5002 68.4089 31.4372C68.3357 31.3743 68.2759 31.2579 68.2759 31.1786C68.2759 31.0444 68.3139 31.0345 68.8276 31.0345C69.3701 31.0345 69.3793 31.0374 69.3793 31.2069ZM32.1912 31.431C32.0283 31.6166 31.9839 31.8407 32.0754 32.0146C32.1894 32.231 32.2695 32.2736 32.565 32.2748C32.9959 32.2766 33.1949 31.7844 32.8939 31.4613C32.7203 31.275 32.3426 31.2588 32.1912 31.431ZM59.2045 31.376C59.0172 31.4519 58.9036 31.5972 58.8295 31.8554L58.7683 32.069H59.4186C60.0178 32.069 60.069 32.0583 60.069 31.9343C60.069 31.4793 59.6373 31.2006 59.2045 31.376ZM44.5299 31.5578C44.2247 31.8631 44.1928 32.6594 44.4708 33.0329C44.7165 33.363 45.1041 33.389 45.4716 33.0999C45.6491 32.9603 45.6552 32.9321 45.6552 32.2474C45.6552 31.5556 45.6512 31.5375 45.4795 31.4594C45.1603 31.3139 44.7292 31.3586 44.5299 31.5578ZM38.5996 32.537C38.2879 32.8813 38.5866 33.3734 39.0514 33.2814C39.4148 33.2096 39.5336 33.0787 39.5388 32.7448L39.5433 32.4483L39.1299 32.4281C38.7966 32.4118 38.6937 32.433 38.5996 32.537ZM31.8586 33.5237C31.7246 33.7743 31.8321 33.9866 32.1343 34.068C32.8057 34.2488 33.4941 33.8488 33.133 33.4877C33.0528 33.4074 32.8832 33.3793 32.4803 33.3793C31.9984 33.3793 31.927 33.3959 31.8586 33.5237Z" fill="#008EC5"/>
</svg>
