<svg width="164" height="56" viewBox="0 0 164 56" fill="none" xmlns="http://www.w3.org/2000/svg">
<rect width="164" height="56" rx="6.58824" stroke="#EAECF0"/>
<rect x="0.5" y="0.5" width="163" height="55" rx="6.08824" fill="white" stroke="#EAECF0"/>
<g clip-path="url(#clip0_53672_556335)">
<g clip-path="url(#clip1_53672_556335)">
<path fill-rule="evenodd" clip-rule="evenodd" d="M57.4268 22.2812V40.7183H69.7088L57.4268 22.2812Z" fill="#386BFC"/>
<path fill-rule="evenodd" clip-rule="evenodd" d="M54.4835 13.6914C44.3759 16.0088 36.8389 24.9821 36.8389 35.7064C36.8389 37.429 37.0401 39.1045 37.4084 40.7171H54.4835V13.6914Z" fill="#386BFC"/>
<path fill-rule="evenodd" clip-rule="evenodd" d="M94.4401 25.7606C94.2641 24.5733 93.8543 23.4596 93.2757 22.5547H91.7744C92.4955 23.323 93.0409 24.4978 93.2633 25.7606H94.4401Z" fill="#386BFC"/>
<path fill-rule="evenodd" clip-rule="evenodd" d="M110.437 23.9794C110.261 22.7921 109.851 21.6783 109.273 20.7734H107.771C108.493 21.5417 109.038 22.7166 109.26 23.9794H110.437Z" fill="#386BFC"/>
<path fill-rule="evenodd" clip-rule="evenodd" d="M110.283 28.2411C110.107 27.0538 109.697 25.9401 109.118 25.0352H107.617C108.338 25.8035 108.884 26.9783 109.106 28.2411H110.283Z" fill="#386BFC"/>
<path fill-rule="evenodd" clip-rule="evenodd" d="M91.9961 28.0742C92.7171 28.8426 93.2626 30.0174 93.485 31.2801H94.6618C94.4858 30.0929 94.076 28.9791 93.4974 28.0742H91.9961Z" fill="#386BFC"/>
<path fill-rule="evenodd" clip-rule="evenodd" d="M77.9007 27.486C77.8915 27.484 77.8553 27.4543 77.8553 27.3929V25.6548L77.9258 25.7204C78.3055 26.0734 78.5146 26.5428 78.5146 27.0422H79.2152C79.2152 26.4468 78.9944 25.8832 78.5893 25.4315H77.8553V24.9877H79.3505V27.486H77.9007ZM81.3009 28.4165V27.486H80.1512V24.9877H81.6436V25.4315H80.9155C80.5105 25.8832 80.2896 26.4468 80.2896 27.0422H80.9902C80.9902 26.5428 81.1993 26.0734 81.5791 25.7204L81.6436 25.6604V27.0422V27.486V28.4165H82.6444V24.0572H80.1512V23.3783H82.6481V22.4478H80.1512V21.8125H79.3505V22.4478H76.8567V23.3783H79.3505V24.0572H76.8545V27.3929C76.8545 27.9573 77.3239 28.4165 77.9009 28.4165H79.3505V32.7288H80.1512V28.4165H81.3009Z" fill="#386BFC"/>
<path fill-rule="evenodd" clip-rule="evenodd" d="M120.586 26.8597L119.334 27.3121V24.5748V23.7758H120.638V22.6164H119.334V20.5625H118.99H118.22H117.875V22.6164H116.455V23.7758H117.875V24.5748V27.8395L116.406 28.3704L116.806 29.4598L117.875 29.0732V29.6664V30.1006C117.875 31.1643 117.52 32.2023 116.849 33.106H117.194H118.126H118.471C119.037 32.177 119.334 31.1496 119.334 30.1006V29.0262V28.5458L120.986 27.9491L120.586 26.8597Z" fill="#386BFC"/>
<path fill-rule="evenodd" clip-rule="evenodd" d="M113.975 28.756L112.691 28.9809V20.0664H111.253V29.2326L106.884 29.9976L107.087 31.1394L111.253 30.4099V33.1072H112.691V30.1581L114.178 29.8977L113.975 28.756Z" fill="#386BFC"/>
<path fill-rule="evenodd" clip-rule="evenodd" d="M72.7363 20.1055C73.0643 20.6007 73.2283 21.1546 73.2283 21.7671V23.5923H74.6789V21.7671C74.6789 21.1462 74.5231 20.5923 74.2121 20.1055H72.7363Z" fill="#386BFC"/>
<path fill-rule="evenodd" clip-rule="evenodd" d="M72.7363 24.3242C73.0643 24.8195 73.2283 25.3734 73.2283 25.9858V27.8111H74.6789V25.9858C74.6789 25.3649 74.5231 24.811 74.2121 24.3242H72.7363Z" fill="#386BFC"/>
<path fill-rule="evenodd" clip-rule="evenodd" d="M73.2283 31.473C73.2283 32.0857 73.0643 32.6395 72.7363 33.1346H74.2122C74.5232 32.648 74.6788 32.0941 74.6788 31.473V28.5273H73.2283V31.473Z" fill="#386BFC"/>
<path fill-rule="evenodd" clip-rule="evenodd" d="M128.302 31.6913H127.038L125.642 30.086L128.291 27.0529V26.0884V25.9746V24.9257H125.517L125.465 22.682H128.291V21.5193H125.465L125.459 20.0977H124.008L124.015 21.5193H121.177V22.682H124.015L124.067 24.9257H121.177V26.0884H126.84V26.7496L124.772 29.0876L122.917 26.9644H121.177L123.876 30.086L121.177 33.1317H122.968L124.746 31.097L126.512 33.1317H128.291L128.291 33.1317H128.302V31.6913Z" fill="#386BFC"/>
<path fill-rule="evenodd" clip-rule="evenodd" d="M75.0947 33.1323H76.5453V21.2617H75.0947V33.1323Z" fill="#386BFC"/>
<path fill-rule="evenodd" clip-rule="evenodd" d="M77.4812 31.0705C77.4812 31.6832 77.3172 32.2371 76.9893 32.7321H78.1749C78.4859 32.2455 78.6416 31.6916 78.6416 31.0705V29.0312H77.4812V31.0705Z" fill="#386BFC"/>
<path fill-rule="evenodd" clip-rule="evenodd" d="M82.1097 31.0705V29.0312H80.9492V31.0705C80.9492 31.6916 81.1049 32.2455 81.4159 32.7321H82.6016C82.2737 32.2371 82.1097 31.6832 82.1097 31.0705Z" fill="#386BFC"/>
<path fill-rule="evenodd" clip-rule="evenodd" d="M79.5205 21.2636H83.0186V31.4725C83.0186 32.0767 82.8599 32.618 82.5428 33.0963L82.5171 33.1341H82.5685H84.0217C84.1845 32.8741 84.3047 32.595 84.3819 32.297C84.459 31.9992 84.4976 31.7243 84.4976 31.4725V21.2636V20.1055H79.5205V21.2636Z" fill="#386BFC"/>
<path fill-rule="evenodd" clip-rule="evenodd" d="M96.9441 26.0833H95.0705H93.62H89.6525V21.8004H96.9441V26.0833ZM98.3947 20.5753H96.9441H91.9494C92.1097 20.1812 92.243 19.7658 92.3454 19.3359H91.1405C91.0151 19.774 90.8512 20.1919 90.6564 20.5753H88.2019V26.0833H87.4277V27.3085H88.2019V31.3753C88.2019 32.0235 88.0379 32.6094 87.71 33.1331H89.1858C89.3454 32.8668 89.4633 32.5761 89.539 32.2609C89.6146 31.9459 89.6525 31.6506 89.6525 31.3753V27.3085H91.7658H93.2163H96.9441V31.3753C96.9441 32.0235 96.7801 32.6094 96.4522 33.1331H97.9406C98.1003 32.8668 98.216 32.5761 98.2875 32.2609C98.3588 31.9459 98.3947 31.6506 98.3947 31.3753V27.3085H99.1576V26.0833H98.3947V20.5753Z" fill="#386BFC"/>
<path fill-rule="evenodd" clip-rule="evenodd" d="M107.44 22.6415H105.333V21.7192C105.693 21.6354 106.039 21.5371 106.373 21.4248L107.007 21.2123V20.9823V20.269V20.0391L105.974 20.3854C104.891 20.7486 103.63 20.9569 102.078 20.9569V21.1869V21.8307V22.0607C102.726 22.0607 103.323 22.0282 103.883 21.9657V22.6541H102.059V23.8031H103.883V33.1209H105.333V23.8031H107.44V22.6415Z" fill="#386BFC"/>
<path fill-rule="evenodd" clip-rule="evenodd" d="M106.97 27.7785V24.5703H105.52V27.7785C105.52 28.4015 105.675 28.957 105.986 29.4451H107.462C107.134 28.9485 106.97 28.393 106.97 27.7785Z" fill="#386BFC"/>
<path fill-rule="evenodd" clip-rule="evenodd" d="M102.27 30.7344C102.27 31.3489 102.106 31.9044 101.778 32.401H103.254C103.565 31.9129 103.721 31.3574 103.721 30.7344V24.5352H102.27V30.7344Z" fill="#386BFC"/>
<path fill-rule="evenodd" clip-rule="evenodd" d="M78.6735 21.2516C78.4208 20.8047 78.2118 20.3019 78.0594 19.7695H76.8545C76.9782 20.2887 77.1466 20.7867 77.3538 21.2516H78.6735Z" fill="#386BFC"/>
<path fill-rule="evenodd" clip-rule="evenodd" d="M73.4277 39.7331V35.1562H74.2143V39.7742C74.2143 39.9867 74.3109 40.062 74.4075 40.062C74.4421 40.062 74.4697 40.062 74.5387 40.0483L74.6422 40.6444C74.5456 40.6787 74.4075 40.706 74.2143 40.706C73.6416 40.706 73.4277 40.3429 73.4277 39.7331Z" fill="#386BFC"/>
<path fill-rule="evenodd" clip-rule="evenodd" d="M81.2955 39.6414V38.7164C80.1708 38.8535 79.7913 39.1344 79.7913 39.5592C79.7913 39.9292 80.0466 40.0799 80.3847 40.0799C80.7159 40.0799 80.985 39.9223 81.2955 39.6414ZM79.0254 39.614C79.0254 38.8055 79.7154 38.3876 81.2955 38.2163C81.2886 37.7778 81.1299 37.3941 80.571 37.3941C80.1708 37.3941 79.7982 37.5722 79.4739 37.7778L79.1772 37.2434C79.5705 36.9967 80.1018 36.75 80.709 36.75C81.6543 36.75 82.089 37.3461 82.089 38.3465V40.6143H81.4404L81.3714 40.1827H81.3507C81.0057 40.4773 80.5986 40.7034 80.1432 40.7034C79.4877 40.7034 79.0254 40.2786 79.0254 39.614Z" fill="#386BFC"/>
<path fill-rule="evenodd" clip-rule="evenodd" d="M86.9746 36.8459H87.6232L87.6853 37.3667H87.706C88.0579 37.0309 88.4443 36.75 88.9618 36.75C89.7691 36.75 90.1279 37.2844 90.1279 38.2437V40.6143H89.3344V38.3396C89.3344 37.6887 89.1412 37.4283 88.6927 37.4283C88.3408 37.4283 88.0993 37.6065 87.7612 37.9422V40.6143H86.9746V36.8459Z" fill="#386BFC"/>
<path fill-rule="evenodd" clip-rule="evenodd" d="M97.084 38.1066C97.084 37.5997 96.7666 37.305 96.3664 37.305C95.9662 37.305 95.6488 37.5928 95.6488 38.1066C95.6488 38.6068 95.9731 38.9151 96.3664 38.9151C96.7597 38.9151 97.084 38.6068 97.084 38.1066ZM97.5601 41.1145C97.5601 40.7993 97.3117 40.7034 96.8494 40.7034H96.2767C96.0973 40.7034 95.9248 40.6828 95.7661 40.6486C95.5384 40.813 95.4418 41.0049 95.4418 41.1967C95.4418 41.5667 95.8282 41.7859 96.4561 41.7859C97.1185 41.7859 97.5601 41.4639 97.5601 41.1145ZM94.7656 41.3132C94.7656 40.998 94.9658 40.7034 95.3176 40.491V40.4567C95.1245 40.3403 94.9726 40.1416 94.9726 39.8333C94.9726 39.5386 95.1865 39.2851 95.3935 39.1344V39.107C95.1383 38.9083 94.8967 38.552 94.8967 38.1066C94.8967 37.2502 95.5798 36.75 96.3664 36.75C96.5803 36.75 96.7735 36.7911 96.9184 36.846H98.2639V37.4352H97.5394C97.6843 37.586 97.7878 37.8394 97.7878 38.1272C97.7878 38.9494 97.1599 39.4221 96.3664 39.4221C96.1939 39.4221 96.0007 39.381 95.8351 39.3057C95.7109 39.4153 95.6281 39.5249 95.6281 39.7031C95.6281 39.9292 95.7799 40.0731 96.2629 40.0731H96.9598C97.8568 40.0731 98.3261 40.3471 98.3261 40.9912C98.3261 41.7174 97.5532 42.3067 96.3388 42.3067C95.428 42.3067 94.7656 41.971 94.7656 41.3132Z" fill="#386BFC"/>
<path fill-rule="evenodd" clip-rule="evenodd" d="M105.37 38.6848C105.37 37.8969 105.114 37.4104 104.48 37.4104C104.183 37.4104 103.893 37.5612 103.576 37.8695V39.7126C103.865 39.9661 104.169 40.0551 104.404 40.0551C104.956 40.0551 105.37 39.5687 105.37 38.6848ZM103.507 40.2264H103.486L103.41 40.617H102.789V35.1562H103.576V36.6019L103.555 37.246C103.879 36.9651 104.286 36.7527 104.687 36.7527C105.646 36.7527 106.191 37.5132 106.191 38.6712C106.191 39.9661 105.411 40.706 104.555 40.706C104.21 40.706 103.831 40.5347 103.507 40.2264Z" fill="#386BFC"/>
<path fill-rule="evenodd" clip-rule="evenodd" d="M113.382 38.737C113.382 37.9353 113.009 37.4009 112.409 37.4009C111.816 37.4009 111.443 37.9353 111.443 38.737C111.443 39.5318 111.816 40.0594 112.409 40.0594C113.009 40.0594 113.382 39.5318 113.382 38.737ZM110.622 38.737C110.622 37.4763 111.471 36.75 112.409 36.75C113.348 36.75 114.196 37.4763 114.196 38.737C114.196 39.984 113.348 40.7034 112.409 40.7034C111.471 40.7034 110.622 39.984 110.622 38.737Z" fill="#386BFC"/>
<path fill-rule="evenodd" clip-rule="evenodd" d="M120.835 39.6414V38.7164C119.71 38.8535 119.33 39.1344 119.33 39.5592C119.33 39.9292 119.586 40.0799 119.924 40.0799C120.255 40.0799 120.524 39.9223 120.835 39.6414ZM118.564 39.614C118.564 38.8055 119.254 38.3876 120.835 38.2163C120.828 37.7778 120.669 37.3941 120.11 37.3941C119.71 37.3941 119.337 37.5722 119.013 37.7778L118.716 37.2434C119.11 36.9967 119.641 36.75 120.248 36.75C121.193 36.75 121.628 37.3461 121.628 38.3465V40.6143H120.979L120.91 40.1827H120.89C120.545 40.4773 120.138 40.7034 119.682 40.7034C119.027 40.7034 118.564 40.2786 118.564 39.614Z" fill="#386BFC"/>
<path fill-rule="evenodd" clip-rule="evenodd" d="M126.519 39.3812V37.4765H125.967V36.8872L126.553 36.8461L126.643 35.8047H127.312V36.8461H128.299V37.4765H127.312V39.3881C127.312 39.8402 127.471 40.0732 127.864 40.0732C127.995 40.0732 128.161 40.0321 128.271 39.9842L128.416 40.5665C128.202 40.6351 127.947 40.7036 127.671 40.7036C126.816 40.7036 126.519 40.176 126.519 39.3812Z" fill="#386BFC"/>
</g>
</g>
<defs>
<clipPath id="clip0_53672_556335">
<rect width="91.5765" height="28.6176" fill="white" transform="translate(36.8398 13.6914)"/>
</clipPath>
<clipPath id="clip1_53672_556335">
<rect width="91.5765" height="28.6176" fill="white" transform="translate(36.8398 13.6914)"/>
</clipPath>
</defs>
</svg>
