<svg width="164" height="56" viewBox="0 0 164 56" fill="none" xmlns="http://www.w3.org/2000/svg">
<rect width="164" height="56" rx="6.58824" stroke="#EAECF0"/>
<rect x="0.5" y="0.5" width="163" height="55" rx="6.08824" fill="white" stroke="#EAECF0"/>
<g clip-path="url(#clip0_53672_555998)">
<path d="M37.0645 13.0137H126.982V42.9863H37.0645V13.0137Z" fill="#E22319"/>
<path d="M76.2064 23.117C74.8478 23.117 73.4044 23.7114 72.4704 24.985V23.3719H69.3289V34.9193H72.4704V28.2965C72.4704 27.1078 73.4044 25.8342 75.1027 25.8342C76.3763 25.8342 77.7349 26.7682 77.7349 28.2965V34.8344H80.8765V27.7021C80.9613 25.0699 79.0083 23.117 76.2064 23.117ZM103.462 23.2869L100.575 31.1832L97.688 23.2869H94.122L98.8768 34.8344H102.358L107.028 23.2869H103.462ZM65.9326 31.2682C64.574 32.2871 63.8097 32.457 62.6211 32.457C61.5173 32.457 60.6682 32.1174 60.0738 31.523L68.14 28.1267C67.9703 26.8531 67.4607 25.7492 66.7816 24.9002C65.6777 23.6266 64.1494 23.0322 62.1966 23.0322C58.7154 23.0322 56.0832 25.5795 56.0832 28.9758C56.0832 32.457 58.7154 34.9195 62.5361 34.9195C64.6588 34.9195 66.8664 33.9005 67.8853 32.7117L65.9326 31.2682ZM59.8191 26.7682C60.3287 26.0039 61.1775 25.5795 62.2814 25.5795C63.3852 25.5795 64.3191 26.2588 64.7437 27.1927L59.2248 29.4853C59.055 28.3814 59.3947 27.4474 59.8191 26.7682ZM55.8285 31.9475H48.6113V19.8906H45.3848V34.8344H55.8285V31.9475ZM112.717 35.0041C109.236 35.0041 106.519 32.457 106.519 29.0606C106.519 25.7491 109.236 23.117 112.717 23.117C116.198 23.117 118.915 25.6643 118.915 29.0606C119 32.457 116.283 35.0041 112.717 35.0041ZM112.717 25.8342C110.934 25.8342 109.66 27.1928 109.66 29.0607C109.66 30.8437 111.019 32.2873 112.717 32.2873C114.5 32.2873 115.774 30.9287 115.774 29.0607C115.858 27.2776 114.5 25.8342 112.717 25.8342ZM88.3482 35.0041C84.8671 35.0041 82.1499 32.457 82.1499 29.0606C82.1499 25.7491 84.8671 23.117 88.3482 23.117C91.8294 23.117 94.5464 25.6643 94.5464 29.0606C94.5464 32.4569 91.8296 35.0041 88.3482 35.0041ZM88.3482 25.8342C86.5652 25.8342 85.2914 27.1928 85.2914 29.0607C85.2914 30.8437 86.65 32.2873 88.3482 32.2873C90.1313 32.2873 91.405 30.9287 91.405 29.0607C91.4898 27.2776 90.1313 25.8342 88.3482 25.8342Z" fill="white"/>
</g>
<defs>
<clipPath id="clip0_53672_555998">
<rect width="89.9537" height="29.9726" fill="white" transform="translate(37.0459 13.0137)"/>
</clipPath>
</defs>
</svg>
