<svg width="164" height="56" viewBox="0 0 164 56" fill="none" xmlns="http://www.w3.org/2000/svg">
<rect width="164" height="56" rx="6.58824" stroke="#EAECF0"/>
<rect x="0.5" y="0.5" width="163" height="55" rx="6.08824" fill="white" stroke="#EAECF0"/>
<g clip-path="url(#clip0_53672_555960)">
<path d="M121.732 42.5506L114.23 35.0756L117.308 31.998L127.887 42.5506H121.732Z" fill="#040000"/>
<path d="M87.5623 26.6727L89.0049 22.1758H70.4932V26.6727H76.698V42.5513H81.3575V26.6727H87.5623Z" fill="#040000"/>
<path d="M101.22 22.0352L109.447 30.2895L97.1836 42.55H103.339L115.603 30.2895L107.371 22.0352H101.22Z" fill="#4AB134"/>
<path d="M126.289 13.4531L114.23 25.5113L117.308 28.5889L132.444 13.4531H126.289Z" fill="#5C246A"/>
<path d="M134.371 26.9115C133.773 26.4781 133.127 26.1164 132.444 25.8337L133.088 24.9151C133.775 25.18 134.434 25.5133 135.054 25.91L134.371 26.9115ZM135.32 28.2679C134.799 29.359 134.199 30.5296 133.595 31.5278L132.547 30.7452C133.238 29.7066 133.854 28.6206 134.391 27.4952L135.32 28.2679ZM134.942 24.2021C134.351 23.7651 133.719 23.3864 133.055 23.0712L133.718 22.1758C134.392 22.4586 135.037 22.8062 135.645 23.2138L134.942 24.2021ZM139.608 25.5286C140.148 27.0342 141.097 28.563 142.125 29.4286C141.782 29.7174 141.481 30.0522 141.229 30.4235C140.342 29.4757 139.64 28.37 139.16 27.1635V31.6306H137.926V27.2498C137.424 28.4807 136.663 29.5891 135.694 30.4998C135.438 30.1464 135.145 29.8217 134.819 29.5314C135.96 28.6857 136.938 27.1072 137.472 25.5186H135.343V24.3248H137.91V22.1957H139.143V24.3248H141.813V25.5186L139.608 25.5286Z" fill="#040000"/>
<path d="M141.755 38.9348C141.431 39.6338 140.998 40.2765 140.471 40.8384C140.634 41.1966 140.803 41.3988 140.969 41.3988C141.135 41.3988 141.184 41.0672 141.214 40.4039C141.414 40.6042 141.658 40.7542 141.927 40.8417C141.794 41.9925 141.499 42.2876 140.889 42.2876C140.471 42.2876 140.113 41.9925 139.808 41.4851C139.526 41.7324 139.223 41.9543 138.903 42.1483C138.738 41.9346 138.554 41.737 138.352 41.558C138.317 41.7452 138.236 41.9208 138.117 42.0687C137.979 42.2006 137.797 42.2763 137.606 42.281C137.342 42.2962 137.077 42.2962 136.813 42.281C136.798 42.0481 136.732 41.8215 136.618 41.6177C136.822 41.6379 137.026 41.6457 137.231 41.6409C137.271 41.6466 137.312 41.6429 137.351 41.6303C137.389 41.6176 137.424 41.5963 137.453 41.568C137.54 41.4446 137.593 41.3004 137.606 41.1501H135.682C135.801 40.8328 135.903 40.5096 135.988 40.1818H135.467V39.5185H135.639C135.511 39.355 135.372 39.2009 135.221 39.0575V40.4238H133.583V41.2496H132.635V33.5325H135.212V38.9879C135.602 38.8374 135.971 38.6391 136.313 38.3976H135.407V37.7011H136.76V37.4458C136.386 37.4657 136.027 37.4756 135.682 37.4756C135.642 37.2857 135.579 37.101 135.497 36.9251C136.426 36.8954 137.353 36.8001 138.269 36.6399L138.737 37.2004C138.405 37.2733 138.004 37.333 137.576 37.3828V37.7144H138.903C138.883 37.4093 138.863 37.081 138.853 36.756H139.801C139.801 37.0876 139.821 37.4193 139.841 37.7144H140.81C140.536 37.4852 140.243 37.28 139.934 37.1009L140.431 36.6233H135.417V35.8971H138.004V35.5488H135.905V34.8856H138.004V34.5539H135.659V33.8177H136.75C136.636 33.5769 136.502 33.3452 136.352 33.1246L137.241 32.793C137.467 33.0484 137.653 33.337 137.792 33.6486L137.331 33.831H139.145C139.345 33.5156 139.516 33.1826 139.655 32.8361L140.766 33.1113C140.614 33.3567 140.435 33.6088 140.276 33.8442H141.509V34.5573H139.095V34.8889H141.327V35.5522H139.095V35.9004H141.814V36.6134H140.594C140.949 36.8045 141.283 37.0336 141.589 37.2965L141.211 37.7011H141.761V38.4042H139.907C139.958 38.8913 140.043 39.3744 140.16 39.8501C140.498 39.4324 140.782 38.9733 141.005 38.4838L141.755 38.9348ZM133.583 36.4476H134.246V34.5937H133.583V36.4476ZM134.246 37.4955H133.583V39.3726H134.246V37.4955ZM138.495 40.5034C138.495 40.5034 138.495 40.7057 138.465 40.8351C138.442 41.0274 138.412 41.1999 138.382 41.3557C138.75 41.1477 139.095 40.9009 139.41 40.6195C139.189 39.9024 139.036 39.1663 138.952 38.4208H137.861C138.193 38.5833 138.647 38.8055 138.8 38.8983L138.362 39.4687C138.107 39.2584 137.84 39.0624 137.563 38.8818V39.4422H136.747V38.9017C136.471 39.1358 136.175 39.3445 135.862 39.5251H138.816V40.1884H136.79L136.707 40.52L138.495 40.5034Z" fill="#040000"/>
<path d="M26.5338 42.5513H21.8213L30.5499 22.1758H37.4047V36.9235L41.2683 22.1758H48.8958V42.5513H44.1634L44.6177 26.8286L40.6978 42.5513H32.9509V26.8286L26.5338 42.5513Z" fill="#040000"/>
<path d="M68.0886 38.0527H51.3047V42.5497H68.0886V38.0527Z" fill="#040000"/>
<path d="M58.73 22.1758H51.3047V26.6727H58.73V22.1758Z" fill="#040000"/>
<path d="M68.0844 22.1758H60.6592V26.6727H68.0844V22.1758Z" fill="#040000"/>
<path d="M58.7266 30.0404L51.3047 30.0371V34.5374L58.7266 34.5341V30.0404Z" fill="#040000"/>
<path d="M60.6592 30.041V34.5346L68.0844 34.5313V30.041H60.6592Z" fill="#040000"/>
<path d="M94.9864 22.1758H91.4147L82.9746 42.5513H87.6871L89.0999 38.9498H97.3542L100.621 35.6898L94.9864 22.1758ZM93.3083 28.1916L95.716 34.4495H90.831L93.3083 28.1916Z" fill="#040000"/>
</g>
<defs>
<clipPath id="clip0_53672_555960">
<rect width="120.303" height="29.0975" fill="white" transform="translate(21.8203 13.4512)"/>
</clipPath>
</defs>
</svg>
