<svg width="164" height="56" viewBox="0 0 164 56" fill="none" xmlns="http://www.w3.org/2000/svg">
<rect width="164" height="56" rx="6.58824" stroke="#EAECF0"/>
<rect x="0.5" y="0.5" width="163" height="55" rx="6.08824" fill="white" stroke="#EAECF0"/>
<g clip-path="url(#clip0_53672_556085)">
<path d="M73.0811 20.6232V34.4946H70.6729V23.6094H70.6408L66.3381 34.4946H64.7326L60.3336 23.6094H60.3015V34.4946H58.0859V20.6232H61.5538L65.5354 30.8983H65.5996L69.8059 20.6232H73.0811ZM75.0719 21.6828C75.0719 21.2975 75.2004 20.9764 75.4894 20.7195C75.7783 20.4627 76.0994 20.3342 76.4848 20.3342C76.9022 20.3342 77.2554 20.4627 77.5123 20.7195C77.7691 20.9764 77.9297 21.2975 77.9297 21.6828C77.9297 22.0681 77.8012 22.3892 77.5123 22.6461C77.2233 22.903 76.9022 23.0314 76.4848 23.0314C76.0673 23.0314 75.7462 22.903 75.4894 22.6461C75.2325 22.3571 75.0719 22.036 75.0719 21.6828ZM77.6728 24.5406V34.4946H75.3288V24.5406H77.6728ZM84.769 32.7928C85.1222 32.7928 85.5076 32.7285 85.925 32.5359C86.3424 32.3753 86.7277 32.1506 87.0809 31.8937V34.0771C86.6956 34.3019 86.2782 34.4625 85.7965 34.5588C85.3149 34.6551 84.8011 34.7193 84.2232 34.7193C82.7461 34.7193 81.5581 34.2698 80.659 33.3386C79.7278 32.4074 79.2783 31.2194 79.2783 29.8066C79.2783 28.2011 79.7599 26.8846 80.6911 25.8571C81.6223 24.8296 82.9388 24.3158 84.6727 24.3158C85.1222 24.3158 85.5718 24.38 85.9892 24.4764C86.4387 24.5727 86.7919 24.7332 87.0488 24.8617V27.1094C86.6956 26.8525 86.3103 26.6277 85.9571 26.4993C85.5718 26.3708 85.1865 26.2745 84.8011 26.2745C83.87 26.2745 83.1314 26.5635 82.5535 27.1736C81.9755 27.7837 81.7186 28.5864 81.7186 29.6139C81.7186 30.6093 82.0076 31.412 82.5535 31.9579C83.0993 32.5038 83.8379 32.7928 84.769 32.7928ZM93.7276 24.38C93.9203 24.38 94.0808 24.38 94.2414 24.4121C94.4019 24.4443 94.5304 24.4764 94.6267 24.5085V26.8846C94.4982 26.7883 94.3377 26.6919 94.0808 26.6277C93.8239 26.5635 93.5671 26.4993 93.2139 26.4993C92.6359 26.4993 92.1542 26.7561 91.7689 27.2378C91.3836 27.7194 91.1588 28.458 91.1588 29.4855V34.4946H88.8148V24.5406H91.1588V26.114H91.191C91.4157 25.5681 91.7368 25.1507 92.1542 24.8296C92.6038 24.5406 93.1175 24.38 93.7276 24.38ZM94.7551 29.6781C94.7551 28.0405 95.2368 26.724 96.1358 25.7608C97.067 24.7975 98.3514 24.3158 99.989 24.3158C101.53 24.3158 102.75 24.7654 103.617 25.6965C104.484 26.6277 104.934 27.88 104.934 29.4534C104.934 31.0588 104.452 32.3432 103.553 33.3065C102.622 34.2698 101.37 34.7514 99.7642 34.7514C98.223 34.7514 97.0028 34.3019 96.1037 33.4028C95.2047 32.4717 94.7551 31.2194 94.7551 29.6781ZM97.1955 29.5818C97.1955 30.6093 97.4202 31.412 97.9019 31.9579C98.3835 32.5038 99.0578 32.7928 99.9248 32.7928C100.76 32.7928 101.434 32.5359 101.883 31.9579C102.333 31.412 102.558 30.6093 102.558 29.5176C102.558 28.458 102.333 27.6552 101.883 27.0772C101.434 26.5314 100.76 26.2424 99.9569 26.2424C99.0899 26.2424 98.4477 26.5314 97.9661 27.1094C97.4202 27.7194 97.1955 28.5222 97.1955 29.5818ZM108.434 27.1736C108.434 27.4947 108.53 27.7837 108.755 27.9763C108.98 28.169 109.429 28.3937 110.168 28.6827C111.099 29.068 111.773 29.4855 112.126 29.935C112.512 30.4166 112.704 30.9625 112.704 31.6368C112.704 32.568 112.351 33.3065 111.613 33.8845C110.906 34.4625 109.911 34.7193 108.691 34.7193C108.273 34.7193 107.824 34.6551 107.31 34.5588C106.796 34.4625 106.379 34.334 106.026 34.1735V31.8616C106.443 32.1506 106.925 32.4074 107.406 32.568C107.888 32.7285 108.337 32.8249 108.755 32.8249C109.269 32.8249 109.686 32.7606 109.911 32.6001C110.168 32.4396 110.296 32.2148 110.296 31.8616C110.296 31.5405 110.168 31.2836 109.911 31.0267C109.654 30.802 109.14 30.5451 108.434 30.2561C107.567 29.9029 106.957 29.4855 106.604 29.0359C106.25 28.5864 106.058 28.0084 106.058 27.302C106.058 26.4029 106.411 25.6644 107.117 25.0864C107.824 24.5085 108.755 24.2195 109.879 24.2195C110.232 24.2195 110.617 24.2516 111.035 24.3479C111.452 24.4443 111.837 24.5406 112.126 24.6369V26.9167C111.805 26.724 111.452 26.5314 111.035 26.3708C110.617 26.2103 110.2 26.1461 109.815 26.1461C109.365 26.1461 109.012 26.2424 108.787 26.4029C108.562 26.6277 108.434 26.8525 108.434 27.1736ZM113.7 29.6781C113.7 28.0405 114.181 26.724 115.081 25.7608C116.012 24.7975 117.296 24.3158 118.934 24.3158C120.475 24.3158 121.695 24.7654 122.562 25.6965C123.429 26.6277 123.879 27.88 123.879 29.4534C123.879 31.0588 123.397 32.3432 122.498 33.3065C121.567 34.2698 120.314 34.7514 118.709 34.7514C117.168 34.7514 115.947 34.3019 115.048 33.4028C114.181 32.4717 113.7 31.2194 113.7 29.6781ZM116.14 29.5818C116.14 30.6093 116.365 31.412 116.847 31.9579C117.328 32.5038 118.002 32.7928 118.869 32.7928C119.704 32.7928 120.379 32.5359 120.828 31.9579C121.278 31.412 121.502 30.6093 121.502 29.5176C121.502 28.458 121.278 27.6552 120.828 27.0772C120.379 26.5314 119.704 26.2424 118.902 26.2424C118.035 26.2424 117.392 26.5314 116.911 27.1094C116.397 27.7194 116.14 28.5222 116.14 29.5818ZM131.681 26.4672H128.181V34.4946H125.805V26.4672H124.135V24.5406H125.805V23.1599C125.805 22.1324 126.158 21.2654 126.833 20.5911C127.507 19.9168 128.374 19.5957 129.434 19.5957C129.723 19.5957 129.979 19.6278 130.204 19.6278C130.429 19.6278 130.622 19.692 130.782 19.7563V21.7792C130.718 21.747 130.557 21.6828 130.365 21.6186C130.172 21.5544 129.947 21.5223 129.69 21.5223C129.209 21.5223 128.823 21.6828 128.567 21.9718C128.31 22.2608 128.181 22.7424 128.181 23.3204V24.5085H131.681V22.2608L134.025 21.5544V24.5085H136.401V26.4351H134.025V31.0909C134.025 31.701 134.154 32.1185 134.346 32.3753C134.571 32.6322 134.924 32.7606 135.406 32.7606C135.534 32.7606 135.695 32.7285 135.888 32.6643C136.08 32.6001 136.241 32.5359 136.369 32.4396V34.3661C136.209 34.4625 135.984 34.5267 135.631 34.5909C135.277 34.6551 134.956 34.6872 134.603 34.6872C133.608 34.6872 132.869 34.4303 132.388 33.9166C131.906 33.4028 131.649 32.6001 131.649 31.5405L131.681 26.4672Z" fill="#737373"/>
<path d="M38.9815 16H28V26.9815H38.9815V16Z" fill="#F25022"/>
<path d="M51.1192 16H40.1377V26.9815H51.1192V16Z" fill="#7FBA00"/>
<path d="M38.9815 28.1367H28V39.1182H38.9815V28.1367Z" fill="#00A4EF"/>
<path d="M51.1192 28.1367H40.1377V39.1182H51.1192V28.1367Z" fill="#FFB900"/>
</g>
<defs>
<clipPath id="clip0_53672_556085">
<rect width="108.402" height="23.1189" fill="white" transform="translate(28 16)"/>
</clipPath>
</defs>
</svg>
