<svg width="173" height="48" viewBox="0 0 173 48" fill="none" xmlns="http://www.w3.org/2000/svg">
<path d="M6.58789 0.5H166.212C169.574 0.500081 172.3 3.22566 172.3 6.58789V41.4121C172.3 44.7743 169.574 47.4999 166.212 47.5H6.58789C3.22573 47.4998 0.500186 44.7743 0.5 41.4121V6.58789C0.500186 3.22572 3.22572 0.500186 6.58789 0.5Z" fill="white"/>
<path d="M6.58789 0.5H166.212C169.574 0.500081 172.3 3.22566 172.3 6.58789V41.4121C172.3 44.7743 169.574 47.4999 166.212 47.5H6.58789C3.22573 47.4998 0.500186 44.7743 0.5 41.4121V6.58789C0.500186 3.22572 3.22572 0.500186 6.58789 0.5Z" stroke="#EAECF0"/>
<path fill-rule="evenodd" clip-rule="evenodd" d="M54.9285 12.5205C54.6158 13.0224 54.5256 13.3972 54.4012 14.7099C54.2586 16.214 54.1143 16.6067 53.5923 16.9108C53.2372 17.1175 52.2266 17.2933 51.3865 17.2943C50.6325 17.2953 50.3878 17.493 50.4964 18.0134C50.6728 18.8585 51.3176 19.2298 52.6251 19.2391L53.4544 19.245L53.3928 19.6449C53.3028 20.229 52.8767 21.0592 52.5463 21.2945C52.0895 21.6197 51.449 21.8096 50.7241 21.8348C49.9651 21.8611 49.7946 21.9657 49.331 22.6893C49.1135 23.0288 49.0462 23.2539 49.0462 23.6426C49.0462 24.3009 49.4704 26.9312 49.8071 28.3607C50.103 29.6168 50.0759 29.5904 51.0735 29.5927C51.6113 29.594 51.6582 29.5753 51.7579 29.3191C51.8603 29.0559 51.8234 28.0409 51.6914 27.4898C51.6307 27.2366 51.6334 27.2355 52.3132 27.2303C52.7418 27.2271 53.2099 27.1478 53.5712 27.0172L54.1466 26.8091L54.2676 27.0267C54.3342 27.1464 54.4065 27.7537 54.4282 28.3764C54.4656 29.446 54.4806 29.5143 54.7003 29.6144C55.098 29.7955 55.2456 29.6572 55.2456 29.1031C55.2456 28.8297 55.2953 28.5753 55.3561 28.5377C55.4187 28.499 55.819 28.8191 56.281 29.2776C57.1591 30.1489 57.597 30.3948 58.2672 30.3926C59.0753 30.3901 59.0726 30.3929 59.8267 28.7599C60.6701 26.9336 60.9491 26.2269 61.2939 25.0444C61.5947 24.0124 61.7345 22.3185 61.5562 21.8647C61.3478 21.3341 59.4862 20.6948 58.1491 20.6948C57.2752 20.6948 57.0603 20.6113 57.026 20.2585C56.9971 19.9611 56.9714 19.9433 56.527 19.9147C56.1863 19.8927 55.9302 19.9497 55.5881 20.1236C55.0408 20.4017 55.1838 20.549 55.7965 20.3385C56.2685 20.1762 56.3795 20.244 56.0626 20.5009C55.6805 20.8107 54.5457 21.04 54.5457 20.8074C54.5457 20.589 54.8789 19.8087 55.1223 19.4569C55.5079 18.8998 55.9795 18.6423 57.5266 18.1441C59.2686 17.5832 59.3222 17.5461 59.1621 17.0117C58.9878 16.43 58.8502 16.3351 57.9972 16.2082C56.9787 16.0567 56.8771 16.0636 56.8186 16.2874C56.7819 16.4277 56.6426 16.4984 56.3023 16.5494C56.0461 16.5878 55.8176 16.6005 55.7947 16.5776C55.7718 16.5547 55.7983 15.8541 55.8536 15.0208L55.9542 13.5057L55.6868 12.9756C55.3169 12.2425 55.1603 12.1485 54.9285 12.5205ZM152.914 13.2176C152.779 13.4528 152.641 13.7225 152.608 13.8167C152.574 13.9109 152.333 14.3121 152.072 14.7081C151.745 15.2043 151.448 15.5211 151.118 15.7267C150.695 15.989 150.637 16.0665 150.637 16.368C150.637 16.7033 150.646 16.7101 151.012 16.678L151.387 16.6452L151.509 17.2451C151.726 18.322 151.974 20.6981 151.879 20.7864C151.828 20.8327 151.619 20.9005 151.412 20.9372C151.047 21.0022 151.037 20.9964 151.037 20.6993C151.037 20.5318 151.002 20.3949 150.959 20.3949C150.916 20.3949 150.626 20.5543 150.314 20.7493C149.365 21.3435 148.339 22.9445 148.744 23.2009C148.974 23.346 149.573 23.3085 149.823 23.1335C149.95 23.0449 150.25 22.6644 150.492 22.2879C150.741 21.8987 151.06 21.5364 151.231 21.4479C151.646 21.2337 153.584 20.9149 154.898 20.8449C155.497 20.8131 156.154 20.7659 156.359 20.7402C156.692 20.6982 156.747 20.7246 156.887 20.9941C157.076 21.3613 157.272 21.3747 157.581 21.0415L157.816 20.7881L159.066 21.1357L158.677 21.4717C158.427 21.688 158.03 21.8837 157.563 22.0212C157.164 22.1387 156.837 22.2618 156.837 22.2949C156.837 22.4924 159.887 21.8399 160.212 21.5732C160.525 21.315 160.112 20.9581 159.306 20.7922C158.966 20.722 158.514 20.5973 158.303 20.5152C157.837 20.3339 157.834 20.3568 158.476 18.5672C159.055 16.9531 159.406 15.1782 159.277 14.5147L159.187 14.0454L158.387 14.0515C157.947 14.0548 157.452 14.1142 157.287 14.1835C157.01 14.2998 157.001 14.3176 157.176 14.4155C157.29 14.4792 157.626 14.4973 158.015 14.461L158.665 14.4003L158.607 15.4728C158.57 16.1586 158.443 16.9596 158.256 17.6951C157.937 18.948 157.401 20.2464 157.243 20.1488C157.189 20.1151 157 19.8867 156.824 19.6414C156.647 19.396 156.488 19.2106 156.469 19.2295C156.45 19.2483 156.503 19.4564 156.586 19.6919C156.793 20.2798 156.778 20.3949 156.494 20.3949C156.198 20.3949 155.996 20.2029 155.721 19.6595C155.605 19.4315 155.424 19.1218 155.318 18.9713L155.125 18.6976L155.531 17.7963C155.754 17.3005 155.937 16.788 155.937 16.6573C155.937 16.4334 155.685 16.1135 155.587 16.212C155.562 16.237 155.426 16.656 155.285 17.143C154.934 18.3524 154.951 18.3313 154.534 18.1049C154.24 17.9453 154.189 17.8656 154.197 17.5809C154.208 17.1919 155.187 15.3953 155.388 15.3953C155.459 15.3953 155.757 15.5753 156.049 15.7952C156.607 16.2141 156.737 16.2687 156.737 16.0834C156.737 15.9557 156.08 15.2983 155.793 15.1393C155.607 15.0355 155.607 15.0246 155.814 14.6393C156.537 13.2926 156.57 13.1973 156.384 12.9919C156.192 12.7803 156.013 12.8173 156.103 13.0501C156.17 13.2251 155.244 14.6921 155.065 14.694C154.998 14.6947 154.773 14.6086 154.565 14.5025C154.357 14.3964 154.075 14.2964 153.937 14.2802C153.46 14.2239 153.591 14.4471 154.211 14.7453C154.554 14.9103 154.835 15.0931 154.836 15.1516C154.837 15.2932 154.308 15.7952 154.157 15.7952C154.091 15.7952 153.974 15.649 153.896 15.4703L153.753 15.1453L153.745 15.5703C153.737 15.984 153.728 15.9952 153.402 15.9952C152.932 15.9952 152.506 16.1623 152.354 16.4064C152.231 16.6033 152.24 16.6106 152.531 16.5467C152.831 16.4807 152.837 16.487 152.838 16.8623L152.838 17.2451L153.037 16.9181C153.296 16.4948 153.688 16.3025 153.886 16.5025C154.008 16.6257 153.944 16.7547 153.417 17.4451C153.082 17.8851 152.722 18.4362 152.618 18.67C152.295 19.392 152.2 19.2215 152.1 17.7411C152.074 17.3538 151.977 16.8488 151.885 16.6187L151.718 16.2002L152.227 15.5228C152.852 14.6903 153.437 13.6009 153.437 13.2681C153.437 13.1316 153.375 12.9682 153.298 12.9048C153.187 12.8123 153.111 12.8738 152.914 13.2176ZM109.704 14.0857C109.548 15.0646 108.466 17.0618 107.572 18.023C107.121 18.5079 107.047 18.8146 107.367 18.8762C107.463 18.8946 107.661 18.8151 107.808 18.6994C108.248 18.3533 108.292 18.5213 108.279 20.4976C108.27 21.9666 108.239 22.3336 108.106 22.5363C107.88 22.8802 106.88 23.445 105.967 23.743C105.123 24.0185 104.928 23.9732 105.122 23.5473C105.224 23.3239 105.214 23.2946 105.042 23.2946C104.608 23.2946 104.255 24.3819 104.603 24.6453C104.973 24.926 105.611 24.8268 106.634 24.3294C107.161 24.0735 107.71 23.7816 107.855 23.6804L108.119 23.4966L108.182 23.8313C108.258 24.234 108.012 26.0733 107.752 27.0443C107.65 27.4292 107.535 27.8727 107.499 28.0297C107.447 28.2507 107.388 28.3036 107.237 28.264C107.065 28.2192 107.041 28.2655 107.041 28.642C107.041 28.9877 107.089 29.1025 107.288 29.2326C107.423 29.3214 107.556 29.3941 107.583 29.3941C107.724 29.3941 108.147 28.4656 108.214 28.01C108.256 27.7221 108.328 27.486 108.373 27.4853C108.418 27.4846 108.69 27.8119 108.978 28.2128C109.483 28.9174 110.132 29.4407 110.588 29.5129C111.069 29.5888 111.163 28.0657 110.841 25.3944C110.533 22.8374 110.595 21.7959 111.093 21.1776C111.265 20.9639 111.43 20.9096 112.212 20.8092C112.717 20.7445 113.526 20.5739 114.01 20.4301C115.096 20.1074 116.139 19.9071 116.767 19.9002C117.178 19.8956 117.261 19.8597 117.36 19.6422C117.552 19.2206 117.364 19.144 116.16 19.1531C115.33 19.1594 114.868 19.2215 114.097 19.4306C113.228 19.6662 111.528 19.9933 111.166 19.9945C110.975 19.9951 111.012 18.9678 111.234 18.1158L111.423 17.3867L111.158 17.1409C110.831 16.8378 110.435 16.8253 109.714 17.0952C109.038 17.3479 108.868 17.4795 108.788 17.8094L108.725 18.0737L109.208 17.8431C109.474 17.7163 109.855 17.5819 110.056 17.5445C110.36 17.488 110.43 17.5076 110.474 17.6608C110.626 18.1946 110.631 18.7644 110.495 19.8949C110.412 20.5823 110.344 21.1722 110.343 21.2056C110.342 21.239 110.068 21.4348 109.734 21.6407C109.155 21.9981 109.122 22.0067 108.988 21.8299C108.837 21.6311 108.776 19.9949 108.919 19.9949C108.962 19.9949 109.101 20.0684 109.23 20.1582C109.422 20.293 109.453 20.3823 109.406 20.6686C109.355 20.9885 109.367 21.0111 109.571 20.9566C109.692 20.9241 109.87 20.8969 109.966 20.8962C110.205 20.8943 110.192 20.5298 109.937 20.112C109.807 19.8989 109.557 19.701 109.242 19.562C108.852 19.39 108.736 19.2827 108.682 19.0454C108.645 18.8806 108.549 18.609 108.469 18.4418C108.328 18.1462 108.339 18.1141 108.85 17.2915C109.747 15.8478 110.244 14.519 110.1 13.9461C110.003 13.5608 109.775 13.6412 109.704 14.0857ZM80.767 14.8483C80.3602 15.342 79.0218 17.5955 78.586 18.5209C78.183 19.3767 78.2061 19.5336 78.7505 19.6385C78.9117 19.6695 79.1673 19.7184 79.3186 19.7472L79.5935 19.7995L79.5672 21.0721C79.528 22.9806 79.5456 22.9285 78.8153 23.2824C78.0283 23.6639 76.9453 24.0534 76.2684 24.1986C75.7055 24.3193 75.624 24.455 75.9416 24.7425C76.1882 24.9657 76.5812 24.9135 77.4591 24.5408C78.5005 24.0988 79.162 23.8802 79.2988 23.9327C79.4032 23.9727 79.4013 24.07 79.2886 24.4444C79.0926 25.0958 78.8278 27.5245 78.8636 28.3436C78.892 28.9934 78.908 29.0342 79.1614 29.1017C79.5075 29.1938 79.7658 29.0123 80.0998 28.4424C80.421 27.8943 80.6161 26.8408 80.7058 25.1694C80.7434 24.4682 80.8047 23.8946 80.8419 23.8946C80.8792 23.8946 81.0848 24.2139 81.2988 24.6043C81.5128 24.9947 81.8129 25.4192 81.9655 25.5478C82.2431 25.7813 82.2433 25.7823 82.2433 27.0878C82.2433 27.8063 82.2095 28.394 82.1683 28.3937C82.1271 28.3934 81.9157 28.1473 81.6987 27.8467C81.4815 27.5462 81.2881 27.3162 81.2689 27.3355C81.2496 27.3548 81.3882 27.8466 81.5769 28.4286C81.9667 29.6309 82.3913 30.4353 82.5948 30.3573C82.6686 30.3289 82.8871 30.2761 83.0802 30.2398C83.4205 30.176 83.4335 30.1568 83.501 29.6166C83.5393 29.31 83.496 27.7509 83.4049 26.1519C83.3137 24.5529 83.2401 23.0182 83.2412 22.7415L83.2432 22.2383L84.096 21.8693C84.9194 21.5131 84.9549 21.5066 85.13 21.6816C85.305 21.8566 85.305 21.909 85.1273 23.2026C84.8488 25.2308 84.6061 25.9467 83.9727 26.6083C83.6297 26.9665 83.6268 26.9764 83.7952 27.2333C84.059 27.6358 84.2624 27.5574 84.6105 26.9193C85.2067 25.8263 85.6638 24.2094 85.8933 22.3831C85.9413 22.0002 86.0177 21.8681 86.3412 21.6082C86.8784 21.1765 86.9607 21.2005 86.8947 21.7697C86.8644 22.0309 86.7953 22.626 86.7412 23.092C86.4231 25.8339 86.8314 27.0797 88.1523 27.3965C88.8258 27.5581 89.9943 27.4693 90.5752 27.2123C91.0023 27.0234 91.0307 26.9848 91.1528 26.4289C91.4143 25.2377 91.239 22.6582 90.9183 22.9789C90.8579 23.0393 90.7071 23.6822 90.5831 24.4074C90.3092 26.0093 90.1105 26.5734 89.7754 26.7009C89.6403 26.7523 89.0803 26.7943 88.5312 26.7943H87.5327L87.3628 26.4193C87.141 25.93 87.1444 23.6219 87.3693 22.0249C87.5073 21.0444 87.511 20.4948 87.3797 20.4948C87.3578 20.4948 87.1007 20.6298 86.8083 20.7948C86.1612 21.16 85.9835 21.1699 85.9019 20.8448C85.8331 20.5704 85.6306 20.5187 85.4548 20.7306C85.3928 20.8053 85.0647 20.8954 84.7255 20.9309C84.3863 20.9663 83.9565 21.0852 83.7703 21.1951C83.5841 21.3049 83.3947 21.3948 83.3494 21.3948C83.0557 21.3948 82.9466 19.3173 83.1917 18.396L83.3378 17.8471L82.9198 17.4211C82.4888 16.982 82.2076 16.9002 81.8282 17.1032C81.5018 17.2779 81.4871 17.125 81.7739 16.5402C82.0363 16.005 82.1291 15.2803 81.9668 15.0337C81.9264 14.9724 81.705 14.8267 81.4747 14.7099L81.056 14.4978L80.767 14.8483ZM68.7445 15.169C68.7445 15.2228 69.0819 15.5976 69.4944 16.0018C69.9069 16.4061 70.2443 16.7941 70.2443 16.864C70.2443 17.0183 69.5593 17.3809 68.9445 17.552C68.5307 17.6672 68.6173 17.6779 70.0225 17.6862C71.2752 17.6935 71.5606 17.6688 71.6065 17.5492C71.727 17.2351 71.3984 16.6434 70.6976 15.9124L69.9766 15.1604L69.3605 15.1158C68.9954 15.0894 68.7445 15.1111 68.7445 15.169ZM97.5219 15.4602C97.2634 15.5362 97.0231 15.6449 96.988 15.7017C96.953 15.7584 97.0858 16.0393 97.2831 16.3259C97.6971 16.9269 97.7535 17.2951 97.4315 17.2951C97.2562 17.2951 97.2991 17.3688 97.6873 17.7356C97.9438 17.9779 98.1173 18.1976 98.0728 18.2241C97.9788 18.2801 95.6997 18.795 95.5459 18.795C95.4874 18.795 95.4422 18.5642 95.4422 18.265C95.4422 17.7248 95.3242 17.4949 95.0472 17.4954C94.8971 17.4956 93.8718 18.6236 93.0933 19.6449C92.6256 20.2585 92.2865 21.002 92.162 21.6872L92.068 22.2048L92.422 22.4454C92.7648 22.6783 92.7855 22.6806 93.0665 22.5154C93.5399 22.237 93.7003 22.0459 94.1489 21.2252C94.3836 20.796 94.7006 20.2839 94.8536 20.0871C95.22 19.6158 96.2716 19.1337 97.2435 18.9913C98.1007 18.8658 100.322 18.8406 101.171 18.9468L101.746 19.0186L101.289 19.5535C100.847 20.071 100.839 20.0904 101.062 20.1456C101.188 20.177 101.557 20.111 101.882 19.9988C102.207 19.8867 102.616 19.7949 102.792 19.7949C103.2 19.7949 103.441 19.5276 103.441 19.0757C103.441 18.7512 103.407 18.7093 103.017 18.5647C102.226 18.2716 101.695 18.1691 100.646 18.107L99.5997 18.0451L99.4831 17.289C99.3469 16.4062 99.1561 15.9901 98.7565 15.7057C98.2666 15.3568 98.0319 15.3101 97.5219 15.4602ZM113.784 15.7058C113.748 15.7637 113.809 15.8743 113.919 15.9515C114.246 16.1802 114.72 16.9746 114.795 17.4195C114.862 17.8164 114.847 17.8495 114.428 18.2211L113.991 18.6088L114.65 18.5647C115.013 18.5404 115.441 18.4581 115.6 18.3819C115.852 18.2618 115.894 18.1804 115.921 17.7678C115.959 17.1711 115.692 16.6676 115.109 16.2354C114.578 15.8422 113.874 15.5608 113.784 15.7058ZM141.906 15.9788C141.705 16.483 141.566 17.2872 141.438 18.695C141.381 19.3274 141.268 20.0742 141.188 20.3545L141.042 20.8641L139.915 20.929C139.295 20.9647 138.33 20.9941 137.769 20.9943C137.095 20.9946 136.726 21.0347 136.678 21.1127C136.633 21.1848 136.823 21.4335 137.166 21.7528C137.855 22.3949 138.138 22.4559 139.485 22.2531C140.26 22.1364 140.5 22.1299 140.565 22.2238C140.759 22.5038 140.565 23.6013 140.188 24.3648C139.404 25.9519 137.091 27.8802 135.958 27.8918C135.728 27.8942 135.728 27.895 135.908 28.2045L136.089 28.5147L136.853 28.4716C138.702 28.3674 139.837 27.2222 140.989 24.3008C141.215 23.7269 141.442 23.244 141.494 23.2278C141.546 23.2116 141.752 23.502 141.952 23.8732C143.218 26.2178 145.472 28.2662 147.588 28.9943C148.024 29.1442 148.126 29.1499 148.285 29.0337C148.439 28.9208 148.452 28.8561 148.361 28.6561C148.222 28.3515 147.815 28.0426 146.721 27.4125C145.569 26.7485 144.937 26.2679 144.05 25.382C142.8 24.1334 141.838 22.7133 141.838 22.1157C141.838 21.8304 141.878 21.798 142.463 21.6068C142.807 21.4946 143.499 21.333 144.001 21.2478C145.257 21.0346 145.68 20.8771 145.72 20.608C145.747 20.4283 145.653 20.3464 145.185 20.1393C144.873 20.0012 144.408 19.8605 144.153 19.8266L143.688 19.765L143.884 19.986C144.126 20.2587 144.023 20.3446 143.288 20.4852C142.31 20.6723 142.053 20.6999 142.009 20.6229C141.984 20.5799 142.07 20.0274 142.198 19.3949C142.327 18.7625 142.484 17.8176 142.548 17.2951C142.646 16.4789 142.64 16.2924 142.505 15.9702C142.305 15.491 142.1 15.4939 141.906 15.9788ZM156.937 15.7567C156.937 15.7905 157.1 15.9673 157.299 16.1495L157.66 16.4808L157.295 16.8013C157.094 16.9775 156.949 17.1401 156.971 17.1626C156.994 17.1852 157.265 17.0916 157.574 16.9549C158.162 16.6949 158.259 16.5152 157.998 16.1713C157.802 15.9121 156.937 15.5745 156.937 15.7567ZM127.72 16.2767C127.022 16.4244 126.421 16.5759 126.385 16.6135C126.349 16.651 126.352 16.8729 126.391 17.1064C126.447 17.4359 126.575 17.6402 126.962 18.0175L127.462 18.5038L127.391 19.1674C127.277 20.226 127.321 20.1835 125.982 20.547C125.326 20.7251 124.507 20.9325 124.162 21.0078C123.553 21.1406 123.538 21.1512 123.681 21.3538C123.762 21.4688 124.069 21.7281 124.362 21.9302L124.896 22.2977L125.593 22.062C126.647 21.7054 126.839 21.669 126.839 21.8261C126.839 22.0405 126.227 23.3909 125.795 24.1298C125.019 25.4559 124.063 26.4321 122.487 27.5075C121.634 28.0899 120.51 28.9727 120.46 29.1004C120.41 29.2252 120.854 29.3297 121.39 29.3194C122.784 29.2927 124.672 28.0699 126.123 26.2531C126.693 25.5396 127.539 24.0022 127.539 23.68C127.539 23.028 128.167 23.6872 129.314 25.5444C130.377 27.2654 131.224 28.1618 132.094 28.4876C132.583 28.6704 134.743 29.2941 134.888 29.2941C134.913 29.2941 135.002 29.1613 135.086 28.999C135.235 28.7114 135.23 28.6953 134.898 28.3741C134.71 28.1926 134.317 27.9051 134.023 27.7351C131.565 26.3122 131.297 26.0939 129.99 24.4445C129.554 23.8946 129.002 23.2299 128.762 22.9675C128.301 22.4619 128.039 21.9538 128.039 21.5654C128.039 21.0461 128.799 20.7022 129.956 20.6972C130.684 20.6941 130.839 20.6291 130.839 20.3276C130.839 19.9374 130.671 19.7231 130.311 19.6555C130.011 19.5992 129.197 19.7013 128.7 19.8578C128.522 19.9138 128.516 19.874 128.584 19.1812C128.624 18.7763 128.695 18.3979 128.743 18.3403C128.791 18.2827 129.237 18.1055 129.735 17.9466L130.639 17.6575V17.2828C130.639 16.0672 129.906 15.8144 127.72 16.2767ZM85.743 16.4563C85.743 16.4899 85.9287 16.7392 86.1557 17.0102C86.3826 17.2813 86.5513 17.5172 86.5306 17.5344C86.5098 17.5515 86.403 17.6141 86.293 17.6733C86.1027 17.7758 86.1066 17.7862 86.3745 17.8881C86.5292 17.9469 86.878 17.9951 87.1494 17.9951C87.5546 17.9951 87.6429 17.9635 87.6429 17.8183C87.6429 17.4766 87.1561 16.9196 86.627 16.656C86.1319 16.4092 85.743 16.3214 85.743 16.4563ZM156.255 17.5836C156.176 17.6328 156.135 17.7991 156.155 17.9957C156.184 18.2926 156.245 18.3502 156.775 18.5784C157.346 18.8246 157.367 18.8264 157.501 18.6428C157.659 18.4261 157.585 18.3591 156.891 18.0939C156.637 17.9969 156.476 17.8633 156.441 17.7218C156.404 17.5694 156.346 17.5266 156.255 17.5836ZM72.4941 18.0036C72.1092 18.0493 71.0968 18.1595 70.2443 18.2485C69.2362 18.3538 68.0654 18.5629 66.8946 18.8469C65.9047 19.087 64.4198 19.4458 63.5949 19.6442C61.6333 20.1161 61.7461 20.0683 62.0457 20.3008C62.1828 20.4071 62.4589 20.545 62.6592 20.6071C62.9914 20.7101 63.1673 20.6713 64.659 20.167C68.5199 18.8615 70.5279 18.4704 73.1941 18.505C74.5813 18.5229 74.694 18.5108 74.694 18.3436C74.694 17.9643 73.8814 17.8387 72.4941 18.0036ZM154.468 18.3739C154.64 18.5642 154.637 18.5912 154.371 19.1331C154.054 19.779 153.825 19.854 153.585 19.39C153.436 19.1016 153.441 19.0557 153.679 18.5349C153.95 17.9434 154.058 17.9212 154.468 18.3739ZM80.9434 18.4476C80.9434 18.5843 80.974 18.5843 81.2384 18.4476C81.6452 18.2372 81.8126 18.2563 81.8741 18.52C81.9823 18.9842 82.1703 20.6011 82.1217 20.6498C82.0938 20.6776 81.9494 20.6541 81.8007 20.5976C81.6521 20.5411 81.4305 20.4948 81.3084 20.4948C81.1346 20.4948 81.0165 20.3533 80.7649 19.843C80.4149 19.1332 80.3836 18.936 80.5596 18.5497C80.6862 18.2716 80.9434 18.2032 80.9434 18.4476ZM87.3429 19.1492C86.5105 19.4387 85.0001 19.6949 84.1255 19.6949C83.591 19.6949 83.4432 19.7268 83.4432 19.8423C83.4432 20.0098 83.8415 20.2382 84.3093 20.3389C84.7071 20.4244 85.6073 20.2699 86.8929 19.8952C87.4429 19.7349 88.084 19.5735 88.3178 19.5366C88.7765 19.464 88.8487 19.3218 88.5599 19.0605C88.3313 18.8536 88.156 18.8664 87.3429 19.1492ZM99.0366 19.5704C98.8288 20.5711 99.093 21.9434 99.6015 22.5054C99.7408 22.6593 99.6858 22.7173 98.9455 23.1984C98.501 23.4871 98.1564 23.7423 98.1795 23.7654C98.2025 23.7885 98.5523 23.6391 98.9567 23.4333C99.3609 23.2276 99.9618 22.9839 100.292 22.8918C101.048 22.6808 101.156 22.4313 100.533 22.3318C100.301 22.2946 100.034 22.1871 99.9399 22.0928C99.7043 21.8572 99.6127 21.128 99.695 20.141L99.7641 19.3116L99.1557 18.997L99.0366 19.5704ZM153.487 19.8017C153.559 20.2622 153.633 20.4509 153.751 20.4736C153.952 20.5123 154.496 19.872 154.645 19.4226C154.704 19.2424 154.815 19.095 154.892 19.095C155.012 19.095 155.894 20.2846 155.816 20.3417C155.8 20.3533 155.069 20.463 154.191 20.5855C152.715 20.7916 152.586 20.796 152.474 20.6439C152.345 20.4667 152.183 19.5156 152.268 19.4305C152.297 19.4021 152.427 19.4492 152.558 19.535C152.786 19.6845 152.804 19.6783 152.976 19.3876C153.074 19.2208 153.207 19.1016 153.271 19.1228C153.335 19.144 153.432 19.4495 153.487 19.8017ZM71.1553 19.6061C70.9231 19.7941 70.1257 19.9949 69.6113 19.9949C69.4335 19.9949 69.0551 19.9345 68.7705 19.8607C68.1325 19.6951 68.0448 19.765 68.0436 20.4398C68.0425 21.0514 68.6787 22.9619 68.9693 23.2196C69.0927 23.3291 69.3291 23.3946 69.6009 23.3946C70.0221 23.3946 70.0378 23.406 70.1148 23.7696C70.249 24.4023 70.2135 28.4653 70.0726 28.606C69.9769 28.7016 69.8629 28.7013 69.5409 28.605C69.2444 28.5161 68.9256 28.2699 68.3878 27.7143C67.979 27.2921 67.6446 26.9823 67.6446 27.0259C67.6446 27.1288 68.1975 28.1319 68.5348 28.6408C68.8399 29.1012 69.5355 29.5507 70.0591 29.6258C70.8756 29.743 71.0023 29.2007 70.9145 25.962C70.8669 24.2031 70.8021 23.5921 70.5881 22.883C70.5526 22.7655 70.6735 22.6638 71.0315 22.5097C71.6174 22.2577 71.9388 21.8991 72.4005 20.9823C72.7364 20.3151 72.7403 20.2936 72.5823 19.9625C72.4414 19.6669 72.3547 19.6121 71.8948 19.5288C71.4507 19.4483 71.3352 19.4603 71.1553 19.6061ZM97.0271 19.903C97.0718 20.5463 96.9282 21.1341 96.473 22.1697C96.1591 22.8839 96.0772 22.9946 95.8623 22.9946C95.5485 22.9946 95.3495 23.253 95.3454 23.6661C95.3411 24.0995 95.5739 24.216 96.0927 24.0402C96.8194 23.794 97.4552 22.8422 97.8858 21.3564C98.2392 20.1367 98.2277 19.9791 97.767 19.7248C97.0334 19.3199 96.9874 19.331 97.0271 19.903ZM71.0977 20.5791C71.0014 21.0179 70.5368 21.6137 70.1136 21.8415C69.6506 22.0907 69.5485 21.9968 69.5178 21.294L69.4944 20.7563L70.2443 20.4371C70.6568 20.2616 71.0326 20.1533 71.0794 20.1965C71.1262 20.2398 71.1345 20.412 71.0977 20.5791ZM84.9931 20.5948C84.9591 20.6498 84.9988 20.6948 85.0813 20.6948C85.1638 20.6948 85.2591 20.6498 85.2931 20.5948C85.327 20.5398 85.2874 20.4948 85.2049 20.4948C85.1224 20.4948 85.0271 20.5398 84.9931 20.5948ZM115.18 21.1112C115.047 21.3277 114.274 21.5905 113.766 21.5926C113.308 21.5945 113.241 21.6204 113.241 21.7947C113.241 21.9047 113.151 22.0847 113.041 22.1947C112.931 22.3047 112.841 22.4381 112.841 22.4912C112.841 22.5442 112.931 22.6358 113.041 22.6947C113.205 22.7827 113.241 22.904 113.241 23.38C113.241 24.4897 112.78 25.5396 111.726 26.8282C111.404 27.2221 111.141 27.5994 111.141 27.6669C111.141 27.8881 111.605 28.1205 111.819 28.0061C112.497 27.6429 113.505 25.3766 113.895 23.3362C114.056 22.4943 114.085 22.4479 114.666 22.102C115.038 21.8801 115.041 21.88 115.041 22.0835C115.041 22.1963 114.97 22.7659 114.883 23.3494C114.781 24.0355 114.737 24.8805 114.758 25.742C114.795 27.2421 114.847 27.3646 115.59 27.7061C116.115 27.9471 118.019 27.9665 118.894 27.7398C119.675 27.5375 119.861 27.3423 119.917 26.6669C119.989 25.8087 119.443 23.9583 119.193 24.2087C119.164 24.2375 119.011 24.9003 118.853 25.6815C118.695 26.4627 118.534 27.1339 118.495 27.1731C118.369 27.2986 116.507 27.2296 116.09 27.084C115.74 26.9617 115.669 26.882 115.52 26.4443C115.206 25.5258 115.371 23.3216 115.849 22.0451C116.083 21.4193 116.038 21.2831 115.537 21.1085C115.336 21.0386 115.225 21.0394 115.18 21.1112ZM155.137 21.452C154.615 21.6934 154.131 21.8918 154.062 21.8928C153.99 21.8939 153.937 21.7702 153.937 21.6006C153.937 21.1652 153.745 21.1179 153.426 21.4749C153.132 21.8032 152.904 22.4609 152.956 22.8273C153.011 23.2115 153.489 23.1721 153.874 22.7518C154.054 22.5554 154.243 22.3955 154.294 22.3965C154.41 22.3987 155.037 23.3466 155.037 23.5201C155.037 23.6096 154.401 23.7452 152.912 23.9728C151.744 24.1516 150.691 24.2971 150.573 24.2962C150.425 24.295 150.339 24.375 150.293 24.5563C150.257 24.7003 150.256 24.8465 150.291 24.8813C150.326 24.9161 150.834 24.9441 151.421 24.9436C152.292 24.9428 152.74 24.8807 153.865 24.6046C154.623 24.4187 155.273 24.2968 155.31 24.3338C155.405 24.4292 155.403 27.95 155.307 28.5089C155.233 28.945 155.198 28.9862 154.741 29.183C154.091 29.4625 153.095 29.6908 152.518 29.6926C151.514 29.6958 152.052 29.9919 153.337 30.1436C154.027 30.225 154.783 30.0592 155.211 29.7327C156.048 29.0939 156.323 27.5204 155.994 25.2444C155.922 24.7495 155.883 24.3107 155.906 24.2695C155.988 24.1252 156.993 24.1978 157.637 24.3945C158.46 24.6459 158.637 24.6469 158.637 24.4002C158.637 23.9862 158.009 23.7521 156.611 23.6441C155.868 23.5868 155.718 23.545 155.624 23.3708C155.442 23.0296 155.684 22.4577 156.25 21.8915C156.737 21.4038 156.834 21.0948 156.498 21.0948C156.419 21.0948 156.293 21.0764 156.22 21.0538C156.147 21.0313 155.66 21.2104 155.137 21.452ZM58.4932 21.5425C59.2759 21.6395 59.7368 21.7435 59.8393 21.8461C60.0932 22.1003 60.0144 23.266 59.6599 24.5C59.3999 25.4054 58.2444 28.4285 58.1051 28.5677C58.0792 28.5937 57.7923 28.6175 57.4676 28.6206C57.0611 28.6244 56.6315 28.5379 56.0866 28.3428C55.6515 28.1869 55.2899 28.056 55.2829 28.0518C55.2759 28.0476 55.2393 27.7465 55.2014 27.3828L55.1326 26.7212L55.5641 26.5464C55.8014 26.4502 56.2655 26.3571 56.5955 26.3395C56.9255 26.322 57.2293 26.3047 57.2705 26.301C57.3116 26.2974 57.3454 26.1397 57.3454 25.9505C57.3454 25.6191 57.3289 25.6042 56.8907 25.5385C56.6368 25.5004 56.1677 25.5231 55.8283 25.5898C55.4912 25.6561 55.1825 25.6713 55.135 25.6238C55.0879 25.5767 55.0206 25.3943 54.9854 25.2184C54.929 24.9365 54.9533 24.8866 55.1906 24.7964C55.3387 24.7401 55.7829 24.6428 56.1777 24.5802C56.5724 24.5175 56.9298 24.4361 56.9718 24.3991C57.0137 24.3622 57.0193 24.1886 56.9843 24.0133C56.926 23.7219 56.8878 23.6946 56.5395 23.6946C56.33 23.6946 56.0369 23.7409 55.8882 23.7974C55.7395 23.8539 55.5955 23.8779 55.5683 23.8506C55.3762 23.6585 56.8726 21.3948 57.1917 21.3948C57.253 21.3948 57.8386 21.4612 58.4932 21.5425ZM81.3434 21.4514C81.3434 21.4825 81.2948 21.5987 81.2353 21.7098C81.0925 21.9766 81.197 22.0675 81.4178 21.8685C81.5144 21.7815 81.7171 21.6794 81.8683 21.6417C82.0817 21.5884 82.1433 21.6086 82.1433 21.7318C82.1433 21.9215 81.4536 22.2947 81.1031 22.2947C80.8851 22.2947 80.8574 22.2549 80.8765 21.9697C80.8884 21.791 80.9335 21.5885 80.9767 21.5198C81.0544 21.3961 81.3434 21.3422 81.3434 21.4514ZM114.991 21.5947C115.024 21.6497 115.005 21.6947 114.946 21.6947C114.888 21.6947 114.841 21.6497 114.841 21.5947C114.841 21.5398 114.86 21.4948 114.885 21.4948C114.909 21.4948 114.957 21.5398 114.991 21.5947ZM155.837 21.5382C155.837 21.6269 155.205 22.5947 155.147 22.5942C155.114 22.5939 154.96 22.4924 154.806 22.3686C154.463 22.0945 154.521 21.8468 154.975 21.648C155.272 21.5179 155.837 21.4458 155.837 21.5382ZM55.8456 21.6509C55.8456 21.8559 55.274 22.8477 54.9321 23.2363C54.706 23.4932 54.5487 23.7309 54.5825 23.7647C54.6549 23.8372 54.4606 24.0945 54.3335 24.0945C54.2852 24.0945 54.2454 23.8808 54.2451 23.6196C54.2443 22.944 54.0717 22.3979 53.8307 22.3087C53.5023 22.1872 53.8186 22.0089 54.6406 21.8523C55.0352 21.7771 55.3853 21.6884 55.4185 21.6551C55.4947 21.579 55.8456 21.5755 55.8456 21.6509ZM110.381 22.3185C110.416 22.5529 110.376 23.6446 110.293 24.7445C110.209 25.8444 110.169 27.0194 110.203 27.3557C110.277 28.078 110.192 28.1751 109.691 27.9375C109.231 27.719 108.873 27.2844 108.736 26.7773C108.624 26.3586 108.706 23.1923 108.83 23.1969C108.864 23.1981 109.049 23.5689 109.243 24.0208C109.583 24.8157 109.822 25.0537 110.05 24.8259C110.171 24.7044 109.985 24.0659 109.61 23.3208L109.297 22.6971L109.735 22.2503C109.977 22.0045 110.206 21.8234 110.246 21.8478C110.286 21.8722 110.346 22.084 110.381 22.3185ZM52.4974 22.5947C52.8813 22.5947 52.926 22.6209 52.9769 22.875C53.0077 23.0292 53.1946 23.3955 53.392 23.689C53.5895 23.9824 53.7387 24.2313 53.7235 24.2419C53.7082 24.2526 53.3133 24.3663 52.8458 24.4945C52.3784 24.6227 51.9836 24.7362 51.9685 24.7468C51.9535 24.7573 51.968 24.8357 52.0007 24.921C52.1039 25.1899 52.6043 25.3285 53.1742 25.246C54.1512 25.1046 54.2923 25.1204 54.3284 25.3749C54.3463 25.5017 54.3073 25.6701 54.2417 25.7493C54.0961 25.9246 52.7814 26.347 52.0959 26.4387L51.5959 26.5055L51.2754 24.6854C50.8965 22.5346 50.9124 22.4355 51.6199 22.5325C51.8696 22.5667 52.2644 22.5947 52.4974 22.5947ZM82.1826 22.9528C82.2808 23.2086 82.2521 24.4945 82.1482 24.4945C82.0612 24.4945 81.3434 23.3071 81.3434 23.1632C81.3434 23.0847 81.8548 22.804 82.0076 22.7986C82.0705 22.7964 82.1492 22.8658 82.1826 22.9528ZM99.0419 24.0182C98.6858 24.1458 98.113 24.2343 97.417 24.2691C96.8259 24.2986 96.3421 24.3526 96.3421 24.389C96.3421 24.496 96.9756 25.0598 97.1742 25.1297C97.2744 25.1648 97.5586 25.1427 97.8057 25.0805C98.4221 24.9254 98.5116 25.0291 98.3542 25.7161C98.1833 26.4626 97.7912 26.982 97.143 27.3206C96.6484 27.579 96.5147 27.6034 95.6952 27.5849C94.8481 27.5659 94.7903 27.5775 94.761 27.7736C94.7389 27.9219 94.8174 28.0279 95.031 28.1384C95.4342 28.3469 95.9618 28.3347 96.9608 28.0936C98.0759 27.8246 99.5641 27.7436 100.835 27.8829C101.666 27.9741 101.895 27.9716 101.96 27.8707C102.244 27.4309 101.396 26.977 100.17 26.9127L99.3315 26.8687L99.4019 26.5565C99.4975 26.1328 99.4706 25.2833 99.3518 24.9708C99.2983 24.8302 99.2817 24.6879 99.3149 24.6548C99.348 24.6216 99.6321 24.5945 99.9462 24.5945C100.816 24.5945 101 24.234 100.283 23.9343C99.8691 23.7615 99.7326 23.7708 99.0419 24.0182ZM66.5091 25.1283C66.0691 25.9901 65.8838 26.82 66.0109 27.3604C66.0931 27.7103 66.1334 27.7469 66.4669 27.7749C66.7659 27.8 66.8627 27.7596 66.9978 27.5533C67.2137 27.2239 68.0277 25.357 67.9796 25.3017C67.9591 25.2782 67.8079 25.3879 67.6436 25.5454L67.3446 25.8318V25.478C67.3446 25.0383 67.1725 24.5266 67.0026 24.4614C66.9222 24.4306 66.7384 24.6789 66.5091 25.1283ZM71.898 24.5817L71.6018 24.6451L72.314 25.4533C73.3014 26.5738 73.6019 26.8117 73.983 26.7746C74.2858 26.7451 74.2948 26.7297 74.3234 26.1907C74.3468 25.7476 74.3067 25.5677 74.1225 25.2907C73.6992 24.6539 72.8395 24.3798 71.898 24.5817ZM63.6823 34.7625C62.878 34.9204 62.6983 36.4939 63.4394 36.8904C63.6924 37.0259 64.5328 37.022 64.9299 36.8836C65.2254 36.7806 65.2448 36.7436 65.2448 36.2837V35.7935H64.6875C64.2107 35.7935 64.1351 35.8188 64.1636 35.9685C64.1819 36.0648 64.2977 36.1579 64.4208 36.1755C64.7541 36.223 64.6916 36.4673 64.3256 36.5477C64.0656 36.6048 63.9729 36.5764 63.8257 36.3946C63.6251 36.1469 63.5896 35.6837 63.7484 35.387C63.8645 35.17 64.2481 35.1314 64.5311 35.3082C64.6338 35.3724 64.8323 35.3933 64.9819 35.3558C65.2059 35.2996 65.233 35.2584 65.1491 35.1017C64.9781 34.7821 64.3376 34.634 63.6823 34.7625ZM81.1451 34.8222C81.0085 34.8913 80.8519 35.0753 80.7971 35.2311C80.7098 35.4794 80.7314 35.5435 80.972 35.7505C81.123 35.8804 81.4287 36.0357 81.6513 36.0956C81.9472 36.1753 82.0472 36.2501 82.0235 36.374C81.9804 36.6002 81.5375 36.6581 81.4225 36.4525C81.3687 36.3564 81.2007 36.2935 80.9978 36.2935C80.7097 36.2935 80.6696 36.3223 80.7152 36.4966C80.8008 36.8239 81.1437 36.9934 81.7202 36.9934C82.9278 36.9934 83.1185 35.8965 81.9692 35.5614C81.7135 35.4868 81.4867 35.3736 81.4654 35.3097C81.4008 35.1157 81.7391 35.0587 81.9299 35.2315C82.1412 35.4227 82.644 35.4489 82.6418 35.2686C82.636 34.7998 81.7259 34.5283 81.1451 34.8222ZM90.8814 34.7916C90.4874 34.9508 90.2426 35.3812 90.2426 35.9147C90.2426 36.3276 90.2907 36.457 90.5349 36.7012C90.7891 36.9552 90.901 36.9934 91.3925 36.9934C91.8841 36.9934 91.996 36.9552 92.2502 36.7012C92.4969 36.4544 92.5424 36.3294 92.5424 35.8977C92.5424 35.6021 92.4763 35.2857 92.3858 35.1476C92.1315 34.7593 91.3934 34.5847 90.8814 34.7916ZM104.089 34.8332C103.719 34.9945 103.541 35.3581 103.541 35.9559C103.541 36.3232 103.597 36.4642 103.834 36.7012C104.088 36.9552 104.2 36.9934 104.691 36.9934C105.183 36.9934 105.295 36.9552 105.549 36.7012C105.788 36.4624 105.841 36.3243 105.841 35.9462C105.841 35.6918 105.775 35.3558 105.694 35.1995C105.455 34.7372 104.703 34.5656 104.089 34.8332ZM118.39 34.7655C117.62 34.9532 117.436 36.1792 118.087 36.7902C118.274 36.9661 118.445 37.0165 118.854 37.0165C119.322 37.0165 119.413 36.9803 119.672 36.6905C119.978 36.3483 119.96 36.3001 119.478 36.1528C119.317 36.1038 119.252 36.1375 119.212 36.2907C119.14 36.5668 118.59 36.5735 118.444 36.3001C118.112 35.6798 118.723 34.8407 119.14 35.3436C119.278 35.5102 119.519 35.5354 119.725 35.4048C119.931 35.2743 119.708 34.9367 119.327 34.8041C119.002 34.6907 118.741 34.68 118.39 34.7655ZM120.642 34.8166C120.505 34.8888 120.349 35.0753 120.294 35.2311C120.206 35.4794 120.228 35.5435 120.469 35.7505C120.62 35.8804 120.925 36.0357 121.148 36.0956C121.444 36.1753 121.544 36.2501 121.52 36.374C121.477 36.6011 120.96 36.6624 120.879 36.4502C120.841 36.3517 120.696 36.2935 120.489 36.2935C120.206 36.2935 120.166 36.3228 120.212 36.4966C120.297 36.8239 120.64 36.9934 121.217 36.9934C121.649 36.9934 121.795 36.9471 121.994 36.748C122.47 36.2722 122.241 35.7906 121.423 35.5496C121.172 35.4756 120.976 35.3528 120.958 35.2577C120.916 35.0454 121.323 35.0325 121.404 35.2436C121.478 35.4375 122.14 35.4515 122.14 35.2591C122.14 34.848 121.141 34.5528 120.642 34.8166ZM135.378 34.8366C134.717 35.1244 134.907 35.7673 135.735 36.0422C136.107 36.1658 136.239 36.2598 136.239 36.4015C136.239 36.6384 135.825 36.6674 135.639 36.4435C135.57 36.361 135.366 36.2935 135.186 36.2935C134.905 36.2935 134.865 36.3229 134.911 36.4966C134.998 36.8315 135.338 36.9934 135.954 36.9934C136.451 36.9934 136.551 36.9596 136.731 36.73C137.14 36.2099 136.923 35.7859 136.127 35.5509C135.892 35.4814 135.682 35.3726 135.661 35.3091C135.596 35.1155 135.935 35.0589 136.125 35.2315C136.337 35.4227 136.839 35.4489 136.837 35.2686C136.835 35.0592 136.698 34.9113 136.405 34.7999C136.04 34.6609 135.759 34.6709 135.378 34.8366ZM142.686 34.8332C142.315 34.9945 142.138 35.3581 142.138 35.9559C142.138 36.3232 142.193 36.4642 142.43 36.7012C142.685 36.9552 142.797 36.9934 143.288 36.9934C143.78 36.9934 143.892 36.9552 144.146 36.7012C144.384 36.4624 144.438 36.3243 144.438 35.9462C144.438 35.6918 144.372 35.3558 144.291 35.1995C144.052 34.7372 143.3 34.5656 142.686 34.8332ZM156.87 34.8394C156.47 35.0133 156.337 35.2611 156.337 35.8322C156.337 36.6888 156.671 37.0306 157.494 37.0182C158.214 37.0073 158.741 36.4065 158.212 36.1986C158.038 36.1304 157.956 36.1539 157.85 36.3018C157.667 36.5566 157.177 36.5555 157.04 36.3001C156.702 35.6683 157.312 34.8313 157.737 35.3436C157.875 35.5102 158.116 35.5354 158.322 35.4048C158.528 35.2743 158.304 34.9367 157.924 34.8041C157.514 34.6611 157.26 34.6695 156.87 34.8394ZM159.337 34.7593C158.528 35.085 158.762 35.831 159.756 36.0987C160.042 36.1757 160.14 36.2508 160.117 36.374C160.074 36.6011 159.557 36.6624 159.475 36.4502C159.407 36.2731 158.737 36.2257 158.737 36.398C158.737 36.4555 158.847 36.613 158.982 36.748C159.181 36.9471 159.328 36.9934 159.76 36.9934C160.368 36.9934 160.683 36.8208 160.78 36.4352C160.878 36.0433 160.616 35.7228 160.067 35.5625C159.809 35.4873 159.58 35.3736 159.559 35.3097C159.494 35.1157 159.832 35.0587 160.023 35.2315C160.242 35.4292 160.737 35.4484 160.737 35.2591C160.737 34.902 159.807 34.5699 159.337 34.7593ZM49.0462 36.9934H49.3413C49.6336 36.9934 49.6369 36.9872 49.6663 36.3685L49.6961 35.7435L50.1248 36.3685C50.5115 36.9322 50.5874 36.9934 50.8997 36.9934H51.246V34.7936H50.556L50.496 35.9331L50.1045 35.3634C49.7603 34.8626 49.6725 34.7936 49.3795 34.7936H49.0462V36.9934ZM52.2383 35.0686C52.1819 35.2199 52.0304 35.6135 51.9017 35.9435C51.4828 37.017 51.4831 36.9934 51.8892 36.9934C52.1274 36.9934 52.2459 36.9471 52.2459 36.8541C52.2459 36.5449 52.9835 36.4964 53.169 36.7934C53.2523 36.9267 53.4022 36.9934 53.6188 36.9934H53.9436L53.6367 36.1685C53.4678 35.7148 53.2839 35.2199 53.228 35.0686C53.1406 34.8326 53.0706 34.7936 52.7335 34.7936C52.3968 34.7936 52.3264 34.8327 52.2383 35.0686ZM54.2457 36.9934H54.5457C54.8427 36.9934 54.8457 36.9878 54.8457 36.4435C54.8457 36.141 54.8843 35.8935 54.9315 35.8935C54.9788 35.8935 55.1816 36.141 55.3825 36.4435C55.709 36.9352 55.7845 36.9934 56.0966 36.9934H56.4455V34.7936H55.7556L55.6956 35.9435L55.3109 35.3686C54.9683 34.8566 54.889 34.7936 54.586 34.7936H54.2457V36.9934ZM57.8454 35.6435C57.8454 36.3646 57.8205 36.4935 57.6814 36.4935C57.5912 36.4935 57.4657 36.4228 57.4025 36.3363C57.2792 36.1676 56.7455 36.2282 56.7455 36.4109C56.7455 36.8624 57.4286 37.1805 57.9962 36.9931C58.4696 36.8369 58.5453 36.6517 58.5453 35.6501V34.7936H57.8454V35.6435ZM59.1453 36.9934H59.8452V34.7936H59.1453V36.9934ZM60.3452 36.9934H60.6452C60.9421 36.9934 60.9451 36.9878 60.9451 36.4435C60.9451 36.141 60.9837 35.8935 61.0309 35.8935C61.0782 35.8935 61.2811 36.141 61.482 36.4435C61.8085 36.9352 61.884 36.9934 62.196 36.9934H62.545V34.7936H61.8551L61.7951 35.9435L61.4104 35.3686C61.0678 34.8566 60.9884 34.7936 60.6855 34.7936H60.3452V36.9934ZM66.8446 35.6761C66.8446 36.4845 66.8653 36.5781 67.0907 36.7897C67.2849 36.9721 67.4561 37.0227 67.9019 37.0291C68.4008 37.0363 68.4951 37.0048 68.7058 36.7598C68.9166 36.5147 68.9445 36.3838 68.9445 35.6379V34.7936H68.3445V35.4854C68.3445 36.365 68.2926 36.4935 67.9373 36.4935C67.5565 36.4935 67.4446 36.2566 67.4446 35.4502V34.7936H66.8446V35.6761ZM69.5444 36.9934H69.8444C70.1422 36.9934 70.1444 36.9892 70.1444 36.4313C70.1444 35.7815 70.2289 35.7986 70.7 36.5439C70.9431 36.9284 71.0319 36.9934 71.3141 36.9934H71.6442V34.7936H71.3442C71.0473 34.7936 71.0443 34.7992 71.0443 35.3436C71.0443 35.646 71.0105 35.8933 70.9693 35.893C70.9281 35.8927 70.7368 35.6454 70.5443 35.3436C70.2379 34.8631 70.1538 34.7946 69.8694 34.7941L69.5444 34.7936V36.9934ZM72.2442 36.9934H72.8441V34.7936H72.2442V36.9934ZM73.5532 35.6185C73.722 36.0722 73.9059 36.5672 73.9618 36.7185C74.0484 36.9524 74.1203 36.9934 74.444 36.9934C74.7677 36.9934 74.8395 36.9524 74.9261 36.7185C74.982 36.5672 75.1659 36.0722 75.3348 35.6185L75.6418 34.7936H75.3027C74.9681 34.7936 74.9605 34.8035 74.7309 35.5436C74.6028 35.956 74.4747 36.2931 74.446 36.2926C74.4174 36.292 74.2916 35.9545 74.1665 35.5427C73.9406 34.7985 73.9368 34.7936 73.5926 34.7936H73.2462L73.5532 35.6185ZM75.9439 36.9934H76.8938C77.8404 36.9934 77.8437 36.9925 77.8437 36.7435C77.8437 36.5046 77.817 36.4935 77.2437 36.4935C76.7158 36.4935 76.6438 36.4701 76.6438 36.2987C76.6438 36.1343 76.7255 36.0992 77.1688 36.0737C77.6261 36.0474 77.6978 36.0145 77.7257 35.8185C77.7555 35.6083 77.721 35.5935 77.2007 35.5935C76.7105 35.5935 76.6438 35.5697 76.6438 35.3936C76.6438 35.2158 76.7105 35.1936 77.2437 35.1936C77.777 35.1936 77.8437 35.1714 77.8437 34.9936C77.8437 34.8076 77.777 34.7936 76.8938 34.7936H75.9439V36.9934ZM78.3436 36.9934H78.6436C78.9325 36.9934 78.9436 36.9767 78.9436 36.5435C78.9436 36.2159 78.9833 36.0935 79.0894 36.0935C79.1696 36.0935 79.3538 36.296 79.4988 36.5435C79.7294 36.937 79.8052 36.9934 80.103 36.9934C80.2903 36.9934 80.4433 36.9596 80.4431 36.9184C80.4426 36.8101 80.0354 36.1544 79.9249 36.0839C79.8736 36.0511 79.9468 35.9488 80.0875 35.8566C80.2649 35.7404 80.3435 35.5997 80.3435 35.3984C80.3435 34.9044 80.1316 34.7936 79.1865 34.7936H78.3436V36.9934ZM83.1432 36.9934H83.8432V34.7936H83.1432V36.9934ZM84.2431 35.0436C84.2431 35.2626 84.2864 35.2936 84.5931 35.2936H84.9431V36.9934H85.643V35.2936H85.993C86.2997 35.2936 86.343 35.2626 86.343 35.0436V34.7936H84.2431V35.0436ZM86.9392 35.3881C87.2792 35.8887 87.3429 36.0623 87.3429 36.488V36.9934H87.6928C88.0396 36.9934 88.0428 36.9894 88.0428 36.5549C88.0428 36.2097 88.128 35.9887 88.4428 35.5174C88.6628 35.1879 88.8427 34.8903 88.8427 34.856C88.8427 34.8217 88.6865 34.7936 88.4954 34.7936C88.2105 34.7936 88.12 34.8476 87.9928 35.0936C87.9075 35.2586 87.7964 35.3936 87.7459 35.3936C87.6954 35.3936 87.5744 35.2586 87.477 35.0936C87.3293 34.8435 87.2362 34.7936 86.9176 34.7936H86.5355L86.9392 35.3881ZM93.0424 36.9934H93.3424C93.6312 36.9934 93.6423 36.9767 93.6423 36.5435V36.0935H94.0923C94.5056 36.0935 94.5423 36.0731 94.5423 35.8435C94.5423 35.6133 94.5061 35.5935 94.085 35.5935C93.7034 35.5935 93.6331 35.5646 93.6609 35.4186C93.6866 35.2833 93.8132 35.2367 94.2182 35.2134C94.6606 35.1879 94.7422 35.1528 94.7422 34.9884C94.7422 34.8106 94.668 34.7936 93.8923 34.7936H93.0424V36.9934ZM96.5481 35.6132C96.3762 36.0699 96.192 36.5469 96.1388 36.6732C96.0035 36.9945 96.0026 36.9934 96.3921 36.9934C96.6246 36.9934 96.7421 36.9466 96.7421 36.8541C96.7421 36.5374 97.5935 36.483 97.692 36.7934C97.7395 36.9432 97.8433 36.9934 98.1055 36.9934C98.5096 36.9934 98.5166 37.0701 97.9865 35.6935L97.6591 34.8436L96.8607 34.783L96.5481 35.6132ZM98.7419 36.9934H99.6918C100.638 36.9934 100.642 36.9925 100.642 36.7435C100.642 36.5046 100.615 36.4935 100.042 36.4935C99.5138 36.4935 99.4418 36.4701 99.4418 36.2987C99.4418 36.1343 99.5235 36.0992 99.9668 36.0737C100.424 36.0474 100.496 36.0145 100.524 35.8185C100.554 35.6083 100.519 35.5935 99.9988 35.5935C99.5085 35.5935 99.4418 35.5697 99.4418 35.3936C99.4418 35.2158 99.5085 35.1936 100.042 35.1936C100.575 35.1936 100.642 35.1714 100.642 34.9936C100.642 34.8076 100.575 34.7936 99.6918 34.7936H98.7419V36.9934ZM101.142 36.9934H101.442C101.731 36.9934 101.742 36.9775 101.742 36.5362C101.742 36.1558 101.771 36.0845 101.915 36.1123C102.011 36.1307 102.194 36.3365 102.323 36.5696C102.527 36.94 102.6 36.9934 102.899 36.9934C103.087 36.9934 103.241 36.9596 103.241 36.9184C103.241 36.8101 102.833 36.1544 102.723 36.0839C102.672 36.0511 102.745 35.9488 102.886 35.8566C103.063 35.7404 103.142 35.5997 103.142 35.3984C103.142 34.9044 102.93 34.7936 101.985 34.7936H101.142V36.9934ZM106.341 36.9934H106.636C106.927 36.9934 106.932 36.9847 106.961 36.3915L106.991 35.7894L107.391 36.3887C107.742 36.9139 107.831 36.9882 108.116 36.9906L108.441 36.9934V34.7936H108.141C107.843 34.7936 107.841 34.7978 107.841 35.3558C107.841 36.0071 107.745 35.9865 107.269 35.234C107.034 34.8613 106.941 34.7939 106.666 34.7938L106.341 34.7936V36.9934ZM108.78 36.9434L109.085 36.9765C109.306 37.0006 109.427 36.9529 109.527 36.8016C109.715 36.5191 110.291 36.514 110.441 36.7934C110.558 37.0127 111.141 37.0817 111.141 36.8763C111.141 36.8119 110.972 36.3179 110.766 35.7783L110.391 34.7974L109.582 34.7936L108.78 36.9434ZM111.541 35.6761C111.541 36.4845 111.561 36.5781 111.787 36.7897C111.981 36.9721 112.152 37.0227 112.598 37.0291C113.097 37.0363 113.191 37.0048 113.402 36.7598C113.613 36.5147 113.641 36.3838 113.641 35.6379V34.7936H113.041V35.5236C113.041 36.3034 112.949 36.4935 112.574 36.4935C112.258 36.4935 112.141 36.2123 112.141 35.4502V34.7936H111.541V35.6761ZM114.041 35.0436C114.041 35.2626 114.084 35.2936 114.391 35.2936H114.741V36.9934H115.44V35.2936H115.79C116.097 35.2936 116.14 35.2626 116.14 35.0436V34.7936H114.041V35.0436ZM116.54 36.9934H117.24V34.7936H116.54V36.9934ZM123.915 35.8202C123.708 36.383 123.54 36.8772 123.54 36.9184C123.54 36.9596 123.673 36.9934 123.836 36.9934C124.03 36.9934 124.17 36.9244 124.24 36.7934C124.389 36.5143 124.976 36.5188 125.173 36.8006C125.276 36.9476 125.404 36.9983 125.614 36.9755L125.909 36.9434L125.117 34.7936L124.29 34.797L123.915 35.8202ZM126.24 36.9934H126.54C126.836 36.9934 126.839 36.9878 126.839 36.4435C126.839 36.141 126.873 35.894 126.914 35.8947C126.956 35.8953 127.161 36.1428 127.37 36.4447C127.707 36.9295 127.792 36.9934 128.095 36.9934H128.439V34.7936H127.749L127.689 35.9435L127.3 35.3686C126.956 34.86 126.872 34.7936 126.575 34.7936H126.24V36.9934ZM128.939 37.0146L129.749 36.9778C130.45 36.946 130.584 36.9099 130.746 36.7102C131.124 36.2435 131.119 35.5489 130.734 35.0598C130.539 34.8115 130.471 34.7936 129.732 34.7936H128.939V37.0146ZM133.046 35.0186C132.526 36.3484 132.339 36.851 132.339 36.9161C132.339 37.0793 132.902 36.9842 133.066 36.7934C133.294 36.5266 133.783 36.5305 133.973 36.8006C134.076 36.9486 134.203 36.9985 134.418 36.9755L134.718 36.9434L133.906 34.7936H133.52C133.212 34.7936 133.116 34.8393 133.046 35.0186ZM137.157 35.0186C137.182 35.1993 137.262 35.2497 137.564 35.2746L137.939 35.3057V36.9934H138.53L138.588 35.3436L138.963 35.3126C139.286 35.2859 139.338 35.2473 139.338 35.0376C139.338 34.7936 139.338 34.7936 138.232 34.7936C137.141 34.7936 137.125 34.7969 137.157 35.0186ZM139.738 36.9934H140.038C140.328 36.9934 140.338 36.9775 140.338 36.5362C140.338 36.1546 140.367 36.0844 140.513 36.1125C140.609 36.131 140.781 36.3256 140.894 36.5448C141.071 36.8865 141.153 36.9478 141.469 36.9744C141.672 36.9915 141.838 36.969 141.838 36.9244C141.837 36.8117 141.433 36.1565 141.32 36.0839C141.268 36.0511 141.342 35.9488 141.482 35.8566C141.66 35.7404 141.738 35.5997 141.738 35.3984C141.738 34.9044 141.526 34.7936 140.581 34.7936H139.738V36.9934ZM144.838 36.9934H145.528L145.588 35.7479L145.988 36.3698C146.343 36.922 146.424 36.9917 146.713 36.9925L147.038 36.9934V34.7936H146.738C146.441 34.7936 146.438 34.7992 146.438 35.3436C146.438 35.646 146.404 35.8917 146.363 35.8895C146.322 35.8872 146.13 35.6401 145.938 35.3403C145.616 34.8397 145.557 34.7951 145.213 34.7944L144.838 34.7936V36.9934ZM148.063 35.1186C148.003 35.2973 147.82 35.7922 147.656 36.2185L147.358 36.9934H147.674C147.881 36.9934 148.032 36.9248 148.114 36.7934C148.194 36.6657 148.348 36.5935 148.539 36.5935C148.716 36.5935 148.91 36.676 149.011 36.7934C149.173 36.983 149.735 37.0792 149.74 36.9184C149.741 36.8772 149.573 36.3825 149.365 35.819L148.988 34.7945L148.579 34.7941C148.208 34.7936 148.162 34.8226 148.063 35.1186ZM150.137 35.6761C150.137 36.485 150.158 36.578 150.384 36.7903C150.581 36.9753 150.743 37.022 151.187 37.022C151.632 37.022 151.794 36.9753 151.991 36.7903C152.217 36.578 152.237 36.485 152.237 35.6761V34.7936H151.637V35.4502C151.637 36.2123 151.521 36.4935 151.204 36.4935C150.829 36.4935 150.737 36.3034 150.737 35.5236V34.7936H150.137V35.6761ZM152.637 35.0436C152.637 35.2626 152.681 35.2936 152.987 35.2936H153.337V36.9934H154.037V35.2936H154.387C154.694 35.2936 154.737 35.2626 154.737 35.0436V34.7936H152.637V35.0436ZM155.137 36.9934H155.837V34.7936H155.137V36.9934ZM79.6112 35.3537C79.683 35.5407 79.488 35.6898 79.1686 35.692C78.9949 35.6932 78.9436 35.6365 78.9436 35.4436C78.9436 35.2319 78.9901 35.1936 79.2467 35.1936C79.4324 35.1936 79.5736 35.2556 79.6112 35.3537ZM91.8205 35.5151C91.9082 35.6987 91.9227 35.8926 91.8655 36.115C91.7939 36.3934 91.73 36.4484 91.4472 36.4759C91.2477 36.4953 91.0798 36.4551 91.0296 36.3759C90.9112 36.1892 90.9225 35.6178 91.0493 35.381C91.2052 35.0895 91.6548 35.1677 91.8205 35.5151ZM102.409 35.3537C102.481 35.5407 102.286 35.6898 101.967 35.692C101.793 35.6932 101.742 35.6365 101.742 35.4436C101.742 35.2319 101.788 35.1936 102.045 35.1936C102.23 35.1936 102.372 35.2556 102.409 35.3537ZM105.127 35.5304C105.223 35.7318 105.237 35.9101 105.174 36.1303C105.098 36.3982 105.032 36.4479 104.722 36.474C104.417 36.4997 104.347 36.4676 104.285 36.2745C104.179 35.9401 104.21 35.5021 104.351 35.3316C104.548 35.0947 104.971 35.2031 105.127 35.5304ZM130.156 35.3591C130.366 35.5493 130.406 36.1867 130.219 36.3735C130.153 36.4395 129.973 36.4935 129.819 36.4935C129.545 36.4935 129.539 36.4824 129.539 35.9102C129.539 35.5893 129.569 35.2969 129.606 35.2603C129.722 35.144 129.967 35.188 130.156 35.3591ZM141.006 35.3537C141.078 35.5407 140.883 35.6898 140.563 35.692C140.39 35.6932 140.338 35.6365 140.338 35.4436C140.338 35.2319 140.385 35.1936 140.641 35.1936C140.827 35.1936 140.968 35.2556 141.006 35.3537ZM143.632 35.3358C143.698 35.4154 143.736 35.6906 143.719 35.9607L143.688 36.4435H142.888L142.857 35.9607C142.823 35.4213 142.951 35.1936 143.288 35.1936C143.412 35.1936 143.567 35.2576 143.632 35.3358ZM52.9064 35.8716C52.9653 36.166 52.9493 36.1935 52.7189 36.1935C52.4743 36.1935 52.4701 36.182 52.5703 35.7873C52.6832 35.3421 52.8067 35.373 52.9064 35.8716ZM97.435 35.9685C97.44 36.1292 97.3848 36.1935 97.242 36.1935C97.0161 36.1935 96.9913 36.0352 97.153 35.625C97.2562 35.3635 97.2698 35.3578 97.346 35.5436C97.3911 35.6535 97.4311 35.8448 97.435 35.9685ZM110.236 36.0685C110.239 36.1373 110.128 36.1935 109.991 36.1935C109.706 36.1935 109.696 36.1529 109.859 35.6846L109.977 35.346L110.105 35.6447C110.175 35.809 110.234 35.9998 110.236 36.0685ZM124.935 36.0685C124.938 36.1373 124.824 36.1935 124.683 36.1935C124.412 36.1935 124.416 36.2249 124.614 35.5436C124.665 35.3654 124.686 35.3763 124.801 35.6435C124.872 35.8085 124.933 35.9998 124.935 36.0685ZM133.686 35.8685C133.75 36.1706 133.736 36.1935 133.49 36.1935C133.263 36.1935 133.235 36.1615 133.29 35.9685C133.326 35.8448 133.378 35.6602 133.407 35.5585C133.474 35.3186 133.6 35.4579 133.686 35.8685ZM148.776 35.9185C148.835 36.1647 148.814 36.1935 148.582 36.1935C148.341 36.1935 148.327 36.1697 148.391 35.8685C148.518 35.2793 148.627 35.2935 148.776 35.9185Z" fill="#1D2088"/>
<path d="M19.6032 12.1736C19.5819 12.209 19.5678 12.2516 19.5536 12.287C19.5678 12.2941 19.5748 12.3012 19.589 12.3082C19.6953 12.2799 19.8016 12.209 19.9079 12.124C19.9008 12.1027 19.8937 12.0815 19.8866 12.0531C19.6882 11.9398 19.504 11.9256 19.2418 12.0602C19.3268 12.124 19.4969 12.1382 19.5961 12.1594C19.5961 12.1665 19.5961 12.1736 19.6032 12.1736ZM19.256 13.0806C19.2631 13.0948 19.2631 13.116 19.2702 13.1302C19.7024 13.2719 20.0354 12.5137 20.3543 12.2799C20.3543 12.2728 20.3543 12.2657 20.3614 12.2586C20.3543 12.2445 20.3401 12.2303 20.333 12.2161C20.2834 12.209 20.2338 12.1949 20.1913 12.1878C20.1772 12.1949 20.163 12.209 20.1488 12.2161C19.9787 12.5066 19.589 12.8964 19.256 13.0806ZM18.1506 13.8034C18.2498 13.8034 18.3419 13.7679 18.4694 13.6829L18.8946 14.3632C18.8592 14.519 18.4765 15.0859 18.2994 15.2064C18.2994 15.2135 18.3065 15.2135 18.3065 15.2206C18.3773 15.2702 18.4057 15.2702 18.4765 15.2914C18.7529 15.0788 18.7812 14.8096 19.008 14.5899C19.0222 14.597 19.0292 14.6041 19.0434 14.6112C19.1355 14.9159 19.5252 15.6315 19.6741 15.7449C19.7166 15.7307 19.7662 15.7166 19.8087 15.6953C19.9717 15.3127 19.5819 14.7883 19.3056 14.3773C19.3127 14.3773 19.3127 14.3702 19.3198 14.3702C19.5253 14.4128 19.6457 14.5899 19.8795 14.5616C20.0142 14.7458 20.1417 14.93 20.2764 15.1213C20.2693 15.1213 20.2693 15.1284 20.2622 15.1284C20.1559 15.093 20.0496 15.0576 19.9504 15.0221C19.9362 15.0151 19.9291 15.008 19.915 15.0009C19.9079 15.008 19.9079 15.008 19.9008 15.008C20.085 15.1851 20.411 15.426 20.6236 15.4969L20.7936 15.3056C20.7865 15.1355 19.7874 13.9593 19.589 13.6617L19.8441 13.2365C19.9079 13.2861 19.8866 13.279 19.9646 13.2648C20.163 13.7183 20.5173 14.1931 20.3543 14.5757C20.3614 14.5899 20.3756 14.6041 20.3826 14.6183C20.4322 14.6324 20.4818 14.6466 20.5385 14.6608C20.5527 14.6537 20.5669 14.6395 20.5811 14.6324C20.5952 14.2285 20.3968 13.6475 20.1205 13.2082C20.1417 13.1231 20.163 13.031 20.1842 12.946C20.1984 12.9389 20.2126 12.9247 20.2268 12.9176C20.6094 13.5624 20.9212 14.5474 21.7431 13.7963C21.8423 13.7042 21.899 13.612 21.9345 13.5128C21.8494 13.2436 21.6014 12.8397 21.3605 12.6625C21.3392 12.6555 21.3251 12.6484 21.3038 12.6413C21.3038 12.868 21.6652 13.2861 21.651 13.6191C21.5376 13.7396 21.3676 13.8671 21.1763 13.9805C20.7157 13.7609 20.3968 12.7476 20.2197 12.6625C20.1276 12.7759 20.1417 12.8893 20.0213 13.0097C19.9858 12.9885 19.9504 12.9601 19.915 12.9389H19.8512C19.8441 12.9814 19.837 13.031 19.8299 13.0735C19.8087 13.0877 19.7803 13.1019 19.7591 13.1231C19.7591 13.116 19.752 13.116 19.752 13.1089C19.752 13.1019 19.7449 13.1019 19.7449 13.0948C19.7945 13.0381 19.7874 13.0381 19.7945 12.9814C19.7803 12.9814 19.7662 12.9814 19.7591 12.9885C19.7095 13.0806 19.7024 13.0948 19.7591 13.1515C19.6103 13.2294 19.5678 13.3499 19.504 13.4774C19.3198 13.4207 19.008 12.9318 18.9938 12.7334C18.8804 12.7121 18.7812 12.6555 18.6537 12.6909C18.5686 12.7192 18.5616 12.7972 18.4978 12.8751C18.4411 12.6413 18.4836 12.4854 18.2498 12.3224C18.1647 12.3366 18.0868 12.3437 18.0018 12.3578C17.9522 12.4429 18.0372 13.6617 18.1222 13.7963C18.1293 13.7892 18.1435 13.7963 18.1506 13.8034ZM19.426 13.9451C19.5252 13.9805 19.6386 14.1647 19.7166 14.3065C19.7095 14.3065 19.7095 14.3136 19.7024 14.3136C19.5819 14.2569 19.4615 14.1931 19.341 14.1364C19.341 14.1293 19.3339 14.1293 19.3339 14.1222C19.3623 14.0655 19.3977 14.0018 19.426 13.9451ZM19.2702 13.6971C19.2843 13.7183 19.2914 13.7325 19.3056 13.7538C19.2702 13.8246 19.2276 13.8955 19.1922 13.9663C19.1639 13.9876 19.1355 14.0018 19.1001 14.023C19.0576 13.9309 19.0647 13.9238 19.008 13.8813C19.008 13.853 19.0151 13.8246 19.0151 13.7963C19.0363 13.7892 19.0576 13.7821 19.0859 13.775C19.0859 13.8459 19.0788 13.8601 19.1355 13.9451C19.171 13.8459 19.1639 13.7892 19.2702 13.6971ZM18.5757 13.2507C18.6253 13.1656 18.6253 13.116 18.7316 13.031C18.8663 13.1798 19.0009 13.3286 19.1426 13.4774C19.1072 13.5199 18.9655 13.5199 18.8875 13.5979L18.5261 13.3853C18.519 13.3144 18.512 13.2507 18.4978 13.1798C18.5757 13.1727 18.5332 13.1798 18.5757 13.2507ZM16.5988 24.2905C16.2516 24.0992 15.2737 23.5536 14.6997 23.6811C14.5155 23.9291 14.4517 24.2126 14.4305 24.6732C14.388 24.6732 14.3525 24.6661 14.31 24.6661C14.2958 24.6873 14.2817 24.7015 14.2604 24.7228C14.2179 24.907 14.3171 24.9991 14.3384 25.1125H14.3525C14.4092 25.0416 14.3596 24.9424 14.3242 24.8645C14.4021 24.822 14.4588 25.07 14.4801 25.2117C14.473 25.2188 14.4659 25.2329 14.4659 25.24C13.8353 25.0771 13.9911 24.6519 13.7502 24.1701C13.6227 24.1701 13.6085 24.1984 13.4951 24.2268C13.4526 24.3826 13.4384 24.5456 13.4101 24.6802V24.6944C13.4597 24.7015 13.4384 24.7015 13.481 24.6873C13.5093 24.7582 13.5306 24.8361 13.5235 24.9353C13.2967 24.9141 13.0629 24.8928 12.8291 24.8787C12.7511 24.9141 12.6661 24.9495 12.5881 24.9849C12.574 25.0133 12.5669 25.0416 12.5527 25.0771C13.1834 25.481 13.7219 24.8645 13.6298 26.0478L13.729 26.147C13.7715 26.1399 13.8211 26.1329 13.8636 26.1258C14.0762 26.0478 14.1258 25.7431 14.0974 25.481C14.5935 25.5447 14.6856 25.8353 14.6431 26.2462C14.7352 26.3384 14.8131 26.4305 14.9548 26.4801C15.1107 26.5297 16.2232 26.3454 16.3578 26.2958C16.3933 26.1754 16.4004 26.0407 16.3791 25.9345C16.2374 25.8707 16.0602 25.8849 15.9043 25.9345H15.8477C15.9185 25.7644 15.8547 25.5518 15.791 25.3818C15.9185 25.2896 16.2161 25.3463 16.4004 25.3251C16.4287 25.2755 16.4429 25.2259 16.4287 25.1621C16.372 25.155 16.1949 25.1479 16.1665 25.1125C16.372 24.8361 16.7051 24.7582 16.5988 24.2905ZM14.7848 25.4597H14.7706C14.6856 25.3463 14.7139 25.1692 14.6501 25.0275C14.6501 25.0062 14.6501 24.9849 14.6572 24.9637C14.7423 24.9849 14.8769 25.0629 14.9761 25.1337C15.0399 25.1833 15.0824 25.2259 15.0824 25.2613C15.1036 25.2542 15.1249 25.2471 15.1462 25.2329C15.1816 25.2755 15.1887 25.2613 15.2028 25.3251C15.0895 25.3251 14.9052 25.2967 14.8131 25.3605C14.7564 25.3818 14.7848 25.3959 14.7848 25.4597ZM14.8769 26.0478C14.8556 26.0337 14.8273 26.0124 14.806 25.9982C14.8273 25.8565 14.8556 25.7856 14.8415 25.6227C14.9903 25.6014 15.0966 25.5306 15.2099 25.4314C15.2383 25.5731 15.2737 25.7077 15.302 25.8494L15.3162 25.8636C15.3729 25.8353 15.3942 25.814 15.4296 25.7502C15.4934 25.6156 15.4154 25.4597 15.3942 25.3392C15.4438 25.3392 15.4934 25.3322 15.543 25.3322C15.6351 25.4526 15.6776 25.7715 15.6989 25.9345C15.4225 25.9699 15.1532 26.0053 14.8769 26.0478ZM16.0744 25.1267C15.9752 25.1337 15.876 25.1337 15.7768 25.1408C15.7059 24.9991 15.713 24.9283 15.6918 24.7865C15.7485 24.6661 15.6776 24.6094 15.5359 24.6519C15.5004 24.8078 15.5004 24.9849 15.5501 25.1267C15.4934 25.155 15.4579 25.1692 15.3587 25.1621C15.3304 25.0275 15.2879 24.907 15.295 24.7299C15.2879 24.7228 15.2737 24.7157 15.2666 24.7157C15.217 24.7157 15.1674 24.7228 15.1178 24.7228C15.0895 24.8149 15.1107 24.9495 15.1462 25.0275V25.0416C15.0399 25.0416 14.6856 24.7795 14.6076 24.6732C14.636 24.4818 14.6501 24.2338 14.6997 24.085C14.9973 23.9079 15.9327 24.3897 16.1949 24.496C16.2445 24.8078 16.1382 24.8716 16.0744 25.1267ZM30.7777 15.8866C30.8698 15.9504 30.9619 16.0142 31.0469 16.085L31.8902 13.7679L31.5855 13.6616L30.7777 15.8866ZM34.101 18.2888C34.2073 18.3384 34.3065 18.388 34.4128 18.4446L36.2409 16.8007L36.0283 16.5598L34.101 18.2888ZM26.3136 13.1869L26.5899 15.1497C26.6962 15.1213 26.7954 15.1001 26.9017 15.0788L26.6253 13.1444L26.3136 13.1869ZM34.9088 32.4889L35.1568 32.2834L34.2923 31.256C34.2214 31.341 34.1506 31.419 34.0726 31.4969L34.9088 32.4889ZM30.2462 15.5678C30.3454 15.6174 30.4376 15.674 30.5368 15.7307L31.1674 13.527L30.8556 13.442L30.2462 15.5678ZM33.5695 31.9433L34.2994 32.9495L34.5616 32.7582L33.8175 31.7378C33.7325 31.8016 33.6546 31.8725 33.5695 31.9433ZM36.2338 31.1993L35.0292 30.1151C34.9796 30.2143 34.93 30.3136 34.8733 30.4128L36.0142 31.4402L36.2338 31.1993ZM30.7919 11.1887C30.7919 11.1887 30.473 11.9539 30.147 12.3366C30.147 12.3366 30.0833 12.2799 30.1045 12.2232C30.1045 12.2232 29.899 12.5137 30.1045 12.5492C30.1045 12.5492 30.14 12.6554 30.4659 12.1665C30.4659 12.1665 30.5651 12.8255 30.7848 12.8822C30.7848 12.8822 30.9052 12.8822 30.9761 12.5846L31.5926 10.9619L31.7768 10.9123C31.7768 10.9123 31.961 11.0682 32.7121 11.0328C32.7121 11.0328 33.0523 11.0965 33.0877 11.1745C33.0877 11.1745 33.2082 11.1957 33.2648 11.1249C33.2648 11.1249 33.3074 10.884 32.7476 10.8769L31.9965 10.7493C31.9965 10.7493 31.6493 10.6572 31.7626 10.6147C31.7626 10.6147 31.9043 10.2391 32.0461 10.1541C32.0461 10.1541 32.1453 9.94154 31.9114 9.87068C31.9114 9.87068 31.543 9.80691 31.5146 9.88485L31.3871 10.0407C31.3871 10.0407 31.6493 9.87068 31.8618 10.062L31.4863 10.8981C31.4863 10.8981 31.1603 10.9619 31.0966 10.9973C31.0966 10.9973 30.9903 11.0328 31.1249 10.7706C31.1249 10.7706 31.2383 10.3667 31.3162 10.473C31.3162 10.473 31.4154 10.5864 31.2524 10.7635C31.2524 10.7635 31.3375 10.6926 31.3942 10.7706C31.3942 10.7706 31.5642 10.8698 31.5217 10.636C31.5217 10.636 31.5004 10.4588 31.3233 10.3454C31.3233 10.3454 31.2808 10.2321 31.3375 10.1045C31.3375 10.1045 31.3516 10.0478 31.302 9.99823C31.302 9.99823 32.0248 9.48804 32.1382 9.16209C32.1382 9.16209 32.1169 9.06289 32.0673 9.08415C32.0319 9.08415 32.039 9.11958 32.039 9.11958C32.039 9.11958 32.0744 9.16918 31.8335 9.39593C31.8335 9.39593 31.2241 9.89903 31.0399 9.94154C31.0399 9.94154 30.8981 10.1683 31.0966 10.0903C31.0966 10.0903 31.302 9.93446 31.2241 10.1895L30.8769 11.0044C30.8769 11.0044 30.2958 11.1603 30.0337 11.054C30.0337 11.054 30.1116 10.8981 30.1683 10.8981C30.1683 10.8981 29.8778 10.8556 29.8778 11.1603C29.8778 11.1461 29.8707 11.4296 30.7919 11.1887ZM30.5934 12.3649C30.5934 12.4623 30.563 11.9029 30.5934 12.3649ZM30.969 11.1532C30.969 11.1532 31.0399 11.2241 30.9903 11.6563C30.9903 11.6563 31.0966 11.7697 31.132 11.6563C31.132 11.6563 31.2099 11.3446 31.1249 11.1745C31.132 11.1391 31.1178 11.1391 31.1178 11.1391C31.1178 11.1391 31.3233 11.0328 31.3942 11.0328L31.4083 10.969L31.4579 10.9761C31.4579 10.9761 30.8485 12.4287 30.8273 12.5066L30.6997 12.4145C30.6997 12.4145 30.5722 12.0248 30.5722 11.9965C30.5722 11.9894 30.9194 11.3162 30.969 11.1532ZM33.279 14.4128L32.9956 14.264L31.6989 16.7015C31.7768 16.7865 31.8477 16.8787 31.9185 16.9708L33.279 14.4128ZM33.8459 18.1754L35.7166 16.2409L35.4827 16.0142L33.5128 18.0549C33.6262 18.0974 33.7325 18.1329 33.8459 18.1754ZM30.4305 13.3286L30.1187 13.2648L29.6865 15.3127C29.7857 15.3481 29.8919 15.3906 29.9911 15.4402L30.4305 13.3286ZM28.9212 13.0948L28.6023 13.0735L28.4677 15.0151C28.574 15.0292 28.6803 15.0434 28.7865 15.0647L28.9212 13.0948ZM28.1559 14.9867V13.0593H27.837V14.9867H27.8937C27.9858 14.9796 28.0709 14.9867 28.1559 14.9867ZM27.5323 14.9938L27.3977 13.0735L27.0788 13.0948L27.2135 15.0292C27.3127 15.0151 27.419 15.0009 27.5323 14.9938ZM29.6794 13.1869L29.3605 13.1444L29.0841 15.1284C29.1904 15.1568 29.2967 15.1851 29.3959 15.2135L29.6794 13.1869ZM32.4641 17.8494C32.5279 17.8565 32.5846 17.8636 32.6484 17.8707L34.5616 15.2418L34.2994 15.0505L32.3862 17.6864C32.4145 17.7431 32.4429 17.7998 32.4641 17.8494ZM33.2507 17.9841L35.1497 15.7166L34.9017 15.5111L32.8893 17.9061C33.0168 17.9274 33.1373 17.9557 33.2507 17.9841ZM32.2657 17.4739L33.9309 14.8025L33.6617 14.6324L32.0744 17.1763L32.2657 17.4739ZM33.031 10.1541C33.031 10.1541 32.946 10.0053 32.8043 9.89903C32.7688 9.87068 32.7688 9.93446 32.7688 9.93446C32.7688 9.93446 33.0097 10.2958 32.7688 10.5722L32.5775 10.5793C32.5775 10.5793 32.5421 10.6218 32.9105 10.721C32.9176 10.7139 33.279 10.6289 33.031 10.1541ZM32.8539 12.9672C32.7121 13.0523 32.2445 12.7972 32.2445 12.7972C32.0035 12.5775 32.4145 11.9398 32.4145 11.9398C32.4145 11.8406 32.783 11.4225 32.783 11.4225C32.7547 11.4154 32.6555 11.2808 32.6555 11.2808C32.535 11.2737 32.2728 11.3446 32.2728 11.3446L32.1098 11.2524C32.0815 11.2383 32.0815 11.3446 32.0815 11.3446C32.0319 11.3162 31.9114 11.4083 31.9114 11.4083C31.9114 11.4083 31.9256 11.5146 32.0106 11.4863C31.5855 12.3366 31.132 12.4287 31.132 12.4287C30.9903 12.4783 31.132 12.6342 31.132 12.6342C31.5075 12.6342 32.2232 11.5075 32.2232 11.5075C32.2586 11.465 32.5137 11.4792 32.5137 11.4792C32.4287 11.5784 32.1382 12.1807 32.1382 12.1807C31.8122 12.8043 32.0957 12.9035 32.0957 12.9035C32.8751 13.4066 33.1019 13.1231 33.1019 13.1231C33.4349 12.6129 33.2223 12.287 33.2223 12.287C33.2223 12.4429 32.8539 12.9672 32.8539 12.9672ZM34.512 30.9796L35.4827 31.9858L35.7166 31.7591L34.7033 30.7104C34.6395 30.8025 34.5757 30.8875 34.512 30.9796ZM31.8902 34.225L31.4154 32.9212C31.3091 32.9424 31.2028 32.9637 31.0895 32.9708L31.5855 34.3313L31.8902 34.225ZM30.1116 34.7352L30.4234 34.6714L30.0691 33.0062C29.9557 32.9991 29.8423 32.9849 29.7361 32.9708L30.1116 34.7352ZM31.1674 34.473L30.7493 33.0062C30.6501 33.0133 30.5509 33.0133 30.4446 33.0133H30.4163L30.8556 34.558L31.1674 34.473ZM35.1851 18.9619C35.2702 19.0328 35.3552 19.1036 35.4402 19.1816L37.1621 18.0195L36.9849 17.7502L35.1851 18.9619ZM34.6608 18.5864C34.76 18.643 34.8521 18.7068 34.9442 18.7706L36.7157 17.3818L36.5173 17.1267L34.6608 18.5864ZM18.4411 18.6643L20.1417 19.6492C20.2126 19.5642 20.2905 19.4863 20.3685 19.4083L18.6041 18.388L18.4411 18.6643ZM25.605 32.9353C25.4916 32.9353 25.3853 32.9282 25.2719 32.9212L24.8255 34.473L25.1373 34.5651L25.605 32.9353ZM24.1028 34.225L24.4074 34.3313L24.9389 32.8787C24.8326 32.8645 24.7263 32.8432 24.62 32.822L24.1028 34.225ZM26.271 32.8928C26.1577 32.907 26.0514 32.9141 25.938 32.9212L25.5695 34.6643L25.8813 34.7281L26.271 32.8928ZM36.992 23.8441L38.9407 23.7733L38.9265 23.4544L37.0416 23.5182C37.0275 23.6315 37.0133 23.7378 36.992 23.8441ZM37.0771 22.8875V22.9159C37.0771 23.0151 37.0771 23.1143 37.07 23.2135L38.8981 23.0221L38.8627 22.7033L37.0771 22.8875ZM37.0345 22.2427C37.0487 22.349 37.0558 22.4553 37.07 22.5616L38.806 22.2569L38.7493 21.938L37.0345 22.2427ZM31.2666 16.2693C31.3516 16.3472 31.4367 16.4252 31.5146 16.5031L32.5988 14.0726L32.3082 13.938L31.2666 16.2693ZM36.0709 19.8831C36.1346 19.9681 36.1984 20.0602 36.2551 20.1523L37.899 19.3516L37.7573 19.0611L36.0709 19.8831ZM35.6528 19.3942C35.7307 19.4721 35.8016 19.5571 35.8725 19.6422L37.5518 18.6714L37.3888 18.395L35.6528 19.3942ZM36.4252 20.4216C36.4748 20.5137 36.5314 20.6129 36.574 20.705L38.2037 20.0461L38.0833 19.7485L36.4252 20.4216ZM36.7015 21.0027C36.744 21.1019 36.7795 21.2011 36.8149 21.3074L38.4517 20.7759L38.3525 20.4712L36.7015 21.0027ZM22.4942 31.8441C22.4092 31.7803 22.3242 31.7095 22.2462 31.6386L21.4314 32.7582L21.6935 32.9495L22.4942 31.8441ZM21.9982 31.3977C21.9203 31.3198 21.8494 31.2418 21.7786 31.1568L20.8432 32.2764L21.0912 32.4818L21.9982 31.3977ZM18.0939 19.3446L19.7591 20.1594C19.8229 20.0673 19.8795 19.9823 19.9504 19.8902L18.2356 19.054L18.0939 19.3446ZM26.2994 15.2418L25.8813 13.2648L25.5695 13.3286L26.0018 15.3481C26.0939 15.3127 26.2002 15.2702 26.2994 15.2418ZM24.8255 13.527L25.4278 15.6244C25.5199 15.5748 25.6191 15.5182 25.7183 15.4756L25.1373 13.442L24.8255 13.527ZM24.1028 13.775L24.8964 15.9646C24.9885 15.9008 25.0735 15.837 25.1727 15.7803L24.4074 13.6687L24.1028 13.775ZM21.566 30.8946C21.5022 30.8096 21.4384 30.7175 21.3747 30.6253L20.2764 31.7591L20.5102 31.9858L21.566 30.8946ZM23.0469 32.2267C22.9548 32.1701 22.8627 32.1134 22.7777 32.0567L22.062 33.1975L22.3313 33.3676L23.0469 32.2267ZM20.8432 15.7236L22.7706 18.0266C22.8911 17.9982 23.0044 17.9699 23.1249 17.9486L21.0842 15.5182L20.8432 15.7236ZM19.2772 17.3888L21.0771 18.7989C21.1692 18.7352 21.2613 18.6714 21.3605 18.6147L19.4756 17.1408L19.2772 17.3888ZM18.8379 18.0124L20.5881 19.1887C20.6732 19.1107 20.7582 19.0399 20.8432 18.9761L19.0221 17.7431L18.8379 18.0124ZM20.2834 16.2409L22.1825 18.2108C22.2888 18.1683 22.4021 18.1329 22.5155 18.0974L20.5102 16.0213L20.2834 16.2409ZM19.7591 16.8007L21.6156 18.473C21.7148 18.4163 21.8211 18.3667 21.9274 18.3171L19.9787 16.5598L19.7591 16.8007ZM21.4384 15.2418L23.3233 17.8423C23.3729 17.736 23.4296 17.6298 23.4934 17.5235L21.6935 15.0505L21.4384 15.2418ZM19.7591 31.1993L19.9717 31.4402L21.1975 30.3348C21.1408 30.2356 21.0912 30.1435 21.0416 30.0372L19.7591 31.1993ZM36.907 21.612C36.9353 21.7183 36.9566 21.8175 36.9779 21.9238L38.6501 21.5058L38.5722 21.194L36.907 21.612ZM30.1612 35.8406L29.4951 38.4765L29.9061 38.4198L30.0833 37.6616L31.295 37.4845L31.7201 38.1577L32.1594 38.0939L30.6147 35.7768L30.1612 35.8406ZM30.1541 37.3428L30.4234 36.1807H30.4376L31.0824 37.2082L30.1541 37.3428ZM31.7626 32.8432L32.3082 34.062L32.5988 33.9345L32.0744 32.7511C31.9681 32.7865 31.8618 32.8149 31.7626 32.8432ZM29.4101 32.9141C29.2967 32.8928 29.1834 32.8645 29.0771 32.8291L29.3605 34.8556L29.6794 34.8131L29.4101 32.9141ZM33.279 32.1488C33.194 32.2126 33.1019 32.2693 33.0097 32.3189L33.6617 33.3605L33.9309 33.1904L33.279 32.1488ZM28.4393 32.6023L28.6023 34.9265L28.9212 34.9052L28.7724 32.7299C28.659 32.6944 28.5456 32.6519 28.4393 32.6023ZM32.4004 32.6236L32.9885 33.736L33.2719 33.5872L32.6909 32.4889C32.5988 32.5385 32.4996 32.581 32.4004 32.6236ZM23.9681 32.6519L23.4012 33.9274L23.6918 34.0549L24.2728 32.744C24.1736 32.7228 24.0673 32.6873 23.9681 32.6519ZM33.8459 34.6501L34.4057 37.3144L34.7458 37.0806L34.5686 36.3153L35.5749 35.6209L36.2551 36.039L36.6236 35.7839L34.2214 34.3809L33.8459 34.6501ZM34.2427 34.8273L35.2772 35.4721L34.4978 36.0035L34.2285 34.8415L34.2427 34.8273ZM26.0797 37.612C25.9451 38.0726 25.6121 38.2569 25.0735 38.1577C24.5562 38.0514 24.3578 37.775 24.4783 37.3215L24.8822 35.7555L24.457 35.6776L24.0248 37.3428C23.9043 37.9097 24.2232 38.271 24.9814 38.4269C25.7963 38.5545 26.2994 38.3277 26.4907 37.7325L26.9088 36.124L26.4836 36.0461L26.0797 37.612ZM23.3516 32.3897L22.7139 33.5802L22.9973 33.729L23.6422 32.5173C23.55 32.4889 23.4508 32.4393 23.3516 32.3897ZM27.837 32.4322V34.9407H28.1559V32.4677C28.0921 32.4322 28.0213 32.3968 27.9575 32.3614C27.9221 32.3897 27.8795 32.411 27.837 32.4322ZM27.0717 34.9052L27.3906 34.9265L27.5536 32.5527C27.4473 32.5952 27.3339 32.6377 27.2206 32.6732L27.0717 34.9052ZM26.3136 34.8131L26.6324 34.8556L26.93 32.7653C26.8167 32.7936 26.7104 32.822 26.597 32.8432L26.3136 34.8131ZM36.5952 25.0629L38.8627 25.3038L38.8981 24.9849L36.7299 24.7582C36.6873 24.8574 36.6448 24.9637 36.5952 25.0629ZM35.7237 15.0717C36.4677 15.7166 37.7361 15.178 37.7361 15.178C37.7644 15.2276 37.5802 16.0992 37.5802 16.0992C37.4739 16.4748 37.6014 16.7795 37.6014 16.7795C37.814 17.1621 37.899 17.2613 37.899 17.2613C37.9415 17.2117 38.0124 17.2117 38.0124 17.2117C38.0337 16.9353 37.9486 16.7724 37.9486 16.7724C37.7573 16.0425 38.0124 15.0576 38.0124 15.0576C38.0124 14.9584 38.1966 14.9159 38.1966 14.9159L38.4588 15.0434C38.5155 15.2205 38.6218 15.1851 38.6218 15.1851C38.6927 15.2914 38.7068 15.1993 38.7068 15.1993C38.8627 15.0647 38.6997 14.9159 38.6997 14.9159L38.4021 14.7316L38.7706 14.5049C39.0399 14.7316 39.1745 14.7104 39.1745 14.7104L39.2879 14.5545L39.3091 14.3702C39.2453 14.349 39.1391 14.1931 39.1391 14.1931C38.9832 14.1577 38.6785 13.8671 38.6785 13.8671C38.6785 13.8671 38.6005 13.8742 38.6076 13.9097C38.6076 13.9451 38.558 14.0159 38.558 14.0159C38.4588 14.1435 38.4942 14.1364 38.4942 14.1364C38.5297 14.1647 38.5226 14.2781 38.5226 14.2781C38.5155 14.4411 38.1754 14.597 38.1754 14.597C37.6085 14.1931 37.5589 14.1931 37.5589 14.1931C37.3321 14.0726 37.488 14.2356 37.488 14.2356C37.4455 14.3844 37.488 14.5474 37.488 14.5474C37.6723 14.6962 37.899 14.7741 37.899 14.7741C36.9849 15.2985 35.8299 14.9442 35.8299 14.9442C35.5111 14.8946 35.7237 15.0717 35.7237 15.0717ZM36.8361 24.4677L38.9336 24.5385L38.9477 24.2197L36.9353 24.1488C36.8999 24.2551 36.8645 24.3614 36.8361 24.4677ZM21.3463 36.4783L21.3534 33.9415L20.9283 33.6935L19.3127 35.9043L19.6528 36.1027L20.9637 34.3171L20.9779 34.3242L20.9849 36.8751L21.3818 37.1019L22.9973 34.8911L22.6572 34.6927L21.3463 36.4783ZM36.2905 25.6227L38.7493 26.0549L38.806 25.736L36.4677 25.3251C36.411 25.4314 36.3472 25.5306 36.2905 25.6227ZM28 40C36.8149 40 44 32.8149 44 24C44 15.1851 36.8149 8 28 8C19.1851 8 12 15.1851 12 24C11.9929 32.8149 19.1851 40 28 40ZM28 8.33304C36.6307 8.33304 43.667 15.3694 43.667 24C43.667 32.6306 36.6307 39.667 28 39.667C19.3694 39.667 12.333 32.6306 12.333 24C12.333 15.3694 19.3694 8.33304 28 8.33304ZM39.0824 19.713C39.0824 19.713 39.1532 19.791 39.1178 19.8618C39.1178 19.8618 39.2383 20.1027 39.6634 20.2657C39.6634 20.2657 40.4429 20.3012 40.5917 20.2586C40.5917 20.2586 39.8122 21.4136 39.9256 21.7183L39.9185 21.9663C39.9185 21.9663 39.961 21.9451 39.9469 22.0585C39.9469 22.0585 40.0319 22.0726 40.0461 22.0868C40.0461 22.0868 40.0815 22.0939 40.0815 22.0372C40.0815 21.9805 40.1311 21.2011 40.7405 20.2728L40.8468 20.2516C40.8468 20.2516 41.1727 20.4712 41.357 20.8893C41.357 20.8893 41.4987 20.8751 41.4845 20.7263C41.4845 20.7263 41.4136 20.5917 41.4349 20.4429C41.4349 20.4429 41.4703 20.3578 41.3357 20.5421L41.1019 20.209C41.1019 20.209 41.0168 20.1594 41.4916 20.0673C41.4916 20.0673 42.1222 19.9043 42.1577 19.8477C42.1577 19.8477 42.2569 19.7059 42.1081 19.7201C42.0655 19.713 42.0301 19.7201 42.0301 19.7201C42.0301 19.7201 41.1585 20.039 40.9814 20.0106L40.5775 19.1957C40.5775 19.1957 40.4074 19.3091 40.45 19.5996C40.45 19.5996 40.7617 20.039 40.6625 20.0815C40.6625 20.0815 39.4863 20.3153 39.1674 19.5926L39.0824 19.713ZM35.4969 28.5137L37.3959 29.612L37.5589 29.3357L35.5323 28.1665C35.5182 28.2799 35.5111 28.4004 35.4969 28.5137ZM35.171 29.8105L36.5244 30.8663L36.7228 30.6112L35.2914 29.4916C35.2489 29.5979 35.2135 29.7042 35.171 29.8105ZM35.5252 27.8547L37.7573 28.946L37.899 28.6554L35.504 27.4863C35.5182 27.6067 35.5252 27.7272 35.5252 27.8547ZM35.915 26.1399L38.5722 26.806L38.6501 26.4942L36.1276 25.8636C36.0638 25.9557 35.9929 26.0478 35.915 26.1399ZM35.3764 29.1727L36.9779 30.2569L37.155 29.9876L35.4473 28.8326C35.426 28.946 35.4048 29.0593 35.3764 29.1727ZM35.4756 27.1957L38.0833 28.2515L38.2037 27.9539L35.4048 26.8202C35.4331 26.9407 35.4544 27.0682 35.4756 27.1957ZM35.4827 26.6005L38.3525 27.5359L38.4517 27.2312L35.7307 26.3454C35.6528 26.4305 35.5749 26.5155 35.4827 26.6005ZM17.1019 23.0151L18.93 23.2064C18.9229 23.1213 18.9229 23.0363 18.9229 22.9513V22.8804L17.1373 22.6962L17.1019 23.0151ZM17.194 22.2569L18.93 22.5616C18.9371 22.4553 18.9513 22.349 18.9655 22.2427L17.2507 21.938L17.194 22.2569ZM14.3313 18.2675C14.3313 18.2675 14.5793 18.1754 14.6147 18.2108C14.6147 18.2108 14.6501 18.3596 14.6218 18.721C14.6218 18.721 14.6714 18.8415 14.6856 18.4163C14.6856 18.4163 14.721 18.4872 14.7848 18.2179C14.7848 18.2179 14.806 18.147 14.8769 18.0833C14.8769 18.0833 14.9903 17.9132 14.7777 17.9132C14.7777 17.9132 14.1329 17.9557 14.0407 18.3029C14.0266 18.3667 14.0549 18.4092 14.0549 18.4092C14.0549 18.4092 14.2533 18.2817 14.3313 18.2675ZM26.0514 11.9894C26.1081 11.7839 25.8601 11.4367 25.8601 11.4367C25.8671 11.4154 26.0868 11.3871 26.0868 11.3871C26.2994 11.2737 26.1648 11.1887 26.1648 11.1887C25.9026 11.1107 25.7609 11.2666 25.7609 11.2666C25.4916 11.5004 25.116 11.5926 25.116 11.5926C25.116 11.5926 25.1231 11.628 25.1515 11.628C25.1798 11.6138 25.2719 11.7059 25.2719 11.7059C25.4278 11.8477 25.6333 11.5855 25.6333 11.5855C25.9026 11.8689 25.6475 12.2303 25.6475 12.2303C25.3428 12.3649 25.3357 12.3862 25.3357 12.3862C25.2294 12.4712 25.031 12.5137 25.031 12.5137C24.8964 12.4641 24.9743 12.5208 24.9743 12.5208C24.9956 12.5421 25.0239 12.6696 25.0239 12.6696C25.1373 12.698 25.357 12.6484 25.357 12.6484C25.442 12.535 25.6971 12.4429 25.6971 12.4429C26.1222 12.0319 26.7529 12.1098 26.7529 12.1098C26.8025 12.0815 26.7741 11.9894 26.7741 11.9894C26.8237 11.961 26.7883 11.961 26.7883 11.961C26.6891 11.8477 26.1222 11.961 26.1222 11.961C26.0797 12.0248 26.0514 11.9894 26.0514 11.9894ZM16.5846 18.6289C16.7051 18.4942 17.1798 18.4021 17.1798 18.4021C17.442 18.2958 17.2507 18.1399 17.2507 18.1399C16.9389 18.0053 16.7121 18.1895 16.7121 18.1895C16.5562 18.3454 16.535 18.6218 16.535 18.6218C16.535 18.6218 16.5704 18.6572 16.5846 18.6289ZM14.6147 20.4712C14.6147 20.4712 14.7068 20.3862 14.6927 20.4004C14.7068 20.3791 14.8769 20.209 14.8769 20.209C14.8485 20.1878 14.8627 19.8335 14.8627 19.8335C15.0115 18.9619 14.9336 18.9761 14.9336 18.9761C15.1249 18.2321 15.0257 18.2604 15.0257 18.2604L15.2808 17.6085C15.4225 17.3888 15.3942 17.3392 15.3942 17.3392C15.2737 17.2329 15.1745 17.488 15.1745 17.488C15.1178 17.729 14.9407 18.1754 14.9407 18.1754C14.5438 20.2586 14.6147 20.4712 14.6147 20.4712ZM19.1922 21.3074C19.2276 21.2081 19.2631 21.1089 19.3056 21.0097L17.6404 20.4712L17.5412 20.7759L19.1922 21.3074ZM19.1001 21.612L17.4207 21.194L17.3428 21.5058L19.0221 21.9238C19.0434 21.8246 19.0717 21.7183 19.1001 21.612ZM17.0593 23.7803L19.0009 23.8441C18.9796 23.7378 18.9655 23.6315 18.9513 23.5252L17.0664 23.4615L17.0593 23.7803ZM24.287 11.2808C24.287 11.2808 24.3082 10.4801 24.7334 10.3384C24.7334 10.3384 24.7972 10.1895 24.9601 10.4376C24.9601 10.4376 25.0877 10.9619 24.9389 11.3233C24.9389 11.3233 24.7617 11.2737 24.8113 11.3942L24.7263 11.465C24.7263 11.465 24.7972 11.4934 24.8255 11.55C24.8255 11.55 24.868 11.7343 25.1444 11.4863C25.1444 11.4863 25.3074 11.1249 25.2152 10.4092C25.2152 10.4092 25.1231 10.2391 24.9814 10.3313C24.9814 10.3313 24.7334 10.2746 24.9318 10.2108C24.9318 10.2108 25.5199 9.85651 25.9947 9.84234C25.9947 9.84234 25.8388 10.0549 25.8742 10.147C25.8742 10.147 25.8388 10.31 26.1718 10.0478C26.1718 10.0478 26.2781 9.92028 26.4057 9.9132C26.4057 9.9132 26.6112 9.57307 26.2214 9.6085C26.2214 9.6085 26.1151 9.64393 26.0443 9.64393C26.0443 9.64393 25.8034 9.6085 25.3711 9.77857C25.3711 9.77857 25.4136 9.48096 25.1089 9.31089L24.9885 9.20461C24.9885 9.20461 24.62 9.21169 24.5917 9.33924C24.4712 9.38175 24.5917 9.44553 24.5846 9.43844C24.5775 9.43136 24.7972 9.49513 24.8609 9.72188L24.7334 9.75731C24.7334 9.75731 24.6625 9.85651 24.8893 9.78565C24.8893 9.78565 24.9672 9.90611 25.0381 9.87777L25.0664 9.92737C25.0664 9.92737 24.7972 10.0124 24.4641 10.2746C24.4641 10.2746 24.4429 9.92028 24.2516 9.97697C24.2516 9.97697 23.9398 10.4305 23.8689 11.302C23.8689 11.302 23.9256 11.3587 23.9256 11.4083C23.9185 11.4225 24.0957 11.628 24.287 11.2808ZM20.9141 29.7396C20.8716 29.6333 20.8361 29.527 20.8007 29.4207L19.2772 30.6112L19.4756 30.8663L20.9141 29.7396ZM24.6696 16.1346L23.6918 13.938L23.4012 14.0655L24.4216 16.3543C24.4996 16.2834 24.5846 16.2055 24.6696 16.1346ZM23.8264 17.0204L22.3384 14.6324L22.062 14.8025L23.628 17.3038C23.6918 17.2117 23.7555 17.1125 23.8264 17.0204ZM19.589 20.4287L17.9097 19.7485L17.7892 20.0461L19.4331 20.7121C19.4898 20.62 19.5394 20.5208 19.589 20.4287ZM24.2232 16.5527L23.0044 14.2569L22.721 14.4057L23.9965 16.8007C24.0673 16.7228 24.1453 16.6377 24.2232 16.5527ZM25.9805 10.7422C25.9805 10.7422 25.775 10.8202 25.7679 10.7068C25.7679 10.7068 25.5766 10.3171 25.5412 10.0762C25.5412 10.0762 25.4562 10.0124 25.4207 10.0407C25.364 10.0266 25.3711 10.0407 25.3711 10.0407C25.3711 10.0407 25.357 10.5084 25.6121 10.8202C25.6121 10.8202 25.6758 10.9194 25.8175 10.884L25.8317 10.9265C25.8317 10.9265 25.4987 11.2879 25.4703 11.3587C25.4703 11.3587 25.5199 11.4012 25.5199 11.3233C25.5199 11.3233 25.5695 11.2383 25.6404 11.2737C25.6404 11.2737 25.8034 10.9832 25.9238 10.9548C25.9238 10.9548 26.1152 10.9407 26.1152 10.7706C26.1152 10.7706 26.0656 10.721 26.0159 10.7352C26.023 10.7281 26.0301 10.6501 25.9805 10.7422ZM19.837 25.8707L17.3357 26.4942L17.4136 26.806L20.0425 26.147C19.9787 26.0549 19.9079 25.9628 19.837 25.8707ZM20.5669 27.4438L18.0939 28.6484L18.2356 28.9389L20.5527 27.8122C20.5527 27.6847 20.5527 27.5642 20.5669 27.4438ZM20.2268 26.3525L17.5412 27.2241L17.6404 27.5288L20.4748 26.6076C20.3897 26.5297 20.3118 26.4446 20.2268 26.3525ZM20.659 26.7919L17.7892 27.9539L17.9097 28.2515L20.5952 27.1674C20.6165 27.0399 20.6377 26.9123 20.659 26.7919ZM20.5598 28.1098L18.4482 29.3286L18.6112 29.605L20.5952 28.457C20.574 28.3437 20.5598 28.2303 20.5598 28.1098ZM20.6307 28.7759L18.8308 29.9876L19.008 30.2569L20.7015 29.116C20.6803 29.0027 20.6519 28.8893 20.6307 28.7759ZM15.3304 18.1966C15.3304 18.1966 15.3516 18.4942 15.2737 18.5864C15.2737 18.5864 15.2312 18.7139 15.2595 18.8344C15.2595 18.8344 15.2312 18.8981 15.1816 18.8911C15.1178 18.8911 15.1036 18.9477 15.1036 18.9477C15.1036 18.9477 15.217 19.1745 15.6776 19.0965C15.6776 19.0965 16.0744 19.2808 16.1098 18.8769C16.1098 18.8769 16.5704 18.9548 17.4066 19.3446C17.4066 19.3446 17.4207 19.6138 16.7617 19.7485C16.7617 19.7485 17.4491 19.9327 17.6404 19.3587C17.6404 19.3587 17.7892 19.2383 16.8043 18.9336C16.8043 18.9336 16.0531 18.6997 15.9894 18.6856C15.9894 18.6856 16.0886 18.4092 15.9752 18.3667C15.9752 18.3667 15.9256 18.4163 15.9185 18.3384C15.9185 18.3384 15.7768 18.0266 15.628 17.9699C15.6138 17.9699 15.3658 17.9345 15.3304 18.1966ZM15.4863 18.31C15.8193 18.5793 15.7981 18.8273 15.7981 18.8273C15.6138 18.8627 15.4508 18.7919 15.4508 18.7919C15.4508 18.7919 15.3729 18.4234 15.4863 18.31ZM19.2489 24.7582L17.1019 24.9849L17.1373 25.3038L19.3835 25.07C19.3339 24.9637 19.2914 24.8645 19.2489 24.7582ZM19.5111 25.3322L17.194 25.7431L17.2507 26.062L19.6811 25.6368C19.6245 25.5306 19.5678 25.4314 19.5111 25.3322ZM16.6838 19.8193C16.6838 19.8193 16.7334 19.8264 16.4783 19.6563C16.4783 19.6563 16.3437 19.465 16.3578 19.4792C16.3578 19.4792 16.2941 19.4367 16.4004 19.6138L16.4712 19.713C16.4712 19.713 16.45 19.7626 16.4004 19.7059C16.4004 19.7059 16.3295 19.6067 16.0957 19.6422L16.0744 19.6776L16.0602 19.6988C16.0602 19.6988 16.1169 19.7626 16.1453 19.7626C16.1453 19.7626 16.1311 19.8831 16.6129 20.1878C16.6129 20.1878 16.8964 20.3012 16.9035 19.9965C16.9035 19.9965 16.6767 19.8406 16.6838 19.8193ZM19.0576 24.1488L17.0523 24.2197L17.0664 24.5385L19.1497 24.4677C19.1143 24.3614 19.0859 24.2551 19.0576 24.1488ZM42.101 25.8636C42.0797 25.8494 42.0585 25.8282 42.0372 25.814C42.0656 25.9061 42.0939 25.9982 42.1222 26.0974C42.1435 26.1045 42.1718 26.1116 42.1931 26.1187C42.2923 26.0762 42.3632 25.9982 42.3844 25.8565C42.2994 25.8707 42.2498 25.9415 42.1931 25.9982C42.1577 25.9486 42.1293 25.9061 42.101 25.8636ZM41.6758 25.8919C41.7042 25.9132 41.7254 25.9345 41.7538 25.9628C41.8175 25.9132 41.8317 25.8353 41.8813 25.7502C41.9238 25.7006 41.9167 25.7148 41.9876 25.729C41.9876 25.7148 41.9876 25.7006 41.9947 25.6865C41.9805 25.6723 41.9664 25.651 41.9593 25.6368C41.9238 25.6298 41.8813 25.6298 41.8459 25.6227C41.775 25.6935 41.7325 25.7927 41.6758 25.8919ZM41.357 24.6661C41.3499 24.6023 41.3428 24.5456 41.3357 24.4818C41.3711 24.4889 41.4136 24.4889 41.4491 24.496C41.4562 24.4889 41.4632 24.4889 41.4632 24.4818C41.4278 24.2622 41.1656 23.9787 40.946 23.9079C40.9318 23.9079 40.9176 23.915 40.9035 23.915C40.8609 23.9787 40.8468 24.0779 40.8751 24.1488C40.9389 24.2976 41.1444 24.3401 41.2152 24.4748C41.3074 24.6519 41.3003 25.4101 41.2719 25.7148C41.2294 25.7361 41.1798 25.7573 41.1373 25.7715C41.1515 25.8636 41.1869 25.8849 41.2507 25.9345C41.2223 26.0124 41.194 26.0903 41.1656 26.1612C41.1656 26.1683 41.1656 26.1825 41.1585 26.1895C41.031 26.1399 40.9814 25.8282 40.953 25.7006C40.946 25.6935 40.9318 25.6864 40.9247 25.6794C40.9034 25.8707 40.9814 26.4376 41.0593 26.4942C41.2436 26.4092 41.2152 26.1825 41.3215 25.9982C41.3428 25.9699 41.3428 25.977 41.3711 25.9628C41.5553 26.0762 42.3561 26.4517 42.6466 26.3667C42.6607 26.3667 42.6749 26.3596 42.6891 26.3596C42.7316 26.2321 42.7387 25.9415 42.6395 25.8919C42.597 26.0195 42.597 26.1116 42.6112 26.2321C42.2994 26.2533 41.5128 25.9982 41.3782 25.8282L41.612 25.6794C41.6191 25.6723 41.6333 25.6723 41.6404 25.6652V25.651C41.5483 25.6723 41.4491 25.7006 41.3569 25.7219H41.3428C41.3499 25.6794 41.3499 25.6439 41.3569 25.6014C41.442 25.5093 41.6191 25.4951 41.7112 25.403C41.9167 25.4526 41.9876 25.5872 42.2073 25.6298C42.2285 25.6014 42.2498 25.5731 42.2781 25.5447V25.5306C42.1293 25.4739 41.9805 25.4172 41.8317 25.3534C41.8388 25.2967 41.8884 25.2684 41.9238 25.1975C42.108 25.1904 42.2569 25.3818 42.4198 25.4526C42.434 25.4739 42.4411 25.4951 42.4553 25.5164C42.3844 25.5943 42.3135 25.6794 42.2356 25.7573C42.2427 25.7644 42.2427 25.7786 42.2498 25.7856C42.3773 25.7644 42.4482 25.6652 42.5119 25.5589C42.6962 25.6156 42.7174 25.7573 42.9371 25.7927C42.9584 25.7644 42.9796 25.736 43.008 25.7077C42.9584 25.6652 42.9654 25.7219 42.9088 25.6935C42.8095 25.6085 42.7033 25.5306 42.6041 25.4455C42.6678 25.3463 42.7245 25.2825 42.7458 25.1196C42.7387 25.1125 42.7245 25.1054 42.7174 25.0983C42.6537 25.1408 42.5899 25.2825 42.5545 25.3676C42.5403 25.3747 42.5261 25.3818 42.5049 25.3888C42.4623 25.3322 42.4198 25.2755 42.3773 25.2259C42.4198 25.1763 42.4411 25.1692 42.5119 25.1692C42.519 25.1621 42.5261 25.1479 42.5332 25.1408C42.4694 25.1337 42.4057 25.1267 42.349 25.1196C42.3915 24.9849 42.3561 24.9779 42.3348 24.8503C42.3065 24.829 42.2781 24.8149 42.2569 24.7936V24.9283L42.0868 24.907C42.1506 24.9708 42.2285 24.9637 42.2569 25.0629L42.2781 25.1267C42.2498 25.1408 42.2427 25.1621 42.2143 25.1763C42.0797 25.0629 41.8742 24.8291 41.7042 24.7865C41.7042 24.7724 41.7112 24.7582 41.7112 24.744C41.9451 24.7511 42.1718 24.7795 42.3419 24.6802C42.519 24.8432 42.7104 25.0275 42.9442 25.1267C43.008 25.1054 43.0292 25.1054 43.0717 25.0487C42.8663 24.9212 42.4694 24.7157 42.4269 24.4606C42.3632 24.4181 42.3277 24.4252 42.2569 24.4393C42.2356 24.5102 42.2498 24.5173 42.2852 24.581C42.2073 24.6661 41.4987 24.6802 41.357 24.6661ZM41.3995 25.5376H41.3853C41.3782 25.2967 41.3641 25.0558 41.357 24.8149C41.4207 24.7653 41.5554 24.7724 41.6404 24.7582C41.6475 24.7724 41.6546 24.7794 41.6687 24.7936C41.6404 24.822 41.6121 24.8503 41.5837 24.8716C41.6262 24.907 41.6617 24.9424 41.7042 24.9779V24.992C41.6971 24.9991 41.69 25.0133 41.6829 25.0204C41.5979 25.0275 41.5058 25.0275 41.4207 25.0345C41.4136 25.0416 41.4066 25.0558 41.3995 25.0629C41.3995 25.0771 41.3924 25.0912 41.3924 25.1054C41.4491 25.1975 41.5695 25.2896 41.6829 25.3322C41.6191 25.4384 41.4774 25.4455 41.3995 25.5376ZM41.9238 25.155C41.8884 25.233 41.8388 25.2542 41.7892 25.3038L41.5554 25.155C41.5554 25.1337 41.5625 25.1125 41.5625 25.0983C41.6121 25.0771 41.6546 25.0558 41.6971 25.0416C41.775 25.0771 41.853 25.1125 41.9238 25.155ZM41.116 25.7006C41.1444 25.7006 41.1727 25.7006 41.2011 25.6935C41.2082 25.651 41.2223 25.6156 41.2294 25.5731C41.1798 25.4243 41.1302 25.2684 41.0806 25.1196C41.0806 25.1054 41.0877 25.0912 41.0877 25.0771C41.1231 25.0841 41.1656 25.0841 41.2011 25.0912C41.2152 25.0841 41.2294 25.0771 41.2507 25.07C41.1798 24.9353 41.0523 24.8503 40.868 24.8432C40.8539 24.8645 40.8326 24.8787 40.8184 24.8999C40.8397 24.9991 40.8539 25.0487 40.9389 25.0983C40.9531 25.1196 40.9602 25.1408 40.9743 25.1621C40.8964 25.2046 40.8184 25.2542 40.7405 25.2967C40.7192 25.2967 40.7051 25.2896 40.6838 25.2896C40.6625 24.9424 40.6413 24.5952 40.6129 24.248C40.5775 24.2409 40.535 24.2409 40.4996 24.2338C40.3933 24.5314 40.4712 24.9991 40.535 25.2755C40.535 25.2967 40.5279 25.318 40.5279 25.3322C40.1878 25.3463 39.8406 25.3251 39.5217 25.2259C39.4367 25.0416 39.3942 24.7724 39.4154 24.5102C39.4083 24.5031 39.3942 24.496 39.3871 24.4889C38.9832 25.4739 39.7485 25.5235 40.5137 25.4668H40.5279C40.5633 25.651 40.45 25.8849 40.3933 26.0195C40.4004 26.0266 40.4004 26.0407 40.4074 26.0478C40.4358 26.0549 40.4641 26.062 40.4925 26.0762C40.6484 25.9061 40.6554 25.6864 40.6838 25.4526C40.8326 25.3251 41.0452 25.566 41.116 25.7006ZM40.9105 25.3322C40.946 25.2896 40.9814 25.2471 41.0097 25.2117C41.109 25.2542 41.0948 25.3038 41.1373 25.3888C41.1302 25.4314 41.1302 25.4668 41.1231 25.5093C41.0594 25.4597 40.9885 25.4101 40.9247 25.3676C40.9176 25.3534 40.9176 25.3463 40.9105 25.3322ZM25.7042 28.705H25.527C25.4916 28.9601 25.3215 29.0877 25.0168 29.0735V29.2648H25.4632V30.5899H25.7042V28.705ZM27.171 28.698C26.7883 28.7192 26.5828 28.9318 26.5616 29.3428C26.5757 29.7325 26.7671 29.938 27.1497 29.9522C27.3552 29.9451 27.504 29.8742 27.5749 29.7325H27.5819C27.5182 30.2143 27.3694 30.4482 27.1355 30.434C26.9371 30.434 26.8308 30.3348 26.8096 30.1293H26.5828C26.6041 30.434 26.7883 30.597 27.1355 30.6112C27.5678 30.597 27.7945 30.2498 27.8229 29.5695C27.8158 28.9956 27.5961 28.705 27.171 28.698ZM27.1922 29.7467C26.93 29.7538 26.7954 29.6191 26.8025 29.3428C26.8096 29.0806 26.93 28.9389 27.171 28.9247C27.4048 28.9318 27.5323 29.0664 27.5465 29.3215C27.5394 29.5979 27.419 29.7396 27.1922 29.7467ZM29.5235 29.9734C29.4951 29.605 29.2896 29.3995 28.8999 29.364C28.7653 29.364 28.6519 29.3995 28.5456 29.4774L28.6165 28.9672H29.4101V28.7405H28.4393L28.3047 29.7538L28.5031 29.7609C28.5952 29.6475 28.7086 29.5908 28.8574 29.5837C29.1125 29.605 29.2542 29.7467 29.2684 30.0018C29.24 30.271 29.1125 30.4198 28.8787 30.434C28.6377 30.434 28.496 30.3277 28.4677 30.1081H28.2268C28.2622 30.4269 28.4677 30.597 28.8361 30.6112C29.2542 30.597 29.488 30.3844 29.5235 29.9734ZM30.6005 29.69L30.3525 29.8388C30.062 30.0018 29.9132 30.2427 29.9132 30.5828H31.1958V30.3632H30.1754C30.1966 30.2285 30.3029 30.1151 30.4872 30.0089L30.6856 29.8955C31.0399 29.7396 31.2099 29.5341 31.1958 29.2719C31.1674 28.9247 30.969 28.7334 30.6005 28.705C30.1683 28.7192 29.9557 28.946 29.9557 29.3853H30.1966C30.2037 29.0806 30.3313 28.9247 30.5722 28.9247C30.7989 28.9318 30.9265 29.0452 30.9477 29.2577C30.9619 29.4278 30.8415 29.5766 30.6005 29.69ZM22.1683 23.6953L22.4446 23.915C22.4588 23.9008 23.465 22.6678 25.5341 22.0443L22.1683 26.2604L22.4446 26.4801C22.4588 26.4659 23.6209 25.0416 26.0089 24.4889L22.1683 29.2932L22.4446 29.5128C22.4588 29.4916 24.2586 27.295 27.9929 27.295C31.6918 27.295 33.5199 29.4916 33.5412 29.5128L33.8105 29.2932L29.977 24.4889C32.3508 25.0487 33.527 26.4659 33.5412 26.4801L33.8105 26.2604L30.4517 22.0514C32.5066 22.6749 33.527 23.9008 33.5412 23.915L33.8105 23.6953L27.9929 16.4039L22.1683 23.6953ZM32.4641 28.1665C31.5075 27.5642 30.0266 26.9407 27.9858 26.9407C25.9522 26.9407 24.4783 27.55 23.5217 28.1523L26.5403 24.3756C26.9867 24.3047 27.4686 24.2551 27.9929 24.2551C28.5173 24.2551 28.9991 24.2976 29.4455 24.3756L32.4641 28.1665ZM26.8592 23.9787L27.9858 22.5616L29.1196 23.9787C28.7653 23.9362 28.3897 23.915 27.9858 23.915C27.5819 23.915 27.2135 23.9362 26.8592 23.9787ZM32.4641 25.1337C31.7839 24.7086 30.8415 24.2693 29.6298 24.0567L27.9929 22.0018L26.3561 24.0567C25.1444 24.2693 24.209 24.7015 23.5288 25.1267L26.101 21.9026C26.6679 21.775 27.2914 21.7042 27.9929 21.7042C28.6873 21.7042 29.3251 21.7821 29.8849 21.9097L32.4641 25.1337ZM26.434 21.4774L27.9858 19.5359L29.5376 21.4845C29.0629 21.4066 28.5456 21.357 27.9858 21.357C27.426 21.3499 26.9159 21.3924 26.434 21.4774ZM27.9858 16.9637L32.4641 22.5686C31.8689 22.1931 31.0753 21.8175 30.0762 21.5766L27.9929 18.9619L25.9097 21.5695C24.9105 21.8034 24.1169 22.1789 23.5288 22.5474L27.9858 16.9637Z" fill="#1D2088"/>
</svg>
