<svg width="164" height="56" viewBox="0 0 164 56" fill="none" xmlns="http://www.w3.org/2000/svg">
<rect width="164" height="56" rx="6.58824" stroke="#EAECF0"/>
<rect x="0.5" y="0.5" width="163" height="55" rx="6.08824" fill="white" stroke="#EAECF0"/>
<g clip-path="url(#clip0_53672_556135)">
<path d="M94.4249 21.8987V35.8632H98.3657V21.8987H94.4249ZM63.4189 21.875V35.8513H67.3953V24.9993L70.4959 25.0111C71.5136 25.0111 72.2237 25.2596 72.7089 25.7803C73.3361 26.443 73.5846 27.52 73.5846 29.4726V35.8513H77.4426V28.1354C77.4426 22.6206 73.9278 21.875 70.4959 21.875H63.4189ZM100.78 21.8987V35.8632H107.17C110.579 35.8632 111.691 35.2951 112.886 34.0288C113.738 33.1413 114.283 31.1768 114.283 29.0348C114.283 27.0703 113.821 25.3188 113.005 24.23C111.561 22.2774 109.454 21.8987 106.307 21.8987H100.78ZM104.685 24.9283H106.378C108.839 24.9283 110.425 26.0288 110.425 28.8928C110.425 31.7567 108.839 32.8691 106.378 32.8691H104.685V24.9283ZM88.7444 21.8987L85.4544 32.9638L82.3065 21.8987H78.0462L82.5432 35.8632H88.2237L92.7681 21.8987H88.7444ZM116.129 35.8632H120.07V21.8987H116.129V35.8632ZM127.182 21.8987L121.679 35.8513H125.561L126.437 33.378H132.946L133.774 35.8395H137.999L132.449 21.8987H127.182ZM129.738 24.443L132.129 30.9756H127.277L129.738 24.443Z" fill="black"/>
<path d="M37.9882 24.2182V22.301C38.1775 22.2892 38.3669 22.2774 38.5562 22.2774C43.8106 22.1117 47.2544 26.7981 47.2544 26.7981C47.2544 26.7981 43.5385 31.9578 39.5503 31.9578C39.0178 31.9578 38.497 31.875 38 31.7093V25.8868C40.0473 26.1354 40.4615 27.0348 41.6805 29.0821L44.4142 26.7862C44.4142 26.7862 42.4142 24.1709 39.0533 24.1709C38.6982 24.159 38.3432 24.1827 37.9882 24.2182ZM37.9882 17.875V20.7389L38.5562 20.7034C45.858 20.4549 50.6272 26.6916 50.6272 26.6916C50.6272 26.6916 45.1598 33.3425 39.4675 33.3425C38.9704 33.3425 38.4852 33.2951 38 33.2123V34.9874C38.4024 35.0348 38.8166 35.0703 39.2189 35.0703C44.5207 35.0703 48.355 32.3602 52.071 29.1649C52.6864 29.662 55.2071 30.8572 55.7278 31.378C52.2012 34.3365 43.9763 36.7152 39.3136 36.7152C38.8639 36.7152 38.4379 36.6916 38.0118 36.6442V39.1413H58.1538V17.875H37.9882ZM37.9882 31.7093V33.2241C33.0888 32.3484 31.7278 27.2478 31.7278 27.2478C31.7278 27.2478 34.0828 24.6442 37.9882 24.2182V25.875H37.9763C35.929 25.6265 34.3195 27.5436 34.3195 27.5436C34.3195 27.5436 35.2308 30.7744 37.9882 31.7093ZM29.2899 27.0348C29.2899 27.0348 32.1893 22.7507 38 22.301V20.7389C31.5621 21.2596 26 26.7034 26 26.7034C26 26.7034 29.1479 35.8158 37.9882 36.6442V34.9874C31.503 34.1827 29.2899 27.0348 29.2899 27.0348Z" fill="#76B900"/>
</g>
<defs>
<clipPath id="clip0_53672_556135">
<rect width="112" height="20.9346" fill="white" transform="translate(26 18)"/>
</clipPath>
</defs>
</svg>
