<svg width="164" height="56" viewBox="0 0 164 56" fill="none" xmlns="http://www.w3.org/2000/svg">
<rect width="164" height="56" rx="6.58824" stroke="#EAECF0"/>
<rect x="0.5" y="0.5" width="163" height="55" rx="6.08824" fill="white" stroke="#EAECF0"/>
<path d="M54.8779 12.8644C54.9254 12.8712 54.9729 12.878 55.0219 12.8849C57.801 13.2977 60.5695 14.6061 62.6375 16.5066C62.6884 16.5514 62.7396 16.5959 62.7909 16.6403C62.8454 16.688 62.8998 16.7359 62.9542 16.7838C62.9882 16.8136 63.0222 16.8434 63.0572 16.8741C63.5527 17.3176 64.0089 17.8042 64.419 18.3278C64.4516 18.368 64.4841 18.4082 64.5177 18.4496C65.4472 19.6026 66.2184 20.9053 66.7548 22.2867C66.7768 22.343 66.7768 22.343 66.7993 22.4004C66.9928 22.897 67.1752 23.3937 67.309 23.9099C67.3209 23.9558 67.3209 23.9558 67.3331 24.0026C67.5309 24.7773 67.7001 25.5688 67.7841 26.3645C67.7876 26.394 67.7911 26.4234 67.7948 26.4538C67.9768 27.9988 67.8625 29.5569 67.5466 31.0756C67.5343 31.138 67.522 31.2004 67.5098 31.2628C66.8707 34.422 65.0732 37.5056 62.5979 39.5874C62.5448 39.6339 62.5448 39.6339 62.4907 39.6813C60.1401 41.729 57.1283 42.9339 54.0465 43.2692C54.0176 43.2726 53.9887 43.276 53.9589 43.2795C53.7009 43.3082 53.4455 43.3158 53.1861 43.3169C53.1424 43.3171 53.0987 43.3174 53.0537 43.3177C49.2482 43.3366 45.6902 42.2467 41.6206 38.7679C41.3684 38.5178 41.1235 38.2686 40.9048 37.9884C40.8293 37.8924 40.7507 37.8001 40.6705 37.7082C39.8564 36.7695 39.2194 35.6777 38.6857 34.5595C38.6647 34.5156 38.6647 34.5156 38.6432 34.4709C37.6792 32.4428 37.2125 30.2085 37.211 27.9678C37.211 27.9323 37.211 27.8968 37.2109 27.8603C37.2135 25.6792 37.7136 23.5063 38.6461 21.5345C38.6646 21.4956 38.683 21.4566 38.702 21.4165C39.3538 20.0511 40.2008 18.8222 41.2181 17.7044C41.2901 17.6246 41.3601 17.5435 41.4298 17.4617C41.7172 17.1323 42.0344 16.8288 42.3676 16.5462C42.4244 16.496 42.4244 16.496 42.4823 16.4448C43.3123 15.7142 44.2224 15.117 45.1784 14.5668C45.2041 14.5518 45.2298 14.5368 45.2562 14.5213C47.0034 13.5061 49.0801 12.9442 51.0773 12.7456C51.1329 12.74 51.1329 12.74 51.1896 12.7342C52.4154 12.6245 53.6622 12.6867 54.8779 12.8644Z" fill="#BB262C"/>
<path d="M43.793 19.7533C45.7824 19.7506 47.7719 19.7485 49.7613 19.7472C49.9965 19.747 50.2316 19.7469 50.4667 19.7467C50.5135 19.7467 50.5603 19.7467 50.6085 19.7466C51.3654 19.7461 52.1223 19.7452 52.8792 19.7441C53.6564 19.743 54.4336 19.7423 55.2109 19.7421C55.6901 19.7419 56.1693 19.7414 56.6485 19.7404C56.9775 19.7398 57.3065 19.7396 57.6356 19.7398C57.8252 19.7399 58.0147 19.7397 58.2043 19.7391C58.3783 19.7385 58.5524 19.7385 58.7265 19.7389C58.789 19.739 58.8514 19.7388 58.9139 19.7384C59.5043 19.7351 60.1095 19.7871 60.6656 19.9982C60.6981 20.0101 60.7306 20.0221 60.7642 20.0344C62.1594 20.5596 63.2271 21.5632 63.8569 22.9114C64.4697 24.2749 64.4285 25.7548 63.905 27.1369C63.7275 27.5741 63.4874 27.9768 63.1919 28.3442C63.1757 28.3646 63.1594 28.385 63.1427 28.406C62.7576 28.8874 62.3263 29.2775 61.8063 29.6111C61.7436 29.6514 61.7436 29.6514 61.6796 29.6926C60.8169 30.2163 59.8946 30.4126 58.8967 30.4393C58.828 30.4414 58.7592 30.4442 58.6905 30.4478C58.1124 30.4761 58.1124 30.4761 57.9117 30.3049C57.7973 30.1889 57.7045 30.06 57.6098 29.9278C57.5604 29.8727 57.5101 29.8184 57.4585 29.7654C57.4367 29.7422 57.415 29.719 57.3926 29.6951C57.3712 29.6723 57.3497 29.6494 57.3277 29.6259C57.1776 29.4656 57.0284 29.3049 56.8823 29.141C56.6916 28.9273 56.4944 28.7197 56.2972 28.512C55.7886 27.9748 55.7886 27.9748 55.7886 27.9087C55.855 27.9086 55.855 27.9086 55.9226 27.9086C56.3419 27.9079 56.7612 27.9062 57.1805 27.9035C57.396 27.9021 57.6115 27.9011 57.827 27.901C58.0354 27.9008 58.2438 27.8997 58.4523 27.8979C58.5313 27.8974 58.6103 27.8972 58.6894 27.8974C59.5196 27.8989 60.2674 27.7242 60.885 27.1285C60.9147 27.0986 60.9443 27.0686 60.9749 27.0378C61.0025 27.0115 61.0301 26.9852 61.0585 26.9581C61.5449 26.4623 61.7772 25.7395 61.7865 25.0558C61.7764 24.3157 61.4814 23.6175 60.9579 23.0977C60.9243 23.0653 60.8907 23.0329 60.8561 22.9996C60.834 22.9762 60.8118 22.9529 60.789 22.9288C60.6426 22.7855 60.4647 22.6932 60.2845 22.5988C60.2607 22.5859 60.2369 22.573 60.2124 22.5598C59.6157 22.2619 58.9965 22.2647 58.3462 22.269C58.2501 22.2691 58.1541 22.269 58.058 22.269C57.8259 22.2689 57.5937 22.2696 57.3616 22.2706C57.0911 22.2717 56.8206 22.272 56.5501 22.2722C56.0679 22.2725 55.5856 22.2736 55.1033 22.2751C54.6353 22.2765 54.1673 22.2776 53.6992 22.2783C53.6703 22.2783 53.6414 22.2784 53.6116 22.2784C53.4665 22.2786 53.3213 22.2788 53.1762 22.279C51.9752 22.2807 50.7741 22.2835 49.5731 22.287C49.6049 22.3215 49.6367 22.3559 49.6695 22.3914C49.7121 22.4375 49.7547 22.4837 49.7973 22.5298C49.8286 22.5637 49.8286 22.5637 49.8606 22.5983C49.9944 22.7432 50.1278 22.8886 50.2609 23.0343C50.4491 23.24 50.6392 23.4439 50.8296 23.6475C50.978 23.8062 51.1258 23.9656 51.2729 24.1254C51.4516 24.3195 51.6317 24.5122 51.8123 24.7044C52.0202 24.9257 52.2263 25.1485 52.4311 25.3727C52.5595 25.5129 52.6895 25.6518 52.8194 25.7907C52.9853 25.968 53.1505 26.1459 53.3143 26.3251C53.4773 26.5035 53.6416 26.6806 53.8067 26.8571C54.0399 27.1065 54.2719 27.357 54.5032 27.6081C54.6216 27.7366 54.7401 27.8648 54.8586 27.9931C54.9561 28.0988 55.0536 28.2045 55.151 28.3103C55.3698 28.5479 55.5898 28.7843 55.8109 29.0197C56.0206 29.243 56.2287 29.4675 56.4354 29.6937C56.7427 30.0299 57.0528 30.3636 57.3638 30.6964C57.5318 30.8761 57.6988 31.0567 57.8655 31.2377C58.0171 31.4021 58.1696 31.5657 58.3224 31.7291C58.646 32.0754 58.9675 32.4236 59.2874 32.7733C59.4528 32.9542 59.6197 33.1337 59.7872 33.3127C59.9909 33.5305 60.1933 33.7494 60.3945 33.9695C60.4674 34.0493 60.5405 34.129 60.6138 34.2086C60.9274 34.5494 60.9274 34.5494 61.0714 34.7157C61.2131 34.8792 61.3603 35.0375 61.5074 35.1962C61.6589 35.3598 61.8089 35.5247 61.9575 35.691C62.0195 35.76 62.082 35.8285 62.1449 35.8967C62.1777 35.9324 62.2105 35.9681 62.2442 36.0048C62.2741 36.0371 62.3039 36.0693 62.3347 36.1025C62.4001 36.183 62.4001 36.183 62.4001 36.2621C61.9768 36.2769 61.5536 36.2881 61.1301 36.295C60.9334 36.2982 60.7368 36.3027 60.5402 36.3099C59.1626 36.3593 59.1626 36.3593 58.8442 36.1275C58.7127 36.0024 58.6161 35.8667 58.5284 35.7084C58.4507 35.5785 58.3463 35.4762 58.2407 35.3689C58.2022 35.3273 58.1637 35.2856 58.1255 35.2438C57.9938 35.101 57.8612 34.959 57.7285 34.8171C57.5369 34.6122 57.3462 34.4065 57.1561 34.2002C57.0037 34.0348 56.8503 33.8704 56.6967 33.7061C56.4961 33.4916 56.2972 33.2757 56.099 33.0589C55.9474 32.8935 55.7939 32.7298 55.6406 32.5659C55.472 32.3855 55.3043 32.2044 55.137 32.0227C54.9846 31.8574 54.8312 31.693 54.6776 31.5287C54.4771 31.3142 54.2781 31.0983 54.0799 30.8815C53.9518 30.7417 53.8223 30.6032 53.6929 30.4647C53.4597 30.2153 53.2276 29.9649 52.9963 29.7137C52.8779 29.5853 52.7594 29.457 52.641 29.3287C52.5434 29.2231 52.4459 29.1173 52.3485 29.0115C52.1297 28.7739 51.9098 28.5375 51.6886 28.3021C51.4807 28.0809 51.2746 27.8581 51.0699 27.6339C50.9414 27.4936 50.8115 27.3548 50.6816 27.2159C50.4802 27.0006 50.2804 26.784 50.0815 26.5664C49.9289 26.3999 49.7744 26.2353 49.6201 26.0704C49.479 25.9194 49.3388 25.7676 49.1994 25.615C49.0285 25.428 48.8558 25.2429 48.6823 25.0583C48.4718 24.8343 48.2629 24.6091 48.0557 24.3822C47.8826 24.1929 47.7084 24.0046 47.5343 23.8163C47.4762 23.7533 47.4181 23.6902 47.3601 23.6272C47.1338 23.3815 46.9064 23.1369 46.6781 22.8932C46.6522 22.8657 46.6264 22.8381 46.5998 22.8097C46.4648 22.6657 46.4648 22.6657 46.3267 22.5245C46.3136 23.5305 46.3006 24.5365 46.2871 25.5729C45.464 25.5729 44.641 25.5729 43.793 25.5729C43.793 23.6524 43.793 21.732 43.793 19.7533Z" fill="#FDFCFC"/>
<path d="M43.793 27.9483C45.3962 27.9348 45.3962 27.9348 47.0319 27.9211C47.5375 27.9151 47.5375 27.9151 48.0533 27.9091C48.466 27.9071 48.466 27.9071 48.6594 27.9067C48.794 27.9063 48.9286 27.9047 49.0632 27.9023C49.2354 27.8993 49.4074 27.8984 49.5795 27.8991C49.6425 27.8989 49.7054 27.8981 49.7683 27.8964C50.0572 27.889 50.298 27.8943 50.5176 28.0994C50.6042 28.19 50.683 28.2855 50.7607 28.3838C50.8098 28.4395 50.8591 28.4951 50.9087 28.5503C50.9302 28.5754 50.9517 28.6005 50.9738 28.6264C51.086 28.7562 51.2046 28.8801 51.3224 29.0048C51.3748 29.0605 51.4271 29.1161 51.4794 29.1717C51.5051 29.1991 51.5308 29.2264 51.5573 29.2546C51.7035 29.4105 51.8484 29.5676 51.993 29.725C52.0725 29.8116 52.1526 29.8976 52.233 29.9833C52.2533 30.0051 52.2737 30.027 52.2946 30.0494C52.3335 30.0911 52.3725 30.1326 52.4116 30.174C52.5423 30.3147 52.5423 30.3147 52.5423 30.4029C50.4781 30.4029 48.4139 30.4029 46.2871 30.4029C46.2871 32.3495 46.2871 34.2961 46.2871 36.3017C45.464 36.3017 44.641 36.3017 43.793 36.3017C43.793 33.5451 43.793 30.7885 43.793 27.9483Z" fill="#FDFCFC"/>
<path d="M122.101 20.582C122.441 20.582 122.781 20.582 123.131 20.582C123.131 21.3528 123.131 22.1237 123.131 22.9178C124.097 22.9178 125.064 22.9178 126.06 22.9178C126.06 23.2444 126.06 23.571 126.06 23.9076C125.094 23.9076 124.127 23.9076 123.131 23.9076C123.131 24.8351 123.131 25.7627 123.131 26.7184C124.254 26.7184 125.378 26.7184 126.535 26.7184C126.535 27.045 126.535 27.3717 126.535 27.7082C125.412 27.7082 124.288 27.7082 123.131 27.7082C123.131 29.0538 123.131 30.3995 123.131 31.7859C122.791 31.7859 122.451 31.7859 122.101 31.7859C122.101 30.4272 122.101 29.0685 122.101 27.6686C120.769 27.6686 119.436 27.6686 118.063 27.6686C118.063 27.355 118.063 27.0415 118.063 26.7184C119.396 26.7184 120.728 26.7184 122.101 26.7184C122.101 25.7908 122.101 24.8633 122.101 23.9076C121.383 23.9076 120.664 23.9076 119.924 23.9076C119.898 23.9859 119.872 24.0643 119.845 24.1451C119.778 24.2859 119.702 24.4217 119.627 24.5583C119.595 24.616 119.595 24.616 119.563 24.6749C119.333 25.0901 119.085 25.4859 118.776 25.8475C118.566 25.7849 118.419 25.6485 118.254 25.5109C118.225 25.4874 118.196 25.4639 118.167 25.4396C117.96 25.2689 117.96 25.2689 117.865 25.1744C117.901 25.1261 117.901 25.1261 117.938 25.0768C118.835 23.8567 119.409 22.4465 119.884 21.0175C120.23 21.1011 120.572 21.1951 120.914 21.2946C120.889 21.5559 120.808 21.7919 120.723 22.0394C120.703 22.1006 120.703 22.1006 120.682 22.1629C120.596 22.4191 120.5 22.6658 120.399 22.9178C120.961 22.9178 121.523 22.9178 122.101 22.9178C122.101 22.147 122.101 21.3762 122.101 20.582Z" fill="#362E2C"/>
<path d="M103.138 20.582C103.484 20.6359 103.826 20.7041 104.167 20.78C104.03 21.3364 103.883 21.8897 103.732 22.4427C104.516 22.4427 105.3 22.4427 106.107 22.4427C106.107 22.7432 106.107 23.0437 106.107 23.3533C105.219 23.3664 104.33 23.3794 103.415 23.3929C103.271 23.7718 103.128 24.1506 102.98 24.541C102.869 24.7838 102.758 25.0233 102.638 25.261C102.61 25.318 102.582 25.3751 102.554 25.4321C102.485 25.5709 102.416 25.7092 102.346 25.8475C102.333 25.8736 102.32 25.8997 102.307 25.9266C102.725 25.9266 103.143 25.9266 103.574 25.9266C103.574 25.3649 103.574 24.8031 103.574 24.2243C103.9 24.2243 104.227 24.2243 104.563 24.2243C104.563 24.7861 104.563 25.3478 104.563 25.9266C105.021 25.9266 105.478 25.9266 105.949 25.9266C105.949 26.2271 105.949 26.5276 105.949 26.8372C105.492 26.8372 105.034 26.8372 104.563 26.8372C104.563 27.3336 104.563 27.8301 104.563 28.3416C104.733 28.3024 104.903 28.2632 105.078 28.2228C105.175 28.2036 105.273 28.1851 105.371 28.1679C105.419 28.1594 105.467 28.1508 105.517 28.142C105.566 28.1336 105.614 28.1251 105.664 28.1164C105.715 28.1075 105.765 28.0986 105.818 28.0894C105.94 28.0678 106.063 28.0463 106.186 28.0249C106.32 28.2922 106.315 28.6427 106.305 28.9354C106.04 29.028 105.773 29.1047 105.501 29.1755C105.463 29.1856 105.425 29.1957 105.386 29.2062C105.111 29.2781 104.846 29.3238 104.563 29.3709C104.563 30.1809 104.563 30.9909 104.563 31.8255C104.237 31.8255 103.91 31.8255 103.574 31.8255C103.574 31.0808 103.574 30.3361 103.574 29.5689C103.404 29.6081 103.234 29.6473 103.059 29.6876C102.939 29.7102 102.82 29.7318 102.699 29.7512C102.668 29.7563 102.637 29.7614 102.605 29.7667C102.541 29.7772 102.476 29.7877 102.412 29.7981C102.313 29.8139 102.215 29.8302 102.117 29.8465C102.054 29.8569 101.991 29.8671 101.927 29.8774C101.899 29.8822 101.87 29.887 101.84 29.892C101.65 29.922 101.469 29.9294 101.277 29.9252C101.218 29.7269 101.171 29.5299 101.134 29.3264C101.128 29.2991 101.123 29.2718 101.118 29.2437C101.091 29.0989 101.077 28.9636 101.079 28.8167C101.128 28.8111 101.178 28.8055 101.228 28.7998C101.412 28.7788 101.596 28.7576 101.781 28.7365C101.86 28.7273 101.939 28.7183 102.019 28.7093C102.588 28.6467 102.588 28.6467 103.153 28.5532C103.292 28.5349 103.433 28.5395 103.574 28.5395C103.574 27.9778 103.574 27.416 103.574 26.8372C102.816 26.8372 102.058 26.8372 101.277 26.8372C101.251 26.7457 101.225 26.6543 101.198 26.5601C101.181 26.5001 101.181 26.5001 101.163 26.4388C101.153 26.4004 101.142 26.3621 101.131 26.3225C101.121 26.2842 101.11 26.2458 101.099 26.2062C101.055 25.931 101.141 25.7471 101.287 25.5208C101.706 24.8395 102.031 24.1028 102.307 23.3533C101.902 23.3533 101.497 23.3533 101.079 23.3533C101.079 23.0528 101.079 22.7523 101.079 22.4427C101.602 22.4427 102.125 22.4427 102.663 22.4427C102.676 22.3513 102.689 22.2598 102.703 22.1656C102.717 22.1044 102.733 22.0435 102.751 21.9831C102.761 21.9503 102.771 21.9175 102.78 21.8837C102.791 21.8494 102.801 21.815 102.811 21.7796C102.927 21.3822 103.034 20.9829 103.138 20.582Z" fill="#352E2C"/>
<path d="M83.6584 23.1954C83.7181 23.2513 83.7181 23.2513 83.7736 23.3222C83.794 23.348 83.8144 23.3737 83.8354 23.4003C83.8562 23.4274 83.877 23.4545 83.8984 23.4824C83.9194 23.5089 83.9403 23.5354 83.9619 23.5627C84.0689 23.6993 84.1673 23.8355 84.2523 23.9872C84.0434 24.0508 83.8362 24.095 83.6212 24.1319C83.5877 24.1378 83.5543 24.1436 83.5198 24.1497C83.4493 24.162 83.3787 24.1742 83.3081 24.1864C83.2019 24.2047 83.0958 24.2233 82.9897 24.2419C82.6063 24.3087 82.223 24.3709 81.8373 24.4227C81.9454 25.2463 82.0631 26.0637 82.2332 26.8772C82.7081 26.4676 83.1265 26.0354 83.5001 25.5312C83.5164 25.5092 83.5327 25.4871 83.5495 25.4644C83.6397 25.3423 83.7287 25.2194 83.8168 25.0957C84.0066 25.18 84.1244 25.3174 84.2646 25.4668C84.2907 25.4935 84.3168 25.5201 84.3436 25.5476C84.3802 25.5865 84.3802 25.5865 84.4176 25.6261C84.44 25.6497 84.4624 25.6732 84.4855 25.6975C84.5294 25.7687 84.5294 25.7687 84.5208 25.8509C84.3173 26.3517 83.713 26.8263 83.3368 27.2063C83.3075 27.2361 83.2782 27.2659 83.248 27.2966C83.0537 27.4913 82.8502 27.6638 82.6291 27.8274C82.8048 28.8306 83.7018 29.8392 84.4174 30.5215C84.4378 30.5411 84.4582 30.5607 84.4792 30.5809C84.5361 30.6352 84.5937 30.6887 84.6513 30.7422C84.7274 30.8362 84.7274 30.8362 84.7295 30.9161C84.6743 31.0198 84.6054 31.0949 84.5245 31.1801C84.3562 31.3613 84.2027 31.5492 84.0543 31.7467C83.9284 31.6911 83.8431 31.6249 83.7458 31.5279C83.7178 31.5001 83.6897 31.4722 83.6608 31.4435C83.6315 31.4137 83.6021 31.384 83.5718 31.3533C83.5415 31.3228 83.5112 31.2922 83.48 31.2607C83.2602 31.0368 83.0556 30.8099 82.8666 30.5591C82.8498 30.5372 82.833 30.5152 82.8157 30.4927C81.8264 29.2005 81.306 27.6941 81.0331 26.0995C81.0157 25.9984 80.9976 25.8973 80.9795 25.7963C80.9081 25.3909 80.8629 24.9926 80.8476 24.581C80.8149 24.5871 80.7823 24.5932 80.7487 24.5994C80.48 24.6494 80.2581 24.6602 79.9766 24.6602C79.9766 26.9988 79.9766 29.3373 79.9766 31.7467C79.6369 31.7467 79.2972 31.7467 78.9473 31.7467C78.9473 29.1469 78.9473 26.547 78.9473 23.8684C79.4698 23.8031 79.9924 23.7378 80.5309 23.6705C80.6746 23.6443 80.8183 23.6182 80.9663 23.5913C81.0814 23.573 81.1965 23.555 81.3117 23.5375C81.6007 23.4927 81.8885 23.4429 82.1761 23.3902C82.2147 23.3832 82.2532 23.3762 82.293 23.369C82.4514 23.34 82.6099 23.311 82.7683 23.2816C82.8859 23.2598 83.0036 23.2384 83.1213 23.217C83.1571 23.2103 83.1929 23.2035 83.2298 23.1966C83.263 23.1906 83.2963 23.1846 83.3305 23.1785C83.3595 23.1731 83.3886 23.1678 83.4185 23.1623C83.5088 23.1551 83.5729 23.1662 83.6584 23.1954Z" fill="#352D2B"/>
<path d="M88.8455 20.582C89.1852 20.582 89.5249 20.582 89.8749 20.582C89.8749 21.2745 89.8749 21.9669 89.8749 22.6803C90.3452 22.6803 90.8155 22.6803 91.3001 22.6803C91.3001 22.9938 91.3001 23.3074 91.3001 23.6304C90.8298 23.6304 90.3594 23.6304 89.8749 23.6304C89.8749 24.4274 89.8749 25.2243 89.8749 26.0454C90.2717 25.8893 90.2717 25.8893 90.6684 25.7327C90.7183 25.7132 90.7683 25.6937 90.8182 25.6742C90.8439 25.664 90.8696 25.6537 90.8961 25.6432C91.0285 25.5919 91.1159 25.5703 91.2605 25.5703C91.2884 25.698 91.3153 25.8259 91.3422 25.9538C91.35 25.99 91.3579 26.0261 91.3661 26.0633C91.3733 26.0983 91.3806 26.1334 91.3881 26.1696C91.3949 26.2017 91.4018 26.2339 91.4088 26.267C91.421 26.3825 91.4237 26.4515 91.3793 26.5601C91.2858 26.6144 91.2054 26.652 91.1052 26.6892C91.0776 26.7002 91.0501 26.7111 91.0216 26.7224C90.9333 26.7573 90.8445 26.7911 90.7557 26.8248C90.6965 26.848 90.6374 26.8712 90.5782 26.8945C90.4691 26.9373 90.36 26.9797 90.2505 27.0216C90.1381 27.0648 90.0262 27.109 89.9145 27.1539C89.9141 27.2233 89.9141 27.2233 89.9138 27.294C89.9115 27.7309 89.9086 28.1677 89.9051 28.6045C89.9034 28.8291 89.9018 29.0536 89.9007 29.2782C89.8997 29.4951 89.8981 29.712 89.8961 29.9289C89.8955 30.0114 89.895 30.094 89.8948 30.1765C89.8944 30.2926 89.8933 30.4087 89.892 30.5247C89.8921 30.5753 89.8921 30.5753 89.8922 30.627C89.8872 30.9512 89.8282 31.2907 89.5926 31.5296C89.1641 31.8669 88.4966 31.7797 87.9835 31.7307C87.8292 31.712 87.6871 31.6748 87.5391 31.6275C87.5124 31.4866 87.4861 31.3455 87.4599 31.2044C87.4523 31.1645 87.4448 31.1247 87.437 31.0836C87.4299 31.0449 87.4227 31.0063 87.4154 30.9664C87.4087 30.931 87.4021 30.8955 87.3953 30.859C87.3808 30.7574 87.3781 30.6611 87.3807 30.5586C87.4144 30.5672 87.4481 30.5758 87.4828 30.5846C87.9141 30.6837 88.3251 30.6895 88.7664 30.6774C88.8006 30.4991 88.8119 30.329 88.8141 30.1476C88.8145 30.1194 88.8149 30.0911 88.8153 30.0621C88.8165 29.9695 88.8175 29.877 88.8185 29.7845C88.8193 29.72 88.8201 29.6555 88.821 29.5911C88.8231 29.422 88.8251 29.2529 88.827 29.0838C88.829 28.9111 88.8312 28.7383 88.8334 28.5655C88.8376 28.227 88.8417 27.8884 88.8455 27.5498C88.819 27.5576 88.7925 27.5654 88.7652 27.5734C88.6427 27.6093 88.5202 27.6451 88.3977 27.6809C88.356 27.6932 88.3143 27.7054 88.2714 27.718C88.0658 27.7781 87.86 27.8376 87.6537 27.8954C87.6192 27.9051 87.5847 27.9149 87.5491 27.9249C87.4599 27.9457 87.4599 27.9457 87.3411 27.9457C87.288 27.7965 87.2354 27.6472 87.1828 27.4978C87.1677 27.4554 87.1526 27.413 87.137 27.3693C87.1227 27.3286 87.1084 27.2879 87.0937 27.2459C87.0804 27.2084 87.0672 27.1709 87.0535 27.1322C87.0244 27.0351 87.0244 27.0351 87.0244 26.9164C87.0476 26.9106 87.0709 26.9049 87.0948 26.899C87.5732 26.7798 88.044 26.6498 88.5099 26.4882C88.5425 26.4769 88.5752 26.4656 88.6088 26.454C88.6374 26.4439 88.666 26.4338 88.6955 26.4234C88.7664 26.4017 88.7664 26.4017 88.8455 26.4017C88.8455 25.4872 88.8455 24.5727 88.8455 23.6304C88.2707 23.6304 87.6959 23.6304 87.1036 23.6304C87.1036 23.3169 87.1036 23.0033 87.1036 22.6803C87.6784 22.6803 88.2533 22.6803 88.8455 22.6803C88.8455 21.9879 88.8455 21.2954 88.8455 20.582Z" fill="#342C2A"/>
<path d="M83.5628 20.8131C83.5947 20.846 83.6267 20.8789 83.6596 20.9128C83.6945 20.9484 83.7295 20.9839 83.7655 21.0205C83.8013 21.0581 83.837 21.0957 83.8739 21.1344C83.9109 21.1723 83.948 21.2101 83.9851 21.2479C84.255 21.5251 84.255 21.5251 84.255 21.5724C84.0439 21.6098 83.8329 21.6471 83.6219 21.6843C83.5505 21.6969 83.4791 21.7095 83.4077 21.7222C82.8994 21.8123 82.3905 21.8946 81.8796 21.9683C81.8389 21.9742 81.7982 21.98 81.7563 21.9861C81.5489 22.0155 81.3413 22.0431 81.1337 22.0705C81.0473 22.0819 80.9609 22.0935 80.8746 22.1052C80.1856 22.1977 79.4962 22.2718 78.804 22.3345C78.7653 22.338 78.7267 22.3415 78.6868 22.3452C78.5764 22.3551 78.466 22.365 78.3556 22.3747C78.3226 22.3777 78.2895 22.3806 78.2555 22.3837C78.2246 22.3863 78.1938 22.389 78.1621 22.3918C78.1354 22.3941 78.1087 22.3964 78.0812 22.3988C77.9879 22.4045 77.8953 22.4046 77.8018 22.4038C77.8022 22.4788 77.8022 22.4788 77.8026 22.5554C77.8051 23.0322 77.8068 23.509 77.808 23.9858C77.8086 24.2308 77.8094 24.4757 77.8108 24.7207C77.8229 26.9465 77.7489 29.9123 76.1787 31.7073C76.0231 31.7073 75.994 31.7033 75.8718 31.6263C75.8445 31.6092 75.8171 31.592 75.789 31.5743C75.7608 31.5562 75.7326 31.538 75.7036 31.5193C75.6754 31.5017 75.6473 31.4842 75.6182 31.4661C75.4724 31.3736 75.3448 31.2827 75.2285 31.1531C75.24 31.1336 75.2516 31.1141 75.2635 31.0941C76.1834 29.5363 76.732 27.8705 76.7411 26.0461C76.7414 25.9966 76.7418 25.9471 76.7422 25.8961C76.7433 25.7618 76.7441 25.6275 76.7449 25.4933C76.7458 25.3524 76.7469 25.2115 76.7479 25.0707C76.7499 24.8046 76.7517 24.5385 76.7534 24.2724C76.7554 23.9691 76.7575 23.6659 76.7597 23.3627C76.7642 22.7395 76.7685 22.1164 76.7725 21.4932C76.8233 21.4907 76.8742 21.4881 76.9265 21.4855C76.9943 21.482 77.0621 21.4786 77.1299 21.4751C77.1632 21.4735 77.1966 21.4718 77.231 21.4701C77.5239 21.455 77.8145 21.4282 78.1062 21.3967C78.3783 21.3677 78.6502 21.3393 78.9231 21.3181C79.4936 21.2738 80.0601 21.2113 80.6276 21.1378C80.7694 21.1195 80.9113 21.1015 81.0532 21.0836C81.5425 21.0213 82.0283 20.9512 82.513 20.8598C82.6408 20.837 82.7686 20.8149 82.8965 20.793C82.94 20.7853 82.94 20.7853 82.9843 20.7774C83.4127 20.7045 83.4127 20.7045 83.5628 20.8131Z" fill="#352D2B"/>
<path d="M96.4088 23.9492C96.6797 24.02 96.9448 24.0986 97.208 24.1942C97.2631 24.2141 97.3183 24.2339 97.3735 24.2538C97.4447 24.2794 97.4447 24.2794 97.5173 24.3055C97.4623 24.8736 97.3599 25.4304 97.2525 25.9906C97.2437 26.0368 97.2349 26.083 97.2259 26.1307C97.0849 26.8714 96.9351 27.6091 96.7651 28.3437C96.7557 28.3844 96.7464 28.4251 96.7368 28.4671C96.6394 28.8918 96.5329 29.3116 96.4088 29.7293C96.3797 29.8282 96.3509 29.9272 96.3222 30.0262C96.3029 30.0918 96.3029 30.0918 96.2833 30.1586C96.2519 30.2778 96.2311 30.3995 96.2108 30.5211C96.9816 30.5211 97.7524 30.5211 98.5466 30.5211C98.5466 30.8477 98.5466 31.1743 98.5466 31.5108C96.0121 31.5108 93.4775 31.5108 90.8662 31.5108C90.8662 31.1842 90.8662 30.8576 90.8662 30.5211C92.2511 30.508 93.6359 30.495 95.0627 30.4815C95.3144 29.5489 95.3144 29.5489 95.5403 28.6109C95.5533 28.5529 95.5664 28.495 95.5795 28.437C95.9126 26.9521 96.2011 25.4571 96.4088 23.9492Z" fill="#362F2D"/>
<path d="M108.602 24.1875C108.929 24.1875 109.255 24.1875 109.592 24.1875C109.576 24.7423 109.55 25.2844 109.47 25.8339C109.465 25.8723 109.46 25.9108 109.454 25.9505C109.449 25.9838 109.444 26.0171 109.439 26.0514C109.425 26.3306 109.482 26.5849 109.571 26.8476C109.581 26.8772 109.591 26.9068 109.601 26.9374C109.622 26.9997 109.643 27.062 109.664 27.1243C109.695 27.2172 109.726 27.3104 109.757 27.4036C110.02 28.1937 110.346 28.9377 110.898 29.5717C110.926 29.6041 110.954 29.6365 110.983 29.6699C111.072 29.7706 111.163 29.8693 111.254 29.9676C111.298 30.0145 111.298 30.0145 111.341 30.0624C111.618 30.3526 111.932 30.5867 112.254 30.8237C112.322 30.8773 112.382 30.9345 112.442 30.9969C112.337 31.0968 112.231 31.1966 112.125 31.2963C112.096 31.3242 112.067 31.3521 112.036 31.3808C111.845 31.5609 111.651 31.7363 111.452 31.9075C111.387 31.8518 111.322 31.796 111.257 31.74C111.204 31.6942 111.15 31.6487 111.096 31.6036C110.905 31.4414 110.74 31.2697 110.581 31.0761C110.549 31.0371 110.516 30.998 110.483 30.9578C109.813 30.1412 109.39 29.2212 109.065 28.2226C109.044 28.1473 109.044 28.1473 108.998 28.1069C108.982 28.149 108.982 28.149 108.967 28.1919C108.428 29.645 107.683 30.8277 106.303 31.6205C106.265 31.6428 106.265 31.6428 106.225 31.6657C106.035 31.7726 105.842 31.8448 105.633 31.9075C105.56 31.7641 105.487 31.6205 105.415 31.4769C105.384 31.4156 105.384 31.4156 105.352 31.3531C105.332 31.314 105.313 31.275 105.293 31.2348C105.274 31.1987 105.256 31.1626 105.237 31.1254C105.197 31.0365 105.197 31.0365 105.197 30.9573C105.237 30.9386 105.276 30.9199 105.316 30.9006C106.555 30.3016 107.463 29.407 107.924 28.0859C107.962 27.9744 107.999 27.8626 108.035 27.7506C108.047 27.7158 108.058 27.6811 108.07 27.6453C108.235 27.1174 108.312 26.5889 108.372 26.041C108.393 25.8525 108.414 25.6642 108.435 25.4759C108.442 25.4211 108.442 25.4211 108.448 25.3652C108.493 24.9716 108.546 24.5797 108.602 24.1875Z" fill="#352E2C"/>
<path d="M117.23 20.5039C117.44 20.5284 117.632 20.5756 117.834 20.64C117.862 20.6486 117.89 20.6572 117.919 20.6661C118.046 20.7064 118.147 20.7458 118.259 20.8206C118.205 20.9895 118.15 21.1581 118.095 21.3266C118.077 21.3834 118.058 21.4403 118.04 21.4972C118.013 21.5811 117.985 21.6648 117.958 21.7485C117.949 21.777 117.94 21.8054 117.93 21.8347C117.875 22.0003 117.814 22.1507 117.726 22.3017C117.28 23.1108 117.373 24.0374 117.38 24.9323C117.381 25.1739 117.38 25.4154 117.38 25.657C117.379 26.113 117.38 26.5689 117.382 27.0248C117.384 27.5445 117.384 28.0642 117.383 28.5839C117.382 29.6516 117.385 30.7193 117.388 31.787C117.036 31.787 116.683 31.787 116.319 31.787C116.3 28.5535 116.3 28.5535 116.28 25.2547C116.149 25.4637 116.019 25.6727 115.884 25.8881C115.798 26.0091 115.713 26.1274 115.622 26.2444C115.601 26.2718 115.58 26.2991 115.558 26.3273C115.509 26.3922 115.459 26.4569 115.409 26.5215C115.278 26.3519 115.171 26.1713 115.063 25.9871C115.032 25.9363 115.032 25.9363 115 25.8845C114.981 25.8518 114.962 25.8191 114.942 25.7854C114.924 25.7557 114.907 25.7261 114.888 25.6955C114.847 25.5924 114.853 25.5545 114.894 25.4526C114.939 25.3739 114.939 25.3739 114.995 25.2904C115.027 25.2434 115.027 25.2434 115.059 25.1955C115.081 25.1619 115.104 25.1284 115.127 25.0938C115.382 24.7071 115.62 24.314 115.844 23.9086C115.863 23.8746 115.882 23.8406 115.902 23.8056C116.447 22.8183 117.028 21.6285 117.23 20.5039Z" fill="#37302E"/>
<path d="M107.811 20.5469C108.139 20.61 108.447 20.7155 108.762 20.824C108.712 21.1646 108.617 21.4792 108.504 21.8038C108.472 21.8968 108.441 21.9898 108.409 22.0828C108.395 22.1234 108.381 22.1639 108.367 22.2057C108.323 22.3378 108.285 22.4718 108.247 22.6055C109.619 22.6055 110.99 22.6055 112.404 22.6055C112.339 22.9595 112.258 23.2751 112.144 23.6126C112.135 23.6385 112.127 23.6645 112.118 23.6912C111.894 24.354 111.619 24.9766 111.256 25.5748C111.04 25.5157 110.872 25.4124 110.687 25.2927C110.643 25.2649 110.643 25.2649 110.598 25.2365C110.527 25.1912 110.456 25.1454 110.385 25.0997C110.411 24.8779 110.526 24.7043 110.635 24.514C110.801 24.2132 110.893 23.9297 111.018 23.5953C109.96 23.6083 108.902 23.6214 107.811 23.6349C107.629 24.0137 107.446 24.3926 107.257 24.783C106.84 25.5372 106.84 25.5372 106.663 25.6935C106.545 25.6117 106.427 25.529 106.31 25.4461C106.276 25.4229 106.242 25.3997 106.208 25.3757C106.175 25.353 106.143 25.3303 106.11 25.3069C106.066 25.2758 106.066 25.2758 106.021 25.2441C105.94 25.1691 105.919 25.1295 105.911 25.0205C105.96 24.9312 106.009 24.8531 106.067 24.7706C106.751 23.7511 107.154 22.541 107.557 21.3882C107.575 21.3356 107.575 21.3356 107.594 21.282C107.677 21.0397 107.747 20.7947 107.811 20.5469Z" fill="#362F2D"/>
<path d="M94.3077 20.582C94.6604 20.582 95.0132 20.582 95.3766 20.582C95.3766 21.183 95.3766 21.784 95.3766 22.4032C96.3303 22.4032 97.284 22.4032 98.2667 22.4032C98.2667 22.7167 98.2667 23.0303 98.2667 23.3533C96.111 23.3533 93.9554 23.3533 91.7344 23.3533C91.7344 23.0398 91.7344 22.7262 91.7344 22.4032C92.5836 22.4032 93.4328 22.4032 94.3077 22.4032C94.3077 21.8022 94.3077 21.2012 94.3077 20.582Z" fill="#332C2A"/>
<path d="M93.2003 24.3448C94.184 28.1328 94.184 28.1328 94.1505 29.8082C93.9246 29.8889 93.6973 29.9547 93.4651 30.0136C93.4376 30.0207 93.4102 30.0278 93.3819 30.035C93.2497 30.0679 93.1396 30.0853 93.0024 30.0853C92.9973 30.037 92.9973 30.037 92.9922 29.9877C92.8417 28.5594 92.6611 27.1291 92.3293 25.7305C92.2955 25.5858 92.2619 25.441 92.2283 25.2962C92.2072 25.2056 92.1858 25.115 92.1642 25.0245C92.1499 24.9643 92.1499 24.9643 92.1354 24.9028C92.127 24.8676 92.1185 24.8323 92.1098 24.796C92.0918 24.7012 92.0918 24.7012 92.0918 24.5428C92.2394 24.5095 92.387 24.4766 92.5347 24.4438C92.5765 24.4344 92.6182 24.4249 92.6613 24.4152C92.722 24.4018 92.722 24.4018 92.7838 24.3881C92.8395 24.3757 92.8395 24.3757 92.8963 24.363C93 24.3453 93.0954 24.3415 93.2003 24.3448Z" fill="#352E2C"/>
<path d="M74.7124 26.5234C75.0557 26.7021 75.3791 26.9051 75.7022 27.1173C75.6817 27.4256 75.6221 27.7163 75.5463 28.0155C75.5282 28.0873 75.5282 28.0873 75.5097 28.1605C75.3619 28.7315 75.178 29.2903 74.9895 29.849C74.9661 29.919 74.9661 29.919 74.9421 29.9905C74.7515 30.558 74.5456 31.1169 74.3165 31.6701C74.1774 31.6701 74.1423 31.6421 74.03 31.5645C73.9975 31.5421 73.965 31.5198 73.9315 31.4968C73.8977 31.4732 73.8639 31.4495 73.8291 31.4251C73.7957 31.4022 73.7624 31.3794 73.728 31.3558C73.5471 31.2306 73.3743 31.1015 73.208 30.9575C73.2334 30.8032 73.2799 30.6715 73.3415 30.528C73.3704 30.4598 73.3704 30.4598 73.3999 30.3903C73.4101 30.3662 73.4204 30.3421 73.431 30.3173C73.6847 29.7209 73.9078 29.1159 74.1186 28.5029C74.1333 28.4607 74.148 28.4185 74.1631 28.375C74.3297 27.8959 74.4778 27.418 74.5933 26.924C74.6255 26.7875 74.6655 26.6557 74.7124 26.5234Z" fill="#352E2C"/>
<path d="M106.301 34.594C106.542 34.7326 106.697 34.9572 106.79 35.2155C106.875 35.6242 106.85 36.0477 106.661 36.423C106.537 36.5987 106.38 36.7365 106.171 36.8014C105.807 36.8625 105.403 36.8828 105.078 36.6877C104.855 36.5015 104.707 36.2346 104.671 35.9453C104.643 35.5242 104.651 35.1479 104.919 34.7998C105.29 34.4254 105.831 34.3771 106.301 34.594Z" fill="#38302E"/>
<path d="M94.5488 34.5195C94.7056 34.5195 94.8624 34.5195 95.0239 34.5195C95.0397 34.5936 95.0554 34.6676 95.0717 34.7439C95.0929 34.8432 95.1141 34.9424 95.1352 35.0416C95.1456 35.0902 95.1559 35.1387 95.1666 35.1888C95.2347 35.5075 95.3059 35.8254 95.3802 36.1427C95.3894 36.1048 95.3986 36.0669 95.408 36.0278C95.4424 35.8858 95.4768 35.7439 95.5112 35.6019C95.526 35.5407 95.5408 35.4795 95.5556 35.4183C95.5771 35.3299 95.5985 35.2414 95.6199 35.153C95.6264 35.126 95.633 35.0991 95.6397 35.0713C95.6843 34.8872 95.73 34.7033 95.7761 34.5195C95.9721 34.5195 96.168 34.5195 96.37 34.5195C96.4029 34.6605 96.4029 34.6605 96.4364 34.8042C96.4579 34.896 96.4794 34.9877 96.5009 35.0794C96.5158 35.1428 96.5306 35.2062 96.5454 35.2696C96.5667 35.3611 96.5882 35.4526 96.6097 35.5441C96.6162 35.5721 96.6227 35.6001 96.6294 35.629C96.6701 35.8018 96.7158 35.9723 96.7658 36.1427C96.7757 36.0922 96.7757 36.0922 96.7858 36.0406C96.8107 35.9134 96.8357 35.7863 96.8608 35.6592C96.8716 35.6046 96.8823 35.5499 96.8929 35.4953C96.9572 35.1661 97.0293 34.842 97.1222 34.5195C97.2659 34.5195 97.4096 34.5195 97.5576 34.5195C97.5349 34.826 97.4644 35.1166 97.3884 35.4135C97.3673 35.496 97.3466 35.5785 97.3259 35.6611C97.2283 36.0483 97.1297 36.4368 97.0034 36.8157C96.8205 36.8157 96.6376 36.8157 96.4491 36.8157C96.4118 36.6617 96.3745 36.5076 96.3373 36.3535C96.3185 36.276 96.2997 36.1985 96.281 36.121C96.2031 35.7988 96.1271 35.4762 96.0532 35.153C96.0356 35.2264 96.0356 35.2264 96.0175 35.3013C95.9739 35.4824 95.9301 35.6633 95.8863 35.8443C95.8673 35.9227 95.8484 36.0012 95.8295 36.0797C95.8024 36.1922 95.7751 36.3047 95.7478 36.4172C95.7351 36.4702 95.7351 36.4702 95.7222 36.5242C95.7143 36.5567 95.7063 36.5892 95.6982 36.6226C95.6912 36.6514 95.6843 36.6801 95.6771 36.7098C95.6573 36.7761 95.6573 36.7761 95.6177 36.8157C95.5246 36.8186 95.4313 36.819 95.3381 36.8182C95.2871 36.8178 95.236 36.8175 95.1833 36.8171C95.1438 36.8167 95.1042 36.8162 95.0635 36.8157C94.9163 36.2643 94.7747 35.7125 94.6503 35.1554C94.6349 35.0873 94.6349 35.0873 94.6193 35.0178C94.6099 34.9755 94.6006 34.9332 94.591 34.8896C94.5829 34.8525 94.5747 34.8153 94.5662 34.777C94.5488 34.6779 94.5488 34.6779 94.5488 34.5195Z" fill="#393130"/>
<path d="M114.263 34.5185C114.419 34.5185 114.576 34.5185 114.738 34.5185C114.83 34.8762 114.909 35.2353 114.983 35.5973C114.994 35.6504 115.005 35.7036 115.015 35.7567C115.042 35.885 115.068 36.0133 115.094 36.1417C115.106 36.0939 115.118 36.0461 115.13 35.9969C115.173 35.8203 115.217 35.6438 115.261 35.4672C115.28 35.3907 115.299 35.3142 115.318 35.2376C115.345 35.1278 115.372 35.0181 115.4 34.9083C115.408 34.8739 115.416 34.8395 115.425 34.804C115.485 34.5626 115.485 34.5626 115.53 34.5185C115.623 34.5156 115.716 34.5152 115.809 34.516C115.86 34.5164 115.911 34.5167 115.964 34.5171C116.004 34.5175 116.043 34.518 116.084 34.5185C116.216 35.0727 116.348 35.627 116.48 36.1812C116.49 36.131 116.49 36.131 116.5 36.0798C116.525 35.9531 116.55 35.8265 116.575 35.6999C116.585 35.6456 116.596 35.5912 116.607 35.5368C116.674 35.1948 116.748 34.8561 116.836 34.5185C116.993 34.5185 117.15 34.5185 117.311 34.5185C117.302 34.5546 117.293 34.5908 117.284 34.628C117.215 34.9032 117.146 35.1784 117.078 35.4538C117.043 35.5932 117.009 35.7326 116.974 35.8719C116.956 35.9439 116.938 36.0158 116.92 36.0877C116.894 36.1931 116.868 36.2983 116.842 36.4036C116.83 36.452 116.83 36.452 116.818 36.5013C116.761 36.7265 116.761 36.7265 116.717 36.8147C116.534 36.8147 116.351 36.8147 116.163 36.8147C116.152 36.7683 116.142 36.722 116.131 36.6742C116.092 36.5026 116.052 36.331 116.013 36.1594C115.996 36.085 115.979 36.0107 115.962 35.9363C115.938 35.8296 115.913 35.7229 115.888 35.6162C115.881 35.5828 115.873 35.5494 115.866 35.5151C115.829 35.3489 115.829 35.3489 115.767 35.1915C115.636 35.7272 115.506 36.2628 115.371 36.8147C115.175 36.8147 114.979 36.8147 114.777 36.8147C114.684 36.4453 114.592 36.0758 114.5 35.7062C114.49 35.6638 114.479 35.6215 114.468 35.5778C114.441 35.4664 114.414 35.355 114.386 35.2435C114.378 35.2112 114.37 35.1788 114.362 35.1455C114.312 34.9368 114.283 34.7323 114.263 34.5185Z" fill="#38312F"/>
<path d="M79.3047 34.5223C79.4925 34.519 79.6803 34.5158 79.8738 34.5124C79.9322 34.511 79.9906 34.5095 80.0508 34.508C80.3573 34.5055 80.6198 34.5216 80.8883 34.6807C81.0269 34.8193 81.0563 34.9283 81.064 35.1186C81.0564 35.2809 81.0383 35.3869 80.9279 35.5121C80.8017 35.6036 80.8017 35.6036 80.6903 35.6704C80.7205 35.69 80.7507 35.7096 80.7819 35.7298C80.9945 35.9276 81.03 36.2254 81.0738 36.5018C81.079 36.5325 81.0841 36.5631 81.0894 36.5947C81.1018 36.6693 81.1139 36.7439 81.1258 36.8185C80.956 36.8185 80.7861 36.8185 80.6111 36.8185C80.5428 36.6134 80.5182 36.4228 80.506 36.2069C80.4885 36.0648 80.4885 36.0648 80.4132 35.9475C80.3066 35.9288 80.2182 35.9201 80.1113 35.9178C80.015 35.9146 79.9186 35.9113 79.8194 35.9079C79.8194 36.2084 79.8194 36.5089 79.8194 36.8185C79.6495 36.8185 79.4797 36.8185 79.3047 36.8185C79.3047 36.0608 79.3047 35.303 79.3047 34.5223Z" fill="#393230"/>
<path d="M122.183 34.5195C123.549 34.5195 123.549 34.5195 123.828 34.7595C123.94 34.9065 123.955 35.0361 123.943 35.2176C123.915 35.3601 123.864 35.4429 123.766 35.5489C123.638 35.6231 123.638 35.6231 123.529 35.6676C123.565 35.6946 123.602 35.7215 123.64 35.7493C123.897 35.9683 123.908 36.2547 123.947 36.5739C123.96 36.698 123.96 36.698 124.004 36.8157C123.821 36.8157 123.638 36.8157 123.449 36.8157C123.445 36.7694 123.441 36.7232 123.436 36.6755C123.43 36.6142 123.424 36.5529 123.417 36.4916C123.415 36.4611 123.412 36.4307 123.409 36.3993C123.383 36.1508 123.383 36.1508 123.252 35.9448C123.141 35.9229 123.058 35.9136 122.947 35.9126C122.852 35.9101 122.756 35.9077 122.658 35.9052C122.658 36.2057 122.658 36.5061 122.658 36.8157C122.501 36.8157 122.344 36.8157 122.183 36.8157C122.183 36.058 122.183 35.3002 122.183 34.5195Z" fill="#362F2D"/>
<path d="M73.7991 23.7891C73.9611 23.8149 74.0982 23.867 74.2483 23.9326C74.2723 23.943 74.2963 23.9534 74.321 23.9641C74.3986 23.998 74.4762 24.0321 74.5538 24.0662C74.6071 24.0895 74.6605 24.1128 74.7139 24.1361C75.1362 24.3207 75.557 24.5086 75.9765 24.6996C75.8123 24.9222 75.642 25.1388 75.4668 25.3529C75.4433 25.3816 75.4198 25.4104 75.3957 25.4401C75.3386 25.51 75.2815 25.5799 75.2243 25.6498C74.6836 25.4156 74.151 25.1647 73.6187 24.9123C73.5897 24.8986 73.5608 24.8849 73.5309 24.8708C73.476 24.8448 73.421 24.8187 73.3661 24.7926C73.2605 24.7427 73.1578 24.697 73.0469 24.66C73.0981 24.5468 73.1516 24.4668 73.2408 24.3806C73.2631 24.3588 73.2853 24.337 73.3082 24.3145C73.3314 24.2921 73.3546 24.2698 73.3784 24.2468C73.5291 24.1007 73.6718 23.9568 73.7991 23.7891Z" fill="#362E2C"/>
<path d="M83.3953 34.5156C83.4505 34.5159 83.5057 34.5164 83.5609 34.517C83.5891 34.5172 83.6172 34.5174 83.6462 34.5176C83.7159 34.518 83.7856 34.5187 83.8554 34.5195C83.8811 34.5934 83.8811 34.5934 83.9074 34.6689C83.9717 34.8535 84.036 35.0382 84.1004 35.2229C84.1281 35.3025 84.1558 35.3821 84.1835 35.4617C84.2236 35.5768 84.2637 35.6918 84.3038 35.8069C84.316 35.8419 84.3282 35.8769 84.3407 35.913C84.3526 35.947 84.3645 35.9811 84.3767 36.0161C84.3884 36.0496 84.4 36.083 84.412 36.1175C84.4384 36.1916 84.4657 36.2654 84.4935 36.339C84.508 36.3775 84.5225 36.416 84.5375 36.4556C84.5509 36.4905 84.5642 36.5253 84.578 36.5612C84.6076 36.6573 84.6076 36.6573 84.6076 36.8157C84.4508 36.8157 84.294 36.8157 84.1325 36.8157C84.0541 36.6001 84.0541 36.6001 83.9741 36.3802C83.6736 36.3671 83.3732 36.3541 83.0636 36.3406C83.0244 36.4713 82.9852 36.6019 82.9448 36.7365C82.9317 36.7626 82.9187 36.7888 82.9052 36.8157C82.7615 36.8157 82.6178 36.8157 82.4697 36.8157C82.4927 36.6589 82.5258 36.5158 82.5786 36.3665C82.5927 36.3262 82.6069 36.2859 82.6214 36.2444C82.6367 36.2016 82.652 36.1588 82.6677 36.1147C82.6833 36.0703 82.699 36.0259 82.7152 35.9802C82.7482 35.8867 82.7814 35.7932 82.8146 35.6998C82.8657 35.5562 82.9164 35.4124 82.9671 35.2687C82.9992 35.1779 83.0314 35.0871 83.0636 34.9963C83.0788 34.9531 83.0941 34.9098 83.1098 34.8653C83.1239 34.8257 83.1381 34.786 83.1526 34.7452C83.1651 34.7101 83.1776 34.675 83.1904 34.6389C83.2421 34.5081 83.2432 34.52 83.3953 34.5156Z" fill="#38312F"/>
<path d="M119.368 34.5195C119.564 34.5195 119.76 34.5195 119.962 34.5195C120.138 34.9233 120.284 35.3354 120.428 35.7512C120.469 35.8691 120.511 35.9869 120.552 36.1046C120.578 36.1796 120.605 36.2546 120.631 36.3297C120.643 36.3648 120.655 36.3999 120.668 36.4361C120.679 36.4687 120.691 36.5012 120.702 36.5347C120.712 36.5633 120.722 36.5918 120.732 36.6212C120.754 36.697 120.754 36.697 120.754 36.8157C120.597 36.8157 120.44 36.8157 120.279 36.8157C120.12 36.4297 120.12 36.4297 120.12 36.3407C119.82 36.3537 119.519 36.3668 119.21 36.3802C119.157 36.524 119.105 36.6677 119.051 36.8157C118.894 36.8157 118.738 36.8157 118.576 36.8157C118.66 36.5288 118.753 36.247 118.854 35.9655C118.869 35.9239 118.883 35.8822 118.899 35.8394C118.945 35.7079 118.992 35.5764 119.039 35.4449C119.071 35.3552 119.103 35.2654 119.135 35.1757C119.212 34.9569 119.29 34.7382 119.368 34.5195Z" fill="#38312F"/>
<path d="M76.6658 34.5156C76.721 34.5159 76.7762 34.5164 76.8314 34.517C76.8596 34.5172 76.8877 34.5174 76.9167 34.5176C76.9864 34.518 77.0562 34.5187 77.1259 34.5195C77.1516 34.5934 77.1516 34.5934 77.1779 34.6689C77.2422 34.8535 77.3065 35.0382 77.3709 35.2229C77.3986 35.3025 77.4263 35.3821 77.4541 35.4617C77.4941 35.5768 77.5342 35.6918 77.5743 35.8069C77.5865 35.8419 77.5987 35.8769 77.6112 35.913C77.6231 35.947 77.635 35.9811 77.6472 36.0161C77.6589 36.0496 77.6705 36.083 77.6825 36.1175C77.7089 36.1916 77.7362 36.2654 77.764 36.339C77.7785 36.3775 77.793 36.416 77.808 36.4556C77.8214 36.4905 77.8348 36.5253 77.8485 36.5612C77.8781 36.6573 77.8781 36.6573 77.8781 36.8157C77.7213 36.8157 77.5645 36.8157 77.403 36.8157C77.3246 36.6001 77.3246 36.6001 77.2446 36.3802C76.9442 36.3671 76.6437 36.3541 76.3341 36.3406C76.2949 36.4843 76.2557 36.628 76.2153 36.7761C76.1757 36.8157 76.1757 36.8157 76.0766 36.8196C76.0366 36.8191 75.9967 36.8186 75.9555 36.8182C75.9154 36.8178 75.8754 36.8174 75.8341 36.8171C75.8031 36.8166 75.7722 36.8162 75.7402 36.8157C75.7958 36.5375 75.8774 36.2771 75.973 36.0103C75.9877 35.9687 76.0024 35.9271 76.0176 35.8843C76.0486 35.7971 76.0796 35.7099 76.1108 35.6228C76.1586 35.4888 76.2061 35.3548 76.2536 35.2207C76.2837 35.1358 76.3139 35.051 76.3441 34.9661C76.3584 34.9259 76.3727 34.8856 76.3874 34.8442C76.4006 34.8073 76.4138 34.7704 76.4274 34.7324C76.439 34.6998 76.4507 34.6672 76.4627 34.6336C76.5133 34.5069 76.5174 34.5199 76.6658 34.5156Z" fill="#38312F"/>
<path d="M74.276 20.7422C74.4554 20.7678 74.6077 20.8372 74.7696 20.9145C74.798 20.9278 74.8264 20.9412 74.8556 20.9549C74.9157 20.9832 74.9757 21.0116 75.0357 21.0402C75.1257 21.0829 75.2158 21.1253 75.306 21.1676C75.6549 21.3322 75.9973 21.5051 76.3347 21.6923C76.2848 21.7982 76.2309 21.8889 76.1581 21.9804C76.1394 22.004 76.1207 22.0277 76.1015 22.052C76.0821 22.0762 76.0627 22.1004 76.0427 22.1254C76.0236 22.1494 76.0045 22.1735 75.9849 22.1983C75.9301 22.2673 75.8751 22.3361 75.82 22.405C75.7893 22.4434 75.7586 22.4818 75.7269 22.5214C75.6946 22.5617 75.6946 22.5617 75.6616 22.6029C75.5202 22.5801 75.4121 22.5434 75.2872 22.4736C75.2534 22.4549 75.2196 22.4362 75.1847 22.417C75.1486 22.3967 75.1125 22.3764 75.0752 22.3555C74.9978 22.3126 74.9203 22.2697 74.8428 22.2268C74.8023 22.2043 74.7618 22.1818 74.72 22.1586C74.5019 22.038 74.2825 21.9197 74.0632 21.8012C73.9821 21.7573 73.9009 21.7134 73.8198 21.6695C73.7607 21.6375 73.7017 21.6055 73.6426 21.5736C73.6426 21.4152 73.6426 21.4152 73.7409 21.3028C73.7836 21.2615 73.8268 21.2206 73.8702 21.1801C74.0168 21.0408 74.1533 20.904 74.276 20.7422Z" fill="#362E2C"/>
<path d="M72.7734 34.5195C73.9801 34.5195 73.9801 34.5195 74.201 34.7077C74.228 34.7432 74.228 34.7432 74.2556 34.7793C74.2743 34.8031 74.293 34.8268 74.3123 34.8512C74.4354 35.028 74.4219 35.2219 74.3966 35.4301C74.3234 35.6099 74.2133 35.7712 74.0403 35.8656C73.7746 35.9714 73.5317 35.9501 73.2485 35.9448C73.2485 36.2322 73.2485 36.5196 73.2485 36.8157C73.0917 36.8157 72.935 36.8157 72.7734 36.8157C72.7734 36.058 72.7734 35.3002 72.7734 34.5195Z" fill="#38312F"/>
<path d="M102.821 34.5883C102.968 34.6835 103.073 34.7834 103.116 34.9613C103.126 35.0379 103.131 35.1151 103.135 35.1923C102.978 35.1923 102.822 35.1923 102.66 35.1923C102.643 35.1474 102.626 35.1025 102.608 35.0562C102.586 35.0097 102.564 34.9631 102.541 34.9152C102.37 34.8581 102.217 34.8444 102.049 34.9177C101.975 34.9963 101.975 34.9963 101.967 35.1329C101.973 35.2689 101.973 35.2689 102.047 35.3335C102.209 35.4267 102.386 35.4633 102.566 35.5097C102.79 35.5709 102.966 35.6516 103.129 35.8236C103.214 35.9745 103.194 36.1333 103.175 36.3008C103.097 36.5306 102.948 36.6688 102.734 36.7807C102.578 36.8285 102.433 36.8285 102.272 36.8279C102.241 36.8285 102.211 36.8291 102.179 36.8298C101.958 36.83 101.793 36.789 101.591 36.6967C101.497 36.6002 101.497 36.6002 101.433 36.4988C101.416 36.4743 101.4 36.4498 101.383 36.4245C101.341 36.3034 101.349 36.1905 101.354 36.0633C101.523 36.0633 101.693 36.0633 101.868 36.0633C101.885 36.1432 101.902 36.2231 101.919 36.303C101.944 36.3947 101.944 36.3947 102.066 36.4592C102.16 36.4732 102.16 36.4732 102.262 36.4716C102.296 36.4722 102.329 36.4729 102.364 36.4736C102.483 36.4561 102.537 36.4263 102.621 36.3404C102.64 36.2593 102.64 36.2593 102.63 36.1746C102.627 36.1248 102.624 36.075 102.621 36.0237C102.597 36.017 102.574 36.0102 102.551 36.0033C102.481 35.9828 102.412 35.962 102.343 35.941C102.263 35.9166 102.183 35.893 102.102 35.8701C101.853 35.7949 101.642 35.715 101.472 35.509C101.404 35.3033 101.415 35.1313 101.477 34.9276C101.604 34.7033 101.775 34.5799 102.016 34.4998C102.299 34.4364 102.562 34.4555 102.821 34.5883Z" fill="#393230"/>
<path d="M91.5381 34.5195C92.0476 34.5195 92.5571 34.5195 93.0821 34.5195C93.0821 34.6502 93.0821 34.7808 93.0821 34.9154C92.7424 34.9154 92.4027 34.9154 92.0528 34.9154C92.0528 35.0853 92.0528 35.2551 92.0528 35.4301C92.3663 35.4301 92.6799 35.4301 93.0029 35.4301C93.0029 35.5607 93.0029 35.6914 93.0029 35.826C92.6894 35.826 92.3758 35.826 92.0528 35.826C92.0528 36.022 92.0528 36.2179 92.0528 36.4198C92.4055 36.4198 92.7582 36.4198 93.1217 36.4198C93.1217 36.5505 93.1217 36.6811 93.1217 36.8157C92.5991 36.8157 92.0765 36.8157 91.5381 36.8157C91.5381 36.058 91.5381 35.3002 91.5381 34.5195Z" fill="#3C3533"/>
<path d="M125.467 34.5195C125.963 34.5195 126.46 34.5195 126.971 34.5195C126.971 34.6502 126.971 34.7808 126.971 34.9154C126.632 34.9154 126.292 34.9154 125.942 34.9154C125.942 35.0853 125.942 35.2551 125.942 35.4301C126.255 35.4301 126.569 35.4301 126.892 35.4301C126.892 35.5607 126.892 35.6914 126.892 35.826C126.578 35.826 126.265 35.826 125.942 35.826C125.942 36.022 125.942 36.2179 125.942 36.4198C126.295 36.4198 126.647 36.4198 127.011 36.4198C127.011 36.5505 127.011 36.6811 127.011 36.8157C126.501 36.8157 125.992 36.8157 125.467 36.8157C125.467 36.058 125.467 35.3002 125.467 34.5195Z" fill="#37302E"/>
<path d="M85.918 34.5178C86.0878 34.5178 86.2576 34.5178 86.4326 34.5178C86.4464 34.5593 86.4602 34.6008 86.4744 34.6436C86.5259 34.7988 86.5775 34.9541 86.6291 35.1093C86.6513 35.1763 86.6736 35.2432 86.6958 35.3102C86.7279 35.4069 86.76 35.5036 86.7922 35.6003C86.802 35.6298 86.8117 35.6594 86.8218 35.6898C86.8857 35.8816 86.9545 36.0708 87.0265 36.2597C87.0492 36.1869 87.0492 36.1869 87.0725 36.1126C87.1288 35.9326 87.1854 35.7527 87.242 35.5728C87.2665 35.4949 87.2909 35.4169 87.3153 35.339C87.3503 35.227 87.3855 35.1151 87.4208 35.0032C87.4317 34.9683 87.4425 34.9334 87.4537 34.8975C87.464 34.865 87.4743 34.8325 87.4849 34.799C87.4984 34.7562 87.4984 34.7562 87.5121 34.7125C87.5411 34.6365 87.5411 34.6365 87.6203 34.5178C87.7233 34.5062 87.7233 34.5062 87.843 34.5104C87.9026 34.512 87.9026 34.512 87.9633 34.5136C87.9938 34.515 88.0244 34.5164 88.0558 34.5178C88.0001 34.8012 87.9141 35.063 87.813 35.3332C87.7895 35.3971 87.7895 35.3971 87.7654 35.4622C87.7156 35.597 87.6655 35.7316 87.6154 35.8663C87.5814 35.9581 87.5474 36.05 87.5135 36.1418C87.4306 36.366 87.3474 36.59 87.264 36.814C87.0811 36.814 86.8982 36.814 86.7098 36.814C86.6122 36.5439 86.5148 36.2737 86.4176 36.0035C86.3724 35.878 86.3272 35.7526 86.2819 35.6271C86.2298 35.4828 86.1779 35.3384 86.126 35.1941C86.1016 35.1267 86.1016 35.1267 86.0767 35.0581C86.0617 35.0161 86.0466 34.9741 86.0311 34.9308C86.0178 34.894 86.0046 34.8571 85.9909 34.8192C85.9576 34.7157 85.9576 34.7157 85.918 34.5178Z" fill="#38312F"/>
<path d="M108.404 34.5195C108.875 34.5195 109.345 34.5195 109.83 34.5195C109.83 34.6502 109.83 34.7808 109.83 34.9154C109.503 34.9154 109.176 34.9154 108.84 34.9154C108.84 35.0983 108.84 35.2812 108.84 35.4697C109.153 35.4697 109.467 35.4697 109.79 35.4697C109.79 35.5873 109.79 35.7048 109.79 35.826C109.489 35.826 109.189 35.826 108.879 35.826C108.879 36.1526 108.879 36.4792 108.879 36.8157C108.723 36.8157 108.566 36.8157 108.404 36.8157C108.404 36.058 108.404 35.3002 108.404 34.5195Z" fill="#37302E"/>
<path d="M111.136 34.5195C111.737 34.5195 112.338 34.5195 112.957 34.5195C112.957 34.6502 112.957 34.7808 112.957 34.9154C112.735 34.9154 112.513 34.9154 112.284 34.9154C112.284 35.5425 112.284 36.1696 112.284 36.8157C112.127 36.8157 111.97 36.8157 111.809 36.8157C111.809 36.1886 111.809 35.5615 111.809 34.9154C111.587 34.9154 111.365 34.9154 111.136 34.9154C111.136 34.7848 111.136 34.6541 111.136 34.5195Z" fill="#362F2D"/>
<path d="M105.947 34.8356C106.134 34.9277 106.228 35.0823 106.303 35.2711C106.32 35.3961 106.32 35.5188 106.318 35.6447C106.318 35.6772 106.319 35.7097 106.319 35.7432C106.318 35.9999 106.275 36.1931 106.105 36.3945C105.951 36.5193 105.78 36.5175 105.59 36.4984C105.404 36.4375 105.321 36.3579 105.227 36.1862C105.166 36.0296 105.173 35.8726 105.177 35.7066C105.177 35.6724 105.177 35.6382 105.176 35.603C105.179 35.3244 105.227 35.1322 105.415 34.9173C105.576 34.7963 105.755 34.7969 105.947 34.8356Z" fill="#FBFBFB"/>
<path d="M43.793 19.7539C48.9796 19.7539 54.1662 19.7539 59.5101 19.7539C59.5101 19.767 59.5101 19.78 59.5101 19.7935C54.3495 19.7935 49.189 19.7935 43.8721 19.7935C43.8721 21.6748 43.8721 23.5561 43.8721 25.4944C44.643 25.4944 45.4138 25.4944 46.2079 25.4944C46.221 24.4884 46.2341 23.4825 46.2475 22.446C46.2867 22.4656 46.2867 22.4656 46.3267 22.4856C46.3136 23.5046 46.3006 24.5237 46.2871 25.5736C45.464 25.5736 44.641 25.5736 43.793 25.5736C43.793 23.6531 43.793 21.7326 43.793 19.7539Z" fill="#FDE0E2"/>
<path d="M89.5176 34.5195C89.6744 34.5195 89.8311 34.5195 89.9927 34.5195C89.9927 35.2773 89.9927 36.035 89.9927 36.8157C89.8359 36.8157 89.6791 36.8157 89.5176 36.8157C89.5176 36.058 89.5176 35.3002 89.5176 34.5195Z" fill="#342C2A"/>
<path d="M49.5312 22.2473C50.7729 22.2464 52.0146 22.2457 53.2563 22.2453C53.4029 22.2452 53.5495 22.2452 53.6961 22.2451C53.7253 22.2451 53.7545 22.2451 53.7845 22.2451C54.2571 22.2449 54.7296 22.2446 55.2022 22.2442C55.687 22.2439 56.1719 22.2437 56.6568 22.2436C56.956 22.2435 57.2552 22.2433 57.5544 22.243C57.7838 22.2428 58.0132 22.2428 58.2426 22.2428C58.3367 22.2428 58.4308 22.2427 58.5249 22.2426C58.6533 22.2424 58.7817 22.2424 58.9101 22.2425C58.9474 22.2424 58.9848 22.2423 59.0233 22.2422C59.2026 22.2426 59.371 22.2502 59.5474 22.2869C59.5474 22.3 59.5474 22.313 59.5474 22.3265C59.3645 22.3265 59.1816 22.3265 58.9932 22.3265C58.9801 22.3526 58.967 22.3787 58.9536 22.4057C58.9405 22.3926 58.9275 22.3795 58.914 22.3661C58.7959 22.3617 58.6787 22.3599 58.5605 22.3598C58.523 22.3596 58.4855 22.3594 58.4468 22.3592C58.32 22.3586 58.1932 22.3583 58.0664 22.3579C57.9759 22.3576 57.8854 22.3572 57.7949 22.3568C57.5484 22.3557 57.3018 22.3548 57.0553 22.3541C56.798 22.3532 56.5407 22.3521 56.2833 22.351C55.8512 22.3493 55.419 22.3477 54.9868 22.3462C54.5416 22.3446 54.0964 22.343 53.6512 22.3412C53.6238 22.3411 53.5963 22.341 53.5681 22.3409C53.4305 22.3403 53.2929 22.3398 53.1554 22.3393C52.0133 22.3347 50.8713 22.3305 49.7292 22.3265C49.7423 22.3918 49.7553 22.4571 49.7688 22.5244C49.5758 22.3364 49.5758 22.3364 49.5312 22.2473Z" fill="#CD3035"/>
<path d="M52.663 30.4399C52.6234 30.4795 52.6234 30.4795 52.5202 30.4843C52.4506 30.4843 52.4507 30.4843 52.3797 30.4842C52.3411 30.4843 52.3411 30.4843 52.3017 30.4843C52.2148 30.4844 52.1279 30.4842 52.0411 30.484C51.979 30.4839 51.917 30.4839 51.855 30.484C51.6861 30.484 51.5172 30.4837 51.3483 30.4835C51.172 30.4832 50.9957 30.4832 50.8193 30.4832C50.4852 30.483 50.1511 30.4827 49.817 30.4823C49.3656 30.4818 48.9143 30.4816 48.463 30.4813C47.7515 30.481 47.0401 30.4802 46.3287 30.4795C46.3287 32.3999 46.3287 34.3204 46.3287 36.2991C46.3156 36.2991 46.3025 36.2991 46.2891 36.2991C46.2891 34.3525 46.2891 32.4059 46.2891 30.4003C47.8529 30.3872 47.8529 30.3872 48.5068 30.3823C48.9588 30.379 49.4108 30.3756 49.8628 30.3716C50.1919 30.3687 50.5211 30.3661 50.8502 30.3639C51.0246 30.3627 51.1989 30.3613 51.3732 30.3596C51.5372 30.3581 51.7012 30.3569 51.8652 30.3559C51.9255 30.3555 51.9858 30.355 52.0461 30.3543C52.1282 30.3534 52.2103 30.353 52.2925 30.3527C52.3385 30.3523 52.3845 30.3519 52.4319 30.3516C52.5442 30.3607 52.5442 30.3607 52.663 30.4399Z" fill="#BD4F53"/>
<path d="M122.655 34.915C123.238 34.9042 123.238 34.9042 123.368 34.9942C123.425 35.1085 123.422 35.1841 123.407 35.3109C123.343 35.4247 123.343 35.4247 123.21 35.5088C123.022 35.5257 122.845 35.5177 122.655 35.5088C122.655 35.3129 122.655 35.1169 122.655 34.915Z" fill="#FAF9F9"/>
<path d="M79.8193 34.9181C80.3456 34.9034 80.3456 34.9034 80.4695 34.9682C80.555 35.0621 80.5511 35.1495 80.553 35.273C80.5215 35.3936 80.474 35.4388 80.3736 35.5119C80.1867 35.533 80.008 35.5189 79.8193 35.5119C79.8193 35.3159 79.8193 35.12 79.8193 34.9181Z" fill="#FCFBFB"/>
<path d="M73.2471 34.918C73.6787 34.9008 73.6787 34.9008 73.8409 35.0368C73.8896 35.1342 73.8811 35.1866 73.8706 35.2941C73.868 35.3256 73.8653 35.357 73.8626 35.3894C73.8409 35.4723 73.8409 35.4723 73.7221 35.5515C73.5632 35.5621 73.4066 35.5549 73.2471 35.5515C73.2471 35.3424 73.2471 35.1334 73.2471 34.918Z" fill="#F8F7F7"/>
<path d="M76.7732 34.9961C76.7994 34.9961 76.8255 34.9961 76.8524 34.9961C76.8988 35.1395 76.9449 35.2831 76.991 35.4266C77.0042 35.4675 77.0174 35.5084 77.031 35.5505C77.0435 35.5895 77.056 35.6286 77.0689 35.6688C77.0805 35.7049 77.0921 35.741 77.1041 35.7781C77.1295 35.8671 77.1295 35.8671 77.1295 35.9462C76.9205 35.9462 76.7115 35.9462 76.4961 35.9462C76.5592 35.6191 76.6648 35.3103 76.7732 34.9961Z" fill="#F4F3F3"/>
<path d="M83.5027 34.9961C83.5288 34.9961 83.555 34.9961 83.5819 34.9961C83.6283 35.1395 83.6744 35.2831 83.7205 35.4266C83.7337 35.4675 83.7469 35.5084 83.7605 35.5505C83.773 35.5895 83.7855 35.6286 83.7984 35.6688C83.81 35.7049 83.8216 35.741 83.8336 35.7781C83.859 35.8671 83.859 35.8671 83.859 35.9462C83.65 35.9462 83.441 35.9462 83.2256 35.9462C83.2887 35.6191 83.3942 35.3103 83.5027 34.9961Z" fill="#F4F3F3"/>
<path d="M119.644 34.9961C119.723 35.0357 119.723 35.0357 119.754 35.1067C119.764 35.137 119.773 35.1673 119.783 35.1985C119.794 35.2316 119.804 35.2647 119.815 35.2988C119.826 35.3336 119.836 35.3685 119.847 35.4044C119.858 35.4387 119.869 35.4731 119.88 35.5085C119.929 35.6644 119.961 35.7808 119.961 35.9462C119.765 35.9462 119.569 35.9462 119.367 35.9462C119.412 35.6345 119.412 35.6345 119.463 35.4948C119.478 35.4506 119.478 35.4506 119.495 35.4055C119.506 35.3757 119.517 35.346 119.528 35.3153C119.539 35.2844 119.55 35.2536 119.562 35.2218C119.589 35.1465 119.617 35.0713 119.644 34.9961Z" fill="#F6F5F5"/>
<path d="M49.5312 42.9912C49.7748 42.9873 49.7748 42.9873 49.848 42.9912C49.861 43.0042 49.8741 43.0173 49.8876 43.0308C49.9666 43.039 50.0458 43.0453 50.1251 43.0506C50.3582 43.066 50.3582 43.066 50.4022 43.1099C50.5014 43.1183 50.5998 43.1248 50.6991 43.1297C50.9907 43.1442 50.9907 43.1442 51.0357 43.1891C51.135 43.1955 51.2333 43.1994 51.3327 43.2017C51.3636 43.2025 51.3944 43.2033 51.4261 43.2042C51.5277 43.2068 51.6293 43.2091 51.7309 43.2114C51.7826 43.2127 51.7826 43.2127 51.8352 43.2139C52.5057 43.2302 53.1759 43.2333 53.8465 43.2287C53.8465 43.2418 53.8465 43.2548 53.8465 43.2683C53.7118 43.2985 53.5867 43.3132 53.4487 43.3143C53.4097 43.3147 53.3707 43.315 53.3305 43.3154C53.2676 43.3157 53.2676 43.3157 53.2033 43.3159C53.1374 43.3164 53.1374 43.3164 53.0701 43.3168C52.9272 43.3175 52.7844 43.3177 52.6415 43.3178C52.5688 43.3179 52.5688 43.3179 52.4946 43.3179C51.4875 43.3174 50.5155 43.2589 49.5312 43.0308C49.5312 43.0177 49.5312 43.0046 49.5312 42.9912Z" fill="#A3363A"/>
<path d="M67.7842 26.8789C67.7973 26.8789 67.8103 26.8789 67.8238 26.8789C67.8668 27.219 67.8708 27.5557 67.8707 27.8979C67.8708 27.994 67.8715 28.09 67.8723 28.1861C67.8737 28.5703 67.868 28.9567 67.7842 29.3335C67.7581 29.3596 67.732 29.3857 67.705 29.4126C67.704 29.3541 67.7032 29.2955 67.7026 29.237C67.7019 29.188 67.7019 29.188 67.7012 29.1381C67.705 29.0563 67.705 29.0563 67.7446 29.0167C67.7495 28.95 67.7517 28.883 67.7528 28.816C67.7535 28.7732 67.7543 28.7304 67.7551 28.6863C67.7558 28.6398 67.7565 28.5932 67.7572 28.5452C67.758 28.4978 67.7588 28.4504 67.7596 28.4016C67.7622 28.2495 67.7646 28.0974 67.7669 27.9454C67.7686 27.8425 67.7703 27.7397 67.7721 27.6369C67.7763 27.3842 67.7804 27.1316 67.7842 26.8789Z" fill="#D75358"/>
<path d="M46.2891 22.4844C46.3413 22.5366 46.3936 22.5889 46.4474 22.6427C46.4082 22.6427 46.369 22.6427 46.3287 22.6427C46.3287 23.5964 46.3287 24.5502 46.3287 25.5328C46.3156 25.5328 46.3025 25.5328 46.2891 25.5328C46.2891 24.5268 46.2891 23.5208 46.2891 22.4844Z" fill="#C13237"/>
<path d="M45.0992 14.6484C45.0992 14.6746 45.0992 14.7007 45.0992 14.7276C45.0224 14.7817 45.0224 14.7817 44.9186 14.8414C44.8822 14.8626 44.8459 14.8837 44.8085 14.9055C44.7265 14.952 44.6444 14.9982 44.5623 15.0443C44.2685 15.2153 43.9974 15.4129 43.7287 15.6207C43.6976 15.6395 43.6665 15.6584 43.6344 15.6778C43.5952 15.6647 43.556 15.6516 43.5156 15.6382C43.8568 15.3793 44.201 15.1391 44.5712 14.9236C44.6805 14.8597 44.7875 14.7937 44.8938 14.7251C45.02 14.6484 45.02 14.6484 45.0992 14.6484Z" fill="#9C4346"/>
<path d="M52.3892 12.7C52.4585 12.7004 52.5277 12.7007 52.5969 12.701C52.7636 12.7019 52.9302 12.7033 53.0969 12.7049C53.0969 12.718 53.0969 12.731 53.0969 12.7445C53.0594 12.7455 53.0218 12.7465 52.9831 12.7475C52.8435 12.7513 52.7039 12.7552 52.5643 12.7592C52.504 12.761 52.4436 12.7626 52.3832 12.7642C52.2964 12.7665 52.2095 12.769 52.1226 12.7716C52.0823 12.7726 52.0823 12.7726 52.0411 12.7736C51.9119 12.7776 51.7963 12.7907 51.6717 12.8237C51.6088 12.8268 51.5459 12.8279 51.483 12.8275C51.4478 12.8274 51.4126 12.8273 51.3763 12.8272C51.3399 12.8268 51.3034 12.8265 51.2659 12.8262C51.2288 12.826 51.1918 12.8258 51.1536 12.8256C51.0624 12.8251 50.9711 12.8245 50.8799 12.8237C50.8799 12.8106 50.8799 12.7976 50.8799 12.7841C51.3854 12.7163 51.8795 12.6948 52.3892 12.7Z" fill="#964042"/>
<path d="M43.4365 15.6758C43.4365 15.715 43.4365 15.7542 43.4365 15.7946C43.3552 15.873 43.3552 15.873 43.2435 15.9603C43.2036 15.992 43.1637 16.0236 43.1226 16.0562C43.0624 16.1031 43.0624 16.1031 43.001 16.1509C42.7464 16.3505 42.5046 16.5567 42.2703 16.7803C42.1722 16.8613 42.0918 16.9034 41.9717 16.9426C42.0174 16.897 42.0631 16.8513 42.1089 16.8058C42.1494 16.7651 42.1895 16.7239 42.2292 16.6824C42.5929 16.3064 43.0249 15.9972 43.4365 15.6758Z" fill="#9C3A3D"/>
<path d="M37.9716 23.2344C37.9847 23.2344 37.9977 23.2344 38.0112 23.2344C37.9894 23.4163 37.9502 23.5758 37.8924 23.749C37.8867 23.7931 37.881 23.8372 37.8751 23.8827C37.8572 23.9979 37.8362 24.0765 37.7935 24.1821C37.7294 24.3413 37.7124 24.4894 37.6945 24.6596C37.6749 24.6792 37.6749 24.6792 37.6549 24.6992C37.6403 24.7914 37.6271 24.8838 37.6153 24.9763C37.5892 24.9763 37.5631 24.9763 37.5361 24.9763C37.5591 24.6517 37.6429 24.3506 37.7316 24.0385C37.746 23.9869 37.7604 23.9352 37.7748 23.8835C37.836 23.6654 37.8986 23.4489 37.9716 23.2344Z" fill="#963E41"/>
<path d="M49.5312 42.9912C49.7748 42.9873 49.7748 42.9873 49.848 42.9912C49.861 43.0042 49.8741 43.0173 49.8876 43.0308C49.9666 43.039 50.0458 43.0453 50.1251 43.0506C50.3582 43.066 50.3582 43.066 50.4022 43.1099C50.5014 43.1183 50.5998 43.1248 50.6991 43.1297C50.9907 43.1442 50.9907 43.1442 51.0357 43.1891C51.1278 43.2037 51.2202 43.2169 51.3128 43.2287C51.3128 43.2418 51.3128 43.2548 51.3128 43.2683C50.8993 43.2579 50.4963 43.2195 50.088 43.152C50.0465 43.1453 50.005 43.1386 49.9623 43.1316C49.9234 43.1249 49.8845 43.1182 49.8444 43.1113C49.8098 43.1054 49.7751 43.0994 49.7394 43.0933C49.65 43.0704 49.65 43.0704 49.5312 42.9912Z" fill="#A14447"/>
<path d="M67.7448 29.332C67.7578 29.332 67.7709 29.332 67.7844 29.332C67.7704 29.8578 67.6899 30.3608 67.5864 30.876C67.5734 30.876 67.5603 30.876 67.5468 30.876C67.5458 30.7977 67.545 30.7193 67.5444 30.641C67.5439 30.5973 67.5434 30.5537 67.543 30.5087C67.5468 30.401 67.5468 30.401 67.5864 30.3614C67.5947 30.2823 67.601 30.2031 67.6062 30.1238C67.6216 29.8907 67.6216 29.8907 67.6656 29.8467C67.6739 29.7751 67.6802 29.7033 67.6854 29.6314C67.7008 29.4199 67.7008 29.4199 67.7448 29.332Z" fill="#CE3A3F"/>
<path d="M48.2646 24.6602C48.6698 24.8339 48.9786 25.3156 49.2544 25.6499C49.1053 25.6283 49.049 25.5717 48.955 25.4569C48.8575 25.3388 48.8575 25.3388 48.751 25.2289C48.7001 25.1748 48.7001 25.1748 48.7001 25.0956C48.674 25.0956 48.6479 25.0956 48.621 25.0956C48.621 25.0695 48.621 25.0434 48.621 25.0165C48.5948 25.0165 48.5687 25.0165 48.5418 25.0165C48.4734 24.9486 48.4734 24.9486 48.3983 24.8606C48.3733 24.8316 48.3483 24.8027 48.3225 24.7729C48.2646 24.6997 48.2646 24.6997 48.2646 24.6602Z" fill="#CD3B40"/>
<path d="M60.5393 37.0536C60.378 37.1385 60.2146 37.1857 60.0395 37.2342C60.0078 37.243 59.976 37.2519 59.9433 37.261C59.7191 37.3215 59.505 37.359 59.2725 37.3703C59.3701 37.2727 59.4353 37.2634 59.5689 37.2314C59.6124 37.2209 59.6559 37.2105 59.7008 37.1997C59.7464 37.189 59.7921 37.1784 59.8391 37.1674C59.8843 37.1564 59.9295 37.1454 59.976 37.1341C60.3453 37.0465 60.3453 37.0465 60.5393 37.0536Z" fill="#A52327"/>
<path d="M41.9317 16.9414C41.9317 17.124 41.8174 17.2106 41.6942 17.3373C41.6042 17.4196 41.5119 17.4982 41.4171 17.5748C41.3909 17.5618 41.3648 17.5487 41.3379 17.5353C41.5339 17.3393 41.7298 17.1433 41.9317 16.9414Z" fill="#A6484C"/>
<path d="M49.7695 17.9726C49.8471 17.9715 49.9246 17.9708 50.0021 17.9701C50.0453 17.9697 50.0885 17.9692 50.133 17.9688C50.2446 17.9726 50.2446 17.9726 50.3238 18.0122C50.3238 18.0383 50.3238 18.0645 50.3238 18.0914C50.3891 18.0914 50.4544 18.0914 50.5217 18.0914C50.5217 18.1044 50.5217 18.1175 50.5217 18.131C50.2782 18.1348 50.2782 18.1348 50.205 18.131C50.192 18.1179 50.1789 18.1048 50.1654 18.0914C50.099 18.0758 50.0321 18.0621 49.965 18.0493C49.9286 18.0423 49.8922 18.0353 49.8547 18.0281C49.8266 18.0229 49.7985 18.0176 49.7695 18.0122C49.7695 17.9991 49.7695 17.9861 49.7695 17.9726Z" fill="#D0242A"/>
<path d="M66.4002 34.3203C66.4264 34.3334 66.4525 34.3464 66.4794 34.3599C66.3749 34.582 66.2704 34.8041 66.1627 35.0329C66.1496 35.0329 66.1366 35.0329 66.1231 35.0329C66.1151 34.8894 66.1287 34.8007 66.2023 34.6766C66.2284 34.6766 66.2545 34.6766 66.2815 34.6766C66.2888 34.6325 66.2888 34.6325 66.2963 34.5875C66.3193 34.4865 66.3502 34.4103 66.4002 34.3203Z" fill="#CB393F"/>
<path d="M63.3127 36.223C63.2641 36.2431 63.2641 36.2431 63.2144 36.2636C63.1717 36.2812 63.1291 36.2989 63.0851 36.3171C63.0429 36.3345 63.0006 36.352 62.9571 36.3699C62.8413 36.417 62.8413 36.417 62.7505 36.4695C62.6793 36.5002 62.6793 36.5002 62.5605 36.4606C62.7688 36.3217 63.06 36.132 63.3127 36.223Z" fill="#CE272D"/>
<path d="M37.6945 24.1484C37.7076 24.1484 37.7206 24.1484 37.7341 24.1484C37.7285 24.2334 37.7227 24.3184 37.7168 24.4033C37.7135 24.4506 37.7103 24.4979 37.707 24.5467C37.6945 24.6631 37.6945 24.6631 37.6549 24.7027C37.6403 24.7949 37.6271 24.8873 37.6153 24.9798C37.5892 24.9798 37.5631 24.9798 37.5361 24.9798C37.56 24.6934 37.6199 24.4258 37.6945 24.1484Z" fill="#98484B"/>
<path d="M63.9446 26.918C63.9577 26.918 63.9708 26.918 63.9842 26.918C63.9982 27.1136 63.9622 27.2237 63.8655 27.393C63.8512 27.4183 63.837 27.4436 63.8223 27.4696C63.7844 27.5367 63.7458 27.6035 63.7071 27.6702C63.681 27.6571 63.6549 27.644 63.6279 27.6306C63.6475 27.5891 63.667 27.5476 63.6872 27.5049C63.7128 27.4503 63.7384 27.3957 63.764 27.3411C63.7769 27.3138 63.7898 27.2864 63.8031 27.2583C63.8558 27.1458 63.9053 27.0359 63.9446 26.918Z" fill="#CF3D43"/>
<path d="M64.1818 26.0859C64.1949 26.0859 64.2079 26.0859 64.2214 26.0859C64.2225 26.1445 64.2232 26.2031 64.2239 26.2616C64.2243 26.2942 64.2248 26.3268 64.2253 26.3604C64.2214 26.4422 64.2214 26.4422 64.1818 26.4818C64.1672 26.574 64.154 26.6664 64.1422 26.759C64.103 26.759 64.0638 26.759 64.0234 26.759C64.0757 26.5369 64.128 26.3148 64.1818 26.0859Z" fill="#D24349"/>
<path d="M46.9612 13.8138C46.9391 13.8244 46.9171 13.835 46.8944 13.846C46.8008 13.8923 46.8008 13.8923 46.7088 13.9524C46.4399 14.106 46.4399 14.106 46.2809 14.073C46.2453 14.0623 46.2453 14.0623 46.209 14.0514C46.3119 14.0039 46.415 13.9569 46.5183 13.9103C46.5621 13.89 46.5621 13.89 46.6068 13.8693C46.635 13.8566 46.6632 13.844 46.6923 13.831C46.7182 13.8192 46.7441 13.8074 46.7708 13.7952C46.8424 13.7742 46.8424 13.7742 46.9612 13.8138Z" fill="#9A4346"/>
<path d="M50.8799 18.2087C51.0987 18.201 51.2661 18.2187 51.4737 18.2879C51.4737 18.314 51.4737 18.3401 51.4737 18.3671C51.2704 18.3416 51.0781 18.3004 50.8799 18.2483C50.8799 18.2352 50.8799 18.2222 50.8799 18.2087Z" fill="#CE242A"/>
<path d="M42.4468 16.4688C42.4598 16.5079 42.4729 16.5471 42.4863 16.5875C42.3426 16.7051 42.1989 16.8227 42.0509 16.9438C42.0247 16.9308 41.9986 16.9177 41.9717 16.9042C42.1285 16.7605 42.2852 16.6168 42.4468 16.4688Z" fill="#A04145"/>
<path d="M59.8652 41.4102C59.8652 41.4363 59.8652 41.4624 59.8652 41.4893C59.6496 41.5873 59.6496 41.5873 59.4297 41.6873C59.4297 41.6481 59.4297 41.6089 59.4297 41.5685C59.4798 41.5418 59.5302 41.5155 59.5806 41.4893C59.6086 41.4746 59.6367 41.4599 59.6655 41.4448C59.7464 41.4102 59.7464 41.4102 59.8652 41.4102Z" fill="#D03A40"/>
<path d="M47.7134 13.457C47.7395 13.4701 47.7656 13.4832 47.7925 13.4966C47.6686 13.6015 47.5542 13.6552 47.3966 13.6946C47.31 13.6766 47.31 13.6766 47.2383 13.655C47.3156 13.6208 47.3932 13.5871 47.4709 13.5535C47.514 13.5347 47.5572 13.5159 47.6017 13.4965C47.6385 13.4835 47.6754 13.4704 47.7134 13.457Z" fill="#9B464A"/>
<path d="M66.9138 33.0977C66.9673 33.2584 66.9198 33.3261 66.8569 33.4812C66.8288 33.5512 66.8288 33.5512 66.8001 33.6227C66.7854 33.6585 66.7706 33.6942 66.7554 33.7311C66.7076 33.5932 66.7244 33.5076 66.7678 33.3698C66.7782 33.3354 66.7887 33.301 66.7995 33.2656C66.8346 33.1768 66.8346 33.1768 66.9138 33.0977Z" fill="#C9373D"/>
<path d="M40.1506 19C40.1637 19.0523 40.1768 19.1045 40.1902 19.1584C40.1135 19.2672 40.1135 19.2672 40.0319 19.3563C39.9927 19.3432 39.9535 19.3302 39.9131 19.3167C39.9915 19.2122 40.0699 19.1077 40.1506 19Z" fill="#AD373C"/>
<path d="M45.6133 14.3672C45.5737 14.486 45.5737 14.486 45.5061 14.5336C45.4786 14.5473 45.4511 14.5609 45.4228 14.575C45.3956 14.5891 45.3684 14.6032 45.3403 14.6177C45.2431 14.6487 45.1936 14.638 45.0986 14.6047C45.1695 14.5649 45.2404 14.5254 45.3114 14.486C45.3509 14.4639 45.3904 14.4419 45.4311 14.4191C45.5341 14.3672 45.5341 14.3672 45.6133 14.3672Z" fill="#9A3E41"/>
<path d="M67.4261 31.3125C67.4392 31.3125 67.4523 31.3125 67.4657 31.3125C67.4481 31.5213 67.4228 31.7091 67.347 31.9063C67.3339 31.9063 67.3208 31.9063 67.3074 31.9063C67.293 31.6766 67.3368 31.5247 67.4261 31.3125Z" fill="#CB4047"/>
<path d="M61.4101 29.8477C61.4101 29.8738 61.4101 29.8999 61.4101 29.9268C61.3599 29.9535 61.3096 29.9798 61.2592 30.006C61.2311 30.0207 61.2031 30.0354 61.1743 30.0506C61.0934 30.0852 61.0934 30.0852 60.9746 30.0852C60.9746 30.0591 60.9746 30.0329 60.9746 30.006C61.0323 29.9794 61.09 29.9531 61.1478 29.9268C61.18 29.9121 61.2121 29.8974 61.2452 29.8823C61.3309 29.8477 61.3309 29.8477 61.4101 29.8477Z" fill="#A8393D"/>
<path d="M50.4805 23.2773C50.6316 23.3389 50.7256 23.4371 50.8368 23.5545C50.8237 23.5937 50.8106 23.6329 50.7972 23.6732C50.7443 23.6148 50.6915 23.5562 50.6388 23.4976C50.6094 23.465 50.58 23.4323 50.5498 23.3987C50.4805 23.3169 50.4805 23.3169 50.4805 23.2773Z" fill="#D13F44"/>
<path d="M38.7663 21.2969C38.8013 21.3945 38.8111 21.4409 38.7751 21.54C38.76 21.5675 38.7448 21.5951 38.7292 21.6235C38.7141 21.6515 38.6991 21.6794 38.6836 21.7082C38.6717 21.7293 38.6598 21.7503 38.6475 21.772C38.6214 21.772 38.5953 21.772 38.5684 21.772C38.6202 21.6043 38.6849 21.4523 38.7663 21.2969Z" fill="#9F3A3E"/>
<path d="M43.8323 15.3984C43.8715 15.4115 43.9107 15.4246 43.9511 15.438C43.9012 15.4789 43.8508 15.5192 43.8002 15.5593C43.7581 15.593 43.7581 15.593 43.7153 15.6275C43.6886 15.6433 43.6619 15.6592 43.6344 15.6756C43.5952 15.6625 43.556 15.6494 43.5156 15.636C43.5655 15.5951 43.6159 15.5548 43.6666 15.5147C43.6946 15.4922 43.7226 15.4697 43.7515 15.4465C43.7782 15.4307 43.8048 15.4148 43.8323 15.3984Z" fill="#9A393D"/>
<path d="M59.3148 41.7253C59.1911 41.83 59.0738 41.8775 58.9189 41.9232C58.9585 41.8044 58.9585 41.8044 59.0278 41.7574C59.1288 41.721 59.2083 41.7193 59.3148 41.7253Z" fill="#CF3C42"/>
<path d="M61.5268 36.8553C61.2384 36.991 61.2384 36.991 61.0518 36.974C61.0913 36.8949 61.0913 36.8949 61.1603 36.8684C61.1882 36.8616 61.216 36.8548 61.2448 36.8479C61.2724 36.8408 61.3001 36.8337 61.3286 36.8264C61.4081 36.8157 61.4081 36.8157 61.5268 36.8553Z" fill="#D0272D"/>
<path d="M62.0453 36.658C62.0322 36.6841 62.0192 36.7103 62.0057 36.7372C61.9239 36.7622 61.9239 36.7622 61.8251 36.7817C61.776 36.7917 61.776 36.7917 61.726 36.8018C61.7007 36.8066 61.6754 36.8114 61.6494 36.8164C61.7618 36.6478 61.8547 36.6529 62.0453 36.658Z" fill="#D3272D"/>
<path d="M51.5908 24.4258C51.8198 24.6012 51.8198 24.6012 51.863 24.7153C51.8654 24.7484 51.8654 24.7484 51.8679 24.7821C51.7506 24.6709 51.6524 24.5769 51.5908 24.4258Z" fill="#D0393F"/>
</svg>
