<svg width="164" height="56" viewBox="0 0 164 56" fill="none" xmlns="http://www.w3.org/2000/svg">
<rect width="164" height="56" rx="6.58824" stroke="#EAECF0"/>
<rect x="0.5" y="0.5" width="163" height="55" rx="6.08824" fill="white" stroke="#EAECF0"/>
<g clip-path="url(#clip0_53672_556140)">
<path d="M28.0328 32.8585C28.0367 32.8585 28.0408 32.8577 28.0445 32.8561L35.1428 28.8074C35.1442 28.8043 35.145 28.801 35.145 28.7975C35.145 28.7941 35.1442 28.7907 35.1428 28.7876V20.6968C35.1444 20.6938 35.1454 20.6904 35.1454 20.6869C35.1454 20.6834 35.1444 20.68 35.1428 20.677L28.0445 16.625H28.021L20.9227 20.677C20.9205 20.6799 20.9194 20.6833 20.9194 20.6869C20.9194 20.6905 20.9205 20.694 20.9227 20.6968V28.7876C20.9209 28.7906 20.92 28.7941 20.92 28.7975C20.92 28.801 20.9209 28.8044 20.9227 28.8074L28.021 32.8561C28.0232 32.8571 28.0256 32.8577 28.0281 32.8581C28.0296 32.8584 28.0312 32.8585 28.0328 32.8585Z" fill="#0FA06D"/>
<path d="M16.5088 34.8259H39.5583V39.3794H16.5088V34.8259Z" fill="#0FA06D"/>
<path fill-rule="evenodd" clip-rule="evenodd" d="M59.6519 25.8193C59.6519 28.2875 58.8866 30.4388 57.4428 31.9368L59.5616 35.3619H56.9683L55.685 33.2271C54.5463 33.7942 53.2839 34.0764 52.0088 34.0487C46.9959 34.0487 44.3223 30.4455 44.3223 25.8193C44.3223 21.1931 46.9959 17.5898 52.0088 17.5898C57.0218 17.5898 59.6686 21.1931 59.6686 25.8193H59.6519ZM54.3783 31.0724L51.678 26.5782H54.1544L55.9791 29.5479C56.6289 28.4188 56.9483 27.1336 56.9014 25.8358C56.9014 22.6978 55.3942 20.0283 51.9921 20.0283C48.59 20.0283 47.0628 22.6813 47.0628 25.8193C47.0628 28.9573 48.5733 31.6234 51.9954 31.6234C52.8248 31.6481 53.6463 31.4581 54.3783 31.0724Z" fill="#393945"/>
<path d="M61.3361 17.5898H63.9496V20.0118H61.3361V17.5898Z" fill="#393945"/>
<path d="M63.9061 33.7583H61.3595V22.4371H63.9061V33.7583Z" fill="#393945"/>
<path d="M74.289 27.1597V33.7591H76.8356V26.6878C76.8356 23.8633 75.3919 22.1507 72.5311 22.1507C71.0004 22.1507 69.8876 22.6622 69.2192 23.53H68.6779V22.4378H66.2215V33.7591H68.7681V27.681C68.7681 25.9157 69.9177 24.3813 71.7424 24.3813C73.4335 24.3813 74.289 25.3151 74.289 27.1597Z" fill="#393945"/>
<path fill-rule="evenodd" clip-rule="evenodd" d="M89.5982 22.4374V33.2042C89.5982 36.4083 87.4126 38.4079 84.0573 38.4079C81.0128 38.4079 78.9641 37.1408 78.7101 34.7617H81.2334C81.4807 35.8935 82.4732 36.339 84.0273 36.339C86.1894 36.339 87.0684 35.0191 87.0684 33.0393V32.2704H86.4969C85.9588 33.0492 84.9429 33.6498 83.2987 33.6498C80.1672 33.6498 78.2523 31.2014 78.2523 27.9116C78.2523 24.6218 80.2274 22.1635 83.312 22.1635C85.0231 22.1635 86.0825 22.8235 86.6005 23.5428H87.1419V22.4374H89.5982ZM87.1419 27.9116C87.1419 25.9516 86.0825 24.2819 83.9436 24.2819C81.9619 24.2819 80.8122 25.7701 80.8122 27.9116C80.8122 30.0531 81.9619 31.5148 83.9436 31.5148C86.0825 31.5148 87.1419 29.8452 87.1419 27.9116Z" fill="#393945"/>
<path d="M98.8615 34.042C102.498 34.042 104.877 31.9566 105.405 28.954H102.578C102.153 30.6335 100.847 31.6234 98.8615 31.6234C95.5396 31.6234 94.0157 28.9573 94.0157 25.8193C94.0157 22.6813 95.5464 20.0151 98.8582 20.0151C100.75 20.0151 101.856 20.7707 102.374 22.282H105.211C104.63 19.4575 102.287 17.5898 98.8615 17.5898C94.029 17.5898 91.2953 21.0314 91.2953 25.8127C91.2953 30.5939 94.019 34.042 98.8615 34.042Z" fill="#393945"/>
<path d="M109.571 17.5898H107.024V33.7616H109.571V17.5898Z" fill="#393945"/>
<path fill-rule="evenodd" clip-rule="evenodd" d="M116.957 34.0654C120.559 34.0654 122.745 31.5742 122.745 28.1029C122.745 24.6581 120.563 22.1635 116.957 22.1635C113.351 22.1635 111.165 24.6482 111.165 28.1029C111.165 31.5577 113.354 34.0654 116.957 34.0654ZM116.957 24.3017C119.196 24.3017 120.198 26.1231 120.198 28.1029C120.198 30.129 119.199 31.9306 116.957 31.9306C114.714 31.9306 113.712 30.0827 113.712 28.1029C113.712 26.1231 114.718 24.3017 116.957 24.3017Z" fill="#393945"/>
<path d="M126.725 22.4368V29.0362C126.725 30.8808 127.58 31.8146 129.268 31.8146C131.093 31.8146 132.242 30.2802 132.242 28.5148V22.4368H134.789V33.7581H132.332V32.6691H131.791C131.123 33.537 130.013 34.0485 128.483 34.0485C125.622 34.0485 124.178 32.3359 124.178 29.5113V22.4368H126.725Z" fill="#393945"/>
<path fill-rule="evenodd" clip-rule="evenodd" d="M145.188 23.5293H144.646C144.031 22.7275 143.049 22.1467 141.358 22.1467C138.27 22.1467 136.402 24.704 136.402 28.0862C136.402 31.4683 138.251 34.0487 141.358 34.0487C143.066 34.0487 144.105 33.4481 144.737 32.6693H145.278V33.7583H147.735V17.5898H145.188V23.5293ZM142.063 24.3014C144.292 24.3014 145.238 26.1228 145.238 28.1026C145.238 30.1286 144.292 31.9303 142.063 31.9303C139.968 31.9303 138.932 30.2804 138.932 28.1026C138.932 25.9248 139.968 24.3014 142.063 24.3014Z" fill="#393945"/>
</g>
<defs>
<clipPath id="clip0_53672_556140">
<rect width="131.878" height="23.039" fill="white" transform="translate(16.1836 16.4805)"/>
</clipPath>
</defs>
</svg>
