<svg width="164" height="56" viewBox="0 0 164 56" fill="none" xmlns="http://www.w3.org/2000/svg">
<rect width="164" height="56" rx="6.58824" stroke="#EAECF0"/>
<rect x="0.5" y="0.5" width="163" height="55" rx="6.08824" fill="white" stroke="#EAECF0"/>
<g clip-path="url(#clip0_53672_556038)">
<path d="M39.4589 42.932C37.2212 42.9212 35.0171 42.3866 33.0231 41.371C31.029 40.3554 29.3005 38.8871 27.9758 37.0835C27.9282 37.0317 27.9014 36.9641 27.9005 36.8937C27.9003 36.8158 27.9311 36.7409 27.986 36.6856C28.0409 36.6303 28.1155 36.599 28.1935 36.5986C28.2355 36.5988 28.2769 36.6083 28.3149 36.6262C28.3529 36.6442 28.3865 36.6702 28.4133 36.7025C34.0412 42.8469 43.5846 43.2671 49.7297 37.6392C50.0184 37.3752 50.296 37.1003 50.5625 36.8147C50.6023 36.7702 50.6548 36.7389 50.7128 36.725C50.7709 36.7111 50.8318 36.7153 50.8874 36.737C50.9431 36.7587 50.9907 36.7969 51.024 36.8464C51.0573 36.896 51.0747 36.9545 51.0738 37.0142C51.0716 37.0843 51.045 37.1514 50.9985 37.204C49.6633 38.9827 47.9325 40.4263 45.943 41.4205C43.9535 42.4146 41.7598 42.9321 39.5358 42.932H39.4589ZM52.3434 36.5014L34.2867 32.9993L37.9507 28.7645C37.9859 29.0038 38.0748 29.2321 38.2106 29.4322C38.3465 29.6324 38.5259 29.7992 38.7353 29.9203C38.9258 30.031 39.1375 30.1003 39.3565 30.1236L46.4738 31.5046C46.5048 31.5142 46.5379 31.515 46.5693 31.5068C46.6008 31.4987 46.6293 31.4819 46.6517 31.4585C46.6742 31.435 46.6896 31.4058 46.6964 31.374C46.7031 31.3423 46.7009 31.3092 46.6899 31.2787L46.2923 30.1869C46.2718 30.142 46.266 30.0917 46.276 30.0434C46.2859 29.995 46.311 29.9511 46.3476 29.918C46.3842 29.885 46.4305 29.8644 46.4796 29.8594C46.5287 29.8544 46.5781 29.8652 46.6206 29.8902C46.6327 29.8975 46.6442 29.9056 46.6553 29.9143L46.6688 29.9271L52.7824 35.634C52.8618 35.6989 52.9191 35.7868 52.9466 35.8856C52.9741 35.9844 52.9704 36.0893 52.9359 36.1858C52.9014 36.2824 52.8379 36.366 52.7541 36.425C52.6702 36.4841 52.5702 36.5158 52.4676 36.5157C52.4258 36.5164 52.384 36.5116 52.3434 36.5014ZM26.1717 36.2605C26.1177 36.1665 26.0958 36.0575 26.1094 35.95C26.123 35.8425 26.1713 35.7424 26.247 35.6649L38.2978 21.7421L40.1231 27.0378C39.7937 26.9072 39.4303 26.8895 39.0897 26.9873C38.7491 27.0851 38.4505 27.293 38.2406 27.5785L33.4907 33.0648C33.4732 33.0812 33.4593 33.1012 33.4501 33.1234C33.4409 33.1456 33.4365 33.1695 33.4373 33.1935C33.4379 33.2343 33.4528 33.2736 33.4794 33.3045C33.5059 33.3354 33.5424 33.3561 33.5826 33.363L34.7256 33.5633C34.7613 33.5669 34.7957 33.5789 34.8258 33.5984C34.8559 33.6179 34.881 33.6443 34.8988 33.6755C34.9298 33.7285 34.9385 33.7917 34.923 33.8511C34.9075 33.9105 34.869 33.9614 34.816 33.9925C34.8046 34 34.7922 34.0059 34.7791 34.0098L34.7595 34.0151L26.7748 36.4773C26.6651 36.5187 26.5442 36.5196 26.4339 36.48C26.3235 36.4404 26.2308 36.3629 26.1724 36.2612L26.1717 36.2605ZM104.224 26.5401V35.7635H99.6771V20.2368H104.985L111.749 29.4595V20.2421H111.839V20.2368H116.293V35.7635H110.986L104.224 26.5401ZM124.828 35.7628V30.1786L117.534 20.2346H122.941L127.528 26.4912L132.121 20.2361H137.53L130.234 30.1801V35.7635L124.828 35.7628ZM92.9763 35.7628L91.8882 33.1612H85.0683L83.9788 35.7628H78.5121L85.7408 20.2353H91.2045L98.4332 35.7628H92.9763ZM86.7513 29.1553H90.2098L88.4779 25.0326L86.7513 29.1553ZM61.5148 35.7635V31.3962H73.5499C73.7105 31.3962 73.8646 31.3323 73.9782 31.2187C74.0918 31.1051 74.1556 30.951 74.1556 30.7904C74.1556 30.6297 74.0918 30.4756 73.9782 30.362C73.8646 30.2484 73.7105 30.1846 73.5499 30.1846H65.8859C64.5667 30.1846 63.3014 29.6605 62.3686 28.7277C61.4357 27.7948 60.9117 26.5296 60.9117 25.2103C60.9117 23.8911 61.4357 22.6259 62.3686 21.693C63.3014 20.7602 64.5667 20.2361 65.8859 20.2361H77.921V24.6034H65.8859C65.7252 24.6034 65.5712 24.6672 65.4576 24.7809C65.344 24.8945 65.2801 25.0485 65.2801 25.2092C65.2801 25.3699 65.344 25.524 65.4576 25.6376C65.5712 25.7512 65.7252 25.815 65.8859 25.815H73.5499C74.2082 25.8069 74.8616 25.9296 75.4721 26.1759C76.0827 26.4222 76.6383 26.7873 77.1067 27.25C77.5751 27.7126 77.947 28.2637 78.2008 28.8712C78.4546 29.4787 78.5853 30.1305 78.5853 30.7889C78.5853 31.4472 78.4546 32.0991 78.2008 32.7066C77.947 33.314 77.5751 33.8651 77.1067 34.3278C76.6383 34.7904 76.0827 35.1555 75.4721 35.4019C74.8616 35.6482 74.2082 35.7709 73.5499 35.7628L61.5148 35.7635ZM52.1777 34.3381C52.1565 34.3015 52.1435 34.2607 52.1396 34.2186C52.1357 34.1765 52.141 34.134 52.1551 34.0941C54.6618 26.1124 50.2252 17.6142 42.2465 15.1075C41.8951 14.997 41.5402 14.8996 41.1818 14.8153C41.1408 14.8069 41.1021 14.7897 41.0684 14.7649C41.0348 14.74 41.0069 14.7082 40.9868 14.6715C40.9482 14.6048 40.9375 14.5255 40.9569 14.451C40.9764 14.3764 41.0244 14.3125 41.0907 14.2731C41.1524 14.2384 41.2247 14.2274 41.294 14.2423C49.1808 15.2264 54.78 22.4205 53.7944 30.3118C53.6233 31.6826 53.2559 33.0216 52.7033 34.2876C52.6912 34.324 52.6721 34.3576 52.647 34.3866C52.6219 34.4155 52.5913 34.4393 52.5571 34.4564C52.5228 34.4735 52.4855 34.4837 52.4473 34.4864C52.4091 34.4891 52.3707 34.4843 52.3343 34.4721C52.2665 34.4499 52.2093 34.4032 52.1739 34.3411L52.1777 34.3381ZM26.439 34.3072C26.3782 34.2718 26.3326 34.2153 26.311 34.1483C23.2026 26.8285 26.6189 18.3777 33.938 15.2731C35.2109 14.733 36.555 14.3793 37.9289 14.2227C38.0055 14.2084 38.0846 14.2251 38.1488 14.2692C38.2131 14.3133 38.2572 14.381 38.2715 14.4576C38.2858 14.5342 38.269 14.6133 38.225 14.6776C38.1809 14.7418 38.1131 14.786 38.0365 14.8002C29.8749 16.6323 24.7455 24.7337 26.579 32.8939C26.6599 33.2538 26.7537 33.6102 26.8607 33.9631C26.8852 34.0368 26.8795 34.1172 26.8448 34.1867C26.81 34.2562 26.7491 34.309 26.6754 34.3336C26.6455 34.3434 26.6143 34.3485 26.5828 34.3486C26.5307 34.3486 26.4797 34.3343 26.4352 34.3072H26.439ZM40.5335 29.7893C40.8106 29.569 41.0071 29.2632 41.0924 28.9196C41.1776 28.576 41.1469 28.2138 41.0048 27.8895L38.6389 21.0207C38.633 20.9972 38.6226 20.9752 38.6081 20.9558C38.5936 20.9364 38.5754 20.9201 38.5546 20.9077C38.5188 20.8884 38.4774 20.882 38.4373 20.8895C38.3973 20.897 38.3611 20.9181 38.3347 20.9492L37.5848 21.8399C37.5557 21.879 37.5152 21.908 37.4689 21.9228C37.4225 21.9376 37.3727 21.9375 37.3264 21.9226C37.2801 21.9076 37.2397 21.8785 37.2108 21.8394C37.1819 21.8003 37.166 21.7531 37.1653 21.7044C37.1653 21.6905 37.1669 21.6766 37.1699 21.663V21.6449L39.0629 13.4825C39.079 13.3679 39.1359 13.2629 39.2232 13.1868C39.3105 13.1107 39.4222 13.0687 39.538 13.0684C39.6463 13.0684 39.7515 13.1038 39.8379 13.169C39.9243 13.2342 39.9872 13.3257 40.0169 13.4298L46.0182 30.854L40.5335 29.7893Z" fill="#C6000B"/>
</g>
<defs>
<clipPath id="clip0_53672_556038">
<rect width="112.366" height="29.8636" fill="white" transform="translate(25.1631 13.0684)"/>
</clipPath>
</defs>
</svg>
