<svg width="164" height="56" viewBox="0 0 164 56" fill="none" xmlns="http://www.w3.org/2000/svg">
<rect width="164" height="56" rx="6.58824" stroke="#EAECF0"/>
<rect x="0.5" y="0.5" width="163" height="55" rx="6.08824" fill="white" stroke="#EAECF0"/>
<g clip-path="url(#clip0_53672_556372)">
<path d="M141.196 38.2972H141.53V37.1457L142.33 35.548H141.962L141.368 36.7657L140.793 35.548H140.407L141.21 37.1457L141.196 38.2972ZM140.001 36.7858H139.235V37.0737H139.682V37.9374C139.632 37.9626 139.578 37.9792 139.523 37.9863C139.466 38.0027 139.407 38.0115 139.348 38.0122C139.22 38.0189 139.094 37.9922 138.98 37.9346C138.866 37.877 138.77 37.7906 138.7 37.684C138.545 37.4237 138.472 37.1228 138.49 36.8204C138.472 36.5406 138.564 36.2648 138.746 36.0518C138.818 35.97 138.906 35.9045 139.006 35.8598C139.105 35.8152 139.213 35.7922 139.322 35.7927C139.541 35.7981 139.755 35.8564 139.946 35.9625V35.6343C139.75 35.5476 139.536 35.5053 139.322 35.5105C139.159 35.5036 138.996 35.5339 138.846 35.5993C138.697 35.6646 138.564 35.7633 138.458 35.8877C138.225 36.1766 138.106 36.5415 138.124 36.9125C138.113 37.2621 138.213 37.6062 138.412 37.8942C138.516 38.0361 138.654 38.1496 138.814 38.224C138.973 38.2985 139.149 38.3316 139.325 38.3202C139.448 38.3181 139.571 38.3017 139.69 38.2713L139.851 38.2224L139.987 38.1792L140.001 36.7858ZM136.074 36.9499C136.052 36.638 136.12 36.3262 136.27 36.0518C136.318 35.9739 136.386 35.9097 136.466 35.8654C136.546 35.821 136.636 35.798 136.728 35.7984C136.833 35.7981 136.936 35.8303 137.022 35.8906C137.108 35.9509 137.173 36.0364 137.209 36.1352C137.307 36.3764 137.355 36.635 137.35 36.8952C137.372 37.2053 137.304 37.5152 137.154 37.7877C137.106 37.8664 137.039 37.9315 136.959 37.9769C136.879 38.0223 136.788 38.0463 136.696 38.0467C136.591 38.0464 136.488 38.0136 136.402 37.9528C136.316 37.892 136.251 37.8062 136.215 37.7071C136.114 37.4679 136.066 37.2096 136.074 36.9499ZM135.726 36.9499C135.704 37.3059 135.798 37.6594 135.994 37.9575C136.07 38.0731 136.175 38.1675 136.298 38.2319C136.42 38.2963 136.558 38.3287 136.696 38.326C137.353 38.326 137.689 37.8481 137.698 36.8866C137.684 35.9855 137.358 35.5249 136.728 35.5077C136.097 35.4904 135.732 35.9884 135.726 36.947M134.232 38.2972H135.444V38.0093H134.58V35.5537H134.243L134.232 38.2972ZM132.056 36.947C132.031 36.6353 132.098 36.3232 132.248 36.0489C132.297 35.9718 132.364 35.9082 132.443 35.8639C132.523 35.8196 132.612 35.7961 132.703 35.7955C132.809 35.7949 132.913 35.8269 133 35.8871C133.087 35.9474 133.153 36.033 133.19 36.1324C133.287 36.3738 133.334 36.6323 133.328 36.8924C133.353 37.2027 133.285 37.5134 133.132 37.7848C133.085 37.8639 133.018 37.9294 132.938 37.9748C132.857 38.0202 132.767 38.044 132.675 38.0439C132.57 38.0438 132.467 38.011 132.381 37.9502C132.296 37.8893 132.231 37.8033 132.197 37.7042C132.095 37.465 132.047 37.2067 132.056 36.947ZM131.704 36.947C131.684 37.3029 131.778 37.656 131.972 37.9546C132.049 38.0699 132.154 38.164 132.276 38.2283C132.399 38.2927 132.536 38.3253 132.675 38.3231C133.334 38.3231 133.668 37.8452 133.679 36.8837C133.662 35.9827 133.34 35.522 132.706 35.5048C132.073 35.4875 131.71 35.9855 131.704 36.9442M129.401 38.2943H129.721V36.0374L130.726 38.2943H131.143V35.5393H130.823V37.8136L129.822 35.5393H129.404L129.401 38.2943ZM127.136 38.2943H127.473V37.0161H128.405V38.2943H128.742V35.5393H128.405V36.7168H127.473V35.5393H127.136V38.2943ZM126.589 37.8913C126.445 37.9783 126.279 38.0231 126.111 38.0208C125.984 38.027 125.857 38 125.744 37.9424C125.63 37.8849 125.533 37.7988 125.463 37.6927C125.311 37.4314 125.239 37.131 125.256 36.829C125.238 36.5492 125.33 36.2735 125.512 36.0604C125.584 35.9783 125.672 35.9127 125.772 35.868C125.871 35.8232 125.979 35.8005 126.088 35.8013C126.265 35.7977 126.439 35.8457 126.589 35.9395V35.5969C126.43 35.5268 126.258 35.4933 126.085 35.499C125.922 35.4921 125.759 35.5224 125.61 35.5878C125.46 35.6531 125.327 35.7517 125.221 35.8761C124.989 36.1655 124.871 36.5303 124.89 36.901C124.877 37.2508 124.978 37.5953 125.178 37.8827C125.282 38.0244 125.419 38.1377 125.578 38.2122C125.737 38.2866 125.913 38.3198 126.088 38.3087C126.253 38.3056 126.417 38.2784 126.574 38.2281L126.589 37.8913ZM123.189 38.2943H124.482V38.0064H123.537V37.0277H124.401V36.7398H123.537V35.8761H124.441V35.5739H123.2L123.189 38.2943ZM121.822 38.2943H122.158V35.8416H122.769V35.5393H121.211V35.8416H121.81L121.822 38.2943ZM118.744 35.8416H118.946C119.076 35.8304 119.208 35.8507 119.329 35.9008C119.45 35.9509 119.558 36.0293 119.642 36.1295C119.785 36.3465 119.854 36.6041 119.838 36.8636C119.838 37.6005 119.55 37.9719 118.946 37.9834H118.744V35.8416ZM118.407 38.2943H118.822C119.019 38.3117 119.217 38.2834 119.401 38.2114C119.586 38.1395 119.751 38.026 119.884 37.8798C120.053 37.6249 120.156 37.3317 120.182 37.0269C120.209 36.7222 120.159 36.4156 120.037 36.1352C119.959 35.9764 119.842 35.8397 119.697 35.738C119.615 35.6736 119.523 35.6248 119.423 35.594C119.281 35.5531 119.134 35.5347 118.986 35.5393H118.41L118.407 38.2943ZM116.029 38.2943H116.34V36.0374L117.348 38.2943H117.78V35.5393H117.46V37.8136L116.455 35.5393H116.038L116.029 38.2943ZM114.144 37.2781L114.564 35.902L114.973 37.2781H114.144ZM114.397 35.5508L113.502 38.3058H113.839L114.052 37.589H115.068L115.281 38.3058H115.632L114.768 35.5508H114.397ZM111.21 38.3058H112.503V38.018H111.547V37.0392H112.411V36.7513H111.547V35.8877H112.451V35.5854H111.21V38.3058ZM110.663 37.9028C110.518 37.9897 110.352 38.0346 110.183 38.0324C110.056 38.0386 109.93 38.0116 109.817 37.954C109.703 37.8964 109.607 37.8103 109.538 37.7042C109.384 37.4433 109.311 37.1428 109.328 36.8405C109.311 36.5609 109.403 36.2856 109.584 36.0719C109.656 35.9901 109.744 35.9247 109.844 35.88C109.943 35.8353 110.051 35.8124 110.16 35.8128C110.336 35.8095 110.51 35.8575 110.66 35.951V35.6084C110.502 35.5383 110.33 35.5049 110.157 35.5105C109.996 35.506 109.836 35.5375 109.689 35.6028C109.542 35.668 109.412 35.7654 109.307 35.8877C109.075 36.1773 108.956 36.5416 108.973 36.9125C108.963 37.2619 109.064 37.6056 109.261 37.8942C109.366 38.0359 109.504 38.1492 109.663 38.2237C109.823 38.2981 109.998 38.3313 110.174 38.3202C110.339 38.3171 110.503 38.2899 110.66 38.2396L110.663 37.9028ZM106.673 38.3058H106.993V36.0489L107.998 38.3058H108.415V35.5508H108.095V37.8251L107.091 35.5508H106.673V38.3058ZM104.848 38.3058H106.141V38.018H105.182V37.0392H106.046V36.7513H105.182V35.8877H106.089V35.5854H104.848V38.3058ZM103.892 38.3058H104.226V35.5508H103.892V38.3058ZM103.343 37.9028C103.2 37.9897 103.035 38.0346 102.868 38.0324C102.74 38.0394 102.613 38.0127 102.5 37.9551C102.386 37.8975 102.289 37.811 102.22 37.7042C102.066 37.4433 101.993 37.1428 102.01 36.8405C101.992 36.5607 102.084 36.285 102.266 36.0719C102.338 35.9901 102.426 35.9247 102.526 35.88C102.625 35.8353 102.733 35.8124 102.842 35.8128C103.018 35.8096 103.191 35.8576 103.34 35.951V35.6084C103.181 35.5383 103.009 35.5049 102.836 35.5105C102.676 35.506 102.516 35.5375 102.37 35.6028C102.223 35.6681 102.093 35.7654 101.99 35.8877C101.756 36.1764 101.638 36.5416 101.658 36.9125C101.647 37.2621 101.748 37.6063 101.946 37.8942C102.051 38.0359 102.189 38.1492 102.348 38.2237C102.508 38.2981 102.683 38.3313 102.859 38.3202C103.023 38.3171 103.186 38.2899 103.343 38.2396V37.9028ZM101.12 35.9481V35.6055C101.051 35.575 100.979 35.5528 100.904 35.5393C100.816 35.5221 100.726 35.5135 100.637 35.5134C100.448 35.5075 100.264 35.5699 100.118 35.689C100.044 35.7517 99.9849 35.8309 99.9464 35.9204C99.9079 36.0099 99.8909 36.1071 99.8967 36.2043C99.8896 36.3567 99.9298 36.5075 100.012 36.6361C100.143 36.7977 100.304 36.9318 100.487 37.0305C100.618 37.1044 100.734 37.202 100.829 37.3184C100.857 37.3589 100.879 37.4036 100.893 37.4508C100.896 37.4997 100.896 37.5488 100.893 37.5977C100.892 37.6515 100.881 37.7046 100.86 37.754C100.838 37.8034 100.808 37.8482 100.769 37.8855C100.724 37.9322 100.669 37.9687 100.608 37.9925C100.548 38.0163 100.483 38.027 100.418 38.0237C100.331 38.0223 100.246 38.0038 100.167 37.969C100.078 37.9345 99.9918 37.8941 99.9082 37.8481V38.208C100.084 38.2871 100.274 38.3264 100.467 38.3231C100.573 38.329 100.68 38.3118 100.779 38.2725C100.879 38.2333 100.969 38.1729 101.042 38.0957C101.175 37.9426 101.245 37.7452 101.238 37.543C101.239 37.3918 101.199 37.2433 101.12 37.114C101.005 36.959 100.857 36.832 100.685 36.7427C100.549 36.6672 100.425 36.5699 100.32 36.4548C100.29 36.4198 100.27 36.3784 100.259 36.3339C100.244 36.2964 100.236 36.2563 100.236 36.2158C100.235 36.109 100.275 36.0059 100.349 35.928C100.39 35.89 100.438 35.8606 100.49 35.8414C100.542 35.8221 100.598 35.8134 100.654 35.8157C100.814 35.8156 100.971 35.8583 101.109 35.9395M97.3835 38.2972H97.7174V37.019H98.5321V36.7311H97.7174V35.8675H98.581V35.5652H97.3892L97.3835 38.2972ZM95.2042 36.947C95.1806 36.635 95.2486 36.3228 95.4 36.0489C95.4482 35.9716 95.5152 35.9079 95.5947 35.8636C95.6743 35.8193 95.7638 35.7958 95.8548 35.7955C95.9603 35.7951 96.0634 35.8272 96.1499 35.8875C96.2365 35.9477 96.3023 36.0333 96.3385 36.1324C96.4354 36.3738 96.4824 36.6323 96.4766 36.8924C96.5007 37.2023 96.4337 37.5125 96.2838 37.7848C96.236 37.8641 96.1684 37.9297 96.0877 37.9751C96.0069 38.0205 95.9158 38.0442 95.8232 38.0439C95.7181 38.0438 95.6157 38.011 95.5301 37.9502C95.4445 37.8893 95.3799 37.8033 95.3453 37.7042C95.2465 37.4642 95.1985 37.2065 95.2042 36.947ZM94.853 36.947C94.8318 37.3033 94.9268 37.6569 95.1236 37.9546C95.2004 38.07 95.305 38.1643 95.4277 38.2287C95.5505 38.2931 95.6874 38.3255 95.826 38.3231C96.4824 38.3231 96.8163 37.8452 96.8279 36.8837C96.8135 35.9827 96.4882 35.522 95.8577 35.5048C95.2273 35.4875 94.8616 35.9855 94.853 36.9442M92.5039 38.2943H92.8379V37.1428L93.6382 35.5451H93.2668L92.6738 36.7628L92.098 35.5451H91.7151L92.5154 37.1428L92.5039 38.2943ZM90.6097 38.2943H90.9465V35.8416H91.5827V35.5393H90.0253V35.8416H90.6356L90.6097 38.2943ZM89.2682 38.2943H89.605V35.5393H89.2797L89.2682 38.2943ZM88.6147 35.9366V35.6055C88.5457 35.5746 88.4732 35.5524 88.3988 35.5393C88.3115 35.5222 88.2228 35.5135 88.1339 35.5134C87.9455 35.5064 87.7611 35.5689 87.6157 35.689C87.5412 35.7517 87.4823 35.8309 87.4438 35.9204C87.4053 36.0099 87.3883 36.1071 87.3941 36.2043C87.386 36.3564 87.4252 36.5073 87.5063 36.6361C87.6378 36.797 87.7991 36.9309 87.9813 37.0305C88.1124 37.1044 88.2286 37.202 88.3239 37.3184C88.3541 37.3576 88.3757 37.4027 88.3873 37.4508C88.3906 37.4997 88.3906 37.5488 88.3873 37.5977C88.3867 37.6515 88.3755 37.7046 88.3543 37.754C88.333 37.8034 88.3021 37.8482 88.2635 37.8855C88.2179 37.9319 88.1631 37.9682 88.1026 37.992C88.0421 38.0158 87.9772 38.0266 87.9123 38.0237C87.825 38.0227 87.7388 38.0041 87.6589 37.969C87.5711 37.934 87.4856 37.8936 87.4027 37.8481V38.208C87.5779 38.2877 87.7688 38.3271 87.9612 38.3231C88.0679 38.329 88.1746 38.3118 88.274 38.2725C88.3734 38.2333 88.4631 38.1729 88.537 38.0957C88.6685 37.9423 88.7374 37.7449 88.7298 37.543C88.7306 37.3922 88.6908 37.2441 88.6147 37.114C88.4997 36.959 88.3511 36.832 88.18 36.7427C88.0433 36.6672 87.9198 36.5699 87.8144 36.4548C87.7629 36.3853 87.7329 36.3022 87.728 36.2158C87.7272 36.1626 87.737 36.1098 87.7568 36.0604C87.7766 36.011 87.8059 35.966 87.8432 35.928C87.9211 35.8548 88.0242 35.8146 88.131 35.8157C88.2911 35.8149 88.4483 35.8577 88.5859 35.9395M85.7762 35.8243H86.041C86.1708 35.8188 86.2987 35.8574 86.4038 35.9337C86.4493 35.9789 86.4842 36.0335 86.5061 36.0937C86.528 36.1539 86.5363 36.2182 86.5304 36.2821C86.5315 36.4028 86.492 36.5204 86.4182 36.616C86.3702 36.6689 86.3107 36.7101 86.2444 36.7366C86.178 36.763 86.1065 36.774 86.0353 36.7686H85.8251L85.7762 35.8243ZM85.4365 38.2972H85.8251V37.0478H85.9748C86.0761 37.0392 86.1774 37.0645 86.2627 37.1198C86.3328 37.1862 86.3827 37.271 86.4066 37.3645L86.7147 38.2972H87.0745L86.6888 37.1917C86.6699 37.1236 86.6343 37.0612 86.5851 37.0104C86.5316 36.9654 86.467 36.9356 86.398 36.924C86.4806 36.9107 86.5597 36.8811 86.6308 36.8372C86.7019 36.7932 86.7637 36.7357 86.8126 36.6678C86.8988 36.5243 86.9369 36.3569 86.9214 36.1902C86.9059 36.0234 86.8375 35.866 86.7262 35.7408C86.6655 35.6778 86.5918 35.6287 86.5103 35.5969C86.3981 35.5641 86.2816 35.5486 86.1648 35.5508H85.4797L85.4365 38.2972ZM83.6113 38.2972H84.9039V38.0093H83.9482V37.0305H84.8118V36.7427H83.9482V35.879H84.8521V35.5767H83.6113V38.2972ZM82.0424 38.2972H82.3792L83.2169 35.5422H82.8801L82.2266 37.7905L81.6077 35.5422H81.2392L82.0424 38.2972ZM80.5339 38.2972H80.8707V35.5422H80.5339V38.2972ZM78.1186 38.2972H78.441V36.0402L79.4457 38.2972H79.8632V35.5422H79.5436V37.8164L78.5389 35.5422H78.1215L78.1186 38.2972ZM77.4565 35.5422H77.1225V37.3357C77.1316 37.5165 77.0865 37.6959 76.993 37.851C76.9533 37.9128 76.8982 37.9631 76.833 37.9969C76.7679 38.0308 76.695 38.047 76.6216 38.0439C76.5492 38.0465 76.4772 38.0301 76.4131 37.9963C76.3489 37.9624 76.2948 37.9123 76.256 37.851C76.1578 37.6978 76.1104 37.5174 76.1207 37.3357V35.5422H75.7868V37.2839C75.772 37.4936 75.8075 37.7038 75.8904 37.897C75.9503 38.0166 76.0432 38.1165 76.1582 38.1849C76.2952 38.2731 76.4559 38.3172 76.6188 38.3116C76.786 38.3163 76.951 38.2723 77.0938 38.1849C77.2029 38.1139 77.2905 38.0143 77.3471 37.897C77.4308 37.7029 77.4682 37.492 77.4565 37.281V35.5422ZM72.4215 38.2972H72.741V36.0402L73.7457 38.2972H74.1632V35.5422H73.8436V37.8164L72.8389 35.5422H72.4215V38.2972ZM70.7086 35.8243H70.9792C71.1082 35.8181 71.2354 35.8567 71.3391 35.9337C71.3844 35.9791 71.4195 36.0336 71.4418 36.0938C71.4642 36.1539 71.4733 36.2181 71.4686 36.2821C71.4684 36.4026 71.429 36.5198 71.3563 36.616C71.3075 36.6686 71.2475 36.7096 71.1808 36.736C71.114 36.7624 71.0422 36.7735 70.9706 36.7686H70.7086V35.8243ZM70.3747 38.2972H70.7086V37.0478H70.8612C70.9625 37.0392 71.0638 37.0645 71.1491 37.1198C71.2191 37.1867 71.2698 37.2712 71.2959 37.3645L71.601 38.2972H72.0069L71.6356 37.1917C71.6167 37.1236 71.5811 37.0612 71.5319 37.0104C71.4784 36.9654 71.4138 36.9356 71.3448 36.924C71.5112 36.8961 71.66 36.8041 71.7594 36.6678C71.8456 36.5243 71.8838 36.3569 71.8682 36.1902C71.8527 36.0234 71.7843 35.866 71.673 35.7408C71.6123 35.6778 71.5386 35.6287 71.4571 35.5969C71.3449 35.5641 71.2285 35.5486 71.1116 35.5508H70.4294L70.3747 38.2972ZM68.5466 38.2972H69.8421V38.0093H68.8835V37.0305H69.7471V36.7427H68.8835V35.879H69.7903V35.5767H68.5466V38.2972ZM66.281 38.2972H66.6207V37.019H67.5535V38.2972H67.8903V35.5422H67.5535V36.7196H66.6207V35.5422H66.281V38.2972ZM64.9165 38.2972H65.2533V35.8445H65.8636V35.5422H64.3062V35.8445H64.9165V38.2972ZM63.8686 35.5422H63.5721V37.3357C63.582 37.5162 63.5379 37.6956 63.4454 37.851C63.4037 37.9104 63.3484 37.9589 63.284 37.9923C63.2196 38.0258 63.1481 38.0433 63.0755 38.0433C63.0029 38.0433 62.9314 38.0258 62.867 37.9923C62.8027 37.9589 62.7473 37.9104 62.7056 37.851C62.6089 37.6971 62.5617 37.5172 62.5703 37.3357V35.5422H62.2363V37.2839C62.2243 37.4935 62.2598 37.703 62.34 37.897C62.4016 38.0154 62.4941 38.1149 62.6077 38.1849C62.7459 38.2728 62.9075 38.3169 63.0712 38.3116C63.2384 38.3163 63.4035 38.2723 63.5462 38.1849C63.6546 38.1131 63.7421 38.0138 63.7995 37.897C63.8846 37.7033 63.9221 37.4921 63.9089 37.281L63.8686 35.5422ZM60.0197 36.947C59.9931 36.6348 60.0613 36.3217 60.2154 36.0489C60.263 35.9711 60.3299 35.9068 60.4096 35.8625C60.4893 35.8181 60.5791 35.795 60.6703 35.7955C60.7757 35.7955 60.8785 35.8277 60.965 35.888C61.0515 35.9482 61.1174 36.0335 61.1539 36.1324C61.2498 36.374 61.2959 36.6325 61.2892 36.8924C61.3153 37.2021 61.2492 37.5126 61.0992 37.7848C61.0512 37.8639 60.9836 37.9294 60.9029 37.9747C60.8222 38.0201 60.7312 38.0439 60.6386 38.0439C60.5335 38.0442 60.4309 38.0116 60.3452 37.9507C60.2595 37.8898 60.195 37.8036 60.1607 37.7042C60.0579 37.4655 60.0097 37.2068 60.0197 36.947ZM59.6685 36.947C59.6479 37.3029 59.7417 37.656 59.9362 37.9546C60.013 38.07 60.1175 38.1643 60.2403 38.2287C60.363 38.2931 60.5 38.3255 60.6386 38.3231C61.2979 38.3231 61.6318 37.8452 61.6404 36.8837C61.6404 35.9827 61.3007 35.522 60.6703 35.5048C60.0398 35.4875 59.6742 35.9855 59.6685 36.9442M59.1272 35.9366V35.6055C59.0585 35.5741 58.9859 35.5519 58.9113 35.5393C58.8241 35.5222 58.7354 35.5135 58.6465 35.5134C58.4581 35.5069 58.2739 35.5694 58.1283 35.689C58.0532 35.7512 57.994 35.8304 57.9554 35.92C57.9169 36.0096 57.9002 36.107 57.9066 36.2043C57.8982 36.3568 57.9386 36.5081 58.0218 36.6361C58.1513 36.7977 58.3118 36.9318 58.4939 37.0305C58.6255 37.1036 58.7418 37.2013 58.8365 37.3184C58.8667 37.3576 58.8883 37.4027 58.8998 37.4508C58.9031 37.4997 58.9031 37.5488 58.8998 37.5977C58.8998 37.6515 58.8888 37.7048 58.8675 37.7543C58.8462 37.8038 58.8151 37.8485 58.776 37.8855C58.7312 37.9321 58.677 37.9686 58.6169 37.9924C58.5568 38.0163 58.4923 38.0269 58.4277 38.0237C58.3413 38.023 58.256 38.0044 58.1772 37.969C58.0883 37.9345 58.0017 37.8941 57.9182 37.8481V38.208C58.0934 38.2874 58.2842 38.3268 58.4766 38.3231C58.5833 38.329 58.6901 38.3118 58.7894 38.2725C58.8888 38.2333 58.9785 38.1729 59.0524 38.0957C59.1839 37.9423 59.2528 37.7449 59.2453 37.543C59.2479 37.3916 59.2069 37.2427 59.1272 37.114C59.0142 36.9583 58.8663 36.8311 58.6954 36.7427C58.5586 36.6661 58.4343 36.569 58.3269 36.4548C58.2989 36.4189 58.2783 36.3778 58.2665 36.3339C58.2511 36.2964 58.2433 36.2563 58.2435 36.2158C58.2427 36.1626 58.2525 36.1098 58.2722 36.0604C58.292 36.011 58.3214 35.966 58.3586 35.928C58.3991 35.8903 58.4467 35.861 58.4985 35.8417C58.5504 35.8224 58.6056 35.8136 58.6609 35.8157C58.8209 35.8149 58.9782 35.8577 59.1157 35.9395" fill="#03383B"/>
<path fill-rule="evenodd" clip-rule="evenodd" d="M127.257 23.2554C127.148 23.7016 127.3 23.8312 127.257 24.2515C127.03 24.4213 126.719 24.5595 126.466 24.7322C126.068 25 126.103 25.1122 125.585 25.1151C125.585 24.2515 126.394 23.3879 126.618 22.6739C127.036 21.3353 125.789 20.7077 125.196 21.3382C124.753 21.8103 125.069 22.7372 124.62 24.1565C124.415 24.9634 123.931 25.6713 123.253 26.1544C122.078 26.9144 120.216 26.8769 118.837 26.9144C117.239 26.9547 117.774 28.2991 118.575 28.5179C119.088 28.633 119.621 28.633 120.135 28.5179C120.932 28.3854 122.761 27.5707 122.818 28.0313C122.879 28.5438 122.879 27.7032 122.818 28.1494C122.795 28.3336 122.628 28.4632 122.51 28.6301C122.206 29.0263 121.794 29.3262 121.324 29.4938L117.812 30.0897C117.426 30.1127 117.13 30.0321 116.948 30.2221C117.058 30.2826 116.931 30.2422 117.127 30.2682H117.268C118.131 30.32 117.91 30.2854 118.676 30.6942C119.562 31.1721 120.463 31.1059 121.531 30.7806C123.682 30.13 123.67 29.4275 124.468 27.9939C124.621 27.6707 124.832 27.3781 125.089 27.1303L127.905 25.7053C128.72 25.2562 129.474 25.2418 129.056 24.2371C128.994 24.0778 128.901 23.9326 128.782 23.81C128.663 23.6874 128.52 23.5898 128.363 23.5232C128.002 23.4052 127.632 23.3175 127.257 23.2612" fill="#03383B"/>
<path fill-rule="evenodd" clip-rule="evenodd" d="M126.223 28.3987C126.062 28.3468 126.385 28.3756 125.984 28.3209C125.908 28.3123 125.831 28.3123 125.754 28.3209C125.587 28.3352 125.422 28.3612 125.259 28.3987C122.564 28.9485 125.437 30.2037 126.39 31.0903C126.494 31.1911 126.58 31.2343 126.695 31.335C127.804 32.3052 127.599 32.6247 128.558 31.8705C129.134 31.4156 128.846 30.3879 128.794 30.1979C128.61 29.3026 129.033 29.2134 128.008 28.7585C127.628 28.5915 127.51 28.6664 127.124 28.5455C126.261 28.2806 126.6 28.5225 126.223 28.4015" fill="#03383B"/>
<path fill-rule="evenodd" clip-rule="evenodd" d="M142.293 28.9078C142.313 28.8128 142.61 28.5306 142.175 28.4155C141.74 28.3003 141.133 28.5422 140.701 28.5652C139.904 28.6084 139.161 28.7897 139.049 28.784C138.801 28.4673 138.761 28.3234 139.049 27.9434L140.105 26.3312C140.218 26.1973 140.289 26.0337 140.311 25.8601C140.333 25.6865 140.305 25.5102 140.229 25.3525C139.979 24.9667 139.682 25.2546 139.365 25.0329C139.423 24.6443 139.731 24.6385 140.036 24.5205C140.275 24.4312 140.638 24.3449 140.914 24.2326C141.191 24.1203 141.075 24.1117 141.303 23.9793C141.473 23.8814 141.519 23.9073 141.663 23.7921C141.807 23.677 142.238 22.9544 141.487 22.8997C141.395 22.8997 141.199 22.8997 141.093 22.8997C140.833 22.882 140.573 22.8887 140.315 22.9199C140.027 22.9746 138.254 24.3852 137.408 24.4744C137.445 24.034 137.359 24.4312 137.529 24.2067L138.127 23.7087C139.394 22.7212 138.896 23.012 139.653 22.2462C140.002 21.8979 140.341 22.0447 140.37 21.492C140.082 21.0803 139.794 21.1465 139.469 20.9421C139.576 20.2944 140.716 20.614 139.97 19.7071L139.57 19.4193C139.671 18.927 139.82 18.8953 139.443 18.4837C138.464 18.334 138.542 19.3473 138.254 19.9231C138.087 20.2541 138.116 20.0353 137.906 20.2714C137.618 20.5823 138.073 20.2541 137.428 20.7435C137.374 20.7927 137.317 20.8388 137.258 20.8817C137.189 20.9309 137.11 20.966 137.027 20.9847C136.944 21.0035 136.858 21.0057 136.774 20.9911C136.659 20.7205 136.829 20.6773 136.536 20.4153C135.96 19.8741 135.416 20.5478 135.157 20.9911C134.955 20.9706 134.759 20.9099 134.581 20.8126L134.264 21.0371C133.729 21.4546 133.781 22.6924 133.789 23.3258C133.789 23.7662 133.625 24.0368 133.677 24.2326C133.792 24.4706 133.984 24.6632 134.221 24.7796C134.699 24.9926 134.725 24.935 135.085 24.7796C135.698 24.4917 135.66 24.8746 135.842 24.414C135.925 24.2153 135.842 23.7778 136.305 24.0397L136.095 24.2931C136.083 24.3067 136.071 24.3212 136.061 24.3362C135.246 25.3208 134.82 25.4071 134.65 25.672C134.241 26.2967 133.19 26.6594 132.736 26.9732C131.961 27.5115 132.327 28.1708 132.41 28.4126C132.742 28.4395 133.076 28.4318 133.406 28.3896L133.449 28.3435L133.493 28.2974L134.555 27.3014C135.298 26.5414 135.11 26.9444 135.729 26.36C136.625 25.5165 136.668 25.8418 137.022 25.4417C137.376 25.0415 137.33 25.3899 137.773 25.102C138.217 24.8141 137.799 24.8602 138.513 24.8429C137.984 25.8534 137.244 25.5309 137.362 26.4032C136.908 26.6141 136.476 26.8687 136.072 27.1632C135.699 27.4666 135.279 27.7077 134.828 27.8771C133.965 28.1909 134.094 27.9693 134.028 28.3579C134.538 28.7235 135.301 28.3176 135.776 28.1881C135.819 28.1276 136.927 27.667 137.103 27.5662C137.52 27.3446 137.935 26.9588 138.542 26.9272C138.185 27.8196 136.884 28.1478 136.751 28.4702C136.561 28.9365 136.89 29.1208 136.697 29.3338C136.541 29.6217 136.723 29.4346 136.346 29.5382L135.024 29.8635C134.561 30.0161 133.343 29.9671 133.141 30.1053C133.179 31.2281 137.042 30.1053 137.563 30.4968C137.658 30.6178 137.629 30.4479 137.661 30.7847C137.667 30.8814 137.658 30.9785 137.635 31.0726C137.566 31.3102 137.431 31.5232 137.245 31.6868C137.06 31.8504 136.832 31.9579 136.587 31.9967C136.674 32.3882 136.628 31.9305 136.691 32.2443C136.754 32.5581 136.559 32.5034 136.582 33.0676C137.333 33.6434 138.234 34.0003 138.674 32.9006C138.778 32.7035 138.865 32.4984 138.936 32.2875C139.075 31.7405 138.98 30.8481 139.316 30.3356C141.153 30.2176 142.572 30.8106 142.379 29.472C142.336 29.1668 142.253 29.2388 142.325 28.9394M137.296 22.9285C137.331 22.7819 137.411 22.6501 137.525 22.5515C137.639 22.4529 137.782 22.3925 137.932 22.3787C137.842 22.7328 137.678 22.9371 137.296 22.9285ZM138.528 25.6893C138.119 25.8994 138.168 26.1643 137.635 26.0693L137.923 25.649C138.139 25.4561 138.076 25.6115 138.315 25.41C138.89 24.935 138.513 24.9408 139.25 25.1049C139.103 25.5453 138.864 25.5079 138.513 25.6806" fill="#03383B"/>
<path fill-rule="evenodd" clip-rule="evenodd" d="M69.5754 23.9322C69.5754 23.2557 69.4775 23.2327 69.1982 23.1175C68.4066 22.7894 68.1417 22.4209 67.4393 22.8297C67.1514 22.9995 67.114 23.1982 66.8636 23.3594L65.4501 24.3065C65.1622 24.5195 65.0413 24.6922 64.6872 24.7182C64.6857 24.576 64.7169 24.4353 64.7783 24.3071C64.8396 24.1788 64.9296 24.0663 65.0413 23.9783C65.309 23.7163 65.286 23.6098 65.5451 23.3795C66.5555 22.4871 65.6055 23.1492 66.8751 22.4382C67.1831 22.2683 67.2666 22.0754 67.2234 21.6609C67.1457 20.9009 66.9355 21.5285 66.5526 20.5612C66.4375 20.2733 66.472 20.3625 66.5181 20.1438C66.6458 19.8008 66.6757 19.429 66.6045 19.07C65.6113 18.4107 65.4328 18.8713 65.4328 18.8713C65.4328 18.8713 65.4098 18.9116 65.404 18.9232L64.6613 21.0909C64.3072 21.9545 62.5914 22.5706 61.7192 22.7807C61.2701 22.8872 61.5867 22.9247 61.1434 22.9938L59.2319 23.4342C58.8835 23.5666 58.944 23.4976 58.7482 23.7422C58.6812 23.8204 58.6335 23.9133 58.609 24.0133C58.5845 24.1133 58.5839 24.2177 58.6072 24.318C58.9901 24.5569 59.0505 24.6606 59.6551 24.6289C60.5648 24.58 62.6001 23.8286 63.1384 23.9668C63.2104 24.1079 63.2161 23.938 63.1845 24.2259C62.9749 24.7403 62.6613 25.2059 62.2632 25.5933C61.8199 25.8063 61.7537 25.4609 61.4226 26.0827C61.2125 26.48 61.2816 26.7333 61.0052 27.0097C60.892 27.1035 60.7897 27.2097 60.7001 27.3263C60.5072 27.5797 60.6166 27.4904 60.3575 27.6919C59.5169 28.3541 60.0495 28.1842 59.3499 28.6477C59.0419 28.8521 58.8807 29.1198 58.6504 29.2724C58.487 29.3623 58.3142 29.4337 58.1351 29.4854C57.7349 29.6927 57.4413 30.9622 58.5554 30.9536C59.5658 30.9536 58.6763 30.0612 61.2931 28.3138C61.5637 28.1324 61.9178 27.951 62.2431 28.0892C62.3899 28.1497 62.4792 28.2475 62.6404 28.3253C62.8107 28.3907 62.9859 28.4427 63.1643 28.4807C63.2219 29.0421 62.9628 28.9241 62.649 29.2033C62.4216 29.4048 62.269 29.6841 61.9552 29.8482C61.8545 29.9 61.6673 30.0007 61.5349 30.0468C61.3731 30.0825 61.2171 30.1406 61.0714 30.2195C60.7432 30.4585 60.7346 31.0429 61.3449 31.4229C62.1913 31.9468 61.8372 32.0792 62.7325 31.8719C63.3082 31.7309 64.4137 31.3135 64.9204 31.5351C64.9837 31.7136 64.9204 32.2001 64.5922 32.321C64.4598 32.3671 64.5346 32.321 64.3878 32.3556L64.192 32.4074C64.2467 32.9659 64.4223 32.5427 64.5375 33.4179L65.4587 33.5704C66.1295 32.5139 64.9779 31.6013 66.1755 31.2329C66.5929 31.1033 66.567 30.9939 66.8779 30.8269C67.7272 31.2588 67.1025 31.4747 67.3904 32.2923C67.6063 32.9083 68.6081 33.0436 68.6081 33.0436C69.1349 32.7557 68.9622 31.7971 68.9823 31.1494L69.0687 29.0277C69.0687 28.6938 69.2126 27.9654 69.2357 27.0672C69.2771 26.7322 69.3367 26.3997 69.4142 26.0712C69.4597 25.6969 69.4732 25.3193 69.4545 24.9427C69.4545 24.6001 69.5523 24.3094 69.5552 23.9236M65.0326 30.1648L64.9463 30.2368C64.5692 30.5592 63.1499 31.1004 62.8332 30.9363C63.0952 30.7348 63.4695 30.5045 63.8926 30.2051C64.0913 30.0612 64.241 29.9662 64.454 29.8194C64.5454 29.7331 64.6559 29.6699 64.7766 29.6349C64.8972 29.5998 65.0245 29.594 65.1478 29.6179C65.1795 29.9057 65.2082 29.9806 65.0326 30.1648ZM65.6429 26.1345C65.4443 26.4627 65.5163 26.4598 65.2054 26.7247C64.8945 26.9895 64.7073 27.7668 64.1114 27.5883L64.0625 26.7679L64.9089 26.0309C65.1334 25.8524 65.5681 25.4235 65.9078 25.4551C66.0402 25.8869 65.8675 25.743 65.6429 26.123M67.6092 28.2591C67.5573 28.6563 67.6984 30.326 67.4479 30.7118L67.1342 30.7377L67.0104 30.3836C66.9643 30.2426 66.9816 30.2023 66.8463 30.0957C66.6246 29.9288 66.4202 29.9777 66.2101 29.8913C66.1496 29.5286 66.3367 29.2033 66.4749 28.8406C66.5344 28.693 66.5854 28.5421 66.6275 28.3886C66.7021 28.2142 66.7628 28.0342 66.8089 27.8503C66.6217 27.4875 66.3713 27.5883 66.2331 27.0644C66.3626 26.8513 66.3886 26.8888 66.5642 26.7333L67.5833 25.8236C67.8078 26.3763 67.6811 27.6603 67.6005 28.2562" fill="#03383B"/>
<path d="M106.06 26.9691C106.129 26.9241 106.19 26.8677 106.241 26.8022C106.465 26.4423 107.064 26.284 107.499 25.7485C107.531 25.7082 107.64 25.619 107.58 25.6103C107.519 25.6017 106.362 26.2465 106.301 26.2782C106.26 26.2977 106.218 26.3149 106.175 26.33C106.226 26.0656 106.263 25.7984 106.284 25.5297L106.319 25.3973C106.321 25.3879 106.321 25.3779 106.319 25.3685C106.319 25.3081 106.339 25.2879 106.402 25.2764C106.402 25.2764 106.437 25.2764 106.44 25.262C106.442 25.2476 106.48 25.2303 106.503 25.2188C106.553 25.1887 106.607 25.1664 106.664 25.1526L106.822 25.1152L107.015 25.0778L107.234 25.049H107.254C108.256 24.6776 107.588 24.335 107.577 24.3293C107.565 24.3235 107.309 24.1767 106.595 24.2084C106.543 24.2084 106.503 24.0788 106.512 24.0299C106.52 23.9809 106.512 23.9579 106.529 23.9262C106.546 23.8946 106.673 23.2094 106.678 23.1403C106.674 23.1127 106.674 23.0845 106.678 23.0568C106.678 23.0165 106.696 22.9762 106.707 22.9388C106.719 22.9014 106.707 22.9388 106.707 22.9215C106.707 22.9043 106.73 22.8611 106.739 22.8323C106.755 22.8117 106.764 22.7865 106.765 22.7603C106.886 22.4408 106.92 22.3026 106.609 22.0406C106.209 21.7038 105.513 21.5368 105.17 21.6808C104.882 21.7902 104.853 21.9485 104.899 22.2422C104.899 22.2687 104.904 22.2951 104.914 22.3199C104.914 22.3602 104.928 22.4005 104.937 22.4437C104.938 22.458 104.938 22.4725 104.937 22.4868C104.937 22.5329 104.879 24.1997 104.873 24.2458C104.875 24.2649 104.875 24.2842 104.873 24.3034C104.873 24.3552 104.856 24.407 104.845 24.4588L104.802 24.7035C104.802 24.7265 104.802 24.7409 104.77 24.7467C104.76 24.7501 104.752 24.7574 104.747 24.7669C104.733 24.8004 104.71 24.8294 104.681 24.8503C104.655 24.8734 104.217 25.0317 103.757 25.1958C103.558 25.2649 103.417 25.4175 103.238 25.4837C103.058 25.5399 102.871 25.5756 102.683 25.5902C102.673 25.5929 102.663 25.5929 102.654 25.5902C102.599 25.6013 102.546 25.6187 102.496 25.642C102.462 25.6595 102.429 25.6787 102.398 25.6996C102.363 25.7312 102.329 25.7975 102.369 25.8176C102.559 25.9011 102.406 26.4337 102.694 26.4682C102.694 26.4682 102.694 26.4826 102.694 26.4855C102.758 26.5332 102.824 26.5775 102.893 26.6179C102.95 26.6255 103.008 26.6255 103.066 26.6179C103.285 26.5418 103.497 26.4454 103.699 26.33C103.945 26.1985 104.209 26.1017 104.482 26.0422C104.495 26.037 104.509 26.037 104.522 26.0422C104.542 26.0482 104.563 26.0482 104.583 26.0422L104.675 26.0047H104.701C104.702 26.0162 104.702 26.0278 104.701 26.0393C104.683 26.1026 104.675 26.1659 104.658 26.2264C104.64 26.2869 104.551 27.1476 104.522 27.2225L104.482 27.3347C104.472 27.3618 104.453 27.3843 104.427 27.3981L104.347 27.4556C104.292 27.4844 102.455 28.7281 102.429 28.7453C102.4 28.7704 102.364 28.7864 102.326 28.7914C102.317 28.7898 102.308 28.7898 102.3 28.7914C102.257 28.8144 102.228 28.8605 102.179 28.872C102.162 28.9094 102.13 28.9123 102.095 28.9123C101.939 29.029 101.816 29.1849 101.738 29.3643C101.69 29.5399 101.857 29.704 101.851 29.8997C101.853 30.0049 101.892 30.1059 101.963 30.1841C102.033 30.2624 102.129 30.3127 102.234 30.3258C102.382 30.3397 102.531 30.3043 102.657 30.225C102.68 30.225 103.414 29.2031 103.425 29.1772C103.654 29.4034 103.834 29.6737 103.955 29.9717C104.005 30.0779 104.033 30.1932 104.037 30.3105C104.041 30.4278 104.021 30.5447 103.978 30.654C103.944 30.7302 103.926 30.8131 103.927 30.8968C103.927 30.9806 103.946 31.0631 103.982 31.1388C104.018 31.2144 104.07 31.2813 104.135 31.3348C104.199 31.3883 104.274 31.4271 104.355 31.4485C104.859 31.5665 105.541 30.9678 105.642 30.1156C105.665 29.8397 105.711 29.5661 105.78 29.2981C105.78 29.2261 105.78 29.1541 105.803 29.0822C105.807 29.0512 105.811 29.0205 105.818 28.99C105.842 28.9096 105.857 28.8265 105.861 28.7425C105.861 28.6993 106.057 27.1073 106.057 27.0814C106.059 27.0479 106.059 27.0142 106.057 26.9806M104.384 29.2203C104.384 29.2203 104.283 29.4909 104.289 29.5082C104.086 29.3065 103.858 29.1323 103.61 28.99C103.61 28.967 104.45 28.0775 104.473 28.0602L104.488 28.04C104.497 28.0386 104.507 28.0386 104.517 28.04C104.517 28.04 104.413 29.1714 104.387 29.2319" fill="#03383B"/>
<path d="M109.905 28.8573C109.905 28.8573 109.968 30.0088 109.986 29.9858C110.003 29.9628 110.299 30.2593 110.305 30.2737C110.327 30.3086 110.363 30.3335 110.403 30.3428C110.415 30.3471 110.425 30.3552 110.432 30.3658C110.45 30.3917 110.475 30.4117 110.504 30.4234C110.515 30.4311 110.526 30.4398 110.535 30.4493C110.555 30.4665 110.576 30.4819 110.599 30.4953C110.628 30.4953 111.39 31.0941 111.946 31.4137C112.238 31.5794 112.548 31.7117 112.87 31.8081H113.011C113.044 31.8055 113.077 31.8147 113.103 31.834C113.114 31.8418 113.127 31.8467 113.141 31.8484C113.195 31.8657 113.607 31.9405 113.694 31.7044C113.74 31.7044 113.757 31.6584 113.783 31.6296C113.866 31.4696 113.983 31.33 114.126 31.221C114.27 31.112 114.436 31.0362 114.612 30.9991C114.934 30.9013 115.332 30.8897 115.329 30.7544C115.329 30.1182 113.434 29.7872 113.362 29.7699C113.29 29.7526 110.953 28.9638 110.867 28.9322L109.891 28.8516" fill="#03383B"/>
<path d="M112.142 29.6726L112.735 29.7215C112.191 29.5349 111.664 29.3039 111.158 29.0306L112.571 27.4444C112.633 27.3792 112.677 27.2989 112.698 27.2115C112.719 27.1241 112.717 27.0327 112.692 26.9464C112.673 26.8036 112.605 26.6718 112.5 26.5732C112.396 26.4745 112.26 26.4152 112.116 26.4052C112.085 26.4052 111.195 26.5549 111.123 26.5721H110.936L110.878 26.5865L110.824 26.6009C110.829 26.5792 110.837 26.558 110.847 26.5376C110.864 26.5059 110.921 25.9417 110.927 25.8899C110.933 25.7204 110.99 25.5567 111.091 25.4206C111.253 25.2536 113.311 24.9456 113.394 24.8967C114.048 24.4821 113.728 24.2547 113.581 23.7452C113.527 23.5494 113.199 23.5091 112.585 23.5293C112.485 23.5293 111.477 23.7308 111.454 23.7308C111.431 23.7308 111.454 23.7739 111.437 23.7653C111.434 23.754 111.434 23.7421 111.437 23.7308C111.437 23.7077 111.437 23.6876 111.437 23.6674C111.437 23.6473 111.54 22.5677 111.523 22.5418C111.483 22.4194 111.411 22.3099 111.314 22.2249C111.218 22.1398 111.1 22.0822 110.973 22.0582C110.831 22.0204 110.685 21.9944 110.539 21.9805C110.438 21.9805 110.19 22.0467 110.101 22.0409C110.044 22.0429 109.988 22.0585 109.938 22.0866C109.887 22.1146 109.845 22.1542 109.813 22.2021C109.813 22.2021 109.79 22.2252 109.779 22.228C109.767 22.2309 109.753 22.2597 109.741 22.2799C109.73 22.3 109.741 22.3202 109.761 22.3374L109.784 22.3576C109.814 22.3816 109.836 22.4138 109.847 22.4502C109.858 22.4866 109.858 22.5255 109.848 22.562C109.825 22.6455 109.661 24.2691 109.646 24.3324C109.635 24.4097 109.608 24.484 109.568 24.5512C109.556 24.567 109.545 24.5844 109.537 24.603L109.485 24.7182C109.475 24.7461 109.457 24.7702 109.433 24.7873C109.416 24.8017 109.393 24.8103 109.376 24.8247C109.358 24.8391 108.152 25.53 108.097 25.5588C108.071 25.5716 108.043 25.5804 108.014 25.5847C107.971 25.589 107.927 25.589 107.884 25.5847C107.668 25.5847 107.556 25.8438 107.536 25.8726C107.527 25.8808 107.52 25.891 107.515 25.9026C107.511 25.9141 107.509 25.9265 107.51 25.9388C107.51 25.9618 107.487 26.0396 107.51 26.0511C107.533 26.0626 107.53 26.3965 107.752 26.385C108.149 26.3649 108.198 26.647 108.472 26.5088C108.472 26.5088 108.489 26.5088 108.498 26.5088H108.529C108.683 26.4151 108.831 26.3102 108.97 26.195C109.042 26.1518 109.24 25.9762 109.312 25.9302H109.33C109.33 25.9302 109.211 26.814 109.214 26.837C109.217 26.86 109.214 26.883 109.163 27.1105C109.027 27.7496 107.435 27.8129 107.369 27.8043C107.349 27.8043 107.162 27.8043 107.404 28.0403C107.683 28.305 108.002 28.5253 108.348 28.6938C108.558 28.8098 108.751 28.9531 108.924 29.1199C108.924 29.1343 108.981 29.1544 109.007 29.1861L108.97 29.2177L108.929 29.2494C108.911 29.2631 108.893 29.2785 108.878 29.2955L108.854 29.3012C108.716 29.4136 108.557 29.497 108.386 29.5465C108.215 29.5959 108.035 29.6104 107.858 29.5891H107.804C107.732 29.5891 105.832 28.8809 105.789 28.8809C105.745 28.8809 105.619 28.7859 105.613 28.7859L105.596 28.9817C105.596 28.9817 105.76 29.0796 105.766 29.0796C105.82 29.0796 106.574 29.5258 106.629 29.5344C106.644 29.5574 107.545 30.185 107.556 30.2023L107.527 30.2196C107.527 30.2541 107.571 30.2483 107.588 30.2714C107.55 30.2714 107.522 30.2887 107.504 30.2714C107.487 30.2541 107.369 30.2311 107.309 30.1994C107.309 30.1994 107.288 30.1994 107.28 30.1994C107.271 30.1994 107.329 30.2397 107.34 30.2627C107.352 30.2858 107.383 30.2915 107.401 30.3117C107.418 30.3318 107.648 30.565 107.689 30.5996C107.698 30.6098 107.71 30.6176 107.723 30.6226L107.925 30.6715C107.962 30.6798 107.996 30.6988 108.023 30.7262C108.04 30.7464 108.054 30.7838 108.097 30.7608C108.217 30.8566 108.358 30.9219 108.509 30.951C108.659 30.9801 108.814 30.9721 108.961 30.9277C109.199 30.826 109.416 30.6805 109.6 30.4988C109.617 30.4988 110.032 30.0209 110.066 30.0008C110.101 29.9806 110.089 30.0008 110.092 30.0008C110.112 30.0326 110.141 30.057 110.176 30.0699C110.187 30.0743 110.196 30.0825 110.202 30.0929C110.202 30.0929 112.142 30.709 112.295 30.7896L112.142 29.6726ZM110.041 28.2332L109.712 28.4808C109.495 28.4516 109.284 28.3833 109.091 28.2793C109.091 28.2793 108.739 28.1209 108.843 28.0576C109.393 27.8739 109.955 27.7277 110.524 27.62C110.602 27.62 110.383 27.9338 110.041 28.2332Z" fill="#03383B"/>
<path fill-rule="evenodd" clip-rule="evenodd" d="M99.6444 23.9432C99.6088 23.8656 99.5501 23.801 99.4764 23.758C99.4027 23.715 99.3175 23.6959 99.2325 23.7031C99.1474 23.7103 99.0667 23.7436 99.0013 23.7985C98.936 23.8533 98.8891 23.9269 98.8671 24.0094C98.7174 24.565 98.9851 24.4642 98.4727 24.8989C98.2692 25.1131 98.0549 25.3168 97.8307 25.5092C97.5327 25.6811 97.2521 25.8817 96.993 26.108C96.932 25.5627 97.0031 25.0108 97.2003 24.4988C97.776 23.6351 97.4651 24.326 97.8883 23.2263C98.1647 22.5539 98.3178 21.8371 98.3403 21.1104C98.3403 20.6153 98.4382 20.2295 98.4238 19.8466C98.4036 19.2421 97.8221 18.1194 97.3413 18.0215C97.2377 18.5972 97.3413 19.4321 97.3413 20.0366C97.3413 20.8398 97.1859 21.2054 97.1369 21.905C96.9777 22.8474 96.7121 23.7688 96.3453 24.6513C96.1898 24.9133 96.2272 24.8557 96.0574 24.9104C95.6889 24.2915 96.2301 24.1475 96.4489 23.8136C96.5612 23.3098 96.3913 22.95 95.9595 22.8866C95.7767 22.8482 95.5862 22.8742 95.4204 22.9602C95.2545 23.0463 95.1236 23.1871 95.0498 23.3588C94.8654 23.6402 94.6348 23.8884 94.3675 24.0928C94.048 24.4009 94.0595 24.7406 93.6018 24.7694C93.4406 24.5045 93.5816 24.6082 93.3139 24.1101C93.1585 23.8222 93.2448 23.7416 93.3628 23.3962C93.5097 22.95 93.3888 23.0853 93.3139 22.7082C93.2592 22.4203 93.3139 22.0863 93.2506 21.8071L93.1153 21.4645C92.7324 20.6009 91.6241 20.7966 91.2239 21.1766L91.0627 21.3378C90.9245 21.4645 91.008 21.3666 90.8928 21.4875C90.2106 22.2101 90.1501 22.688 89.6895 23.1083C89.3268 23.4365 89.2491 23.6841 88.2847 24.5477C87.9968 24.7953 87.421 25.2415 87.3318 25.5553C87.6197 25.5063 87.4959 25.466 87.755 25.4228C88.2818 25.3394 87.9738 25.4718 88.1465 25.5466L89.1339 25.5783C89.6751 25.4919 90.2854 25.0601 90.6395 25.0428C90.7086 25.0428 90.7374 25.0429 90.7431 25.0227C90.7691 24.9939 90.6625 24.9651 90.7431 25.0227L90.8468 25.0803C89.9371 25.7424 90.7028 25.5812 89.7989 26.1425C89.3728 26.4103 89.4391 26.2894 89.036 26.2865C88.8288 26.2865 87.9392 26.8622 87.683 27.0148C87.2078 27.2794 86.7084 27.4982 86.1918 27.6683C85.6822 27.7489 85.616 27.6136 85.2734 27.5244C84.4098 28.3045 85.0172 28.9465 85.3627 29.0012C86.258 29.1451 88.1177 28.0138 88.8489 27.6366C89.1138 27.5013 89.3728 27.3027 89.5916 27.1904C90.1674 26.9025 90.1674 26.9371 90.3516 27.0465C90.1142 27.5533 89.7985 28.0196 89.416 28.4283C89.1051 28.6442 89.0187 28.6385 88.8633 29.0645C88.703 29.3621 88.6396 29.7022 88.6819 30.0375C88.8953 30.2927 89.2002 30.454 89.5312 30.4866C90.081 30.501 89.9889 30.1354 90.3948 29.9915C90.5877 30.3312 90.5963 30.7918 90.8036 31.048C90.9499 31.1906 91.1445 31.2729 91.3487 31.2788C91.5529 31.2847 91.7519 31.2136 91.9062 31.0797L92.9627 27.4927C93.0807 27.2624 92.9915 27.6165 93.0721 27.2048C93.2333 26.3757 93.4751 26.4189 94.1718 25.5582C94.3359 25.3566 94.7159 24.9191 95.0901 24.9335C95.1247 25.7136 94.6324 26.013 94.4597 26.8047C94.2725 27.6885 93.6277 27.2969 93.8206 28.6269C94.4165 28.8227 94.3963 28.9782 94.8541 28.5204C95.0728 28.2988 95.4989 27.9447 95.8933 28.0051C96.1006 28.5665 95.6054 30.3571 95.4615 31.0854C95.2082 32.3291 95.6659 31.2841 94.9375 33.1006C94.5288 34.1283 94.4568 34.4335 95.0613 34.7559C95.4413 34.9545 96.3424 35.0725 96.3942 33.8318V31.3157C96.4144 30.9213 97.2003 29.6115 96.97 27.9418C96.8462 27.0235 97.4882 26.868 98.5101 26.2145C99.3478 25.6762 100.266 24.9335 99.6415 23.9604M95.6745 26.7097C95.6387 26.6475 95.6159 26.5787 95.6075 26.5074C95.5991 26.4362 95.6052 26.3639 95.6256 26.2951C95.686 26.0878 95.7695 26.085 96.0027 26.0619C95.9365 26.3498 95.9883 26.6665 95.6745 26.7097Z" fill="#03383B"/>
<path fill-rule="evenodd" clip-rule="evenodd" d="M82.6182 24.9457C81.7977 24.344 80.9542 24.6722 80.0273 24.701C79.5839 24.701 79.6789 24.5686 79.3421 24.6434C79.1576 24.7203 78.982 24.8168 78.8182 24.9313C78.0927 25.3027 76.1524 25.579 75.2571 25.7949C74.6238 25.9389 73.2016 26.2412 72.7468 26.4945C72.6286 26.588 72.524 26.6975 72.4359 26.8198C72.3553 27.0156 72.6748 27.3524 72.6748 27.3524C73.435 27.3964 74.1966 27.2928 74.9174 27.0472L76.9959 26.4427C77.3557 26.3649 77.3241 26.2671 77.5716 26.1548C77.7897 26.061 78.015 25.9849 78.2453 25.9274C78.2136 26.3045 78.0351 26.3448 77.8135 26.5665C77.5918 26.7881 77.4997 26.9407 77.2895 27.1422L76.2848 27.7986C76.2065 27.8275 76.1267 27.8525 76.0459 27.8734C75.7782 27.9684 75.9883 27.8734 75.8213 27.9713C75.4039 28.1901 74.9289 28.524 74.382 28.7572C73.3888 29.2006 73.3686 28.8551 73.5442 29.9951C75.8156 30.6946 75.3607 29.6871 76.2013 29.7792C76.4547 30.1103 76.0833 30.0671 76.8635 30.6428C77.7962 31.3136 78.11 30.7062 78.9592 30.1045C79.2604 29.8792 79.5204 29.6035 79.7279 29.2898C80.4562 28.3916 81.3832 27.9224 81.1932 26.9407C81.1212 26.5751 81.1673 26.6528 80.9053 26.4484C80.6433 26.244 80.1367 25.9331 80.0935 25.6827C81.3918 25.294 82.765 26.3793 82.6297 24.9716M79.4774 27.3668L79.3277 27.6172C79.1866 27.8734 79.3277 27.718 79.0974 27.931C79.0837 27.9443 79.0693 27.9568 79.0542 27.9684C78.7088 28.2909 78.8988 28.3628 78.2626 28.6824C78.0639 28.7831 78.0063 28.7918 77.6033 28.7284L77.468 28.6881C77.5889 28.1556 77.6609 28.6622 78.6195 27.9339C78.9074 27.7266 78.8268 27.6834 79.06 27.433C79.5436 26.9148 79.155 27.076 79.5263 26.9407C79.6588 27.1509 79.581 27.1825 79.4688 27.3668" fill="#03383B"/>
<path fill-rule="evenodd" clip-rule="evenodd" d="M76.7506 23.1382C77.0126 23.6046 77.0788 23.714 77.6891 23.8637C78.5671 24.0796 79.759 24.7417 80.28 24.3473C80.6974 24.0278 80.7003 23.5528 80.5046 23.1037C80.3088 22.6546 80.0094 22.5509 79.6956 22.24C79.3818 21.9291 78.9759 21.9262 78.4808 21.7881C77.5768 21.529 77.073 21.624 76.7305 22.3811L76.7506 23.1382Z" fill="#03383B"/>
<path d="M25.3711 33.3139L25.3049 33.1901C25.3682 33.1613 25.4257 33.1214 25.4747 33.0721C25.5158 33.0308 25.5421 32.9772 25.5496 32.9195C25.561 32.8596 25.555 32.7976 25.5323 32.741C25.5147 32.6914 25.4838 32.6476 25.4431 32.6144C25.405 32.5839 25.3591 32.5649 25.3106 32.5597C25.2625 32.5561 25.2141 32.5639 25.1696 32.5827C25.1261 32.5968 25.0879 32.624 25.0602 32.6604C25.0289 32.6968 25.0098 32.7421 25.0055 32.79C25.0014 32.8628 25.0014 32.9359 25.0055 33.0087C25.0114 33.0887 25.0065 33.169 24.9911 33.2477C24.9734 33.3102 24.9408 33.3675 24.8961 33.4147C24.847 33.4637 24.7882 33.5019 24.7234 33.5269C24.649 33.5554 24.5698 33.5691 24.4902 33.5672C24.4159 33.5668 24.3439 33.5415 24.2858 33.4953C24.2279 33.4503 24.1832 33.3907 24.1563 33.3225C24.1258 33.2509 24.1158 33.1721 24.1275 33.0951C24.1412 33.0185 24.1784 32.9481 24.234 32.8936C24.2966 32.8308 24.371 32.781 24.4528 32.7468L24.519 32.8763C24.4406 32.9066 24.3747 32.9624 24.3319 33.0347C24.3147 33.0675 24.3058 33.1041 24.3058 33.1412C24.3058 33.1783 24.3147 33.2148 24.3319 33.2477C24.3429 33.2821 24.3608 33.3139 24.3846 33.3411C24.4083 33.3684 24.4374 33.3905 24.47 33.406C24.5296 33.4276 24.5948 33.4276 24.6543 33.406C24.7034 33.3904 24.7452 33.3577 24.7723 33.3139C24.8058 33.2278 24.8138 33.1338 24.7953 33.0433C24.7844 32.9534 24.7844 32.8625 24.7953 32.7727C24.8087 32.698 24.8437 32.6289 24.8961 32.574C24.9506 32.5262 25.0143 32.49 25.0832 32.4675C25.1605 32.4349 25.2442 32.4202 25.3279 32.4243C25.407 32.4276 25.4837 32.4525 25.5496 32.4963C25.6124 32.5407 25.6605 32.6029 25.6878 32.6748C25.7258 32.7565 25.7388 32.8477 25.7252 32.9368C25.7089 33.0223 25.6667 33.1007 25.6043 33.1613C25.5326 33.2321 25.4474 33.2879 25.3538 33.3254M24.6888 32.3495C24.479 32.4205 24.2531 32.4295 24.0382 32.3754C23.9606 32.3559 23.8895 32.3164 23.8319 32.2609C23.7743 32.2053 23.7323 32.1356 23.71 32.0587C23.6853 31.9624 23.6955 31.8604 23.7388 31.7709C23.7905 31.6619 23.8712 31.5693 23.972 31.5031C24.0946 31.4211 24.2297 31.3599 24.3722 31.3218C24.5168 31.2789 24.6678 31.2613 24.8184 31.27C24.9394 31.2727 25.0571 31.3096 25.1581 31.3765C25.24 31.4347 25.2998 31.5189 25.3279 31.6154C25.3574 31.7171 25.3471 31.8262 25.2991 31.9206C25.2452 32.0298 25.1626 32.1223 25.0602 32.1883C24.9461 32.2647 24.8208 32.323 24.6888 32.361M24.6485 32.2084C24.8062 32.1738 24.9504 32.0938 25.0631 31.9781C25.1043 31.9384 25.134 31.8883 25.1492 31.8331C25.1644 31.7779 25.1645 31.7196 25.1494 31.6643C25.1338 31.6098 25.1035 31.5606 25.0619 31.522C25.0203 31.4835 24.9689 31.457 24.9134 31.4456C24.7483 31.4065 24.5755 31.4155 24.4153 31.4715C24.3026 31.5004 24.1956 31.5481 24.0987 31.6125C24.0212 31.659 23.9568 31.7244 23.9116 31.8025C23.8782 31.8705 23.871 31.9484 23.8914 32.0213C23.9077 32.0739 23.9367 32.1217 23.9758 32.1603C24.015 32.199 24.0632 32.2274 24.116 32.243C24.293 32.2839 24.4782 32.2719 24.6485 32.2084ZM23.3847 30.4524L23.356 30.3056L24.28 30.1328C24.4086 30.1052 24.5401 30.0936 24.6716 30.0983C24.7634 30.1049 24.8514 30.1379 24.9249 30.1933C25.0008 30.254 25.0503 30.3417 25.0631 30.438C25.0845 30.5282 25.0733 30.623 25.0314 30.7057C24.9871 30.7861 24.9186 30.8506 24.8357 30.8899C24.7094 30.9449 24.577 30.9845 24.4413 31.008L23.52 31.1778L23.4913 31.031L24.4125 30.8583C24.5173 30.8435 24.6199 30.8155 24.7176 30.7748C24.7746 30.7501 24.822 30.7077 24.8529 30.6539C24.8853 30.5865 24.8902 30.5092 24.8665 30.4383C24.8429 30.3673 24.7926 30.3084 24.7263 30.2739C24.5896 30.237 24.4455 30.237 24.3088 30.2739L23.3847 30.4524ZM24.9076 29.4534L23.4682 29.5628L23.497 29.9342H23.3041L23.2379 29.0418L23.4279 29.0245L23.4567 29.3987L24.8961 29.2893L24.9076 29.4534ZM24.8443 28.7539L23.2178 28.7021V28.5524L23.8885 28.5725L23.9058 27.9968L23.235 27.9766V27.8269L24.8616 27.8787V28.0284L24.0958 28.0025L24.0757 28.5783L24.8414 28.6042L24.8443 28.7539ZM24.8731 27.6024L23.261 27.4066L23.356 26.5948L23.546 26.6178L23.4653 27.28L23.9634 27.3375L24.0382 26.7186L24.2253 26.7416L24.1505 27.3606L24.7032 27.4296L24.7867 26.7387L24.9738 26.7618L24.8731 27.6024ZM25.0084 26.5372L23.4107 26.2493L23.4999 25.7571C23.5117 25.6785 23.5413 25.6037 23.5863 25.5383C23.6309 25.4873 23.692 25.4536 23.759 25.4433C23.8417 25.4274 23.9267 25.4274 24.0094 25.4433C24.1115 25.4599 24.2066 25.5059 24.2829 25.5757C24.3179 25.6094 24.3453 25.6503 24.3632 25.6954C24.3811 25.7406 24.389 25.7891 24.3866 25.8377C24.4142 25.8088 24.4463 25.7845 24.4816 25.7657C24.5562 25.7275 24.6356 25.6994 24.7176 25.6822L25.1897 25.57L25.1552 25.7513L24.7953 25.8377L24.5564 25.9039C24.5131 25.9172 24.4716 25.9356 24.4326 25.9586C24.4121 25.9766 24.3938 25.9969 24.3779 26.019C24.368 26.045 24.3612 26.0721 24.3578 26.0996L24.3261 26.2695L25.0343 26.4019L25.0084 26.5372ZM24.1447 26.2234L24.2023 25.9068C24.2177 25.8541 24.2177 25.7982 24.2023 25.7456C24.1896 25.702 24.1608 25.665 24.1217 25.6419C24.0811 25.6135 24.035 25.5939 23.9864 25.5843C23.9196 25.568 23.8491 25.5762 23.7878 25.6074C23.758 25.6247 23.7328 25.6489 23.7142 25.6779C23.6957 25.707 23.6844 25.74 23.6813 25.7743L23.615 26.1256L24.1447 26.2234ZM25.2531 25.4087L23.687 24.9769L23.7302 24.8272L25.1149 24.594L23.8857 24.2543L23.926 24.1162L25.492 24.5509L25.4517 24.6977L24.0613 24.9309L25.2905 25.2706L25.2531 25.4087ZM24.781 22.1759L24.8472 22.0406L25.6849 22.4637C25.8034 22.5201 25.9145 22.5907 26.016 22.6739C26.0868 22.7343 26.1379 22.8145 26.1628 22.9042C26.1764 22.9522 26.18 23.0025 26.1736 23.052C26.1672 23.1015 26.1508 23.1491 26.1253 23.1921C26.0865 23.2773 26.0194 23.3464 25.9354 23.3878C25.8511 23.4247 25.7573 23.4338 25.6676 23.4137C25.5339 23.3838 25.4051 23.3353 25.2847 23.2698L24.447 22.8466L24.5075 22.6796L25.3452 23.1028C25.4363 23.1531 25.5329 23.1927 25.6331 23.2209C25.6911 23.2398 25.7536 23.2398 25.8116 23.2209C25.8652 23.1956 25.9088 23.153 25.9354 23.0999C25.9578 23.0605 25.9696 23.0158 25.9696 22.9704C25.9696 22.925 25.9578 22.8803 25.9354 22.8409C25.8447 22.7316 25.7292 22.6457 25.5985 22.5904L24.781 22.1759ZM26.4276 22.5386L25.0573 21.675L25.1408 21.5454L26.5341 21.7325L25.4603 21.0445L25.5381 20.9236L26.9055 21.8016L26.8249 21.9312L25.4287 21.7412L26.5053 22.4292L26.4276 22.5386ZM27.084 21.554L25.7655 20.6012L25.8519 20.4802L27.1703 21.4331L27.084 21.554ZM27.5388 20.9524L26.0246 20.2154L26.1311 20.0945L27.2164 20.6472L27.4554 20.7768C27.4007 20.7077 27.346 20.6328 27.2941 20.558L26.6032 19.5533L26.704 19.4353L27.6396 20.8372L27.5388 20.9524ZM28.0282 20.3766L26.9026 19.2021L27.4928 18.6263L27.6252 18.7616L27.1416 19.2251L27.4841 19.5849L27.9361 19.1531L28.0714 19.2913L27.6194 19.7231L28.0023 20.1233L28.5032 19.6425L28.6357 19.7807L28.0282 20.3766ZM28.7969 19.6281L27.7807 18.3615L28.1722 18.0477C28.232 17.9959 28.3029 17.9584 28.3794 17.9383C28.4476 17.9315 28.5162 17.9466 28.5752 17.9815C28.6482 18.0226 28.7127 18.0773 28.7652 18.1427C28.8345 18.2237 28.8767 18.3243 28.8861 18.4306C28.8898 18.4793 28.8832 18.5284 28.8669 18.5745C28.8505 18.6206 28.8247 18.6627 28.7911 18.6983C28.8312 18.6919 28.872 18.6919 28.912 18.6983C28.9932 18.7193 29.0715 18.7502 29.1452 18.7904L29.5741 19.0121L29.4273 19.1301L29.1135 18.9372C29.0185 18.8883 28.9437 18.8509 28.889 18.8278C28.8487 18.8095 28.8061 18.7969 28.7623 18.7904C28.7357 18.7857 28.7084 18.7857 28.6817 18.7904C28.6566 18.8023 28.6333 18.8178 28.6126 18.8365L28.4773 18.9459L28.9264 19.5216L28.7969 19.6281ZM28.3478 18.8249L28.6011 18.6234C28.6447 18.5899 28.6809 18.5477 28.7076 18.4996C28.7207 18.4575 28.7207 18.4123 28.7076 18.3701C28.6945 18.3214 28.6709 18.2763 28.6385 18.2377C28.5996 18.1825 28.5426 18.1428 28.4773 18.1254C28.4434 18.1186 28.4082 18.1203 28.3751 18.1303C28.3419 18.1404 28.3118 18.1585 28.2873 18.183L27.9994 18.4046L28.3478 18.8249ZM29.3726 18.491L29.4791 18.3989C29.5215 18.4542 29.5719 18.5027 29.6288 18.5428C29.6794 18.5727 29.737 18.5886 29.7958 18.5889C29.8562 18.5857 29.9147 18.5669 29.9657 18.5342C30.0111 18.5064 30.048 18.4665 30.0722 18.419C30.096 18.3771 30.1061 18.3288 30.101 18.2809C30.0947 18.2338 30.078 18.1886 30.0521 18.1488C30.0262 18.109 29.9918 18.0754 29.9513 18.0506C29.9087 18.0321 29.8623 18.0242 29.816 18.0275C29.7441 18.0376 29.673 18.052 29.6029 18.0707C29.5252 18.0927 29.4448 18.1044 29.364 18.1052C29.2987 18.0996 29.2357 18.0789 29.1797 18.0448C29.1227 18.0045 29.0738 17.9537 29.0358 17.8951C28.9929 17.8278 28.9645 17.7523 28.9523 17.6734C28.9409 17.6009 28.9519 17.5265 28.984 17.4604C29.0163 17.3954 29.0649 17.3398 29.125 17.2992C29.1909 17.2578 29.2662 17.2341 29.3438 17.2301C29.4216 17.2278 29.4981 17.2499 29.5626 17.2934C29.6366 17.3419 29.7002 17.4045 29.7497 17.4777L29.6375 17.5698C29.5895 17.5012 29.5224 17.4482 29.4446 17.4172C29.3941 17.4032 29.3406 17.4049 29.2911 17.4219C29.2416 17.4389 29.1984 17.4706 29.1672 17.5127C29.136 17.5548 29.1183 17.6053 29.1165 17.6576C29.1146 17.71 29.1286 17.7617 29.1567 17.8059C29.1832 17.8504 29.2237 17.8848 29.2719 17.9037C29.3572 17.9153 29.444 17.9064 29.5252 17.8778C29.6111 17.8501 29.7 17.8327 29.79 17.826C29.8655 17.8247 29.9396 17.8458 30.0031 17.8865C30.0701 17.9285 30.1263 17.9857 30.1672 18.0534C30.2131 18.1239 30.2435 18.2034 30.2564 18.2866C30.2716 18.3642 30.2625 18.4446 30.2305 18.5169C30.1987 18.588 30.1467 18.6481 30.0808 18.6896C30.0065 18.7403 29.92 18.7701 29.8304 18.776C29.7442 18.7753 29.6601 18.7492 29.5885 18.7012C29.5055 18.6454 29.4341 18.5741 29.3784 18.491M30.6278 18.3125L29.8217 16.9019L29.9513 16.8242L30.7602 18.2377L30.6278 18.3125ZM31.2611 17.97L30.6191 16.686L30.2852 16.853L30.1988 16.6831L31.002 16.283L31.0884 16.4528L30.7544 16.6169L31.3964 17.9037L31.2611 17.97ZM32.1823 17.5496L31.9232 16.9106L31.1719 16.2052L31.3388 16.1362L31.7275 16.5104C31.8023 16.5795 31.8714 16.6486 31.9376 16.7205C31.9376 16.6284 31.9376 16.5248 31.9376 16.4068L31.9607 15.8828L32.1247 15.8166L32.0528 16.853L32.309 17.4949L32.1823 17.5496ZM33.3943 16.3089C33.3318 16.0965 33.3318 15.8706 33.3943 15.6583C33.4153 15.581 33.4565 15.5106 33.5137 15.4545C33.5709 15.3983 33.6419 15.3584 33.7196 15.3387C33.8219 15.3147 33.9294 15.329 34.0219 15.379C34.1258 15.439 34.2129 15.5241 34.2752 15.6266C34.3521 15.7536 34.4067 15.8928 34.4364 16.0383C34.472 16.1842 34.4827 16.335 34.4681 16.4845C34.4609 16.6048 34.4178 16.7201 34.3443 16.8156C34.2827 16.8948 34.1967 16.9515 34.0996 16.9768C33.9957 17.0007 33.8866 16.9842 33.7944 16.9307C33.688 16.8729 33.6001 16.7861 33.5411 16.6803C33.4684 16.5632 33.4158 16.4347 33.3857 16.3002M33.5382 16.2686C33.5655 16.428 33.6386 16.576 33.7484 16.6946C33.7853 16.7389 33.8338 16.7721 33.8885 16.7904C33.9432 16.8087 34.0019 16.8115 34.0581 16.7983C34.1142 16.7852 34.1656 16.7567 34.2065 16.716C34.2474 16.6753 34.2762 16.6241 34.2896 16.568C34.3346 16.406 34.3346 16.2348 34.2896 16.0728C34.2653 15.9578 34.2236 15.8471 34.1658 15.7446C34.1214 15.6668 34.058 15.6015 33.9816 15.5546C33.9169 15.5152 33.8394 15.5028 33.7657 15.5201C33.7124 15.5333 33.6634 15.5598 33.6231 15.597C33.5829 15.6343 33.5527 15.6811 33.5354 15.7331C33.4798 15.9073 33.4798 16.0944 33.5354 16.2686M34.8337 16.8098L34.6408 15.1948L35.4008 15.1027L35.4238 15.2927L34.8135 15.3646L34.874 15.8684L35.4037 15.8051L35.4238 15.9922L34.897 16.0584L34.9863 16.7896L34.8337 16.8098ZM36.561 16.1563L36.702 16.1419C36.7022 16.2114 36.7169 16.28 36.7452 16.3434C36.7666 16.3973 36.8037 16.4434 36.8517 16.4759C36.9039 16.5076 36.9634 16.5255 37.0244 16.5277C37.0773 16.5313 37.13 16.5204 37.177 16.496C37.2203 16.4752 37.2557 16.4408 37.2778 16.3981C37.3009 16.3556 37.3137 16.3083 37.3152 16.2599C37.3163 16.2141 37.3064 16.1687 37.2864 16.1275C37.2649 16.0847 37.2307 16.0495 37.1885 16.0268C37.1243 15.9937 37.0579 15.9648 36.9899 15.9404C36.9131 15.9157 36.8403 15.8798 36.774 15.8339C36.7228 15.7929 36.6832 15.7393 36.6588 15.6784C36.6337 15.6133 36.6219 15.5438 36.6243 15.474C36.6273 15.3941 36.6469 15.3157 36.6819 15.2437C36.7149 15.1781 36.7658 15.1232 36.8287 15.0854C36.8937 15.0526 36.966 15.0367 37.0388 15.0393C37.1164 15.0383 37.1926 15.0603 37.2576 15.1027C37.3224 15.1452 37.3726 15.2064 37.4016 15.2783C37.4337 15.3608 37.4493 15.4488 37.4476 15.5374H37.3037C37.3039 15.4537 37.2799 15.3717 37.2346 15.3013C37.21 15.274 37.1797 15.2524 37.1459 15.238C37.1121 15.2236 37.0756 15.2167 37.0388 15.2178C37.0027 15.2131 36.9659 15.2163 36.9311 15.2272C36.8963 15.2381 36.8643 15.2566 36.8373 15.2812C36.7982 15.3239 36.7742 15.3784 36.769 15.4361C36.7638 15.4938 36.7777 15.5516 36.8085 15.6007C36.8718 15.658 36.9478 15.6995 37.0302 15.7216C37.1177 15.7494 37.2017 15.787 37.2807 15.8339C37.3417 15.8764 37.3896 15.9353 37.4188 16.0037C37.4496 16.0764 37.4624 16.1554 37.4563 16.234C37.4563 16.319 37.4366 16.4027 37.3987 16.4787C37.3656 16.5494 37.3125 16.6089 37.246 16.6499C37.1795 16.6908 37.1025 16.7114 37.0244 16.709C36.9337 16.7088 36.8449 16.6828 36.7682 16.6342C36.6976 16.5859 36.6441 16.5163 36.6157 16.4356C36.5781 16.3443 36.5595 16.2463 36.561 16.1477M38.5329 16.2513L38.674 16.3233C38.6402 16.4675 38.5664 16.5992 38.461 16.7033C38.4191 16.7428 38.369 16.7724 38.3141 16.7898C38.2593 16.8072 38.2013 16.8121 38.1443 16.804C38.0895 16.8015 38.0358 16.788 37.9863 16.7642C37.9368 16.7405 37.8927 16.707 37.8564 16.6659C37.7817 16.5708 37.734 16.4575 37.7182 16.3377C37.698 16.1916 37.698 16.0433 37.7182 15.8972C37.7357 15.7478 37.7765 15.6021 37.8391 15.4654C37.8879 15.3578 37.9669 15.2668 38.0666 15.2034C38.1512 15.147 38.2536 15.1235 38.3544 15.1372C38.4079 15.1425 38.4596 15.1594 38.5058 15.1868C38.5521 15.2141 38.5918 15.2512 38.6222 15.2956C38.6956 15.4038 38.7375 15.5304 38.7431 15.6612L38.5905 15.6928C38.5856 15.5971 38.5569 15.5041 38.507 15.4222C38.4866 15.3939 38.4604 15.3702 38.4301 15.3528C38.3998 15.3354 38.3662 15.3248 38.3314 15.3215C38.2914 15.315 38.2504 15.317 38.2112 15.3274C38.1721 15.3378 38.1355 15.3564 38.104 15.3819C38.0347 15.4424 37.9821 15.5197 37.9514 15.6065C37.9167 15.7063 37.8925 15.8096 37.8794 15.9145C37.8621 16.0348 37.8621 16.1569 37.8794 16.2772C37.8875 16.368 37.9226 16.4542 37.9802 16.5248C38.0265 16.5787 38.0911 16.6135 38.1616 16.6227C38.202 16.6272 38.2429 16.6226 38.2813 16.6091C38.3196 16.5957 38.3545 16.5737 38.3832 16.5449C38.4597 16.4645 38.5134 16.3651 38.5387 16.2571M38.8266 16.899L39.1144 15.3013L39.2613 15.3272L38.9734 16.9278L38.8266 16.899ZM39.2526 16.9825L39.6902 15.4165L40.479 15.6352L40.4243 15.8195L39.7823 15.641L39.647 16.1218L40.2516 16.2887L40.1998 16.473L39.5981 16.306L39.4484 16.8386L40.1163 17.0257L40.0673 17.2099L39.2526 16.9825ZM40.2832 17.2704L40.8878 15.7619L41.0317 15.8195L41.1066 17.2243L41.5816 16.0412L41.7169 16.093L41.1094 17.6015L40.9655 17.5439L40.8907 16.139L40.4157 17.3222L40.2832 17.2704ZM42.3387 17.5583L42.4481 17.6763C42.3657 17.8014 42.25 17.9011 42.1141 17.9642C42.0628 17.9883 42.0068 18.0008 41.9501 18.0008C41.8933 18.0008 41.8373 17.9883 41.786 17.9642C41.6873 17.9177 41.6101 17.8353 41.57 17.7339C41.5318 17.6197 41.5258 17.4972 41.5528 17.3798C41.5797 17.2347 41.6272 17.0941 41.6938 16.9624C41.7612 16.8274 41.8496 16.704 41.9558 16.5968C42.0395 16.5141 42.1439 16.4554 42.2581 16.4269C42.3555 16.4072 42.4568 16.4203 42.546 16.4643C42.5943 16.4876 42.637 16.521 42.6713 16.5622C42.7055 16.6034 42.7305 16.6515 42.7446 16.7033C42.7753 16.8307 42.7703 16.9642 42.7302 17.089L42.5776 17.066C42.6085 16.9731 42.6135 16.8736 42.592 16.7781C42.5825 16.7438 42.5657 16.712 42.5429 16.6847C42.52 16.6574 42.4916 16.6353 42.4596 16.6198C42.4241 16.6008 42.385 16.5894 42.3448 16.5864C42.3047 16.5834 42.2643 16.5889 42.2264 16.6025C42.1394 16.634 42.0634 16.69 42.0076 16.7637C41.9393 16.8435 41.8813 16.9315 41.8349 17.0257C41.7779 17.1336 41.7362 17.2489 41.7111 17.3683C41.6844 17.4536 41.6844 17.545 41.7111 17.6302C41.7349 17.6981 41.7831 17.7545 41.8464 17.7886C41.883 17.8071 41.9235 17.8167 41.9645 17.8167C42.0055 17.8167 42.0459 17.8071 42.0825 17.7886C42.1833 17.7392 42.2681 17.6624 42.3272 17.5669M42.3876 18.2377L43.2743 16.8731L43.9594 17.3165L43.8558 17.4777L43.2973 17.115L43.0094 17.5353L43.5334 17.8749L43.4298 18.0333L42.9317 17.6734L42.6438 18.1398L43.2196 18.5169L43.116 18.6752L42.3876 18.2377ZM43.7579 19.156L45.1541 18.2146L45.2751 18.3212L44.5582 19.8498L44.4316 19.7404L44.6532 19.2798L44.3164 18.9372L43.899 19.2251L43.7579 19.156ZM44.4431 18.8681L44.731 19.1215L44.9354 18.704C44.9987 18.5774 45.0534 18.4737 45.0966 18.3931C45.0176 18.464 44.9339 18.5294 44.8461 18.5889L44.4431 18.8681ZM44.659 19.9419L45.8393 18.8278L45.9458 18.9372L45.4248 20.2471L46.3546 19.369L46.4525 19.4756L45.2722 20.5925L45.1657 20.4802L45.6867 19.1704L44.7569 20.034L44.659 19.9419ZM45.4535 20.7883L46.7231 19.7749L46.9678 20.0801C47.0109 20.1316 47.0468 20.1887 47.0743 20.2499C47.0959 20.3164 47.0959 20.3879 47.0743 20.4543C47.0543 20.5597 47.0089 20.6585 46.9419 20.7422C46.8634 20.8495 46.7715 20.9462 46.6684 21.0301C46.5784 21.0987 46.482 21.1585 46.3805 21.2086C46.3056 21.2476 46.2264 21.2775 46.1444 21.2978C46.0853 21.3071 46.0251 21.3071 45.966 21.2978C45.9133 21.2898 45.8632 21.2701 45.8191 21.2403C45.7663 21.2072 45.7196 21.1653 45.681 21.1165L45.4535 20.7883ZM45.6954 20.7883L45.8479 20.9754C45.8829 21.0248 45.928 21.066 45.9804 21.0963C46.0209 21.1149 46.0653 21.1237 46.1099 21.1222C46.1843 21.113 46.2564 21.0906 46.3229 21.056C46.417 21.0095 46.505 20.9514 46.5849 20.8833C46.6932 20.8061 46.7851 20.7082 46.8555 20.5954C46.8992 20.5281 46.9185 20.4478 46.9102 20.368C46.894 20.3031 46.8613 20.2436 46.8152 20.1953L46.6684 20.011L45.6954 20.7883ZM46.7231 22.5933L47.9638 21.8707L47.7969 21.5281L47.9638 21.4303L48.4158 22.2075L48.2488 22.3025L48.0617 21.9801L46.821 22.7027L46.7231 22.5933ZM47.0541 23.2065L48.5367 22.5386L48.8735 23.2813L48.7008 23.359L48.4129 22.7545L47.9581 22.9589L48.2143 23.5346L48.0387 23.6153L47.7854 23.0395L47.2787 23.2669L47.5666 23.9003L47.391 23.978L47.0541 23.2065ZM48.292 24.7581V24.9193C48.1464 24.9511 47.9947 24.9412 47.8545 24.8906C47.8013 24.871 47.7531 24.8399 47.7133 24.7996C47.6735 24.7593 47.6431 24.7108 47.6241 24.6574C47.5822 24.556 47.5822 24.4421 47.6241 24.3407C47.6767 24.2315 47.7584 24.1388 47.8602 24.073C47.9799 23.9866 48.1119 23.9187 48.2517 23.8715C48.3927 23.8189 48.5418 23.7916 48.6922 23.7909C48.8096 23.7863 48.9257 23.8163 49.0261 23.8772C49.1114 23.9294 49.1756 24.0099 49.2075 24.1047C49.2267 24.1545 49.2347 24.208 49.2307 24.2613C49.2267 24.3145 49.2109 24.3663 49.1844 24.4127C49.1199 24.5256 49.0252 24.6183 48.911 24.6804L48.8131 24.5595C48.8972 24.5135 48.9684 24.4472 49.0204 24.3666C49.0346 24.3344 49.0419 24.2996 49.0419 24.2644C49.0419 24.2292 49.0346 24.1944 49.0204 24.1622C49.0079 24.1234 48.9873 24.0877 48.9601 24.0574C48.9328 24.0271 48.8993 24.003 48.862 23.9866C48.7789 23.9498 48.6872 23.9368 48.5972 23.9492C48.4913 23.9609 48.3871 23.984 48.2863 24.0183C48.1723 24.0588 48.0632 24.112 47.961 24.1766C47.8846 24.2246 47.8236 24.2935 47.7854 24.3753C47.7596 24.442 47.7596 24.5158 47.7854 24.5825C47.7982 24.6215 47.82 24.6569 47.849 24.6859C47.878 24.7149 47.9134 24.7367 47.9523 24.7495C48.0617 24.7792 48.1769 24.7792 48.2863 24.7495M47.8804 25.2706L49.4637 24.905L49.4982 25.0489L48.8448 25.2015L48.9772 25.7772L49.6307 25.6275L49.6623 25.7715L48.079 26.1371L48.0445 25.9903L48.7901 25.8204L48.6605 25.2446L47.9149 25.4145L47.8804 25.2706ZM48.1366 26.3933L49.7516 26.1975L49.7717 26.3501L48.5741 27.0928L49.8408 26.9403L49.8581 27.0813L48.246 27.2771L48.2258 27.1245L49.4234 26.3818L48.1538 26.5343L48.1366 26.3933ZM49.0635 27.4728C49.284 27.4531 49.5054 27.4992 49.6998 27.6053C49.77 27.6424 49.8293 27.6973 49.8717 27.7645C49.9141 27.8316 49.9382 27.9088 49.9416 27.9881C49.9457 28.0929 49.9109 28.1955 49.8437 28.276C49.7679 28.3682 49.6684 28.4379 49.5558 28.4775C49.4164 28.5285 49.2695 28.5558 49.1211 28.5581C48.9713 28.5661 48.8212 28.5476 48.6778 28.5034C48.5615 28.4705 48.4568 28.4057 48.3755 28.3163C48.3098 28.24 48.2722 28.1435 48.269 28.0428C48.2648 27.9376 48.3008 27.8346 48.3698 27.755C48.4458 27.6631 48.5453 27.5935 48.6576 27.5534C48.7871 27.5066 48.9231 27.4804 49.0607 27.4757M49.0607 27.6312C48.8986 27.6284 48.7389 27.6713 48.6001 27.755C48.5507 27.7848 48.5101 27.8271 48.4823 27.8776C48.4545 27.9282 48.4405 27.9852 48.4417 28.0428C48.4434 28.1027 48.4611 28.161 48.493 28.2116C48.5249 28.2622 48.5698 28.3034 48.6231 28.3307C48.7736 28.406 48.942 28.4379 49.1096 28.4228C49.2262 28.4223 49.3419 28.4029 49.4522 28.3653C49.5389 28.339 49.6166 28.2892 49.6767 28.2213C49.7275 28.1656 49.7543 28.0922 49.7516 28.0169C49.7488 27.9621 49.7323 27.9089 49.7036 27.8622C49.675 27.8154 49.635 27.7765 49.5875 27.7492C49.4262 27.663 49.2422 27.6288 49.0607 27.6513M48.2949 28.8028L49.9157 28.9266V29.0734L48.4763 28.9669L48.4302 29.5225L48.2431 29.5081L48.2949 28.8028ZM49.0146 29.7528C49.2356 29.7663 49.4478 29.8444 49.6249 29.9774C49.6886 30.0246 49.7387 30.0878 49.77 30.1606C49.8014 30.2334 49.8129 30.3132 49.8034 30.3919C49.794 30.4958 49.7444 30.5918 49.6652 30.6597C49.574 30.74 49.4624 30.7937 49.3428 30.8151C49.0504 30.8657 48.7496 30.8276 48.4791 30.7057C48.3698 30.6562 48.2761 30.5775 48.2085 30.4783C48.154 30.3928 48.1306 30.2911 48.1423 30.1904C48.1551 30.0855 48.2064 29.989 48.2863 29.9198C48.3788 29.8403 48.4913 29.7876 48.6116 29.7672C48.7459 29.7381 48.8843 29.7332 49.0204 29.7528M48.9973 29.9025C48.8389 29.8759 48.6761 29.8948 48.5281 29.9572C48.4736 29.9767 48.4256 30.0109 48.3895 30.0561C48.3535 30.1013 48.3307 30.1557 48.3238 30.2131C48.3169 30.2705 48.3262 30.3287 48.3506 30.3812C48.375 30.4336 48.4135 30.4782 48.4619 30.51C48.5985 30.6084 48.7602 30.6662 48.9282 30.6769C49.0446 30.6946 49.163 30.6946 49.2794 30.6769C49.3683 30.6641 49.4519 30.6273 49.5213 30.5704C49.5792 30.523 49.6164 30.4548 49.6249 30.3804C49.6305 30.3261 49.6224 30.2713 49.6012 30.221C49.5801 30.1707 49.5467 30.1265 49.504 30.0925C49.3564 29.9843 49.1801 29.9222 48.9973 29.914M48.5137 31.6413L48.6979 31.696L48.5626 32.1537L47.9869 31.9868C47.9313 31.9035 47.8914 31.8108 47.8688 31.7133C47.8486 31.632 47.8486 31.547 47.8688 31.4657C47.8988 31.3608 47.9625 31.2687 48.0502 31.2037C48.1506 31.1324 48.2697 31.0924 48.3928 31.0886C48.5407 31.0806 48.6889 31.0991 48.8304 31.1433C48.9751 31.1842 49.1122 31.2483 49.2363 31.3333C49.3407 31.3994 49.4237 31.4944 49.4752 31.6068C49.5084 31.7097 49.5084 31.8205 49.4752 31.9234C49.4557 31.9988 49.4147 32.0668 49.3572 32.1192C49.3027 32.1717 49.2351 32.2085 49.1614 32.2257C49.066 32.2401 48.969 32.2401 48.8735 32.2257V32.0789C48.9403 32.0895 49.0083 32.0895 49.0751 32.0789C49.1279 32.0686 49.1767 32.0436 49.2161 32.0069C49.2566 31.9698 49.2855 31.9218 49.2996 31.8687C49.3168 31.8095 49.3168 31.7466 49.2996 31.6874C49.2861 31.6319 49.2595 31.5806 49.2219 31.5377C49.1815 31.4949 49.1361 31.4572 49.0866 31.4254C48.9919 31.3678 48.8903 31.3223 48.7843 31.2901C48.6655 31.2555 48.5424 31.238 48.4187 31.2383C48.3281 31.2393 48.2402 31.2696 48.1682 31.3246C48.1076 31.3705 48.0624 31.4338 48.0387 31.506C48.0213 31.5711 48.0213 31.6396 48.0387 31.7047C48.0516 31.7644 48.0761 31.8211 48.1107 31.8716L48.3985 31.9551L48.5137 31.6413ZM47.5954 32.4531L48.2373 32.7093L49.2679 32.6546L49.2017 32.8216L48.6634 32.8446C48.5598 32.8446 48.4619 32.8446 48.3755 32.8446C48.4417 32.908 48.5137 32.9828 48.5943 33.0692L48.957 33.4521L48.8908 33.6133L48.1913 32.8446L47.5522 32.5856L47.5954 32.4531Z" fill="#ED6C00"/>
<path d="M43.7016 35.5252C42.0535 37.1736 39.8848 38.1994 37.5651 38.4281C35.2454 38.6568 32.9182 38.0741 30.9799 36.7794C29.0416 35.4846 27.6122 33.5579 26.9352 31.3274C26.2582 29.0969 26.3755 26.7007 27.267 24.547C28.1586 22.3933 29.7693 20.6154 31.8248 19.5161C33.8802 18.4168 36.2532 18.0642 38.5395 18.5183C40.8258 18.9724 42.8839 20.2051 44.3633 22.0065C45.8426 23.8079 46.6515 26.0664 46.6524 28.3974C46.6563 29.7216 46.3976 31.0334 45.8911 32.2569C45.3846 33.4804 44.6404 34.5913 43.7016 35.5252ZM43.8542 21.1313C42.1699 19.4461 39.9534 18.3971 37.5824 18.1631C35.2113 17.9291 32.8325 18.5245 30.8513 19.8478C28.87 21.1712 27.409 23.1406 26.7171 25.4205C26.0253 27.7004 26.1454 30.1497 27.0571 32.351C27.9688 34.5522 29.6156 36.3692 31.7168 37.4923C33.818 38.6154 36.2437 38.9751 38.5805 38.5102C40.9172 38.0452 43.0204 36.7843 44.5317 34.9424C46.0429 33.1004 46.8687 30.7914 46.8683 28.4089C46.8718 27.0568 46.6073 25.7175 46.0899 24.4683C45.5726 23.2191 44.8127 22.0849 43.8542 21.1313Z" fill="#ED6C00"/>
<path d="M47.0666 38.8894C44.639 41.3185 41.4443 42.8307 38.0267 43.1683C34.6092 43.5059 31.1803 42.648 28.3244 40.7408C25.4685 38.8336 23.3623 35.9951 22.3647 32.709C21.3671 29.4229 21.5398 25.8926 22.8534 22.7196C24.167 19.5465 26.5402 16.9272 29.5686 15.3079C32.5971 13.6885 36.0933 13.1694 39.4616 13.839C42.8299 14.5085 45.8617 16.3253 48.0406 18.9798C50.2195 21.6342 51.4105 24.9621 51.4107 28.3962C51.4171 30.3457 51.0365 32.2771 50.2908 34.0784C49.545 35.8796 48.4491 37.5149 47.0666 38.8894ZM47.3401 17.6324C44.8495 15.14 41.5717 13.5883 38.0653 13.2418C34.5588 12.8953 31.0407 13.7754 28.1105 15.7322C25.1802 17.689 23.0192 20.6013 21.9956 23.9729C20.972 27.3445 21.1493 30.9667 22.4971 34.2222C23.8449 37.4777 26.28 40.1652 29.3873 41.8265C32.4945 43.4879 36.0818 44.0203 39.5376 43.3332C42.9935 42.646 46.1042 40.7817 48.3395 38.058C50.5749 35.3343 51.7966 31.9198 51.7965 28.3962C51.8024 26.3965 51.4116 24.4155 50.6466 22.5679C49.8817 20.7203 48.7578 19.0427 47.3401 17.6324Z" fill="#ED6C00"/>
<path fill-rule="evenodd" clip-rule="evenodd" d="M26.5902 36.7849C26.524 36.9029 26.4895 36.8453 26.3916 36.8539C26.3193 36.8732 26.2447 36.8819 26.1699 36.8798L26.0605 36.8626C26.0249 36.8464 25.9871 36.8357 25.9482 36.8309C25.8532 36.8309 25.7726 36.9432 25.836 37.0986C25.9281 37.3174 25.836 37.2944 26.0404 37.3865C26.1728 37.4412 26.4376 37.5103 26.5067 37.6255C26.5067 37.6658 26.4175 37.7521 26.3369 37.7291C26.3023 37.7291 26.3225 37.7291 26.2908 37.7089L26.2448 37.6917C26.1785 37.8068 26.2707 37.7492 26.1728 37.9335L26.3282 38.0889C26.6017 37.9767 26.5067 37.6456 26.7888 37.7406C26.8838 37.7723 26.8954 37.7406 26.9788 37.7579C27.0825 37.9565 26.9299 37.9133 26.8752 38.1091C26.832 38.2559 27.0048 38.4229 27.0048 38.4229C27.1458 38.4229 27.2437 38.23 27.3358 38.1091L27.6467 37.7147C27.6957 37.6514 27.8195 37.5305 27.9346 37.3606C27.9893 37.2915 28.0354 37.2742 28.1073 37.1965C28.1681 37.1314 28.223 37.0611 28.2714 36.9864C28.3175 36.9202 28.3751 36.877 28.4298 36.805C28.5248 36.6755 28.5075 36.6582 28.4701 36.5977C28.3635 36.4221 28.3635 36.3099 28.1822 36.3099C28.1016 36.3099 28.067 36.3358 28.0008 36.3329H27.6007C27.5143 36.3329 27.4682 36.3502 27.3963 36.307C27.4151 36.2791 27.4404 36.2563 27.47 36.2402C27.4995 36.2242 27.5325 36.2155 27.5661 36.2148C27.6248 36.1965 27.6844 36.1811 27.7446 36.1688C28.0613 36.1342 27.7878 36.1314 28.1304 36.1688C28.2138 36.1688 28.257 36.1544 28.306 36.068C28.3923 35.9126 28.2657 36.0047 28.3261 35.7658C28.3434 35.6938 28.3261 35.7168 28.3779 35.6823C28.4483 35.6332 28.5049 35.5668 28.542 35.4894C28.4442 35.2245 28.3434 35.2879 28.3434 35.2879L27.9029 35.5988C27.7158 35.7168 27.3042 35.5988 27.1055 35.5182C27.0048 35.475 27.0595 35.5182 26.9673 35.4808L26.5413 35.2994C26.4549 35.2792 26.4779 35.2735 26.406 35.2994C26.334 35.3253 26.3369 35.3311 26.2995 35.3915C26.3088 35.4349 26.3275 35.4757 26.3544 35.511C26.3813 35.5464 26.4156 35.5753 26.4549 35.5959C26.6363 35.7139 27.1314 35.8492 27.2149 35.95C27.2149 35.9874 27.2351 35.95 27.1861 36.0047C27.0763 36.0752 26.9526 36.1214 26.8234 36.14C26.7082 36.1199 26.7428 36.045 26.596 36.117C26.4981 36.1659 26.4779 36.2235 26.3887 36.2379C26.3534 36.2399 26.3185 36.2466 26.2851 36.258C26.2487 36.2735 26.2093 36.2804 26.1699 36.2782C25.9166 36.2782 26.0432 36.33 25.8446 36.3242C25.7582 36.3242 25.6892 36.3502 25.6258 36.3473C25.5814 36.3426 25.5378 36.3319 25.4963 36.3156C25.3898 36.3156 25.1595 36.5027 25.3754 36.6553C25.5913 36.8079 25.5193 36.5027 26.262 36.5258C26.3024 36.5225 26.3429 36.5293 26.38 36.5453C26.4171 36.5614 26.4498 36.5863 26.4751 36.6179C26.4952 36.6467 26.4981 36.6783 26.5182 36.7158C26.5423 36.7515 26.5692 36.7852 26.5988 36.8165M26.1958 37.2368C26.2735 37.2368 26.3772 37.2368 26.4837 37.2368H26.6449C26.6745 37.2319 26.7048 37.2346 26.733 37.2446C26.7612 37.2547 26.7864 37.2718 26.8061 37.2944C26.7716 37.3548 26.7687 37.3692 26.7082 37.3808H26.6823C26.5037 37.3794 26.3294 37.3253 26.1814 37.2253M26.8867 36.7618L26.9904 36.5949L27.2523 36.5718C27.3214 36.5718 27.4625 36.5459 27.5229 36.6006C27.4884 36.7014 27.474 36.6524 27.379 36.6927C27.284 36.733 27.3099 36.7388 27.212 36.7445C27.1142 36.7503 26.976 36.877 26.8867 36.7618ZM27.094 37.8212L27.0307 37.7809L27.0537 37.6974C27.0537 37.6629 27.0739 37.6571 27.0537 37.6197C27.0335 37.5823 26.9875 37.5391 26.9587 37.493C27.0087 37.4223 27.0761 37.3658 27.1545 37.3289L27.2466 37.2627C27.3099 37.2138 27.3128 37.2311 27.356 37.185C27.3704 37.09 27.307 37.0756 27.356 36.9576C27.3904 36.9426 27.4278 36.9357 27.4654 36.9374L27.7849 36.9058C27.704 37.0809 27.5907 37.2391 27.451 37.3721C27.3905 37.4412 27.1861 37.7809 27.0854 37.8212" fill="#ED6C00"/>
<path fill-rule="evenodd" clip-rule="evenodd" d="M45.643 37.5796C45.6412 37.575 45.6412 37.5699 45.643 37.5652L45.6977 37.2112C45.7294 36.9521 45.7524 37.0586 45.7841 36.8542C45.833 36.5663 45.8906 36.6124 45.8963 36.4799C45.9021 36.3475 45.951 36.4252 45.9942 36.3015C46.0374 36.1777 45.9626 36.2525 46.0979 36.1402C46.1468 36.4281 45.9568 36.4656 46.0979 36.6181C46.039 36.7257 45.9927 36.8397 45.9597 36.9578C45.933 37.073 45.8873 37.183 45.8244 37.2831C45.7035 37.476 45.6948 37.4098 45.7438 37.4962C45.8963 37.4962 45.9827 37.2975 46.0547 37.2083C46.0547 37.1881 46.1986 36.9348 46.2216 36.8887C46.253 36.7622 46.3153 36.6455 46.403 36.549C46.4663 36.7765 46.2619 37.0327 46.285 37.1248C46.308 37.2169 46.4088 37.2313 46.4059 37.3004C46.403 37.3695 46.4232 37.3177 46.3656 37.3925L46.1583 37.6545C46.095 37.7524 45.8503 37.928 45.8301 37.9827C46.0057 38.1957 46.5873 37.4069 46.7456 37.4069C46.783 37.4069 46.7456 37.3868 46.8089 37.4472C46.8236 37.4648 46.8362 37.4842 46.8463 37.5048C46.8689 37.5612 46.8749 37.6228 46.8637 37.6824C46.8524 37.7421 46.8245 37.7973 46.783 37.8416C46.855 37.9049 46.783 37.8243 46.8377 37.8762C46.8924 37.928 46.8521 37.9453 46.9413 38.0489C47.1716 38.0489 47.3991 37.9856 47.3213 37.7063C47.3127 37.6524 47.2992 37.5994 47.281 37.548C47.2235 37.4213 47.0709 37.2601 47.0623 37.1104C47.3991 36.8225 47.7647 36.716 47.5257 36.4857C47.471 36.431 47.4653 36.4569 47.4336 36.3878C47.4336 36.3677 47.4336 36.2698 47.3386 36.313C47.2436 36.3562 47.1572 36.4915 47.0766 36.5634C46.9269 36.6901 46.8089 36.8369 46.7888 36.8513C46.6909 36.8283 46.665 36.8024 46.6621 36.6872L46.6247 36.2151C46.6275 36.1728 46.6174 36.1307 46.5959 36.0942C46.5743 36.0577 46.5422 36.0286 46.5038 36.0107C46.3973 35.9733 46.3829 36.0712 46.2879 36.0769C46.2418 35.9934 46.2879 35.9474 46.3426 35.8783C46.3973 35.8092 46.4318 35.7516 46.4692 35.6912C46.5066 35.6307 46.4692 35.6422 46.5038 35.5846C46.5383 35.5271 46.5383 35.5386 46.5469 35.4925C46.5556 35.4465 46.5326 35.2449 46.38 35.3457L46.3051 35.4062C46.2509 35.4408 46.2007 35.4813 46.1554 35.5271C46.1065 35.5789 45.9769 36.1172 45.8272 36.264C45.7668 36.1719 45.81 36.264 45.81 36.1949L45.8532 36.0049C45.8998 35.839 45.925 35.6677 45.928 35.4954C45.928 35.3745 46.0316 35.3543 45.9539 35.2421C45.8388 35.2046 45.7898 35.2622 45.6948 35.2708C45.62 35.1269 45.8877 35.0175 45.6085 34.9542H45.4876C45.4329 34.8448 45.4559 34.816 45.3206 34.793C45.1104 34.9081 45.2774 35.0809 45.3062 35.2507C45.3263 35.3399 45.3062 35.2939 45.2918 35.3687C45.2774 35.4436 45.3206 35.3428 45.2716 35.5328C45.2716 35.5472 45.2716 35.5674 45.2572 35.5846C45.2514 35.6049 45.2415 35.6238 45.2282 35.6401C45.2148 35.6565 45.1982 35.6699 45.1795 35.6796C45.1191 35.6422 45.1421 35.6106 45.0442 35.599C44.8542 35.5818 44.8485 35.7919 44.8629 35.9157C44.8217 35.9444 44.7744 35.9632 44.7247 35.9704L44.6959 36.0596C44.6556 36.2209 44.8485 36.454 44.9463 36.5749C45.0442 36.6958 45.0212 36.7362 45.0586 36.7678C45.1171 36.7979 45.1842 36.8071 45.2486 36.7937C45.3724 36.7649 45.3695 36.7477 45.4098 36.6613C45.4875 36.5145 45.5365 36.598 45.5048 36.4799C45.4904 36.4281 45.4069 36.3562 45.5394 36.336V36.4166C45.5281 36.5747 45.504 36.7316 45.4674 36.8859C45.4431 37.0751 45.3825 37.2579 45.2889 37.4242C45.2658 37.4887 45.2691 37.5598 45.2983 37.6218C45.3274 37.6839 45.3799 37.7319 45.4444 37.7552C45.5117 37.7097 45.5744 37.6576 45.6315 37.5998M45.5653 35.9589C45.5508 35.925 45.5471 35.8874 45.5549 35.8513C45.5626 35.8152 45.5813 35.7824 45.6085 35.7574C45.6292 35.7899 45.6363 35.8293 45.6282 35.867C45.6201 35.9047 45.5975 35.9377 45.5653 35.9589ZM46.141 36.2842C46.1785 36.1086 46.1065 36.1662 46.2763 36.0856C46.3138 36.1949 46.2763 36.2237 46.2216 36.3101C46.1669 36.3965 46.2216 36.454 46.1065 36.5174V36.3907C46.1065 36.3216 46.1266 36.3619 46.1439 36.2842" fill="#ED6C00"/>
<path d="M36.1573 34.7694V32.0519C36.1515 31.9602 36.1111 31.8742 36.0443 31.8111C35.9775 31.7481 35.8893 31.7127 35.7974 31.7122C34.8571 31.6982 33.9199 31.6019 32.9964 31.4243C32.9589 31.4117 32.9185 31.4107 32.8805 31.4215C32.8425 31.4323 32.8086 31.4543 32.7834 31.4847C32.7373 31.5625 32.7574 31.62 32.7834 31.7093C32.8093 31.7985 32.9244 32.1872 32.9244 32.1872C32.9964 32.5096 33.4282 32.5873 33.7046 32.6478L34.9338 32.9126C35.524 33.0422 35.6881 33.4884 35.6881 34.1073V34.6485C35.6881 35.1207 35.6074 35.4287 35.2937 35.4402C34.8964 35.4603 34.6056 35.0631 34.4502 34.7176V34.6946C34.4502 34.6629 34.4243 34.6341 34.4156 34.6053L34.0759 33.7734C34.0607 33.7223 34.033 33.6758 33.9953 33.6381C33.9502 33.6057 33.8954 33.5895 33.8399 33.592H33.4224L33.9608 35.4488C34.0427 35.8567 34.2303 36.2359 34.5049 36.5485C34.8734 36.8969 35.475 37.084 36.2753 37.084C37.0756 37.084 37.6773 36.8969 38.0458 36.5485C38.3201 36.2354 38.5086 35.8565 38.5928 35.4488L39.1253 33.592H38.7108C38.6553 33.5895 38.6005 33.6057 38.5553 33.6381C38.5177 33.6758 38.49 33.7223 38.4747 33.7734L38.135 34.6053L38.1005 34.6946V34.7176C37.9421 35.0631 37.6514 35.4603 37.2512 35.4402C36.9374 35.4402 36.8597 35.1207 36.8597 34.6485V34.1073C36.8597 33.4999 37.0209 33.0422 37.6168 32.9126L38.8432 32.6478C39.1167 32.5873 39.5485 32.5096 39.6234 32.1872C39.6234 32.1872 39.7385 31.8014 39.7644 31.7093C39.7903 31.6172 39.8105 31.5625 39.7644 31.4847C39.7392 31.4543 39.7053 31.4323 39.6673 31.4215C39.6292 31.4107 39.5889 31.4117 39.5514 31.4243C38.6279 31.6017 37.6906 31.698 36.7503 31.7122C36.6585 31.7127 36.5703 31.7481 36.5035 31.8111C36.4367 31.8742 36.3963 31.9602 36.3905 32.0519V34.7694C36.3905 34.7985 36.379 34.8263 36.3584 34.8468C36.3379 34.8673 36.3101 34.8788 36.2811 34.8788C36.2521 34.8788 36.2242 34.8673 36.2037 34.8468C36.1832 34.8263 36.1717 34.7985 36.1717 34.7694" fill="#ED6C00"/>
<path d="M36.3311 20.8465C36.3311 20.8465 35.4963 21.3129 35.1969 21.9404C35.0702 22.2082 35.1422 22.3809 35.6258 22.0815C36.2674 21.673 36.9519 21.3361 37.6669 21.0768C38.4816 20.7889 39.9699 20.4406 40.0736 20.501C40.1196 20.5241 40.1225 20.6076 40.0361 20.6853C37.9289 22.6227 37.7014 24.0621 38.2772 24.2895C38.6735 24.3826 39.0889 24.3505 39.4661 24.1974C39.8879 24.022 40.3331 23.9095 40.7875 23.8635C41.9131 23.8289 42.3824 25.9621 41.1675 27.983C40.4881 29.1173 38.6745 30.5567 38.5449 30.5048C38.4874 30.4789 38.4672 30.4156 38.4931 30.312C38.519 30.2083 39.161 28.8121 38.6457 28.5847C38.5622 28.5473 38.3578 28.6048 38.1707 29.0597C37.9231 29.6354 37.736 29.7564 37.6352 29.7304C37.5345 29.7045 37.569 29.5433 37.5863 29.4426C37.6036 29.3418 37.6266 29.2411 37.5633 29.2814C37.4999 29.3217 36.9242 29.9723 36.7428 29.9579C36.6766 29.9579 36.6363 29.883 36.6766 29.7851C36.7169 29.6873 36.763 29.5577 36.763 29.5577C36.1374 30.1409 35.3735 30.5551 34.5434 30.7611C34.41 30.8005 34.2699 30.8122 34.1317 30.7956C34.1181 30.7854 34.1069 30.7722 34.0993 30.7569C34.0916 30.7417 34.0876 30.7249 34.0876 30.7078C34.0876 30.6907 34.0916 30.6739 34.0993 30.6587C34.1069 30.6434 34.1181 30.6302 34.1317 30.62C34.2124 30.5682 35.5049 29.9003 36.0663 28.956C36.2361 28.6682 36.2361 28.5271 36.193 28.4494C36.0807 28.2565 35.528 28.4494 35.1681 28.602C34.6651 28.8632 34.1299 29.0568 33.5761 29.1777C32.7125 29.3245 31.7049 29.0654 31.1781 28.4091C30.9286 28.0955 30.7495 27.7319 30.6532 27.3429C30.5568 26.9539 30.5453 26.5488 30.6196 26.155C30.8902 23.7915 33.1501 22.2917 33.9331 21.808C34.8802 21.2323 36.2851 20.6191 36.3916 20.6565C36.4463 20.6795 36.4722 20.763 36.3254 20.8494" fill="#ED6C00"/>
<path fill-rule="evenodd" clip-rule="evenodd" d="M43.2745 37.719C43.3205 37.8284 43.3752 37.8342 43.4299 37.9292C43.4069 38.0012 43.3666 38.0789 43.3407 38.1537C43.3004 38.2747 43.3234 38.2919 43.2169 38.3754C43.0816 38.1969 43.1133 37.886 43.0442 37.6989C42.9204 37.3506 42.5605 37.411 42.5346 37.6413C42.5202 37.8112 42.7333 37.958 42.8657 38.3236C42.9521 38.525 42.9633 38.7508 42.8974 38.9598C42.7736 39.3024 42.3792 39.5874 42.097 39.8234C41.7717 40.0825 42.097 40.2812 42.2986 40.2034C42.4241 40.1476 42.5354 40.0639 42.6239 39.9587C42.7707 39.8062 43.0211 39.3485 43.1046 39.4348C43.1881 39.5212 43.0672 39.3571 43.1248 39.4578C43.1507 39.501 43.1248 39.5557 43.1392 39.6075C43.1382 39.7377 43.0992 39.8648 43.0269 39.9731L42.3907 40.6525C42.313 40.7159 42.2381 40.7475 42.2295 40.8166C42.2611 40.8166 42.2295 40.8166 42.2727 40.7994L42.3043 40.7763C42.4054 40.6904 42.5344 40.6443 42.667 40.6468C42.7928 40.6211 42.9118 40.5694 43.0164 40.495C43.121 40.4207 43.2089 40.3253 43.2745 40.215C43.6199 39.74 43.5048 39.596 43.4414 39.17C43.424 39.0748 43.424 38.9773 43.4414 38.8821L43.8013 38.1422C43.902 37.9177 44.0546 37.7968 43.8013 37.65C43.7633 37.6256 43.7207 37.6092 43.6762 37.6018C43.6316 37.5944 43.5861 37.5961 43.5422 37.6068C43.449 37.64 43.3585 37.6804 43.2716 37.7277" fill="#ED6C00"/>
<path fill-rule="evenodd" clip-rule="evenodd" d="M43.87 38.9619C43.8326 38.9763 43.9046 38.9302 43.8125 38.9821C43.7946 38.9912 43.7781 39.0028 43.7635 39.0166C43.7307 39.0461 43.6999 39.0778 43.6714 39.1116C43.1993 39.6499 43.9938 39.4628 44.3335 39.5002C44.3738 39.5002 44.3969 39.5002 44.4372 39.5002C44.82 39.5319 44.8287 39.6298 44.9093 39.3217C44.9582 39.1346 44.7337 38.9648 44.6934 38.9302C44.5149 38.7719 44.5869 38.6884 44.3019 38.7517C44.2265 38.7775 44.1533 38.8092 44.0831 38.8467C43.8643 38.9245 43.9708 38.9245 43.87 38.959" fill="#ED6C00"/>
<path d="M38.2214 40.9802C38.236 40.963 38.2477 40.9436 38.2559 40.9226C38.2905 40.8132 38.4373 40.7326 38.515 40.5628C38.515 40.5484 38.5438 40.5196 38.515 40.5196C38.4863 40.5196 38.2272 40.77 38.2272 40.7816L38.1984 40.8046C38.1946 40.7312 38.1859 40.6581 38.1725 40.5858V40.5282C38.1725 40.5138 38.1725 40.5081 38.1897 40.4994C38.1897 40.4994 38.1897 40.4994 38.2041 40.485C38.2145 40.473 38.2273 40.4632 38.2416 40.4562L38.279 40.4361L38.3279 40.4131L38.3826 40.39C38.6216 40.2259 38.4229 40.1799 38.42 40.1799C38.3293 40.1664 38.2366 40.1783 38.1523 40.2144C38.1523 40.2144 38.1206 40.1856 38.1206 40.1713C38.119 40.1617 38.119 40.152 38.1206 40.1425C38.1206 40.1425 38.1206 39.9467 38.1062 39.9266V39.8402C38.1084 39.8372 38.1095 39.8337 38.1095 39.8301C38.1095 39.8265 38.1084 39.823 38.1062 39.82C38.1062 39.7279 38.1062 39.6876 38.017 39.6416C37.9536 39.6114 37.8843 39.5957 37.8141 39.5957C37.7438 39.5957 37.6745 39.6114 37.6111 39.6416C37.5449 39.6905 37.5449 39.7337 37.5766 39.8085V39.8258L37.5938 39.8575L37.6946 40.3238C37.6946 40.3238 37.6946 40.3238 37.6946 40.3411C37.693 40.3545 37.693 40.368 37.6946 40.3814C37.6932 40.4044 37.6932 40.4275 37.6946 40.4505C37.6972 40.4589 37.6972 40.468 37.6946 40.4764C37.6234 40.5311 37.5494 40.582 37.4729 40.629C37.4269 40.6606 37.3981 40.7096 37.3578 40.7412C37.3124 40.7658 37.2652 40.787 37.2167 40.8046C37.2167 40.8046 37.1879 40.8046 37.1793 40.8305L37.1562 40.8506C37.1562 40.8506 37.1562 40.8823 37.1562 40.8852C37.2138 40.8852 37.2081 41.0435 37.2858 41.0349L37.3463 41.055H37.3923C37.4447 41.0191 37.4938 40.9786 37.5391 40.9341C37.5948 40.8827 37.6579 40.84 37.7263 40.8075C37.7284 40.8087 37.7309 40.8094 37.7334 40.8094C37.736 40.8094 37.7385 40.8087 37.7406 40.8075L37.7637 40.7931C37.7637 40.7931 37.7637 40.8276 37.7637 40.8449C37.7637 40.8622 37.7982 41.0925 37.7953 41.1126C37.7925 41.1328 37.7953 41.1356 37.7953 41.1472C37.7967 41.1503 37.7974 41.1538 37.7974 41.1572C37.7974 41.1607 37.7967 41.1641 37.7953 41.1673L37.7781 41.1875L37.3865 41.6797C37.3809 41.6878 37.3728 41.6939 37.3635 41.697C37.3635 41.697 37.3491 41.72 37.3405 41.7258C37.3405 41.7258 37.3405 41.7258 37.3232 41.7402C37.2899 41.7822 37.2672 41.8315 37.257 41.8841C37.257 41.9331 37.3117 41.9647 37.3232 42.0166C37.3307 42.0442 37.3479 42.0682 37.3717 42.0841C37.3956 42.1 37.4244 42.1067 37.4528 42.1029C37.4934 42.0971 37.5309 42.0778 37.5593 42.0482C37.5593 42.0482 37.6888 41.7287 37.6917 41.72C37.7652 41.7653 37.8297 41.8239 37.8817 41.8928C37.9021 41.9174 37.9173 41.9459 37.9262 41.9766C37.9351 42.0073 37.9376 42.0395 37.9335 42.0712C37.9298 42.0936 37.9309 42.1165 37.9368 42.1384C37.9428 42.1603 37.9533 42.1807 37.9678 42.1982C37.9822 42.2157 38.0003 42.2298 38.0207 42.2397C38.0411 42.2496 38.0634 42.255 38.0861 42.2555C38.2272 42.2555 38.374 42.0482 38.3366 41.8179C38.3219 41.744 38.3151 41.6687 38.3164 41.5934C38.3178 41.5742 38.3178 41.555 38.3164 41.5358V41.5099C38.3178 41.4878 38.3178 41.4657 38.3164 41.4437C38.3164 41.4437 38.2559 41.0003 38.2531 40.9946C38.2547 40.9851 38.2547 40.9753 38.2531 40.9658M37.9652 41.6682C37.9638 41.6941 37.9638 41.7201 37.9652 41.7459C37.8987 41.7064 37.827 41.6764 37.7522 41.6567C37.7522 41.6567 37.9105 41.3688 37.9162 41.3544C37.9162 41.3544 37.9652 41.6596 37.9623 41.6769" fill="#ED6C00"/>
<path d="M39.3598 41.2202C39.3598 41.2202 39.4548 41.5081 39.4577 41.5081C39.4606 41.5081 39.5585 41.5599 39.5614 41.5599H39.5902H39.6132C39.6198 41.5615 39.6267 41.5615 39.6333 41.5599C39.6333 41.5599 39.8809 41.6635 40.0479 41.7096C40.136 41.7347 40.2269 41.7492 40.3185 41.7528H40.3559C40.3599 41.7508 40.3644 41.7497 40.3689 41.7497C40.3734 41.7497 40.3778 41.7508 40.3818 41.7528C40.3962 41.7528 40.5114 41.7528 40.5171 41.6751C40.5171 41.6751 40.5171 41.6578 40.5373 41.6492C40.5477 41.6016 40.5686 41.5571 40.5985 41.5187C40.6284 41.4803 40.6665 41.4492 40.71 41.4275C40.7877 41.3814 40.8942 41.3498 40.8827 41.3152C40.8367 41.1511 40.3214 41.1885 40.307 41.1914L39.593 41.1367L39.3311 41.1828" fill="#ED6C00"/>
<path d="M40.0019 41.282L40.1603 41.2532C40.0039 41.2416 39.8488 41.2166 39.6968 41.1783C39.6968 41.1783 39.9617 40.6659 39.9645 40.6659C39.9767 40.6449 39.983 40.6211 39.983 40.5968C39.983 40.5726 39.9767 40.5487 39.9645 40.5277C39.9494 40.4914 39.9223 40.4613 39.8878 40.4425C39.8532 40.4236 39.8133 40.4171 39.7745 40.4241C39.7745 40.4241 39.5413 40.5248 39.5241 40.5364H39.478H39.4607H39.4463C39.4459 40.5306 39.4459 40.5248 39.4463 40.5191C39.4463 40.5191 39.4233 40.3579 39.4233 40.3435C39.4086 40.2996 39.4086 40.2521 39.4233 40.2082C39.6093 40.1008 39.8016 40.0046 39.9991 39.9203C40.1459 39.7677 40.0451 39.7303 39.9703 39.6065C39.9444 39.5576 39.8551 39.572 39.6824 39.6065C39.6565 39.6065 39.3945 39.7332 39.3945 39.7361V39.7188C39.3945 39.7188 39.3485 39.4309 39.3398 39.4165C39.3312 39.4021 39.3024 39.333 39.1642 39.3244C39.1249 39.3216 39.0855 39.3216 39.0462 39.3244C39.0174 39.3244 38.9569 39.3647 38.9339 39.3676C38.9196 39.3732 38.9066 39.3817 38.8957 39.3926C38.8848 39.4035 38.8762 39.4166 38.8706 39.4309C38.8706 39.4309 38.8706 39.4309 38.8706 39.4482C38.8706 39.4654 38.8706 39.4482 38.8706 39.4626C38.8802 39.4666 38.8883 39.4734 38.894 39.4822C38.8996 39.4909 38.9025 39.5011 38.9023 39.5115C38.9023 39.5345 38.9685 39.9721 38.9685 39.9894C38.9729 40.0103 38.9729 40.0318 38.9685 40.0527C38.9685 40.0671 38.9685 40.0758 38.9685 40.0873C38.9714 40.0947 38.9714 40.1029 38.9685 40.1103H38.9541C38.9541 40.1103 38.6806 40.378 38.6662 40.3982H38.646H38.6115C38.5539 40.4126 38.5424 40.4874 38.5395 40.4932C38.5374 40.4961 38.5363 40.4996 38.5363 40.5033C38.5363 40.5069 38.5374 40.5104 38.5395 40.5133V40.5421C38.5395 40.5421 38.5683 40.6342 38.6259 40.6141C38.7295 40.5824 38.7612 40.6544 38.8245 40.5997C38.8579 40.5646 38.8887 40.527 38.9166 40.4874C38.9339 40.4701 38.9742 40.4097 38.9915 40.3953C38.9915 40.3953 39.0203 40.6342 39.0232 40.64C39.026 40.6458 39.0232 40.6544 39.0232 40.7148C39.0232 40.8933 38.6173 41.0171 38.5971 41.02C38.577 41.0229 38.5424 41.0344 38.623 41.0805C38.7136 41.129 38.8105 41.1648 38.9109 41.187C38.9746 41.2045 39.0364 41.2286 39.0951 41.2589C39.0951 41.2589 39.1124 41.2589 39.121 41.2589V41.2733V41.2906C39.0923 41.3292 39.0561 41.3616 39.0145 41.3858C38.973 41.4101 38.927 41.4257 38.8792 41.4317H38.8619C38.8447 41.4317 38.2862 41.3798 38.2862 41.3798C38.269 41.3814 38.2516 41.3814 38.2344 41.3798V41.4317L38.2862 41.4461C38.3006 41.4461 38.528 41.5094 38.5424 41.5065C38.5424 41.5065 38.8303 41.6159 38.8303 41.6188C38.8303 41.6188 38.8447 41.6188 38.8504 41.6188C38.8562 41.6188 38.8332 41.6188 38.8274 41.6188C38.8082 41.6172 38.789 41.6172 38.7698 41.6188C38.7698 41.6188 38.7842 41.6188 38.79 41.6332H38.8073L38.9051 41.6908H38.9598C38.9693 41.6882 38.9792 41.6882 38.9886 41.6908C38.9886 41.6908 39.003 41.7051 39.0088 41.6908C39.046 41.7068 39.0866 41.7138 39.1271 41.7113C39.1676 41.7088 39.2069 41.6968 39.242 41.6764C39.2981 41.6336 39.3459 41.5809 39.383 41.5209C39.383 41.5209 39.4636 41.3655 39.4723 41.3597C39.4817 41.3624 39.4916 41.3624 39.501 41.3597C39.501 41.3597 40.0538 41.3914 40.0998 41.4029L40.0019 41.282ZM39.3485 41.043L39.2822 41.1294C39.2232 41.14 39.1628 41.14 39.1038 41.1294C39.1038 41.1294 39.0001 41.1092 39.0232 41.0891C39.1551 41.0032 39.2926 40.9262 39.4348 40.8588C39.4579 40.8588 39.4204 40.9509 39.3485 41.0545" fill="#ED6C00"/>
<path fill-rule="evenodd" clip-rule="evenodd" d="M35.4846 40.1891C35.4784 40.1691 35.466 40.1516 35.4492 40.1391C35.4323 40.1267 35.4119 40.12 35.391 40.12C35.3701 40.12 35.3497 40.1267 35.3328 40.1391C35.316 40.1516 35.3036 40.1691 35.2974 40.1891C35.2514 40.3186 35.3176 40.2985 35.1881 40.3935C35.1357 40.4423 35.081 40.4884 35.024 40.5317C34.95 40.5681 34.8796 40.6115 34.8138 40.6612C34.8081 40.5295 34.8337 40.3982 34.8887 40.2783C35.0412 40.0797 34.9549 40.2409 35.0758 39.9905C35.1521 39.8332 35.1999 39.6636 35.2168 39.4895C35.2168 39.3715 35.2571 39.2794 35.26 39.1873C35.26 39.0433 35.142 38.7641 35.0297 38.7324C35.0065 38.8926 34.9949 39.0542 34.9952 39.2161C34.9773 39.3661 34.9514 39.515 34.9174 39.6623C34.8642 39.8866 34.785 40.104 34.6814 40.31C34.6411 40.3676 34.6497 40.3561 34.6094 40.3647C34.5317 40.2121 34.6612 40.1862 34.7217 40.1085C34.7821 40.0308 34.7217 39.9041 34.6181 39.8811C34.5751 39.8683 34.529 39.8711 34.4879 39.889C34.4468 39.9069 34.4134 39.9388 34.3935 39.9789C34.3432 40.0418 34.2841 40.0971 34.2179 40.143C34.1344 40.2121 34.1315 40.2927 34.0221 40.2927C33.9876 40.2265 34.0221 40.2524 33.9646 40.1286C33.9329 40.0567 33.9646 40.0394 33.9876 39.9588C34.0106 39.8782 33.9876 39.8839 33.9876 39.7918C33.9876 39.6997 33.9876 39.6421 33.9876 39.5759L33.9588 39.4924C33.9405 39.4517 33.9129 39.4159 33.8783 39.3877C33.8437 39.3595 33.803 39.3397 33.7594 39.3299C33.7159 39.3201 33.6706 39.3206 33.6273 39.3313C33.584 39.3421 33.5437 39.3627 33.5097 39.3917L33.4694 39.4291C33.4349 39.455 33.4694 39.4291 33.4262 39.4608C33.2506 39.622 33.2276 39.7486 33.1096 39.8292C32.996 39.9427 32.8758 40.0494 32.7497 40.1488C32.6778 40.2064 32.5309 40.3042 32.505 40.3762C32.5741 40.3762 32.5482 40.3589 32.6087 40.3532C32.7353 40.3388 32.6605 40.3676 32.7008 40.3877L32.9368 40.4108C33.0693 40.4108 33.2247 40.3071 33.3082 40.3071C33.3123 40.3089 33.3167 40.3099 33.3212 40.3099C33.3256 40.3099 33.33 40.3089 33.3341 40.3071C33.3406 40.3136 33.3485 40.3185 33.3571 40.3215C33.1268 40.4683 33.314 40.4395 33.0894 40.5604C32.98 40.618 33.0002 40.5892 32.9023 40.5835C32.785 40.6225 32.6722 40.6737 32.5655 40.7361C32.4472 40.7919 32.3238 40.8363 32.197 40.8685C32.0732 40.8685 32.0617 40.8454 31.9782 40.8167C31.7565 40.9894 31.8947 41.1535 31.9782 41.1736C32.1912 41.2226 32.6547 40.9807 32.8418 40.903C32.9081 40.8742 32.9743 40.8311 33.029 40.808C33.1729 40.7476 33.1729 40.7562 33.2132 40.7879C33.147 40.9044 33.0636 41.0102 32.9656 41.1017C32.8879 41.1477 32.8706 41.1477 32.8246 41.2456C32.7815 41.3145 32.7604 41.3948 32.7641 41.4759C32.8114 41.5404 32.8813 41.5846 32.9599 41.5997C33.0923 41.5997 33.0779 41.522 33.1758 41.4932C33.2161 41.5795 33.2103 41.6889 33.2564 41.7552C33.289 41.7914 33.3342 41.814 33.3828 41.8182C33.4315 41.8225 33.4799 41.8082 33.5184 41.7782L33.8321 40.9347C33.8638 40.8829 33.8321 40.9664 33.8638 40.8685C33.9156 40.6727 33.9732 40.6842 34.1517 40.4914C34.1949 40.4453 34.2927 40.3474 34.382 40.3561C34.382 40.5432 34.2524 40.6065 34.2006 40.7936C34.1488 40.9808 33.9934 40.9001 34.0164 41.2226C34.1574 41.2773 34.1517 41.3147 34.2668 41.2226C34.2992 41.187 34.3388 41.1588 34.383 41.1399C34.4272 41.121 34.475 41.1119 34.5231 41.1132C34.512 41.3645 34.4605 41.6124 34.3705 41.8473C34.2899 42.1351 34.4165 41.8991 34.2121 42.3194C34.097 42.5583 34.074 42.6303 34.2121 42.7195C34.2985 42.7742 34.5144 42.8145 34.5461 42.518L34.5864 41.9135C34.7089 41.6641 34.7757 41.391 34.7821 41.1132C34.7678 40.8915 34.9232 40.8656 35.1794 40.7245C35.3896 40.6094 35.6228 40.4367 35.4875 40.2035M34.4885 40.7994C34.4819 40.7839 34.4784 40.7673 34.4784 40.7504C34.4784 40.7336 34.4819 40.717 34.4885 40.7015C34.5087 40.6526 34.5259 40.6526 34.5835 40.6497C34.5634 40.7217 34.5691 40.7965 34.4943 40.7994" fill="#ED6C00"/>
<path fill-rule="evenodd" clip-rule="evenodd" d="M31.4941 39.3276C31.3646 39.0598 31.0968 39.0397 30.8521 38.9044C30.7341 38.8468 30.7773 38.8238 30.6794 38.795C30.621 38.7895 30.5622 38.7895 30.5038 38.795C30.1496 38.7322 29.8011 38.6407 29.4617 38.5215C29.2174 38.4452 28.967 38.3903 28.7132 38.3574C28.6702 38.3649 28.6285 38.3785 28.5894 38.3977C28.5405 38.438 28.5894 38.5705 28.5894 38.5705C28.7799 38.6867 28.991 38.7649 29.2112 38.8008L29.8359 38.9303C29.9396 38.962 29.9453 38.9303 30.0259 38.9303C30.0959 38.936 30.1652 38.9475 30.2332 38.9649C30.1727 39.057 30.1209 39.0455 30.0346 39.0714C29.9482 39.0973 29.8993 39.1232 29.8158 39.1491L29.4646 39.1808C29.4403 39.1776 29.4162 39.1728 29.3926 39.1664C29.312 39.1664 29.3782 39.1664 29.3235 39.1664C29.1824 39.1664 29.0126 39.1865 28.8427 39.1664C28.5232 39.1462 28.5549 39.0512 28.4541 39.3708C28.9464 39.8688 28.9665 39.5435 29.1738 39.6845C29.194 39.8055 29.1018 39.7421 29.2256 39.9955C29.3753 40.3006 29.5423 40.1855 29.8446 40.148C29.9545 40.1309 30.0607 40.0949 30.1583 40.0415C30.4693 39.9091 30.7744 39.9149 30.8608 39.6327C30.8953 39.5291 30.8982 39.5521 30.8608 39.4658C30.8233 39.3794 30.7341 39.2239 30.7543 39.1549C31.1458 39.2355 31.353 39.7047 31.5143 39.3189M30.3627 39.5061L30.2908 39.5492C30.2159 39.5982 30.2764 39.5752 30.1871 39.6011H30.1699C30.0374 39.6356 30.0749 39.6817 29.882 39.6759C29.8158 39.6759 29.7985 39.6759 29.7035 39.5982L29.6747 39.5694C29.7783 39.4456 29.7265 39.5895 30.0777 39.532C30.1814 39.5176 30.167 39.4945 30.2649 39.4629C30.4606 39.3967 30.3368 39.3851 30.452 39.3995C30.452 39.4744 30.4318 39.4715 30.3771 39.5032" fill="#ED6C00"/>
<path fill-rule="evenodd" clip-rule="evenodd" d="M30.2174 38.0475C30.2082 38.1086 30.217 38.1709 30.2425 38.2271C30.2681 38.2833 30.3093 38.3309 30.3613 38.3642C30.56 38.5427 30.7759 38.8795 30.963 38.8478C31.029 38.8344 31.0882 38.7982 31.1303 38.7456C31.1724 38.693 31.1947 38.6273 31.1933 38.5599C31.1892 38.4442 31.1586 38.331 31.1041 38.2289C31.0609 38.0907 30.9601 38.0475 30.8507 37.941C30.6521 37.751 30.5082 37.7049 30.3153 37.8546L30.2174 38.0475Z" fill="#ED6C00"/>
</g>
<defs>
<clipPath id="clip0_53672_556372">
<rect width="121.059" height="30.4432" fill="white" transform="translate(21.3535 13.1758)"/>
</clipPath>
</defs>
</svg>
