<svg width="148" height="48" viewBox="0 0 148 48" fill="none" xmlns="http://www.w3.org/2000/svg">
<path d="M6.58789 0.5H141.218C144.58 0.5 147.306 3.22561 147.307 6.58789V41.4121C147.306 44.7744 144.58 47.5 141.218 47.5H6.58789C3.22573 47.4998 0.500186 44.7743 0.5 41.4121V6.58789C0.500186 3.22572 3.22572 0.500186 6.58789 0.5Z" fill="white"/>
<path d="M6.58789 0.5H141.218C144.58 0.5 147.306 3.22561 147.307 6.58789V41.4121C147.306 44.7744 144.58 47.5 141.218 47.5H6.58789C3.22573 47.4998 0.500186 44.7743 0.5 41.4121V6.58789C0.500186 3.22572 3.22572 0.500186 6.58789 0.5Z" stroke="#EAECF0"/>
<path fill-rule="evenodd" clip-rule="evenodd" d="M25.1082 8.18681C22.8457 8.61825 21.0649 9.35094 19.0869 10.6639C15.8282 12.8271 13.459 16.1553 12.383 20.0809C11.8694 21.9547 11.873 25.9683 12.3901 27.8674C13.9813 33.713 18.2428 37.9951 24.0039 39.5374C25.6313 39.9732 28.5825 40.1338 30.2354 39.877C34.6132 39.1963 38.4884 36.8272 41.0266 33.2799C42.0212 31.8899 43.1168 29.5009 43.5455 27.7877C44.0618 25.7246 44.0618 22.2584 43.5455 20.1953C42.1373 14.5675 37.741 10.0553 32.1682 8.51784C30.2702 7.99424 26.9372 7.83796 25.1082 8.18681ZM29.6851 8.44529C39.3491 9.65703 45.5604 18.8517 43.0199 28.1853C41.4744 33.8639 36.7879 38.1635 30.8022 39.3942C29.4415 39.674 26.1909 39.6365 24.8099 39.325C18.4431 37.8893 13.8987 33.2511 12.563 26.8257C12.3031 25.5751 12.3031 22.4079 12.563 21.1573C13.2076 18.0563 14.5008 15.5136 16.5444 13.3289C18.8675 10.8455 21.9861 9.13942 25.1429 8.62522C27.4996 8.24122 27.9233 8.22438 29.6851 8.44529ZM24.0356 10.175C23.9878 10.4249 24.021 10.6741 24.1094 10.7287C24.1992 10.7842 24.1511 10.8738 24.0005 10.9316C23.542 11.1075 23.4333 11.0498 23.4333 10.6302C23.4333 10.4075 23.3502 10.2253 23.2487 10.2253C23.1217 10.2253 23.0929 10.5036 23.156 11.1161C23.2082 11.6217 23.1829 12.0068 23.0977 12.0068C23.015 12.0068 22.9474 11.8975 22.9474 11.7639C22.9474 11.318 22.6612 11.5142 22.5885 12.0099C22.4752 12.7821 22.8328 12.9186 23.352 12.3016C23.7794 11.7935 23.8003 11.7872 24.0244 12.0938C24.2233 12.3656 24.2774 12.3761 24.4089 12.168C24.4931 12.0349 24.5631 11.8348 24.5645 11.7234C24.5658 11.6121 24.6348 11.521 24.7177 11.521C24.8007 11.521 24.8596 11.1566 24.8488 10.7112C24.8379 10.2658 24.7761 9.90142 24.7113 9.90142C24.6465 9.90142 24.4874 9.86077 24.3579 9.81105C24.1959 9.74886 24.0954 9.86239 24.0356 10.175ZM130.111 10.1753C129.984 10.4255 129.828 10.9191 129.764 11.2724C129.7 11.6256 129.539 12.1247 129.407 12.3813C129.215 12.7513 129.092 12.8257 128.813 12.7403C126.89 12.1528 126.459 12.3905 126.942 13.7738C127.1 14.2279 127.079 14.3404 126.773 14.666C126.58 14.8708 126.408 15.244 126.389 15.4952C126.339 16.1725 126.955 16.2922 127.859 15.7805L128.552 15.388L129.037 15.7961C129.639 16.3024 129.932 16.2041 130.113 15.4361C130.244 14.8799 130.297 14.8378 130.93 14.7915C131.792 14.7285 132.303 14.9897 132.236 15.4594C132.184 15.8267 132.186 15.8264 130.942 15.626L130.345 15.5302L130.375 16.5403C130.411 17.7632 130.237 17.9339 129.128 17.7676C128.529 17.6777 128.332 17.5698 128.218 17.2691C128.137 17.0579 127.928 16.8081 127.752 16.7139C127.493 16.5757 127.337 16.6221 126.941 16.9552C126.672 17.1819 126.138 17.4579 125.756 17.5684C125.064 17.7679 125.059 17.7744 124.966 18.6535C124.915 19.1398 124.818 19.7285 124.752 19.9617C124.653 20.3088 124.71 20.4486 125.07 20.731C125.329 20.9354 125.742 21.0763 126.081 21.0763C126.395 21.0763 126.603 21.1257 126.543 21.1859C126.397 21.3319 123.103 22.6179 121.582 23.1229C120.539 23.4692 120.125 23.5189 118.582 23.4831C117.598 23.4601 116.713 23.4906 116.615 23.5506C116.518 23.6107 116.474 23.843 116.517 24.0668C116.598 24.4905 116.888 24.7033 118.636 25.6191C119.61 26.1298 119.698 26.1469 120.389 25.9623C120.788 25.8554 121.512 25.514 121.998 25.2036C123.147 24.4688 128.41 21.8861 128.759 21.8861C129.535 21.8861 128.65 22.8272 127.181 23.5626C126.503 23.9026 125.87 24.3246 125.776 24.5003C125.682 24.6761 125.628 25.1925 125.657 25.6481C125.704 26.4203 125.675 26.4956 125.221 26.7643C124.943 26.9287 124.074 27.1315 123.196 27.2364C121.744 27.41 120.441 27.8149 120.229 28.1579C120.11 28.3494 120.701 29.5028 121.066 29.7929C121.435 30.0863 122.136 29.9509 123.933 29.2398C124.761 28.9118 125.547 28.6851 125.679 28.7356C126.02 28.8665 126.202 30.0865 125.929 30.4148C125.754 30.6256 125.474 30.6577 124.397 30.5905L123.08 30.5082L123.237 31.1274C123.49 32.1252 123.762 32.2622 125.867 32.4536C127.305 32.5845 127.793 32.579 127.942 32.4305C128.066 32.3069 128.166 31.4296 128.218 30.0168L128.299 27.7974L128.912 27.4978C129.281 27.3175 129.967 27.1805 130.636 27.1536C131.247 27.1292 131.827 27.0592 131.926 26.9983C132.497 26.6451 131.637 25.5521 130.806 25.5757C130.532 25.5835 129.994 25.7101 129.608 25.8574C129.223 26.0046 128.734 26.1005 128.522 26.0703C128.199 26.0247 128.129 25.9106 128.089 25.3613C128.045 24.7611 128.085 24.6853 128.575 24.4503C129.524 23.9947 130.868 22.8882 131.821 21.7766C132.794 20.6437 132.898 20.3645 132.533 19.8665C132.32 19.5753 132.273 19.5763 130.873 19.9037C130.074 20.0908 129.369 20.1792 129.29 20.1026C129.045 19.8663 129.308 19.4885 130.032 19.0332C130.415 18.7927 131.192 18.1723 131.759 17.6547C132.424 17.0464 133.111 16.5926 133.7 16.3723C135.077 15.8573 135.067 15.8741 134.941 14.2825C134.808 12.6041 134.598 12.0878 134.049 12.0878C133.747 12.0878 133.558 12.2549 133.27 12.7761L132.89 13.4644H131.931C131.403 13.4644 130.971 13.4251 130.971 13.377C130.971 13.3289 131.271 13.004 131.638 12.655C132.386 11.944 132.396 11.6912 131.727 10.4683C131.444 9.95147 131.268 9.81024 130.857 9.7704C130.43 9.72894 130.302 9.79842 130.111 10.1753ZM32.4747 10.5803C32.4363 10.8511 32.299 10.9682 31.9764 11.0053C31.4395 11.0672 31.3877 11.3145 31.8954 11.3922C32.2414 11.4452 32.2352 11.4619 31.774 11.721L31.2881 11.9939L31.7239 12.0004C31.9636 12.0039 32.2109 11.9241 32.2734 11.8229C32.3491 11.7006 32.4802 11.7621 32.6647 12.0068C32.8333 12.2303 32.9838 12.3077 33.0479 12.2039C33.106 12.1098 33.0435 11.9229 32.9091 11.7885C32.6001 11.4795 32.5998 11.359 32.9076 11.359C33.0413 11.359 33.1506 11.2861 33.1506 11.1971C33.1506 11.108 33.0785 11.0351 32.9906 11.0351C32.9025 11.0351 32.8479 10.8791 32.8691 10.6885C32.9217 10.2161 32.5411 10.1116 32.4747 10.5803ZM24.0811 11.332C24.0811 11.5428 23.8885 11.6831 23.7319 11.5864C23.5645 11.4829 23.7089 11.1971 23.9287 11.1971C24.0126 11.1971 24.0811 11.2578 24.0811 11.332ZM24.7694 11.8854C24.8063 11.9968 24.9741 12.1144 25.1421 12.1469C25.4062 12.1981 25.4182 12.1709 25.2303 11.9445C24.9735 11.635 24.6732 11.5964 24.7694 11.8854ZM82.7456 12.2077C82.3118 12.415 82.1471 12.9413 82.2886 13.669C82.3448 13.9573 82.4347 14.5356 82.4885 14.9541L82.5863 15.7148L81.3617 16.3208C80.4462 16.7738 80.1118 17.0279 80.0366 17.3275C79.8489 18.0751 81.3122 18.845 81.8665 18.2907C82.0177 18.1396 82.0609 18.2241 82.0609 18.6714C82.0609 19.1367 81.8125 20.187 81.6536 20.3933C81.6341 20.4186 81.3551 20.1762 81.0335 19.8545C80.6972 19.5183 80.327 19.293 80.1628 19.3248C79.7616 19.402 79.4507 20.1373 79.3501 21.2465C79.2651 22.1839 79.2686 22.1939 79.7313 22.2974C80.7774 22.5316 80.786 22.5383 80.734 23.074C80.6909 23.5184 80.5066 23.7026 79.3482 24.4586C78.1149 25.2633 78.012 25.3721 78.012 25.8719C78.012 26.4793 78.4043 26.8312 79.2756 27.0055C79.5605 27.0625 79.7935 27.1614 79.7935 27.2256C79.7935 27.2895 79.5043 27.7726 79.1509 28.299C78.7975 28.8253 78.4877 29.438 78.4626 29.6604C78.4195 30.0413 78.4668 30.0677 79.2735 30.114L80.1301 30.1631L81.1502 29.1423C82.0041 28.2878 82.2316 27.9365 82.5466 26.9876C82.7534 26.3641 83.0386 25.7584 83.1802 25.6418C83.3217 25.525 83.9695 25.1791 84.6198 24.8728C86.0038 24.2211 86.2717 23.789 86.2717 22.2074C86.2717 21.2622 86.2518 21.2143 85.776 21.0143L85.2804 20.8058L85.8743 20.3528C86.3929 19.9572 86.9195 19.1116 86.9195 18.6745C86.9195 18.4068 85.7075 17.0287 85.4619 17.0174C85.3283 17.0112 85.7656 16.7353 86.4337 16.4042C87.5978 15.8275 87.6504 15.777 87.6994 15.1889C87.78 14.2167 87.5361 14.0557 86.1692 14.1796L85.0043 14.2852L84.8998 13.81C84.7761 13.2464 83.8963 12.2247 83.4375 12.1116C83.2594 12.0679 82.9481 12.111 82.7456 12.2077ZM25.0901 12.819C21.1117 13.8614 17.8086 17.1868 16.788 21.1772C16.3619 22.8437 16.3619 25.1393 16.788 26.8058C17.8169 30.8284 21.1311 34.1426 25.1537 35.1715C26.6554 35.5555 28.8534 35.5871 30.4783 35.2481C31.1018 35.1179 32.3042 34.6698 33.1501 34.2523C34.4242 33.6233 34.9283 33.2529 36.0863 32.0949C37.2639 30.9173 37.6003 30.4554 38.2189 29.1661C39.9073 25.6483 39.8942 22.1492 38.1801 18.7383L37.4424 17.2704L36.7946 17.3165C35.7548 17.3904 34.1804 18.2423 33.6769 19.0031C32.9609 20.085 32.9779 21.2577 33.7412 23.4301C34.7573 26.3222 34.5878 28.3994 33.2246 29.7626C32.8717 30.1155 32.7105 30.1458 31.1896 30.1458H29.5378L30.1517 29.5498C31.0011 28.7248 31.4329 27.6985 31.3095 26.798C31.1731 25.8038 30.861 25.2761 29.5131 23.761C27.9879 22.0469 27.7385 21.5669 27.7392 20.3475C27.7398 19.3061 28.0709 18.4792 28.8654 17.535L29.2925 17.0274H33.165C35.3557 17.0274 37.0375 16.9641 37.0375 16.8815C37.0375 16.8012 36.4823 16.2172 35.8039 15.5834C34.356 14.2313 32.2491 13.1044 30.4783 12.7348C28.8921 12.4039 26.5337 12.4407 25.0901 12.819ZM16.8213 14.487C16.4169 14.9175 16.3787 15.084 16.684 15.084C16.9619 15.084 17.6395 14.3649 17.4963 14.2217C17.3177 14.0429 17.1924 14.0922 16.8213 14.487ZM37.8094 14.3359C37.6549 14.4532 37.5679 14.5887 37.6161 14.637C37.7766 14.7975 38.3331 14.5641 38.3331 14.3362C38.3331 14.0588 38.1742 14.0586 37.8094 14.3359ZM38.9476 14.5576C38.8298 14.6993 38.8339 14.7601 38.9612 14.7601C39.0611 14.7601 39.1429 14.8336 39.1429 14.9233C39.1429 15.0202 39.0067 15.0036 38.8091 14.8828C38.5297 14.7123 38.4431 14.7225 38.2768 14.9461C38.0997 15.1844 38.0193 15.1886 37.5334 14.9842C37.2336 14.8582 36.9596 14.784 36.9243 14.8193C36.769 14.9745 37.4247 15.408 37.8183 15.4103C38.1597 15.4123 38.2003 15.4468 38.0092 15.5721C37.8756 15.6596 37.5476 15.6915 37.2804 15.6427L36.7946 15.5543L37.1994 15.9129C37.4646 16.1475 37.5065 16.236 37.3209 16.1686C36.9657 16.0398 36.9521 16.2692 37.2979 16.5561C37.5183 16.739 37.5899 16.7291 37.7632 16.4922C37.8848 16.3258 38.0751 16.2531 38.2316 16.3132C38.3772 16.3691 38.4951 16.3341 38.4951 16.235C38.4951 16.1364 38.4041 16.0471 38.2926 16.0366C38.1814 16.0261 38.3088 15.9673 38.5761 15.9061C38.8433 15.8448 39.0436 15.7077 39.0214 15.6013C38.9829 15.417 39.1714 15.3442 39.5667 15.3909C39.6662 15.4025 39.839 15.3018 39.9509 15.1671C40.1198 14.9635 40.1043 14.922 39.8591 14.922C39.6296 14.922 39.6072 14.8788 39.7583 14.7277C39.8652 14.6208 39.9527 14.4828 39.9527 14.4209C39.9527 14.2305 39.1261 14.3429 38.9476 14.5576ZM60.116 14.7638C59.7597 14.837 58.8852 15.1666 58.1726 15.4962C57.2342 15.9302 56.5785 16.1182 55.7946 16.1775L54.7124 16.2596L54.3775 17.038C54.1933 17.466 54.0427 17.8506 54.0427 17.8926C54.0427 18.0413 55.7165 19.1686 56.1744 19.3282C56.5812 19.47 56.7807 19.4064 57.7656 18.8214C58.4596 18.4091 59.406 18.0247 60.2326 17.8197C62.0276 17.3742 62.2002 17.2048 62.0914 15.9964C62.0443 15.474 61.945 14.9897 61.8706 14.9204C61.636 14.7013 60.788 14.6255 60.116 14.7638ZM75.2428 15.0435C74.8978 15.9474 74.6406 17.1777 74.2071 19.9983L73.7627 22.8881L74.1058 23.3589C74.2947 23.6177 74.6084 24.0482 74.8034 24.3152L75.1576 24.8011L74.7106 25.2677C74.1807 25.8208 72.96 26.5034 72.2221 26.6592C71.711 26.7672 71.696 26.7549 71.699 26.2312C71.7008 25.9346 71.7711 25.2183 71.8553 24.6393C72.0876 23.0421 71.7842 22.1951 70.9795 22.193C70.8337 22.1927 70.453 23.2392 70.0001 24.884C69.8772 25.3304 69.4796 26.2036 69.1167 26.8249C68.6933 27.5493 68.4567 28.1529 68.4567 28.5084C68.4567 29.2518 69.1262 30.102 70.0246 30.4993C71.0295 30.9439 71.6208 30.7165 72.7064 29.4683C73.1952 28.9065 73.8888 28.3231 74.3403 28.0943C74.7721 27.8756 75.4392 27.3827 75.823 26.9988C76.2069 26.615 76.7757 26.1066 77.0869 25.8692C77.9667 25.1982 77.9897 23.9915 77.1227 23.9915C76.4242 23.9915 76.5345 23.7017 77.5226 22.9415C78.6388 22.0827 78.8218 21.8093 78.8218 21.0008C78.8218 20.2255 78.4877 20.123 77.6876 20.6526C77.3354 20.8857 76.9869 21.0763 76.9128 21.0763C76.7527 21.0763 76.8285 18.5858 77.0422 16.8281C77.2189 15.3755 77.1639 15.1562 76.5428 14.8351C75.8379 14.4705 75.4369 14.5348 75.2428 15.0435ZM17.0578 15.06C16.7518 15.398 16.7052 15.7882 16.9817 15.696C17.2709 15.5995 17.6429 14.9657 17.4721 14.8603C17.3898 14.8093 17.2032 14.8992 17.0578 15.06ZM121.448 15.4484C121.325 15.7812 121.06 16.0641 120.727 16.2177C120.249 16.4387 120.198 16.5312 120.168 17.2464C120.131 18.108 119.872 19.0363 119.53 19.5334C119.05 20.2317 119.43 20.7524 120.422 20.7524C120.981 20.7524 121.494 20.2077 121.664 19.4326C121.743 19.0747 121.972 18.8193 122.495 18.509L123.217 18.0801L123.128 17.1448C123.02 16.0066 122.67 15.2838 122.126 15.077C121.902 14.9918 121.702 14.922 121.681 14.922C121.66 14.922 121.555 15.1588 121.448 15.4484ZM17.3744 15.9062C16.9041 16.465 16.8466 16.7035 17.182 16.7035C17.3684 16.7035 18.0888 15.7311 18.0888 15.4796C18.0888 15.2628 17.7411 15.4702 17.3744 15.9062ZM101.854 15.5449C101.689 15.6497 101.68 16.0405 101.81 17.4453C101.999 19.4814 101.832 21.0888 101.368 21.7104C101.104 22.0647 100.862 22.1442 99.5384 22.3117C97.8432 22.5263 96.2334 23.057 96.0821 23.4514C96.0279 23.5929 96.1155 23.9364 96.2771 24.2147C96.5414 24.6697 96.6796 24.735 97.6591 24.8677C98.6457 25.0011 98.7811 24.9839 99.1092 24.6842C99.9571 23.9089 101.175 23.5712 101.168 24.1129C101.154 25.2058 99.6202 26.8578 97.4639 28.1016C96.7536 28.5113 96.1319 28.912 96.0825 28.992C95.8831 29.3146 96.5048 29.5026 97.8756 29.5341C99.1313 29.563 99.3988 29.519 99.9174 29.1985C100.659 28.7402 101.667 27.6071 102.423 26.3823C102.776 25.8109 103.111 25.4491 103.287 25.4491C103.795 25.4491 104.613 26.3034 105.069 27.3085C105.574 28.4232 105.927 28.7967 106.676 29.0116C107.351 29.205 107.724 29.01 107.957 28.3435C108.308 27.3362 108.194 26.9392 107.285 25.9945C106.47 25.1475 106.388 25.1046 105.301 24.9572C103.614 24.7282 103.439 24.6688 103.439 24.3248C103.439 23.6515 104.219 23.0392 105.621 22.6116C107.06 22.1727 107.157 22.0688 107.162 20.9654C107.164 20.358 106.911 19.6187 106.7 19.6187C106.618 19.6187 106.197 19.9125 105.764 20.2717C104.744 21.1182 104.16 21.1163 104.182 20.2665C104.191 19.9548 104.297 19.1651 104.42 18.5116L104.643 17.3235L103.652 16.3657C102.698 15.4438 102.3 15.262 101.854 15.5449ZM26.3085 16.906C26.2633 17.042 25.7836 17.1238 24.8465 17.155C23.5107 17.1997 23.4338 17.2229 23.0299 17.7031C21.6108 19.3895 21.5583 21.4002 22.888 23.1435C23.1171 23.4438 23.977 24.1862 24.799 24.7932C26.6402 26.1529 27.1793 27.0932 26.6667 28.051C26.5323 28.3021 26.3232 28.3643 25.614 28.3643C24.6722 28.3643 24.602 28.3027 24.977 27.807C25.5293 27.0767 25.0682 25.7777 23.8787 24.713C23.4851 24.3607 22.7315 23.7011 22.2039 23.2473C20.371 21.6707 19.7908 19.6916 20.6652 17.9992C21.3562 16.6616 21.2497 16.7035 23.9577 16.7035C25.8197 16.7035 26.36 16.75 26.3085 16.906ZM85.0859 17.2535C85.0383 17.3779 84.9094 17.7795 84.7994 18.1462C84.6896 18.5129 84.4917 18.9024 84.3597 19.012C84.1584 19.1792 84.1352 19.1591 84.2167 18.8886C84.27 18.7111 84.3984 18.2199 84.502 17.7967C84.6219 17.3079 84.7785 17.0274 84.9317 17.0274C85.0713 17.0274 85.1363 17.1225 85.0859 17.2535ZM27.6475 18.2628C26.9315 19.3918 26.7342 20.4874 27.051 21.5771C27.2541 22.2754 27.5766 22.7566 28.6123 23.9065C30.0849 25.5417 30.3904 26.2368 30.0846 27.2573C29.9847 27.5909 29.7162 28.0857 29.4878 28.357C29.1036 28.8137 28.9948 28.8501 28.0173 28.8501C27.0714 28.8501 26.9749 28.8207 27.0886 28.5667C27.1586 28.4109 27.2447 27.9553 27.2802 27.5545C27.3699 26.5397 26.9356 25.9607 24.9722 24.4773C23.082 23.0494 22.4444 22.1724 22.3347 20.8499C22.2541 19.8767 22.5963 18.9208 23.3411 18.0396L23.786 17.5133H25.9544H28.1228L27.6475 18.2628ZM57.9523 19.6997C57.3019 20.0114 56.589 20.2665 56.3682 20.2665C55.8914 20.2665 54.6026 21.2881 54.2638 21.9347C54.0076 22.4233 54.0861 22.9221 54.4918 23.3842C54.8386 23.779 55.1545 23.7413 56.2066 23.1799C56.7091 22.9117 57.482 22.6147 57.924 22.52C58.9495 22.3 59.7077 21.7892 60.1074 21.0491C60.3926 20.5211 60.4019 20.4013 60.203 19.799C59.9212 18.9451 59.5602 18.9291 57.9523 19.6997ZM84.7851 21.6836C84.3723 22.6322 84.0447 23.0198 83.6553 23.0198C83.2945 23.0198 83.2898 22.9707 83.5961 22.3784C83.7825 22.0182 84.9048 20.9143 85.0849 20.9143C85.104 20.9143 84.9691 21.2604 84.7851 21.6836ZM59.2468 25.0539C58.5906 25.2776 57.8454 25.568 57.5912 25.6996C57.3367 25.8311 56.5993 26.1296 55.9527 26.363C55.306 26.5962 54.4121 27.0327 53.9666 27.3328C53.5209 27.6329 52.9732 27.8787 52.7492 27.879C52.4217 27.8795 52.2858 28.0167 52.0538 28.5813C51.895 28.9672 51.8095 29.3987 51.8638 29.5399C51.9882 29.864 52.7915 30.2489 53.8568 30.4948L54.6815 30.6852L55.7792 29.9375C56.383 29.5261 57.5589 28.7165 58.3923 28.1382C59.2258 27.5598 60.1368 27.0375 60.4168 26.9773C61.6067 26.7211 62.2887 26.1544 62.2972 25.4143C62.3074 24.5397 61.1561 24.4037 59.2468 25.0539ZM40.9244 25.4994C40.9244 25.6292 41.0883 25.7871 41.2888 25.8506C41.648 25.9643 41.6467 25.9685 41.2078 26.1437C40.9629 26.2414 40.7624 26.3879 40.7624 26.4694C40.7624 26.5509 40.8901 26.5614 41.0459 26.4929C41.2017 26.4244 41.6027 26.3361 41.9366 26.2966C42.6011 26.218 42.7767 25.9349 42.1609 25.9349C41.9502 25.9349 41.5858 25.7838 41.3511 25.5992C41.0234 25.3414 40.9244 25.3182 40.9244 25.4994ZM13.8451 25.5592C13.6933 25.5992 13.5249 25.7715 13.4708 25.9421C13.3511 26.3193 13.6153 26.8769 13.7842 26.6035C13.8462 26.5031 13.8198 26.4208 13.7256 26.4208C13.457 26.4208 13.5247 25.9808 13.8103 25.8713C14.237 25.7076 14.8497 25.761 14.8497 25.962C14.8497 26.0658 14.9043 26.0964 14.9708 26.0297C15.107 25.8935 14.5578 25.4387 14.2924 25.4679C14.198 25.4782 13.9968 25.5194 13.8451 25.5592ZM83.7537 26.6571C83.2777 27.7968 83.5141 28.3383 85.0214 29.5605C86.4108 30.6869 87.0119 30.8632 87.5674 30.3077C87.9118 29.9632 87.9949 29.1844 87.7382 28.7049C87.4566 28.1785 85.8132 26.901 84.8962 26.4953L83.989 26.0941L83.7537 26.6571ZM14.7687 26.4208C14.7136 26.5099 14.7459 26.5828 14.8401 26.5828C14.9344 26.5828 15.0116 26.5099 15.0116 26.4208C15.0116 26.3317 14.9796 26.2589 14.9402 26.2589C14.9009 26.2589 14.8238 26.3317 14.7687 26.4208ZM14.4043 27.0338C13.6595 27.28 13.4616 27.5582 14.1209 27.4322C14.425 27.3741 14.5258 27.4236 14.5258 27.6317C14.5258 27.7841 14.38 27.9469 14.2019 27.9934C14.0237 28.04 13.878 28.1503 13.878 28.2386C13.878 28.3267 14.0054 28.3486 14.1614 28.2868C14.3173 28.2251 14.6817 28.1349 14.9712 28.0863C15.2732 28.0357 15.4975 27.9011 15.4975 27.7705C15.4975 27.5958 15.4248 27.582 15.1843 27.7108C14.7488 27.9438 14.6877 27.9246 14.6877 27.5545C14.6877 27.2646 14.856 27.1548 15.2141 27.2115C15.2808 27.222 15.3355 27.1621 15.3355 27.0782C15.3355 26.8111 15.1103 26.8003 14.4043 27.0338ZM40.7101 26.8662C40.6708 26.9331 40.5879 27.2244 40.5257 27.514C40.433 27.9459 40.4623 28.0404 40.6884 28.0404C40.9267 28.0404 40.9338 28.0038 40.7417 27.7705C40.5401 27.5255 40.5718 27.5091 41.0864 27.5934C41.3981 27.6444 41.7534 27.7111 41.8759 27.7417C41.9983 27.7723 42.1353 27.6962 42.1804 27.5725C42.2252 27.4487 42.191 27.3912 42.1044 27.4448C42.0176 27.4985 41.6752 27.4674 41.3435 27.3759C40.8454 27.2382 40.7739 27.1689 40.9333 26.977C41.0587 26.8259 41.0659 26.7447 40.9537 26.7447C40.8591 26.7447 40.7493 26.7993 40.7101 26.8662ZM40.2766 28.4733C40.2766 28.5915 40.4042 28.6887 40.56 28.6891C40.7158 28.6898 41.0387 28.792 41.2775 28.9165C41.5936 29.0816 41.7308 29.0922 41.7828 28.956C41.8239 28.8482 41.5209 28.6613 41.0653 28.5137C40.4304 28.3082 40.2766 28.3005 40.2766 28.4733ZM15.1736 28.6299C14.9509 28.7484 14.6412 28.8464 14.4853 28.8477C14.3293 28.849 14.2019 28.9504 14.2019 29.073C14.2019 29.2566 14.3371 29.2498 14.9712 29.0338C15.9179 28.7112 15.9149 28.7131 15.7296 28.5486C15.6465 28.4749 15.3963 28.5115 15.1736 28.6299ZM25.5387 28.6882C25.5387 28.7806 25.0528 28.8501 24.405 28.8501C23.7572 28.8501 23.2713 28.7806 23.2713 28.6882C23.2713 28.5957 23.7572 28.5262 24.405 28.5262C25.0528 28.5262 25.5387 28.5957 25.5387 28.6882ZM29.9115 29.174C29.9115 29.2753 28.943 29.336 27.3298 29.336C25.7832 29.336 24.7079 29.271 24.6479 29.174C24.5827 29.0686 25.483 29.0121 27.2297 29.0121C28.9096 29.0121 29.9115 29.0727 29.9115 29.174ZM39.8722 29.3345C39.8158 29.5119 39.8153 29.7305 39.8707 29.8204C40.0087 30.0437 40.4933 30.0262 40.73 29.7895C40.8812 29.6384 40.9694 29.6427 41.1268 29.8097C41.2888 29.9814 41.2888 30.0392 41.1268 30.0985C41.0156 30.1393 40.9244 30.2484 40.9244 30.3411C40.9244 30.4426 41.0206 30.4295 41.1673 30.3077C41.4733 30.0538 41.4773 29.7551 41.1782 29.507C40.9961 29.3559 40.8595 29.371 40.5454 29.5768C40.2345 29.7806 40.1167 29.7943 40.02 29.6377C39.9499 29.5243 39.9787 29.4082 40.086 29.3726C40.3117 29.2973 40.3431 29.0121 40.1255 29.0121C40.0424 29.0121 39.9284 29.1572 39.8722 29.3345ZM15.2141 29.549C14.8354 29.7342 14.5258 29.9461 14.5258 30.0199C14.5258 30.0936 14.7409 30.0429 15.0035 29.907C15.6752 29.5596 15.7283 29.5943 15.3466 30.1302C14.8296 30.8563 14.9394 30.9865 15.7404 30.5973C16.1413 30.4025 16.4692 30.183 16.4692 30.1093C16.4692 30.0358 16.2386 30.0947 15.9568 30.2405L15.4444 30.5055L15.7868 29.9252C15.9749 29.6061 16.0781 29.3153 16.0158 29.2787C15.9534 29.2422 15.5927 29.3638 15.2141 29.549ZM27.3511 29.6191C26.1656 29.6468 24.2708 29.6466 23.1403 29.6189C22.0099 29.5911 22.9798 29.5684 25.2958 29.5686C27.6117 29.5686 28.5366 29.5914 27.3511 29.6191ZM26.4699 30.1049C25.0669 30.132 22.7712 30.132 21.3684 30.1049C19.9653 30.0781 21.1133 30.0559 23.9192 30.0559C26.725 30.0559 27.8728 30.0781 26.4699 30.1049ZM39.2326 30.6684C38.9898 31.015 39.0036 31.0411 39.5878 31.3384C39.9221 31.5086 40.2401 31.7169 40.2946 31.8011C40.349 31.8855 40.435 31.8461 40.4858 31.7138C40.5444 31.5611 40.458 31.4419 40.249 31.3873C40.0523 31.3358 39.9664 31.2262 40.0356 31.1143C40.0992 31.0114 40.2886 30.9633 40.4567 31.0072C40.6246 31.0511 40.8029 31.021 40.8528 30.9403C40.9027 30.8597 40.7649 30.7936 40.5464 30.7936C40.3279 30.7936 40.1073 30.6843 40.056 30.5506C39.9203 30.1966 39.5232 30.2535 39.2326 30.6684ZM32.6948 30.591C31.1525 30.6175 28.6746 30.6175 27.1884 30.5908C25.7021 30.5641 26.9639 30.5424 29.9925 30.5424C33.021 30.5424 34.2371 30.5643 32.6948 30.591ZM39.924 30.8475C39.9817 31.1449 39.8289 31.1879 39.4866 30.9711C39.2313 30.8096 39.3999 30.4204 39.6841 30.515C39.7873 30.5494 39.8952 30.699 39.924 30.8475ZM16.1048 31.164C15.6816 31.2467 15.3355 31.3844 15.3355 31.4699C15.3355 31.5553 15.4752 31.5808 15.6459 31.5268C16.037 31.4025 16.237 31.7026 15.9743 32.0193C15.8648 32.1511 15.8221 32.3058 15.8792 32.3631C15.9366 32.4203 16.0017 32.436 16.0239 32.3979C16.046 32.3597 16.3076 32.0643 16.6048 31.7413C16.902 31.4182 17.0842 31.1223 17.0097 31.0836C16.9352 31.0449 16.528 31.081 16.1048 31.164ZM33.9093 31.0768C32.3227 31.1034 29.7719 31.1032 28.2409 31.0767C26.7101 31.0501 28.0085 31.0284 31.1261 31.0284C34.2438 31.0286 35.4962 31.0503 33.9093 31.0768ZM16.5502 31.4414C16.4951 31.5305 16.3816 31.6034 16.2977 31.6034C16.2138 31.6034 16.1453 31.5305 16.1453 31.4414C16.1453 31.3523 16.259 31.2794 16.3978 31.2794C16.5366 31.2794 16.6053 31.3523 16.5502 31.4414ZM38.5401 31.6438C38.172 32.1198 38.2045 32.2301 38.8358 32.648C39.4652 33.0645 39.5052 33.0708 39.7186 32.7892C39.9805 32.4437 40.0196 32.0892 39.7957 32.0892C39.7096 32.0892 39.678 32.1911 39.7259 32.3158C39.8422 32.619 39.4869 32.8219 39.2516 32.5866C39.1103 32.4454 39.118 32.3666 39.283 32.2646C39.4511 32.1608 39.456 32.1017 39.304 32.0078C39.1939 31.9396 39.046 31.9838 38.9696 32.1077C38.8566 32.2904 38.7957 32.2922 38.6233 32.1174C38.452 31.9439 38.4711 31.8633 38.7285 31.6735C38.9014 31.5459 38.9649 31.4414 38.8698 31.4414C38.7746 31.4414 38.6263 31.5326 38.5401 31.6438ZM17.6685 32.6002C17.5995 32.7118 17.6238 32.7434 17.7286 32.6784C17.8253 32.6186 17.9456 32.6365 17.9961 32.7181C18.0465 32.7997 17.8343 33.089 17.5245 33.3609C17.2147 33.6328 17.0335 33.9 17.1217 33.9546C17.21 34.0092 17.4701 33.8304 17.6999 33.5573C18.1591 33.0116 18.4127 32.9247 18.4127 33.3134C18.4127 33.4522 18.4869 33.5201 18.5776 33.4641C18.6789 33.4014 18.6124 33.1795 18.4046 32.8877C18.0416 32.378 17.8517 32.3036 17.6685 32.6002ZM37.7679 32.5725C37.712 32.663 37.7316 32.737 37.8116 32.737C37.9684 32.737 38.3862 33.5476 38.2829 33.6509C38.2486 33.6853 38.0324 33.5653 37.8024 33.3842C37.5591 33.1931 37.3429 33.1217 37.2861 33.2138C37.1795 33.3862 38.4685 34.1132 38.617 33.9647C38.7178 33.8641 38.1859 32.6033 37.9922 32.4836C37.9248 32.442 37.8239 32.482 37.7679 32.5725ZM18.4575 34.1886C18.1736 34.5266 17.9863 34.848 18.0412 34.9027C18.0959 34.9576 18.2449 34.8536 18.3722 34.6718C18.5572 34.4078 18.6506 34.3799 18.8362 34.5341C19.0372 34.7009 19.0338 34.7654 18.8111 35.0115C18.6694 35.1681 18.6143 35.3337 18.6887 35.3797C18.8547 35.4823 19.8943 34.2725 19.7576 34.1358C19.7035 34.0819 19.5716 34.1577 19.4643 34.3044C19.341 34.4732 19.1633 34.5305 18.9808 34.4606C18.7091 34.3561 18.7083 34.3325 18.968 34.0453C19.1196 33.8778 19.1828 33.7034 19.1084 33.6574C19.0343 33.6116 18.7413 33.8505 18.4575 34.1886ZM36.7555 33.6646C36.6018 33.7183 36.6085 33.7888 36.7835 33.9638C36.9095 34.0898 37.1649 34.3865 37.3512 34.6233C37.5374 34.8601 37.7376 35.006 37.7962 34.9476C37.8547 34.8891 37.7543 34.6774 37.5731 34.4774C37.3918 34.2774 37.179 33.9967 37.1002 33.854C37.0211 33.7112 36.8661 33.6258 36.7555 33.6646ZM36.2229 34.5095C36.4085 34.8562 36.7165 35.0991 36.7084 34.8925C36.7013 34.7119 36.2975 34.1946 36.1637 34.1946C36.1035 34.1946 36.1302 34.3363 36.2229 34.5095ZM19.8321 35.218C19.5979 35.5824 19.4482 35.9483 19.4994 36.0312C19.5506 36.114 19.6861 36.008 19.8006 35.7956C20.0165 35.3949 20.0773 35.4525 20.2468 36.2191C20.2993 36.456 20.3236 36.4233 20.3374 36.0976C20.3489 35.8265 20.4475 35.6522 20.5895 35.6522C21.0981 35.6522 21.0707 35.0632 20.5469 34.736C20.3009 34.5823 20.1947 34.6539 19.8321 35.218ZM35.3685 34.784C35.3115 34.8408 35.4382 35.0932 35.6499 35.3448C35.8615 35.5963 36.0682 35.896 36.109 36.0106C36.15 36.1253 36.2415 36.1648 36.3126 36.0986C36.3835 36.0323 36.3317 35.8501 36.1974 35.6937C35.6878 35.1004 35.709 35.0072 36.2975 35.2532C36.9751 35.5363 37.083 35.5458 37.0064 35.3162C36.9745 35.2204 36.8953 35.1484 36.8302 35.156C36.7652 35.1638 36.4485 35.06 36.1262 34.9252C35.4466 34.6413 35.5009 34.6515 35.3685 34.784ZM20.6801 35.2569C20.6801 35.3853 20.5707 35.4903 20.4371 35.4903C20.1932 35.4903 20.1041 35.1484 20.2977 34.9548C20.4489 34.8037 20.6801 34.9863 20.6801 35.2569ZM34.7139 35.1145C34.6582 35.1704 34.7643 35.4618 34.95 35.7622C35.1497 36.0854 35.2432 36.4222 35.1789 36.5875C35.084 36.8317 35.0208 36.8097 34.6773 36.4124C34.4611 36.1625 34.2843 35.8467 34.2843 35.7107C34.2843 35.498 33.9422 35.4451 33.9325 35.6563C33.9231 35.8579 34.5533 36.7909 34.7502 36.8672C35.02 36.9715 35.4179 36.6696 35.4179 36.3606C35.4179 36.0318 34.8326 34.9958 34.7139 35.1145ZM51.4463 35.4148C51.1248 35.757 51.0466 36.0087 51.0466 36.701C51.0466 37.8814 51.4045 38.2764 52.4146 38.2106C53.0384 38.17 53.1599 38.1063 53.2038 37.7981C53.2603 37.3991 52.9524 37.2941 52.8104 37.6642C52.7 37.9521 52.3349 38.0997 52.0261 37.9811C51.48 37.7716 51.3371 36.1225 51.8139 35.5308C52.04 35.2501 52.6927 35.2768 52.8057 35.5712C52.9513 35.9507 53.2615 35.8561 53.2038 35.4498C53.1612 35.1506 53.035 35.0768 52.499 35.0373C51.9678 34.9983 51.7715 35.0685 51.4463 35.4148ZM54.1723 35.1988C54.4439 35.4704 54.4368 38.0263 54.1642 38.1363C54.0529 38.1811 54.2533 38.2179 54.6096 38.2179C54.9659 38.2179 55.1664 38.1811 55.0549 38.1363C54.9353 38.088 54.8525 37.758 54.8525 37.3294V36.6044L55.4598 36.6547C56.017 36.7007 56.0714 36.7493 56.1187 37.2418C56.147 37.5372 56.0835 37.8833 55.9774 38.0111C55.8176 38.2038 55.8641 38.2435 56.2498 38.2435H56.715V36.624V35.0044H56.2372C55.8657 35.0044 55.8027 35.0476 55.9538 35.1988C56.0607 35.3056 56.1481 35.6336 56.1481 35.9275C56.1481 36.4431 56.1253 36.462 55.5003 36.462C54.8753 36.462 54.8525 36.4431 54.8525 35.9275C54.8525 35.6336 54.94 35.3056 55.0468 35.1988C55.198 35.0476 55.1008 35.0044 54.6096 35.0044C54.1184 35.0044 54.0212 35.0476 54.1723 35.1988ZM57.8972 35.1988C58.1569 35.4584 58.1569 37.7895 57.8972 38.0492C57.7461 38.2003 57.8451 38.243 58.3426 38.2411C58.7618 38.2394 58.9067 38.1905 58.7631 38.0995C58.5974 37.9946 58.5577 37.5984 58.6011 36.4824L58.6584 35.0042H58.1807C57.8091 35.0044 57.7461 35.0476 57.8972 35.1988ZM59.8407 35.1988C60.1123 35.4704 60.1052 38.0263 59.8326 38.1363C59.7213 38.1811 59.876 38.2237 60.1763 38.2307C60.6291 38.2414 60.69 38.2045 60.5326 38.0147C60.4194 37.8781 60.3624 37.3843 60.3914 36.7906L60.4399 35.7951L61.1644 37.0193C61.5629 37.6927 61.9771 38.2435 62.0849 38.2435C62.2218 38.2435 62.2964 37.7549 62.3322 36.6236C62.3811 35.0732 62.3688 35.0038 62.0459 35.0041C61.7252 35.0044 61.7152 35.0549 61.8457 36.0097C61.9213 36.5626 61.9604 37.0834 61.9324 37.1671C61.9045 37.2507 61.5723 36.7984 61.194 36.1619C60.6166 35.1898 60.4375 35.0044 60.0764 35.0044C59.7419 35.0044 59.6896 35.0476 59.8407 35.1988ZM64.0038 36.2596C63.7576 36.9498 63.4547 37.6786 63.3305 37.8791C63.1164 38.2246 63.1287 38.2435 63.5663 38.2435C63.9892 38.2435 64.0217 38.202 63.9548 37.7466C63.8833 37.2585 63.893 37.2507 64.5079 37.3012C64.968 37.3391 65.1493 37.4334 65.1917 37.6572C65.2234 37.8247 65.1512 38.024 65.031 38.1002C64.8883 38.1907 65.0299 38.2394 65.4398 38.2411C65.9207 38.2428 66.029 38.1962 65.9041 38.0411C65.8146 37.9298 65.5482 37.201 65.3122 36.4215C65.0523 35.5627 64.7981 35.0044 64.6673 35.0044C64.5442 35.0044 64.2585 35.545 64.0038 36.2596ZM67.8089 35.4093C67.8089 35.8547 68.0444 35.9544 68.1914 35.5712C68.2426 35.4376 68.3961 35.3283 68.5327 35.3283C68.7356 35.3283 68.7806 35.5753 68.7806 36.6915C68.7806 37.6303 68.7176 38.0799 68.5782 38.1363C68.4669 38.1811 68.6635 38.2237 69.0154 38.2307C69.513 38.2406 69.6119 38.2003 69.4608 38.0492C69.3429 37.9312 69.2665 37.3581 69.2665 36.5916C69.2665 35.4601 69.2984 35.3283 69.5731 35.3283C69.7416 35.3283 69.9216 35.4376 69.9729 35.5712C70.1214 35.9583 70.4002 35.8526 70.4002 35.4093C70.4002 35.0112 70.3786 35.0044 69.1045 35.0044C67.8304 35.0044 67.8089 35.0112 67.8089 35.4093ZM71.2909 36.624V38.2435H71.756C72.1418 38.2435 72.1883 38.2038 72.0285 38.0111C71.9224 37.8833 71.8589 37.5372 71.8872 37.2418C71.9345 36.7493 71.9889 36.7007 72.5461 36.6547L73.1534 36.6044V37.3294C73.1534 37.758 73.0706 38.088 72.9509 38.1363C72.8397 38.1811 73.0365 38.2237 73.3882 38.2307C73.8857 38.2406 73.9847 38.2003 73.8336 38.0492C73.7165 37.9321 73.6392 37.3654 73.6392 36.624C73.6392 35.8825 73.7165 35.3158 73.8336 35.1988C73.9847 35.0476 73.8875 35.0044 73.3963 35.0044C72.9051 35.0044 72.8079 35.0476 72.959 35.1988C73.0659 35.3056 73.1534 35.6336 73.1534 35.9275C73.1534 36.4431 73.1306 36.462 72.5056 36.462C71.8806 36.462 71.8577 36.4431 71.8577 35.9275C71.8577 35.6336 71.9452 35.3056 72.0521 35.1988C72.2032 35.0476 72.1402 35.0044 71.7687 35.0044H71.2909V36.624ZM75.0159 36.624V38.2435H75.4936C75.8652 38.2435 75.9282 38.2003 75.7771 38.0492C75.6702 37.9423 75.5827 37.6507 75.5827 37.4013C75.5827 36.7091 76.0955 36.8138 76.535 37.5957C76.7663 38.007 77.0149 38.2435 77.2163 38.2435C77.5216 38.2435 77.5232 38.2267 77.2567 37.7981C77.1043 37.5532 76.878 37.2311 76.7538 37.0824C76.5577 36.8476 76.5721 36.7683 76.8652 36.4751C77.5725 35.7679 77.0118 35.0044 75.7852 35.0044H75.0159V36.624ZM78.4742 36.4824C78.5177 37.5984 78.478 37.9946 78.3123 38.0995C78.1785 38.1844 78.5505 38.2394 79.2672 38.2411C80.4124 38.2435 80.4413 38.2335 80.4413 37.8386C80.4413 37.6159 80.3685 37.4337 80.2794 37.4337C80.1903 37.4337 80.1174 37.543 80.1174 37.6767C80.1174 37.8464 79.9464 37.9196 79.5506 37.9196C79.0108 37.9196 78.9838 37.8925 78.9838 37.3527C78.9838 36.856 79.034 36.7859 79.3886 36.7859C79.6113 36.7859 79.7935 36.8632 79.7935 36.9574C79.7935 37.0517 79.8664 37.0839 79.9555 37.0288C80.1608 36.9019 80.1691 36.1381 79.965 36.1381C79.8812 36.1381 79.7676 36.211 79.7126 36.3C79.6575 36.3891 79.4711 36.462 79.2981 36.462C79.0468 36.462 78.9838 36.3483 78.9838 35.8952C78.9838 35.3677 79.0191 35.3283 79.4923 35.3283C79.7866 35.3283 80.0914 35.4477 80.2159 35.6117C80.4115 35.8694 80.4315 35.8547 80.4362 35.4498C80.4414 35.0109 80.4266 35.0044 79.4291 35.0042H78.4169L78.4742 36.4824ZM81.5426 35.1988C81.6597 35.3158 81.737 35.8825 81.737 36.624C81.737 37.3654 81.6597 37.9321 81.5426 38.0492C81.3915 38.2003 81.6074 38.2435 82.5144 38.2435C83.6502 38.2435 83.6804 38.233 83.6804 37.8386C83.6804 37.3932 83.445 37.2935 83.2979 37.6767C83.2435 37.8187 83.0007 37.9196 82.7137 37.9196C82.2607 37.9196 82.2229 37.8759 82.2229 37.3527C82.2229 36.9148 82.2893 36.7859 82.5144 36.7859C82.6747 36.7859 82.8933 36.8734 83.0002 36.9803C83.1513 37.1314 83.1946 37.0594 83.1946 36.6563C83.1946 36.3713 83.1217 36.1381 83.0326 36.1381C82.9435 36.1381 82.8707 36.211 82.8707 36.3C82.8707 36.3891 82.7249 36.462 82.5468 36.462C82.2846 36.462 82.2229 36.354 82.2229 35.8952C82.2229 35.372 82.2607 35.3283 82.7137 35.3283C83.0007 35.3283 83.2435 35.4292 83.2979 35.5712C83.445 35.9544 83.6804 35.8547 83.6804 35.4093C83.6804 35.0149 83.6502 35.0044 82.5144 35.0044C81.6074 35.0044 81.3915 35.0476 81.5426 35.1988ZM86.1925 35.3928C85.856 35.7293 85.7859 35.9544 85.7859 36.6976C85.7859 37.901 86.1269 38.2603 87.232 38.2211L88.0246 38.1931L88.0806 37.4896C88.1342 36.8154 88.1177 36.7859 87.6887 36.7859C87.2919 36.7859 87.2622 36.8204 87.4295 37.0884C87.654 37.4477 87.5197 37.8859 87.1409 38.0312C86.4861 38.2825 86.0265 36.804 86.4296 35.7437C86.5495 35.4289 86.7019 35.3283 87.0601 35.3283C87.3307 35.3283 87.5725 35.4321 87.626 35.5712C87.7716 35.9507 88.0817 35.8561 88.0241 35.4498C87.981 35.1471 87.8561 35.077 87.2857 35.0357C86.7296 34.9953 86.5223 35.063 86.1925 35.3928ZM89.5103 35.4098C89.0259 35.9254 88.9658 37.1524 89.3931 37.8049C89.7767 38.3909 90.7425 38.4239 91.2641 37.8687C91.7526 37.3485 91.7655 35.8736 91.286 35.3589C90.8238 34.8627 90.0022 34.8863 89.5103 35.4098ZM92.7175 35.1988C92.8346 35.3158 92.9119 35.8825 92.9119 36.624C92.9119 37.3654 92.8346 37.9321 92.7175 38.0492C92.5664 38.2003 92.6654 38.2406 93.1629 38.2307C93.5147 38.2237 93.7116 38.1811 93.6002 38.1363C93.4889 38.0913 93.3977 37.8056 93.3977 37.5013C93.3977 36.6928 93.9056 36.7467 94.2885 37.5957C94.5071 38.0807 94.6747 38.2435 94.9554 38.2435C95.3298 38.2435 95.3297 38.2427 94.8383 37.5147C94.3912 36.8521 94.3696 36.7626 94.6009 36.5313C94.9621 36.1703 94.9277 35.3785 94.5421 35.172C94.3698 35.0799 93.8451 35.0044 93.376 35.0044C92.7127 35.0044 92.5664 35.0476 92.7175 35.1988ZM96.3866 35.402C96.064 35.7245 95.989 35.9622 95.989 36.6615C95.989 37.9149 96.2734 38.2435 97.3585 38.2435H98.2238L98.2818 37.5147C98.3375 36.8126 98.3233 36.7859 97.8918 36.7859C97.495 36.7859 97.4654 36.8204 97.6327 37.0884C98.0591 37.7712 97.2772 38.3886 96.7735 37.7667C96.4404 37.3553 96.3665 36.1572 96.6425 35.6415C96.8553 35.2441 97.692 35.214 97.8395 35.5983C97.9148 35.7947 97.9917 35.8197 98.1213 35.6901C98.4695 35.3419 98.1362 35.0044 97.4443 35.0044C96.9593 35.0044 96.6786 35.1098 96.3866 35.402ZM99.3577 35.1988C99.4748 35.3158 99.552 35.8825 99.552 36.624C99.552 37.3654 99.4748 37.9321 99.3577 38.0492C99.2066 38.2003 99.4224 38.2435 100.329 38.2435C101.465 38.2435 101.495 38.233 101.495 37.8386C101.495 37.3932 101.26 37.2935 101.113 37.6767C101.059 37.8187 100.816 37.9196 100.529 37.9196C100.076 37.9196 100.038 37.8759 100.038 37.3527C100.038 36.9148 100.104 36.7859 100.329 36.7859C100.49 36.7859 100.708 36.8734 100.815 36.9803C100.966 37.1314 101.01 37.0594 101.01 36.6563C101.01 36.3713 100.937 36.1381 100.848 36.1381C100.759 36.1381 100.686 36.211 100.686 36.3C100.686 36.3891 100.54 36.462 100.362 36.462C100.1 36.462 100.038 36.354 100.038 35.8952C100.038 35.372 100.076 35.3283 100.529 35.3283C100.816 35.3283 101.059 35.4292 101.113 35.5712C101.26 35.9544 101.495 35.8547 101.495 35.4093C101.495 35.0149 101.465 35.0044 100.329 35.0044C99.4224 35.0044 99.2066 35.0476 99.3577 35.1988ZM102.722 35.2588C102.265 35.7157 102.407 36.2583 103.099 36.6947C103.808 37.1422 103.948 37.385 103.735 37.7981C103.539 38.1808 103.196 38.1547 102.797 37.727L102.467 37.3727V37.8169C102.467 38.2456 102.494 38.2595 103.233 38.2119C103.856 38.1718 104.034 38.0893 104.194 37.7678C104.442 37.2671 104.257 36.8993 103.514 36.4181C102.855 35.9907 102.727 35.3283 103.305 35.3283C103.498 35.3283 103.79 35.449 103.952 35.5963C104.232 35.8496 104.249 35.8407 104.249 35.4344C104.249 35.042 104.193 35.0044 103.612 35.0044C103.25 35.0044 102.867 35.1139 102.722 35.2588ZM106.516 36.3566C106.611 37.9449 106.792 38.2435 107.66 38.2435C108.52 38.2435 108.783 37.8242 108.783 36.4583C108.783 35.8458 108.866 35.3105 108.978 35.1988C109.129 35.0476 109.066 35.0042 108.694 35.0041L108.217 35.0036L108.268 36.3515C108.309 37.4065 108.266 37.744 108.073 37.9039C107.741 38.18 107.221 37.9904 107.103 37.5498C106.948 36.9731 106.988 35.6579 107.17 35.3176C107.317 35.0428 107.282 35.0044 106.886 35.0042L106.435 35.0041L106.516 36.3566ZM109.998 36.624C109.998 38.1355 110.02 38.2435 110.322 38.2437C110.609 38.2437 110.64 38.1539 110.591 37.4557C110.479 35.8432 110.582 35.7904 111.342 37.0706C111.724 37.7157 112.107 38.2435 112.192 38.2435C112.278 38.2435 112.346 37.6161 112.346 36.8183C112.346 35.9258 112.419 35.3205 112.541 35.1988C112.692 35.0476 112.616 35.0044 112.197 35.0044C111.751 35.0044 111.691 35.0436 111.85 35.2342C111.96 35.3665 112.019 35.8301 111.991 36.3274L111.942 37.1908L111.301 36.0976C110.841 35.3141 110.566 35.0044 110.329 35.0044C110.018 35.0044 109.998 35.1013 109.998 36.624ZM113.723 36.624V38.2435H114.201C114.572 38.2435 114.635 38.2003 114.484 38.0492C114.367 37.9321 114.29 37.3654 114.29 36.624C114.29 35.8825 114.367 35.3158 114.484 35.1988C114.635 35.0476 114.572 35.0044 114.201 35.0044H113.723V36.624ZM115.483 35.3688C115.609 35.5693 115.876 36.2981 116.077 36.9883C116.278 37.6786 116.532 38.2435 116.64 38.2435C116.749 38.2435 117.039 37.6786 117.285 36.9883C117.531 36.2981 117.834 35.5693 117.958 35.3688C118.174 35.0217 118.161 35.0044 117.7 35.0044C117.325 35.0044 117.237 35.0624 117.313 35.2595C117.436 35.5789 116.871 37.4901 116.705 37.3174C116.437 37.0386 116.107 35.358 116.285 35.1798C116.411 35.054 116.29 35.0044 115.857 35.0044C115.272 35.0044 115.261 35.0151 115.483 35.3688ZM118.954 35.1988C119.071 35.3158 119.149 35.8825 119.149 36.624C119.149 37.3654 119.071 37.9321 118.954 38.0492C118.803 38.2003 119.019 38.2435 119.926 38.2435C121.062 38.2435 121.092 38.233 121.092 37.8386C121.092 37.3932 120.857 37.2935 120.709 37.6767C120.655 37.8187 120.412 37.9196 120.125 37.9196C119.672 37.9196 119.634 37.8759 119.634 37.3527C119.634 36.9148 119.701 36.7859 119.926 36.7859C120.086 36.7859 120.305 36.8734 120.412 36.9803C120.563 37.1314 120.606 37.0594 120.606 36.6563C120.606 36.3713 120.533 36.1381 120.444 36.1381C120.355 36.1381 120.282 36.211 120.282 36.3C120.282 36.3891 120.136 36.462 119.958 36.462C119.696 36.462 119.634 36.354 119.634 35.8952C119.634 35.372 119.672 35.3283 120.125 35.3283C120.412 35.3283 120.655 35.4292 120.709 35.5712C120.857 35.9544 121.092 35.8547 121.092 35.4093C121.092 35.0149 121.062 35.0044 119.926 35.0044C119.019 35.0044 118.803 35.0476 118.954 35.1988ZM122.145 36.624V38.2435H122.622C122.994 38.2435 123.057 38.2003 122.906 38.0492C122.799 37.9423 122.712 37.6507 122.712 37.4013C122.712 36.6857 123.277 36.7987 123.683 37.5957C123.948 38.1141 124.102 38.243 124.456 38.2411C124.758 38.2393 124.83 38.1954 124.683 38.1024C124.565 38.0275 124.302 37.6904 124.099 37.3534C123.738 36.7559 123.736 36.7329 124.03 36.4393C124.724 35.745 124.129 35.0044 122.878 35.0044H122.145V36.624ZM125.552 35.3218C125.143 35.773 125.338 36.343 126.029 36.7146C126.669 37.0593 126.885 37.4936 126.592 37.8464C126.32 38.1743 125.99 38.1395 125.751 37.7576C125.477 37.3187 125.303 37.3502 125.303 37.8386C125.303 38.2095 125.363 38.2435 126.02 38.2435C126.803 38.2435 127.246 37.9419 127.246 37.4099C127.246 37.1025 127.034 36.8674 126.126 36.1666C125.871 35.9698 125.771 35.7713 125.838 35.5965C125.971 35.2477 126.695 35.249 126.829 35.5983C126.905 35.7947 126.982 35.8197 127.111 35.6901C127.209 35.5921 127.245 35.3978 127.192 35.2582C127.046 34.8774 125.914 34.9213 125.552 35.3218ZM128.186 35.1988C128.457 35.4704 128.45 38.0263 128.178 38.1363C128.066 38.1811 128.263 38.2237 128.615 38.2307C129.112 38.2406 129.211 38.2003 129.06 38.0492C128.943 37.9321 128.866 37.3654 128.866 36.624C128.866 35.8825 128.943 35.3158 129.06 35.1988C129.211 35.0476 129.114 35.0044 128.623 35.0044C128.132 35.0044 128.035 35.0476 128.186 35.1988ZM130 35.4093C130 35.8547 130.235 35.9544 130.382 35.5712C130.433 35.4376 130.587 35.3283 130.723 35.3283C130.926 35.3283 130.971 35.5753 130.971 36.6915C130.971 37.6303 130.908 38.0799 130.769 38.1363C130.658 38.1811 130.854 38.2237 131.206 38.2307C131.704 38.2406 131.803 38.2003 131.651 38.0492C131.534 37.9312 131.457 37.3581 131.457 36.5916C131.457 35.4601 131.489 35.3283 131.764 35.3283C131.932 35.3283 132.112 35.4376 132.164 35.5712C132.312 35.9583 132.591 35.8526 132.591 35.4093C132.591 35.0112 132.569 35.0044 131.295 35.0044C130.021 35.0044 130 35.0112 130 35.4093ZM133.648 35.9356C134.223 36.8894 134.364 37.7008 134.016 38.0492C133.865 38.2003 133.964 38.2406 134.461 38.2307C134.813 38.2237 135.01 38.1811 134.899 38.1363C134.501 37.9758 134.675 36.8823 135.251 35.9261L135.806 35.0044H135.3C134.925 35.0044 134.841 35.0517 134.975 35.1864C135.11 35.3213 135.09 35.5105 134.897 35.9152C134.754 36.216 134.59 36.462 134.534 36.462C134.478 36.462 134.315 36.216 134.172 35.9152C133.979 35.5105 133.958 35.3213 134.093 35.1864C134.228 35.0517 134.121 35.0044 133.681 35.0044H133.086L133.648 35.9356ZM21.3178 35.8385C21.2064 36.1075 21.0151 36.4277 20.8927 36.5501C20.7042 36.7388 20.7418 36.8096 21.1405 37.0157C21.5807 37.2433 21.8137 37.2157 21.8137 36.936C21.8137 36.8701 21.668 36.8544 21.4898 36.9009C21.2683 36.9589 21.1659 36.9059 21.1659 36.7334C21.1659 36.3977 21.4945 36.2076 21.6474 36.4549C21.7358 36.5979 21.7962 36.5793 21.8703 36.3862C21.9263 36.2404 21.9049 36.1627 21.8231 36.2132C21.5868 36.3593 21.4328 35.968 21.6443 35.7596C21.7901 35.6161 21.8908 35.6461 22.0675 35.8856C22.247 36.1287 22.2996 36.1438 22.2996 35.9522C22.2996 35.8158 22.1244 35.6244 21.9101 35.5267C21.5585 35.3665 21.5007 35.3968 21.3178 35.8385ZM76.5269 35.8775C76.5826 36.3651 76.3588 36.6171 75.8661 36.6215C75.6423 36.6235 75.5827 36.4856 75.5827 35.9654C75.5827 35.3424 75.6068 35.3095 76.0281 35.3581C76.3841 35.3989 76.4841 35.5034 76.5269 35.8775ZM90.9627 35.6415C91.2136 36.1104 91.1649 37.3124 90.8782 37.7215C90.5773 38.1512 90.3658 38.1726 89.969 37.8135C89.6203 37.498 89.5468 35.843 89.8671 35.5227C90.1646 35.2252 90.7754 35.2914 90.9627 35.6415ZM94.3414 35.7826C94.4059 36.2377 94.1123 36.624 93.7019 36.624C93.4542 36.624 93.3977 36.5017 93.3977 35.9654C93.3977 35.3424 93.4219 35.3095 93.8431 35.3581C94.1656 35.3952 94.3031 35.5123 94.3414 35.7826ZM123.683 35.6522C123.927 36.1076 123.623 36.624 123.111 36.624C122.753 36.624 122.712 36.5567 122.712 35.9761C122.712 35.3955 122.753 35.3283 123.111 35.3283C123.344 35.3283 123.582 35.4627 123.683 35.6522ZM64.7917 36.1786C64.9594 36.8049 64.906 36.9479 64.504 36.9479C64.1333 36.9479 64.1228 36.92 64.2881 36.381C64.4891 35.7266 64.6529 35.6606 64.7917 36.1786ZM22.5169 36.7313C22.2008 37.4135 22.1987 37.4549 22.4745 37.6026C22.8405 37.7986 23.2713 37.803 23.2713 37.6109C23.2713 37.5301 23.1256 37.5022 22.9474 37.5487C22.6966 37.6143 22.6235 37.5537 22.6235 37.2797C22.6235 36.9997 22.691 36.9474 22.9474 37.0288C23.1332 37.0878 23.2713 37.058 23.2713 36.9587C23.2713 36.8636 23.1643 36.7859 23.0334 36.7859C22.8886 36.7859 22.8321 36.691 22.8888 36.543C22.9924 36.273 23.4333 36.2074 23.4333 36.462C23.4333 36.5511 23.5062 36.624 23.5952 36.624C23.9323 36.624 23.7387 36.3253 23.3032 36.1734C22.8723 36.0233 22.8323 36.0516 22.5169 36.7313ZM32.3654 36.2814C32.0334 36.4918 32.2117 37.0029 32.6535 37.1072C33.1517 37.2248 33.2934 37.5957 32.8401 37.5957C32.6547 37.5957 32.5028 37.6686 32.5028 37.7576C32.5028 37.9628 32.6075 37.9615 32.9993 37.752C33.4614 37.5047 33.3804 37.1072 32.8252 36.8977C32.3227 36.708 32.2511 36.3637 32.7227 36.4035C32.8689 36.4158 32.9886 36.3613 32.9886 36.2821C32.9886 36.1004 32.6516 36.1 32.3654 36.2814ZM31.2301 36.5886C30.8988 36.6427 30.8612 36.7164 30.9467 37.1437C31.0008 37.4145 31.0452 37.7729 31.0452 37.9398C31.0452 38.1475 31.1603 38.2427 31.4096 38.2411C31.6151 38.2396 31.6982 38.1867 31.6002 38.1196C31.2951 37.9107 31.1942 37.4337 31.4551 37.4337C31.5859 37.4337 31.693 37.3631 31.693 37.2768C31.693 37.1906 31.5931 37.1584 31.4709 37.2052C31.3488 37.252 31.2021 37.1681 31.1448 37.0188C31.0602 36.7989 31.1179 36.7621 31.4478 36.8251C31.6718 36.8679 31.8549 36.8445 31.8549 36.773C31.8549 36.5781 31.6554 36.5193 31.2301 36.5886ZM24.7299 37.1082C24.6293 37.2961 24.5697 37.6465 24.5974 37.887C24.6633 38.4578 25.4451 38.6189 25.5834 38.0903C25.6312 37.9073 25.6043 37.7576 25.5235 37.7576C25.4428 37.7576 25.3767 37.8723 25.3767 38.0124C25.3767 38.1695 25.2681 38.2448 25.0933 38.2085C24.8923 38.1669 24.8198 38.0147 24.8439 37.6849C24.8919 37.0314 25.1405 36.8235 25.5604 37.0857C25.839 37.2598 25.8856 37.2591 25.8273 37.0816C25.7042 36.7072 24.9344 36.7257 24.7299 37.1082ZM26.2767 37.3079C26.1381 37.5058 26.0246 37.7884 26.0246 37.9358C26.0246 38.2424 26.4659 38.6659 26.6223 38.5096C26.6795 38.4523 26.6413 38.4055 26.5375 38.4055C26.3365 38.4055 26.283 37.7928 26.4468 37.366C26.5009 37.2251 26.6452 37.1098 26.7676 37.1098C27.0812 37.1098 27.2227 37.8203 26.9943 38.2472C26.8395 38.5363 26.8447 38.5912 27.0211 38.5332C27.3061 38.4395 27.3973 37.4787 27.1495 37.1803C26.8739 36.8481 26.5673 36.8928 26.2767 37.3079ZM29.458 37.1422C29.2005 37.3997 29.2113 37.9481 29.4813 38.3173C29.778 38.7232 30.5497 38.5465 30.5148 38.0811C30.5013 37.9031 30.4033 37.7576 30.2971 37.7576C30.1803 37.7576 30.139 37.8925 30.1928 38.0979C30.2629 38.3664 30.2171 38.4259 29.9751 38.38C29.7489 38.3369 29.6551 38.1575 29.617 37.6948C29.5681 37.0993 29.5864 37.0718 29.9814 37.1474C30.2101 37.1911 30.3973 37.1641 30.3973 37.0873C30.3973 36.8777 29.6805 36.9197 29.458 37.1422ZM27.8385 37.9196C27.8658 38.3763 27.9656 38.7294 28.067 38.7294C28.175 38.7294 28.2147 38.5511 28.1663 38.284L28.0856 37.8386L28.512 38.2307C28.7465 38.4463 28.977 38.5842 29.024 38.5371C29.0711 38.4902 29.0016 38.362 28.8696 38.2524C28.7099 38.1199 28.6612 37.8955 28.7239 37.5816C28.7794 37.3045 28.7493 37.1098 28.6513 37.1098C28.5593 37.1098 28.5224 37.2556 28.5689 37.4337C28.6278 37.659 28.5739 37.7576 28.3919 37.7576C28.238 37.7576 28.13 37.624 28.13 37.4337C28.13 37.2556 28.0534 37.1098 27.9599 37.1098C27.8572 37.1098 27.809 37.4308 27.8385 37.9196ZM31.8549 37.9196C31.8549 38.0087 31.9322 38.0815 32.0264 38.0815C32.1207 38.0815 32.1529 38.0087 32.0979 37.9196C32.0428 37.8305 31.9657 37.7576 31.9264 37.7576C31.887 37.7576 31.8549 37.8305 31.8549 37.9196Z" fill="#006F3C"/>
</svg>
