<svg width="132" height="48" viewBox="0 0 132 48" fill="none" xmlns="http://www.w3.org/2000/svg">
<path d="M6.58789 0.5H124.697C128.059 0.50021 130.785 3.22574 130.785 6.58789V41.417C130.785 44.7793 128.06 47.5047 124.697 47.5049H6.58789C3.22561 47.5047 0.5 44.7793 0.5 41.417V6.58789C0.50018 3.33053 3.05845 0.670639 6.27539 0.507812L6.58789 0.5Z" fill="white"/>
<path d="M6.58789 0.5H124.697C128.059 0.50021 130.785 3.22574 130.785 6.58789V41.417C130.785 44.7793 128.06 47.5047 124.697 47.5049H6.58789C3.22561 47.5047 0.5 44.7793 0.5 41.417V6.58789C0.50018 3.33053 3.05845 0.670639 6.27539 0.507812L6.58789 0.5Z" stroke="#EAECF0"/>
<path fill-rule="evenodd" clip-rule="evenodd" d="M25.2845 8.93957C23.5684 9.22433 22.3112 9.62725 20.7276 10.4002C16.2472 12.587 13.1626 16.6289 12.177 21.6044C11.9174 22.9144 11.9491 26.1419 12.2344 27.481C13.5979 33.8769 18.4585 38.639 24.8241 39.8154C26.1916 40.0682 28.9052 40.0685 30.3515 39.8164C33.4708 39.2725 36.3229 37.7726 38.6348 35.4607C41.654 32.4416 43.1834 28.7354 43.1845 24.4357C43.1857 20.01 41.5364 16.1534 38.3346 13.0942C36.1869 11.0423 33.636 9.70594 30.661 9.07405C29.3648 8.79877 26.5565 8.72843 25.2845 8.93957ZM31.3567 10.2087C38.5099 12.1391 43.1764 19.139 42.1638 26.42C41.8504 28.6721 40.7145 31.4574 39.4052 33.1837C37.0847 36.2429 33.6443 38.3225 29.8985 38.93C20.5073 40.453 12.1434 32.6451 12.963 23.1206C13.2689 19.5657 14.6264 16.7034 17.252 14.0779C19.3338 11.9962 21.3809 10.815 24.0361 10.1634C25.4929 9.80587 25.5932 9.7974 27.9411 9.83396C29.8149 9.86305 30.2545 9.91125 31.3567 10.2087ZM22.0083 11.0206C21.9723 11.0786 21.9876 11.2922 22.0421 11.495L22.1411 11.8636L22.2994 11.5691C22.4641 11.2626 22.4095 10.9148 22.1966 10.9148C22.129 10.9148 22.0442 10.9624 22.0083 11.0206ZM34.0766 11.5348C34.0766 11.5976 33.8787 11.7657 33.6367 11.9084L33.197 12.1678L33.0062 11.8955C32.8175 11.626 32.8145 11.6277 32.733 12.0349C32.6777 12.3114 32.594 12.425 32.4781 12.3805C32.3558 12.3336 32.3055 12.4258 32.3055 12.6973C32.3055 12.908 32.3585 13.0476 32.4233 13.0076C32.4881 12.9675 32.5727 12.9861 32.6115 13.0487C32.6503 13.1114 32.4032 13.1627 32.0625 13.1627C31.4237 13.1627 31.167 13.2458 31.167 13.4524C31.167 13.6091 31.6963 13.6044 32.1184 13.4439C32.375 13.3464 32.4415 13.3538 32.4015 13.4755C32.3728 13.5631 32.1971 13.6526 32.0112 13.6746C31.62 13.7209 31.5492 13.9509 31.926 13.9509C32.0652 13.9509 32.179 14.0329 32.179 14.1332C32.179 14.4339 31.8996 14.512 31.717 14.2624C31.5848 14.0815 31.5465 14.0716 31.5465 14.2189C31.5465 14.3232 31.6257 14.5169 31.7226 14.6494C31.8671 14.847 31.9328 14.8618 32.0897 14.7316C32.1947 14.6444 32.3167 14.4299 32.3606 14.2548C32.441 13.9345 32.5095 13.9273 33.1594 14.1715C33.2465 14.2043 33.3176 14.1395 33.3176 14.0277C33.3176 13.894 33.2069 13.8244 32.9938 13.8244C32.7924 13.8244 32.7022 13.7723 32.7554 13.6865C32.8061 13.6044 33.0097 13.5804 33.259 13.6272C33.6627 13.703 34.0607 13.4607 33.7195 13.347C33.4471 13.2562 33.5655 13.0866 34.0022 12.9426C34.2395 12.8642 34.4662 12.7154 34.5061 12.6117C34.592 12.3878 34.2928 12.2449 33.9853 12.3629C33.7987 12.4345 33.7941 12.4634 33.9536 12.5642C34.1022 12.6582 34.0847 12.6823 33.8671 12.684C33.4983 12.6865 33.6074 12.2613 34.0241 12.0714C34.322 11.9357 34.4637 11.4208 34.2031 11.4208C34.1335 11.4208 34.0766 11.4722 34.0766 11.5348ZM22.3673 12.1153C22.182 12.3582 21.98 12.5256 21.9181 12.4874C21.8563 12.4492 21.8012 12.7202 21.7959 13.0896L21.7862 13.7612L21.6269 13.2551C21.533 12.9572 21.511 12.6615 21.5734 12.5361C21.7332 12.2141 21.7005 12.0181 21.4999 12.0951C21.4012 12.1329 21.2891 12.0821 21.2508 11.9821C21.2125 11.8822 21.0227 11.8021 20.8292 11.8041C20.5396 11.8073 20.5148 11.8298 20.6889 11.9314C21.0183 12.1237 21.1256 12.8212 20.856 13.0185C20.7121 13.1236 20.6662 13.2589 20.7239 13.4072C20.8059 13.618 20.8293 13.6139 21.0421 13.3532L21.2718 13.0717L21.3472 13.3532C21.3887 13.508 21.4235 13.8196 21.4244 14.0458C21.4258 14.3664 21.4797 14.4569 21.669 14.4569C21.875 14.4569 21.9256 14.3302 22.0011 13.6252C22.0726 12.9582 22.1623 12.7146 22.4539 12.3953C22.7718 12.0472 22.9307 11.6738 22.7609 11.6738C22.7296 11.6738 22.5525 11.8726 22.3673 12.1153ZM33.5073 12.4329C33.4643 12.5024 33.3329 12.5585 33.2152 12.5575C33.0309 12.5557 33.0275 12.5385 33.1911 12.4329C33.4388 12.2727 33.6063 12.2727 33.5073 12.4329ZM22.5189 12.5208C22.4742 12.5656 22.5155 12.6921 22.6106 12.8021C22.8833 13.1176 22.9467 13.9023 22.7518 14.55C22.654 14.875 22.5987 15.1657 22.6291 15.196C22.7143 15.2812 22.9475 14.5985 23.1157 13.7704C23.2907 12.9098 23.5767 12.663 23.5767 13.3728C23.5767 13.6231 23.5078 13.9384 23.4234 14.0734C23.2468 14.3561 23.3501 14.5225 23.6345 14.4133C23.7822 14.3566 23.8297 14.1422 23.8297 13.5332C23.8297 12.6556 23.7576 12.4832 23.4851 12.7094C23.3472 12.8238 23.2274 12.81 22.9537 12.6483C22.7592 12.5334 22.5637 12.4761 22.5189 12.5208ZM33.0962 13.4021C33.0093 13.4373 32.867 13.4373 32.7799 13.4021C32.693 13.3671 32.7641 13.3384 32.9381 13.3384C33.112 13.3384 33.1832 13.3671 33.0962 13.4021ZM25.411 14.2874C22.1392 14.987 19.3207 17.3358 18.0306 20.4381C17.1036 22.6673 16.9963 25.3772 17.7466 27.6134C18.6795 30.3935 20.4327 32.4134 23.0074 33.6744C25.117 34.7075 27.1134 35.019 29.2451 34.6474C32.1895 34.1342 34.7437 32.4651 36.3305 30.017C38.5724 26.5587 38.4802 22.0023 36.0976 18.5051C35.4943 17.6196 34.0982 16.2741 33.1597 15.6737C30.9958 14.2895 27.9499 13.7445 25.411 14.2874ZM29.9019 15.1552C30.3542 15.262 31.265 15.6158 31.926 15.9416C34.078 17.0023 35.8803 19.1014 36.6793 21.4779C37.139 22.8451 37.2457 24.973 36.9271 26.4255C36.2973 29.2982 34.3923 31.7071 31.7363 32.9897C30.1649 33.7485 28.9936 33.9835 27.1392 33.9123C25.9144 33.8651 25.4759 33.79 24.5557 33.4689C22.9794 32.919 22.1571 32.3915 20.8441 31.0876C19.8695 30.1197 19.6026 29.7604 19.1054 28.7471C18.4353 27.3815 18.1726 26.4617 18.0615 25.0926C17.6095 19.5193 22.3683 14.6104 27.9411 14.9016C28.5673 14.9344 29.4497 15.0485 29.9019 15.1552ZM14.8068 17.3233C14.6975 17.4326 14.9613 17.7461 15.1626 17.7461C15.5121 17.7461 15.9864 18.2692 15.9864 18.6545C15.9864 19.001 16.0174 19.0307 16.3027 18.9591C16.534 18.9012 16.619 18.9304 16.619 19.068C16.619 19.1833 16.6925 19.2279 16.8087 19.1834C16.9131 19.1433 16.9985 19.1697 16.9985 19.2421C16.9985 19.3143 17.1123 19.4097 17.2515 19.4539C17.3906 19.498 17.5045 19.6124 17.5045 19.7079C17.5045 19.9609 17.7684 20.0837 17.8898 19.8873C17.947 19.7947 17.9642 19.6711 17.928 19.6125C17.8919 19.5539 17.9383 19.4133 18.0313 19.2999C18.1798 19.1188 18.1668 19.1023 17.9239 19.1649C17.7511 19.2095 17.622 19.1702 17.5799 19.0603C17.5428 18.9637 17.4253 18.8846 17.3187 18.8846C17.2121 18.8846 17.125 18.8277 17.125 18.7581C17.125 18.6885 17.0119 18.6316 16.8736 18.6316C16.717 18.6316 16.4993 18.437 16.2966 18.116C15.9212 17.5213 15.0646 17.0655 14.8068 17.3233ZM24.6273 18.515L23.7171 19.4062L26.5807 22.3778L29.4442 25.3492L30.3915 24.402L31.3389 23.4546L28.5181 20.5371C26.9667 18.9324 25.6614 17.6206 25.6174 17.6217C25.5735 17.6228 25.1279 18.0249 24.6273 18.515ZM28.7377 18.4719C28.2836 18.8728 27.9015 19.2462 27.8886 19.3014C27.8757 19.3568 28.2589 19.8362 28.74 20.3667L29.6147 21.3315L30.519 20.5873C31.0163 20.1782 31.4084 19.8069 31.39 19.7623C31.3717 19.7176 30.9532 19.2451 30.4601 18.7122L29.5634 17.743L28.7377 18.4719ZM14.6705 17.979C14.6344 18.0375 14.7664 18.2048 14.9639 18.3507C15.3267 18.6191 15.5582 19.3436 15.3077 19.427C15.1504 19.4795 15.6146 20.1402 15.8129 20.1457C15.8913 20.1479 16.0235 20.2316 16.1068 20.3319C16.1899 20.4321 16.3318 20.4858 16.4221 20.4511C16.6245 20.3734 16.7589 20.6822 16.6204 20.9064C16.5407 21.0353 16.436 21.0123 16.1381 20.8001C15.9289 20.6511 15.6579 20.5292 15.5362 20.5292C15.3328 20.5292 15.3313 20.5472 15.5161 20.7505C15.6269 20.8722 15.9346 21.083 16.1999 21.2186C16.4651 21.3543 16.7832 21.5494 16.9066 21.6521C17.2309 21.922 17.5048 21.6428 17.2297 21.3228C16.9369 20.9819 16.8058 20.7264 16.9789 20.8334C17.2286 20.9876 17.1409 20.5828 16.872 20.3394C16.7328 20.2135 16.619 20.0511 16.619 19.9787C16.619 19.9062 16.8067 20.029 17.0362 20.2514C17.2655 20.4737 17.5645 20.6535 17.7003 20.6509C17.8979 20.6471 17.8463 20.5576 17.4412 20.2028C17.1629 19.959 16.7644 19.6685 16.5557 19.5573C16.347 19.4463 16.1366 19.2937 16.0882 19.2184C16.0398 19.1433 15.9546 19.1274 15.8987 19.1831C15.8429 19.2391 15.9536 19.3987 16.1448 19.538C16.336 19.6773 16.4925 19.8788 16.4925 19.9859C16.4925 20.1504 16.461 20.1545 16.2892 20.0119C16.1775 19.9192 15.9639 19.7824 15.8148 19.7079C15.6077 19.6044 15.5532 19.4788 15.5838 19.1754C15.6296 18.7215 15.3348 18.0674 15.032 17.9511C14.7688 17.8502 14.7492 17.8517 14.6705 17.979ZM39.3898 18.0473C39.3898 18.1483 39.461 18.2597 39.5479 18.2948C39.635 18.3299 39.5494 18.3631 39.3582 18.3686C39.1669 18.374 39.0103 18.4355 39.0103 18.5051C39.0103 18.5747 38.9533 18.6316 38.8838 18.6316C38.8142 18.6316 38.7573 18.5462 38.7573 18.4418C38.7573 18.2086 38.7546 18.2087 37.7521 18.4889C36.9291 18.719 36.6647 18.9443 37.046 19.0905C37.1632 19.1355 37.519 19.0255 37.8636 18.8379L38.4739 18.5058L38.6754 18.7901L38.8768 19.0744L39.1291 18.781C39.2735 18.6129 39.4886 18.505 39.6327 18.528C39.7711 18.5502 39.8869 18.5257 39.8901 18.4735C39.9074 18.1872 39.8738 18.1227 39.6428 17.9991C39.4438 17.8926 39.3898 17.9029 39.3898 18.0473ZM39.2141 19.115C39.1788 19.1721 39.4315 19.3202 39.7759 19.4439C40.1201 19.5677 40.4018 19.7264 40.4018 19.7963C40.4018 19.868 40.305 19.8839 40.1804 19.8326C39.7044 19.6365 39.5163 19.6191 39.5163 19.7709C39.5163 19.8918 39.4707 19.8898 39.3169 19.7622C39.1518 19.6252 39.0986 19.6273 39.0077 19.7742C38.9154 19.9237 38.7525 19.9087 37.9737 19.6788C37.4305 19.5184 37.0024 19.4525 36.9352 19.5189C36.8678 19.5854 37.1404 19.7207 37.5994 19.8482C38.4084 20.0731 38.5508 20.2042 38.1312 20.3374C37.7715 20.4515 37.7065 20.819 37.9541 21.3382C38.1815 21.8152 38.5464 21.9437 38.6805 21.5941C38.7952 21.2953 38.7764 21.2538 38.5637 21.3354C38.4367 21.3841 38.3198 21.2993 38.2242 21.0894C38.0963 20.809 38.1179 20.7322 38.3975 20.473C38.6243 20.2627 38.8142 20.1956 39.0533 20.2414C39.2403 20.277 39.3898 20.2482 39.3898 20.1762C39.3898 20.1051 39.5125 20.0789 39.6625 20.1181C39.8495 20.1671 39.9069 20.1434 39.8448 20.0431C39.7348 19.8649 39.8369 19.8562 40.1393 20.0181C40.4832 20.202 41.2545 20.036 41.3259 19.7627C41.3592 19.6357 41.3628 19.5081 41.3339 19.4793C41.2327 19.3781 40.6585 19.5472 40.7271 19.658C40.845 19.8491 40.6465 19.7819 40.3099 19.5171C40.1329 19.378 40.0385 19.2601 40.1001 19.2553C40.2766 19.2412 39.7303 19.03 39.4921 19.02C39.3745 19.0152 39.2494 19.0578 39.2141 19.115ZM14.2132 19.392C14.0261 19.5076 14.1582 19.7701 14.4034 19.7701C14.4986 19.7701 14.6885 19.9124 14.8253 20.0864C15.1194 20.4602 15.2274 20.4848 15.2274 20.1779C15.2274 19.6627 14.583 19.1634 14.2132 19.392ZM20.5829 22.5482L19.6762 23.4202L22.3539 26.3293C23.8266 27.9293 25.0898 29.2429 25.1612 29.2482C25.2325 29.2535 25.6974 28.8453 26.1943 28.3408L27.0977 27.4237L24.4062 24.5832C22.9259 23.021 21.664 21.7278 21.6021 21.7096C21.5401 21.6912 21.0814 22.0687 20.5829 22.5482ZM24.4902 22.4618C24.0574 22.8985 23.7032 23.3007 23.7032 23.3555C23.7032 23.4104 24.9697 24.7889 26.5176 26.4191L29.3318 29.3828L31.6094 27.1184C32.8619 25.8728 34.1572 24.6121 34.4877 24.3166C34.8183 24.0211 35.0886 23.7086 35.0886 23.6221C35.0886 23.5355 34.6861 23.108 34.1941 22.6718L33.2995 21.8786L31.4411 23.734C30.419 24.7544 29.5202 25.5893 29.4439 25.5893C29.3676 25.5893 28.4425 24.707 27.388 23.6285C26.3336 22.5501 25.4274 21.6677 25.3741 21.6677C25.3208 21.6677 24.9231 22.0251 24.4902 22.4618ZM14.753 25.0522C13.6455 25.5061 13.7084 25.9613 14.8795 25.9671C15.3849 25.9696 15.3061 26.1409 14.6974 26.3629C13.7078 26.7236 13.9473 27.0611 15.2785 27.1818C16.1025 27.2564 16.2631 27.2415 16.2148 27.0947C16.1786 26.9848 15.9324 26.903 15.5654 26.8791C14.8518 26.8325 14.8069 26.6745 15.4488 26.4694C16.0379 26.2812 16.1413 26.1899 16.0462 25.942C15.9992 25.8196 15.7257 25.712 15.3146 25.6546C14.6273 25.5585 14.6406 25.529 15.5121 25.215C15.8559 25.091 16.0076 24.6924 15.7018 24.7161C15.6149 24.7228 15.1879 24.8741 14.753 25.0522ZM39.5163 24.8812C39.5163 24.9787 39.6948 25.1715 39.9129 25.3095L40.3093 25.5606L39.8496 25.7269C39.5529 25.8343 39.3898 25.9739 39.3898 26.1208C39.3898 26.4024 39.3671 26.4034 40.1725 26.086C40.5386 25.9418 40.9675 25.8484 41.1259 25.8788C41.3421 25.92 41.4139 25.8751 41.4139 25.6983C41.4139 25.5386 41.3223 25.4627 41.1292 25.4623C40.9726 25.4619 40.5884 25.2914 40.2753 25.0833C39.6357 24.6581 39.5163 24.6263 39.5163 24.8812ZM39.0785 27.5099C38.8401 28.3124 38.8387 28.3724 39.0587 28.3724C39.155 28.3724 39.2624 28.2629 39.2974 28.129C39.3582 27.8968 39.3908 27.8944 40.0138 28.0771C40.6531 28.2644 41.0343 28.2407 41.0343 28.0135C41.0343 27.9509 40.687 27.8023 40.2625 27.6832C39.5565 27.4851 39.4957 27.4405 39.5492 27.1605C39.6638 26.5609 39.2744 26.85 39.0785 27.5099ZM15.4875 28.0658C15.0392 28.2382 14.6468 28.405 14.6154 28.4363C14.4993 28.5525 15.0016 29.6375 15.1715 29.6375C15.3084 29.6375 15.3201 29.565 15.2243 29.313C15.1564 29.1345 15.1009 28.9068 15.1009 28.807C15.1009 28.507 15.4754 28.6024 15.63 28.9417C15.7953 29.3045 16.1966 29.3955 16.0489 29.0366C15.8507 28.5552 15.8474 28.4043 16.0336 28.3328C16.1705 28.2803 16.2727 28.3832 16.3811 28.6829C16.4691 28.9262 16.6005 29.082 16.6891 29.0481C16.8073 29.0027 16.7967 28.8425 16.6439 28.3643C16.5341 28.0209 16.4124 27.7427 16.3734 27.7461C16.3346 27.7495 15.9358 27.8934 15.4875 28.0658ZM38.5043 29.1779C38.5043 29.2729 38.8886 29.523 39.3582 29.7336C40.0787 30.0567 40.2286 30.0876 40.3186 29.9308C40.4477 29.7054 40.4991 29.7474 39.5959 29.3399C38.7617 28.9637 38.5043 28.9255 38.5043 29.1779ZM16.3027 30.1651C15.3845 30.6347 15.458 30.5703 15.5542 30.8209C15.6232 31.0011 15.7503 30.9674 16.5104 30.5681C17.2985 30.1539 17.519 29.9044 17.1804 29.8099C17.1151 29.7918 16.7202 29.9516 16.3027 30.1651ZM24.4622 30.2973C24.2016 30.4108 24.185 30.4445 24.3674 30.4884C24.5475 30.5316 24.5888 30.682 24.5888 31.2955C24.5888 31.959 24.5546 32.063 24.3041 32.1637C24.0874 32.2508 24.2005 32.278 24.7785 32.278C25.3565 32.278 25.4696 32.2508 25.2529 32.1637C24.9931 32.0592 24.9683 31.9663 24.9683 31.0963C24.9683 30.5724 24.9256 30.1472 24.8734 30.1515C24.8211 30.1559 24.6362 30.2216 24.4622 30.2973ZM26.2567 30.23C26.1653 30.2666 26.0357 30.4405 25.9688 30.6166C25.7942 31.0757 26.1377 31.5829 26.5675 31.5006C26.8414 31.4483 26.8748 31.4814 26.841 31.7716C26.7917 32.196 26.419 32.2812 26.3171 31.8913C26.2596 31.6716 26.2064 31.6379 26.0942 31.7501C25.8524 31.9919 26.0629 32.2941 26.4732 32.2941C26.9772 32.2941 27.3719 31.7864 27.3719 31.1385C27.3719 30.4035 26.8618 29.9879 26.2567 30.23ZM27.9306 30.2595C27.9017 30.2885 27.8779 30.5658 27.8779 30.8758C27.8779 31.3604 27.9043 31.4177 28.066 31.2834C28.3816 31.0214 28.6582 31.2279 28.6134 31.6923C28.5819 32.0196 28.5099 32.1133 28.2635 32.1481C27.9888 32.1868 27.973 32.1681 28.1252 31.9846C28.352 31.7114 28.0965 31.3924 27.849 31.6398C27.6274 31.8614 27.8817 32.2206 28.2955 32.2703C28.8059 32.3314 29.1429 32.0888 29.1429 31.66C29.1429 31.2153 28.6646 30.8365 28.2636 30.9638C28.0805 31.022 28.0044 30.9901 28.0044 30.8555C28.0044 30.7266 28.1577 30.6521 28.4778 30.6255C29.1744 30.5678 29.1963 30.2068 28.5031 30.2068C28.2172 30.2068 27.9596 30.2305 27.9306 30.2595ZM30.1866 30.2328C29.9079 30.2865 29.779 30.523 30.0284 30.523C30.0997 30.523 30.155 30.8784 30.155 31.3361C30.155 32.0039 30.1155 32.1594 29.9336 32.2069C29.8119 32.2387 30.0253 32.2647 30.408 32.2647C30.7906 32.2647 31.0041 32.2387 30.8824 32.2069C30.695 32.158 30.661 31.9949 30.661 31.1463C30.661 30.5947 30.6183 30.1512 30.5661 30.1607C30.5138 30.1702 30.3432 30.2026 30.1866 30.2328ZM26.8026 30.8393C26.8026 31.1148 26.7343 31.3469 26.6445 31.3769C26.533 31.4141 26.4863 31.2554 26.4863 30.8393C26.4863 30.4232 26.533 30.2644 26.6445 30.3016C26.7343 30.3316 26.8026 30.5638 26.8026 30.8393ZM37.7709 30.4289C37.5083 30.7452 37.4655 31.2374 37.6818 31.4536C37.9543 31.7261 38.148 31.716 38.5388 31.4085C38.7156 31.2694 38.9226 31.1555 38.9986 31.1555C39.1717 31.1555 39.1828 31.6557 39.0103 31.6774C38.9407 31.6861 38.8134 31.7003 38.7274 31.709C38.4583 31.7362 38.4569 32.1676 38.7259 32.1676C39.0925 32.1676 39.5163 31.6388 39.5163 31.1815C39.5163 30.6446 39.0475 30.5024 38.5549 30.8899C38.3691 31.036 38.1394 31.1555 38.0444 31.1555C37.748 31.1555 37.8557 30.7759 38.188 30.6495C38.3619 30.5834 38.5043 30.4709 38.5043 30.3997C38.5043 30.2156 37.9289 30.2385 37.7709 30.4289ZM17.0511 31.297C16.115 31.9486 16.1671 31.8928 16.3362 32.0619C16.4429 32.1686 16.56 32.1524 16.7947 31.9987C17.0969 31.8007 17.1203 31.8055 17.3653 32.117C17.6897 32.5294 17.9833 32.4014 17.7011 31.9706C17.5929 31.8055 17.5045 31.6116 17.5045 31.5395C17.5045 31.3129 17.8749 31.3973 18.0399 31.6616C18.1898 31.9017 18.5165 32.0148 18.5165 31.8265C18.5165 31.7439 17.879 30.776 17.8246 30.776C17.8108 30.776 17.4626 31.0104 17.0511 31.297ZM36.244 32.4665L35.8316 32.8921L36.5606 33.5418C36.9617 33.8992 37.3319 34.1916 37.3835 34.1916C37.6391 34.1916 37.6277 33.8724 37.3646 33.6593C37.0941 33.4403 37.0868 33.4044 37.2736 33.2174C37.4605 33.0306 37.5025 33.0307 37.7892 33.2187C38.048 33.3881 38.1256 33.3942 38.2419 33.2541C38.3498 33.1242 38.3096 33.0375 38.0682 32.8793C37.8954 32.7662 37.6634 32.6736 37.5524 32.6736C37.4415 32.6736 37.3875 32.6141 37.4324 32.5415C37.5533 32.3458 37.2487 32.0411 36.9323 32.0411C36.7805 32.0411 36.4707 32.2325 36.244 32.4665ZM37.0707 32.6202C37.1128 32.7299 37.0635 32.9036 36.961 33.006C36.7969 33.1701 36.7553 33.1689 36.612 32.9962C36.4818 32.8394 36.4808 32.762 36.6067 32.6103C36.8096 32.3658 36.9744 32.3694 37.0707 32.6202ZM18.3536 33.1267C17.8606 33.3797 17.5297 33.624 17.5767 33.7001C17.6218 33.773 17.7867 33.8005 17.9433 33.7612C18.3041 33.6706 18.6595 34.0395 18.6134 34.4568C18.5488 35.042 18.9019 34.7595 19.2964 33.9103C19.6228 33.2077 19.6637 33.0262 19.5314 32.8666C19.3252 32.6183 19.3587 32.6108 18.3536 33.1267ZM19.0239 33.5565C18.904 33.7805 18.8449 33.8007 18.689 33.6712C18.5243 33.5346 18.5379 33.4933 18.7924 33.3571C19.1566 33.1623 19.2103 33.2085 19.0239 33.5565ZM34.8843 33.7073C34.6836 33.8583 34.4679 34.0266 34.405 34.0811C34.3159 34.1581 34.7941 34.917 35.4229 35.6969C35.5053 35.7991 36.4802 35.037 36.4802 34.8702C36.4802 34.6386 36.3934 34.6521 35.9763 34.9492C35.666 35.1702 35.604 35.1778 35.4662 35.0117C35.3368 34.8557 35.369 34.7758 35.6508 34.5541C35.8888 34.367 35.952 34.2454 35.8597 34.1531C35.7673 34.0607 35.6561 34.0848 35.4928 34.2326C35.3639 34.3493 35.1917 34.4447 35.1103 34.4447C34.8781 34.4447 34.9366 34.1275 35.2151 33.8754C35.7267 33.4124 35.4578 33.2758 34.8843 33.7073ZM20.1295 34.5508C19.6405 35.3097 19.5721 35.5169 19.7698 35.6392C19.8329 35.6782 20.0465 35.4539 20.2442 35.1408C20.4421 34.8278 20.6374 34.5715 20.6784 34.5714C20.7194 34.5713 20.7 34.9204 20.6354 35.3474C20.5162 36.1349 20.5908 36.3349 21.0059 36.3403C21.204 36.3429 22.0974 34.8626 21.9963 34.6991C21.8754 34.5034 21.7042 34.5465 21.6246 34.7925C21.5853 34.9142 21.4186 35.1815 21.2542 35.3865L20.9553 35.7589L21.0648 34.958C21.1598 34.2626 21.145 34.135 20.9524 33.9886C20.8303 33.896 20.7019 33.8188 20.6671 33.8173C20.6323 33.8157 20.3904 34.1457 20.1295 34.5508ZM33.5144 34.6863C33.4753 34.7495 33.4671 34.8777 33.4963 34.9709C33.5255 35.0642 33.5855 35.3966 33.6294 35.7097L33.7093 36.279L33.1608 35.7413C32.6566 35.2472 32.179 35.0411 32.179 35.3177C32.179 35.3804 32.521 35.7279 32.9388 36.09C33.9543 36.9696 34.1214 36.9052 34.0047 35.6791C33.9567 35.1741 33.8929 34.7183 33.8631 34.666C33.7884 34.5359 33.6006 34.5467 33.5144 34.6863ZM22.9442 35.3029C22.4121 35.472 22.0733 36.1699 22.2512 36.7306C22.3289 36.9753 23.1811 37.4714 23.5352 37.478C23.6168 37.4795 23.7515 37.2748 23.8347 37.0229C23.9973 36.5301 23.8859 36.3483 23.4186 36.3441C23.161 36.3418 23.1336 36.481 23.349 36.6964C23.5706 36.9181 23.3211 37.0981 22.9758 36.9656C22.3573 36.7283 22.7964 35.439 23.4274 35.6392C23.5641 35.6826 23.7052 35.83 23.7409 35.9669C23.7767 36.1038 23.8968 36.2157 24.0076 36.2157C24.2573 36.2157 24.2736 35.7941 24.0318 35.5933C23.7905 35.3932 23.1765 35.2291 22.9442 35.3029ZM31.167 35.6691C31.167 35.7164 31.2926 36.1453 31.4463 36.6221C31.6405 37.225 31.7822 37.4782 31.9116 37.4533C32.1456 37.4083 32.1479 37.4514 31.8575 36.4371C31.6745 35.7984 31.5567 35.5832 31.3899 35.5832C31.2673 35.5832 31.167 35.6219 31.167 35.6691ZM30.1147 35.9255C30.0798 35.9819 30.0982 36.2838 30.1553 36.5964C30.2126 36.9088 30.2392 37.185 30.2144 37.21C30.1896 37.2351 29.9843 36.9931 29.7582 36.6724C29.4721 36.2664 29.2585 36.0892 29.0553 36.0892C28.8092 36.0892 28.7643 36.1537 28.769 36.5004C28.7758 37.0098 28.9561 37.9687 29.0658 38.0782C29.278 38.2905 29.3907 37.8737 29.2807 37.2841C29.2164 36.9401 29.1835 36.639 29.2077 36.6148C29.2317 36.5908 29.4405 36.8601 29.6716 37.2133C30.0028 37.7199 30.1637 37.8562 30.4316 37.858C30.8038 37.8605 30.796 37.9592 30.5475 36.4155C30.472 35.9465 30.2541 35.6998 30.1147 35.9255ZM26.2333 36.8919C26.2333 37.8145 26.4424 38.1133 27.0881 38.1133C27.6049 38.1133 27.8447 37.8517 27.9457 37.1778C28.0508 36.4773 27.9887 36.1525 27.7496 36.1525C27.6117 36.1525 27.5448 36.3511 27.4984 36.8986C27.427 37.7404 27.174 38.0421 26.7998 37.7315C26.6245 37.5859 26.6011 37.4228 26.669 36.8217C26.746 36.1407 26.7336 36.0892 26.4926 36.0892C26.2585 36.0892 26.2333 36.167 26.2333 36.8919Z" fill="#1A2881"/>
<path d="M69.1542 34.0605C69.5571 34.0606 69.5968 34.1103 70.5672 35.8945C71.1159 36.9033 71.6128 37.7285 71.6708 37.7285C71.7278 37.7122 71.7752 36.8932 71.7753 35.8945C71.7753 34.146 71.7872 34.0606 72.0282 34.0605C72.2706 34.0608 72.2811 34.1486 72.2811 36.3447V38.6299L71.8866 38.5908C71.519 38.554 71.4201 38.4204 70.4637 36.6846L69.4354 34.8193L69.3651 38.6143H68.7391V34.0605H69.1542ZM87.371 34.0605C87.7739 34.0606 87.8136 34.1103 88.784 35.8945C89.3314 36.9011 89.8269 37.7249 89.8866 37.7285C89.9438 37.7167 89.992 36.896 89.992 35.8945C89.9921 34.1457 90.0039 34.0606 90.245 34.0605C90.4874 34.0608 90.4979 34.1486 90.4979 36.3447V38.6299L90.1034 38.5908C89.7358 38.554 89.6359 38.4204 88.6795 36.6846L87.6522 34.8193L87.5819 38.6143H86.9559V34.0605H87.371ZM51.7108 35.9521C51.9815 36.9988 52.2378 37.8544 52.2801 37.8535C52.3253 37.8394 52.525 37.1756 52.7254 36.3672C53.3139 33.9959 53.2904 34.0605 53.5799 34.0605C53.7677 34.0609 53.8228 34.1222 53.7772 34.2812C53.742 34.4029 53.4665 35.4308 53.1649 36.5645L52.6161 38.626L52.245 38.5889C51.8908 38.5529 51.8617 38.5002 51.5809 37.4121C50.9437 34.9426 50.8687 34.6872 50.8104 34.7422C50.7767 34.777 50.5385 35.6473 50.2811 36.6768C49.8131 38.5481 49.8113 38.5509 49.4305 38.5889L49.0477 38.627L48.5018 36.502C48.2015 35.333 47.9295 34.3048 47.8973 34.2178C47.8614 34.1194 47.9533 34.0605 48.1415 34.0605C48.4248 34.0609 48.4684 34.1677 48.8651 35.8623C49.3576 37.9665 49.4513 38.2033 49.5819 37.6641C50.4431 34.1054 50.4363 34.1255 50.8397 34.0859L51.2186 34.0488L51.7108 35.9521ZM96.3221 36.084C96.9466 34.2957 97.1293 33.9681 97.4432 34.0801C97.5078 34.1102 97.2844 34.8961 96.9442 35.8311C95.862 38.8046 95.9543 38.6152 95.5799 38.6133C95.2574 38.612 95.2089 38.5167 94.4833 36.4473C94.0664 35.2586 93.7056 34.2356 93.6815 34.1719C93.6584 34.1107 93.7766 34.0605 93.9432 34.0605C94.2198 34.0611 94.2988 34.2168 94.8573 35.8848C95.1933 36.8881 95.5092 37.7761 95.5594 37.8574C95.6109 37.937 95.9502 37.1491 96.3221 36.084ZM56.1522 34.0605C57.2676 34.0606 57.3542 34.0788 57.3544 34.3135C57.3543 34.5435 57.2679 34.5664 56.4051 34.5664H55.4569V35.958H56.3417C57.1411 35.958 57.2273 35.9826 57.2274 36.2109C57.2273 36.4395 57.1414 36.4638 56.3417 36.4639H55.4569V38.1084H56.4051C57.2677 38.1084 57.3542 38.1315 57.3544 38.3613C57.3543 38.5964 57.2683 38.6142 56.1522 38.6143H54.9501V34.0605H56.1522ZM59.1249 34.0605C59.3673 34.0608 59.3778 34.1486 59.3778 36.3369C59.3778 38.526 59.3673 38.614 59.1249 38.6143C58.8814 38.6142 58.8719 38.5289 58.8719 36.3369C58.8719 34.1457 58.8815 34.0606 59.1249 34.0605ZM62.035 34.0605C63.0869 34.0606 63.1736 34.0798 63.1737 34.3135C63.1736 34.5419 63.0873 34.5664 62.2879 34.5664H61.4022V35.958H62.2245C62.9607 35.958 63.0466 35.9845 63.0467 36.2109C63.0467 36.4376 62.9609 36.4638 62.2245 36.4639H61.4022V37.5391C61.4022 38.528 61.3812 38.6139 61.1493 38.6143C60.9056 38.6143 60.8963 38.5296 60.8963 36.3369V34.0605H62.035ZM65.7948 34.083C66.1208 34.1211 66.1994 34.2646 66.9881 36.2734C67.4514 37.4534 67.836 38.4628 67.8436 38.5195C67.8491 38.5715 67.7228 38.614 67.5643 38.6143C67.338 38.6143 67.2307 38.4955 67.078 38.0762L66.8827 37.5391L65.742 37.5029L64.6024 37.4668L64.3837 38.04C64.2293 38.4442 64.0925 38.6135 63.9217 38.6143C63.7884 38.6143 63.6795 38.5693 63.6795 38.5146C63.6851 38.4174 64.6841 35.8729 65.2704 34.4629C65.4165 34.112 65.5019 34.0493 65.7948 34.083ZM92.2694 34.0605C92.5117 34.0609 92.5223 34.1489 92.5223 36.3369C92.5223 38.5257 92.5118 38.6139 92.2694 38.6143C92.0257 38.6143 92.0165 38.5296 92.0165 36.3369C92.0165 34.145 92.0258 34.0605 92.2694 34.0605ZM99.9227 34.0605C101.038 34.0606 101.125 34.0788 101.125 34.3135C101.125 34.5435 101.038 34.5664 100.176 34.5664H99.2274V35.958H100.112C100.912 35.958 100.998 35.9826 100.998 36.2109C100.998 36.4395 100.912 36.4638 100.112 36.4639H99.2274V38.1084H100.176C101.038 38.1084 101.125 38.1315 101.125 38.3613C101.125 38.5964 101.039 38.6142 99.9227 38.6143H98.7206V34.0605H99.9227ZM103.279 34.0605C103.699 34.0607 104.235 34.141 104.471 34.2393C105.264 34.5714 105.408 35.3613 104.789 35.9814C104.512 36.2581 104.442 36.4079 104.535 36.5205C104.648 36.6582 105.423 38.4398 105.426 38.5684C105.426 38.5935 105.293 38.6142 105.133 38.6143C104.887 38.6142 104.794 38.484 104.554 37.8027C104.219 36.8541 103.973 36.5903 103.424 36.5898H103.022V37.6025C103.022 38.528 103 38.6139 102.769 38.6143C102.526 38.6143 102.516 38.5296 102.516 36.3369V34.0605H103.279ZM110.612 34.0605C110.855 34.0608 110.865 34.1486 110.865 36.3369C110.865 38.526 110.855 38.614 110.612 38.6143C110.369 38.6142 110.359 38.5288 110.359 36.3369C110.359 34.1458 110.369 34.0606 110.612 34.0605ZM113.522 34.0605C114.953 34.0606 115.04 34.0751 115.04 34.3135C115.04 34.5321 114.954 34.5663 114.408 34.5664H113.775V36.5898C113.775 38.5256 113.763 38.6139 113.522 38.6143C113.28 38.6143 113.269 38.5295 113.269 36.5898V34.5664H112.637C112.089 34.5664 112.004 34.5324 112.004 34.3135C112.004 34.075 112.09 34.0605 113.522 34.0605ZM119.041 34.0605C119.256 34.0607 119.326 34.1099 119.264 34.2178C119.212 34.3048 118.838 34.9012 118.433 35.542C117.704 36.6962 117.697 36.7175 117.697 37.6611C117.697 38.5284 117.673 38.614 117.443 38.6143C117.214 38.6141 117.19 38.5291 117.19 37.7139C117.19 36.8265 117.179 36.7951 116.368 35.4912C115.916 34.7639 115.546 34.1442 115.546 34.1143C115.548 34.0848 115.687 34.0605 115.854 34.0605C116.108 34.0613 116.269 34.2494 116.771 35.1348C117.105 35.723 117.406 36.2047 117.443 36.209C117.484 36.1984 117.785 35.7191 118.116 35.1348C118.625 34.2375 118.777 34.0605 119.041 34.0605ZM82.6766 35.8428C82.7158 37.539 82.7322 37.6373 83.0165 37.8672C83.1808 37.9998 83.5025 38.1084 83.7303 38.1084C83.9581 38.108 84.2792 37.9996 84.4432 37.8672C84.7265 37.6379 84.7439 37.5371 84.7831 35.8428L84.8251 34.0605H85.4383L85.4305 35.6094C85.4265 36.4634 85.3564 37.3498 85.2733 37.5898C84.9799 38.4272 83.9191 38.828 83.0067 38.4473C82.2684 38.1387 82.1075 37.6861 82.0458 35.7363L81.993 34.0605H82.6356L82.6766 35.8428ZM75.0243 34.1094C75.3326 33.9951 75.7536 33.9548 76.1883 33.998C76.9525 34.0743 77.0885 34.1307 77.0887 34.3672C77.0884 34.492 76.88 34.5186 76.2352 34.4775C75.5356 34.433 75.3079 34.4699 74.9764 34.6787C74.3723 35.0597 74.1418 35.6024 74.2059 36.4902C74.2516 37.1214 74.3207 37.2964 74.6629 37.6387C75.0301 38.0058 75.1385 38.0428 75.8563 38.0439L76.6463 38.0449L76.6835 37.3174L76.7215 36.5898H76.2723C75.908 36.5898 75.8241 36.5423 75.8241 36.3369C75.8243 36.1127 75.909 36.084 76.5829 36.084H77.3417V37.209C77.3417 38.4623 77.3676 38.4248 76.3592 38.5586C75.1908 38.7134 74.2119 38.2334 73.786 37.2959C73.4884 36.6405 73.4886 35.9071 73.785 35.2617C74.068 34.6459 74.3907 34.3448 75.0243 34.1094ZM107.79 33.9385C108.206 33.9316 108.713 34.1582 108.715 34.3516C108.715 34.4814 108.551 34.51 108.042 34.4678C107.527 34.4252 107.319 34.4629 107.156 34.625C106.728 35.0539 106.959 35.4597 107.985 36.0732C109.007 36.6849 109.247 37.4682 108.607 38.1084C108.409 38.3064 108.05 38.506 107.808 38.5518C107.248 38.6568 106.513 38.4675 106.463 38.2061C106.43 38.034 106.534 38.0143 107.174 38.0723C107.82 38.1308 107.961 38.1036 108.19 37.874C108.613 37.4497 108.391 37.0487 107.368 36.3945C106.649 35.9345 106.437 35.6484 106.437 35.1357C106.438 34.6485 106.658 34.3154 107.112 34.1182C107.333 34.0224 107.638 33.9413 107.79 33.9385ZM66.2528 35.833C65.8356 34.6593 65.7491 34.5576 65.5702 35.0215C65.492 35.224 65.2935 35.746 65.1288 36.1807L64.829 36.9717H65.7088C66.192 36.9716 66.5885 36.9291 66.5897 36.877C66.5894 36.8234 66.4381 36.3539 66.2528 35.833ZM103.022 36.0879H103.582C104.038 36.0879 104.192 36.0253 104.407 35.752C104.694 35.3871 104.658 34.9997 104.313 34.7285C104.203 34.6416 103.867 34.5703 103.567 34.5703H103.022V36.0879ZM95.9178 19.6279C96.8982 19.3146 97.6414 19.3184 97.9618 19.6387C98.1005 19.7776 98.2143 19.9751 98.2147 20.0771C98.2142 20.5988 96.5578 21.9772 94.3563 23.2881C92.5935 24.3377 92.5131 24.3971 92.2147 24.8555C91.7518 25.5668 92.0105 25.5935 93.6405 25.002C94.4748 24.6993 95.5634 24.3845 96.0585 24.3027L96.9588 24.1543L97.3338 24.5137C97.7454 24.9082 97.8241 25.3848 97.4999 25.5107C97.3848 25.5549 96.8858 25.5548 96.3924 25.5107C95.7226 25.4506 95.3024 25.4865 94.7362 25.6504C93.6605 25.9617 92.525 26.5556 92.5223 26.8076C92.5223 26.922 92.7611 27.5335 93.0536 28.166C93.5269 29.19 93.5908 29.4414 93.6366 30.457C93.718 32.2632 93.2394 32.9993 92.3104 32.498C92.1141 32.392 91.6115 32.14 91.1942 31.9385C90.3813 31.5457 89.5444 30.7295 89.411 30.1992C89.2875 29.7071 89.4246 29.6887 89.9754 30.125C90.7735 30.7571 91.8628 31.209 92.2567 31.0713C92.5472 30.9694 92.5904 30.8775 92.6249 30.2744C92.6758 29.3759 91.9709 27.2335 91.6239 27.2285C91.2489 27.2287 90.7063 27.4814 90.3514 27.8193C90.0634 28.0941 89.9409 28.1282 89.5116 28.0557C89.0011 27.9693 88.4272 27.5599 88.5018 27.3359C88.5306 27.266 89.0988 26.9706 89.7694 26.6777C90.4415 26.384 91.0271 26.108 91.0721 26.0645C91.1146 26.0191 91.1767 25.7376 91.2088 25.4375C91.3496 24.1271 91.7166 23.6838 93.661 22.4746C94.3219 22.0635 95.2324 21.3659 95.6844 20.9258L96.5077 20.126L95.9608 20.2012C95.6605 20.2428 95.0272 20.4721 94.5545 20.71C92.8934 21.5465 91.5474 22.711 88.1493 26.25C87.6577 26.7619 86.3289 27.6056 86.0116 27.6084C85.7857 27.6084 85.3551 27.0836 85.2635 26.6963C85.1918 26.3924 85.2586 26.2966 85.8485 25.8594C86.8771 25.0965 87.6997 24.1354 88.119 23.2061C88.3293 22.7401 88.5274 22.3316 88.5585 22.2988C88.6845 22.1693 88.8494 22.6469 88.8514 23.1494C88.8528 23.5495 88.9038 23.6865 89.0497 23.6865C89.4468 23.6855 90.2408 23.1798 92.4842 21.4951C93.498 20.7341 94.9797 19.9279 95.9178 19.6279ZM76.7157 19.666C76.7107 19.429 76.7497 19.3983 76.9325 19.4961C77.5849 19.846 77.9373 20.6169 78.119 22.0947C78.2049 22.794 78.3267 23.3076 78.4061 23.3076C78.4875 23.3064 78.9935 23.2208 79.535 23.1172C81.2399 22.791 81.4586 22.8656 81.4198 23.7588C81.3861 24.5312 80.9747 25.4078 79.869 27.0615C78.4146 29.2365 77.028 30.8156 76.2665 31.166C75.3591 31.5823 75.2822 31.5357 74.7508 30.2539C74.4889 29.622 74.148 28.9568 73.993 28.7764L73.7108 28.4492L73.2811 28.7549C73.0446 28.9229 72.4749 29.405 72.0165 29.8252C71.1694 30.6014 68.7425 32.2429 68.7391 32.042C68.742 31.9787 69.2108 31.5744 69.7831 31.1426C70.8454 30.3409 73.2813 27.8922 74.1307 26.7715C74.3884 26.4318 74.8679 25.8576 75.1962 25.4961C75.5273 25.1311 76.0493 24.3125 76.367 23.6611L76.9413 22.4854L76.8319 21.2197C76.7715 20.5245 76.719 19.8255 76.7157 19.666ZM48.246 20.1445C48.5642 20.1456 48.6163 20.5885 48.7303 24.3477C48.7846 26.1372 48.8679 27.6407 48.9159 27.6885C49.0788 27.8501 49.4997 27.3278 50.2743 26C50.6992 25.2716 51.0679 24.696 51.0936 24.7217C51.1179 24.7534 51.0057 25.4017 50.8436 26.167C50.6477 27.0923 50.3146 28.0983 49.8602 29.1367C49.483 29.9988 49.1029 30.886 49.0145 31.1094C48.8137 31.6169 48.4653 31.9361 48.2167 31.8418C48.1109 31.8013 47.9257 31.5499 47.8055 31.2832C47.6092 30.8478 47.6034 30.6802 47.746 29.6367C47.8608 28.7961 47.8732 27.9791 47.7919 26.6816C47.6334 24.1537 47.6571 21.9953 47.8534 20.998C47.9852 20.3285 48.0695 20.1447 48.246 20.1445ZM111.322 20.5312C112.238 20.3778 112.352 20.3813 112.83 20.5811C113.389 20.8149 113.388 21.0563 112.821 21.8545C111.875 23.1867 110.837 24.8295 110.896 24.8984C110.934 24.9342 111.155 24.8481 111.389 24.7061C111.871 24.412 112.293 24.372 112.482 24.6035C112.554 24.6913 112.677 25.2185 112.756 25.7744C112.919 26.927 113.205 27.809 113.445 27.9014C114.029 28.1252 115.066 28.116 116.241 27.875C117.693 27.5775 117.881 27.4279 117.768 26.6592C117.554 25.1921 117.54 24.9527 117.669 24.9521C117.743 24.9543 117.87 25.1541 117.951 25.3984C118.032 25.6441 118.383 26.1246 118.73 26.4668C119.443 27.168 119.456 27.3829 118.822 27.916C118.37 28.2959 117.531 28.562 115.989 28.8135C114.509 29.0549 113.726 29.0478 113.183 28.791C112.502 28.4676 112.385 28.1757 112.246 26.457C112.177 25.6037 112.091 24.8748 112.056 24.834C112.02 24.7986 111.743 24.9007 111.441 25.0605C110.803 25.3992 110.263 26.105 109.095 28.123C108.643 28.9036 107.988 29.8624 107.64 30.2539C107.292 30.6443 106.854 31.1606 106.666 31.4014C106.479 31.6409 106.294 31.8063 106.255 31.7695C106.021 31.5361 106.795 29.9756 108.137 27.9717C108.341 27.6666 108.861 26.7543 109.294 25.9443C109.99 24.6409 110.369 23.9866 111.465 22.1895C111.87 21.5243 111.833 21.4287 111.151 21.3848C110.685 21.3548 110.541 21.2937 110.507 21.1113C110.443 20.7756 110.621 20.6488 111.322 20.5312ZM52.9491 16.0967C53.1686 16.1066 53.0027 18.2968 52.7528 18.6826C52.4788 19.1007 52.493 19.5392 52.7997 20.1113C53.1143 20.6984 53.1141 20.8587 52.7977 21.9863C52.5768 22.7738 52.5642 22.9595 52.703 23.376C52.7909 23.6402 52.9267 23.8774 53.0047 23.9033C53.0847 23.9267 53.4508 23.6905 53.8192 23.376C54.188 23.0613 54.5325 22.8021 54.5848 22.8008C54.8026 22.7971 54.9762 21.7937 54.994 20.4248C55.0127 18.988 55.0217 18.946 55.3299 18.79C55.96 18.4715 55.9783 18.5122 55.9022 20.1133C55.7276 23.7895 55.6862 24.4394 55.5712 25.3311C55.5039 25.8527 55.3656 27.1274 55.2645 28.1631C55.0092 30.78 54.574 31.6342 54.1092 30.4297C53.782 29.5815 53.825 28.1614 54.2362 26.2012C54.5758 24.5824 54.6553 23.6902 54.4637 23.6865C54.1729 23.6871 53.7443 24.4773 52.8602 26.6426C52.4718 27.5938 52.0012 28.2389 51.6952 28.2412C51.5255 28.2412 51.5087 28.0903 51.5799 27.165C51.6254 26.5736 51.7763 25.7908 51.9149 25.4258C52.2578 24.5234 52.2424 24.4454 51.7245 24.4453C51.2941 24.4453 51.2821 24.432 51.2821 23.9512C51.2822 23.6788 51.3949 23.0951 51.5331 22.6543C51.882 21.5409 51.8674 21.1824 51.4706 21.082C50.8398 20.9238 50.9353 20.0103 51.6981 18.9014C52.1535 18.2389 52.4316 17.5921 52.6737 16.6338C52.7485 16.3386 52.8726 16.0967 52.9491 16.0967ZM105.394 15.2178C105.889 15.2115 105.931 15.2374 105.932 15.5391C105.931 15.719 105.82 16.0083 105.684 16.1816C105.41 16.5304 104.979 17.6096 104.805 18.3848C104.675 18.9615 104.864 19.2588 105.358 19.2588C105.52 19.2597 105.837 19.4317 106.061 19.6416C106.442 19.9973 106.466 20.0666 106.39 20.6143C106.239 21.7178 105.635 22.1995 104.358 22.2373L103.607 22.2588L103.639 23.0049C103.679 23.9614 103.848 25.1823 104.17 26.8496C104.506 28.5945 104.512 29.9448 104.186 30.3828C103.872 30.8041 103.232 30.9959 102.942 30.7568C102.322 30.2426 102.243 29.105 102.704 27.3486C102.986 26.2731 103.017 25.9045 103.019 23.6553C103.021 22.2813 103.062 21.1562 103.11 21.1562C103.161 21.1589 103.358 21.3092 103.549 21.4922C104.223 22.138 105.103 21.8081 105.259 20.8506C105.329 20.4159 105.293 20.3302 104.875 19.9473C104.325 19.4438 104.306 19.2254 104.671 17.6621C104.812 17.057 104.911 16.5172 104.891 16.4639C104.87 16.4118 104.542 16.5584 104.161 16.79C103.148 17.4062 102.923 17.4493 102.772 17.0537C102.517 16.382 102.992 15.8202 104.119 15.46C104.525 15.3306 105.099 15.2214 105.394 15.2178ZM80.2518 23.8877C80.2519 23.5099 80.2823 23.5124 78.369 23.7627C77.7503 23.8436 77.3993 24.1533 76.5819 25.3418C76.3152 25.7295 75.6657 26.4499 75.1385 26.9424C74.0005 28.0052 73.9325 28.2727 74.6503 28.8643C75.2 29.3173 75.8479 29.5602 76.2411 29.46C76.6454 29.3554 77.7877 28.3137 78.2469 27.6299C78.4648 27.3056 78.8311 26.841 79.0604 26.5977C79.5064 26.1235 80.2518 24.4284 80.2518 23.8877ZM61.1073 9.22266C61.2598 9.07188 61.525 9.13548 61.7733 9.38379C62.0722 9.68315 62.286 10.4112 62.287 11.1348C62.2875 11.4323 62.4045 12.0013 62.5467 12.3994C62.8843 13.3443 63.0506 14.2273 62.9227 14.3887C62.658 14.7146 61.1022 17.8582 60.952 18.3701C60.8605 18.6847 60.6969 19.4168 60.5887 19.9961C60.3733 21.1494 60.4241 21.3866 60.9637 21.7402C61.4721 22.0738 61.3876 22.602 60.7704 22.9551C60.1627 23.3021 60.103 23.6994 60.5907 24.1514C60.8896 24.4285 60.9108 24.512 60.8319 25.1143C60.7844 25.4763 60.6664 25.8873 60.5692 26.0273C60.4721 26.1662 60.2978 26.4092 60.1835 26.5674L59.9754 26.8555L60.6463 26.8311C61.2325 26.8104 61.3531 26.8503 61.6122 27.1514C61.9226 27.5122 61.9781 27.8069 61.7928 28.1006C61.7021 28.244 61.5754 28.2506 61.119 28.1357C60.3549 27.9434 59.5344 28.2022 58.5331 28.9512C58.0259 29.3307 57.935 29.3286 57.7538 28.9307C57.447 28.2574 57.5993 27.5114 58.1131 27.166C58.8113 26.6956 59.2582 25.3892 58.8583 24.9883C58.7702 24.8997 58.7484 24.6214 58.7997 24.2363C58.8443 23.8994 58.8931 23.3953 58.9081 23.1172C58.9348 22.6172 58.9292 22.6103 58.4295 22.5479C57.9393 22.4866 57.9246 22.4715 57.9667 22.0518C58.0002 21.7194 58.1727 21.4652 58.7088 20.958C59.0925 20.595 59.3822 20.2203 59.3514 20.126C59.3126 20.0092 58.9768 19.9349 58.2928 19.8916L57.2909 19.8281L57.2547 19.4492C57.224 19.1222 57.296 19.0208 57.7762 18.7197C58.5994 18.2036 59.4624 17.4074 60.0282 16.6416C60.5004 16.0024 60.543 15.8692 60.7753 14.291C60.9208 13.3014 61.022 11.9416 61.0223 10.9629C61.0227 10.0528 61.0609 9.26895 61.1073 9.22266ZM70.579 10.7754C70.6711 10.6293 71.1062 10.6193 71.1639 10.7627C71.1871 10.8211 71.49 11.0673 71.8368 11.3096C72.1835 11.552 72.566 11.9192 72.6864 12.125C72.8966 12.4852 72.8936 12.5423 72.5936 13.6328C72.4227 14.2539 72.2821 14.8035 72.2811 14.8564C72.2817 14.9056 72.5811 14.8066 72.9462 14.6367C73.3115 14.4669 73.8452 14.3268 74.1317 14.3262C74.6402 14.3249 74.651 14.3345 74.5741 14.6943C74.5164 14.9637 74.29 15.2005 73.7362 15.5713C73.3191 15.8505 72.6639 16.3602 72.2811 16.7031C71.6734 17.2479 71.5168 17.4962 71.0389 18.6621C70.7382 19.396 70.2318 20.4143 69.9149 20.9248C69.1908 22.0903 68.6131 23.2923 68.617 23.623C68.6207 23.8579 68.6417 23.8542 68.9071 23.5605C69.0659 23.3853 69.7524 22.734 70.4335 22.1133C71.1154 21.4915 72.024 20.5311 72.452 19.9795C73.3792 18.7842 73.2896 18.9305 73.8553 17.6904C74.3492 16.6077 74.5526 16.4976 74.3153 17.4404C74.1914 17.9326 74.1962 18.0654 74.3465 18.2158C74.6459 18.5141 75.8363 18.1914 77.2919 17.416C78.8087 16.6081 80.6284 16.1025 80.6307 16.4883C80.6307 16.7651 79.8098 17.3842 78.8085 17.8623C77.6847 18.3986 76.5333 18.6923 75.036 18.8262C74.1918 18.9016 74.0482 18.951 73.9784 19.1816C73.9341 19.3284 73.7707 19.5908 73.6161 19.7646C73.4612 19.9384 73.1522 20.3576 72.9305 20.6943C72.384 21.5245 72.1462 21.7859 69.826 24.1025C68.0295 25.8964 67.3142 26.4757 67.1268 26.291C67.0939 26.2581 67.0377 25.865 67.0018 25.418C66.9376 24.6183 66.9447 24.5949 67.4559 23.9482C68.0837 23.1537 68.5988 22.1007 69.1014 20.584C69.7361 18.6692 69.8704 18.1329 69.7391 18.0498C69.6704 18.0085 69.1718 18.1827 68.6307 18.4365C67.9521 18.755 67.5104 18.8854 67.2118 18.8574C66.7809 18.8164 66.7786 18.8125 66.746 18.1201C66.7004 17.1527 66.8034 17.0292 67.4979 17.2236C67.9842 17.3597 68.1353 17.3471 68.7499 17.1172C69.8547 16.7036 70.3001 16.2087 70.577 15.084C70.8378 14.0239 70.8693 12.448 70.6483 11.502C70.5703 11.1675 70.539 10.8409 70.579 10.7754ZM93.6131 8C93.7634 8.00165 94.2414 8.30968 94.3768 8.49316C94.8456 9.12953 94.5723 10.8162 93.7303 12.4854L93.159 13.6182L93.41 13.8848C93.5481 14.032 93.6839 14.3865 93.7118 14.6729C93.7435 15.0028 93.8999 15.3707 94.1395 15.6768C94.3473 15.9423 94.5701 16.3268 94.6346 16.5312C94.6991 16.7356 94.8106 16.9225 94.8817 16.9463C95.067 16.9859 96.9209 13.6297 96.7899 13.4902C96.6874 13.3877 95.9484 13.7919 95.3475 14.2783C94.7677 14.7477 94.2914 14.8406 94.2977 14.4834C94.302 14.345 94.8732 13.864 95.8065 13.2139C97.0493 12.3481 97.3677 12.1795 97.6376 12.2471C98.3009 12.4149 98.2391 13.6412 97.4872 15.2109C96.8125 16.6187 94.7924 19.6583 94.2606 20.0664C93.57 20.5932 92.2019 21.1684 91.4549 21.2461C91.0685 21.286 90.7515 21.2833 90.7508 21.2402C90.753 21.1963 90.9946 21.0397 91.2889 20.8926C91.9376 20.5676 92.9022 19.6643 92.9022 19.3809C92.9014 19.2681 92.7524 19.0384 92.5712 18.8701C92.2522 18.5748 92.2341 18.5725 92.0965 18.8037C91.7875 19.3233 91.2401 19.867 90.8739 20.0195C90.6025 20.1319 90.3977 20.3731 90.1776 20.8379C89.6662 21.9189 89.2404 22.1294 88.5653 21.6357C88.303 21.4438 87.8463 19.422 87.8436 18.4434L87.8417 17.8184L88.2958 18.2539C88.5455 18.4938 88.9237 19.0314 89.1356 19.4482C89.4845 20.1347 89.5312 20.1792 89.6268 19.9209C89.8049 19.4359 89.4452 18.0914 88.4237 15.4297C87.8515 13.9386 88.0463 13.5596 88.9608 14.3857L89.4481 14.8262L90.285 14.5938C90.7449 14.4661 91.2414 14.2824 91.3876 14.1855C91.8878 13.8493 93.2031 10.3737 93.3544 8.98535C93.402 8.54816 93.4653 8.14695 93.495 8.09473C93.5249 8.0431 93.5781 8.0002 93.6131 8ZM113.965 13.8496C114.285 13.8772 114.339 13.9314 114.309 14.1953C114.248 14.7431 113.709 15.7489 112.887 16.8535C112.063 17.9598 111.684 18.0738 112.364 17.0107C112.863 16.2307 113.398 15.0665 113.318 14.9355C113.055 14.5149 109.639 17.7105 108.707 19.25C108.396 19.7637 108.08 20.2044 108.005 20.2334C107.931 20.2576 107.804 20.0519 107.722 19.7764C107.594 19.351 107.606 19.1832 107.803 18.665C108.049 18.0184 109.577 15.6551 109.682 15.7568C109.716 15.7922 109.657 16.1106 109.553 16.4639C109.448 16.8177 109.408 17.1071 109.466 17.1084C109.528 17.1032 109.984 16.7212 110.481 16.2549C110.982 15.7853 111.885 15.0446 112.488 14.6094C113.334 13.999 113.672 13.8246 113.965 13.8496ZM111.34 18.4404C111.505 18.2182 111.571 18.1907 111.603 18.3311C111.631 18.4505 111.723 18.4877 111.857 18.4336C111.974 18.3868 112.282 18.3181 112.542 18.2812C112.984 18.2184 113.016 18.2358 113.016 18.542C113.016 18.9835 112.321 19.763 111.928 19.7646C111.556 19.7646 111.118 19.3506 111.118 18.998C111.118 18.8545 111.218 18.6034 111.34 18.4404ZM49.5604 11.8154C50.0235 11.5911 50.094 11.6486 50.5604 12.6494C51.4413 14.5399 51.3189 15.3314 49.9032 16.9219C49.4718 17.4065 48.9653 18.0458 48.7772 18.3418C48.4436 18.8672 48.1191 19.0483 48.119 18.71C48.1199 18.6147 48.3529 17.9819 48.6366 17.3027C49.268 15.7912 49.4041 14.6413 49.0829 13.5361C48.8903 12.8735 48.8907 12.7901 49.0848 12.3828C49.2 12.1419 49.4141 11.8865 49.5604 11.8154ZM91.0575 17.8818C90.6036 17.5249 90.4948 17.545 90.62 17.9619C90.8188 18.6239 90.9105 18.7655 91.1151 18.7266C91.4625 18.6592 91.43 18.1754 91.0575 17.8818ZM93.2919 17.3389C93.2084 17.6395 93.1572 17.9769 93.1786 18.0879C93.2512 18.4625 93.5034 18.387 93.5809 17.9678C93.6231 17.7385 93.6095 17.3804 93.5506 17.1719L93.4442 16.792L93.2919 17.3389ZM92.7577 17.4883C92.6979 17.4883 92.6494 17.631 92.6493 17.8047C92.6493 17.9782 92.6706 18.1197 92.6971 18.1201C92.7241 18.1158 92.7737 17.9758 92.8065 17.8047C92.8393 17.6322 92.8167 17.4902 92.7577 17.4883ZM58.2596 10.0244C58.6318 10.0289 58.5813 11.5479 58.1669 12.7852C57.5005 14.7728 56.9658 15.7079 55.9481 16.666C55.0027 17.5559 54.3865 17.9755 54.2401 17.8311C54.0954 17.6863 54.3175 17.1169 54.6825 16.6992C54.8814 16.4712 55.2495 15.8766 55.4999 15.3779C55.7502 14.8797 56.0123 14.4361 56.0819 14.3926C56.2743 14.2707 56.7027 13.2652 57.1864 11.7959C57.4267 11.0662 57.7144 10.3682 57.8251 10.2461C57.9358 10.1245 58.1317 10.0244 58.2596 10.0244ZM93.0653 14.4922C92.923 14.1217 92.6708 14.3719 92.3426 15.208C91.9707 16.156 91.5485 16.6133 90.8251 16.8525C90.1626 17.0711 90.3732 17.3022 91.2137 17.2783L91.9256 17.2578L92.2948 16.6182C92.7466 15.8355 93.1519 14.7179 93.0653 14.4922ZM90.0213 15.3887C89.7509 15.3116 89.7415 15.3281 89.87 15.666C90.0273 16.0798 90.2301 16.3496 90.3827 16.3496C90.5092 16.3451 91.0033 15.8364 91.0038 15.709C91.0026 15.6614 90.8463 15.5877 90.6561 15.5459C90.4653 15.5043 90.1797 15.4336 90.0213 15.3887ZM79.0643 11.1387C79.1577 10.9942 80.0962 11.0124 80.3817 11.165C80.5137 11.2364 80.6867 11.5333 80.7655 11.8252L80.909 12.3574L80.3583 12.8203C78.7663 14.1594 77.4697 15.0001 77.4686 14.6934C77.4696 14.6138 77.6888 14.2857 77.9569 13.9639C78.6374 13.147 79.017 12.3477 79.0087 11.7471C79.0049 11.4693 79.0298 11.1956 79.0643 11.1387ZM62.035 13.3652C62.0347 13.0249 61.7251 12.9517 61.6053 13.2637C61.5631 13.3738 61.5308 13.6439 61.5331 13.8643L61.537 14.2656L61.786 13.9668C61.9228 13.8026 62.035 13.5314 62.035 13.3652ZM112.426 10.4766C112.545 10.1684 113.054 10.2408 113.616 10.6475C114.606 11.3648 114.804 12.0872 114.207 12.7979C113.843 13.2299 113.594 13.2743 113.072 13.0039C112.691 12.8064 112.304 12.9177 112.172 13.2617C112.133 13.3631 111.986 13.5082 111.848 13.583C111.568 13.7327 111.574 13.7159 112.086 12.959C112.561 12.2555 112.69 11.7078 112.508 11.1562C112.42 10.8921 112.384 10.5862 112.426 10.4766Z" fill="#231917"/>
</svg>
