<svg width="164" height="56" viewBox="0 0 164 56" fill="none" xmlns="http://www.w3.org/2000/svg">
<rect width="164" height="56" rx="6.58824" stroke="#EAECF0"/>
<rect x="0.5" y="0.5" width="163" height="55" rx="6.08824" fill="white" stroke="#EAECF0"/>
<path d="M39.5245 13.6267C39.7023 13.7142 39.7023 13.7142 39.8883 13.8252C39.9586 13.8667 40.0289 13.9083 40.1013 13.9511C40.2147 14.0191 40.2147 14.0191 40.3304 14.0885C40.4942 14.1854 40.658 14.2823 40.8219 14.3792C40.9065 14.4294 40.9912 14.4796 41.0783 14.5313C41.4854 14.7716 41.8951 15.0073 42.3049 15.243C42.4696 15.338 42.6343 15.4329 42.7991 15.5278C42.8809 15.575 42.9627 15.6221 43.047 15.6706C43.4563 15.9065 43.8655 16.1426 44.2746 16.3787C44.438 16.473 44.6014 16.5672 44.7647 16.6615C47.7053 18.3579 47.7053 18.3579 47.9504 18.4994C48.1135 18.5934 48.2765 18.6875 48.4396 18.7816C48.8528 19.0199 49.2659 19.2583 49.6789 19.4969C49.8046 19.5695 49.8046 19.5695 49.9329 19.6435C50.0885 19.7333 50.244 19.8232 50.3995 19.913C51.1713 20.3586 51.9455 20.7998 52.7193 21.2419C52.7193 26.4422 52.7193 31.6424 52.7193 37.0002C48.3085 39.545 48.3085 39.545 48.0632 39.6865C47.9007 39.7802 47.7382 39.874 47.5757 39.9677C47.1983 40.1854 46.821 40.4031 46.4436 40.6207C46.3117 40.6968 46.1797 40.7729 46.0477 40.849C45.8834 40.9437 45.719 41.0385 45.5547 41.1332C45.0265 41.4378 44.4994 41.7443 43.9731 42.052C43.8203 41.8228 43.7654 41.6568 43.6935 41.3931C43.6685 41.3032 43.6434 41.2133 43.6176 41.1206C43.6042 41.0722 43.5908 41.0238 43.577 40.9739C43.0517 39.0852 42.3903 37.241 41.7213 35.3993C39.8908 30.3596 39.8908 30.3596 39.5999 27.7262C39.5902 27.6473 39.5805 27.5684 39.5705 27.4871C39.3689 25.5667 39.5929 23.6003 40.2031 21.7697C39.5801 22.0523 39.0542 22.3687 38.5443 22.8253C38.4823 22.8802 38.4203 22.9351 38.3564 22.9917C37.4878 23.8076 36.9222 24.8093 36.5086 25.9166C36.4888 25.9694 36.469 26.0222 36.4486 26.0766C35.1997 29.4968 35.4151 33.3107 35.4031 36.8955C35.4011 37.5003 35.3978 38.1052 35.3944 38.7101C35.3874 39.9497 35.382 41.1893 35.3776 42.4289C35.0228 42.3686 34.7623 42.229 34.4587 42.0425C34.3437 41.9734 34.2286 41.9044 34.1135 41.8355C34.0191 41.7788 34.0191 41.7788 33.9228 41.7209C33.5445 41.4958 33.1626 41.2771 32.7811 41.0576C32.6115 40.96 32.442 40.8623 32.2724 40.7646C32.1873 40.7156 32.1022 40.6665 32.0145 40.616C31.6023 40.3786 31.1903 40.1408 30.7783 39.9031C30.6149 39.8088 30.4516 39.7146 30.2882 39.6204C29.308 39.0549 29.308 39.0549 29.0625 38.9132C28.9006 38.8198 28.7388 38.7264 28.5769 38.6331C28.1924 38.4113 27.808 38.1895 27.4238 37.9675C27.2413 37.8621 27.0588 37.7567 26.8764 37.6514C26.7469 37.5766 26.6174 37.5017 26.4879 37.4269C26.4101 37.3819 26.3322 37.337 26.252 37.2907C26.1832 37.2509 26.1143 37.2111 26.0433 37.1701C25.9392 37.1108 25.8337 37.0538 25.7266 37.0002C25.6878 34.9725 25.6586 32.9447 25.6406 30.9166C25.6321 29.9749 25.6205 29.0334 25.6014 28.0917C25.5849 27.2708 25.5742 26.4499 25.5705 25.6288C25.5684 25.1941 25.5633 24.7599 25.5512 24.3254C25.4803 21.6801 25.4803 21.6801 25.8889 21.0782C26.2723 20.7219 26.6913 20.5384 27.1903 20.3968C27.4608 20.3141 27.6695 20.1857 27.9073 20.0338C28.0537 19.9495 28.2002 19.8652 28.3467 19.7811C28.5128 19.6855 28.6789 19.5898 28.845 19.4942C28.9278 19.4466 29.0105 19.399 29.0958 19.35C29.5061 19.1139 29.916 18.8773 30.3259 18.6407C30.4893 18.5464 30.6526 18.4522 30.816 18.3579C30.8969 18.3113 30.9777 18.2646 31.061 18.2166C32.613 17.3212 34.1649 16.4258 35.7169 15.5305C35.7979 15.4837 35.8789 15.437 35.9623 15.3888C36.1243 15.2954 36.2864 15.2021 36.4486 15.109C36.8324 14.8884 37.2153 14.6663 37.5953 14.4392C37.7753 14.3318 37.9557 14.2252 38.1361 14.1187C38.2636 14.043 38.3904 13.9661 38.5171 13.8892C38.5942 13.8438 38.6714 13.7984 38.7508 13.7516C38.8185 13.711 38.8862 13.6704 38.9559 13.6286C39.1891 13.5345 39.2881 13.5473 39.5245 13.6267Z" fill="#124CA9"/>
<path d="M91.5067 16.5665C91.6035 16.5639 91.7003 16.5614 91.8 16.5587C92.5957 16.5534 93.1196 16.7425 93.8104 17.1424C94.0814 17.4134 94.108 17.5875 94.1373 17.9674C93.985 18.2525 93.985 18.2525 93.7559 18.5433C93.4046 19.0032 93.1537 19.441 92.9154 19.9676C92.6134 20.5494 92.6134 20.5494 92.2037 20.6919C91.8888 20.7204 91.5887 20.7172 91.2732 20.707C91.1499 20.7686 91.1499 20.7686 91.0241 20.8315C90.9657 21.1822 90.9657 21.1822 90.9463 21.5864C90.937 21.724 90.9277 21.8616 90.9181 22.0033C90.909 22.163 90.909 22.163 90.8996 22.3258C90.9862 22.3145 91.0729 22.3032 91.1621 22.2915C91.5571 22.2402 91.9522 22.1896 92.3472 22.139C92.4835 22.1212 92.6198 22.1034 92.7602 22.085C92.9589 22.0598 92.9589 22.0598 93.1615 22.034C93.2828 22.0183 93.4041 22.0027 93.5291 21.9865C94.5569 21.8884 94.5569 21.8884 94.899 22.1668C95.5629 23.0504 95.5629 23.0504 95.5693 23.5711C95.5071 23.9447 95.5071 23.9447 95.3826 24.0692C95.1953 24.061 95.0084 24.0438 94.8222 24.0225C94.7079 24.0101 94.5936 23.9978 94.4759 23.985C94.2784 23.9615 94.0811 23.9366 93.8844 23.9082C92.8547 23.7672 91.8119 23.8101 90.7751 23.8201C90.7675 23.9028 90.76 23.9855 90.7522 24.0706C90.7418 24.1806 90.7314 24.2906 90.7206 24.4038C90.7054 24.5664 90.7054 24.5664 90.69 24.7322C90.6517 25.0558 90.5943 25.3695 90.526 25.688C90.663 25.6912 90.7999 25.6944 90.941 25.6978C92.2869 25.7436 93.6107 25.8194 94.6354 26.8088C94.4746 27.1617 94.2987 27.4062 94.0361 27.6882C93.4356 28.4609 93.2904 29.4761 93.076 30.4111C93.0177 30.664 92.9557 30.9156 92.892 31.1672C92.7639 31.1741 92.6358 31.181 92.5038 31.1881C92.0262 31.2139 91.5486 31.2402 91.071 31.2667C90.8647 31.2781 90.6584 31.2893 90.4521 31.3004C90.1547 31.3164 89.8573 31.333 89.56 31.3496C89.4685 31.3544 89.377 31.3592 89.2828 31.3641C88.7764 31.393 88.285 31.4471 87.7865 31.5408C86.8163 30.5039 85.8542 28.8752 85.8563 27.4158C85.8769 27.2566 85.8974 27.0973 85.9186 26.9333C86.2841 26.8078 86.65 26.6837 87.016 26.5597C87.1197 26.5241 87.2235 26.4884 87.3304 26.4517C87.4803 26.4012 87.4803 26.4012 87.6332 26.3496C87.7252 26.3183 87.8171 26.287 87.9119 26.2547C88.16 26.1861 88.16 26.1861 88.5336 26.1861C88.5578 25.9216 88.581 25.657 88.6037 25.3923C88.6232 25.1712 88.6232 25.1712 88.6431 24.9457C88.6882 24.5774 88.6882 24.5774 88.5336 24.3182C88.3363 24.3224 88.1392 24.3311 87.9421 24.3416C87.7774 24.3481 87.7774 24.3481 87.6094 24.3547C86.9182 24.5443 86.5972 25.3454 86.2455 25.9293C86.1958 26.0105 86.1462 26.0918 86.095 26.1755C85.77 26.7218 85.5413 27.2538 85.3271 27.8517C84.7574 29.242 83.3678 29.8323 82.0544 30.4093C81.5872 30.5802 81.184 30.6496 80.6885 30.6691C81.1358 30.1099 81.6169 29.6265 82.1517 29.1514C85.6041 26.0469 86.2181 21.998 86.6657 17.5938C87.1715 17.4508 87.6774 17.3082 88.1834 17.1658C88.3267 17.1252 88.4699 17.0847 88.6175 17.0429C88.756 17.004 88.8944 16.9651 89.0371 16.925C89.1642 16.8891 89.2914 16.8533 89.4224 16.8163C90.1308 16.6292 90.7774 16.5713 91.5067 16.5665ZM89.6544 17.9985C89.5641 18.0257 89.4739 18.0528 89.381 18.0807C88.7421 18.2673 88.7421 18.2673 88.2846 18.7146C88.1864 19.0252 88.1864 19.0252 88.1367 19.3605C88.117 19.4727 88.0972 19.585 88.0769 19.7006C88.0632 19.7861 88.0496 19.8717 88.0355 19.9598C88.4121 19.9279 88.782 19.8865 89.1563 19.8353C89.2954 19.8167 89.4346 19.7981 89.578 19.7789C90.3542 19.6722 90.3542 19.6722 90.9658 19.2375C91.1617 18.7559 91.1958 18.3423 91.0241 17.8429C90.5129 17.6725 90.1476 17.8397 89.6544 17.9985ZM87.7631 21.4386C87.4593 21.9623 87.376 22.479 87.2884 23.073C87.5323 23.0137 87.7762 22.9539 88.02 22.894C88.1558 22.8607 88.2916 22.8275 88.4315 22.7933C88.7733 22.7145 88.7733 22.7145 89.0317 22.5749C89.0689 21.9676 89.0689 21.9676 88.8839 21.3997C88.6672 21.1824 88.6672 21.1824 88.3546 21.135C88.0185 21.1825 88.0185 21.1825 87.7631 21.4386ZM88.2067 27.5715C87.9706 28.0652 87.9527 28.5116 88.0355 29.0502C88.1908 29.4456 88.1908 29.4456 88.5336 29.6729C88.816 29.6915 89.099 29.7004 89.382 29.704C89.5343 29.7072 89.6866 29.7104 89.8436 29.7137C90.3108 29.6697 90.5329 29.5864 90.8996 29.2993C91.2403 28.8503 91.386 28.3909 91.46 27.8361C91.4235 27.4321 91.4235 27.4321 91.2187 27.1279C90.339 26.5914 88.9665 26.9565 88.2067 27.5715Z" fill="#009FE8"/>
<path d="M107.088 14.6055C107.741 14.6566 108.121 14.7528 108.583 15.2281C108.7 15.4927 108.7 15.4927 108.707 15.7262C108.625 15.8084 108.543 15.8906 108.458 15.9753C108.412 16.2525 108.412 16.2525 108.407 16.5716C108.402 16.6888 108.397 16.806 108.392 16.9267C108.388 17.0494 108.384 17.172 108.38 17.2983C108.376 17.4219 108.371 17.5455 108.366 17.6729C108.354 17.9787 108.343 18.2845 108.334 18.5903C108.469 18.5487 108.604 18.5072 108.744 18.4643C109.221 18.3371 109.483 18.3239 109.953 18.4658C110.238 18.8936 110.224 19.0866 110.202 19.5865C109.626 19.8451 109.068 20.0473 108.458 20.2091C108.417 20.4968 108.376 20.7845 108.334 21.0808C108.403 21.0628 108.472 21.0449 108.544 21.0263C109.198 20.8672 109.778 20.8073 110.451 20.8318C110.955 21.6109 110.955 21.6109 110.925 22.0615C110.824 22.3261 110.824 22.3261 110.7 22.4506C110.497 22.4789 110.293 22.4997 110.088 22.5173C109.965 22.5281 109.842 22.5389 109.715 22.5501C109.585 22.5609 109.456 22.5718 109.322 22.5829C109.127 22.5999 109.127 22.5999 108.928 22.6172C108.605 22.6452 108.283 22.6727 107.96 22.6997C107.96 22.9873 107.96 23.275 107.96 23.5713C108.083 23.5303 108.207 23.4892 108.334 23.4468C109.349 23.3943 110.207 23.516 111.073 24.0695C110.679 27.1547 110.679 27.1547 110.451 28.5524C110.204 28.5661 109.958 28.5756 109.711 28.5835C109.574 28.5893 109.437 28.5951 109.295 28.601C108.701 28.5387 108.241 28.3209 107.711 28.0543C107.709 28.136 107.706 28.2177 107.704 28.3018C107.692 28.6708 107.678 29.0396 107.664 29.4085C107.661 29.5371 107.657 29.6657 107.653 29.7981C107.648 29.9209 107.643 30.0437 107.638 30.1703C107.634 30.2837 107.63 30.3972 107.626 30.5141C107.587 30.7939 107.587 30.7939 107.337 31.0429C107.077 31.1032 107.077 31.1032 106.777 31.1363C106.678 31.1485 106.579 31.1607 106.477 31.1733C106.217 31.1674 106.217 31.1674 105.968 30.9184C105.949 30.5788 105.949 30.5788 105.966 30.1469C105.972 29.9891 105.978 29.8314 105.984 29.6688C105.991 29.499 105.999 29.3292 106.007 29.1595C106.013 28.9885 106.02 28.8176 106.027 28.6467C106.073 27.4935 106.13 26.3411 106.217 25.1902C105.722 25.3506 105.498 25.4992 105.221 25.9373C105.13 26.2133 105.13 26.2133 105.084 26.5089C105.064 26.6169 105.044 26.7248 105.023 26.836C105.003 26.9478 104.984 27.0596 104.964 27.1748C104.722 28.5212 104.722 28.5212 104.473 29.0505C104.153 29.0072 103.907 28.9621 103.633 28.7859C103.23 28.1824 103.336 27.308 103.368 26.6067C103.37 26.5149 103.371 26.423 103.372 26.3284C103.395 25.841 103.439 25.6151 103.739 25.215C104.209 24.8584 104.707 24.6266 105.243 24.3927C105.694 24.1935 105.694 24.1935 105.966 23.8014C105.966 23.7255 105.967 23.6496 105.968 23.5713C105.927 23.5303 105.886 23.4892 105.843 23.4468C105.342 23.5266 104.85 23.6559 104.357 23.7737C104.219 23.8047 104.082 23.8357 103.94 23.8676C102.763 24.147 101.668 24.4996 100.862 25.4392C100.435 25.3239 100.269 25.2324 100.014 24.8633C99.8339 24.3519 99.8381 23.9856 99.8659 23.4468C99.9527 23.431 100.039 23.4153 100.129 23.399C100.516 23.3165 100.887 23.208 101.265 23.0912C101.415 23.0448 101.565 22.9984 101.72 22.9506C101.881 22.9007 102.041 22.8508 102.201 22.8008C102.281 22.7758 102.362 22.7508 102.445 22.725C103.713 22.3307 104.971 21.9142 106.217 21.4544C106.217 21.3722 106.217 21.29 106.217 21.2054C106.124 21.2082 106.031 21.2111 105.935 21.2141C105.812 21.2164 105.689 21.2186 105.563 21.2209C105.442 21.2238 105.32 21.2267 105.195 21.2297C104.845 21.2052 104.647 21.1363 104.349 20.9563C104.258 21.0777 104.258 21.0777 104.166 21.2015C103.492 22.0409 103.492 22.0409 103.065 22.1515C102.792 22.1471 102.792 22.1471 102.356 22.077C102.533 21.4945 102.771 20.963 103.057 20.4271C103.1 20.3459 103.143 20.2648 103.188 20.1811C103.581 19.4618 104.054 18.831 104.598 18.2167C105.091 18.2829 105.185 18.296 105.509 18.707C105.719 19.0884 105.719 19.0884 105.719 19.3375C106.047 19.2964 106.376 19.2553 106.715 19.2129C106.713 19.1309 106.711 19.0488 106.709 18.9643C106.647 15.952 106.647 15.952 107.088 14.6055ZM107.96 24.5676C107.634 25.4243 107.688 26.2763 107.711 27.1826C108.073 27.2053 108.073 27.2053 108.458 27.1826C108.887 26.7658 109.199 26.3013 109.21 25.6898C109.179 25.2817 109.136 25.0039 108.863 24.6921C108.54 24.5485 108.31 24.5384 107.96 24.5676Z" fill="#009FE8"/>
<path d="M66.8683 17.2188C67.5073 17.302 68.0611 17.4376 68.6661 17.6624C68.82 17.719 68.974 17.7757 69.1326 17.8341C69.2483 17.8776 69.3641 17.9211 69.4833 17.9659C69.4833 18.3395 69.4833 18.3395 69.2438 18.683C68.9587 19.1281 68.8942 19.4208 68.832 19.9418C68.8117 20.1034 68.7914 20.2651 68.7704 20.4316C68.7512 20.6007 68.732 20.7698 68.7128 20.939C68.6923 21.1071 68.6716 21.2753 68.6508 21.4434C68.6115 21.764 68.5732 22.0847 68.536 22.4055C68.4977 22.732 68.456 23.0575 68.4117 23.3833C68.2978 24.3922 68.2967 25.4342 68.4871 26.4337C68.6014 26.4322 68.7157 26.4308 68.8334 26.4293C68.9862 26.4282 69.1391 26.4271 69.2965 26.4259C69.5219 26.4237 69.5219 26.4237 69.7518 26.4215C70.2538 26.4343 70.7298 26.4884 71.2267 26.5582C71.4475 25.398 71.6616 24.2376 71.8493 23.0715C72.341 23.2567 72.7978 23.4796 73.258 23.733C73.4576 23.8402 73.4576 23.8402 73.6613 23.9495C73.9662 24.1922 73.9662 24.1922 74.0105 24.5322C73.9959 24.6255 73.9813 24.7188 73.9662 24.8148C73.8892 24.8405 73.8121 24.8662 73.7328 24.8927C73.3582 25.135 73.3527 25.387 73.2191 25.8111C73.0821 26.1584 72.9359 26.502 72.791 26.8462C72.4881 27.5726 72.2064 28.2961 71.9738 29.0487C71.9016 29.0232 71.8294 28.9977 71.7549 28.9714C71.6577 28.9378 71.5604 28.9043 71.4602 28.8697C71.3648 28.8365 71.2695 28.8033 71.1712 28.769C70.4835 28.5661 69.8151 28.5302 69.1019 28.5351C68.9628 28.536 68.9628 28.536 68.8208 28.5369C67.3453 28.5527 66.0598 28.5915 64.7747 29.3912C64.4367 29.5843 64.262 29.6253 63.8796 29.5468C63.6384 29.3133 63.6384 29.3133 63.3815 28.9242C63.3223 28.8364 63.2631 28.7486 63.202 28.6581C62.1777 27.0638 61.8738 25.4309 62.1363 23.5696C62.8335 23.3699 63.5779 23.3193 64.2532 23.6007C64.5127 23.8278 64.6086 24.0084 64.7513 24.3167C64.6456 24.4321 64.6456 24.4321 64.5378 24.5497C64.0101 25.159 63.651 25.6179 63.5863 26.4327C63.6437 26.7571 63.7928 26.9334 64.0042 27.1808C64.3526 27.0898 64.6999 26.9961 65.0471 26.9007C65.1459 26.8751 65.2448 26.8496 65.3467 26.8233C65.4414 26.7968 65.5361 26.7703 65.6337 26.7431C65.7211 26.7196 65.8085 26.6961 65.8985 26.6719C66.2078 26.5139 66.2581 26.3885 66.3701 26.0601C66.4144 25.7589 66.4467 25.4558 66.4718 25.1524C66.4794 25.0622 66.487 24.972 66.4949 24.8791C66.5194 24.5828 66.5422 24.2863 66.5647 23.9899C66.5727 23.8888 66.5808 23.7878 66.589 23.6837C66.7592 21.5308 66.8306 19.3776 66.8683 17.2188Z" fill="#009FE8"/>
<path d="M134.372 19.8984C134.875 19.9883 135.048 20.1831 135.354 20.5853C135.479 20.9744 135.479 20.9744 135.479 21.3324C135.339 21.527 135.339 21.527 135.105 21.706C134.657 22.142 134.254 22.5918 133.86 23.0758C134.103 23.045 134.103 23.045 134.35 23.0135C137.365 22.7211 137.365 22.7211 138.537 23.5506C138.716 23.823 138.716 23.823 138.709 24.181C138.592 24.5701 138.592 24.5701 138.406 24.9087C138.192 25.3737 138.138 25.7586 138.086 26.2668C138.066 26.4447 138.046 26.6225 138.025 26.8004C138.006 26.9702 137.988 27.1399 137.969 27.3097C137.864 28.2492 137.647 29.0357 137.271 29.9052C136.939 30.6963 136.748 31.5129 136.567 32.3498C136.544 32.4518 136.521 32.5539 136.497 32.659C136.477 32.7501 136.458 32.8413 136.438 32.9352C136.35 33.1624 136.35 33.1624 135.977 33.4115C135.354 33.3963 134.87 33.128 134.33 32.8448C134.093 32.721 133.853 32.6022 133.611 32.4877C132.428 31.9254 131.338 31.1974 130.498 30.1738C130.498 30.0916 130.498 30.0094 130.498 29.9247C131.083 29.8889 131.47 29.9493 132 30.1986C132.872 30.559 133.802 30.583 134.732 30.5474C135.054 29.854 135.253 29.1651 135.432 28.4226C135.459 28.314 135.486 28.2055 135.514 28.0936C135.983 26.1955 135.983 26.1955 135.603 24.3211C135.144 23.9483 134.588 23.9185 134.015 23.9397C133.084 24.0691 132.203 24.5427 131.47 25.1227C130.965 25.4038 130.551 25.3056 130 25.1927C129.958 24.9873 129.917 24.7818 129.875 24.5701C129.997 24.4791 129.997 24.4791 130.122 24.3862C131.286 23.4821 132.257 22.4272 133.084 21.2064C133.139 21.1259 133.194 21.0453 133.25 20.9624C133.353 20.8079 133.454 20.6518 133.552 20.494C133.802 20.1151 133.915 19.9742 134.372 19.8984Z" fill="#009FE8"/>
<path d="M134.393 13.5625C135.063 13.6295 135.404 13.9405 135.911 14.3564C136.105 14.6054 136.105 14.6054 136.105 14.8311C135.991 15.0812 135.863 15.3101 135.724 15.5471C135.452 15.9475 135.452 15.9475 135.483 16.3488C135.576 16.352 135.669 16.3552 135.765 16.3585C136.751 16.4153 136.751 16.4153 137.179 16.6601C137.429 17.114 137.48 17.5767 137.475 18.0921C137.434 18.1332 137.393 18.1743 137.351 18.2167C137.057 18.1952 136.764 18.1683 136.471 18.1388C135.706 18.0757 135.167 18.0931 134.486 18.4657C133.975 18.9118 133.732 19.4266 133.436 20.0272C133.225 20.3591 133.112 20.4616 132.743 20.5827C132.453 20.5923 132.162 20.5938 131.871 20.5827C131.789 20.4183 131.707 20.2539 131.622 20.0846C131.679 20.0203 131.735 19.9561 131.794 19.89C132.043 19.5151 132.136 19.1495 132.245 18.7148C132.056 18.6721 131.866 18.6309 131.677 18.5902C131.571 18.5671 131.466 18.544 131.357 18.5202C130.944 18.4572 130.546 18.4575 130.128 18.4657C130.122 18.6052 130.116 18.7447 130.11 18.8884C130.1 19.0718 130.091 19.2552 130.081 19.4386C130.076 19.5764 130.076 19.5764 130.07 19.7171C130.044 20.1865 130.02 20.4328 129.754 20.8317C129.365 20.9173 129.365 20.9173 129.007 20.9562C128.801 20.489 128.696 20.0517 128.618 19.5475C128.597 19.4145 128.576 19.2814 128.555 19.1443C128.54 19.0436 128.525 18.943 128.509 18.8393C127.655 19.04 126.833 19.2577 126.019 19.5865C125.584 18.9857 125.446 18.3024 125.271 17.594C125.851 17.1563 126.417 17.1294 127.116 17.0726C127.226 17.0624 127.336 17.0522 127.449 17.0417C127.72 17.0169 127.99 16.9939 128.26 16.9714C128.233 16.8945 128.206 16.8176 128.178 16.7384C127.934 15.9956 127.849 15.3863 127.887 14.6054C129.338 14.5357 129.338 14.5357 130.003 14.979C130.253 15.228 130.253 15.228 130.277 15.6065C130.269 16.0199 130.261 16.4334 130.253 16.8469C131.198 16.7647 132.143 16.6825 133.117 16.5978C133.158 16.2691 133.199 15.9403 133.241 15.6016C133.315 15.2938 133.395 14.9874 133.482 14.6832C133.546 14.4583 133.546 14.4583 133.61 14.2289C133.785 13.7274 133.859 13.6241 134.393 13.5625Z" fill="#009FE8"/>
<path d="M85.4198 17.8438C85.4441 18.0434 85.4672 18.2432 85.4898 18.443C85.5093 18.6099 85.5093 18.6099 85.5292 18.7801C85.5443 19.089 85.5443 19.089 85.4198 19.4626C85.1211 19.5993 85.1211 19.5993 84.7504 19.7194C84.338 19.8549 84.0404 19.9671 83.6764 20.2097C83.5761 20.5968 83.5761 20.5968 83.5285 21.0347C83.4989 21.2567 83.4989 21.2567 83.4687 21.4832C83.455 21.5972 83.4414 21.7112 83.4273 21.8286C83.8348 21.8286 84.1279 21.7956 84.5169 21.7041C84.6916 21.663 84.8662 21.6219 85.0462 21.5795C85.0462 22.1138 85.0462 22.648 85.0462 23.1984C84.8073 23.2677 84.5685 23.3371 84.3224 23.4085C83.807 23.6161 83.6022 23.71 83.3694 24.2228C83.2804 24.6297 83.2147 25.0251 83.1783 25.4398C83.2624 25.4204 83.3465 25.401 83.4332 25.381C83.5443 25.3567 83.6553 25.3325 83.7698 25.3075C83.8796 25.283 83.9894 25.2584 84.1025 25.2331C84.4219 25.191 84.6192 25.2143 84.9216 25.3153C84.1665 26.1549 83.3059 26.7723 82.3858 27.4126C82.1092 27.6084 81.8416 27.8145 81.575 28.0238C81.4886 28.0912 81.4023 28.1586 81.3133 28.2281C81.1383 28.3672 80.9653 28.5088 80.7938 28.6522C80.7074 28.7222 80.6211 28.7922 80.5321 28.8643C80.457 28.9272 80.3819 28.9902 80.3045 29.055C80.0651 29.1756 80.0651 29.1756 79.7582 29.1683C79.3533 29.018 79.1801 28.8134 78.9055 28.483C78.8186 28.3801 78.7318 28.2772 78.6423 28.1711C78.5776 28.0917 78.5129 28.0122 78.4463 27.9304C78.9001 27.4211 79.4412 27.1389 80.0376 26.8315C80.6525 26.4986 81.1806 26.1047 81.3984 25.4068C81.4252 24.9255 81.4252 24.9255 81.4349 24.4436C81.3222 24.4863 81.3222 24.4863 81.2073 24.5297C81.058 24.5834 81.058 24.5834 80.9057 24.6382C80.8074 24.6743 80.7092 24.7104 80.608 24.7477C80.2864 24.8238 80.1208 24.8153 79.8161 24.6927C79.5032 24.1658 79.4921 23.5481 79.4425 22.9493C79.7485 22.8451 80.0546 22.7414 80.3609 22.638C80.4479 22.6083 80.5349 22.5786 80.6245 22.548C81.2822 22.3267 81.2822 22.3267 81.5594 22.3267C81.5452 22.1268 81.5293 21.9271 81.5127 21.7274C81.5041 21.6162 81.4954 21.5049 81.4865 21.3903C81.4515 21.051 81.4515 21.051 81.1859 20.7079C80.816 20.7489 80.4462 20.79 80.0651 20.8324C79.7856 20.1335 79.5878 19.4537 79.4425 18.7154C80.8206 18.4728 82.1998 18.2666 83.5884 18.0931C83.7043 18.0786 83.8201 18.064 83.9395 18.049C84.042 18.0364 84.1445 18.0238 84.25 18.0108C84.4617 17.9806 84.6723 17.9432 84.8819 17.901C85.1707 17.8438 85.1707 17.8438 85.4198 17.8438Z" fill="#009FE8"/>
<path d="M114.562 14.6052C115.112 14.5458 115.515 14.6649 116.023 14.8562C116.207 14.9251 116.207 14.9251 116.395 14.9955C116.536 15.0489 116.536 15.0489 116.679 15.1033C116.672 15.233 116.665 15.3626 116.658 15.4962C116.632 15.9913 116.606 16.4863 116.579 16.9814C116.568 17.193 116.557 17.4047 116.546 17.6163C116.518 18.1407 116.49 18.665 116.463 19.1894C116.442 19.6115 116.419 20.0335 116.395 20.4555C116.303 22.1228 116.282 23.7878 116.282 25.4575C116.282 25.9072 116.28 26.3567 116.277 26.8064C116.265 29.5799 116.265 29.5799 116.803 32.2879C116.652 32.4791 116.652 32.4791 116.43 32.6615C114.524 32.658 111.934 31.0684 110.577 29.7974C110.577 29.6741 110.577 29.5508 110.577 29.4238C111.144 29.3929 111.565 29.4018 112.095 29.6106C112.814 29.8778 113.555 29.8561 114.313 29.7974C114.465 29.6731 114.465 29.6731 114.452 29.4268C114.452 29.318 114.452 29.2091 114.452 29.097C114.452 28.9725 114.452 28.848 114.452 28.7197C114.451 28.582 114.45 28.4443 114.45 28.3024C114.449 28.1582 114.449 28.0141 114.449 27.8656C114.449 27.5514 114.448 27.2372 114.447 26.923C114.445 26.4265 114.444 25.93 114.444 25.4335C114.442 24.2898 114.44 23.146 114.437 22.0023C114.434 20.9546 114.432 19.907 114.431 18.8593C114.43 18.2858 114.428 17.7122 114.427 17.1386C114.426 16.8394 114.426 16.5401 114.425 16.2409C114.425 16.1034 114.424 15.9659 114.423 15.8243C114.423 15.6994 114.423 15.5746 114.423 15.446C114.423 15.3371 114.423 15.2282 114.422 15.116C114.437 14.8543 114.437 14.8543 114.562 14.6052Z" fill="#009FE7"/>
<path d="M62.3842 16.2249C62.8024 16.4979 63.0935 16.7343 63.2558 17.2212C63.1545 17.3273 63.1545 17.3273 63.051 17.4357C62.2208 18.3299 62.2208 18.3299 61.8535 19.4772C61.7405 20.3248 61.3482 20.6463 60.7011 21.1802C60.1821 21.6413 59.8627 22.1703 59.6446 22.8248C59.7316 22.8579 59.8186 22.891 59.9082 22.925C60.0782 22.991 60.0782 22.991 60.2516 23.0583C60.4207 23.1233 60.4207 23.1233 60.5931 23.1896C60.8898 23.3229 60.8898 23.3229 61.1389 23.572C61.1041 23.8942 61.0325 24.1553 60.8966 24.4495C60.13 26.5962 60.3469 29.1698 60.3917 31.4171C60.1505 31.4239 59.9092 31.4287 59.6679 31.4327C59.5336 31.4356 59.3992 31.4385 59.2608 31.4414C58.8974 31.4171 58.8974 31.4171 58.5238 31.1681C58.5828 30.9297 58.5828 30.9297 58.643 30.6865C58.8225 29.7869 58.8316 28.8826 58.8517 27.9683C58.8585 27.6655 58.8673 27.3629 58.8763 27.0602C58.8813 26.8648 58.8863 26.6694 58.8911 26.474C58.8937 26.385 58.8963 26.296 58.8989 26.2043C58.9108 25.6051 58.8587 25.037 58.7729 24.4437C58.6907 24.5284 58.6085 24.6132 58.5238 24.7005C58.3999 24.823 58.2753 24.9449 58.1503 25.0663C58.075 25.1397 57.9997 25.213 57.9221 25.2886C57.0855 26.0659 56.3924 26.3653 55.2472 26.3247C55.1432 26.3182 55.1432 26.3182 55.0371 26.3116C55.3748 25.8584 55.7123 25.4063 56.063 24.9632C58.0902 22.3895 59.8543 19.4459 61.0012 16.3694C61.3144 15.7574 61.8573 16.0285 62.3842 16.2249Z" fill="#009FE8"/>
<path d="M127.884 20.582C128.329 20.582 128.64 20.6023 128.979 20.9094C129.163 21.1266 129.337 21.3463 129.502 21.5782C129.3 22.0562 129.083 22.1762 128.625 22.4149C128.17 22.7134 127.847 23.1487 127.51 23.5707C128.322 23.5368 128.787 23.2481 129.378 22.699C129.637 22.3998 129.888 22.0983 130.13 21.785C130.374 21.5782 130.374 21.5782 130.7 21.5933C130.997 21.7028 130.997 21.7028 131.246 21.9518C131.301 22.2335 131.301 22.2335 131.246 22.5744C131.043 22.8405 130.849 23.0633 130.615 23.2983C130.489 23.43 130.363 23.5618 130.237 23.6937C130.175 23.7576 130.113 23.8214 130.05 23.8871C129.82 24.1275 129.602 24.3771 129.386 24.6291C129.104 24.9538 128.816 25.2653 128.506 25.5631C128.668 25.54 128.83 25.5168 128.997 25.493C129.272 25.4536 129.272 25.4536 129.502 25.4385C129.627 25.5631 129.627 25.5631 129.658 25.9834C129.627 26.4348 129.627 26.4348 129.474 26.6342C129.218 26.8359 128.982 26.9415 128.677 27.0574C128.567 27.0998 128.457 27.1421 128.343 27.1858C127.95 27.3273 127.554 27.4545 127.156 27.5808C126.876 27.6844 126.628 27.8153 126.366 27.9602C126.024 28.1364 125.893 28.1781 125.494 28.1781C125.069 28.027 124.824 27.8935 124.521 27.5555C124.482 27.0885 124.482 27.0885 124.521 26.6838C124.645 26.6407 124.645 26.6407 124.772 26.5967C125.447 26.3473 125.915 26.1266 126.389 25.5631C126.471 25.4809 126.554 25.3987 126.638 25.314C126.487 25.3601 126.335 25.4062 126.179 25.4536C124.605 25.8937 124.605 25.8937 124.054 25.6774C123.667 25.3068 123.539 25.0454 123.471 24.5124C123.489 24.4071 123.507 24.3018 123.525 24.1933C123.593 24.1764 123.661 24.1596 123.731 24.1422C124.877 23.8152 125.657 23.1268 126.41 22.2252C126.681 21.9012 126.962 21.5881 127.245 21.2747C127.34 21.1696 127.435 21.0644 127.532 20.9561C127.647 20.8295 127.763 20.703 127.884 20.582Z" fill="#009FE8"/>
<path d="M122.158 34.6523C122.939 34.6523 123.72 34.6523 124.524 34.6523C124.61 34.8684 124.695 35.0845 124.783 35.3071C124.897 35.5921 125.01 35.8772 125.123 36.1622C125.208 36.3756 125.208 36.3756 125.294 36.5932C125.349 36.7312 125.404 36.8693 125.461 37.0115C125.511 37.138 125.561 37.2646 125.613 37.3949C125.774 37.7764 125.954 38.1442 126.143 38.5127C126.184 38.4046 126.225 38.2965 126.267 38.1851C126.418 37.7845 126.57 37.384 126.721 36.9834C126.787 36.81 126.853 36.6366 126.918 36.4631C127.012 36.2139 127.107 35.9648 127.201 35.7157C127.258 35.5657 127.314 35.4157 127.373 35.2612C127.513 34.9014 127.513 34.9014 127.637 34.6523C128.377 34.6523 129.117 34.6523 129.879 34.6523C129.879 34.8167 129.879 34.9811 129.879 35.1504C129.632 35.1504 129.386 35.1504 129.132 35.1504C129.132 36.8764 129.132 38.6023 129.132 40.3805C129.378 40.3805 129.625 40.3805 129.879 40.3805C129.879 40.5449 129.879 40.7093 129.879 40.8786C128.893 40.8786 127.906 40.8786 126.89 40.8786C126.89 40.7143 126.89 40.5499 126.89 40.3805C127.137 40.3805 127.383 40.3805 127.637 40.3805C127.596 39.1477 127.555 37.9149 127.513 36.6448C127.406 36.9295 127.3 37.2143 127.19 37.5077C127.087 37.783 126.984 38.0583 126.881 38.3336C126.81 38.5251 126.738 38.7167 126.666 38.9083C126.564 39.1834 126.461 39.4585 126.358 39.7336C126.326 39.8195 126.293 39.9053 126.26 39.9938C126.033 40.6012 126.033 40.6012 125.894 40.8786C125.689 40.8786 125.483 40.8786 125.271 40.8786C124.737 39.4815 124.203 38.0843 123.653 36.6448C123.611 37.8776 123.57 39.1104 123.528 40.3805C123.816 40.3805 124.103 40.3805 124.4 40.3805C124.4 40.5449 124.4 40.7093 124.4 40.8786C123.66 40.8786 122.92 40.8786 122.158 40.8786C122.158 40.7143 122.158 40.5499 122.158 40.3805C122.446 40.3805 122.734 40.3805 123.03 40.3805C123.03 38.6546 123.03 36.9287 123.03 35.1504C122.742 35.1504 122.455 35.1504 122.158 35.1504C122.158 34.9861 122.158 34.8217 122.158 34.6523Z" fill="#009FE7"/>
<path d="M101.608 34.6523C102.554 34.6523 103.499 34.6523 104.472 34.6523C104.472 34.8167 104.472 34.9811 104.472 35.1504C104.267 35.1504 104.062 35.1504 103.85 35.1504C103.85 35.9312 103.85 36.712 103.85 37.5164C104.507 37.5164 105.165 37.5164 105.842 37.5164C105.842 36.7357 105.842 35.9549 105.842 35.1504C105.637 35.1504 105.431 35.1504 105.22 35.1504C105.22 34.9861 105.22 34.8217 105.22 34.6523C106.165 34.6523 107.11 34.6523 108.084 34.6523C108.084 34.8167 108.084 34.9811 108.084 35.1504C107.837 35.1504 107.591 35.1504 107.337 35.1504C107.337 36.8764 107.337 38.6023 107.337 40.3805C107.583 40.3805 107.83 40.3805 108.084 40.3805C108.084 40.5449 108.084 40.7093 108.084 40.8786C107.139 40.8786 106.193 40.8786 105.22 40.8786C105.22 40.7143 105.22 40.5499 105.22 40.3805C105.425 40.3805 105.631 40.3805 105.842 40.3805C105.842 39.5587 105.842 38.7368 105.842 37.89C105.185 37.89 104.527 37.89 103.85 37.89C103.85 38.7119 103.85 39.5338 103.85 40.3805C104.055 40.3805 104.261 40.3805 104.472 40.3805C104.472 40.5449 104.472 40.7093 104.472 40.8786C103.527 40.8786 102.582 40.8786 101.608 40.8786C101.608 40.7143 101.608 40.5499 101.608 40.3805C101.855 40.3805 102.102 40.3805 102.356 40.3805C102.356 38.6546 102.356 36.9287 102.356 35.1504C102.109 35.1504 101.862 35.1504 101.608 35.1504C101.608 34.9861 101.608 34.8217 101.608 34.6523Z" fill="#009FE7"/>
<path d="M115.557 34.6536C116.05 34.6443 116.544 34.6376 117.038 34.6331C117.287 34.6303 117.536 34.6256 117.786 34.6208C119.512 34.6078 119.512 34.6078 120.289 35.0272C120.662 35.4191 120.816 35.7403 120.857 36.2725C120.827 36.8578 120.581 37.1201 120.164 37.5177C119.876 37.689 119.876 37.689 119.666 37.7668C119.74 37.7925 119.815 37.8182 119.892 37.8446C120.295 38.0984 120.37 38.3121 120.538 38.763C120.641 39.3003 120.718 39.8392 120.787 40.3818C121.033 40.3818 121.28 40.3818 121.534 40.3818C121.534 40.5462 121.534 40.7106 121.534 40.8799C120.931 41.0808 120.307 41.0461 119.689 40.95C119.161 40.5728 119.092 39.8738 118.968 39.265C118.928 39.082 118.928 39.082 118.888 38.8953C118.867 38.7812 118.845 38.667 118.824 38.5495C118.773 38.4556 118.722 38.3616 118.67 38.2649C118.382 38.1827 118.094 38.1005 117.798 38.0158C117.798 38.7966 117.798 39.5774 117.798 40.3818C118.045 40.3818 118.291 40.3818 118.545 40.3818C118.545 40.5462 118.545 40.7106 118.545 40.8799C117.559 40.8799 116.573 40.8799 115.557 40.8799C115.557 40.7156 115.557 40.5512 115.557 40.3818C115.803 40.3818 116.05 40.3818 116.304 40.3818C116.304 38.6559 116.304 36.93 116.304 35.1517C116.098 35.1517 115.893 35.1517 115.681 35.1517C115.64 34.9874 115.599 34.823 115.557 34.6536ZM117.798 35.1517C117.798 35.9325 117.798 36.7133 117.798 37.5177C118.608 37.5849 118.608 37.5849 119.028 37.331C119.382 36.9139 119.456 36.5656 119.417 36.0234C119.221 35.5725 119.082 35.4266 118.67 35.1517C118.382 35.1517 118.094 35.1517 117.798 35.1517Z" fill="#009FE7"/>
<path d="M74.0879 34.6544C74.7961 34.5336 75.5076 34.4331 76.2048 34.6544C76.7934 35.0889 77.1557 35.7514 77.5276 36.3687C77.7457 36.7223 77.9859 37.0561 78.2312 37.391C78.4725 37.7215 78.7079 38.0563 78.9444 38.3902C78.9855 37.3218 79.0266 36.2533 79.0689 35.1525C78.7402 35.1525 78.4114 35.1525 78.0727 35.1525C78.0727 34.9882 78.0727 34.8238 78.0727 34.6544C78.8124 34.6544 79.5521 34.6544 80.3142 34.6544C80.3142 34.8188 80.3142 34.9832 80.3142 35.1525C80.0676 35.1525 79.8211 35.1525 79.567 35.1525C79.567 37.0428 79.567 38.9331 79.567 40.8807C78.6954 40.8807 78.6954 40.8807 78.4735 40.7125C78.4205 40.6337 78.3676 40.5548 78.313 40.4736C78.251 40.3845 78.189 40.2954 78.1251 40.2036C78.0616 40.106 77.9981 40.0084 77.9326 39.9079C77.8647 39.8087 77.7968 39.7095 77.7268 39.6073C77.5826 39.3962 77.4397 39.1841 77.298 38.9713C77.0049 38.5318 76.7045 38.0975 76.4042 37.6628C76.0867 37.201 75.7725 36.7369 75.4577 36.2733C75.4166 37.6294 75.3755 38.9854 75.3332 40.3826C75.703 40.3826 76.0728 40.3826 76.4539 40.3826C76.4539 40.547 76.4539 40.7114 76.4539 40.8807C75.6731 40.8807 74.8923 40.8807 74.0879 40.8807C74.0879 40.7164 74.0879 40.552 74.0879 40.3826C74.3345 40.3826 74.581 40.3826 74.835 40.3826C74.794 38.6978 74.7529 37.013 74.7105 35.2771C74.4023 35.1538 74.4023 35.1538 74.0879 35.028C74.0879 34.9047 74.0879 34.7814 74.0879 34.6544Z" fill="#009FE7"/>
<path d="M95.7568 34.655C96.2705 34.644 96.7841 34.6375 97.2978 34.6317C97.5138 34.627 97.5138 34.627 97.7342 34.6222C98.7342 34.6137 99.7418 34.6399 100.559 35.2776C100.963 35.8405 100.92 36.481 100.862 37.1455C100.637 37.7211 100.268 37.9595 99.7417 38.2663C99.1642 38.4587 98.6054 38.3979 97.9983 38.3908C97.9983 39.0483 97.9983 39.7058 97.9983 40.3832C98.2449 40.3832 98.4914 40.3832 98.7455 40.3832C98.7866 40.5476 98.8277 40.712 98.87 40.8813C97.8426 40.8813 96.8153 40.8813 95.7568 40.8813C95.7568 40.7169 95.7568 40.5526 95.7568 40.3832C96.0034 40.3832 96.25 40.3832 96.504 40.3832C96.504 38.6573 96.504 36.9313 96.504 35.1531C96.2574 35.1531 96.0109 35.1531 95.7568 35.1531C95.7568 34.9887 95.7568 34.8244 95.7568 34.655ZM97.9983 35.1531C97.9983 36.0983 97.9983 37.0434 97.9983 38.0172C98.8637 37.9336 98.8637 37.9336 99.3681 37.3946C99.5705 36.7873 99.5934 36.2456 99.3292 35.6668C99.1194 35.3748 99.1194 35.3748 98.7455 35.1531C98.4989 35.1531 98.2523 35.1531 97.9983 35.1531Z" fill="#009FE7"/>
<path d="M57.1543 34.6523C58.1405 34.6523 59.1268 34.6523 60.1429 34.6523C60.1429 34.8167 60.1429 34.9811 60.1429 35.1504C59.9785 35.1915 59.8142 35.2326 59.6448 35.275C59.6898 35.353 59.7347 35.431 59.781 35.5114C59.8388 35.6132 59.8966 35.7149 59.9561 35.8198C60.0139 35.9209 60.0717 36.022 60.1312 36.1262C60.2674 36.3957 60.2674 36.3957 60.2674 36.6448C60.5839 36.358 60.7744 36.0628 60.9757 35.6875C61.0301 35.5868 61.0845 35.4862 61.1406 35.3825C61.1812 35.3059 61.2218 35.2293 61.2637 35.1504C60.9555 35.0888 60.9555 35.0888 60.641 35.0259C60.641 34.9026 60.641 34.7794 60.641 34.6523C61.3396 34.6523 62.0382 34.6523 62.758 34.6523C62.758 34.8167 62.758 34.9811 62.758 35.1504C62.4703 35.1504 62.1827 35.1504 61.8863 35.1504C61.8391 35.2836 61.8391 35.2836 61.7909 35.4194C61.5709 35.9257 61.2455 36.3461 60.9232 36.7921C60.7308 37.1329 60.7308 37.1329 60.8249 37.4877C61.0763 38.0209 61.3588 38.5312 61.6528 39.0419C61.7678 39.242 61.8823 39.4424 61.9962 39.6431C62.0468 39.731 62.0974 39.8188 62.1495 39.9093C62.2599 40.1315 62.2599 40.1315 62.2599 40.3805C62.5064 40.3805 62.753 40.3805 63.007 40.3805C63.007 40.5449 63.007 40.7093 63.007 40.8786C62.0208 40.8786 61.0345 40.8786 60.0184 40.8786C60.0184 40.7143 60.0184 40.5499 60.0184 40.3805C60.265 40.3189 60.265 40.3189 60.5165 40.256C60.2288 39.7218 59.9412 39.1876 59.6448 38.6372C59.1517 39.4385 59.1517 39.4385 58.6486 40.256C58.8541 40.3382 59.0595 40.4204 59.2712 40.5051C59.2712 40.6284 59.2712 40.7516 59.2712 40.8786C58.5726 40.8786 57.8741 40.8786 57.1543 40.8786C57.1543 40.7143 57.1543 40.5499 57.1543 40.3805C57.3161 40.3815 57.3161 40.3815 57.4812 40.3825C58.1128 40.1924 58.3119 39.7719 58.6486 39.2287C58.7127 39.1335 58.7767 39.0383 58.8427 38.9402C59.1927 38.4225 59.1927 38.4225 59.2216 37.8273C59.1558 37.7247 59.09 37.6221 59.0222 37.5164C58.9314 37.3452 58.8417 37.1735 58.7527 37.0013C58.5985 36.715 58.4433 36.4291 58.2877 36.1435C58.2382 36.0516 58.1888 35.9597 58.1379 35.865C58.0698 35.7399 58.0698 35.7399 58.0004 35.6122C57.9015 35.3995 57.9015 35.3995 57.9015 35.1504C57.696 35.1504 57.4905 35.1504 57.2788 35.1504C57.2377 34.9861 57.1966 34.8217 57.1543 34.6523Z" fill="#009FE8"/>
<path d="M85.0479 34.6523C86.0341 34.6523 87.0203 34.6523 88.0365 34.6523C87.9954 34.8167 87.9543 34.9811 87.912 35.1504C87.6654 35.1504 87.4188 35.1504 87.1648 35.1504C87.1765 35.6488 87.1898 36.1472 87.2043 36.6455C87.2091 36.8146 87.2134 36.9838 87.2173 37.1531C87.2231 37.3976 87.2304 37.6421 87.2378 37.8866C87.2436 38.1067 87.2436 38.1067 87.2496 38.3312C87.2997 38.8739 87.3912 39.401 87.6862 39.8669C88.0512 40.0934 88.3577 40.1171 88.7836 40.1315C89.314 39.9424 89.314 39.9424 89.6714 39.5297C90.0398 38.6128 89.9202 37.4748 89.9122 36.5047C89.9116 36.3737 89.911 36.2427 89.9105 36.1077C89.909 35.7886 89.907 35.4695 89.9044 35.1504C89.6167 35.1504 89.3291 35.1504 89.0327 35.1504C89.0327 34.9861 89.0327 34.8217 89.0327 34.6523C89.7724 34.6523 90.5121 34.6523 91.2742 34.6523C91.2742 34.8167 91.2742 34.9811 91.2742 35.1504C91.0276 35.1504 90.781 35.1504 90.527 35.1504C90.5284 35.2488 90.5299 35.3472 90.5314 35.4486C90.5385 36.3412 90.5244 37.2317 90.4881 38.1235C90.4839 38.2699 90.4839 38.2699 90.4796 38.4192C90.4461 39.1356 90.35 39.8917 89.8571 40.451C89.2001 41.0296 88.5986 41.0407 87.7568 41.0294C87.0853 40.978 86.6913 40.7688 86.1919 40.3027C85.4829 39.3471 85.6405 38.0089 85.6549 36.886C85.6562 36.7172 85.6573 36.5483 85.6583 36.3794C85.6612 35.9697 85.6653 35.5601 85.6705 35.1504C85.465 35.1504 85.2595 35.1504 85.0479 35.1504C85.0479 34.9861 85.0479 34.8217 85.0479 34.6523Z" fill="#009FE7"/>
<path d="M111.325 34.6523C111.653 34.6523 111.982 34.6523 112.321 34.6523C112.588 35.4078 112.853 36.1636 113.119 36.9196C113.209 37.1768 113.3 37.434 113.391 37.691C113.521 38.0602 113.651 38.4297 113.78 38.7992C113.821 38.9144 113.862 39.0296 113.904 39.1482C113.941 39.2554 113.979 39.3626 114.017 39.473C114.05 39.5673 114.084 39.6616 114.118 39.7588C114.189 40.007 114.189 40.007 114.189 40.3805C114.435 40.3805 114.682 40.3805 114.936 40.3805C114.936 40.5449 114.936 40.7093 114.936 40.8786C113.95 40.8786 112.963 40.8786 111.947 40.8786C111.988 40.7143 112.029 40.5499 112.072 40.3805C112.277 40.3805 112.483 40.3805 112.694 40.3805C112.448 39.7025 112.448 39.7025 112.196 39.0108C111.333 38.9491 111.333 38.9491 110.453 38.8862C110.414 39.0866 110.376 39.2869 110.336 39.4933C110.219 40.1004 110.219 40.1004 110.079 40.3805C110.326 40.3805 110.572 40.3805 110.826 40.3805C110.826 40.5449 110.826 40.7093 110.826 40.8786C110.169 40.8786 109.511 40.8786 108.834 40.8786C108.834 40.7143 108.834 40.5499 108.834 40.3805C109.081 40.3805 109.327 40.3805 109.581 40.3805C109.595 40.2591 109.608 40.1376 109.622 40.0125C109.702 39.4623 109.866 38.951 110.04 38.4246C110.089 38.2739 110.089 38.2739 110.139 38.1202C110.208 37.9095 110.277 37.6988 110.347 37.4883C110.453 37.1653 110.559 36.8419 110.664 36.5185C110.731 36.3133 110.798 36.1081 110.865 35.903C110.897 35.8062 110.929 35.7094 110.961 35.6097C111.185 34.9308 111.185 34.9308 111.325 34.6523ZM111.2 36.2712C110.995 37.0109 110.789 37.7506 110.577 38.5127C111.07 38.5127 111.564 38.5127 112.072 38.5127C111.8 37.3803 111.8 37.3803 111.449 36.2712C111.367 36.2712 111.285 36.2712 111.2 36.2712Z" fill="#009FE8"/>
<path d="M69.8577 34.6523C70.1865 34.6523 70.5152 34.6523 70.8539 34.6523C71.3789 35.8437 71.7955 37.0587 72.2004 38.2947C72.2635 38.4859 72.3266 38.6771 72.3898 38.8682C72.5426 39.3306 72.6947 39.7933 72.8463 40.256C73.0518 40.2971 73.2573 40.3382 73.469 40.3805C73.469 40.5449 73.469 40.7093 73.469 40.8786C72.5238 40.8786 71.5787 40.8786 70.6049 40.8786C70.6049 40.7143 70.6049 40.5499 70.6049 40.3805C70.8103 40.3805 71.0158 40.3805 71.2275 40.3805C71.2005 40.304 71.1736 40.2274 71.1458 40.1485C71.1111 40.0479 71.0764 39.9472 71.0407 39.8435C71.006 39.7438 70.9714 39.6442 70.9356 39.5415C70.8539 39.2598 70.8539 39.2598 70.8539 38.8862C70.2786 38.9273 69.7033 38.9684 69.1106 39.0108C68.9873 39.4628 68.864 39.9148 68.737 40.3805C68.9424 40.3805 69.1479 40.3805 69.3596 40.3805C69.3596 40.5449 69.3596 40.7093 69.3596 40.8786C68.7021 40.8786 68.0446 40.8786 67.3672 40.8786C67.4083 40.7143 67.4494 40.5499 67.4917 40.3805C67.6972 40.3805 67.9026 40.3805 68.1143 40.3805C68.1425 40.2572 68.1425 40.2572 68.1712 40.1314C68.4506 38.9583 68.8202 37.8205 69.1962 36.6759C69.2605 36.4787 69.3248 36.2816 69.389 36.0844C69.5447 35.6069 69.701 35.1295 69.8577 34.6523ZM69.8577 36.1467C69.7535 36.4942 69.6498 36.8418 69.5464 37.1896C69.5167 37.2884 69.487 37.3873 69.4564 37.4892C69.4283 37.5839 69.4002 37.6786 69.3713 37.7762C69.3452 37.8636 69.3191 37.951 69.2922 38.041C69.2248 38.2655 69.2248 38.2655 69.2351 38.5127C69.7282 38.5127 70.2213 38.5127 70.7294 38.5127C70.4828 37.7319 70.2363 36.9511 69.9822 36.1467C69.9411 36.1467 69.9 36.1467 69.8577 36.1467Z" fill="#009FE8"/>
<path d="M133.116 34.6523C133.444 34.6523 133.773 34.6523 134.112 34.6523C134.379 35.4078 134.644 36.1636 134.91 36.9196C135 37.1768 135.091 37.434 135.182 37.691C135.312 38.0602 135.442 38.4297 135.571 38.7992C135.612 38.9144 135.653 39.0296 135.695 39.1482C135.732 39.2554 135.77 39.3626 135.808 39.473C135.841 39.5673 135.875 39.6616 135.909 39.7588C135.98 40.007 135.98 40.007 135.98 40.3805C136.226 40.3805 136.473 40.3805 136.727 40.3805C136.727 40.5449 136.727 40.7093 136.727 40.8786C135.741 40.8786 134.754 40.8786 133.738 40.8786C133.779 40.7143 133.82 40.5499 133.863 40.3805C134.068 40.3805 134.274 40.3805 134.485 40.3805C134.239 39.7025 134.239 39.7025 133.987 39.0108C133.124 38.9491 133.124 38.9491 132.244 38.8862C132.205 39.0866 132.167 39.2869 132.127 39.4933C132.01 40.1004 132.01 40.1004 131.87 40.3805C132.117 40.3805 132.363 40.3805 132.617 40.3805C132.617 40.5449 132.617 40.7093 132.617 40.8786C131.96 40.8786 131.302 40.8786 130.625 40.8786C130.625 40.7143 130.625 40.5499 130.625 40.3805C130.872 40.3805 131.118 40.3805 131.372 40.3805C131.386 40.2591 131.399 40.1376 131.414 40.0125C131.493 39.4623 131.657 38.951 131.831 38.4246C131.88 38.2739 131.88 38.2739 131.93 38.1202C131.999 37.9095 132.068 37.6988 132.138 37.4883C132.244 37.1653 132.35 36.8419 132.455 36.5185C132.522 36.3133 132.589 36.1081 132.656 35.903C132.688 35.8062 132.72 35.7094 132.752 35.6097C132.976 34.9308 132.976 34.9308 133.116 34.6523ZM132.991 36.2712C132.786 37.0109 132.58 37.7506 132.368 38.5127C132.861 38.5127 133.355 38.5127 133.863 38.5127C133.591 37.3803 133.591 37.3803 133.24 36.2712C133.158 36.2712 133.076 36.2712 132.991 36.2712Z" fill="#009FE8"/>
<path d="M81.1891 34.6523C82.2164 34.6523 83.2438 34.6523 84.3022 34.6523C84.2612 34.8167 84.2201 34.9811 84.1777 35.1504C83.9723 35.1504 83.7668 35.1504 83.5551 35.1504C83.557 35.2784 83.559 35.4064 83.561 35.5383C83.5679 36.0201 83.5721 36.5018 83.5756 36.9837C83.5775 37.1909 83.58 37.3981 83.5833 37.6053C83.6326 40.8202 83.6326 40.8202 82.6834 41.8749C82.1063 42.3048 81.6719 42.4531 80.9512 42.4236C80.5637 42.3482 80.3382 42.1534 80.0684 41.8749C80.1505 41.6694 80.2327 41.4639 80.3174 41.2522C80.7066 41.151 80.7066 41.151 81.1891 41.1277C81.4357 41.3332 81.6822 41.5386 81.9363 41.7503C81.9773 39.5724 82.0184 37.3944 82.0608 35.1504C81.7731 35.1504 81.4855 35.1504 81.1891 35.1504C81.1891 34.9861 81.1891 34.8217 81.1891 34.6523Z" fill="#009FE7"/>
<path d="M63.752 34.6523C64.7382 34.6523 65.7244 34.6523 66.7406 34.6523C66.6995 34.8167 66.6584 34.9811 66.6161 35.1504C66.4106 35.1504 66.2051 35.1504 65.9934 35.1504C65.9934 36.8764 65.9934 38.6023 65.9934 40.3805C66.24 40.3805 66.4865 40.3805 66.7406 40.3805C66.7406 40.5449 66.7406 40.7093 66.7406 40.8786C65.7543 40.8786 64.7681 40.8786 63.752 40.8786C63.752 40.7143 63.752 40.5499 63.752 40.3805C64.0602 40.3189 64.0602 40.3189 64.3746 40.256C64.3746 38.6123 64.3746 36.9685 64.3746 35.275C64.1691 35.2339 63.9636 35.1928 63.752 35.1504C63.752 34.9861 63.752 34.8217 63.752 34.6523Z" fill="#009FE7"/>
<path d="M129.876 26.9336C130 26.9747 130.123 27.0158 130.25 27.0581C130.302 28.544 130.302 28.544 130.001 28.926C129.711 29.0329 129.42 29.1063 129.12 29.1809C128.698 29.3185 128.362 29.5175 127.985 29.751C127.428 30.0931 127.038 30.2101 126.39 30.2958C126.204 30.414 126.023 30.5394 125.845 30.6694C125.294 31.0601 124.826 31.2205 124.148 31.1675C123.837 31.0585 123.837 31.0585 123.65 30.7939C123.566 30.421 123.522 30.0555 123.526 29.6732C123.712 29.4866 123.904 29.5029 124.164 29.463C124.991 29.3042 125.743 28.9795 126.515 28.6555C126.928 28.4839 127.344 28.3202 127.76 28.1555C128.05 28.0397 128.341 27.923 128.631 27.8053C128.71 27.7738 128.789 27.7424 128.871 27.71C129.34 27.5183 129.616 27.3782 129.876 26.9336Z" fill="#009FE8"/>
<path d="M111.446 19.8342C111.617 19.8172 111.788 19.8052 111.96 19.7953C112.055 19.7881 112.15 19.7809 112.249 19.7734C112.62 19.8444 112.889 19.9689 113.172 20.224C113.492 20.7492 113.329 21.4066 113.259 21.9901C113.247 22.1274 113.235 22.2648 113.223 22.4062C113.042 24.2152 113.042 24.2152 112.567 24.6908C112.234 24.7083 111.904 24.696 111.57 24.6908C111.428 23.4617 111.297 22.2402 111.298 21.0017C111.298 20.9126 111.298 20.8235 111.298 20.7317C111.304 20.1173 111.304 20.1173 111.446 19.8342Z" fill="#009FE7"/>
<path d="M131.124 25.4375C132.281 25.5202 133.192 25.9479 133.988 26.8073C134.229 27.2276 134.229 27.2276 134.362 27.5544C133.706 28.1349 132.896 28.096 132.058 28.0881C131.747 28.0525 131.747 28.0525 131.42 27.8346C131.097 27.3065 131.11 26.8274 131.116 26.2158C131.117 26.07 131.119 25.9243 131.12 25.7741C131.121 25.663 131.123 25.5519 131.124 25.4375Z" fill="#009FE8"/>
</svg>
