<svg width="164" height="56" viewBox="0 0 164 56" fill="none" xmlns="http://www.w3.org/2000/svg">
<rect width="164" height="56" rx="6.58824" stroke="#EAECF0"/>
<rect x="0.5" y="0.5" width="163" height="55" rx="6.08824" fill="white" stroke="#EAECF0"/>
<g clip-path="url(#clip0_53672_555955)">
<path d="M88.6679 14.4735C89.0188 14.4726 89.3697 14.4719 89.7205 14.4715C89.8835 14.4713 90.0464 14.4711 90.2094 14.4706C90.3516 14.4702 90.4938 14.47 90.6359 14.4699C90.7111 14.4699 90.7862 14.4698 90.8614 14.4695C91.4539 14.4673 91.4539 14.4673 91.7052 14.5072C91.7455 14.5135 91.7858 14.5184 91.8262 14.5234C92.0522 14.5549 92.2744 14.6012 92.4968 14.6516C92.5156 14.6559 92.5156 14.6559 92.5348 14.6602C92.8571 14.7342 93.1747 14.8386 93.4807 14.9636C93.5308 14.9838 93.5814 15.0026 93.6321 15.0213C93.7007 15.0467 93.7677 15.0742 93.8339 15.1053C93.8617 15.1181 93.8895 15.1304 93.9177 15.1424C94.0204 15.1861 94.119 15.2339 94.217 15.2872C94.2658 15.3138 94.3153 15.3385 94.3651 15.3632C94.4387 15.3997 94.5119 15.437 94.5846 15.4753C94.5935 15.4799 94.6023 15.4845 94.6115 15.4893C94.6636 15.5169 94.7122 15.5472 94.7611 15.5802C94.7794 15.5901 94.7979 15.5997 94.8167 15.6088C94.8255 15.6131 94.8342 15.6173 94.8433 15.6217C94.8497 15.6248 94.8562 15.6279 94.8628 15.6311C94.8628 15.6395 94.8628 15.6479 94.8628 15.6565C94.8701 15.658 94.8774 15.6595 94.8849 15.661C94.9163 15.67 94.9397 15.6826 94.9676 15.6994C94.978 15.7056 94.9883 15.7118 94.9989 15.7182C95.0099 15.7248 95.0209 15.7315 95.0322 15.7384C95.0435 15.7453 95.0549 15.7522 95.0666 15.7593C95.166 15.8198 95.263 15.8833 95.3589 15.9491C95.3754 15.9603 95.3919 15.9715 95.4083 15.9827C95.5785 16.0989 95.7473 16.2168 95.9115 16.3413C95.9693 16.385 96.0282 16.4267 96.0888 16.4668C96.0956 16.4722 96.1024 16.4777 96.1094 16.4834C96.1094 16.4918 96.1094 16.5001 96.1094 16.5088C96.1187 16.5121 96.1279 16.5154 96.1374 16.5187C96.1746 16.5349 96.2024 16.5538 96.2343 16.5788C96.2443 16.5865 96.2544 16.5942 96.2647 16.6022C96.2723 16.6092 96.2798 16.6161 96.2875 16.6233C96.2875 16.6317 96.2875 16.6401 96.2875 16.6487C96.2944 16.6519 96.3012 16.655 96.3082 16.6583C96.3458 16.6781 96.3804 16.7 96.4147 16.725C96.4147 16.7334 96.4147 16.7418 96.4147 16.7505C96.4253 16.7552 96.4253 16.7552 96.436 16.76C96.4714 16.779 96.501 16.8018 96.5324 16.8268C96.5494 16.8402 96.5494 16.8402 96.5668 16.8538C96.5754 16.8617 96.584 16.8696 96.5928 16.8777C96.5928 16.8861 96.5928 16.8945 96.5928 16.9031C96.6066 16.9075 96.6066 16.9075 96.6207 16.9119C96.664 16.9321 96.6865 16.9579 96.72 16.9922C96.7494 17.0203 96.7793 17.048 96.8091 17.0757C96.8168 17.0828 96.8244 17.09 96.8323 17.0974C96.8659 17.1286 96.8992 17.1584 96.9355 17.1865C96.9485 17.1974 96.9485 17.1974 96.9617 17.2084C96.9617 17.2168 96.9617 17.2252 96.9617 17.2339C96.9701 17.2339 96.9785 17.2339 96.9872 17.2339C96.9872 17.2423 96.9872 17.2507 96.9872 17.2593C96.994 17.262 97.0009 17.2648 97.0079 17.2676C97.0489 17.2909 97.0797 17.3227 97.1126 17.3559C97.1231 17.3664 97.1231 17.3664 97.1338 17.377C97.1485 17.3917 97.1631 17.4064 97.1778 17.4211C97.2002 17.4438 97.2229 17.4663 97.2455 17.4887C97.2598 17.503 97.274 17.5173 97.2883 17.5316C97.2951 17.5384 97.3019 17.5451 97.3089 17.5521C97.3561 17.5998 97.3561 17.5998 97.3561 17.6282C97.3645 17.6282 97.3729 17.6282 97.3815 17.6282C97.3815 17.6366 97.3815 17.645 97.3815 17.6536C97.3941 17.6578 97.4067 17.662 97.4197 17.6664C97.4197 17.6748 97.4197 17.6832 97.4197 17.6918C97.4281 17.6918 97.4365 17.6918 97.4451 17.6918C97.4451 17.7002 97.4451 17.7086 97.4451 17.7173C97.4535 17.7173 97.4619 17.7173 97.4705 17.7173C97.4889 17.7355 97.4889 17.7355 97.5103 17.761C97.5532 17.8116 97.5974 17.8607 97.6422 17.9096C97.6614 17.9335 97.6614 17.9335 97.6614 17.9589C97.6697 17.9589 97.6781 17.9589 97.6868 17.9589C97.7048 17.9786 97.7219 17.9992 97.7385 18.0202C97.7486 18.0329 97.7588 18.0456 97.7693 18.0587C97.7746 18.0653 97.7798 18.0719 97.7853 18.0788C97.8107 18.1107 97.8366 18.1421 97.8625 18.1736C97.8803 18.1953 97.898 18.217 97.9158 18.2388C97.9253 18.2501 97.9348 18.2614 97.9445 18.2731C97.9666 18.3024 97.9666 18.3024 97.9666 18.3278C97.975 18.3278 97.9834 18.3278 97.9921 18.3278C98.0141 18.3548 98.0141 18.3548 98.0382 18.3899C98.0462 18.4014 98.0543 18.4129 98.0625 18.4247C98.0811 18.455 98.0811 18.455 98.0811 18.4805C98.0895 18.4805 98.0979 18.4805 98.1066 18.4805C98.1302 18.511 98.1523 18.5417 98.1742 18.5735C98.1809 18.5832 98.1876 18.5928 98.1945 18.6028C98.2162 18.634 98.2377 18.6654 98.2592 18.6967C98.2735 18.7174 98.2878 18.738 98.3021 18.7586C98.4271 18.9399 98.545 19.1252 98.6612 19.3123C98.7082 19.3879 98.7564 19.4625 98.8062 19.5363C98.8169 19.5523 98.8276 19.5683 98.8384 19.5843C98.8434 19.5918 98.8484 19.5993 98.8536 19.6071C98.9814 19.7982 99.0995 19.9911 99.2005 20.1978C99.2077 20.2116 99.2148 20.2254 99.2222 20.2396C99.2387 20.2741 99.2387 20.2741 99.2387 20.2995C99.2471 20.2995 99.2555 20.2995 99.2641 20.2995C99.2641 20.3079 99.2641 20.3163 99.2641 20.325C99.2725 20.325 99.2809 20.325 99.2896 20.325C99.299 20.336 99.299 20.336 99.3087 20.3472C99.3936 20.4237 99.4966 20.4371 99.6078 20.4326C99.719 20.4244 99.8286 20.4004 99.9379 20.3797C100.061 20.3566 100.183 20.3391 100.307 20.325C100.318 20.3236 100.329 20.3223 100.341 20.3209C100.761 20.2729 101.21 20.2744 101.63 20.325C101.647 20.327 101.663 20.3289 101.68 20.331C102.087 20.3809 102.484 20.4637 102.877 20.5794C102.89 20.5831 102.903 20.5869 102.916 20.5907C103.109 20.6467 103.299 20.7128 103.487 20.7829C103.497 20.7864 103.506 20.7898 103.516 20.7934C103.589 20.8202 103.659 20.8485 103.728 20.8845C103.761 20.9005 103.795 20.9131 103.83 20.926C103.935 20.9656 104.035 21.0138 104.136 21.0628C104.145 21.0668 104.153 21.0709 104.162 21.075C104.378 21.1801 104.587 21.2986 104.793 21.4237C104.841 21.4526 104.889 21.4805 104.938 21.508C104.938 21.5164 104.938 21.5248 104.938 21.5334C104.947 21.5369 104.956 21.5403 104.966 21.5439C105 21.5583 105.027 21.5744 105.057 21.5953C105.073 21.6059 105.073 21.6059 105.088 21.6168C105.099 21.6242 105.109 21.6316 105.12 21.6392C105.131 21.6464 105.141 21.6536 105.152 21.6611C105.173 21.6753 105.193 21.6896 105.214 21.704C105.233 21.7171 105.251 21.73 105.27 21.7428C105.291 21.7572 105.312 21.7724 105.332 21.7878C105.332 21.7962 105.332 21.8046 105.332 21.8133C105.341 21.8164 105.35 21.8196 105.359 21.8228C105.399 21.8405 105.429 21.8622 105.463 21.8896C105.474 21.8985 105.486 21.9074 105.497 21.9166C105.506 21.9245 105.514 21.9324 105.523 21.9405C105.523 21.9489 105.523 21.9573 105.523 21.9659C105.53 21.9693 105.537 21.9727 105.545 21.9763C105.575 21.9919 105.601 22.0095 105.628 22.0295C105.637 22.0361 105.646 22.0426 105.655 22.0494C105.662 22.0554 105.668 22.0615 105.675 22.0677C105.675 22.0761 105.675 22.0845 105.675 22.0931C105.684 22.0931 105.692 22.0931 105.701 22.0931C105.701 22.1015 105.701 22.1099 105.701 22.1186C105.708 22.122 105.716 22.1255 105.724 22.1291C105.751 22.1435 105.769 22.1579 105.792 22.1787C105.803 22.1892 105.803 22.1892 105.814 22.1999C105.822 22.2074 105.83 22.215 105.838 22.2227C105.847 22.2305 105.855 22.2383 105.863 22.2463C105.926 22.3059 105.988 22.3662 106.05 22.427C106.062 22.4393 106.062 22.4393 106.075 22.4518C106.083 22.4595 106.09 22.4671 106.098 22.4749C106.105 22.4817 106.112 22.4884 106.119 22.4953C106.133 22.5129 106.133 22.5129 106.133 22.5383C106.142 22.5383 106.15 22.5383 106.159 22.5383C106.181 22.5597 106.181 22.5597 106.205 22.5876C106.213 22.5968 106.221 22.6059 106.229 22.6154C106.248 22.6401 106.248 22.6401 106.248 22.6656C106.256 22.6656 106.265 22.6656 106.273 22.6656C106.293 22.6873 106.313 22.71 106.331 22.7331C106.341 22.7457 106.352 22.7582 106.362 22.7711C106.388 22.8055 106.388 22.8055 106.4 22.8436C106.409 22.8436 106.417 22.8436 106.426 22.8436C106.445 22.8663 106.463 22.8898 106.48 22.9136C106.49 22.9276 106.5 22.9416 106.511 22.9556C106.52 22.9691 106.53 22.9825 106.54 22.9963C106.561 23.0238 106.583 23.0513 106.604 23.0787C106.617 23.0981 106.617 23.0981 106.617 23.1235C106.625 23.1235 106.633 23.1235 106.642 23.1235C106.665 23.1541 106.687 23.1847 106.708 23.2165C106.714 23.2258 106.721 23.2351 106.727 23.2447C106.769 23.3069 106.81 23.3697 106.85 23.4332C106.874 23.4714 106.899 23.5089 106.924 23.5465C106.96 23.5996 106.993 23.6526 107.024 23.7086C107.055 23.7649 107.086 23.821 107.118 23.8768C107.181 23.9883 107.239 24.1008 107.293 24.2173C107.314 24.2647 107.338 24.311 107.362 24.3574C107.569 24.7724 107.679 25.2376 107.754 25.6934C107.764 25.7501 107.774 25.8065 107.786 25.8626C107.819 26.011 107.833 26.151 107.832 26.3027C107.832 26.3254 107.832 26.3482 107.832 26.371C107.833 26.432 107.833 26.4931 107.833 26.5541C107.833 26.6053 107.833 26.6566 107.833 26.7078C107.833 26.8288 107.833 26.9497 107.833 27.0707C107.833 27.1949 107.833 27.3191 107.834 27.4434C107.834 27.5507 107.834 27.6579 107.834 27.7652C107.834 27.829 107.834 27.8928 107.835 27.9567C107.835 28.0166 107.835 28.0766 107.835 28.1366C107.835 28.1584 107.835 28.1803 107.835 28.2021C107.836 28.3513 107.811 28.4575 107.749 28.5933C107.731 28.6433 107.716 28.6937 107.701 28.7444C107.697 28.7565 107.694 28.7687 107.69 28.7812C107.671 28.845 107.654 28.9087 107.64 28.9738C107.614 29.0962 107.58 29.2169 107.545 29.337C107.532 29.3841 107.52 29.4315 107.509 29.479C107.489 29.561 107.466 29.6421 107.442 29.7231C107.439 29.7341 107.435 29.7451 107.432 29.7565C107.427 29.7719 107.427 29.7719 107.423 29.7877C107.42 29.7969 107.417 29.8061 107.414 29.8155C107.405 29.84 107.405 29.84 107.38 29.8781C107.374 29.8981 107.368 29.9183 107.362 29.9385C107.351 29.9795 107.338 30.015 107.316 30.0514C107.297 30.0839 107.285 30.1089 107.273 30.1437C107.259 30.1814 107.243 30.2153 107.223 30.2501C107.218 30.2602 107.212 30.2702 107.206 30.2805C107.198 30.2954 107.198 30.2954 107.189 30.3106C107.18 30.3277 107.17 30.3449 107.161 30.362C107.044 30.5746 106.924 30.7855 106.786 30.9855C106.767 31.013 106.749 31.0408 106.73 31.0685C106.616 31.2374 106.497 31.4018 106.368 31.5595C106.349 31.582 106.349 31.582 106.337 31.6081C106.328 31.6081 106.32 31.6081 106.311 31.6081C106.309 31.6147 106.306 31.6214 106.303 31.6282C106.279 31.6715 106.248 31.7073 106.216 31.7449C106.21 31.7525 106.203 31.7602 106.197 31.7681C106.18 31.7873 106.163 31.8059 106.146 31.8244C106.138 31.8244 106.129 31.8244 106.121 31.8244C106.112 31.8453 106.104 31.8663 106.095 31.888C106.087 31.888 106.078 31.888 106.07 31.888C106.07 31.8964 106.07 31.9048 106.07 31.9134C106.056 31.9279 106.042 31.9422 106.028 31.9559C106.001 31.9821 105.974 32.0089 105.948 32.0357C105.926 32.058 105.903 32.0803 105.881 32.1026C105.87 32.1137 105.859 32.1248 105.848 32.1363C105.672 32.3132 105.672 32.3132 105.612 32.3332C105.608 32.3458 105.603 32.3584 105.599 32.3713C105.591 32.3713 105.582 32.3713 105.574 32.3713C105.574 32.3797 105.574 32.3881 105.574 32.3968C105.549 32.4187 105.549 32.4187 105.518 32.4429C105.502 32.4549 105.502 32.4549 105.487 32.4672C105.459 32.4858 105.459 32.4858 105.434 32.4858C105.429 32.4984 105.425 32.511 105.421 32.524C105.396 32.5451 105.372 32.5645 105.345 32.5836C105.338 32.5889 105.331 32.5942 105.324 32.5996C105.272 32.6385 105.272 32.6385 105.243 32.6385C105.243 32.6469 105.243 32.6553 105.243 32.6639C105.224 32.6802 105.224 32.6802 105.197 32.6985C105.183 32.7084 105.183 32.7084 105.168 32.7186C105.158 32.7254 105.148 32.7323 105.138 32.7394C105.118 32.7531 105.099 32.7667 105.079 32.7803C105.066 32.7894 105.066 32.7894 105.052 32.7986C105.034 32.8111 105.017 32.8242 105 32.8379C104.976 32.8547 104.976 32.8547 104.938 32.8547C104.938 32.8631 104.938 32.8715 104.938 32.8802C104.905 32.9023 104.872 32.9228 104.837 32.943C104.816 32.9556 104.795 32.9681 104.774 32.9807C104.763 32.9872 104.753 32.9937 104.741 33.0004C104.709 33.0196 104.678 33.039 104.646 33.0587C104.636 33.0649 104.626 33.071 104.616 33.0774C104.596 33.0892 104.577 33.101 104.558 33.1129C104.476 33.1634 104.394 33.2085 104.301 33.2363C104.327 33.1848 104.356 33.137 104.387 33.0885C104.395 33.0749 104.395 33.0749 104.404 33.0611C104.443 32.9987 104.484 32.9377 104.527 32.8779C104.544 32.8551 104.544 32.8551 104.556 32.8293C104.564 32.8293 104.573 32.8293 104.581 32.8293C104.583 32.822 104.584 32.8146 104.586 32.8071C104.595 32.7764 104.607 32.7539 104.623 32.7267C104.629 32.7167 104.635 32.7067 104.642 32.6964C104.648 32.6857 104.655 32.675 104.662 32.6639C104.676 32.641 104.689 32.6181 104.703 32.5952C104.71 32.5834 104.718 32.5717 104.725 32.5596C104.866 32.3301 104.866 32.3301 104.994 32.0931C105.015 32.051 105.037 32.0097 105.06 31.9683C105.112 31.8724 105.158 31.7745 105.204 31.6759C105.224 31.6335 105.245 31.5917 105.266 31.5501C105.29 31.5028 105.31 31.4549 105.329 31.4055C105.341 31.3742 105.354 31.3432 105.368 31.3123C105.417 31.1964 105.463 31.0802 105.504 30.961C105.52 30.9169 105.536 30.8735 105.553 30.8301C105.585 30.7452 105.613 30.6605 105.637 30.5727C105.649 30.5317 105.661 30.4911 105.673 30.4504C105.971 29.4596 106.016 28.4044 105.795 27.3936C105.792 27.3773 105.788 27.3609 105.785 27.3441C105.764 27.2544 105.74 27.1668 105.713 27.0792C105.702 27.0459 105.692 27.0126 105.683 26.979C105.641 26.8331 105.59 26.692 105.535 26.5506C105.52 26.5141 105.507 26.4773 105.494 26.4405C105.431 26.269 105.356 26.1042 105.268 25.944C105.241 25.8937 105.216 25.8423 105.19 25.7908C105.157 25.7238 105.122 25.6591 105.083 25.5955C105.064 25.5644 105.047 25.5328 105.03 25.5006C104.888 25.239 104.716 24.9815 104.532 24.7473C104.518 24.7263 104.518 24.7263 104.518 24.7008C104.509 24.7008 104.501 24.7008 104.492 24.7008C104.476 24.6811 104.461 24.6605 104.447 24.6396C104.4 24.5732 104.35 24.5112 104.298 24.4492C104.276 24.421 104.276 24.421 104.276 24.3955C104.268 24.3955 104.259 24.3955 104.251 24.3955C104.251 24.383 104.251 24.3704 104.251 24.3574C104.24 24.3536 104.24 24.3536 104.23 24.3497C104.187 24.3245 104.159 24.2885 104.128 24.2509C104.122 24.2435 104.116 24.2362 104.109 24.2286C104.079 24.1927 104.053 24.1593 104.034 24.1157C104.026 24.1157 104.018 24.1157 104.009 24.1157C103.993 24.0997 103.993 24.0997 103.974 24.0759C103.909 24 103.838 23.9305 103.768 23.8602C103.744 23.8364 103.72 23.8126 103.696 23.7887C103.681 23.7736 103.666 23.7584 103.651 23.7433C103.64 23.7326 103.64 23.7326 103.629 23.7217C103.594 23.6852 103.594 23.6852 103.551 23.6578C103.551 23.6494 103.551 23.641 103.551 23.6323C103.544 23.6292 103.537 23.6262 103.529 23.623C103.494 23.6037 103.469 23.5801 103.44 23.5528C103.392 23.5085 103.343 23.4685 103.289 23.4312C103.283 23.4262 103.277 23.4212 103.271 23.4161C103.271 23.4077 103.271 23.3993 103.271 23.3906C103.262 23.3872 103.252 23.3838 103.243 23.3803C103.209 23.3658 103.184 23.3513 103.157 23.327C103.157 23.3186 103.157 23.3102 103.157 23.3016C103.149 23.298 103.142 23.2945 103.135 23.2908C103.106 23.2764 103.079 23.2609 103.052 23.2443C103.043 23.239 103.034 23.2336 103.024 23.228C103.018 23.2229 103.011 23.2178 103.004 23.2125C103.004 23.2041 103.004 23.1957 103.004 23.1871C102.995 23.1837 102.985 23.1803 102.976 23.1768C102.941 23.162 102.915 23.1455 102.885 23.1235C102.552 22.8856 102.184 22.6578 101.801 22.5119C101.766 22.4984 101.731 22.4839 101.696 22.4692C101.472 22.3756 101.242 22.2929 101.008 22.2278C100.991 22.2229 100.973 22.2179 100.956 22.2129C99.9462 21.9209 98.8557 21.9122 97.1824 22.2254C97.1558 22.2322 97.1292 22.2388 97.1026 22.2453C96.918 22.2915 96.735 22.3444 96.5551 22.4066C96.5178 22.4194 96.4802 22.431 96.4424 22.442C96.3736 22.4625 96.3064 22.4865 96.239 22.5113C96.2269 22.5158 96.2147 22.5202 96.2022 22.5248C96.1212 22.5544 96.041 22.5853 95.9614 22.6183C95.9314 22.6274 95.9314 22.6274 95.8932 22.6147C95.9405 22.5494 95.9903 22.4866 96.0419 22.4247C96.0479 22.4173 96.054 22.4099 96.0602 22.4023C96.105 22.349 96.105 22.349 96.1476 22.3348C96.1564 22.318 96.1648 22.301 96.173 22.2839C96.1894 22.2653 96.2064 22.2473 96.2239 22.2299C96.2329 22.2209 96.2418 22.2119 96.251 22.2026C96.2748 22.1822 96.2748 22.1822 96.3003 22.1822C96.3003 22.1738 96.3003 22.1654 96.3003 22.1567C96.3207 22.1393 96.3207 22.1393 96.348 22.1202C96.3788 22.0979 96.4052 22.0772 96.4322 22.0502C96.4391 22.0434 96.4459 22.0366 96.4529 22.0295C96.4613 22.0295 96.4697 22.0295 96.4783 22.0295C96.4783 22.0211 96.4783 22.0127 96.4783 22.0041C96.4958 21.9888 96.4958 21.9888 96.5203 21.9718C96.5293 21.9655 96.5382 21.9592 96.5475 21.9527C96.5572 21.9461 96.5669 21.9394 96.5769 21.9325C96.5867 21.9257 96.5965 21.9189 96.6066 21.9119C96.6358 21.8917 96.6652 21.8715 96.6946 21.8514C96.7028 21.8458 96.711 21.8401 96.7194 21.8343C96.8423 21.7497 96.8423 21.7497 96.8727 21.7497C96.8727 21.7413 96.8727 21.7329 96.8727 21.7242C96.8838 21.7181 96.8948 21.7119 96.9063 21.7055C97.0759 21.616 97.0759 21.616 97.2251 21.4987C97.2416 21.4825 97.2416 21.4825 97.267 21.4825C97.2707 21.4728 97.2744 21.4631 97.2781 21.4531C97.2925 21.4189 97.2925 21.4189 97.3179 21.3808C97.3219 21.3535 97.3219 21.3535 97.3211 21.3243C97.3212 21.3098 97.3212 21.3098 97.3213 21.295C97.3176 21.2634 97.3069 21.2434 97.2925 21.2154C97.2925 21.2028 97.2925 21.1902 97.2925 21.1772C97.2841 21.1772 97.2757 21.1772 97.267 21.1772C97.2177 21.093 97.2177 21.093 97.2034 21.05C97.195 21.05 97.1866 21.05 97.178 21.05C97.1541 21.024 97.1541 21.024 97.1271 20.9896C97.1182 20.9784 97.1092 20.9672 97.1001 20.9556C97.0801 20.9282 97.0646 20.9028 97.0508 20.872C97.0424 20.872 97.034 20.872 97.0253 20.872C97.0052 20.8502 96.986 20.8275 96.9673 20.8044C96.957 20.7918 96.9468 20.7793 96.9362 20.7664C96.9108 20.732 96.9108 20.732 96.8981 20.6939C96.8897 20.6939 96.8813 20.6939 96.8727 20.6939C96.8507 20.6725 96.8507 20.6725 96.8266 20.6446C96.8185 20.6354 96.8105 20.6263 96.8022 20.6168C96.7836 20.5921 96.7836 20.5921 96.7836 20.5667C96.7765 20.5637 96.7693 20.5608 96.7619 20.5578C96.725 20.5368 96.702 20.5109 96.6739 20.4792C96.664 20.4682 96.6542 20.4572 96.644 20.4459C96.622 20.4187 96.6066 20.395 96.5928 20.3631C96.5844 20.3631 96.576 20.3631 96.5674 20.3631C96.5468 20.3418 96.5468 20.3418 96.5237 20.3138C96.4964 20.2809 96.4762 20.2599 96.4402 20.2359C96.4402 20.2275 96.4402 20.2191 96.4402 20.2105C96.4318 20.2105 96.4234 20.2105 96.4147 20.2105C96.395 20.19 96.395 20.19 96.3726 20.1628C96.3384 20.1225 96.3042 20.09 96.2621 20.0578C96.2406 20.0369 96.2195 20.0157 96.1985 19.9942C96.1181 19.9122 96.1181 19.9122 96.0323 19.836C96.02 19.8253 96.0077 19.8145 95.995 19.8034C95.995 19.795 95.995 19.7866 95.995 19.778C95.9824 19.778 95.9698 19.778 95.9568 19.778C95.9568 19.7696 95.9568 19.7612 95.9568 19.7525C95.9484 19.7525 95.94 19.7525 95.9314 19.7525C95.9314 19.7441 95.9314 19.7358 95.9314 19.7271C95.9208 19.7224 95.9208 19.7224 95.9101 19.7176C95.8747 19.6986 95.8451 19.6758 95.8137 19.6508C95.8023 19.6419 95.791 19.6329 95.7793 19.6237C95.7707 19.6159 95.7621 19.608 95.7533 19.5999C95.7533 19.5915 95.7533 19.5831 95.7533 19.5745C95.7407 19.5703 95.7281 19.5661 95.7151 19.5617C95.7151 19.5533 95.7151 19.5449 95.7151 19.5363C95.7059 19.5332 95.6966 19.5301 95.6871 19.527C95.6469 19.5088 95.6222 19.4871 95.5903 19.4568C95.5262 19.3975 95.4601 19.3456 95.388 19.2965C95.3763 19.2885 95.3646 19.2806 95.3526 19.2723C95.3417 19.2651 95.3308 19.2578 95.3196 19.2503C95.3116 19.2439 95.3036 19.2376 95.2953 19.231C95.2953 19.2226 95.2953 19.2142 95.2953 19.2056C95.2868 19.2027 95.2782 19.1998 95.2693 19.1968C95.2213 19.1755 95.1812 19.1472 95.1387 19.1165C95.1305 19.1108 95.1223 19.105 95.1138 19.0991C95.0933 19.0844 95.0734 19.0687 95.0536 19.0529C95.0536 19.0445 95.0536 19.0361 95.0536 19.0275C95.046 19.0259 95.0384 19.0243 95.0306 19.0227C95.0028 19.0147 95.0028 19.0147 94.9646 18.9893C94.9646 18.9809 94.9646 18.9725 94.9646 18.9639C94.9577 18.9627 94.9508 18.9615 94.9437 18.9602C94.9048 18.9485 94.8748 18.9292 94.8406 18.9074C94.828 18.8996 94.8155 18.8917 94.8026 18.8836C94.7931 18.8765 94.7836 18.8694 94.7738 18.8621C94.7738 18.8537 94.7738 18.8453 94.7738 18.8367C94.7633 18.8338 94.7528 18.8309 94.742 18.8279C94.689 18.808 94.6402 18.7829 94.5957 18.7476C94.5957 18.7392 94.5957 18.7308 94.5957 18.7222C94.5888 18.721 94.582 18.7197 94.5749 18.7185C94.536 18.7068 94.5056 18.6879 94.471 18.6668C94.4638 18.6625 94.4567 18.6582 94.4494 18.6538C94.4191 18.6356 94.3889 18.6173 94.3587 18.5989C94.2493 18.5325 94.1386 18.4725 94.0233 18.4169C94.0233 18.4085 94.0233 18.4001 94.0233 18.3914C94.0145 18.3902 94.0056 18.389 93.9965 18.3878C93.9521 18.3769 93.9185 18.3582 93.8786 18.3358C93.7936 18.2891 93.707 18.2463 93.6194 18.2046C93.6074 18.1989 93.5953 18.1931 93.583 18.1872C93.5112 18.1532 93.4392 18.12 93.3669 18.0873C93.3333 18.072 93.2998 18.0564 93.2664 18.0408C93.2093 18.0148 93.1516 17.9929 93.0921 17.9728C93.0625 17.9613 93.0354 17.9485 93.0072 17.934C92.9601 17.9101 92.9126 17.8917 92.8625 17.8747C92.8437 17.8682 92.8249 17.8617 92.806 17.8552C92.7955 17.8516 92.785 17.8479 92.7742 17.8442C92.7332 17.8299 92.6923 17.8151 92.6515 17.8003C92.6361 17.7948 92.6207 17.7892 92.6048 17.7835C92.5744 17.7725 92.544 17.7614 92.5137 17.7504C92.425 17.7184 92.3359 17.6905 92.2451 17.6652C92.1915 17.6501 92.1387 17.6328 92.0858 17.6155C91.9833 17.5826 91.8805 17.5564 91.7755 17.5331C91.7201 17.5205 91.6648 17.5071 91.6095 17.4938C91.5866 17.4884 91.5637 17.483 91.5408 17.4775C91.5059 17.4693 91.471 17.4608 91.4362 17.4521C91.2953 17.4176 91.1517 17.3965 91.0085 17.3738C90.997 17.372 90.9855 17.3701 90.9737 17.3682C90.9416 17.3631 90.9095 17.3581 90.8773 17.3531C90.8684 17.3517 90.8595 17.3503 90.8503 17.3489C90.1117 17.2375 89.3411 17.2356 88.6022 17.3432C88.563 17.3488 88.5237 17.3539 88.4844 17.3589C88.1524 17.4026 87.8233 17.4682 87.4997 17.554C87.462 17.5639 87.4243 17.5737 87.3866 17.5835C87.3522 17.5924 87.3179 17.6014 87.2836 17.6104C87.2592 17.6169 87.2347 17.6232 87.2103 17.6296C87.1294 17.6511 87.0508 17.675 86.9725 17.7045C86.9358 17.718 86.8989 17.7303 86.8616 17.7423C86.6504 17.8108 86.444 17.8883 86.2383 17.9717C86.221 17.9786 86.221 17.9786 86.2033 17.9857C86.1736 17.9977 86.1439 18.0097 86.1143 18.0218C86.1062 18.025 86.0981 18.0283 86.0897 18.0317C86.0409 18.0518 85.9939 18.0744 85.9468 18.0983C85.9099 18.1168 85.8725 18.1341 85.8351 18.1516C85.7337 18.199 85.6341 18.2484 85.5359 18.3021C85.4963 18.3237 85.456 18.3436 85.4155 18.3635C85.3351 18.4035 85.2575 18.4477 85.1801 18.4932C85.1607 18.5045 85.1607 18.5045 85.141 18.516C85.0723 18.5562 85.005 18.5977 84.9393 18.6426C84.9106 18.6617 84.8809 18.6785 84.8508 18.6953C84.7948 18.7277 84.7407 18.7633 84.6864 18.7985C84.6744 18.8062 84.6625 18.814 84.6502 18.822C84.5263 18.9033 84.4079 18.9917 84.2893 19.0802C84.2762 19.0899 84.2762 19.0899 84.2628 19.0999C84.246 19.1123 84.2292 19.1249 84.2125 19.1375C84.155 19.1801 84.155 19.1801 84.1267 19.1801C84.1267 19.1885 84.1267 19.1969 84.1267 19.2056C84.1074 19.221 84.0874 19.2353 84.067 19.2493C83.9953 19.3001 83.9287 19.3553 83.862 19.4126C83.8252 19.4442 83.7876 19.4748 83.7498 19.5053C83.6872 19.556 83.6283 19.6099 83.5697 19.6651C83.5415 19.6889 83.5415 19.6889 83.5161 19.6889C83.5161 19.6973 83.5161 19.7057 83.5161 19.7144C83.4992 19.7314 83.4992 19.7314 83.4747 19.7517C83.3389 19.8668 83.2122 19.9908 83.0866 20.1168C83.0604 20.143 83.0341 20.1692 83.0079 20.1954C82.9909 20.2124 82.9739 20.2294 82.9569 20.2464C82.9492 20.2541 82.9416 20.2617 82.9336 20.2696C82.8694 20.3342 82.8098 20.4022 82.751 20.4717C82.744 20.4799 82.737 20.4882 82.7298 20.4967C82.7226 20.5052 82.7155 20.5137 82.7081 20.5225C82.6892 20.5412 82.6892 20.5412 82.6638 20.5412C82.6638 20.5496 82.6638 20.558 82.6638 20.5667C82.6554 20.5667 82.647 20.5667 82.6384 20.5667C82.6355 20.5758 82.6326 20.585 82.6296 20.5945C82.6136 20.6289 82.597 20.6483 82.5697 20.674C82.4694 20.7715 82.3725 20.8828 82.2949 20.9992C82.2865 20.9992 82.2781 20.9992 82.2695 20.9992C82.2645 21.0098 82.2645 21.0098 82.2594 21.0206C82.2422 21.0535 82.2224 21.0832 82.2011 21.1136C82.1937 21.1244 82.1862 21.1352 82.1785 21.1462C82.1557 21.1763 82.1309 21.2016 82.1041 21.2281C82.0973 21.2397 82.0905 21.2512 82.0834 21.2631C82.0777 21.2726 82.0719 21.282 82.0659 21.2917C82.0575 21.2917 82.0491 21.2917 82.0405 21.2917C82.0356 21.3023 82.0356 21.3023 82.0305 21.3131C82.013 21.3465 81.9928 21.3763 81.9712 21.4071C81.9625 21.4196 81.9538 21.432 81.9448 21.4449C81.9357 21.4578 81.9266 21.4708 81.9173 21.4841C81.9084 21.4968 81.8996 21.5094 81.8905 21.5225C81.8557 21.5721 81.821 21.6218 81.786 21.6712C81.778 21.6824 81.7701 21.6935 81.762 21.7051C81.7515 21.7198 81.7515 21.7198 81.7407 21.7349C81.7238 21.7603 81.71 21.7857 81.697 21.8133C81.6886 21.8133 81.6803 21.8133 81.6716 21.8133C81.6685 21.8219 81.6653 21.8306 81.6621 21.8395C81.6431 21.8841 81.6199 21.9241 81.5953 21.9659C81.5869 21.9659 81.5785 21.9659 81.5698 21.9659C81.568 21.9735 81.5662 21.9811 81.5643 21.989C81.5586 22.0112 81.5517 22.0332 81.5444 22.055C81.536 22.055 81.5276 22.055 81.519 22.055C81.5176 22.0619 81.5163 22.0688 81.515 22.0759C81.5041 22.1131 81.487 22.1436 81.4681 22.1774C81.4578 22.1957 81.4578 22.1957 81.4474 22.2145C81.4387 22.23 81.4387 22.23 81.4299 22.2458C81.4257 22.2542 81.4215 22.2626 81.4172 22.2712C81.4088 22.2712 81.4004 22.2712 81.3918 22.2712C81.3903 22.2782 81.3889 22.2853 81.3874 22.2925C81.3565 22.4019 81.286 22.5072 81.2323 22.6072C81.2076 22.6535 81.1837 22.6999 81.1614 22.7474C81.0817 22.9163 81.0817 22.9163 80.9974 22.9708C80.9599 22.9834 80.9333 22.9861 80.8941 22.9867C80.8827 22.9871 80.8714 22.9874 80.8598 22.9877C80.7579 22.9772 80.6618 22.9288 80.5681 22.8898C80.5432 22.8795 80.5183 22.8692 80.4934 22.859C80.4816 22.8541 80.4697 22.8492 80.4575 22.8442C80.3482 22.7995 80.2375 22.7591 80.126 22.7202C80.0738 22.702 80.0221 22.683 79.9707 22.663C78.9906 22.2846 77.8933 22.1509 76.329 22.3221C76.3155 22.3247 76.302 22.3273 76.2882 22.33C75.9927 22.3876 75.7102 22.466 75.4258 22.5638C75.4156 22.5673 75.4053 22.5708 75.3947 22.5743C75.3656 22.5843 75.3365 22.5943 75.3073 22.6043C75.2989 22.6072 75.2905 22.6101 75.2818 22.613C75.2301 22.6311 75.1818 22.653 75.1331 22.678C75.0926 22.6988 75.0513 22.7179 75.01 22.7371C74.9978 22.7428 74.9978 22.7428 74.9854 22.7486C74.9526 22.764 74.9198 22.7789 74.886 22.7921C74.8305 22.8148 74.7788 22.8444 74.7262 22.8731C74.714 22.8797 74.7017 22.8864 74.6891 22.8933C74.5433 22.9736 74.3995 23.0593 74.2623 23.1537C74.2301 23.1744 74.2301 23.1744 74.2046 23.1744C74.2046 23.1828 74.2046 23.1912 74.2046 23.1998C74.1489 23.238 74.1489 23.238 74.1156 23.238C74.1156 23.2464 74.1156 23.2548 74.1156 23.2634C74.0922 23.2818 74.0922 23.2818 74.0599 23.3032C73.9995 23.3441 73.9431 23.3883 73.887 23.4351C73.8612 23.4542 73.8612 23.4542 73.8357 23.4542C73.8357 23.4626 73.8357 23.471 73.8357 23.4797C73.8149 23.4985 73.7933 23.5163 73.7713 23.5337C73.7523 23.549 73.7523 23.549 73.7328 23.5646C73.7206 23.5743 73.7084 23.5841 73.6958 23.5942C73.6372 23.6385 73.6372 23.6385 73.594 23.6959C73.5856 23.6959 73.5773 23.6959 73.5686 23.6959C73.5686 23.7043 73.5686 23.7127 73.5686 23.7214C73.5499 23.7397 73.5499 23.7397 73.5241 23.7611C73.4262 23.8393 73.4262 23.8393 73.3524 23.9376C73.344 23.9376 73.3356 23.9376 73.3269 23.9376C73.3269 23.946 73.3269 23.9544 73.3269 23.9631C73.3094 23.9837 73.3094 23.9837 73.2888 24.0012C73.2804 24.0012 73.272 24.0012 73.2633 24.0012C73.2602 24.0082 73.257 24.0152 73.2538 24.0225C73.2348 24.0578 73.212 24.0875 73.187 24.1189C73.1781 24.1302 73.1691 24.1416 73.16 24.1533C73.1521 24.1619 73.1442 24.1704 73.1361 24.1793C73.1277 24.1793 73.1193 24.1793 73.1107 24.1793C73.1107 24.1877 73.1107 24.1961 73.1107 24.2047C73.1023 24.2047 73.0939 24.2047 73.0852 24.2047C73.0818 24.212 73.0784 24.2193 73.0749 24.2268C73.0593 24.2566 73.0417 24.2826 73.0216 24.3097C73.0118 24.3232 73.0118 24.3232 73.0017 24.3369C72.9957 24.3437 72.9897 24.3504 72.9835 24.3574C72.9751 24.3574 72.9667 24.3574 72.958 24.3574C72.958 24.37 72.958 24.3826 72.958 24.3955C72.9496 24.3955 72.9412 24.3955 72.9326 24.3955C72.9272 24.4067 72.9272 24.4067 72.9217 24.418C72.8285 24.5999 72.6894 24.8251 72.5001 24.9171C72.4875 24.9171 72.4749 24.9171 72.4619 24.9171C72.4891 24.7538 72.5451 24.6014 72.6018 24.4464C72.6051 24.4375 72.6084 24.4286 72.6117 24.4194C72.6415 24.3382 72.6744 24.2589 72.711 24.1805C72.7245 24.1511 72.7375 24.1216 72.7503 24.0918C72.8456 23.8707 72.956 23.6562 73.0835 23.4519C73.0992 23.4268 73.1147 23.4016 73.1301 23.3764C73.1887 23.2815 73.249 23.1886 73.3142 23.0981C73.3243 23.0838 73.3343 23.0695 73.3444 23.0552C73.3995 22.977 73.4556 22.9003 73.5161 22.8261C73.5366 22.8009 73.5567 22.7755 73.5766 22.7498C73.6392 22.669 73.7028 22.5904 73.7725 22.5152C73.7988 22.4869 73.7988 22.4869 73.8247 22.4521C73.8325 22.4428 73.8404 22.4335 73.8485 22.4239C73.8569 22.4239 73.8652 22.4239 73.8739 22.4239C73.8768 22.417 73.8797 22.4102 73.8826 22.4032C73.9051 22.3625 73.9316 22.3311 73.9629 22.2967C73.9713 22.2967 73.9797 22.2967 73.9884 22.2967C73.9884 22.2883 73.9884 22.2799 73.9884 22.2712C73.9968 22.2712 74.0052 22.2712 74.0138 22.2712C74.0167 22.2641 74.0196 22.2571 74.0226 22.2498C74.044 22.212 74.071 22.1862 74.1021 22.1559C74.1132 22.145 74.1243 22.1341 74.1358 22.1229C74.1459 22.1131 74.156 22.1032 74.1665 22.0931C74.1736 22.0855 74.1807 22.0779 74.188 22.0701C74.2046 22.055 74.2046 22.055 74.2301 22.055C74.2301 22.0466 74.2301 22.0382 74.2301 22.0295C74.2514 22.0076 74.2514 22.0076 74.2794 21.9834C74.2885 21.9754 74.2977 21.9673 74.3071 21.9591C74.3318 21.9405 74.3318 21.9405 74.3573 21.9405C74.3598 21.9336 74.3623 21.9267 74.3648 21.9196C74.3907 21.8762 74.4267 21.8484 74.4654 21.8165C74.473 21.81 74.4805 21.8036 74.4883 21.7969C74.5447 21.7497 74.5447 21.7497 74.5735 21.7497C74.5735 21.7413 74.5735 21.7329 74.5735 21.7242C74.5964 21.7046 74.6193 21.6865 74.6435 21.6686C74.6509 21.663 74.6582 21.6575 74.6658 21.6518C74.6818 21.6397 74.6977 21.6278 74.7138 21.6158C74.7391 21.5969 74.7642 21.5778 74.7894 21.5587C74.8937 21.4796 74.9994 21.4033 75.1078 21.3299C75.1218 21.3202 75.1358 21.3105 75.1497 21.3008C75.2849 21.2079 75.4265 21.1263 75.5688 21.0448C75.5984 21.0278 75.6278 21.0105 75.6571 20.9931C75.8115 20.9025 75.9747 20.83 76.1382 20.7575C76.151 20.7517 76.1639 20.746 76.1772 20.7401C77.1434 20.3133 78.2439 20.1812 80.217 20.3696C80.274 20.3815 80.3312 20.3921 80.3884 20.4029C80.4106 20.4071 80.4328 20.4113 80.4551 20.4155C80.4652 20.4174 80.4754 20.4194 80.4859 20.4214C80.5101 20.426 80.5342 20.4308 80.5583 20.4356C80.6528 20.4541 80.7412 20.4682 80.832 20.4267C80.903 20.3768 80.937 20.3208 80.9767 20.2447C80.9828 20.2334 80.9888 20.2221 80.995 20.2105C81.0402 20.1257 81.0834 20.0398 81.1259 19.9536C81.2165 19.7708 81.3193 19.5953 81.4268 19.422C81.4451 19.3924 81.4632 19.3628 81.4814 19.3332C81.555 19.2134 81.6297 19.0947 81.7086 18.9783C81.7311 18.9445 81.7525 18.9104 81.7734 18.8756C81.7818 18.8628 81.7902 18.8499 81.7988 18.8367C81.8072 18.8367 81.8156 18.8367 81.8243 18.8367C81.8277 18.8273 81.8311 18.8179 81.8346 18.8083C81.8492 18.7741 81.8655 18.7479 81.8875 18.7181C81.8984 18.7032 81.8984 18.7032 81.9095 18.6879C81.9208 18.6726 81.9208 18.6726 81.9324 18.657C81.9474 18.6365 81.9623 18.6161 81.9773 18.5957C81.9839 18.5867 81.9906 18.5777 81.9974 18.5684C82.0123 18.5479 82.0265 18.527 82.0405 18.5059C82.0489 18.5059 82.0573 18.5059 82.0659 18.5059C82.0694 18.4965 82.0728 18.487 82.0763 18.4773C82.0908 18.4437 82.1053 18.4187 82.1295 18.3914C82.1379 18.3914 82.1463 18.3914 82.155 18.3914C82.155 18.3788 82.155 18.3663 82.155 18.3533C82.1634 18.3533 82.1718 18.3533 82.1804 18.3533C82.1838 18.3462 82.1872 18.3391 82.1908 18.3318C82.2073 18.2997 82.224 18.2689 82.244 18.2388C82.2524 18.2388 82.2608 18.2388 82.2695 18.2388C82.2729 18.2315 82.2763 18.2242 82.2798 18.2167C82.2954 18.1869 82.313 18.1609 82.3331 18.1339C82.3429 18.1204 82.3429 18.1204 82.3529 18.1066C82.359 18.0999 82.365 18.0931 82.3712 18.0861C82.3796 18.0861 82.388 18.0861 82.3967 18.0861C82.3996 18.077 82.4024 18.0678 82.4054 18.0583C82.4254 18.0155 82.4516 17.9914 82.4857 17.9589C82.4928 17.9492 82.4999 17.9395 82.5072 17.9295C82.5154 17.9189 82.5154 17.9189 82.5239 17.9081C82.5323 17.9081 82.5407 17.9081 82.5493 17.9081C82.5527 17.9007 82.5561 17.8934 82.5597 17.8858C82.5751 17.8565 82.5913 17.8315 82.6129 17.8063C82.6213 17.8063 82.6297 17.8063 82.6384 17.8063C82.6384 17.7979 82.6384 17.7895 82.6384 17.7809C82.6468 17.7809 82.6552 17.7809 82.6638 17.7809C82.669 17.7695 82.669 17.7695 82.6743 17.7579C82.6888 17.7308 82.7032 17.7121 82.7242 17.6898C82.7315 17.6819 82.7389 17.6741 82.7464 17.666C82.7546 17.6575 82.7627 17.6489 82.7711 17.6401C82.7798 17.631 82.7884 17.6219 82.7973 17.6125C82.8872 17.5184 82.979 17.4262 83.0709 17.334C83.082 17.3229 83.082 17.3229 83.0934 17.3115C83.2394 17.1649 83.2394 17.1649 83.318 17.0986C83.338 17.0812 83.3562 17.063 83.3746 17.0439C83.4016 17.0176 83.4016 17.0176 83.427 17.0176C83.427 17.0092 83.427 17.0008 83.427 16.9922C83.437 16.989 83.447 16.9859 83.4573 16.9826C83.4918 16.9707 83.4918 16.9707 83.5003 16.9449C83.5242 16.901 83.5607 16.8742 83.5988 16.8427C83.6101 16.833 83.6101 16.833 83.6217 16.8232C83.6781 16.7759 83.6781 16.7759 83.7069 16.7759C83.7069 16.7675 83.7069 16.7591 83.7069 16.7505C83.731 16.7285 83.731 16.7285 83.7625 16.7044C83.778 16.6923 83.778 16.6923 83.7939 16.68C83.8214 16.6614 83.8214 16.6614 83.8468 16.6614C83.851 16.6489 83.8552 16.6363 83.8595 16.6233C83.8794 16.6056 83.8794 16.6056 83.9033 16.5891C83.915 16.5808 83.915 16.5808 83.9271 16.5723C83.9486 16.5597 83.9486 16.5597 83.974 16.5597C83.974 16.5513 83.974 16.5429 83.974 16.5342C83.9946 16.5175 84.0159 16.5018 84.0376 16.4865C84.0913 16.4486 84.1441 16.4098 84.1959 16.3693C84.2157 16.3562 84.2157 16.3562 84.2412 16.3562C84.2412 16.3478 84.2412 16.3394 84.2412 16.3307C84.2627 16.3132 84.2627 16.3132 84.2936 16.2925C84.3346 16.2648 84.3753 16.2368 84.4151 16.2075C84.423 16.2017 84.431 16.1959 84.4391 16.19C84.4549 16.1784 84.4706 16.1668 84.4862 16.1552C84.5422 16.1145 84.5422 16.1145 84.5846 16.1145C84.5846 16.1061 84.5846 16.0977 84.5846 16.089C84.6099 16.0706 84.6099 16.0706 84.645 16.0493C84.7132 16.0073 84.7792 15.9629 84.845 15.9173C84.8772 15.8982 84.8772 15.8982 84.9153 15.8982C84.9153 15.8898 84.9153 15.8814 84.9153 15.8728C84.964 15.8449 85.0126 15.8171 85.0612 15.7893C85.0777 15.7799 85.0942 15.7704 85.1107 15.761C85.1935 15.7136 85.2764 15.6662 85.3599 15.6201C85.3876 15.6048 85.4152 15.5893 85.4428 15.5738C85.7028 15.4283 85.7028 15.4283 85.8149 15.3884C85.8526 15.3732 85.8881 15.3547 85.9242 15.3361C86.026 15.284 86.1311 15.2405 86.2368 15.197C86.271 15.1829 86.3051 15.1684 86.3393 15.1541C86.4078 15.1257 86.4764 15.0976 86.5452 15.0698C86.5556 15.0655 86.5661 15.0612 86.5769 15.0568C86.6385 15.032 86.7002 15.0111 86.764 14.9926C86.8301 14.9726 86.895 14.9489 86.9602 14.9259C87.075 14.8858 87.1893 14.8483 87.3068 14.817C87.3272 14.8112 87.3476 14.8055 87.368 14.7997C87.5368 14.7523 87.7068 14.7117 87.8778 14.6733C87.9049 14.6671 87.932 14.6609 87.959 14.6545C88.0478 14.6335 88.1366 14.6157 88.2267 14.6007C88.252 14.5964 88.2774 14.5921 88.3027 14.5877C88.315 14.5857 88.3273 14.5836 88.3399 14.5814C88.441 14.5639 88.5419 14.5447 88.6425 14.5244C88.6425 14.516 88.6425 14.5076 88.6425 14.4989C88.6509 14.4989 88.6593 14.4989 88.6679 14.4989C88.6679 14.4906 88.6679 14.4822 88.6679 14.4735Z" fill="url(#paint0_linear_53672_555955)"/>
<path d="M84.2943 26.8868L84.256 26.8867C84.2401 26.8876 84.2312 26.8881 84.2246 26.8923C84.2164 26.8975 84.2118 26.9086 84.2014 26.9336L84.1895 26.9646H84.164L84.1484 26.9847C84.1218 27.0271 84.0948 27.069 84.0659 27.1098L83.9859 27.219C83.9643 27.2485 83.9426 27.2779 83.921 27.3074L83.8985 27.3383L83.8905 27.349C83.8577 27.3933 83.826 27.436 83.803 27.4867L83.7951 27.5116H83.7697L83.7541 27.5317C83.7275 27.5741 83.7005 27.616 83.6715 27.6568L83.5916 27.766C83.5699 27.7954 83.5483 27.8249 83.5267 27.8544L83.5041 27.8853L83.4962 27.896C83.4634 27.9403 83.4317 27.983 83.4086 28.0336L83.4008 28.0586H83.3753C83.3697 28.0698 83.3666 28.0761 83.3637 28.0825C83.36 28.0905 83.3566 28.0988 83.3491 28.1174L83.3372 28.1476H83.3117C83.2898 28.1796 83.2736 28.2113 83.2585 28.247L83.2481 28.2748H83.2227L83.2006 28.3061C83.1854 28.3301 83.17 28.3537 83.1536 28.3769L83.1339 28.4041L83.0931 28.4609L83.0721 28.4898L83.052 28.5178C83.0276 28.5516 83.0156 28.5778 83.0064 28.6183C83.2276 28.6186 83.4487 28.6188 83.6699 28.6189L84.5683 28.6197L84.621 28.6197L84.6711 28.6199L84.7167 28.6198C84.7402 28.6198 84.7638 28.6195 84.7873 28.6183C84.8015 28.6112 84.8078 28.6081 84.813 28.6037C84.8172 28.6002 84.8207 28.596 84.827 28.5883C84.8636 28.5375 84.9014 28.4878 84.9401 28.4386L84.9924 28.3723C85.0049 28.357 85.0171 28.3414 85.029 28.3257C85.0484 28.2938 85.0679 28.2636 85.0908 28.2341C85.1232 28.2164 85.1397 28.2074 85.1573 28.2032C85.1755 28.1989 85.1949 28.1996 85.2344 28.2012L85.2763 28.2041C85.3254 28.2059 85.3743 28.2079 85.4233 28.2112C85.4233 28.2231 85.4233 28.2294 85.425 28.2353C85.4268 28.2421 85.4307 28.2482 85.4391 28.2614L85.4599 28.2892C85.4711 28.3043 85.4763 28.3114 85.4817 28.318C85.4862 28.3235 85.491 28.3288 85.4997 28.3384H85.5251C85.5251 28.35 85.5251 28.3563 85.5268 28.3621C85.5287 28.3692 85.5331 28.3755 85.5428 28.3896L85.5665 28.4195C85.582 28.4394 85.5979 28.459 85.6142 28.4784C85.6314 28.495 85.6484 28.512 85.665 28.5293C85.6788 28.558 85.6839 28.5687 85.6901 28.5786C85.6937 28.5844 85.6977 28.5899 85.704 28.5988C85.7159 28.6082 85.7244 28.6149 85.7338 28.6196C85.757 28.6312 85.7862 28.6307 85.8868 28.6289C85.9055 28.6286 85.9242 28.6284 85.9429 28.6284C85.9939 28.6285 86.0448 28.6283 86.0958 28.6277C86.1499 28.6271 86.2041 28.6268 86.2582 28.6267C86.3605 28.6265 86.4627 28.6259 86.565 28.625C86.6823 28.624 86.7996 28.6234 86.9169 28.6229C87.1696 28.6219 87.4222 28.6204 87.6749 28.6183V28.5801H87.6494C87.6494 28.5696 87.6494 28.5634 87.6478 28.5577C87.6456 28.5496 87.6401 28.5424 87.6269 28.5249L87.5986 28.4911C87.5648 28.4486 87.5308 28.4062 87.4968 28.3639L87.3696 28.2112L88.0692 28.1985V27.3971H85.6014L85.7159 27.2318L85.8507 27.0393L85.8662 27.0171C85.8956 26.975 85.9225 26.9345 85.9449 26.8883C85.7314 26.888 85.518 26.8878 85.3046 26.8877L84.4375 26.8869L84.3867 26.8869L84.3382 26.8867L84.2943 26.8868Z" fill="#0E6E37"/>
<path d="M94.4676 26.8882H92.9029V28.3638H90.3207V29.1779L92.7885 29.1906L92.7846 29.2042C92.774 29.2413 92.7634 29.2785 92.7516 29.3152L92.7127 29.4306C92.6908 29.4955 92.6688 29.5606 92.6485 29.626C92.6236 29.7078 92.5977 29.7892 92.5704 29.8702C92.5252 30.0035 92.4819 30.1372 92.441 30.2719C92.4184 30.3473 92.3954 30.4223 92.3681 30.4962C92.3482 30.5499 92.3305 30.6039 92.3142 30.6588L92.2951 30.7238L92.2755 30.7897C92.2418 30.9038 92.2053 31.0169 92.1675 31.1297C92.1263 31.2528 92.0863 31.3762 92.0471 31.5L91.9906 31.6788L91.9791 31.7149C91.9542 31.7933 91.929 31.8715 91.9028 31.9494C91.87 32.047 91.8392 32.1452 91.809 32.2436L91.8033 32.2622C91.7841 32.3254 91.7647 32.389 91.7439 32.4517C91.7054 32.5665 91.6679 32.6816 91.6309 32.7969L91.5991 32.8959C91.5776 32.9628 91.5555 33.0296 91.5331 33.0963C91.5178 33.1414 91.5032 33.1864 91.4899 33.2322C91.4619 33.3324 91.4309 33.4311 91.3974 33.5297L91.3847 33.5667C91.3596 33.6403 91.3344 33.7139 91.313 33.7886C91.2929 33.861 91.2719 33.9324 91.2466 34.0031C91.2195 34.0781 91.1936 34.1527 91.1722 34.2296C91.1551 34.2914 91.1363 34.3524 91.1157 34.4132C91.1008 34.4573 91.0859 34.5014 91.0721 34.5459C91.0481 34.6257 91.0227 34.7049 90.9964 34.7839L90.9829 34.8243C90.9625 34.8856 90.942 34.9469 90.9212 35.0081C90.8927 35.0921 90.8653 35.1761 90.8414 35.2615C90.8302 35.3017 90.8189 35.3414 90.805 35.3807C90.7676 35.4794 90.7368 35.5795 90.7073 35.6808L90.6896 35.7417C90.6814 35.7676 90.6734 35.7936 90.6657 35.8196C90.6155 36.0287 90.6538 36.2488 90.7591 36.4336L90.7746 36.4604L90.7831 36.4752C90.7985 36.5021 90.8139 36.529 90.8295 36.5558H90.8549C90.8549 36.566 90.8549 36.5721 90.8567 36.5776C90.8594 36.586 90.866 36.593 90.8828 36.6107L90.9185 36.6449L90.948 36.6767C91.1434 36.8585 91.4086 36.892 91.6634 36.8906C91.7008 36.8902 91.7382 36.8898 91.7756 36.8896L91.8502 36.8894L91.8856 36.8892C91.9238 36.889 91.9616 36.8882 91.9998 36.8866C92.0053 36.8811 92.0084 36.8779 92.0107 36.8743C92.0137 36.8695 92.0153 36.8639 92.019 36.851C92.0362 36.7807 92.0576 36.7128 92.0819 36.6448C92.112 36.561 92.1413 36.4776 92.1647 36.3917C92.1845 36.3178 92.2046 36.2444 92.2291 36.1719C92.2605 36.0797 92.2906 35.9872 92.3194 35.8941C92.3619 35.7558 92.4051 35.6178 92.4497 35.4803C92.4936 35.3451 92.5367 35.2097 92.5786 35.0739C92.6153 34.9547 92.6529 34.8358 92.6913 34.7172C92.7357 34.5803 92.7794 34.4433 92.8218 34.3059C92.8531 34.2045 92.8847 34.1033 92.9171 34.0023C92.9495 33.9018 92.9816 33.8012 93.0122 33.7001C93.0578 33.549 93.1055 33.3987 93.154 33.2485L93.1613 33.2258C93.2179 33.0509 93.2745 32.876 93.3275 32.6999C93.3628 32.5826 93.4001 32.4659 93.438 32.3493C93.4728 32.2423 93.5072 32.1353 93.539 32.0273C93.5682 31.9281 93.5996 31.8296 93.6316 31.7312C93.6843 31.5688 93.7354 31.4061 93.7846 31.2426C93.8083 31.1637 93.832 31.0849 93.8579 31.0067L93.8681 30.9761C93.9279 30.7981 93.9878 30.6197 94.0383 30.4388C94.0488 30.401 94.0595 30.3638 94.0726 30.3268C94.0951 30.2669 94.1159 30.2073 94.1337 30.1459C94.1554 30.0704 94.1777 29.9953 94.2028 29.9209C94.2334 29.8306 94.2625 29.7401 94.2895 29.6486C94.3143 29.5645 94.3407 29.4811 94.369 29.3981C94.3847 29.3532 94.4001 29.3086 94.4111 29.2623L94.4177 29.2319L94.4244 29.2011L94.4294 29.1779C94.7702 29.1789 95.111 29.1801 95.4517 29.1814C95.6174 29.182 95.7831 29.1827 95.9487 29.1831C96.0942 29.1836 96.2397 29.184 96.3853 29.1846L96.407 29.1847C96.4765 29.185 96.5463 29.1853 96.6158 29.1855C96.6893 29.1857 96.7628 29.1859 96.8364 29.1862L96.9176 29.1866C96.9552 29.1866 96.9933 29.1867 97.0309 29.1869L97.0651 29.1871C97.1667 29.1869 97.2366 29.2019 97.317 29.267C97.361 29.3292 97.3737 29.388 97.374 29.4632L97.3733 29.4984C97.3731 29.5375 97.3729 29.5765 97.3724 29.6156C97.372 29.6418 97.3718 29.6681 97.3716 29.6943C97.371 29.8535 97.3671 30.0125 97.3616 30.1717C97.3547 30.3725 97.3514 30.5734 97.3488 30.7744C97.3461 30.9742 97.3429 31.174 97.336 31.3738C97.3305 31.5321 97.3274 31.6904 97.3254 31.8489C97.3217 32.1384 97.316 32.4278 97.306 32.7172C97.2962 32.9955 97.2887 33.2736 97.2847 33.552L97.283 33.6778C97.281 33.821 97.279 33.9641 97.2741 34.1073C97.269 34.2459 97.2655 34.3843 97.2634 34.523C97.256 35.0313 97.2423 35.5387 97.2279 36.047H95.3326C95.3326 36.0976 95.3303 36.1481 95.328 36.1982C95.3189 36.3962 95.3102 36.5869 95.4466 36.7471C95.5528 36.8497 95.6929 36.8905 95.8383 36.8915L95.8733 36.8912L95.95 36.8913L95.9945 36.8911C96.024 36.891 96.0535 36.8909 96.083 36.8909C96.1635 36.891 96.244 36.8909 96.3245 36.8906C96.41 36.8903 96.4955 36.8902 96.581 36.8902C96.7332 36.8901 96.8855 36.8899 97.0378 36.8895C97.1861 36.8892 97.3344 36.8889 97.4827 36.8887L97.6486 36.8885C98.0384 36.8881 98.4282 36.8875 98.818 36.8866L98.8207 36.8576L98.8242 36.8196C98.8279 36.7795 98.8311 36.7397 98.8331 36.6995L98.8343 36.6556L98.8364 36.5729L98.8371 36.5423C98.8432 36.29 98.8432 36.29 98.8502 35.6693L98.8512 35.5787C98.8535 35.3668 98.8559 35.155 98.8617 34.9432C98.8663 34.7796 98.8695 34.616 98.8713 34.4523L98.8745 34.1588C98.8782 33.809 98.8844 33.4593 98.8935 33.1095C98.9037 32.7154 98.9107 32.3214 98.9149 31.9271L98.917 31.7323C98.9187 31.5773 98.921 31.4224 98.9253 31.2674C98.9413 30.6972 98.9461 30.1263 98.9468 29.5559L98.9468 29.5095C98.9469 29.4658 98.947 29.4222 98.947 29.3785L98.9469 29.339C98.9475 29.076 98.9116 28.8167 98.7417 28.6055H98.7162V28.5801C98.6975 28.5661 98.6901 28.5606 98.6824 28.5555C98.6774 28.5521 98.6722 28.5489 98.6637 28.5436L98.6399 28.5292C98.5557 28.4734 98.4987 28.4356 98.4366 28.4102C98.3063 28.3566 98.1537 28.3573 97.6806 28.3593C97.6384 28.3594 97.5962 28.3595 97.554 28.3595C97.4805 28.3594 97.407 28.3595 97.3335 28.3597C97.2268 28.36 97.12 28.3602 97.0133 28.3602C96.8399 28.3603 96.6665 28.3605 96.4931 28.3609C96.3245 28.3612 96.1558 28.3615 95.9872 28.3617L95.798 28.3619C95.4607 28.3622 95.1233 28.3626 94.786 28.3632L94.4676 28.3638V26.8882Z" fill="#0E6E37"/>
<path fill-rule="evenodd" clip-rule="evenodd" d="M55.848 27.0918H65.2739V27.9059H62.6154V29.5214L62.9821 29.5201L63.2134 29.5196C63.3355 29.5193 63.4576 29.5191 63.5797 29.5185C63.6687 29.5182 63.7577 29.5179 63.8467 29.5178C63.8937 29.5178 63.9407 29.5177 63.9877 29.5174C64.3417 29.5154 64.7241 29.5172 65.0068 29.7631C65.0162 29.7828 65.0203 29.7914 65.0237 29.8003C65.0263 29.8072 65.0284 29.8142 65.0322 29.8266L65.0577 29.8267C65.1628 30.0011 65.2179 30.1764 65.2373 30.3792L65.2405 30.4125C65.2508 30.5264 65.2521 30.6397 65.2518 30.754L65.252 30.823C65.2521 30.8854 65.2521 30.9479 65.252 31.0103C65.252 31.0695 65.2521 31.1286 65.2522 31.1878L65.2522 31.2133C65.2524 31.3454 65.2524 31.4776 65.2524 31.6098L65.2525 32.0722C65.2526 32.3638 65.2526 32.6555 65.2525 32.9471C65.2524 33.2137 65.2526 33.4803 65.2528 33.7469C65.2531 34.021 65.2532 34.2952 65.2531 34.5694C65.2531 34.7231 65.2531 34.8769 65.2533 35.0306C65.2535 35.1614 65.2535 35.2922 65.2533 35.4231C65.2533 35.4897 65.2532 35.5564 65.2534 35.6231C65.2535 35.6842 65.2535 35.7453 65.2533 35.8065C65.2533 35.8285 65.2533 35.8505 65.2534 35.8725C65.2546 36.15 65.2008 36.383 65.002 36.5901C64.9813 36.6084 64.9734 36.6153 64.9643 36.6179C64.9588 36.6195 64.9528 36.6195 64.9432 36.6195V36.6449C64.8462 36.7159 64.7406 36.7551 64.6252 36.7849L64.6012 36.7917C64.572 36.7981 64.546 36.7992 64.5162 36.7992L64.4807 36.7993L64.4418 36.7993L64.4002 36.7994L63.6176 36.8001C63.379 36.8003 63.1404 36.8005 62.9018 36.8006L62.5632 36.8008C62.1769 36.801 61.7906 36.8012 61.4042 36.8013L61.0755 36.8013C60.6834 36.8014 60.2912 36.8017 59.8991 36.8022C59.4846 36.8026 59.07 36.8028 58.6555 36.8029L58.485 36.8029C58.3047 36.8029 58.1244 36.8031 57.944 36.8034C57.7628 36.8037 57.5815 36.8037 57.4002 36.8036C57.2925 36.8035 57.1848 36.8036 57.0772 36.8039C57.0052 36.8041 56.9332 36.8041 56.8612 36.8039C56.8202 36.8038 56.7793 36.8038 56.7383 36.804C56.4884 36.8051 56.2802 36.7872 56.0897 36.6068V36.5813L56.0666 36.5716C55.9759 36.5203 55.9312 36.386 55.9049 36.2913C55.8874 36.2096 55.8889 36.1241 55.8905 36.0401C55.8908 36.022 55.8911 36.0039 55.8912 35.986L55.8911 35.9021C55.8909 35.8256 55.8912 35.7491 55.8915 35.6727C55.8918 35.5991 55.8917 35.5256 55.8917 35.4521L55.8916 35.4249C55.8916 35.2819 55.8918 35.1389 55.8922 34.9959C55.8925 34.846 55.8928 34.6961 55.8929 34.5462L55.8929 34.3757C55.8931 34.0403 55.8935 33.7049 55.8941 33.3694C55.8947 33.0437 55.8951 32.7179 55.8954 32.3921L55.8962 31.4135C55.8965 31.1239 55.8968 30.8343 55.8973 30.5448L55.8989 29.5214H58.5321V27.9059H55.848V27.0918ZM60.0967 27.9059V29.5214H61.038V27.9059H60.0967ZM57.4635 30.3355V35.9835H63.6712V34.2153H61.038V30.3355H60.0331C60.0092 30.4309 59.9886 30.5191 59.9766 30.6154C59.9647 30.7044 59.9504 30.7922 59.9321 30.8801C59.9138 30.9687 59.8974 31.0572 59.8828 31.1465C59.8606 31.2821 59.8374 31.4174 59.8136 31.5527L59.808 31.585C59.7853 31.7145 59.7624 31.8438 59.7394 31.9732L59.7061 32.1598C59.6795 32.309 59.6534 32.4583 59.6289 32.6078C59.6155 32.6894 59.6005 32.7705 59.585 32.8516C59.5738 32.9114 59.5639 32.9714 59.554 33.0314L59.5513 33.0482C59.5333 33.1575 59.5144 33.2667 59.4948 33.3758C59.47 33.5142 59.4454 33.6528 59.4211 33.7914L59.4099 33.8553C59.3796 34.0277 59.3508 34.2003 59.322 34.373L59.3207 34.3807L57.6925 34.3934L57.7815 33.9482L57.8019 33.8324L57.8219 33.7166C57.8333 33.6493 57.8469 33.5824 57.8607 33.5155C57.8718 33.4599 57.8813 33.4041 57.8907 33.3482L57.8952 33.3217C57.9103 33.233 57.9267 33.1448 57.9461 33.0569C57.9692 32.9518 57.9869 32.846 58.0041 32.7397C58.023 32.6238 58.0432 32.5088 58.0684 32.3941C58.0874 32.3067 58.1027 32.2189 58.1177 32.1307C58.1496 31.9442 58.1833 31.758 58.2212 31.5726C58.2388 31.4864 58.2536 31.3997 58.2684 31.313L58.2715 31.2946C58.2828 31.2292 58.2949 31.1643 58.3094 31.0996C58.3288 31.0128 58.343 30.9253 58.3573 30.8376L58.3605 30.8176C58.3724 30.7451 58.3852 30.673 58.4001 30.6011C58.4176 30.5136 58.4302 30.4253 58.4428 30.337L58.443 30.3355H57.4635ZM62.6154 30.3355V33.4139H63.6712C63.672 33.049 63.6727 32.684 63.6731 32.3191L63.6733 32.1638C63.6735 32.025 63.6738 31.8861 63.6741 31.7472C63.6745 31.6047 63.6747 31.4622 63.6747 31.3197C63.6748 31.2396 63.6749 31.1596 63.6752 31.0795C63.6755 31.0042 63.6755 30.9289 63.6755 30.8536C63.6755 30.8259 63.6756 30.7983 63.6757 30.7706C63.6759 30.7329 63.6759 30.6951 63.6757 30.6574L63.6761 30.6242C63.6754 30.532 63.6462 30.4667 63.5821 30.3991C63.383 30.2634 63.1362 30.2897 62.8949 30.3154C62.7998 30.3255 62.7055 30.3355 62.6154 30.3355Z" fill="#0E6E37"/>
<path fill-rule="evenodd" clip-rule="evenodd" d="M78.8108 28.9092L78.8459 28.9091L78.8849 28.9092L78.9262 28.9091L79.7064 28.9086C79.9443 28.9084 80.1823 28.9083 80.4202 28.9083L80.758 28.9082C81.1434 28.908 81.5289 28.9079 81.9143 28.9078L82.2424 28.9078C82.6335 28.9077 83.0245 28.9075 83.4156 28.9072C83.8291 28.9069 84.2425 28.9067 84.656 28.9067L84.8262 28.9067C85.0059 28.9067 85.1857 28.9066 85.3654 28.9064C85.5463 28.9062 85.7272 28.9062 85.9081 28.9063C86.0155 28.9063 86.1228 28.9063 86.2302 28.9061C86.3021 28.9059 86.3739 28.906 86.4458 28.9061C86.4867 28.9062 86.5275 28.9061 86.5684 28.906C86.8028 28.9052 87.0434 28.9101 87.2676 28.9872L87.3002 28.9982C87.4743 29.0623 87.6056 29.177 87.6936 29.3402C87.7849 29.5429 87.8039 29.7647 87.8034 29.9841L87.8035 30.0395L87.8025 32.5975C87.8024 33.1495 87.8022 33.7015 87.8019 34.2535L79.0482 34.2551C78.9989 34.2551 78.9497 34.2551 78.9004 34.255L78.8565 34.2551L78.8172 34.2551L78.783 34.2551C78.7683 34.2541 78.7621 34.2538 78.7571 34.2512C78.7534 34.2493 78.7503 34.2461 78.7449 34.2408C78.7436 34.2126 78.7433 34.1844 78.7433 34.1562L78.7432 34.1289L78.7432 34.0375L78.7432 29.095L78.7433 28.9592C78.7455 28.9086 78.758 28.9088 78.7984 28.9091L78.8108 28.9092ZM80.3095 29.725V30.4246H86.2373C86.2519 30.2559 86.2588 30.1768 86.2514 30.0991C86.2448 30.0304 86.227 29.9628 86.1935 29.8355C86.1134 29.7514 86.0141 29.7187 85.9005 29.7156C85.8582 29.715 85.8159 29.7153 85.7736 29.7158L85.7027 29.7156C85.6381 29.7154 85.5734 29.7157 85.5088 29.7161C85.4467 29.7164 85.3846 29.7163 85.3226 29.7163L85.2993 29.7163C85.1785 29.7162 85.0576 29.7165 84.9368 29.7169C84.762 29.7175 84.5873 29.7177 84.4126 29.7178C84.129 29.718 83.8455 29.7185 83.562 29.7192C83.2866 29.7199 83.0113 29.7204 82.7359 29.7208L82.4288 29.7211C81.7224 29.7219 81.0159 29.7233 80.3095 29.725ZM80.3095 31.2387V31.9256H86.2373V31.2387H80.3095ZM80.3095 32.7397V33.4266H86.2373V32.7397H80.3095Z" fill="#0E6E37"/>
<path d="M67.2709 31.048H76.6969V31.8621L71.4051 31.8748L71.4047 31.8755C71.3661 31.9475 71.3468 31.9836 71.3279 32.0199C71.3089 32.0562 71.2903 32.0927 71.2533 32.1658C71.2182 32.2367 71.1818 32.3068 71.1444 32.3765C71.1051 32.4497 71.0686 32.5236 71.0338 32.5991C71.0023 32.6674 70.9686 32.7318 70.9286 32.7956C70.9019 32.8409 70.8788 32.8879 70.8556 32.935L70.8494 32.9477C70.8132 33.0211 70.7754 33.0936 70.7373 33.1659C70.6914 33.2531 70.6464 33.3406 70.6027 33.4289C70.5671 33.5006 70.5297 33.5713 70.492 33.642C70.4583 33.7053 70.4259 33.7693 70.3941 33.8337C70.3719 33.8775 70.3488 33.9209 70.3255 33.9642C70.2901 34.0299 70.256 34.096 70.2229 34.1629C70.1825 34.2445 70.1404 34.325 70.0976 34.4053C70.0708 34.4556 70.0446 34.5061 70.0194 34.5572C69.9867 34.6232 69.9527 34.6885 69.9184 34.7536L69.9018 34.7852C69.8767 34.8327 69.8516 34.88 69.826 34.9272C69.7761 35.0193 69.73 35.1125 69.6861 35.2077C69.663 35.2573 69.6387 35.3048 69.6099 35.3515C69.5723 35.4129 69.5401 35.4775 69.5079 35.542L69.497 35.5638H74.3054L74.2036 35.2966L74.1593 35.1706L74.1456 35.1312C74.1248 35.0725 74.1014 35.0148 74.0778 34.9571C74.0537 34.8975 74.0333 34.8372 74.0135 34.776C73.9984 34.7319 73.9812 34.6887 73.9635 34.6455C73.9362 34.5785 73.9109 34.5111 73.8872 34.4428C73.8585 34.36 73.828 34.2781 73.7966 34.1963C73.7625 34.1076 73.7297 34.0186 73.6986 33.9288C73.6685 33.8425 73.6356 33.7573 73.6022 33.6723L73.5897 33.6401L73.5786 33.612C73.5663 33.5755 73.5571 33.5381 73.5479 33.5006L73.5422 33.4776H75.2849L75.3358 33.6302L75.3547 33.6727L75.374 33.7151C75.3913 33.7557 75.4048 33.7974 75.4183 33.8393L75.4241 33.8574C75.4373 33.8967 75.4518 33.9351 75.467 33.9737C75.4936 34.0418 75.5179 34.1105 75.5417 34.1796C75.5823 34.2975 75.6267 34.4137 75.6722 34.5298C75.7029 34.6085 75.7313 34.6875 75.7573 34.7679C75.7714 34.8097 75.7887 34.8492 75.8064 34.8896C75.815 34.915 75.8235 34.9404 75.8319 34.9659C75.8463 35.0081 75.8609 35.0502 75.8756 35.0923L75.8872 35.1258C75.9089 35.1881 75.9329 35.2487 75.9591 35.3094C75.9707 35.3416 75.9821 35.3739 75.9933 35.4063C76.0278 35.5057 76.0648 35.6039 76.1026 35.702C76.1239 35.7574 76.144 35.8127 76.1626 35.8691C76.1745 35.9018 76.1866 35.9344 76.1988 35.967L76.2032 35.9788C76.236 36.0672 76.2677 36.156 76.2986 36.2451C76.3313 36.3393 76.3654 36.4325 76.4053 36.5239C76.4234 36.5734 76.4244 36.6185 76.417 36.6705C76.3865 36.7327 76.3506 36.7652 76.2898 36.7977C76.247 36.8049 76.2049 36.8045 76.1615 36.804L76.123 36.8042C76.081 36.8044 76.039 36.8042 75.997 36.804L75.9092 36.804C75.8478 36.804 75.7865 36.8039 75.7251 36.8036C75.6467 36.8032 75.5682 36.8033 75.4898 36.8034C75.4293 36.8035 75.3689 36.8034 75.3084 36.8033L75.2217 36.8032C75.1811 36.8033 75.1406 36.8031 75.1001 36.8028L75.0642 36.803C74.966 36.8019 74.8777 36.7806 74.7944 36.7269L74.7689 36.7109L74.7506 36.6959V36.6705H74.7252C74.6526 36.5812 74.6127 36.4916 74.598 36.3779L74.5574 36.378C73.9673 36.379 73.3771 36.38 72.787 36.3806L71.8623 36.3814C71.5552 36.3817 71.248 36.3821 70.9409 36.3827C70.6251 36.3833 70.3094 36.3837 69.9937 36.3839L69.8331 36.3839C69.6919 36.384 69.5508 36.3843 69.4096 36.3847C69.2675 36.385 69.1254 36.3852 68.9834 36.3851C68.9064 36.3851 68.8295 36.3851 68.7526 36.3855C68.6821 36.3858 68.6116 36.3858 68.5411 36.3856C68.5156 36.3855 68.4902 36.3856 68.4648 36.3858C68.2636 36.3873 68.0758 36.3672 67.9197 36.2252C67.7901 36.0917 67.7078 35.927 67.7022 35.7386C67.7111 35.5589 67.7819 35.4145 67.8667 35.2603C67.8899 35.2175 67.9116 35.1741 67.9332 35.1305L67.9708 35.0547C67.9918 35.0124 68.013 34.9701 68.0341 34.9278L68.0469 34.9023C68.068 34.8601 68.0891 34.8178 68.11 34.7755C68.1581 34.6786 68.2077 34.5825 68.2586 34.487C68.2952 34.4183 68.3302 34.349 68.3647 34.2792C68.3954 34.2173 68.4276 34.1562 68.4603 34.0953C68.4982 34.0247 68.5335 33.9535 68.5668 33.8807C68.6042 33.7993 68.6456 33.721 68.6893 33.643C68.7375 33.5569 68.7819 33.4702 68.823 33.3805C68.8596 33.3012 68.9 33.2242 68.941 33.1471C68.9924 33.0504 69.0414 32.9525 69.09 32.8543C69.1463 32.7405 69.2037 32.6274 69.2635 32.5154C69.3004 32.4461 69.3356 32.3762 69.3704 32.3058C69.4065 32.2333 69.4447 32.162 69.4836 32.0909C69.5135 32.0329 69.5407 31.9735 69.568 31.9142L69.5861 31.8748L67.2709 31.8621V31.048Z" fill="#0E6E37"/>
<path d="M81.3655 34.5459H79.7881V35.0802C79.6361 35.0799 79.4841 35.0797 79.332 35.0796L78.7856 35.079L78.6607 35.0788L78.6227 35.0788C78.5828 35.0786 78.5432 35.079 78.5033 35.0802C78.4986 35.085 78.4956 35.088 78.4936 35.0915C78.4904 35.0974 78.49 35.1049 78.4891 35.1249L78.4893 35.2435L78.4894 35.2695L78.4895 35.368L78.4906 35.8943H79.5464C79.5174 35.9428 79.4879 35.9907 79.4577 36.0385L79.4383 36.0692C79.3808 36.1603 79.3227 36.2509 79.2641 36.3412C79.2248 36.4018 79.1858 36.4625 79.1471 36.5235L79.1046 36.5905L79.0376 36.6957L79.0127 36.7338L78.9883 36.7712C78.9612 36.8125 78.948 36.8378 78.9358 36.8865H80.6913C80.7417 36.7942 80.7928 36.704 80.8479 36.6146L80.8686 36.5814L80.8883 36.5491C80.908 36.5174 80.92 36.4934 80.9286 36.4568L80.933 36.4286H80.9584C80.9969 36.3482 81.0412 36.273 81.088 36.1972L81.109 36.1635L81.1291 36.1307C81.1491 36.0985 81.1616 36.074 81.1704 36.037L81.1747 36.0088H81.2001L81.2128 35.9452H81.2383L81.251 35.907L85.2834 35.8943V36.8865L86.1716 36.8878L86.2821 36.888L86.3159 36.888C86.4649 36.8886 86.591 36.8561 86.7081 36.7593V36.7339H86.7335L86.7514 36.7114L86.7709 36.6798C86.7983 36.6369 86.8168 36.608 86.8291 36.5767C86.8547 36.5115 86.8538 36.4359 86.8509 36.2034L86.8503 36.1424L86.8501 36.1251C86.8498 36.0645 86.8493 36.0039 86.8486 35.9433L86.848 35.8943C86.988 35.8946 87.128 35.8948 87.2679 35.8949L87.771 35.8956L87.886 35.8958L87.921 35.8958C87.9578 35.8959 87.9943 35.8955 88.031 35.8943C88.0359 35.8895 88.0389 35.8865 88.0408 35.8829C88.044 35.8771 88.0444 35.8697 88.0454 35.8502L88.0455 35.7346L88.0455 35.5727C88.0454 35.5252 88.0454 35.4777 88.0454 35.4301L88.0455 35.3191L88.0455 35.2662L88.0455 35.2143L88.0454 35.1666C88.0454 35.142 88.045 35.1174 88.0438 35.0929C88.0404 35.0896 88.0378 35.087 88.0348 35.085C88.0253 35.0787 88.0117 35.0787 87.9544 35.0786L87.921 35.0788L86.848 35.0802V34.5459H85.2834V35.0802H81.3655V34.5459Z" fill="#0E6E37"/>
<path d="M67.588 27.1792L67.6209 27.1793L67.6589 27.1792L67.7011 27.1793L67.7458 27.1792L76.2771 27.1808V28.0077H67.5508C67.5508 27.2702 67.5508 27.1912 67.5773 27.181C67.5805 27.1797 67.584 27.1795 67.588 27.1792Z" fill="#0E6E37"/>
<path d="M79.5503 26.8867L79.5901 26.8868L79.6355 26.8867L79.6858 26.8869L79.7385 26.8869L80.6377 26.8877C80.8591 26.8878 81.0804 26.888 81.3018 26.8883C81.284 26.9346 81.2644 26.9714 81.235 27.0115C81.1806 27.0876 81.1333 27.1668 81.0873 27.2483L81.0633 27.2906L81.0412 27.33L81.0219 27.359H80.9965V27.3971H83.2226V28.1985L82.4721 28.2112L82.4848 28.2494H82.5102C82.5183 28.2584 82.5228 28.2634 82.5271 28.2686C82.5327 28.2754 82.5379 28.2825 82.55 28.2987C82.5926 28.3553 82.6369 28.4102 82.6819 28.4648C82.6926 28.4794 82.6973 28.4859 82.6994 28.4932C82.7011 28.4989 82.7011 28.5052 82.7011 28.5165H82.7265C82.7624 28.5651 82.773 28.5794 82.7761 28.5952C82.7774 28.6018 82.7774 28.6086 82.7774 28.6183H80.9202L80.9075 28.5801H80.882C80.8615 28.5559 80.8426 28.5318 80.824 28.5062L80.8081 28.4851C80.7846 28.4533 80.7674 28.4271 80.7548 28.3893H80.7294C80.7069 28.3625 80.6858 28.3355 80.665 28.3074C80.6411 28.2704 80.6295 28.2525 80.6138 28.2395C80.5991 28.2273 80.5808 28.2195 80.5454 28.2042C80.4941 28.1986 80.4689 28.1958 80.4443 28.1987C80.4205 28.2016 80.3974 28.2097 80.3518 28.2257C80.308 28.2691 80.2777 28.3216 80.2471 28.3746L80.246 28.3766C80.2313 28.3992 80.2165 28.4218 80.2015 28.4442L80.1844 28.4719L80.1697 28.4911H80.1442L80.1355 28.5189C80.115 28.5628 80.0978 28.5945 80.0552 28.6183C80.0021 28.6272 79.9493 28.6265 79.8957 28.6257L79.8856 28.6255L79.8334 28.6255C79.7861 28.6256 79.7389 28.6252 79.6917 28.6247C79.647 28.6244 79.6024 28.6243 79.5577 28.6243L79.5435 28.6242C79.45 28.624 79.3566 28.6235 79.2631 28.6229C79.1567 28.6222 79.0502 28.6218 78.9438 28.6215C78.7249 28.6208 78.5059 28.6197 78.287 28.6183C78.3013 28.5805 78.3153 28.5504 78.3379 28.5165H78.3633L78.3714 28.4912C78.3939 28.4416 78.4247 28.4001 78.4569 28.3566L78.4627 28.3488L78.5073 28.2878L78.5306 28.2561C78.5694 28.2032 78.6079 28.15 78.6464 28.0968L78.668 28.067L78.7055 28.0153C78.7125 28.0057 78.7163 28.0003 78.7195 27.995C78.7231 27.989 78.726 27.9828 78.7322 27.9695H78.7577L78.7656 27.9445C78.7884 27.8943 78.8197 27.8522 78.8522 27.8084L78.8594 27.7986L78.9047 27.7368L78.9273 27.706C78.9564 27.6661 78.9851 27.6259 79.0137 27.5855C79.0566 27.5252 79.1002 27.4654 79.1441 27.4059C79.1942 27.3378 79.2434 27.2691 79.2919 27.2C79.3429 27.1274 79.3945 27.0552 79.447 26.9837L79.4651 26.959C79.5011 26.9101 79.5121 26.8951 79.5266 26.8899C79.533 26.8877 79.5401 26.8873 79.5503 26.8867Z" fill="#0E6E37"/>
<path fill-rule="evenodd" clip-rule="evenodd" d="M56.3142 38.6695C56.3086 38.6688 56.303 38.6684 56.2931 38.6676C56.2885 38.6721 56.2856 38.6751 56.2834 38.6785C56.2795 38.6845 56.2778 38.692 56.2733 38.7129L56.2677 38.7439H56.2422C56.2363 38.7648 56.2338 38.7738 56.2296 38.7819C56.2265 38.788 56.2224 38.7936 56.2153 38.8035C56.1911 38.8356 56.1683 38.8666 56.1492 38.9021L56.1405 38.922H56.115L56.0896 38.9856H56.0642L56.0415 39.0131C55.9697 39.1047 55.8761 39.1798 55.7811 39.2463C55.7614 39.2595 55.7527 39.2653 55.7444 39.2716C55.738 39.2764 55.7318 39.2816 55.7208 39.2908L55.7207 39.329C55.7668 39.3461 55.8064 39.367 55.8479 39.3934C55.8791 39.4134 55.908 39.4295 55.9427 39.4425C55.9569 39.4429 55.9649 39.4432 55.9726 39.4416C55.9823 39.4396 55.9913 39.4346 56.0119 39.4234L56.0491 39.395C56.0698 39.3795 56.0791 39.3725 56.0881 39.3652C56.0953 39.3592 56.1024 39.353 56.115 39.3417V39.3163H56.1405V39.2909H56.1659L56.1786 39.2527H56.2041V39.2273H56.2295L56.2422 39.1891H56.2677V39.1637H56.2931L56.3186 39.1255C56.3427 39.1215 56.3527 39.1199 56.3627 39.119C56.3697 39.1184 56.3767 39.1181 56.3886 39.1176L56.4156 39.1167C56.4468 39.1152 56.4781 39.1139 56.5094 39.1128V39.1382H56.5348C56.5348 39.1509 56.5348 39.1573 56.5364 39.1632C56.5381 39.1691 56.5413 39.1746 56.5478 39.1856L56.565 39.2098C56.5743 39.223 56.5785 39.2291 56.5831 39.2348C56.5869 39.2396 56.591 39.2442 56.5984 39.2527H56.6239V39.2781L56.6875 39.3799H56.2677V40.5375H56.802V40.7919H55.797V41.0081L56.662 41.0209C56.4677 41.1597 56.2469 41.2525 56.0117 41.2967C55.9581 41.3061 55.9105 41.3168 55.8606 41.3389L55.8733 41.377L55.937 41.4025L55.9497 41.4406C55.9667 41.4489 55.9837 41.4574 56.0006 41.4661C56.0088 41.4831 56.0173 41.5001 56.026 41.517C56.0535 41.5272 56.0727 41.5302 56.1018 41.5263L56.128 41.5192L56.1576 41.5114L56.189 41.5026L56.2547 41.4846L56.2846 41.476C56.5157 41.4102 56.8622 41.3114 56.9832 41.0941L56.9928 41.0717H57.0182L57.0436 41.0209L58.0994 41.0081V41.517H58.4175V41.0081H59.3206V40.7919H58.4175V40.5375H58.9008V39.3799L58.6083 39.3672L58.71 39.329L58.7228 39.2909H58.6973C58.6973 39.2799 58.6973 39.2728 58.6956 39.2662C58.6925 39.2543 58.6837 39.2438 58.6592 39.2145L58.5701 39.1255L59.2825 39.1128V38.9092H58.0486L58.0623 38.8847C58.0947 38.827 58.1195 38.7828 58.1376 38.7184C58.1294 38.7143 58.1235 38.7114 58.1173 38.7089C58.1019 38.7028 58.0851 38.7001 58.026 38.6904L57.9921 38.685L57.9585 38.6794L57.9262 38.6742C57.9106 38.6717 57.903 38.6704 57.8956 38.6696C57.8892 38.6689 57.8827 38.6684 57.8705 38.6676C57.85 38.6744 57.8406 38.6775 57.8333 38.6834C57.8269 38.6885 57.8223 38.6957 57.8136 38.7091C57.7379 38.8512 57.645 38.9771 57.527 39.0873L57.5143 38.9092H56.4839C56.5108 38.8644 56.5188 38.8512 56.5242 38.837C56.5264 38.831 56.5283 38.8249 56.5308 38.8162L56.5348 38.7948H56.5603L56.5857 38.7184C56.5392 38.7062 56.4925 38.6981 56.4451 38.6904L56.4116 38.685L56.3777 38.6794L56.3455 38.6742C56.3288 38.6715 56.3215 38.6703 56.3142 38.6695ZM56.9292 39.2527L56.8401 39.1128H57.5016V39.1255C57.4774 39.1442 57.4531 39.1624 57.4284 39.1803C57.3817 39.2143 57.3378 39.2486 57.2981 39.2909L57.3273 39.3006L57.3656 39.3139C57.4164 39.3312 57.4372 39.341 57.4761 39.3799H56.8401V39.3672L56.9673 39.329L56.9546 39.2527H56.9292ZM57.6924 39.2909L57.7178 39.2781C57.8484 39.1032 57.973 39.0801 58.1885 39.1128L58.2012 39.1255C58.292 39.2019 58.3688 39.2776 58.4302 39.3799H57.6033L57.6288 39.3672V39.3417L57.6924 39.3163V39.2909ZM56.573 39.7106V39.558H58.5828V39.7106H56.573ZM56.573 40.0414V39.876H58.5828V40.0414H56.573ZM56.573 40.3721V40.194H58.5828V40.3721H56.573ZM57.1072 40.7919V40.5375H58.0994V40.7919H57.1072Z" fill="#0E6E37"/>
<path fill-rule="evenodd" clip-rule="evenodd" d="M73.784 38.6802C73.854 38.678 73.918 38.6862 73.9867 38.6993L74.0168 38.7048L74.0595 38.7128L74.0893 38.7184C74.0574 38.9007 74.0068 39.087 73.9239 39.2527H75.196V39.4816H74.9289L74.9161 39.5961C74.8535 39.9128 74.7316 40.2117 74.5759 40.4929L74.5091 40.6138H74.4836L74.4733 40.6416C74.4583 40.677 74.4405 40.7084 74.42 40.741H74.4455L74.455 40.7712C74.4725 40.8078 74.4832 40.8127 74.5164 40.8276L74.5218 40.83L74.5345 40.8682C74.5509 40.8762 74.5589 40.88 74.5671 40.8833C74.5748 40.8863 74.5827 40.8888 74.5981 40.8936L74.5981 40.919H74.6236L74.6744 40.9699L74.7158 40.997L74.7508 41.0208V41.0463L74.7771 41.0556C74.821 41.0746 74.8602 41.0992 74.9005 41.1246L74.901 41.125C75.0096 41.1918 75.1335 41.2624 75.2596 41.2879C75.2547 41.2995 75.2522 41.3056 75.2492 41.3116C75.2459 41.3184 75.2422 41.3249 75.2341 41.3388L75.196 41.3515V41.377C75.1708 41.3984 75.1453 41.4196 75.1197 41.4406L75.1069 41.466H75.0815L75.0688 41.5042C75.015 41.5109 74.98 41.4943 74.9331 41.4691C74.9127 41.4582 74.8919 41.448 74.871 41.4383C74.6801 41.3491 74.5139 41.223 74.3564 41.0844L74.3201 41.0566L74.2928 41.0335V41.0081H74.2674V40.9826H74.2419L74.2165 40.9572L74.1656 40.9826V41.0081H74.1402L74.1275 41.0463C74.1156 41.0571 74.1092 41.0629 74.1027 41.0684C74.0953 41.0747 74.0875 41.0806 74.071 41.0932L74.0401 41.1172C74.025 41.1273 74.0183 41.1317 74.0109 41.1337C74.0051 41.1353 73.9988 41.1353 73.9875 41.1353V41.1607C73.9508 41.1858 73.9383 41.1944 73.9245 41.1974C73.9174 41.1989 73.9099 41.1989 73.8985 41.1989V41.2243C73.4325 41.495 73.3565 41.5391 73.2827 41.5357C73.2684 41.535 73.2541 41.5326 73.237 41.5296C73.2266 41.518 73.2211 41.5119 73.2163 41.5053C73.2109 41.4979 73.2062 41.49 73.1965 41.4732C73.1846 41.4512 73.1788 41.4404 73.1709 41.4315C73.1633 41.4229 73.1538 41.416 73.1353 41.4024V41.377H73.1098L73.1013 41.3638L73.0943 41.353L73.0892 41.3447C73.0846 41.3369 73.0802 41.3289 73.0716 41.3134C73.1232 41.2867 73.174 41.2617 73.2283 41.241C73.3774 41.1824 73.5273 41.1159 73.6568 41.0208L73.7094 40.9844L73.7681 40.9437L73.7964 40.9241C73.8371 40.8955 73.8752 40.8676 73.9098 40.8316L73.9366 40.8046H73.9621L73.9732 40.7807C73.9798 40.7683 73.9834 40.7615 73.9878 40.7554C73.9929 40.7483 73.9992 40.742 74.013 40.7282C74.0081 40.689 73.9917 40.6594 73.9715 40.6258L73.9539 40.596L73.9351 40.5645C73.8044 40.3416 73.6979 40.1094 73.6186 39.8632L73.5678 39.9523H73.5423L73.5328 39.9801C73.5153 40.0194 73.4949 40.0478 73.466 40.0795H73.4405L73.4318 40.1002C73.4108 40.1381 73.3847 40.1683 73.3566 40.2008L73.3515 40.2067C73.2971 40.1808 73.2507 40.1469 73.2022 40.1114L73.1752 40.0921L73.1498 40.0735L73.1265 40.0567L73.1098 40.0413V40.0159H72.1049V40.9699L72.3466 40.8936C72.3912 40.8816 72.4358 40.8695 72.4805 40.8579C72.5464 40.8406 72.612 40.8217 72.6775 40.8028L72.7155 40.7918C72.9557 40.7229 73.0166 40.7054 73.0782 40.6918C73.099 40.6871 73.1199 40.683 73.148 40.6774L73.1861 40.919C73.0807 40.9548 72.9757 40.9888 72.8685 41.0189C72.7881 41.0416 72.7082 41.0662 72.6284 41.0908L72.5632 41.1108C72.5255 41.1223 72.4879 41.1337 72.4502 41.145C72.2929 41.1892 72.2144 41.2112 72.1379 41.2386C72.0616 41.2659 71.9872 41.2985 71.8388 41.3634C71.8246 41.3707 71.818 41.3741 71.811 41.3756C71.805 41.377 71.7986 41.377 71.7869 41.377L71.7747 41.3495C71.7561 41.3077 71.7468 41.2868 71.7366 41.2664C71.7264 41.246 71.7153 41.2261 71.6931 41.1862L71.6724 41.148L71.6851 41.1099L71.7161 41.0987C71.7342 41.0928 71.7426 41.0901 71.7486 41.0845C71.7538 41.0797 71.7571 41.0726 71.7632 41.0593C71.778 41.0073 71.7781 40.958 71.7782 40.9045L71.7782 40.8992L71.7786 40.8623C71.779 40.8222 71.7792 40.782 71.7794 40.7419L71.7802 40.6583C71.7808 40.5851 71.7813 40.5118 71.7818 40.4386C71.7824 40.3506 71.7832 40.2627 71.7839 40.1748C71.7849 40.0626 71.7857 39.9505 71.7864 39.8384L71.7869 39.7742H72.8427V39.1382H71.7487V38.8965H73.148L73.1607 39.9523C73.2098 39.8984 73.2341 39.8716 73.2568 39.8436C73.2791 39.8162 73.2999 39.7874 73.3412 39.7305L73.3573 39.7057C73.5589 39.3931 73.6856 39.0369 73.784 38.6802ZM73.8222 39.4816C73.8077 39.5396 73.8177 39.5738 73.8349 39.6287L73.8436 39.6572C73.9141 39.8842 74.0077 40.0966 74.1147 40.3085L74.1656 40.4102H74.1911L74.2165 40.4738C74.3588 40.3415 74.4422 40.1097 74.4964 39.9268L74.5052 39.8971C74.5154 39.8631 74.5254 39.829 74.5353 39.7949L74.5448 39.7626C74.5688 39.6785 74.5865 39.5954 74.6048 39.5099L74.6108 39.4816H73.8222Z" fill="#0E6E37"/>
<path d="M97.3804 38.6802H97.0497V39.0491H95.6504V39.2907H97.0497V40.0413H95.4596V40.283L96.808 40.2957V40.3211H96.7825V40.3466C96.7611 40.3537 96.7517 40.3568 96.7449 40.3629C96.7396 40.3676 96.7359 40.374 96.7293 40.3855L96.7189 40.4102C96.7074 40.4102 96.7011 40.4102 96.6956 40.4122C96.6889 40.4147 96.6833 40.4202 96.671 40.4323C96.6396 40.4641 96.6062 40.488 96.5695 40.5135C96.5467 40.5293 96.5243 40.5456 96.5027 40.5628V40.5882C96.4947 40.5882 96.489 40.5882 96.4835 40.5893C96.4698 40.592 96.4574 40.6014 96.4142 40.6341C96.3358 40.6941 96.2583 40.7473 96.1704 40.7927L96.1465 40.8045V40.8299C96.1187 40.8359 96.0944 40.8432 96.0684 40.855L96.0416 40.8689C96.0256 40.8771 96.0097 40.8853 95.9939 40.8935V40.919H95.9557C95.9202 40.9427 95.8843 40.9609 95.8457 40.979L95.8174 40.9921L95.7013 41.0462C95.6058 41.0919 95.5118 41.1328 95.4109 41.1649L95.3833 41.1734V41.2116C95.3979 41.2213 95.4071 41.2275 95.4143 41.232C95.4181 41.2344 95.4214 41.2364 95.4247 41.2383C95.4279 41.2401 95.4311 41.2418 95.4348 41.2438L95.4493 41.2513L95.4723 41.2624V41.2879L95.4938 41.3046L95.5232 41.326C95.5393 41.3442 95.547 41.3529 95.5553 41.3611C95.563 41.3687 95.5711 41.3759 95.5868 41.3896C95.6231 41.3865 95.6516 41.3765 95.6852 41.3626L95.7236 41.3443L95.7677 41.3234C95.7921 41.3118 95.8165 41.3003 95.8411 41.2891C96.0433 41.198 96.2309 41.0876 96.4136 40.962L96.4391 40.9444C96.4692 40.9238 96.4993 40.9032 96.5294 40.8824L96.5591 40.8617L96.5882 40.8418L96.6147 40.8232C96.6257 40.8155 96.6317 40.8114 96.6365 40.8077L96.6395 40.8054C96.6438 40.802 96.6479 40.7983 96.6552 40.7919L96.6553 40.7663C96.6677 40.7663 96.674 40.7663 96.6798 40.7646C96.686 40.7627 96.6917 40.7589 96.7032 40.7509L96.7317 40.7282L96.7672 40.7003L96.8048 40.6701C96.8276 40.652 96.85 40.6333 96.8716 40.6137V40.5882H96.897V40.5628H96.9225L97.037 40.4483L97.0497 41.5296H97.3804V40.4356L97.4186 40.4738H97.444V40.4992C97.4591 40.5159 97.4667 40.5242 97.4746 40.5322C97.4785 40.536 97.4824 40.5398 97.4873 40.5444L97.5076 40.5628H97.5331V40.5882L97.5967 40.6137V40.6391L97.6348 40.6518V40.6773C97.6711 40.7091 97.7125 40.7348 97.7549 40.7576L97.7747 40.7663V40.7918C97.7954 40.8074 97.8161 40.8228 97.8374 40.8375C97.8548 40.8493 97.872 40.8612 97.8892 40.8734C98.06 40.996 98.2333 41.1168 98.4219 41.211C98.4478 41.2238 98.4737 41.2367 98.4995 41.2498C98.5916 41.2967 98.6831 41.3433 98.7795 41.3808L98.8051 41.3896L98.8313 41.3996C98.8435 41.401 98.8496 41.4017 98.8552 41.4002C98.861 41.3987 98.8663 41.3949 98.8769 41.3873C98.916 41.3432 98.9558 41.3037 99.0015 41.2664L99.0277 41.2456C99.031 41.2419 99.0337 41.2389 99.036 41.2361L99.038 41.2335L99.039 41.232L99.0401 41.2304L99.0412 41.2286L99.0421 41.2268C99.0468 41.2171 99.0468 41.2052 99.0468 41.1734C98.8792 41.1223 98.7217 41.0526 98.5682 40.9688C98.5319 40.9489 98.4956 40.9296 98.4584 40.9114C98.3947 40.8808 98.3362 40.8492 98.2788 40.8077C98.2429 40.7814 98.2157 40.7647 98.1739 40.748L98.1436 40.7409V40.7155L98.1176 40.6972L98.0832 40.6773C98.0514 40.6587 98.0196 40.6408 97.9868 40.624L97.9656 40.6137V40.5882H97.9274V40.5628L97.8868 40.5334C97.8573 40.5131 97.8332 40.4942 97.8073 40.469C97.7886 40.4498 97.7697 40.4309 97.75 40.4127L97.7231 40.3887C97.6974 40.3658 97.6747 40.3475 97.6444 40.3312L97.6221 40.3211V40.2957L98.9832 40.283V40.0413H97.3804V39.2907H98.8051V39.0491H97.3804V38.6802Z" fill="#0E6E37"/>
<path d="M89.1121 38.6802H89.4301V39.189H90.7658V39.4307H89.4301V39.9522H91.0329V40.1939H89.6464C89.6852 40.2383 89.7045 40.2603 89.7246 40.2815C89.7444 40.3024 89.7651 40.3225 89.8061 40.3624L89.8404 40.3937C89.8573 40.4084 89.8661 40.416 89.8754 40.4229C89.8808 40.427 89.8865 40.4308 89.8942 40.4357L89.9002 40.4395L89.9178 40.4505L89.9517 40.4738V40.4992L89.9803 40.5095C90.0139 40.524 90.0389 40.5386 90.0662 40.5628V40.5882L90.0942 40.5984C90.1301 40.6138 90.1579 40.6318 90.1894 40.6547C90.3634 40.7791 90.5452 40.8831 90.74 40.9707C90.7755 40.987 90.8099 41.0051 90.8445 41.0231C90.9302 41.0666 91.0202 41.0988 91.1105 41.1311L91.122 41.1352C91.1004 41.1828 91.076 41.2068 91.0329 41.237H91.0075V41.2624H90.982V41.2879H90.9566V41.3133C90.9499 41.3234 90.9463 41.3288 90.9419 41.3333C90.937 41.3385 90.9311 41.3426 90.9184 41.3515C90.8516 41.3463 90.7958 41.3215 90.7356 41.2942L90.7053 41.2807C90.6111 41.2375 90.5215 41.1875 90.432 41.1354C90.3923 41.1126 90.3519 41.0913 90.3114 41.07L90.3043 41.0663C90.2226 41.0188 90.1453 40.964 90.0681 40.9094L90.0232 40.8776L89.9267 40.8098C89.9055 40.7951 89.8841 40.7806 89.8626 40.7663V40.7409L89.8364 40.7329C89.7874 40.71 89.7472 40.6785 89.71 40.6391V40.6137L89.6464 40.5882V40.5628H89.6209C89.5991 40.5423 89.5781 40.5208 89.5573 40.4992L89.4428 40.3847L89.4301 41.5296H89.1121L89.0994 40.4102L88.9849 40.5246C88.9081 40.595 88.8919 40.6098 88.8738 40.6129C88.869 40.6137 88.864 40.6137 88.8577 40.6137L88.845 40.6518C88.8331 40.6627 88.8268 40.6685 88.8202 40.674C88.8128 40.6802 88.8051 40.6862 88.7885 40.6987L88.7576 40.7228C88.7425 40.7329 88.7358 40.7373 88.7285 40.7393C88.7264 40.7399 88.7243 40.7402 88.722 40.7405L88.7169 40.7408C88.7136 40.7409 88.7098 40.7409 88.7051 40.7409V40.7663C88.6962 40.7737 88.6912 40.7778 88.686 40.7817C88.6793 40.7868 88.6723 40.7915 88.6562 40.8023L88.6247 40.8236L88.5914 40.8458L88.5593 40.8675C88.5274 40.889 88.4954 40.9103 88.4634 40.9317L88.4326 40.9523C88.3509 41.0071 88.2676 41.0588 88.1835 41.1098L88.1479 41.1321C88.0385 41.1988 87.9224 41.2499 87.805 41.3009L87.783 41.3105L87.7503 41.3252C87.7141 41.3414 87.6894 41.3515 87.6492 41.3515C87.6383 41.3426 87.6329 41.3382 87.6281 41.3333C87.6235 41.3286 87.6193 41.3235 87.6113 41.3135L87.6111 41.2879L87.5894 41.2783C87.5552 41.2597 87.5289 41.2374 87.4998 41.2116L87.469 41.1845C87.456 41.1712 87.4502 41.1653 87.4477 41.1583C87.4457 41.1527 87.4457 41.1465 87.4457 41.1352L87.4831 41.1217C87.6447 41.0624 87.8067 41.0026 87.9528 40.9103C87.9771 40.8953 88.0011 40.8827 88.0269 40.8705C88.0793 40.8451 88.1289 40.8154 88.1787 40.7854L88.2032 40.7708C88.2412 40.7478 88.2784 40.7243 88.315 40.6992C88.3355 40.6859 88.3436 40.6807 88.3524 40.6786C88.3582 40.6773 88.3643 40.6773 88.3743 40.6773V40.6518C88.411 40.6267 88.4236 40.6182 88.4373 40.6152C88.4445 40.6137 88.452 40.6137 88.4634 40.6137V40.5882L88.4767 40.5774C88.4814 40.5736 88.4852 40.5707 88.489 40.5678C88.4974 40.5614 88.5061 40.5554 88.5254 40.5421L88.5603 40.5178C88.5777 40.5071 88.5852 40.5025 88.5932 40.5006C88.5965 40.4998 88.5999 40.4995 88.6042 40.4993L88.6079 40.4992L88.616 40.4992V40.4738C88.6376 40.4545 88.66 40.436 88.6828 40.4181C88.7185 40.3899 88.7526 40.3627 88.7844 40.3302C88.7966 40.3183 88.8022 40.3129 88.8088 40.3104C88.8144 40.3084 88.8207 40.3084 88.8323 40.3084V40.283H88.8577V40.2575H88.8831L88.9086 40.2066L88.8876 40.2065C88.719 40.2052 88.5504 40.2038 88.3818 40.2023L87.6854 40.1965L87.6474 40.1963L87.6129 40.1959L87.5828 40.1957C87.5759 40.1951 87.571 40.1948 87.5673 40.1941C87.5644 40.1936 87.5622 40.193 87.5601 40.1919C87.5563 40.19 87.5532 40.1869 87.5475 40.1812V39.9522H89.1121V39.4307H87.8273V39.189H89.1121V38.6802Z" fill="#0E6E37"/>
<path d="M65.4393 38.6802H65.1213V39.3544H63.8365V39.596H65.0958L65.0577 39.8632L65.0322 39.9395C64.9761 40.14 64.8994 40.3356 64.7778 40.5064L64.7721 40.5141C64.7499 40.5438 64.7287 40.5723 64.7111 40.6053L64.7015 40.6264H64.6761L64.6546 40.6518C64.6382 40.6732 64.6215 40.6944 64.6043 40.7151L64.5815 40.7417C64.5579 40.7693 64.535 40.7927 64.5068 40.8157C64.4886 40.83 64.4705 40.8444 64.453 40.8595C64.3761 40.9276 64.3011 40.9938 64.2134 41.0478C64.1934 41.0594 64.1736 41.0713 64.1545 41.0843V41.1098C64.1441 41.1098 64.1379 41.1098 64.132 41.111C64.1236 41.1128 64.1156 41.1171 64.0962 41.1276C63.9757 41.1987 63.8527 41.2641 63.7287 41.3287L63.7093 41.3388C63.7307 41.3555 63.7518 41.3725 63.7729 41.3896C63.8016 41.4201 63.8205 41.439 63.8588 41.4564L63.8874 41.466V41.4914C63.8945 41.5011 63.8983 41.5063 63.9026 41.5108C63.9076 41.5159 63.9133 41.5203 63.9256 41.5296C63.9778 41.5373 64.0119 41.521 64.0574 41.496C64.0742 41.4864 64.091 41.477 64.1079 41.4676L64.1333 41.4536C64.1593 41.4391 64.1852 41.4252 64.2119 41.412C64.251 41.3935 64.286 41.3739 64.3215 41.3491C64.3445 41.3318 64.3678 41.3152 64.392 41.2997L64.4654 41.2537C64.494 41.2361 64.5214 41.2182 64.5489 41.1988V41.1734C64.5607 41.1734 64.5671 41.1734 64.573 41.1718C64.5797 41.1699 64.5859 41.166 64.599 41.1576L64.6268 41.1368C64.642 41.1256 64.649 41.1205 64.6556 41.115C64.6611 41.1105 64.6664 41.1058 64.6761 41.0971V41.0716H64.7015V41.0462H64.727C64.7983 40.9929 64.8657 40.929 64.909 40.8506L64.9178 40.8299H64.9432V40.8045H64.9686C65.2216 40.5166 65.3698 40.1252 65.4139 39.7487L65.4266 39.596H66.7622L66.7595 39.6149C66.7547 39.6485 66.7498 39.6822 66.7465 39.716L66.7444 39.7442L66.7365 39.8488L66.7335 39.8875C66.7172 40.0981 66.7002 40.3084 66.6701 40.5176L66.666 40.5453C66.6623 40.5712 66.6588 40.5982 66.6551 40.6261C66.6295 40.8211 66.5985 41.0566 66.4697 41.1988C66.3845 41.2578 66.306 41.2564 66.2044 41.2543C66.1866 41.2539 66.1688 41.2536 66.151 41.2534C65.9891 41.2517 65.8273 41.2462 65.6656 41.2382L65.6428 41.237L65.6556 41.2624C65.6973 41.3278 65.719 41.3887 65.738 41.4639L65.7446 41.4914C65.8092 41.5028 65.8716 41.5057 65.9371 41.5059L65.9764 41.5058L66.0599 41.5059C66.1035 41.5058 66.1471 41.5057 66.1907 41.5058L66.2765 41.5059L66.3175 41.5058L66.357 41.5059L66.3939 41.5058C66.4528 41.5057 66.504 41.4966 66.5602 41.479L66.6732 41.4405V41.4151C66.6837 41.4151 66.6898 41.4151 66.6956 41.4136C66.7038 41.4114 66.7113 41.4062 66.7292 41.3935C66.7809 41.3477 66.8213 41.3118 66.854 41.2699C66.9719 41.1188 66.9891 40.8891 67.0681 39.8314L67.0715 39.7853C67.0748 39.7409 67.078 39.6966 67.0812 39.6523L67.0841 39.611L67.0868 39.5726L67.0893 39.5362C67.0904 39.5208 67.0911 39.5098 67.0917 39.4988C67.093 39.4723 67.093 39.4456 67.093 39.3544H65.4393V38.6802Z" fill="#0E6E37"/>
<path fill-rule="evenodd" clip-rule="evenodd" d="M82.5452 40.2561L82.5816 40.2758C82.5951 40.2847 82.6026 40.2897 82.6091 40.2957C82.6171 40.3034 82.6233 40.3128 82.6375 40.334L82.5305 40.4491C82.4909 40.4917 82.451 40.5339 82.4105 40.5756L82.389 40.5979C82.3798 40.6057 82.3752 40.6097 82.3698 40.6117C82.3642 40.6138 82.3578 40.6138 82.3449 40.6138L82.3322 40.652C82.3151 40.6599 82.307 40.6637 82.2987 40.6669C82.295 40.6684 82.2913 40.6697 82.2868 40.6713L82.2686 40.6774V40.7029C82.2444 40.7213 82.2193 40.7386 82.1938 40.7553L82.1518 40.7833C82.1298 40.7964 82.1213 40.8015 82.1121 40.8034C82.1063 40.8046 82.1003 40.8046 82.0905 40.8046V40.8301C82.0104 40.874 81.9301 40.9175 81.8496 40.9605L81.825 40.9736C81.7865 40.9941 81.748 41.0144 81.7089 41.0336L81.7558 41.0511C81.7841 41.0617 81.8122 41.0724 81.8401 41.0841C82.1579 41.2057 82.542 41.2444 82.8849 41.2789L82.9779 41.2883L83.0543 41.2958C83.0863 41.2996 83.1155 41.3045 83.1463 41.3135C83.1299 41.3499 83.1136 41.3768 83.0827 41.4025H83.0572L83.0469 41.4303L83.0318 41.4661L83.0183 41.5019C83.0034 41.5187 82.9975 41.5253 82.9901 41.5287C82.9853 41.5309 82.9798 41.5317 82.9707 41.533C82.8968 41.5315 82.825 41.5244 82.752 41.5138L82.7158 41.5087C82.4542 41.4712 82.1938 41.4309 81.9378 41.3643L81.8678 41.3468L81.79 41.327L81.7527 41.3177C81.6813 41.2993 81.6141 41.2768 81.546 41.2485C81.5123 41.2348 81.4785 41.2247 81.4433 41.2157L81.4092 41.2068L81.3781 41.199L81.3548 41.1909C81.3199 41.185 81.2987 41.1926 81.2663 41.2042L81.2627 41.2055L81.2246 41.2187L81.1841 41.2332C81.0719 41.2718 80.9612 41.3067 80.8453 41.3328C80.8152 41.3396 80.7851 41.3467 80.755 41.3538C80.5058 41.412 80.2555 41.4619 80.0027 41.5019L79.976 41.5062L79.948 41.5106L79.8559 41.5249C79.8114 41.53 79.7693 41.5324 79.7245 41.5297C79.7108 41.5166 79.7037 41.5099 79.6976 41.5024C79.6912 41.4946 79.6857 41.4859 79.6746 41.4681L79.6518 41.4328C79.6424 41.4155 79.6384 41.4081 79.6367 41.4002C79.6354 41.3942 79.6354 41.388 79.6354 41.3771H79.61C79.5994 41.3608 79.5942 41.3529 79.5894 41.3447C79.5847 41.337 79.5804 41.329 79.5718 41.3135C79.6637 41.2908 79.7544 41.2798 79.8485 41.2705C79.9897 41.2558 80.1276 41.2339 80.2665 41.2051C80.2986 41.1986 80.3308 41.1928 80.363 41.1871C80.4489 41.1716 80.5343 41.1536 80.6197 41.1354L80.6676 41.1253L80.7138 41.1155L80.7553 41.1067C80.7908 41.0978 80.8229 41.086 80.8566 41.0718C80.874 41.0669 80.8915 41.0624 80.9091 41.0583C80.9348 41.0524 80.9467 41.0497 80.9583 41.0463C80.9683 41.0434 80.9782 41.04 80.9965 41.0336L80.9569 41.0117C80.8535 40.9542 80.7516 40.8957 80.6531 40.8301L80.6311 40.8155C80.6079 40.8001 80.5847 40.7845 80.5616 40.7689L80.5394 40.754C80.5217 40.7419 80.5046 40.7288 80.4877 40.7156V40.6902L80.4675 40.6821C80.4263 40.6588 80.3935 40.6281 80.3591 40.5961L80.3525 40.59L80.33 40.5696C80.2876 40.5303 80.2722 40.5161 80.2621 40.4988C80.2564 40.489 80.2523 40.4782 80.246 40.4612H80.2206V40.4357H79.8898V40.2195C80.2152 40.2175 80.5407 40.2157 80.8661 40.2139L82.2915 40.2057L82.3203 40.2055C82.4058 40.2053 82.4703 40.2145 82.5452 40.2561ZM80.5767 40.4357C80.6027 40.4876 80.6212 40.5057 80.6658 40.5407L80.7 40.5679C80.7148 40.5805 80.7214 40.5862 80.7291 40.5883C80.7353 40.5901 80.7423 40.5895 80.7548 40.5884V40.6138C80.8597 40.6926 80.9797 40.7525 81.0973 40.8113L81.1396 40.8325L81.1651 40.8453C81.1894 40.8574 81.2138 40.8692 81.2382 40.881L81.2619 40.8929C81.3105 40.9161 81.3396 40.9237 81.3909 40.9064L81.4164 40.8981C81.5659 40.8385 81.7239 40.7746 81.854 40.6786C81.8617 40.6733 81.8665 40.67 81.8716 40.6673C81.8798 40.6629 81.8888 40.6599 81.9124 40.652V40.6266L81.9384 40.6187C81.9877 40.5957 82.0246 40.5631 82.0649 40.5276L82.069 40.524L82.0939 40.5026C82.1143 40.4849 82.1342 40.4667 82.1541 40.4485V40.4357H80.5767Z" fill="#0E6E37"/>
<path d="M81.4544 38.7693C81.4425 38.7278 81.4268 38.7032 81.3987 38.6699C81.3815 38.656 81.3706 38.6473 81.3583 38.6432C81.3377 38.6365 81.3128 38.6426 81.2464 38.6591L81.2079 38.6699C81.1628 38.6815 81.1177 38.6931 81.0728 38.7057L81.0982 38.7693H81.1237V38.7947L81.1241 38.7953C81.1568 38.8417 81.1732 38.8651 81.1891 38.8889C81.205 38.9127 81.2202 38.937 81.2508 38.9855L79.6481 38.9983V39.2145H80.7293L80.7285 39.678C80.7284 39.7465 80.7282 39.815 80.7281 39.8835L80.7281 39.9388L80.7279 40.0285L80.7279 40.0564L80.7278 40.1063C80.7288 40.1304 80.7291 40.1387 80.7328 40.1451C80.7335 40.1463 80.7343 40.1474 80.7352 40.1486C80.7358 40.1494 80.7365 40.1502 80.7373 40.151L80.742 40.1558H81.0473V39.2145H81.6452V40.1431H81.9505V39.2145H83.0572V38.9983L81.6198 38.9856L81.607 38.9474H81.5816L81.5689 38.8965H81.5434C81.5434 38.8742 81.5434 38.865 81.5409 38.8565C81.539 38.8504 81.5358 38.8448 81.5304 38.8351L81.5132 38.8114C81.504 38.7984 81.4997 38.7924 81.4952 38.7867L81.4903 38.781L81.4798 38.7693H81.4544Z" fill="#0E6E37"/>
<path d="M82.3066 39.3416L82.3297 39.3536C82.3429 39.3603 82.3501 39.364 82.3575 39.3671C82.3664 39.3707 82.3755 39.3736 82.3957 39.3798V39.4052L82.4219 39.414C82.4792 39.4396 82.5283 39.4741 82.5725 39.5186C82.6009 39.5468 82.6307 39.5712 82.662 39.596C82.727 39.6486 82.7886 39.7042 82.8494 39.7616C82.8795 39.7898 82.9082 39.8148 82.9426 39.8377V39.8632H82.9681C82.9973 39.8958 83.0062 39.9074 83.0062 39.9522L82.9069 40.0023L82.8784 40.0167L82.851 40.0305L82.8257 40.0432C82.8168 40.0474 82.8113 40.0499 82.8058 40.0522C82.797 40.0559 82.7879 40.0589 82.7645 40.0667V40.0413L82.7427 40.0325C82.707 40.012 82.6853 39.9867 82.6588 39.9558L82.6564 39.953C82.6288 39.9209 82.6042 39.8923 82.5702 39.8671L82.5483 39.8504V39.825L82.5276 39.8163C82.4869 39.7938 82.4556 39.7673 82.4211 39.736V39.7105L82.399 39.7002C82.3692 39.6846 82.3432 39.667 82.3161 39.6469L82.2889 39.627L82.2684 39.6088V39.5833L82.2398 39.573C82.2062 39.5585 82.1812 39.544 82.154 39.5197V39.4943L82.0904 39.4688L82.1031 39.4307C82.1195 39.4231 82.1284 39.4189 82.1375 39.4152C82.1485 39.4106 82.1596 39.4067 82.1842 39.3981C82.2296 39.3819 82.2664 39.3684 82.3066 39.3416Z" fill="#0E6E37"/>
<path d="M80.5257 39.3799C80.4324 39.3544 80.3424 39.3359 80.2459 39.329L80.2223 39.3685C80.1757 39.4467 80.1289 39.5253 80.0678 39.593C80.0455 39.6159 80.0298 39.6341 80.0145 39.6623L80.0042 39.6852H79.9788V39.7106C79.9655 39.7106 79.9592 39.7106 79.9538 39.7129C79.9487 39.7149 79.9445 39.7189 79.9363 39.7265C79.891 39.7761 79.8439 39.8153 79.7887 39.8537C79.7683 39.8675 79.7592 39.8737 79.7504 39.8803C79.7434 39.8856 79.7366 39.8913 79.7243 39.9014V39.9396C79.7491 39.9535 79.7739 39.9673 79.7987 39.9809L79.8293 39.9976L79.8593 40.0145L79.8883 40.0303L79.9037 40.0387C79.9066 40.0403 79.909 40.0415 79.9113 40.0427C79.9129 40.0434 79.9144 40.0441 79.9159 40.0448C79.9221 40.0475 79.9285 40.0498 79.9406 40.0541C79.9766 40.0493 79.9928 40.0405 80.0234 40.0197L80.0567 39.9929L80.0615 39.989C80.0917 39.9653 80.115 39.9468 80.1329 39.9116L80.1441 39.8887C80.1656 39.8816 80.175 39.8784 80.1818 39.8724C80.1871 39.8677 80.1908 39.8612 80.1974 39.8498L80.2077 39.8251H80.2332C80.2594 39.7956 80.2811 39.7669 80.3 39.7321L80.3095 39.7106H80.3349L80.3604 39.647H80.3858C80.3914 39.6358 80.3946 39.6295 80.3975 39.6232C80.4012 39.6151 80.4045 39.6069 80.412 39.5882L80.424 39.558H80.4494L80.4629 39.5352L80.4804 39.5047C80.5047 39.463 80.5183 39.4277 80.5257 39.3799Z" fill="#0E6E37"/>
<path d="M98.22 39.329C98.3287 39.3459 98.4327 39.3737 98.538 39.4053C98.5222 39.4455 98.5168 39.4592 98.5107 39.4722C98.5077 39.4786 98.5046 39.4849 98.4999 39.4944H98.4744L98.4716 39.5147C98.4585 39.555 98.4351 39.5867 98.4104 39.6201L98.4052 39.6272L98.3881 39.6508C98.3391 39.718 98.2889 39.7843 98.2376 39.8498C98.2178 39.8752 98.1982 39.9009 98.1789 39.9269L98.1524 39.9619L98.1295 39.9927C98.0985 40.0227 98.0852 40.0274 98.0419 40.0286C98.0016 40.0209 97.9627 40.0095 97.9235 39.9976L97.8912 39.9883C97.8651 39.9807 97.839 39.9729 97.8129 39.965L97.8511 39.8887H97.8766L97.8855 39.8623C97.9056 39.8169 97.9331 39.7789 97.9624 39.7393L98.0138 39.6683C98.0702 39.5903 98.119 39.5104 98.1641 39.4254C98.1818 39.3927 98.2006 39.3608 98.22 39.329Z" fill="#0E6E37"/>
<path d="M96.261 39.3797V39.3543C96.2315 39.3443 96.213 39.341 96.1822 39.3471L96.1523 39.357L96.1198 39.3676L96.0861 39.3789C96.0469 39.3918 96.0076 39.4047 95.9685 39.4179C95.9685 39.4309 95.9685 39.4373 95.9703 39.4431C95.9719 39.4486 95.9752 39.4536 95.9817 39.4635L96.0001 39.4872L96.0203 39.5135C96.025 39.5197 96.0298 39.5258 96.0346 39.532C96.0763 39.5856 96.1177 39.6388 96.1515 39.698L96.172 39.7359H96.1974V39.774C96.2116 39.7869 96.218 39.7926 96.2228 39.7994C96.2268 39.8049 96.2297 39.8111 96.2351 39.8222L96.2476 39.8493L96.2613 39.8786L96.2754 39.9092L96.2895 39.9397C96.2983 39.9585 96.307 39.9774 96.3157 39.9963L96.3247 40.0157C96.3855 40.0205 96.4324 40.008 96.4891 39.9886L96.5202 39.9776C96.5568 39.965 96.5934 39.9523 96.6299 39.9394C96.6299 39.9262 96.6299 39.9199 96.6286 39.9138C96.6274 39.9082 96.6251 39.9028 96.6206 39.8924L96.6077 39.867L96.5938 39.8394L96.5791 39.8106C96.5622 39.7772 96.5452 39.7438 96.5282 39.7104H96.5027C96.5027 39.697 96.5027 39.6878 96.5009 39.6789C96.4969 39.6591 96.4839 39.6411 96.4419 39.583L96.4137 39.5451C96.3969 39.5223 96.3801 39.4997 96.3632 39.4771L96.3461 39.4544C96.3269 39.4286 96.3075 39.4042 96.2865 39.3797H96.261Z" fill="#0E6E37"/>
</g>
<defs>
<linearGradient id="paint0_linear_53672_555955" x1="72.4619" y1="24.8224" x2="108.213" y2="24.8224" gradientUnits="userSpaceOnUse">
<stop stop-color="#84B727"/>
<stop offset="1" stop-color="#2097CF"/>
</linearGradient>
<clipPath id="clip0_53672_555955">
<rect width="52.1034" height="27.0566" fill="white" transform="translate(55.7197 14.4727)"/>
</clipPath>
</defs>
</svg>
