<svg width="144" height="48" viewBox="0 0 144 48" fill="none" xmlns="http://www.w3.org/2000/svg">
<path d="M6.58789 0.5H137.341C140.703 0.5 143.429 3.22561 143.429 6.58789V41.4121C143.429 44.7744 140.703 47.5 137.341 47.5H6.58789C3.22573 47.4998 0.500186 44.7743 0.5 41.4121V6.58789C0.500186 3.22572 3.22572 0.500186 6.58789 0.5Z" fill="white"/>
<path d="M6.58789 0.5H137.341C140.703 0.5 143.429 3.22561 143.429 6.58789V41.4121C143.429 44.7744 140.703 47.5 137.341 47.5H6.58789C3.22573 47.4998 0.500186 44.7743 0.5 41.4121V6.58789C0.500186 3.22572 3.22572 0.500186 6.58789 0.5Z" stroke="#EAECF0"/>
<path fill-rule="evenodd" clip-rule="evenodd" d="M26.4674 8.06952C19.3262 8.77745 13.6125 14.0217 12.2074 21.1576C11.9293 22.5697 11.9312 25.4438 12.211 26.8662C12.943 30.587 14.8855 33.9274 17.6584 36.234C19.8305 38.0408 22.0893 39.1366 24.854 39.7246C26.5815 40.0921 29.4236 40.0917 31.1547 39.7238C37.5901 38.3558 42.494 33.4034 43.7718 26.9817C44.0594 25.536 44.0607 22.4523 43.7741 21.072C42.726 16.0228 39.635 11.9381 35.1673 9.69813C32.5478 8.38492 29.3411 7.78458 26.4674 8.06952ZM31.0873 8.89396C34.0791 9.49993 36.7185 10.9214 38.8938 13.0979C41.0672 15.2725 42.5212 17.9486 43.1165 20.8698C43.818 24.3121 43.3762 27.7115 41.8185 30.8589C39.6513 35.2379 35.7048 38.2328 30.8244 39.2025C29.4331 39.4789 26.5454 39.4785 25.1524 39.2019C21.3024 38.4371 17.9734 36.371 15.6921 33.3302C12.9847 29.7216 11.9976 25.4201 12.859 20.9857C14.0574 14.8185 19.1251 9.85636 25.2783 8.82528C25.835 8.73198 26.5015 8.63305 26.7593 8.60528C27.6589 8.50834 29.9328 8.66001 31.0873 8.89396ZM26.1482 9.12005C22.7969 9.54341 19.6863 11.0881 17.322 13.5029C16.0945 14.7568 15.267 15.929 14.507 17.4911C13.3667 19.8346 12.9106 22.025 13.0196 24.6346C13.1161 26.9429 13.5388 28.6206 14.523 30.601C15.6433 32.8553 17.0876 34.5883 19.1408 36.1425C23.2976 39.2889 29.4339 39.9148 34.2092 37.6794C37.8085 35.9946 40.5952 33.0445 42.0359 29.3938C42.6359 27.8735 42.8987 26.4903 42.9599 24.5297C43.0669 21.1019 42.3418 18.5105 40.4937 15.7155C38.3286 12.441 34.7692 10.0607 30.8782 9.28497C29.8071 9.07141 27.2411 8.98198 26.1482 9.12005ZM29.6122 9.41425C32.7322 9.64433 36.2313 11.3453 38.5523 13.7602C43.392 18.7959 44.096 26.3124 40.2746 32.1487C39.9793 32.5997 39.613 33.1044 39.4606 33.2703C39.3081 33.4363 38.9688 33.8055 38.7065 34.0908C35.5899 37.4808 30.6287 39.263 26.1422 38.6041C21.1985 37.8781 17.2956 35.18 14.9803 30.8875C13.1468 27.4882 12.7768 23.2078 13.9933 19.4684C15.1421 15.9369 17.7823 12.7883 21.0747 11.0233C21.9117 10.5746 23.1649 10.0772 24.1222 9.81369C25.2816 9.49465 27.3031 9.24113 28.1658 9.30665C28.4237 9.32622 29.0746 9.37463 29.6122 9.41425ZM32.0923 10.482C32.0923 10.7522 32.0574 10.7771 31.77 10.712C30.9071 10.5164 30.6858 10.4978 30.6858 10.621C30.6858 10.7868 31.0707 10.9921 31.3813 10.9921C31.5145 10.9921 31.6235 11.0488 31.6235 11.1182C31.6235 11.1938 31.4273 11.2303 31.1341 11.2091C30.8247 11.1868 30.6272 11.2265 30.597 11.3174C30.5638 11.4167 30.7144 11.4609 31.0863 11.4609C31.7561 11.4609 31.7836 11.6277 31.1367 11.7666C30.7086 11.8586 30.6306 11.9272 30.4894 12.3362C30.401 12.5921 30.3517 12.8612 30.3798 12.9344C30.4078 13.0075 30.7651 13.1326 31.1736 13.2124C32.2057 13.4139 32.9832 13.771 33.3275 14.2016C33.8884 14.9033 33.8693 14.888 34.0081 14.7492C34.103 14.6543 34.1033 14.5646 34.0089 14.4172C33.9081 14.2598 33.9408 14.0938 34.1581 13.6625C34.521 12.9419 34.5133 12.5932 34.1276 12.29C33.7942 12.0275 33.8891 11.9784 34.3735 12.1625C34.6403 12.2639 34.6942 12.2411 34.8152 11.9758C34.9371 11.7082 34.9199 11.6484 34.6654 11.4539C34.5073 11.3331 34.1007 11.1208 33.762 10.9821C33.2638 10.7782 33.1125 10.7578 32.9708 10.8754C32.7029 11.0977 32.7611 11.3857 33.1179 11.6024L33.4402 11.7983L33.0678 11.7878C32.8263 11.781 32.5677 11.8849 32.3321 12.0831C31.9724 12.3857 31.6235 12.3967 31.6235 12.1056C31.6235 12.0227 31.6958 11.9271 31.7842 11.8932C31.8727 11.8592 31.9811 11.6874 32.0253 11.5113C32.0695 11.3353 32.2344 11.0899 32.3917 10.9662C32.6152 10.7904 32.6529 10.6947 32.5641 10.5288C32.3689 10.164 32.0923 10.1366 32.0923 10.482ZM23.653 11.0477C23.4276 11.1306 23.0619 11.2661 22.8404 11.3488C22.47 11.487 22.4242 11.4788 22.2693 11.2456C21.9706 10.7957 21.6021 11.0012 21.8903 11.457C22.0449 11.7014 21.8373 11.9066 21.1087 12.2287C20.7435 12.3902 20.4887 12.5778 20.4887 12.6852C20.4887 12.934 20.524 12.9248 21.36 12.4572C21.7635 12.2316 22.128 12.047 22.1702 12.047C22.3513 12.047 22.2221 12.3174 21.9194 12.5721C21.2326 13.1499 20.6236 14.9431 21.1495 14.8392C21.2727 14.815 21.4002 14.5708 21.5058 14.1567C21.9422 12.4468 23.2211 11.8269 24.5637 12.6744C25.112 13.0205 25.2942 13.0592 25.2942 12.8292C25.2942 12.3747 24.3289 11.9298 23.3428 11.9298C22.9979 11.9298 22.7157 11.8829 22.7157 11.8256C22.7157 11.7683 23.0585 11.6285 23.4775 11.5152C23.9159 11.3965 24.2394 11.2446 24.2394 11.1575C24.2394 10.9145 24.0906 10.8867 23.653 11.0477ZM126.978 11.2716C127.068 11.7554 126.749 12.4028 125.729 13.8002C125.23 14.4848 125.071 14.6256 124.797 14.6256C124.336 14.6256 124.297 14.7633 124.632 15.2169C124.791 15.4324 124.921 15.6909 124.921 15.7911C124.921 16.0274 124.278 17.3876 124.12 17.485C123.966 17.5806 123.632 17.1088 123.632 16.7946C123.632 16.4579 122.294 14.5084 122.062 14.5084C122.029 14.5084 122.081 14.7326 122.179 15.0065C122.417 15.6777 122.694 17.0127 122.694 17.4915C122.694 17.8645 122.717 17.8842 123.236 17.9619L123.777 18.0431L123.709 18.4605C123.672 18.6901 123.494 19.0937 123.314 19.3574C122.823 20.0784 122.792 20.1343 122.892 20.1343C122.942 20.1343 123.313 19.7814 123.716 19.35L124.448 18.5656L124.714 18.8147C124.86 18.9517 125.118 19.1163 125.288 19.1804C125.515 19.2665 125.616 19.4092 125.676 19.7276C125.72 19.9645 125.74 20.1669 125.72 20.1775C125.7 20.1879 125.19 20.4331 124.587 20.7221C123.079 21.4453 122.788 21.6545 121.296 23.0947C120.578 23.7873 119.966 24.3538 119.936 24.3538C119.787 24.3538 119.921 23.9018 120.295 23.143C120.836 22.0443 120.388 22.6023 119.777 23.789C119.334 24.6486 119.268 25.0713 119.551 25.2459C119.749 25.3682 120.528 24.7201 121.06 23.9908C122.292 22.3014 122.955 21.7662 124.727 21.0329C125.527 20.7018 125.861 20.6194 126.192 20.6717C126.55 20.7284 126.707 20.6769 127.146 20.3579C127.855 19.843 130.664 19.0884 130.664 19.4129C130.664 19.6553 130.075 19.9708 127.782 20.9554C125.417 21.9706 124.985 22.272 126.617 21.768C127.047 21.6351 127.998 21.4021 128.731 21.2503C130.715 20.8387 131.719 20.171 131.719 19.263C131.719 18.9432 131.633 18.9153 130.782 18.9602C130.426 18.9789 129.036 19.2738 128.232 19.5011C127.601 19.6798 128.102 18.6408 129.793 16.2665C130.321 15.5251 131.026 14.5796 131.358 14.1653C131.691 13.7511 131.947 13.331 131.928 13.2318C131.909 13.1327 131.73 13.0046 131.529 12.9471C130.967 12.7859 129.559 13.2009 127.639 14.094C126.571 14.5906 125.847 14.8609 125.647 14.8377C125.359 14.8045 125.435 14.7178 126.504 13.853C127.148 13.3316 127.794 12.831 127.939 12.7407C128.472 12.4095 128.137 11.5743 127.27 11.069L126.899 10.853L126.978 11.2716ZM34.29 11.5427C34.4633 11.6144 34.4867 11.8126 34.3216 11.8126C34.0334 11.8126 33.2644 11.4185 33.2644 11.2708C33.2644 11.1336 33.3375 11.1374 33.7039 11.2941C33.9457 11.3976 34.2095 11.5095 34.29 11.5427ZM33.1472 12.1642C33.1472 12.2287 33.0945 12.2814 33.03 12.2814C32.9655 12.2814 32.9128 12.2287 32.9128 12.1642C32.9128 12.0997 32.9655 12.047 33.03 12.047C33.0945 12.047 33.1472 12.0997 33.1472 12.1642ZM70.2456 12.161C70.1996 12.2353 70.2538 12.3975 70.3658 12.5214C70.6334 12.817 70.5412 13.6504 70.1051 14.8788C69.7635 15.8405 69.82 15.7864 68.2168 16.6911C67.7631 16.9472 67.6675 16.8627 67.5397 16.093C67.4967 15.8339 67.3772 15.4636 67.274 15.2702L67.0866 14.9186L67.0027 15.8017C66.9565 16.2876 66.8062 16.9857 66.6687 17.3531C66.3781 18.13 66.3379 18.6462 66.5481 18.8996C66.7888 19.1895 66.9869 19.1115 67.3556 18.5813C67.878 17.8301 69.2742 16.6059 69.4303 16.762C69.5105 16.8422 68.9315 19.0897 68.7233 19.5067C68.622 19.7093 68.4675 19.9347 68.38 20.0074C68.2924 20.0801 67.5156 20.3731 66.6536 20.6585C65.7917 20.9438 64.5381 21.4173 63.8681 21.7107C63.0523 22.0678 62.4858 22.2441 62.1537 22.2441C61.4137 22.2441 61.3258 22.4375 61.721 23.1952C62.1252 23.9705 62.3496 24.0227 63.0412 23.5033C63.738 22.9797 64.2701 22.6793 65.2897 22.2335C65.758 22.0289 66.4629 21.7101 66.8559 21.5253C67.5187 21.2136 67.958 21.104 67.958 21.2504C67.958 21.284 67.7964 21.6665 67.5988 22.1002C67.4013 22.5338 67.1957 23.1205 67.142 23.4036C67.0542 23.8665 67.0737 23.9456 67.3346 24.1875C67.4944 24.3354 67.7789 24.4903 67.9673 24.5316C68.1921 24.5811 68.3097 24.6799 68.3097 24.8193C68.3097 25.1934 66.5449 27.0471 65.3209 27.9586C64.626 28.4759 64.6092 28.4813 63.9144 28.4085C63.5276 28.368 63.01 28.3032 62.7642 28.2646L62.3173 28.1943L62.354 28.6984C62.3864 29.1447 62.4309 29.214 62.7423 29.304C63.326 29.4727 64.4309 29.3038 65.2492 28.9209C66.2609 28.4475 67.0015 27.8213 68.194 26.4314C68.7411 25.7936 69.2758 25.2245 69.3822 25.1666C69.5016 25.1016 69.7187 25.111 69.9481 25.1911C70.4264 25.3577 70.8534 25.178 70.9567 24.7665C71.0428 24.4232 70.8819 24.1827 70.3987 23.9328C69.9857 23.7193 69.9884 23.5585 70.4226 22.5405C70.6142 22.0911 70.771 21.7133 70.771 21.7008C70.771 21.6885 70.5209 21.4386 70.2152 21.1457C69.8521 20.7976 69.6998 20.5739 69.7757 20.5002C69.9092 20.3705 70.9186 20.0223 72.15 19.681L72.9983 19.446L72.8684 19.6888C72.7476 19.9143 72.7621 19.9257 73.0704 19.8484C73.253 19.8025 73.6881 19.7122 74.0373 19.6477C74.88 19.4918 75.6039 19.0376 75.5547 18.6954C75.4655 18.0758 74.2899 17.9627 73.2583 18.4746C72.4966 18.8524 69.8477 19.719 69.7507 19.6219C69.7156 19.5867 69.7752 19.337 69.8834 19.0668C69.9915 18.7966 70.2355 18.0896 70.4259 17.4958C70.6831 16.6924 70.8916 16.2797 71.24 15.8839C71.7053 15.3553 72.3448 15.008 72.4724 15.2145C72.6309 15.471 71.5521 17.1801 71.1714 17.2756C70.9081 17.3417 70.9064 17.3516 71.0929 17.7425C71.1976 17.9621 71.3304 18.1418 71.3878 18.1418C71.5429 18.1418 73.1113 16.7538 73.6155 16.1706C73.8561 15.8922 74.0529 15.5468 74.0529 15.4032C74.0529 15.2532 73.8547 14.9485 73.5876 14.6876C73.0779 14.19 73.2028 14.1846 72.1812 14.7484C71.5835 15.0782 71.4976 14.8806 71.874 14.042C72.0495 13.6509 72.1765 13.2208 72.1561 13.0864C72.0776 12.5691 70.4734 11.7923 70.2456 12.161ZM31.1547 12.3176C31.1547 12.402 31.0772 12.5734 30.9826 12.6985C30.8341 12.8947 30.8099 12.8992 30.8068 12.7305C30.8015 12.4547 30.9263 12.1642 31.05 12.1642C31.1075 12.1642 31.1547 12.2332 31.1547 12.3176ZM33.8504 12.5296C33.8504 12.5941 33.7977 12.6143 33.7332 12.5744C33.6688 12.5346 33.616 12.4492 33.616 12.3848C33.616 12.3203 33.6688 12.3001 33.7332 12.34C33.7977 12.3798 33.8504 12.4652 33.8504 12.5296ZM32.8439 12.4695C32.9455 12.5084 33.0009 12.5853 32.9669 12.6402C32.892 12.7615 32.5612 12.6498 32.5612 12.5033C32.5612 12.3796 32.5982 12.3752 32.8439 12.4695ZM31.7407 12.8088C31.7407 12.9055 31.6616 12.9846 31.5649 12.9846C31.3818 12.9846 31.3323 12.846 31.4673 12.7112C31.602 12.5763 31.7407 12.6258 31.7407 12.8088ZM99.6629 12.7188C99.5339 12.751 99.4021 12.8169 99.3698 12.8652C99.3376 12.9136 99.0775 13.0717 98.7918 13.2166C98.0864 13.5743 96.0088 15 95.2538 15.6443C94.9156 15.9331 94.3451 16.3612 93.9862 16.5955C93.3987 16.9792 93.3622 17.026 93.6204 17.0655C93.7782 17.0895 94.2268 17.0751 94.6171 17.0333C95.2939 16.9608 95.3788 16.9133 96.44 16.0146C97.5577 15.068 98.6964 14.1674 99.0113 13.9808C99.2088 13.8639 98.7982 14.5605 98.2224 15.3195C97.9714 15.6503 97.8535 15.9152 97.8963 16.0521C97.9332 16.17 97.9964 16.374 98.0367 16.5052C98.0925 16.6865 97.9867 16.8597 97.5972 17.2247L97.0843 17.7053L97.5269 17.6375C98.1381 17.5437 99.2526 16.89 99.2526 16.6252C99.2526 16.5098 99.1472 16.2812 99.0182 16.1173C98.8893 15.9534 98.7838 15.7835 98.7838 15.7395C98.7838 15.6957 99.2058 15.1353 99.7215 14.4942C100.237 13.853 100.659 13.2774 100.659 13.2152C100.659 13.0449 100.211 12.631 100.044 12.6466C99.9633 12.6541 99.7918 12.6866 99.6629 12.7188ZM33.8504 13.0558C33.8504 13.1456 33.7977 13.2191 33.7332 13.2191C33.6688 13.2191 33.616 13.197 33.616 13.1701C33.616 13.1431 33.5838 13.037 33.5444 12.9342C33.4919 12.7976 33.5233 12.767 33.6616 12.8201C33.7655 12.8599 33.8504 12.966 33.8504 13.0558ZM32.6784 13.1101C32.6784 13.2942 32.6152 13.3435 32.4158 13.3152C32.0262 13.2595 31.992 12.8674 32.3768 12.8674C32.6036 12.8674 32.6784 12.9276 32.6784 13.1101ZM33.4754 13.3597C33.6621 13.5464 33.6547 13.8051 33.4626 13.8051C33.211 13.8051 32.8706 13.4994 32.9604 13.3541C33.0684 13.1793 33.2975 13.1818 33.4754 13.3597ZM81.8813 13.7172C82.3606 14.6685 81.9553 15.5897 80.8139 16.1433L80.0891 16.4949L80.6223 16.4978C80.9156 16.4996 81.6541 16.3436 82.2632 16.1514C83.5365 15.7495 83.627 15.7354 83.4328 15.9695C83.1026 16.3674 83.4328 16.3486 84.3672 15.9164C84.9151 15.6629 85.6414 15.3845 85.981 15.2977C86.6703 15.1218 87.0136 14.8542 86.9069 14.5761C86.8016 14.3016 85.6698 14.328 85.1034 14.6181C84.8596 14.7429 84.4625 14.8806 84.2207 14.9241L83.7812 15.0033L83.7803 14.5507C83.7796 14.171 83.7183 14.0572 83.3994 13.8444C83.0226 13.5928 82.263 13.3381 81.8855 13.337C81.7029 13.3363 81.7027 13.3628 81.8813 13.7172ZM113.214 13.9148C113.136 14.2191 112.613 15.3868 112.052 16.51C110.863 18.8903 110.944 18.8265 109.337 18.6603C108.702 18.5947 108.278 18.5935 108.278 18.6575C108.278 18.8816 108.854 19.5062 109.265 19.7275C109.966 20.1047 109.946 20.4562 109.168 21.4981C108.968 21.7647 108.726 22.0992 108.629 22.2416C108.533 22.3839 108.33 22.6669 108.18 22.8703C108.029 23.0739 107.718 23.5305 107.488 23.885C106.697 25.1082 104.296 27.3217 103.062 27.9664C102.699 28.1562 102.651 28.2126 102.848 28.2166C103.183 28.2234 105.719 26.9499 106.725 26.2698C107.79 25.5497 108.642 24.7112 109.405 23.6334C109.753 23.1404 110.12 22.7058 110.219 22.6677C110.643 22.505 111.227 23.2053 112.092 24.9149C112.924 26.5585 114.056 26.9447 115.254 25.9931C115.496 25.8007 115.743 25.6431 115.803 25.6431C115.863 25.6431 116.102 25.498 116.336 25.3208L116.759 24.9985L115.537 24.9325C114.079 24.8537 113.402 24.5973 112.758 23.8802C112.52 23.6146 111.968 23.1329 111.532 22.8096C111.096 22.4864 110.74 22.1346 110.74 22.0278C110.742 21.7565 111.337 20.7579 111.853 20.1606C112.381 19.5497 112.654 19.4034 113.978 19.0195C115.28 18.6424 116.068 17.9712 115.476 17.7441C115.123 17.6085 114.17 17.6695 114.031 17.8365C113.957 17.9264 113.713 18.0212 113.489 18.0473C113.132 18.0891 113.083 18.063 113.083 17.8296C113.083 17.4697 113.439 16.5997 113.962 15.6804C114.532 14.6769 114.604 14.2353 114.257 13.8656C114.111 13.7105 113.849 13.5336 113.674 13.4726C113.366 13.3655 113.351 13.3806 113.214 13.9148ZM130.782 13.53C130.782 13.9895 127.83 18.2475 126.696 19.4235C126.328 19.8055 126.292 19.8182 126.147 19.6207C125.969 19.3769 125.808 18.5538 125.907 18.3935C125.944 18.3338 126.113 18.2501 126.283 18.2076C126.979 18.0328 128.068 17.4088 128.134 17.1469C128.235 16.7435 127.883 15.7242 127.486 15.2721C127.29 15.0493 127.164 14.8117 127.206 14.7441C127.33 14.5442 128.362 14.0612 129.463 13.6886C130.656 13.2843 130.782 13.2693 130.782 13.53ZM27.3473 14.2601C27.2723 14.8061 27.2494 14.8354 26.8491 14.9003C26.3195 14.9863 26.2687 14.9515 26.0993 14.3862C26.0229 14.1311 25.9394 13.9223 25.9137 13.9223C25.8879 13.9223 25.6262 13.9829 25.3321 14.057L24.7973 14.1917L24.8688 14.8004L24.9404 15.4092L24.4607 15.5676C24.042 15.7058 23.9683 15.7031 23.8805 15.5461C23.8252 15.4472 23.681 15.2442 23.56 15.0949L23.3402 14.8233L22.8513 15.0981C22.3309 15.3906 22.3165 15.4736 22.6659 16.161C22.8098 16.4443 22.7961 16.484 22.4711 16.7243C22.0863 17.0089 21.8111 16.9784 21.4823 16.6151C21.202 16.3054 21.0597 16.3229 20.6864 16.7125C20.3013 17.1144 20.3011 17.1274 20.6645 17.6039C21.0197 18.0695 21.0195 18.0674 20.7054 18.4924C20.456 18.8297 20.4486 18.8315 20.0315 18.6527C19.7994 18.5534 19.5471 18.4462 19.4705 18.4144C19.3928 18.3822 19.2181 18.5789 19.0748 18.8595L18.8184 19.3622L19.242 19.719C19.6534 20.0655 19.6617 20.0883 19.5304 20.514L19.3953 20.9523L18.7891 20.8811L18.1828 20.8098L18.0303 21.3545C17.9465 21.6541 17.8983 21.9147 17.9233 21.9337C17.9482 21.9526 18.1797 22.0468 18.4376 22.1431C18.8871 22.3107 18.9049 22.3369 18.8685 22.778C18.8477 23.031 18.8108 23.2579 18.7864 23.2822C18.7621 23.3066 18.5023 23.3535 18.2089 23.3865L17.6757 23.4466V24.0037C17.6757 24.6048 17.7915 24.7002 18.5255 24.7038C18.72 24.7049 18.8478 24.7693 18.8478 24.8666C18.8478 24.9552 18.8796 25.1867 18.9185 25.3811C18.9841 25.7091 18.9569 25.7445 18.5375 25.8786C17.9073 26.0802 17.8807 26.1258 18.0348 26.7381C18.1519 27.2031 18.208 27.2739 18.4219 27.2279C18.7063 27.1667 19.0823 27.1334 19.2638 27.1534C19.3314 27.1607 19.4552 27.3561 19.5389 27.5874C19.6752 27.9646 19.6686 28.0241 19.4745 28.1639C18.8617 28.6053 18.821 28.6554 18.894 28.8753C18.9351 28.9993 19.0684 29.2298 19.1899 29.3875L19.4109 29.6742L19.9056 29.4511L20.4003 29.2279L20.6789 29.5518C21.0258 29.955 21.0251 29.9989 20.6645 30.4273C20.2999 30.8607 20.3006 30.8893 20.6864 31.292C21.0724 31.6949 21.1289 31.6966 21.6218 31.3207L22.0151 31.0206L22.3654 31.2701C22.765 31.5546 22.7926 31.7183 22.527 32.2316C22.3449 32.5837 22.3481 32.6041 22.6149 32.8099C23.1398 33.215 23.3213 33.207 23.7062 32.7625C24.0524 32.3627 24.0765 32.3544 24.4738 32.4961C24.8776 32.64 24.8834 32.6517 24.8471 33.2374L24.8102 33.8325L25.2573 33.9566C25.9135 34.1389 25.9476 34.1251 26.0993 33.6182C26.2661 33.0617 26.2903 33.0452 26.8379 33.1139C27.254 33.1661 27.2706 33.1868 27.347 33.7422L27.426 34.3165H27.9939H28.5617L28.6422 33.7797C28.6865 33.4846 28.782 33.2252 28.8544 33.2035C29.5824 32.9854 29.6281 33.0011 29.8641 33.5518C29.9891 33.8435 30.1228 34.0821 30.161 34.0821C30.1992 34.0821 30.4642 34.0233 30.7499 33.9513C31.3044 33.8117 31.2845 33.8654 31.1018 33.0002C31.0418 32.7164 31.0841 32.6592 31.4753 32.495L31.9165 32.3099L32.2795 32.7408C32.6693 33.2034 32.8407 33.2147 33.3626 32.8119C33.6293 32.6061 33.6316 32.5883 33.4505 32.1549C33.2086 31.576 33.2057 31.591 33.6201 31.2846L33.976 31.0216L34.4222 31.3751L34.8685 31.7285L35.2385 31.3467C35.442 31.1368 35.6086 30.9244 35.6086 30.8748C35.6086 30.8253 35.4728 30.6067 35.3069 30.3891L35.0053 29.9937L35.2703 29.6351C35.5775 29.2196 35.5665 29.222 36.118 29.4524C36.3493 29.5491 36.5638 29.6282 36.5944 29.6282C36.6251 29.6282 36.7811 29.4087 36.9411 29.1403L37.232 28.6525L36.772 28.3191C36.5189 28.1358 36.3118 27.9662 36.3118 27.9423C36.3118 27.9183 36.392 27.7069 36.4899 27.4725C36.6338 27.1283 36.7182 27.0564 36.9294 27.0992C37.0732 27.1283 37.3293 27.1811 37.4984 27.2167C37.7793 27.2755 37.8184 27.2362 37.9505 26.7643C38.1259 26.1382 38.0747 26.0407 37.4772 25.8617C37.0242 25.726 37.0137 25.7108 37.0862 25.3017C37.1822 24.76 37.2177 24.7283 37.7769 24.684L38.2458 24.6469L38.2808 24.0434L38.3158 23.4397L37.7241 23.3584C37.1449 23.2787 37.1323 23.2685 37.1323 22.8777C37.1323 22.6582 37.119 22.4389 37.103 22.3906C37.0869 22.3423 37.2978 22.2252 37.5718 22.1305C38.108 21.9451 38.1562 21.8232 37.9388 21.1997C37.812 20.836 37.7883 20.8247 37.2203 20.8599C36.6384 20.8958 36.6313 20.8922 36.4817 20.466C36.331 20.0372 36.3319 20.0351 36.7898 19.7178L37.2491 19.3995L36.9961 18.9757C36.6173 18.3413 36.6108 18.3385 36.097 18.6007L35.6198 18.8441L35.3112 18.4395L35.0026 18.035L35.3056 17.6378C35.6846 17.1408 35.6831 17.0851 35.2798 16.6986C34.8771 16.3128 34.8485 16.3121 34.4152 16.6767C33.9868 17.0372 33.9428 17.0379 33.5396 16.6911L33.2158 16.4125L33.4291 15.9395C33.5464 15.6793 33.6145 15.4222 33.5804 15.3683C33.5462 15.3144 33.3236 15.1666 33.0858 15.0399C32.6059 14.7844 32.6849 14.7464 32.1494 15.49C31.9787 15.7268 31.6118 15.6991 31.2496 15.4218C31.088 15.2981 31.0692 15.177 31.1475 14.7637C31.2355 14.2991 31.221 14.2487 30.9715 14.1539C30.8219 14.0971 30.5598 14.0348 30.3891 14.0157C30.1233 13.986 30.0521 14.0485 29.8944 14.4497C29.7932 14.7076 29.6995 14.9335 29.6863 14.9518C29.673 14.97 29.4442 14.9501 29.1778 14.9074C28.7534 14.8396 28.693 14.7919 28.6916 14.5227C28.6879 13.8035 28.5904 13.6879 27.9873 13.6879H27.426L27.3473 14.2601ZM57.673 14.792C56.3474 15.5795 52.1166 17.3213 51.5292 17.3213C51.3287 17.3213 51.3018 17.372 51.3662 17.6286C51.5208 18.2447 52.0224 18.4094 52.9419 18.1457C53.3956 18.0156 53.6721 18.1548 54.0263 18.6921C54.2798 19.0765 54.3136 20.1866 54.0916 20.8376C53.9425 21.2748 53.2248 21.7416 52.896 21.6154C52.8025 21.5795 52.5799 21.2852 52.4012 20.9612C52.2225 20.6374 52.0236 20.3893 51.9591 20.4099C51.8947 20.4305 51.8316 20.8913 51.8189 21.4337C51.8063 21.9762 51.793 22.4824 51.7896 22.5587C51.7818 22.7304 50.0213 24.0137 49.898 23.9375C49.849 23.9072 49.7741 23.7247 49.7318 23.5321C49.6895 23.3394 49.6119 23.1818 49.5594 23.1818C49.3792 23.1818 49.0487 25.3277 49.1377 25.9204C49.2702 26.8044 49.8572 27.2074 50.3 26.718C50.5554 26.4358 50.545 25.9449 50.2643 25.0433C50.1381 24.6374 50.0457 24.2981 50.0592 24.2891C50.0728 24.2802 50.4124 24.0525 50.814 23.7832C51.8077 23.1167 51.8421 23.1094 52.0158 23.5288C52.103 23.7394 52.2797 23.9169 52.4428 23.9578C52.7525 24.0355 52.783 24.1825 52.5899 24.6685C52.0876 25.9335 52.3507 26.3514 53.4157 25.9802C53.8988 25.8118 54.1425 25.9907 53.9184 26.3493C53.7029 26.6944 53.9111 26.6307 54.5208 26.1652C55.0735 25.7432 55.2172 25.375 54.8797 25.2454C54.7777 25.2063 54.359 25.1743 53.949 25.1743C53.1523 25.1743 52.9431 25.0451 53.2252 24.7274C53.3219 24.6186 53.4826 24.3319 53.5823 24.0901C53.6822 23.8484 53.8183 23.6506 53.8848 23.6506C53.9513 23.6506 54.2042 23.9165 54.447 24.2416C54.9177 24.8721 55.3041 25.0621 55.6059 24.8115C55.8639 24.5975 56.4292 23.6876 57.1648 22.3027C57.5072 21.6581 57.9162 20.9099 58.0738 20.6402L58.3602 20.1497L57.9297 19.6732C57.3001 18.9763 56.9053 19.0375 55.9066 19.9871C55.8214 20.0681 55.6485 20.1343 55.5224 20.1343C55.3102 20.1343 55.2988 20.0771 55.3713 19.3705C55.4614 18.4906 55.3623 18.3114 54.5928 17.9645C54.3369 17.849 54.1275 17.7105 54.1275 17.6567C54.1275 17.4859 55.4713 16.7353 55.7769 16.7353C55.84 16.7353 55.8098 16.8935 55.7098 17.0869C55.6098 17.2803 55.5464 17.4386 55.569 17.4386C55.5916 17.4386 56.1864 17.1168 56.8907 16.7235C57.595 16.3302 58.5205 15.8319 58.9474 15.616C59.3744 15.4002 59.7589 15.1321 59.8018 15.0203C59.917 14.7201 59.5124 14.3806 58.9795 14.3302C58.6066 14.295 58.3668 14.3798 57.673 14.792ZM127.196 15.5862C127.607 16.4105 127.591 16.7906 127.127 17.2244C126.921 17.4162 126.551 17.6764 126.304 17.8024C125.888 18.0145 125.849 18.0169 125.778 17.8335C125.712 17.6614 125.69 17.6685 125.609 17.8886C125.501 18.1781 125.181 18.2265 125.082 17.9681C124.996 17.7456 126.015 16.3071 126.328 16.2078C126.65 16.1055 126.645 15.517 126.32 15.2893C126.057 15.1055 126.164 15.0038 126.64 14.9864C126.832 14.9794 126.966 15.1246 127.196 15.5862ZM15.7517 16.1054C15.5851 16.4036 15.4488 16.7434 15.4488 16.8604C15.4488 16.9773 15.3952 17.1063 15.3297 17.1467C15.2642 17.1873 15.2414 17.2702 15.2792 17.3313C15.3169 17.3924 15.3972 17.4118 15.4577 17.3744C15.5181 17.3371 15.5992 17.389 15.6379 17.4898C15.6766 17.5905 15.805 17.673 15.9232 17.673C16.2404 17.673 16.2751 17.8108 16.0918 18.3427C15.9747 18.6826 15.9586 18.9309 16.036 19.2008C16.1478 19.5906 16.4628 20.0171 16.639 20.0171C16.8023 20.0171 16.7512 19.7572 16.5427 19.5267C15.831 18.7403 17.1194 16.3771 18.1761 16.5309C18.6448 16.5991 18.852 16.3068 18.4447 16.152C18.0273 15.9933 17.4632 16.2335 17.0392 16.7504C16.7078 17.1544 16.6984 17.1247 16.9258 16.3902C17.0043 16.1365 16.5193 15.5632 16.226 15.5632C16.1318 15.5632 15.9185 15.8073 15.7517 16.1054ZM30.0232 16.0275C34.0361 17.0538 36.7333 20.9672 36.1912 24.9766C35.9564 26.7128 35.3186 28.1467 34.2248 29.3971L33.7151 29.9798L28.5376 29.9781C25.6902 29.977 23.4141 29.9375 23.4799 29.8902C23.5457 29.8428 23.6687 29.6471 23.7531 29.4553C23.8918 29.1404 23.8829 29.0874 23.6613 28.9079C23.5263 28.7985 23.358 28.6897 23.2873 28.6662C23.2085 28.6399 23.5552 27.5118 24.1816 25.756C25.3001 22.6202 25.378 22.3613 25.2035 22.3613C25.1386 22.3613 24.8583 22.981 24.5808 23.7385C24.3033 24.496 23.8007 25.8541 23.4639 26.7566L22.8516 28.3975L22.3947 28.3627C21.9976 28.3325 21.9192 28.3687 21.7957 28.6399C21.6398 28.9822 21.7141 29.393 21.9324 29.3953C22.0087 29.3961 22.3347 29.5238 22.6571 29.6791L23.2431 29.9613L22.7599 29.9706C22.3352 29.9787 22.2202 29.9187 21.8112 29.4749C21.1952 28.8066 20.4697 27.5371 20.1237 26.5222C19.8789 25.8037 19.8444 25.4904 19.8468 24.0022C19.8491 22.4603 19.8788 22.2191 20.1659 21.4011C21.11 18.7121 23.217 16.7638 25.9769 16.0275C27.0807 15.7331 28.872 15.7331 30.0232 16.0275ZM38.4973 15.8782C38.453 15.9225 38.6132 16.1598 38.8532 16.4056C39.3149 16.8784 39.2438 17.0134 38.7412 16.6181C38.3842 16.3373 38.1872 16.3184 38.1872 16.565C38.1872 16.6646 38.345 16.8361 38.5381 16.9459C38.921 17.1638 38.934 17.1883 38.7875 17.4193C38.709 17.5433 38.5545 17.5006 38.0473 17.2142C37.3547 16.8234 37.0151 16.7579 37.0151 17.0151C37.0151 17.1046 37.3634 17.3258 37.7891 17.5068C38.8716 17.9668 38.9614 18.1361 38.7285 19.2781C38.6208 19.8064 38.5868 20.2293 38.6474 20.2899C38.8299 20.4724 39.1062 19.8704 39.1914 19.1042C39.2857 18.256 39.4596 18.204 39.644 18.9693C39.8091 19.6543 39.9997 19.6323 40.0205 18.926C40.0417 18.2127 40.1429 18.101 40.2375 18.6866C40.3771 19.5509 40.4197 19.6655 40.6015 19.6655C40.7382 19.6655 40.7684 19.5841 40.7212 19.3432C40.5139 18.2856 40.5081 17.6672 40.703 17.3699C40.9628 16.9734 40.8957 16.9173 40.0964 16.8622C40.0183 16.8569 39.663 16.6152 39.3068 16.3251C38.6059 15.7542 38.6158 15.7597 38.4973 15.8782ZM16.2992 16.3573C16.2495 16.4869 16.2943 16.5087 16.4859 16.4479C16.7684 16.3582 16.793 16.4137 16.6167 16.743C16.4869 16.9855 16.152 17.0555 16.152 16.84C16.152 16.7686 16.0745 16.74 15.9799 16.7762C15.6981 16.8844 15.6835 16.6911 15.9426 16.2819C16.1105 16.0167 16.2138 15.9423 16.2754 16.042C16.3245 16.1216 16.3353 16.2634 16.2992 16.3573ZM120.823 16.9606C120.814 17.3265 121.202 19.1477 121.319 19.2906C121.387 19.3744 121.579 19.4271 121.744 19.4078C122.138 19.3616 122.319 18.886 122.124 18.4134C121.947 17.9869 120.828 16.7374 120.823 16.9606ZM17.9883 17.0479C17.9453 17.0908 17.9101 17.2724 17.9101 17.4512C17.9101 17.6301 17.8574 17.8089 17.7929 17.8488C17.7246 17.8911 17.6757 17.7719 17.6757 17.5627C17.6757 17.0617 17.2826 17.0743 16.9712 17.5851C16.7254 17.9881 16.6565 18.6106 16.8575 18.6106C16.9264 18.6106 16.9457 18.7346 16.9034 18.9037C16.8134 19.2621 17.0106 19.2919 17.2927 18.9623C17.5332 18.6813 17.7929 18.656 17.7929 18.9134C17.7929 19.0155 17.8589 19.0765 17.9394 19.049C18.0217 19.021 18.0883 18.7984 18.0913 18.5411C18.0943 18.2893 18.1639 17.8864 18.2462 17.646C18.4247 17.1239 18.2703 16.7659 17.9883 17.0479ZM40.039 17.2276C40.2412 17.4298 40.2165 17.9074 40.0039 17.9074C39.9072 17.9074 39.8281 17.9601 39.8281 18.0246C39.8281 18.2158 39.3904 18.1579 39.3132 17.9564C39.1794 17.6078 39.242 17.3769 39.5057 17.2463C39.8655 17.0682 39.8792 17.0677 40.039 17.2276ZM16.5622 17.4386C16.5224 17.503 16.4402 17.5558 16.3795 17.5558C16.3188 17.5558 16.2692 17.503 16.2692 17.4386C16.2692 17.3741 16.3515 17.3213 16.4519 17.3213C16.5524 17.3213 16.6021 17.3741 16.5622 17.4386ZM83.2093 17.6196C82.9914 17.7142 82.5099 17.9758 82.1391 18.2011C81.3672 18.6699 81.2026 18.7019 81.2026 18.3831C81.2026 17.9864 81.0196 18.0206 80.5477 18.5056C80.2955 18.7649 79.9164 19.0843 79.7054 19.2154C79.3819 19.4162 78.9756 19.9572 78.9756 20.1871C78.9756 20.3504 79.4801 20.2203 80.0891 19.8999C80.4568 19.7065 80.8528 19.5483 80.9692 19.5483C81.369 19.5483 82.4035 18.9139 82.8239 18.4108C83.0554 18.134 83.3437 17.9074 83.4647 17.9074C83.6566 17.9074 83.6744 17.9676 83.6049 18.3794L83.5251 18.8513L84.0341 18.7822C85.0629 18.6425 85.0704 18.6383 85.0704 18.2092C85.0704 17.8413 85.0304 17.7986 84.5221 17.6254C83.8586 17.3993 83.7182 17.3987 83.2093 17.6196ZM14.7689 17.8905C14.629 18.292 14.7038 18.4388 15.1309 18.6013C15.3985 18.7029 15.4922 18.6844 15.6853 18.4913C15.9057 18.2709 16.0036 17.9074 15.8426 17.9074C15.8013 17.9074 15.6976 17.9996 15.6119 18.1125C15.4677 18.3025 15.4559 18.2982 15.4525 18.0539C15.4504 17.9089 15.4041 17.7902 15.3495 17.7902C15.2949 17.7902 15.1881 17.9089 15.1121 18.0539C14.9853 18.2964 14.9789 18.2869 15.0327 17.9367C15.105 17.4665 14.9275 17.4355 14.7689 17.8905ZM17.4413 17.6506C17.4413 17.8216 17.1106 18.2018 17.0312 18.1223C16.9324 18.0235 17.1777 17.5558 17.3282 17.5558C17.3904 17.5558 17.4413 17.5984 17.4413 17.6506ZM27.99 19.7241V21.7753H28.4003H28.8105V19.7241V17.673H28.4003H27.99V19.7241ZM97.8811 18.0008C97.0553 18.4298 96.2738 19.1986 95.6057 20.239L95.0493 21.1055L95.0119 20.6523L94.9745 20.1992L94.7533 20.5389C94.5241 20.8908 94.1725 22.1449 94.0451 23.0646C93.96 23.6788 94.1353 24.1033 94.5621 24.3161C95.0387 24.5537 95.1504 24.3385 95.1504 23.1818C95.1504 22.5143 95.2147 22.0015 95.3344 21.715C95.5882 21.1074 96.5013 19.7662 96.5963 19.8613C96.7445 20.0094 96.6732 20.5784 96.4982 20.6456C96.4016 20.6826 96.3224 20.8367 96.3224 20.9877C96.3224 21.1389 96.1928 21.5312 96.0343 21.8597C95.876 22.1881 95.712 22.5936 95.6701 22.7606C95.5996 23.0411 95.6232 23.0646 95.9756 23.0646H96.3575L96.2824 24.1235C96.2193 25.0126 96.2359 25.1934 96.3864 25.2512C96.485 25.289 96.6615 25.2331 96.7787 25.1271C97.0494 24.8821 97.2649 24.9666 97.5231 25.4188C97.669 25.6745 97.7997 25.7661 97.9801 25.7392C98.2132 25.7047 98.2625 25.5249 98.6166 23.4162C98.8276 22.1591 99.1363 20.559 99.3023 19.8602C99.6379 18.4484 99.6715 18.0216 99.4636 17.8136C99.2312 17.5812 98.5288 17.6643 97.8811 18.0008ZM29.0449 19.8336V21.7753H29.3965H29.7482V20.4663V19.1573L30.5806 20.4291C31.5818 21.9589 31.6043 22.0097 31.2844 22.0097C31.0536 22.0097 31.0374 22.0718 31.0374 22.9566V23.9036L31.4184 23.8221C32.0867 23.6791 32.8446 23.3952 33.1652 23.1679C33.3364 23.0466 33.5078 22.9473 33.5462 22.9473C33.6997 22.9473 33.6043 23.5128 33.4402 23.5758C33.3238 23.6205 33.2644 23.8043 33.2644 24.1194C33.2644 24.4346 33.3238 24.6184 33.4402 24.663C33.6717 24.7519 33.6667 25.247 33.4334 25.3365C33.299 25.3881 33.2603 25.5382 33.2869 25.9058C33.3208 26.3743 33.3446 26.405 33.6746 26.405C33.9941 26.405 34.0295 26.3662 34.0618 25.98C34.0842 25.7119 34.0301 25.4878 33.9153 25.3731C33.6854 25.1432 33.6831 24.893 33.909 24.7055C34.0082 24.6232 34.0849 24.3677 34.0849 24.1194C34.0849 23.8712 34.0082 23.6157 33.909 23.5334C33.6846 23.3471 33.6851 23.096 33.9101 22.8709C34.0074 22.7736 34.0561 22.644 34.0184 22.5829C33.9807 22.5219 34.0724 22.3697 34.2225 22.2447L34.4951 22.0175L34.1435 21.9983C33.9501 21.9879 33.3435 21.988 32.7956 21.9987C31.9249 22.0158 31.8252 21.9975 32.0044 21.8545C32.1173 21.7645 32.2095 21.6591 32.2095 21.6203C32.2095 21.5815 31.7784 20.8851 31.2515 20.0727C30.407 18.7706 30.262 18.6034 30.0282 18.662C29.7981 18.7198 29.7582 18.6783 29.7264 18.3473C29.6956 18.0295 29.6359 17.9598 29.3672 17.929L29.0449 17.8918V19.8336ZM98.7399 19.0502C98.6972 19.5498 98.5589 20.4332 98.4325 21.0134C98.1678 22.2294 97.9902 23.3049 97.8955 24.2666C97.833 24.902 97.8126 24.9384 97.5466 24.8902C97.0862 24.8066 97.0256 24.7191 97.0285 24.1418C97.0329 23.2685 97.2047 22.7415 97.6075 22.3652C98.1034 21.9021 98.0701 21.4378 97.5238 21.1974C97.1736 21.0432 97.1429 20.9862 97.1429 20.4909C97.1429 20.1946 97.0659 19.8421 96.9717 19.7077C96.8167 19.4864 96.825 19.4411 97.0596 19.2288C97.4109 18.9107 98.5793 18.1418 98.7111 18.1418C98.7723 18.1418 98.7845 18.5277 98.7399 19.0502ZM17.4413 18.3762C17.4413 18.4407 17.3854 18.4934 17.3172 18.4934C17.249 18.4934 17.2256 18.4407 17.2655 18.3762C17.3053 18.3118 17.3611 18.259 17.3896 18.259C17.4181 18.259 17.4413 18.3118 17.4413 18.3762ZM27.0047 18.4758C26.9708 18.5306 26.4798 18.6083 25.9136 18.6484C24.6886 18.7351 24.3958 18.808 24.3034 19.0492C24.2006 19.3169 24.2643 19.3311 24.907 19.1827C25.3363 19.0836 25.552 19.0822 25.7157 19.1771C25.9044 19.2867 25.8619 19.3073 25.4408 19.3104C24.9662 19.3138 24.9426 19.3305 24.9426 19.6655V20.0171H26.3491H27.7556V19.6655C27.7556 19.2247 27.5537 19.2027 27.4879 19.6362C27.4426 19.9363 27.4379 19.9322 27.4216 19.5776C27.4118 19.3682 27.4549 19.1967 27.5171 19.1967C27.7341 19.1967 27.9012 18.7275 27.7494 18.5445C27.5973 18.3612 27.1036 18.3156 27.0047 18.4758ZM27.5102 18.9169C27.3399 19.1221 27.2311 19.042 27.33 18.7841C27.3698 18.6805 27.458 18.6302 27.526 18.6723C27.611 18.7248 27.6061 18.8015 27.5102 18.9169ZM26.3198 19.043C26.2069 19.0726 26.0225 19.0726 25.9096 19.043C25.7967 19.0136 25.8891 18.9895 26.1147 18.9895C26.3403 18.9895 26.4327 19.0136 26.3198 19.043ZM26.3174 19.2675C26.2784 19.3064 26.1773 19.3106 26.0928 19.2767C25.9993 19.2393 26.027 19.2116 26.1636 19.2059C26.2871 19.2009 26.3563 19.2286 26.3174 19.2675ZM26.7862 19.2675C26.7473 19.3064 26.6461 19.3106 26.5616 19.2767C26.4681 19.2393 26.4959 19.2116 26.6324 19.2059C26.7559 19.2009 26.8251 19.2286 26.7862 19.2675ZM27.255 19.2675C27.2161 19.3064 27.115 19.3106 27.0305 19.2767C26.9369 19.2393 26.9647 19.2116 27.1012 19.2059C27.2248 19.2009 27.2939 19.2286 27.255 19.2675ZM24.9426 20.6032V20.9548H26.3491H27.7556V20.6032V20.2516H26.3491H24.9426V20.6032ZM27.4816 20.7497C27.4491 20.8303 27.4225 20.7643 27.4225 20.6032C27.4225 20.442 27.4491 20.3761 27.4816 20.4567C27.5142 20.5373 27.5142 20.6692 27.4816 20.7497ZM56.6399 20.6325C56.5949 20.7775 56.35 21.4371 56.0957 22.0983C55.6232 23.3266 55.4094 23.5823 54.9138 23.5115C54.4301 23.4423 54.5076 22.7212 55.0672 22.0839C55.2599 21.8643 55.4948 21.4998 55.5893 21.2736C55.8674 20.6081 56.8299 20.0208 56.6399 20.6325ZM82.0882 21.2632C81.7597 22.0173 81.6319 22.1467 81.5154 21.8431C81.4291 21.6184 80.1604 20.6686 80.0688 20.7602C80.0015 20.8275 80.1515 21.0681 80.9128 22.1149C81.3074 22.6573 81.2782 22.9997 80.763 23.8765C80.2042 24.8275 78.171 26.9689 77.4193 27.3982C77.1034 27.5786 76.8942 27.7566 76.9544 27.7938C77.5124 28.1386 80.6133 25.9719 81.5001 24.6176C81.7216 24.2792 81.9716 24.0022 82.0555 24.0022C82.1394 24.0022 82.5189 24.6457 82.8989 25.4322C83.9021 27.5089 84.5203 28.1134 85.6213 28.0952C86.265 28.0847 87.7097 27.8485 87.8228 27.7354C87.8646 27.6937 87.6307 27.5706 87.3034 27.4619C86.5612 27.2154 85.4661 26.4018 84.8038 25.6052C84.5265 25.2715 83.9983 24.6383 83.6301 24.198C83.2619 23.7577 82.9607 23.327 82.9607 23.241C82.9607 23.1548 83.1189 22.935 83.3123 22.7525C83.9461 22.1544 83.7281 21.2925 82.8054 20.748L82.4135 20.5168L82.0882 21.2632ZM91.8685 21.0083C91.8685 21.0994 91.929 21.3225 92.003 21.5039C92.0769 21.6854 92.1693 22.0448 92.2081 22.3027C92.2766 22.7576 92.2936 22.7726 92.7769 22.8075C93.2638 22.8428 93.275 22.8354 93.275 22.4794C93.275 21.83 92.8695 21.2692 92.1908 20.98C91.9264 20.8674 91.8685 20.8724 91.8685 21.0083ZM69.3246 21.1369C69.363 21.237 69.3072 21.514 69.2006 21.7523C69.0939 21.9906 68.9421 22.4492 68.8632 22.7715C68.7507 23.2317 68.6695 23.3576 68.4855 23.3576C68.308 23.3576 68.2561 23.2863 68.2718 23.0646C68.2931 22.7617 68.7644 21.3601 68.9319 21.1013C69.0616 20.9011 69.2403 20.9173 69.3246 21.1369ZM24.9426 21.4236V21.7753H26.3491H27.7556V21.4236V21.072H26.3491H24.9426V21.4236ZM27.4816 21.5701C27.4491 21.6508 27.4225 21.5848 27.4225 21.4236C27.4225 21.2625 27.4491 21.1966 27.4816 21.2771C27.5142 21.3578 27.5142 21.4896 27.4816 21.5701ZM23.1845 22.5961C23.1845 23.4509 23.4459 23.8033 24.0371 23.7454C24.3722 23.7126 24.4338 23.6404 24.6932 22.9766C24.9003 22.4467 25.0393 22.2441 25.1956 22.2441C25.4654 22.2441 25.4792 22.6086 25.2356 23.299C25.0056 23.9511 24.9949 23.914 25.4893 24.1803C25.944 24.4251 26.3479 24.9686 26.3487 25.3365C26.3497 25.8572 26.0565 26.5079 25.7394 26.6882C25.5598 26.7902 25.4126 26.9134 25.4122 26.9617C25.4118 27.01 26.655 27.0496 28.1749 27.0496H30.9384L30.3913 26.4093C29.5312 25.4026 29.5352 24.544 30.4017 24.1819L30.8123 24.0103L30.7783 22.9807L30.7444 21.9511L26.9645 21.9221L23.1845 21.8932V22.5961ZM126.216 22.7651C126.027 22.9932 125.019 23.3178 124.351 23.3664C124.052 23.388 123.781 23.4098 123.749 23.4149C123.717 23.4199 123.815 23.5278 123.967 23.6545C124.29 23.9237 124.681 23.9394 125.327 23.7093C125.876 23.5136 125.973 23.5555 125.636 23.8441C125.31 24.1229 125.326 24.2366 125.691 24.2366C126.139 24.2366 126.376 24.069 126.862 23.407C127.216 22.9251 127.27 22.7875 127.137 22.7036C126.883 22.5426 126.372 22.5767 126.216 22.7651ZM39.73 23.5664C39.8372 23.645 40.0212 23.7673 40.1388 23.8382C40.3345 23.9565 40.3222 23.9831 39.9927 24.1535C39.7947 24.2559 39.6327 24.4219 39.6327 24.5225C39.6327 24.7575 39.6908 24.7525 40.1397 24.4788C40.3433 24.3547 40.6861 24.2362 40.9016 24.2155C41.1549 24.1913 41.2932 24.1159 41.2932 24.0022C41.2932 23.8808 41.1944 23.8367 40.9739 23.8597C40.7983 23.878 40.4445 23.7856 40.1874 23.6546C39.6715 23.3913 39.4265 23.3441 39.73 23.5664ZM14.7455 23.6389C14.7455 23.7057 14.8906 23.8368 15.0678 23.9305L15.3902 24.1007L15.0678 24.2243C14.8617 24.3034 14.7455 24.4344 14.7455 24.5878V24.8275L15.203 24.5941C15.6582 24.3618 15.6617 24.3618 15.9539 24.5917C16.3687 24.918 16.4797 24.8785 16.1463 24.5234C15.9091 24.2712 15.8922 24.2072 16.0378 24.1151C16.1329 24.055 16.2501 24.005 16.2985 24.004C16.3918 24.0021 16.4249 23.6506 16.3318 23.6506C16.3018 23.6506 16.096 23.737 15.8745 23.8426C15.4883 24.0268 15.4571 24.0241 15.1087 23.776C14.9089 23.6338 14.7455 23.5721 14.7455 23.6389ZM33.9457 24.1487C33.9177 24.4393 33.8534 24.5297 33.6746 24.5297C33.4959 24.5297 33.4315 24.4393 33.4035 24.1487C33.3705 23.8064 33.3979 23.7678 33.6746 23.7678C33.9514 23.7678 33.9788 23.8064 33.9457 24.1487ZM127.672 24.0403C127.545 24.1256 127.072 24.2903 126.621 24.406C126.17 24.5218 125.088 24.9636 124.218 25.3879C123.003 25.98 122.52 26.158 122.138 26.1537C121.732 26.1491 121.639 26.1877 121.639 26.3617C121.639 26.4793 121.767 26.6591 121.923 26.7615C122.391 27.0678 123.334 26.8252 124.362 26.134C125.696 25.2375 125.673 25.2341 125.582 26.3142C125.539 26.8153 125.471 27.7898 125.43 28.4795C125.377 29.3652 125.309 29.7513 125.198 29.7939C124.968 29.8823 123.227 29.6464 122.313 29.4029C121.878 29.2869 121.522 29.2243 121.523 29.2637C121.523 29.3449 123.131 30.2682 124.101 30.7445C124.455 30.9186 124.913 31.1868 125.119 31.3409C125.348 31.5132 125.651 31.6208 125.907 31.6208C126.261 31.6208 126.337 31.5726 126.413 31.2984C126.565 30.7552 126.482 27.0676 126.296 26.0732C126.172 25.4119 126.16 25.1443 126.255 25.1159C126.707 24.9808 127.031 24.9501 127.031 25.0423C127.031 25.1012 126.939 25.1885 126.826 25.2365C126.65 25.3114 126.662 25.3351 126.914 25.4033C127.211 25.4842 127.304 25.4691 128.698 25.1104L129.487 24.9077L129.298 24.588C128.935 23.9734 128.161 23.7125 127.672 24.0403ZM92.8798 24.2985C92.7369 24.6707 92.8008 25.2644 92.9916 25.3376C93.387 25.4892 93.5094 25.414 93.5094 25.0189C93.5094 24.5433 93.0066 23.9679 92.8798 24.2985ZM39.5662 25.6138C39.5381 25.9201 39.5592 26.2207 39.613 26.2819C39.6694 26.346 39.7109 26.2826 39.7109 26.1321C39.7109 25.8809 39.7397 25.8739 40.4727 25.949C41.1321 26.0167 41.2346 26.0013 41.2346 25.8351C41.2346 25.7041 41.1321 25.6428 40.9122 25.6418C40.735 25.6411 40.3908 25.6076 40.1475 25.5674C39.7834 25.5073 39.7174 25.4556 39.7745 25.2757C39.8126 25.1554 39.7929 25.0571 39.7305 25.0571C39.6682 25.0571 39.5942 25.3076 39.5662 25.6138ZM90.6966 25.2497C90.6968 25.4054 92.4139 26.2948 93.3922 26.6458C94.5384 27.057 94.96 27.2746 96.4396 28.2181C97.1165 28.6498 97.7712 29.0397 97.8944 29.0847C98.0536 29.1429 98.3185 29.0265 98.8075 28.6834C99.1863 28.4177 99.6919 28.1463 99.9312 28.0805C100.472 27.9316 101.011 27.5581 101.011 27.3325C101.011 27.2032 100.933 27.1841 100.688 27.2525C100.511 27.3021 99.8387 27.3363 99.194 27.3286C97.9097 27.3131 96.734 27.0644 94.7433 26.3871C94.0969 26.1672 93.0142 25.8343 92.3374 25.6474C91.6605 25.4605 91.0143 25.2719 90.9016 25.2285C90.7888 25.1848 90.6964 25.1945 90.6966 25.2497ZM15.5367 25.502C14.9384 25.5282 14.7455 25.5782 14.7455 25.7071C14.7455 25.8398 14.9254 25.8775 15.559 25.8775C16.0065 25.8775 16.3986 25.8355 16.4304 25.784C16.5676 25.5619 16.2752 25.4697 15.5367 25.502ZM33.9677 25.9444C33.9677 26.3111 33.9352 26.3581 33.7039 26.3253C33.5018 26.2966 33.4317 26.1988 33.4035 25.9069C33.3707 25.5666 33.3988 25.5259 33.6672 25.5259C33.9335 25.5259 33.9677 25.5734 33.9677 25.9444ZM16.3864 26.6394C16.2645 26.7863 16.2814 26.8152 16.4893 26.8152C16.6323 26.8152 16.738 26.7404 16.738 26.6394C16.738 26.5427 16.6917 26.4636 16.6351 26.4636C16.5786 26.4636 16.4667 26.5427 16.3864 26.6394ZM39.3592 26.9813C39.3592 27.0839 39.5724 27.1952 39.916 27.2722C40.2222 27.3408 40.5913 27.4304 40.7364 27.4713C40.9309 27.5263 41.0001 27.4967 41.0001 27.3586C41.0001 27.2495 40.8655 27.1419 40.6778 27.1007C40.5006 27.0619 40.2025 26.9819 40.0157 26.9227C39.5402 26.7723 39.3592 26.7885 39.3592 26.9813ZM25.0145 27.3503C24.975 27.4533 24.9426 27.5861 24.9426 27.6453C24.9426 27.708 26.2667 27.7529 28.1154 27.7529H31.2882L31.2508 27.4892L31.2133 27.2254L28.1498 27.1943C25.4329 27.1665 25.0782 27.1842 25.0145 27.3503ZM15.1557 27.8435C15.2202 27.9101 15.3778 27.9834 15.5061 28.0065C15.8028 28.0601 15.8746 28.4144 15.6407 28.6726C15.5417 28.7821 15.4997 28.9349 15.5474 29.0123C15.6076 29.1096 15.831 28.9914 16.2741 28.6281C16.626 28.3395 16.9314 28.0508 16.9529 27.9867C16.9748 27.9214 16.7685 27.8695 16.4841 27.8688C16.2047 27.8681 15.7652 27.8348 15.5074 27.795C15.186 27.7451 15.0753 27.7604 15.1557 27.8435ZM24.1222 28.8078V29.7454H28.1072H32.0923V28.8078V27.8701H28.1072H24.1222V28.8078ZM39.0047 28.1707C38.8549 28.5648 38.8476 28.5399 39.1763 28.7552C39.4442 28.9308 39.4841 28.9263 39.8125 28.6835C40.0215 28.529 40.2423 28.4551 40.3597 28.5001C40.5426 28.5703 40.5429 28.5968 40.3655 28.8675C40.2085 29.1071 40.204 29.1594 40.3401 29.1594C40.562 29.1594 40.6851 28.6263 40.53 28.3365C40.3699 28.0375 39.9239 28.0386 39.6523 28.3389C39.3228 28.7031 39.0812 28.6448 39.1658 28.2217C39.252 27.7912 39.1601 27.7621 39.0047 28.1707ZM16.3864 28.092C16.3864 28.1495 16.303 28.2286 16.201 28.2678C15.939 28.3683 15.9176 28.3604 15.9176 28.1631C15.9176 28.0655 16.0218 27.9873 16.152 27.9873C16.2809 27.9873 16.3864 28.0344 16.3864 28.092ZM26.3491 28.8175C26.3491 29.3354 26.309 29.5173 26.2026 29.4824C26.1221 29.456 26.0396 29.267 26.0194 29.0624C25.9948 28.8139 25.92 28.6905 25.7938 28.6905C25.6433 28.6905 25.6608 28.6311 25.8803 28.3975C26.0317 28.2364 26.1991 28.1045 26.2523 28.1045C26.3055 28.1045 26.3491 28.4254 26.3491 28.8175ZM27.7494 28.2184C27.8997 28.2988 27.9642 28.4731 27.9689 28.8103C27.9743 29.1995 27.9252 29.3112 27.7045 29.4117C27.2481 29.6197 26.952 29.3735 26.9748 28.8048C26.9993 28.1926 27.2901 27.9725 27.7494 28.2184ZM29.0747 28.251C29.4029 28.5016 29.4496 28.9891 29.1723 29.2664C28.8832 29.5555 28.702 29.5724 28.3933 29.3389C28.1787 29.1766 28.1892 29.1658 28.5761 29.1495C28.8329 29.1386 28.8986 29.1106 28.7519 29.0745C28.2201 28.9438 28.0355 28.4606 28.4296 28.2311C28.7035 28.0716 28.8455 28.0759 29.0747 28.251ZM30.5053 28.2624C30.6614 28.3765 30.6824 28.4444 30.5807 28.5072C30.4756 28.5723 30.4734 28.6345 30.5726 28.754C30.7472 28.9643 30.6059 29.39 30.3556 29.4076C29.9846 29.4338 29.8066 29.3775 29.6603 29.1875C29.4483 28.9124 29.48 28.6071 29.7482 28.3389C30.0229 28.0642 30.2086 28.0454 30.5053 28.2624ZM27.3466 28.5752C27.3871 28.6407 27.4693 28.6641 27.5293 28.6269C27.6919 28.5265 27.6616 28.4561 27.4557 28.4561C27.3552 28.4561 27.3061 28.5097 27.3466 28.5752ZM28.6933 28.6389C28.6933 28.7393 28.746 28.789 28.8105 28.7492C28.875 28.7093 28.9277 28.6271 28.9277 28.5664C28.9277 28.5057 28.875 28.4561 28.8105 28.4561C28.746 28.4561 28.6933 28.5384 28.6933 28.6389ZM30.0779 28.5362C30.1624 28.5701 30.2635 28.5658 30.3024 28.5269C30.3413 28.488 30.2722 28.4603 30.1487 28.4654C30.0121 28.471 29.9843 28.4988 30.0779 28.5362ZM27.2868 29.0422C27.2868 29.1066 27.3659 29.1594 27.4626 29.1594C27.5593 29.1594 27.6384 29.1066 27.6384 29.0422C27.6384 28.9777 27.5593 28.925 27.4626 28.925C27.3659 28.925 27.2868 28.9777 27.2868 29.0422ZM29.9826 29.0422C29.9826 29.1066 30.0617 29.1594 30.1584 29.1594C30.2551 29.1594 30.3342 29.1066 30.3342 29.0422C30.3342 28.9777 30.2551 28.925 30.1584 28.925C30.0617 28.925 29.9826 28.9777 29.9826 29.0422ZM16.6208 29.4722C15.9052 29.7983 15.8507 29.8347 15.9418 29.926C15.9768 29.9608 16.1988 29.8752 16.4353 29.7357C16.6717 29.5961 16.8912 29.508 16.923 29.5397C16.9548 29.5714 16.8692 29.8952 16.733 30.2594C16.5968 30.6234 16.5027 30.9659 16.5238 31.0204C16.5449 31.0749 16.8965 30.9645 17.3051 30.775C17.7138 30.5855 18.0222 30.4044 17.9904 30.3727C17.9588 30.3411 17.7167 30.4253 17.4527 30.5601C17.1886 30.6948 16.9725 30.7644 16.9726 30.7147C16.9726 30.6652 17.0781 30.3471 17.207 30.0078C17.5775 29.0329 17.5801 29.0353 16.6208 29.4722ZM38.5162 29.4774C38.077 29.9771 38.1393 30.1483 38.8908 30.5074C39.3882 30.7452 39.6329 30.8079 39.7206 30.7202C39.8084 30.6325 39.6344 30.4986 39.1308 30.2661C38.4416 29.948 38.2584 29.6868 38.7243 29.6868C38.8479 29.6868 39.001 29.8054 39.0647 29.9505C39.2005 30.2602 39.6633 30.305 40.0108 30.0422C40.2552 29.8574 40.2002 29.8289 39.6523 29.8568C39.3879 29.8702 39.2716 29.8079 39.1834 29.6056C39.0342 29.263 38.7521 29.2087 38.5162 29.4774ZM32.5745 30.8717C31.1945 31.801 29.7445 32.2292 27.99 32.2252C26.7038 32.2224 26.0512 32.0956 24.8518 31.6152C24.0859 31.3086 22.9501 30.6435 22.9501 30.5016C22.9501 30.4725 25.2569 30.4487 28.0764 30.4487H33.2026L32.5745 30.8717ZM37.6011 30.9175C37.4581 31.1183 37.36 31.3012 37.3832 31.324C37.4063 31.3467 37.7103 31.5611 38.0587 31.8003L38.692 32.2354L38.9058 31.9574C39.0234 31.8044 39.1191 31.6266 39.1185 31.5621C39.1179 31.4977 39.0416 31.545 38.9489 31.6674C38.8032 31.86 38.7524 31.8684 38.5717 31.7299C38.457 31.6418 38.3422 31.5562 38.3169 31.5395C38.2917 31.5229 38.3387 31.4276 38.4216 31.3277C38.5044 31.2279 38.5377 31.1118 38.4956 31.0698C38.4536 31.0277 38.3437 31.0948 38.2517 31.2191C38.0941 31.4317 38.0724 31.4333 37.8821 31.2457C37.7133 31.0794 37.7052 31.016 37.8329 30.8619C37.9172 30.7604 37.958 30.6493 37.9237 30.6149C37.8892 30.5805 37.7441 30.7167 37.6011 30.9175ZM18.0154 32.0191C17.6544 32.3026 17.2588 32.5578 17.1363 32.5863C16.9556 32.6284 16.9754 32.6552 17.2422 32.7297C17.5217 32.8076 17.6682 32.7452 18.2312 32.3081C18.8494 31.828 18.9993 31.6125 18.7687 31.5359C18.7155 31.5182 18.3765 31.7356 18.0154 32.0191ZM37.0151 31.8013C37.0151 31.8361 37.1206 32.0713 37.2495 32.324C37.5877 32.987 37.5477 33.0462 36.9371 32.7845C36.5466 32.6171 36.3544 32.5862 36.2641 32.6764C36.1049 32.8356 36.2122 32.905 37.0672 33.1957C37.4258 33.3175 37.7515 33.3849 37.7911 33.3452C37.8674 33.2688 37.1901 31.738 37.0799 31.738C37.0443 31.738 37.0151 31.7664 37.0151 31.8013ZM18.7938 32.8554C18.3622 33.2421 18.2465 33.4105 18.3446 33.5086C18.4427 33.6067 18.6298 33.4976 19.0706 33.0854C19.3973 32.7798 19.6358 32.4835 19.6009 32.4269C19.4971 32.2592 19.4041 32.3086 18.7938 32.8554ZM35.4519 33.3479C35.4183 33.4021 35.6434 33.7284 35.952 34.073C36.6588 34.8621 36.9124 34.6821 36.2292 33.8762C35.753 33.3143 35.5556 33.1801 35.4519 33.3479ZM19.6976 33.7648C19.3591 33.9657 19.0822 34.1738 19.0822 34.2273C19.0822 34.2809 19.1865 34.269 19.3139 34.2007C19.6431 34.0246 19.996 34.2683 19.9764 34.6582C19.9465 35.2558 20.1783 35.0641 20.3897 34.3165C20.508 33.8975 20.6052 33.5151 20.6054 33.4668C20.6063 33.3029 20.3149 33.3986 19.6976 33.7648ZM20.1711 33.9649C20.1032 34.2244 19.9596 34.2691 19.836 34.069C19.7917 33.9974 19.8281 33.8927 19.917 33.8365C20.1693 33.6766 20.2374 33.711 20.1711 33.9649ZM55.3831 33.8033C55.2196 33.9668 55.3035 34.1731 55.5633 34.2462C55.8207 34.3187 55.8216 34.3245 55.6011 34.4931C55.4769 34.588 55.4077 34.6983 55.4475 34.738C55.5696 34.86 56.1386 34.2067 56.0977 33.9915C56.0587 33.7852 55.5382 33.6481 55.3831 33.8033ZM34.7881 33.9246C34.7881 33.9668 34.9227 34.1778 35.0871 34.3934C35.4282 34.8406 35.3734 34.8623 34.4459 34.6481C34.119 34.5726 33.8234 34.539 33.789 34.5733C33.7071 34.6552 34.4563 35.9575 34.5853 35.9575C34.6933 35.9575 34.6373 35.8405 34.2873 35.3353C34.1619 35.1543 34.0867 34.9789 34.1201 34.9455C34.1537 34.912 34.5036 34.9751 34.8981 35.0858C35.2923 35.1963 35.6416 35.2603 35.6742 35.2277C35.7486 35.1533 34.9953 33.8531 34.876 33.8501C34.8277 33.8488 34.7881 33.8823 34.7881 33.9246ZM49.4391 34.0389C49.4391 34.0794 49.6133 34.3564 49.8262 34.6542C50.039 34.9519 50.2493 35.2555 50.2936 35.3286C50.3378 35.4018 50.1592 35.7314 49.8966 36.0612C49.3258 36.778 49.5442 36.8829 50.1474 36.1817L50.5627 35.699L50.8959 36.1798C51.1726 36.5792 51.295 36.6607 51.6179 36.6607H52.0067L51.5269 35.9382C51.2072 35.4571 51.0818 35.1669 51.1514 35.0695C51.2089 34.989 51.4317 34.7075 51.6466 34.4441C51.9972 34.0143 52.013 33.9649 51.8008 33.9649C51.6582 33.9649 51.4327 34.1505 51.2342 34.4313C51.0527 34.6877 50.8772 34.8987 50.844 34.9001C50.8108 34.9014 50.6534 34.6916 50.494 34.4337C50.2517 34.0417 50.1416 33.9649 49.8217 33.9649C49.6113 33.9649 49.4391 33.9982 49.4391 34.0389ZM53.1898 35.3128V36.6607H53.5414H53.8931V35.3128V33.9649H53.5414H53.1898V35.3128ZM56.3234 35.3128C55.7635 36.4378 55.6873 36.6607 55.8627 36.6607C55.9966 36.6607 56.1268 36.5117 56.2213 36.2505C56.3636 35.8569 56.3931 35.8402 56.95 35.8402C57.4978 35.8402 57.5413 35.8632 57.7259 36.2505C57.8913 36.5973 57.9815 36.6607 58.3095 36.6607H58.6973L58.0264 35.3128C57.6056 34.4676 57.2881 33.9649 57.1749 33.9649C57.0617 33.9649 56.7441 34.4676 56.3234 35.3128ZM59.8707 35.3128C59.8707 36.4162 59.9017 36.6607 60.0418 36.6607C60.1744 36.6607 60.2204 36.4528 60.2469 35.7348L60.2809 34.8088L61.3358 35.7327C61.916 36.2407 62.483 36.6574 62.5958 36.6586C62.7793 36.6605 62.8009 36.5192 62.8009 35.3128C62.8009 34.1928 62.7711 33.9649 62.6251 33.9649C62.4834 33.9649 62.4493 34.1475 62.4493 34.9055V35.8462L61.3835 34.9055C60.7972 34.3882 60.217 33.9649 60.0942 33.9649C59.8873 33.9649 59.8707 34.065 59.8707 35.3128ZM65.6139 35.4828C65.6139 36.8038 65.5874 37.0155 65.4097 37.1149C65.2974 37.1777 65.2468 37.2704 65.2972 37.3207C65.3475 37.3711 65.5696 37.3148 65.7906 37.1958C66.3077 36.9174 66.4192 36.5468 66.4192 35.1077L66.4191 33.9649H66.0165H65.6139V35.4828ZM67.7236 35.3128V36.6607H68.1046L68.4855 36.6606L68.4939 35.3128L68.5025 33.9649H68.113H67.7236V35.3128ZM70.4349 35.0831C69.7116 36.4569 69.6402 36.6607 69.8825 36.6607C69.9827 36.6607 70.1417 36.4761 70.2361 36.2505C70.3995 35.8594 70.4348 35.8402 70.9919 35.8402C71.5534 35.8402 71.5821 35.8563 71.7246 36.2505C71.8533 36.6064 71.9241 36.6607 72.2597 36.6607C72.4723 36.6607 72.6464 36.6335 72.6464 36.6001C72.6464 36.3607 71.3217 33.9649 71.1894 33.9649C71.0982 33.9649 70.7586 34.4681 70.4349 35.0831ZM74.3825 34.1972C73.8134 34.5061 73.584 34.8543 73.584 35.4093C73.584 36.0927 74.1464 36.6116 75.0033 36.7186C76.3206 36.8833 77.2135 36.3717 77.3035 35.4006C77.3515 34.8844 77.3244 34.8143 76.9303 34.4359C76.5353 34.0563 76.446 34.0254 75.6601 33.9952C74.9932 33.9695 74.7234 34.0122 74.3825 34.1972ZM78.1552 34.1499C78.1552 34.2924 78.2562 34.326 78.5947 34.2964L79.0342 34.2579L79.0676 35.4593L79.101 36.6607H79.4485H79.7961V35.4247V34.1887L80.2063 34.2657C80.5373 34.3278 80.6165 34.3061 80.6165 34.1537C80.6165 33.9921 80.4394 33.9649 79.3858 33.9649C78.3429 33.9649 78.1552 33.9932 78.1552 34.1499ZM82.4323 34.1391C81.9232 34.363 81.6591 34.7039 81.5983 35.2158C81.5259 35.825 81.7482 36.1989 82.375 36.5228C83.3054 37.0033 84.7396 36.7108 85.1271 35.9613C85.4892 35.261 85.2441 34.4813 84.5598 34.1566C84.0756 33.9268 82.9364 33.9174 82.4323 34.1391ZM86.4859 35.3128C86.4806 36.4147 86.5105 36.6607 86.6492 36.6607C86.7809 36.6607 86.8267 36.4459 86.8532 35.7063L86.8872 34.7519L87.968 35.7063C88.5624 36.2313 89.1295 36.6607 89.2279 36.6607C89.3732 36.6607 89.4074 36.4886 89.4084 35.7523C89.4091 35.2528 89.4424 34.6462 89.4824 34.4044C89.5466 34.0157 89.5273 33.9649 89.3143 33.9649C89.0869 33.9649 89.0773 34.0138 89.14 34.844C89.1965 35.5909 89.1791 35.723 89.0236 35.723C88.923 35.723 88.8231 35.6812 88.8015 35.6301C88.7073 35.406 86.8896 33.9649 86.7012 33.9649C86.5133 33.9649 86.4916 34.1004 86.4859 35.3128ZM91.6484 34.126C90.4996 34.5416 90.3501 35.9421 91.3968 36.4834C91.8396 36.7124 92.8696 36.8194 93.4396 36.6956C93.9272 36.5898 94.063 36.321 93.9201 35.745C93.8672 35.5314 93.7852 35.4816 93.5346 35.5105C93.2476 35.5436 93.2164 35.5932 93.2164 36.0161V36.4849L92.6179 36.4808C91.9483 36.4762 91.68 36.2921 91.5176 35.7255C91.3861 35.2669 91.573 34.6071 91.8991 34.3785C92.2022 34.1664 93.0242 34.1435 93.4458 34.3355C93.8186 34.5055 93.999 34.3557 93.6919 34.1311C93.4125 33.9268 92.2074 33.9238 91.6484 34.126ZM96.6741 35.0251C96.6741 35.9802 96.7013 36.1125 96.9481 36.3594C97.3472 36.7585 98.2872 36.8682 98.8686 36.5835C99.4553 36.2963 99.6005 35.9578 99.6025 34.8733C99.604 34.0765 99.5784 33.9649 99.3936 33.9649C99.2077 33.9649 99.1885 34.0535 99.2307 34.7152C99.293 35.6929 99.1111 36.2422 98.6638 36.4275C98.2747 36.5886 97.8338 36.5144 97.5613 36.2419C97.4216 36.1022 97.3773 35.806 97.3773 35.0115V33.9649H97.0257H96.6741V35.0251ZM101.05 35.3202C101.033 36.5283 101.052 36.6694 101.226 36.6312C101.333 36.6075 101.404 36.5138 101.383 36.423C101.317 36.1347 101.5 34.8897 101.603 34.9261C101.657 34.9455 102.122 35.3435 102.637 35.8109C103.722 36.7973 103.941 36.8641 103.941 36.2096C103.941 35.9614 103.975 35.3549 104.017 34.8617C104.082 34.0848 104.067 33.9649 103.904 33.9649C103.75 33.9649 103.71 34.1335 103.682 34.8985L103.648 35.8322L102.565 34.8985C101.97 34.385 101.39 33.9653 101.276 33.9656C101.092 33.9662 101.067 34.1127 101.05 35.3202ZM105.465 35.3128V36.6607H105.816H106.168V35.3128V33.9649H105.816H105.465V35.3128ZM107.561 34.4044C107.676 34.6462 107.962 35.2528 108.197 35.7523C108.858 37.1601 108.94 37.0958 110.366 34.0528C110.388 34.0045 110.32 33.9649 110.213 33.9649C110.084 33.9649 109.878 34.278 109.597 34.9026C109.365 35.4183 109.14 35.8402 109.097 35.8402C109.053 35.8402 108.82 35.4183 108.578 34.9026C108.156 34.0043 108.121 33.9649 107.745 33.9649H107.351L107.561 34.4044ZM111.442 35.3128V36.6607H112.38C112.927 36.6607 113.318 36.6118 113.318 36.5435C113.318 36.479 113.051 36.4263 112.725 36.4263H112.132L112.168 35.9282L112.204 35.43L112.761 35.3943C113.505 35.3466 113.475 35.137 112.725 35.137H112.131L112.168 34.6975L112.204 34.2579L112.761 34.297C113.207 34.3281 113.318 34.299 113.318 34.1505C113.318 33.9967 113.157 33.9649 112.38 33.9649H111.442V35.3128ZM114.49 35.3004V36.6607H114.841C115.187 36.6607 115.193 36.6503 115.196 36.0454L115.199 35.43L115.545 35.8402C115.736 36.0659 115.922 36.3427 115.96 36.4556C116.011 36.6055 116.156 36.6607 116.5 36.6607H116.971L116.484 36.0495C116.03 35.479 116.012 35.4286 116.211 35.2917C116.774 34.9038 116.852 34.6642 116.551 34.2524C116.417 34.0686 116.208 34.0181 115.438 33.9832L114.49 33.9401V35.3004ZM118.176 34.2527C117.656 34.7726 117.816 35.1641 118.726 35.6023C119.414 35.9333 119.511 36.0771 119.233 36.3541C118.978 36.6096 118.524 36.5931 118.249 36.3181C118.058 36.1272 118.014 36.1197 117.956 36.2691C117.835 36.5862 117.883 36.649 118.31 36.7292C118.874 36.835 119.603 36.6022 119.84 36.2409C120.117 35.8182 119.913 35.4659 119.157 35.0607C118.396 34.6532 118.295 34.2807 118.929 34.2201C119.147 34.1993 119.382 34.2388 119.451 34.308C119.625 34.4819 119.764 34.4653 119.764 34.2705C119.764 33.8549 118.587 33.8416 118.176 34.2527ZM121.17 33.9942C121.17 34.0103 121.154 34.6169 121.134 35.3421L121.097 36.6607H121.468H121.838L121.833 35.3128L121.828 33.9649H121.5C121.319 33.9649 121.17 33.9782 121.17 33.9942ZM122.989 34.079C122.885 34.248 123.221 34.3569 123.574 34.2684L123.866 34.1949V35.4278V36.6607H124.214H124.561L124.595 35.4593L124.628 34.2579H124.98C125.173 34.2579 125.358 34.2052 125.39 34.1407C125.471 33.978 123.09 33.9167 122.989 34.079ZM126.4 34.1114C126.448 34.1921 126.695 34.5901 126.949 34.9961C127.351 35.6392 127.401 35.7941 127.337 36.1975L127.263 36.6607H127.674H128.086V36.0352C128.086 35.49 128.148 35.3232 128.567 34.7383C128.831 34.3689 129.018 34.0375 128.982 34.0014C128.844 33.8635 128.565 34.0846 128.377 34.4799C128.036 35.1988 127.922 35.2084 127.502 34.5537C127.168 34.0334 127.077 33.9649 126.719 33.9649C126.427 33.9649 126.338 34.0058 126.4 34.1114ZM76.2505 34.4988C76.6316 34.9318 76.6133 35.7045 76.2108 36.1828C75.9661 36.4736 75.8176 36.5435 75.4437 36.5435C74.7755 36.5435 74.4045 36.1451 74.4045 35.4277C74.4045 34.778 74.5392 34.497 74.9642 34.26C75.3859 34.025 75.9211 34.1243 76.2505 34.4988ZM84.2207 34.4988C84.6622 35.0005 84.5221 36.066 83.9638 36.4538C83.8955 36.5012 83.6396 36.5407 83.395 36.5417C82.5555 36.5451 82.125 35.6917 82.4865 34.741C82.7428 34.0669 83.7204 33.9303 84.2207 34.4988ZM115.942 34.3848C116.111 34.8238 115.852 35.2542 115.419 35.2542C115.229 35.2542 115.193 35.1696 115.193 34.7268C115.193 34.2232 115.208 34.1993 115.532 34.1993C115.733 34.1993 115.9 34.2748 115.942 34.3848ZM21.171 34.6711C20.8839 34.9581 20.8315 35.0866 20.8961 35.345C21.0043 35.7787 21.267 36.0468 21.6703 36.1354C22.1412 36.2388 22.3977 36.1306 22.6353 35.7284C22.9059 35.2701 22.7877 34.8259 22.3193 34.5403C21.8149 34.2327 21.583 34.2592 21.171 34.6711ZM22.3903 34.8549C22.5674 35.2434 22.3227 35.7288 21.8693 35.8882C21.2433 36.1083 20.9866 35.5202 21.4343 34.8913C21.7495 34.4488 22.1975 34.4316 22.3903 34.8549ZM57.2391 35.1479C57.3423 35.3473 57.3954 35.5416 57.3573 35.5798C57.2453 35.6917 56.5888 35.6914 56.5888 35.5793C56.5888 35.4465 56.9304 34.7854 56.9991 34.7854C57.028 34.7854 57.136 34.9485 57.2391 35.1479ZM71.2106 35.1027C71.4375 35.5912 71.3936 35.6862 70.9468 35.675C70.7212 35.6692 70.5366 35.6462 70.5366 35.6236C70.5366 35.5051 70.9259 34.7855 70.9895 34.7863C71.0305 34.7868 71.13 34.9292 71.2106 35.1027ZM33.03 34.9748C33.03 35.0144 33.1182 35.2955 33.2261 35.5992C33.4587 36.254 33.3826 36.5435 32.9777 36.5435C32.6598 36.5435 32.3947 36.2281 32.2633 35.6937C32.1765 35.3404 31.8567 35.2475 31.8598 35.5765C31.8629 35.9044 32.3719 36.7134 32.6029 36.758C32.955 36.8259 33.3675 36.6716 33.5009 36.4223C33.5965 36.2438 33.5761 36.0313 33.4164 35.5455C33.3006 35.1928 33.1662 34.9039 33.1179 34.9034C33.0696 34.9029 33.03 34.935 33.03 34.9748ZM23.4482 35.2636C23.7099 35.4161 23.7062 35.5792 23.4269 36.2032C23.2096 36.6886 23.2051 36.8951 23.4122 36.8951C23.4654 36.8951 23.6282 36.6009 23.7743 36.2413C23.9855 35.7209 24.0838 35.5992 24.2567 35.6443C24.6229 35.74 24.4977 35.5435 24.0596 35.3345C23.587 35.1091 23.0826 35.0506 23.4482 35.2636ZM25.0638 35.868C24.9017 35.9528 24.7263 36.1881 24.6643 36.4043C24.5024 36.9686 24.8541 37.4099 25.5046 37.4583C26.1094 37.5033 26.4663 37.1922 26.4663 36.6203C26.4663 35.9577 25.6896 35.541 25.0638 35.868ZM25.888 35.9616C26.3818 36.2259 26.0405 37.364 25.4675 37.364C24.9386 37.364 24.8351 36.7627 25.2505 36.104C25.4357 35.8102 25.5554 35.7835 25.888 35.9616ZM29.4499 36.128C29.2916 36.2862 29.1621 36.5523 29.1621 36.7193C29.1621 37.0367 29.6276 37.5988 29.8894 37.5977C29.9728 37.5973 30.2437 37.5408 30.4913 37.472C30.9028 37.3579 30.9347 37.3202 30.8627 37.0334C30.7683 36.6575 30.7347 36.6166 30.5922 36.7048C30.532 36.7419 30.5091 36.9093 30.5411 37.0767C30.5953 37.3607 30.573 37.3786 30.2067 37.3432C29.6503 37.2895 29.3746 36.8033 29.6372 36.3384C29.7765 36.0913 29.9066 36.0163 30.1939 36.0172C30.4 36.0178 30.5686 35.9782 30.5686 35.9293C30.5686 35.8803 30.3817 35.8402 30.1531 35.8402C29.8682 35.8402 29.6471 35.9307 29.4499 36.128ZM27.1679 36.6314C27.1671 36.9377 27.1345 37.3068 27.0957 37.4519C27.0533 37.6101 27.0773 37.7156 27.1559 37.7156C27.235 37.7156 27.2888 37.4721 27.2918 37.1002L27.297 36.4849L27.8714 37.1263C28.1874 37.4791 28.4678 37.7428 28.4946 37.7123C28.6069 37.5849 28.6779 36.0747 28.5716 36.0747C28.5096 36.0747 28.4565 36.3251 28.4536 36.6314L28.4483 37.1881L27.9491 36.6314C27.6745 36.3251 27.3869 36.0747 27.3098 36.0747C27.2209 36.0747 27.169 36.2785 27.1679 36.6314Z" fill="#CB2A30"/>
</svg>
