<svg width="141" height="48" viewBox="0 0 141 48" fill="none" xmlns="http://www.w3.org/2000/svg">
<path d="M6.58789 0.5H134.134C137.496 0.500112 140.221 3.22568 140.222 6.58789V41.4121C140.221 44.7743 137.496 47.4999 134.134 47.5H6.58789C3.22573 47.4998 0.500186 44.7743 0.5 41.4121V6.58789C0.500186 3.22572 3.22572 0.500186 6.58789 0.5Z" fill="white"/>
<path d="M6.58789 0.5H134.134C137.496 0.500112 140.221 3.22568 140.222 6.58789V41.4121C140.221 44.7743 137.496 47.4999 134.134 47.5H6.58789C3.22573 47.4998 0.500186 44.7743 0.5 41.4121V6.58789C0.500186 3.22572 3.22572 0.500186 6.58789 0.5Z" stroke="#EAECF0"/>
<path fill-rule="evenodd" clip-rule="evenodd" d="M122.054 9.39792C121.939 9.5123 121.842 9.64612 121.837 9.69544C121.717 10.9044 121.629 11.0119 120.922 10.8232C120.634 10.7462 120.367 10.7135 120.329 10.7509C120.23 10.8497 120.528 11.1737 120.717 11.1737C120.806 11.1737 120.984 11.2898 121.113 11.4318C121.337 11.6792 121.335 11.7089 121.063 12.1486C120.907 12.4009 120.83 12.6385 120.892 12.6766C120.953 12.7148 121.268 12.5711 121.59 12.3571C121.913 12.1432 122.34 11.968 122.54 11.9676C122.961 11.9669 122.989 11.8837 122.682 11.5451C122.475 11.3157 122.479 11.2682 122.758 10.7723C123.015 10.3157 123.035 10.1831 122.907 9.79488C122.825 9.54787 122.667 9.31078 122.556 9.26794C122.283 9.16334 122.29 9.16149 122.054 9.39792ZM61.4873 10.1958C60.6902 10.3668 59.7826 10.5937 59.4704 10.7C59.1582 10.8065 58.2335 10.9933 57.4155 11.1153C55.5292 11.3967 55.5979 11.3729 55.5979 11.7448C55.5979 12.4772 55.8576 12.8662 56.4907 13.0819C57.5433 13.4405 58.6715 13.3503 60.226 12.7832C60.626 12.6373 61.6673 12.4236 62.54 12.3083C64.7061 12.0221 65.6829 11.8368 65.8789 11.6747C66.1103 11.4832 66.0851 10.7046 65.8397 10.4591C65.5377 10.1572 64.3731 9.84896 63.6069 9.86814C63.2383 9.87739 62.2845 10.0248 61.4873 10.1958ZM116.931 10.215C116.746 10.4149 116.34 10.9228 116.028 11.3433C115.503 12.0509 115.473 12.135 115.625 12.4673C115.716 12.665 115.884 13.8808 115.999 15.1693C116.238 17.8388 116.23 17.8679 115.228 18.168C114.629 18.3475 114.652 18.5145 115.312 18.7904C115.944 19.0544 116.205 19.0246 117.127 18.5847C118.375 17.9887 120.244 17.6521 122.771 17.5681L124.953 17.4956L125.581 17.902C126.255 18.3378 126.32 18.4939 126.012 18.9333C125.821 19.2062 125.834 19.2166 126.442 19.288C126.787 19.3286 127.315 19.3994 127.616 19.4455C128.207 19.5358 128.722 19.3507 128.722 19.0475C128.722 18.9469 128.636 18.696 128.53 18.4902C128.425 18.2843 128.308 18.0116 128.27 17.8844C128.225 17.7342 128.069 17.653 127.824 17.653C127.378 17.653 126.082 17.2868 125.846 17.0945C125.612 16.9039 125.639 16.385 125.959 14.9069C126.228 13.6619 126.981 11.5368 127.359 10.9565C127.526 10.6996 127.511 10.6479 127.199 10.4021C127.009 10.2529 126.643 10.0613 126.386 9.9763C125.972 9.83971 125.839 9.8602 125.237 10.1527C124.863 10.3347 124.438 10.5327 124.292 10.5928C124.086 10.6781 124.158 10.7123 124.62 10.7487C124.946 10.7742 125.288 10.8579 125.38 10.9345C125.597 11.1139 125.594 12.0686 125.376 12.496C125.236 12.7696 125.111 12.8265 124.65 12.8265C123.995 12.8265 123.943 12.9305 124.486 13.1553C125.025 13.3784 125.211 13.64 125.175 14.1202C125.136 14.6331 124.923 14.8954 124.568 14.8681C123.689 14.8004 123.35 15.0433 124.095 15.207C124.611 15.3203 124.782 15.6526 124.65 16.2886L124.545 16.7935L123.274 16.8846C122.575 16.9347 121.138 17.1026 120.081 17.2578C119.024 17.413 117.992 17.5208 117.788 17.4972C117.454 17.459 117.412 17.3983 117.376 16.8982L117.335 16.3419L118.111 15.9504C119.314 15.3432 119.603 14.8066 118.559 15.1194C118.277 15.2038 117.929 15.2728 117.785 15.2728C117.393 15.2728 117.085 14.8494 117.085 14.3108C117.085 13.8461 117.108 13.8242 117.885 13.5411C118.842 13.1919 118.93 12.8484 118.076 12.7912C117.047 12.7226 116.557 12.4704 116.557 12.0107C116.557 11.7256 117.287 11.0779 118.036 10.698C118.474 10.4763 118.672 10.2941 118.672 10.1136C118.672 9.88493 118.582 9.85134 117.97 9.85134C117.373 9.85134 117.217 9.90609 116.931 10.215ZM97.6539 12.018C97.5101 12.3536 97.3286 12.6282 97.2509 12.6282C97.173 12.6282 97.3182 12.8116 97.5735 13.0357C98.1606 13.5512 98.3069 14.0835 98.3078 15.7068C98.3089 17.5111 98.1642 17.8131 97.1674 18.0867C95.9623 18.4174 94.7503 18.6055 93.8475 18.6018C93.3938 18.5999 92.9891 18.6528 92.9481 18.7192C92.8215 18.924 93.3724 19.9985 93.7211 20.227C93.9109 20.3513 94.4636 20.4749 95.0228 20.5181C96.0239 20.5954 96.5896 20.8244 96.5896 21.1524C96.5896 21.7918 93.0436 25.3908 91.6449 26.1707C90.8375 26.6209 90.7619 26.6955 90.9838 26.8231C91.1216 26.9023 91.6805 26.9626 92.226 26.9569C93.6715 26.9421 94.4829 26.5397 95.8557 25.1567C96.4512 24.5569 97.3132 23.5149 97.7715 22.8411C98.6794 21.5062 98.6677 21.518 99.2395 21.354C99.6246 21.2435 99.6616 21.2783 100.979 22.9843C102.732 25.2558 104.286 27.0558 104.996 27.6371L105.564 28.1027L107.174 27.5181C108.059 27.1965 108.841 26.8761 108.911 26.8061C108.993 26.7242 108.408 26.2847 107.277 25.5787C106.308 24.9737 105.158 24.2084 104.722 23.8778C103.405 22.8801 101.675 21.2752 101.158 20.5711C100.705 19.9534 100.683 19.8823 100.845 19.5406C100.943 19.3352 101.281 19.0379 101.614 18.865C102.154 18.5851 102.328 18.5631 103.489 18.6275C104.636 18.6913 104.803 18.6709 105.108 18.4307C105.367 18.227 105.449 18.0426 105.449 17.6616C105.449 17.1774 105.421 17.1464 104.606 16.7455C103.624 16.2617 103.499 16.2544 102.011 16.5941C100.513 16.936 100.527 16.9548 100.634 14.6829C100.76 12.0098 100.573 11.685 98.8063 11.5007L97.9156 11.4077L97.6539 12.018ZM83.5747 12.6962C83.3054 12.8789 82.8062 13.1771 82.4654 13.3589L81.8458 13.6892L82.7189 13.6082L83.592 13.5272L83.6761 14.0363C83.9146 15.4796 83.7502 15.8665 82.8476 15.9862C81.8796 16.1146 81.5152 15.9903 81.5152 15.5316C81.5152 14.6267 80.9042 14.0374 80.3008 14.3602C80.0106 14.5155 80.0092 14.4094 80.3254 16.2646C80.3874 16.6282 80.4424 17.3908 80.4477 17.9592C80.4588 19.1456 80.5669 19.4174 81.1471 19.7174C81.5533 19.9275 82.1358 19.9225 83.4326 19.6977C84.3034 19.5467 84.3858 19.8968 84.3164 23.4554L84.2639 26.1506L83.499 26.0706C83.0783 26.0267 82.3963 25.8642 81.9833 25.7097C81.5704 25.5553 81.2057 25.4557 81.1729 25.4885C81.0667 25.5947 83.427 27.5976 84.2121 28.0675C84.3652 28.1592 84.7553 28.2187 85.0789 28.1998C85.5959 28.1696 85.7002 28.1092 85.9384 27.7026C86.2022 27.2522 86.2084 27.0847 86.1706 21.4548C86.1448 17.6177 86.1811 15.3969 86.2786 14.8591C86.48 13.7485 86.3406 13.475 85.2599 12.8596C84.7808 12.5869 84.3159 12.3637 84.2266 12.3637C84.1375 12.3637 83.8441 12.5133 83.5747 12.6962ZM76.7549 13.3774C76.1885 13.7772 75.0975 14.3472 74.8988 14.3472C74.8186 14.3472 74.4935 14.1687 74.1764 13.9505C73.8593 13.7323 73.5076 13.5538 73.3949 13.5538C73.0196 13.5538 72.1268 13.9767 72.1268 14.1544C72.1268 14.2508 72.3155 14.6331 72.5461 15.0041L72.9653 15.6785L72.7952 18.4839C72.7016 20.0269 72.5953 22.4921 72.5592 23.9622L72.4932 26.6348L72.9034 27.045C73.2247 27.3663 73.4069 27.4462 73.7449 27.4135C74.1152 27.378 74.2231 27.2783 74.5058 26.7108C74.8285 26.0629 74.8342 25.9976 74.7926 23.438L74.75 20.8263L75.3888 20.5448C76.0539 20.2516 77.1349 20.1534 77.6473 20.3395C78.0727 20.4941 78.2094 20.0394 78.2094 18.4706C78.2094 17.7404 78.3232 16.5929 78.4739 15.8018C78.6194 15.0384 78.7384 14.3417 78.7384 14.2535C78.7384 14.0399 78.3284 13.6687 77.7166 13.3284L77.2177 13.0507L76.7549 13.3774ZM119.41 13.3311C119.091 13.5645 119.191 13.9766 119.616 14.1803C119.806 14.2714 120.038 14.53 120.131 14.7547C120.28 15.114 120.266 15.2341 120.017 15.7471C119.861 16.0681 119.755 16.3307 119.782 16.3307C119.809 16.3307 120.155 16.1821 120.552 16.0004L121.274 15.6699L122.162 15.9488C122.651 16.1022 123.087 16.1913 123.131 16.1469C123.176 16.1024 123.024 15.8316 122.793 15.545C122.313 14.9465 122.253 14.4252 122.639 14.1843C122.996 13.9615 122.975 13.5983 122.601 13.5268C122.211 13.4521 121.978 13.5328 121.978 13.7427C121.978 13.8344 121.858 14.0177 121.712 14.1501C121.475 14.3648 121.409 14.3705 121.093 14.2036C120.899 14.1007 120.551 13.8233 120.321 13.5869C119.854 13.1082 119.754 13.08 119.41 13.3311ZM63.3862 13.8835C62.2191 14.3857 59.7294 15.1021 58.5538 15.274C57.3223 15.454 57.1274 15.3941 56.6445 14.6869C55.9924 13.7319 55.7445 14.0382 55.5885 15.9914C55.3876 18.5081 53.6488 23.0168 50.9542 28.0079C50.3578 29.1127 49.7835 30.1499 49.6781 30.3128C49.5091 30.5741 49.5109 30.6183 49.6921 30.6878C49.8052 30.7312 50.2277 30.6709 50.6309 30.5536C51.6919 30.2453 52.7901 29.1688 53.8466 27.4014C55.0379 25.4088 55.4072 24.6295 55.8662 23.1406C56.9294 19.6915 57.7364 17.2887 57.946 16.9482C58.2176 16.5071 59.7827 15.7676 60.4861 15.7483C61.1934 15.7288 61.1653 16.094 60.4025 16.8342C60.0509 17.1755 59.6441 17.5205 59.4987 17.601C59.2538 17.7366 59.2293 17.9214 59.1681 20.0915C59.0963 22.6388 59.1492 22.4723 58.2524 22.9691C58.0288 23.093 57.8458 23.2595 57.8458 23.3391C57.8458 23.5628 58.4954 24.112 58.814 24.1576C59.3148 24.2293 59.1987 24.5745 58.2467 25.8458C57.7353 26.5286 57.3169 27.1365 57.3169 27.1965C57.3169 27.5458 58.5417 26.8637 59.2259 26.1335C59.4395 25.9056 59.7129 25.7191 59.8335 25.7191C60.1002 25.7191 60.4262 26.0619 60.6039 26.5292C60.7191 26.8322 60.6827 26.9259 60.3155 27.2723C60.0845 27.4904 59.464 27.9785 58.9367 28.3574C58.4094 28.7362 57.978 29.1008 57.978 29.1677C57.978 29.5731 59.6396 29.0249 61.0536 28.1531C61.5735 27.8326 62.0972 27.5704 62.2171 27.5704C62.3372 27.5704 63.2414 28.1654 64.2266 28.8927C65.5727 29.8865 66.1179 30.215 66.4207 30.215C66.8833 30.215 68.8895 29.511 69.2838 29.2103L69.5483 29.0085L69.2838 28.8127C69.1384 28.7049 68.8706 28.5855 68.6888 28.5474C67.0609 28.2064 64.2556 27.0943 64.1179 26.7356C64.0779 26.631 64.2867 26.1719 64.5818 25.7151C64.8769 25.2584 65.1183 24.8195 65.118 24.7399C65.1173 24.5502 64.5983 23.6969 64.4076 23.5723C64.3259 23.5189 64.1103 23.474 63.9284 23.4725C63.3354 23.4675 62.6061 23.2034 62.6061 22.9936C62.6061 22.873 62.994 22.6137 63.577 22.3443C64.1109 22.0976 64.6317 21.7942 64.734 21.6703C64.8691 21.5066 64.9204 21.0433 64.9211 19.9787C64.9218 19.1723 64.9731 18.2652 65.0352 17.9631C65.1378 17.4644 65.1195 17.3975 64.8359 17.2377C64.664 17.1407 64.1081 17.031 63.6004 16.9936C62.7559 16.9315 62.6672 16.8968 62.5587 16.5863C62.4652 16.3193 62.507 16.1433 62.7544 15.7626C63.1316 15.182 63.5671 15.0084 64.6461 15.0084C65.9304 15.0084 66.3782 14.537 65.7195 13.8784C65.2875 13.4463 64.3973 13.4483 63.3862 13.8835ZM76.96 14.938C77.2407 15.6099 77.1964 15.9752 76.7879 16.3541C76.299 16.8079 75.8956 16.8841 75.2821 16.6385C74.7094 16.4094 74.5991 16.1639 74.6635 15.2623C74.7044 14.6911 74.7175 14.6759 75.2342 14.5974C75.5251 14.5531 75.9893 14.5085 76.2658 14.4982C76.7213 14.4812 76.7864 14.5224 76.96 14.938ZM84.0387 17.7191C84.0812 18.1555 84.0925 18.5571 84.064 18.6117C83.9757 18.7804 81.7166 18.7271 81.5417 18.5522C81.363 18.3735 81.3311 17.5427 81.493 17.2876C81.6054 17.1107 82.898 16.8724 83.5648 16.9059C83.95 16.9252 83.9637 16.9487 84.0387 17.7191ZM76.8607 17.6794C76.9479 17.7667 77.0194 18.0234 77.0194 18.2498C77.0194 18.9613 75.8615 19.8045 75.2985 19.5032C74.7559 19.2129 74.4859 18.4962 74.7575 18.0675C74.8205 17.9682 75.2213 17.8107 75.6481 17.7174C76.6662 17.495 76.6759 17.4947 76.8607 17.6794ZM63.2876 18.1493C63.3788 18.2404 63.4775 18.6987 63.5074 19.1677C63.5712 20.1672 63.6092 20.1432 61.8789 20.1979C60.8828 20.2295 60.8186 20.2148 60.7803 19.9454C60.7357 19.6328 60.7856 19.6086 61.945 19.3776C63.3601 19.0958 63.3618 18.7108 61.948 18.7108C60.8229 18.7108 60.6227 18.6369 60.6227 18.2211V17.8919L61.8725 17.9377C62.6404 17.9659 63.1861 18.0474 63.2876 18.1493ZM112.34 18.3877C112.162 19.0326 112.364 20.0776 112.792 20.7243C113.071 21.1451 113.195 21.2232 113.59 21.2232C113.999 21.2232 114.082 21.1655 114.249 20.7647C114.568 20.0025 114.494 19.7813 113.614 18.8543C113.16 18.3754 112.717 17.9651 112.631 17.9424C112.545 17.9198 112.414 18.1202 112.34 18.3877ZM120.59 19.1725C120.517 19.1968 119.773 19.3765 118.937 19.5721C118.1 19.7675 117.368 19.973 117.308 20.0287C117.197 20.1331 118.225 21.091 118.449 21.091C118.518 21.091 118.809 20.8792 119.095 20.6203C119.471 20.2804 119.715 20.161 119.971 20.1905C120.297 20.2282 120.326 20.2812 120.337 20.8484C120.345 21.2325 120.432 21.5477 120.569 21.6842C120.796 21.9114 120.858 22.495 120.684 22.7686C120.629 22.8551 120.437 22.9805 120.256 23.0474C119.789 23.2209 117.683 23.4747 115.84 23.5797C114.973 23.6291 114.249 23.729 114.231 23.8018C114.212 23.8745 114.498 24.1924 114.867 24.5083C115.66 25.1886 115.736 25.1878 117.653 24.4789C119.067 23.9558 119.648 23.891 120.097 24.206C120.355 24.3866 120.391 24.528 120.388 25.363C120.384 26.5192 120.229 27.2398 119.886 27.6924C119.666 27.9824 119.532 28.0305 118.985 28.0154C118.614 28.0053 118.017 27.8529 117.573 27.6552L116.804 27.3128L117.096 27.8052C117.554 28.5745 119.218 30.215 119.542 30.215C120.035 30.215 120.868 29.4876 121.237 28.7348C121.499 28.1977 121.615 27.6812 121.717 26.5764C121.967 23.8937 122.097 23.759 124.204 23.9918C125.448 24.1292 126.342 24.0972 126.342 23.9152C126.342 23.8844 126.191 23.5612 126.006 23.1973C125.555 22.3063 125.256 22.1847 124.052 22.4006C122.074 22.7551 122.002 22.7536 121.902 22.3549C121.849 22.1424 121.606 21.8688 121.3 21.6756C121.019 21.4978 120.788 21.2989 120.788 21.2338C120.788 21.1688 121.092 20.8423 121.463 20.5083C122.226 19.8225 122.237 19.5988 121.521 19.2999C121.072 19.1122 120.858 19.0829 120.59 19.1725ZM63.338 20.9736C63.4596 21.3563 63.2201 21.541 62.2668 21.7992C61.2627 22.0714 60.9006 22.0736 60.7988 21.808C60.6834 21.5071 60.9773 21.2798 61.8789 20.9731C62.9095 20.6225 63.2267 20.6225 63.338 20.9736ZM63.1514 23.9488C63.6236 24.3762 63.3296 25.2312 62.5432 25.7171L62.0772 26.0051L61.6387 25.7342C61.3977 25.5852 61.1017 25.3543 60.9813 25.2211C60.7746 24.9928 60.7971 24.9391 61.3758 24.2775C61.9431 23.6291 62.0239 23.5816 62.4464 23.6502C62.6978 23.6909 63.015 23.8253 63.1514 23.9488Z" fill="#122E66"/>
<path d="M95.8073 39.43H93.6047V39.2063H94.293V34.4915H93.6047V34.2678H95.8073V34.4915H95.119V39.2063H95.5836C95.6123 39.2063 95.6409 39.2092 95.6696 39.2149C95.7614 39.2322 95.8073 39.3039 95.8073 39.43Z" fill="#122E66"/>
<path d="M62.8894 39.43H60.9364V39.2063H61.5128L60.8676 37.5372H59.0866L58.4413 39.2063H58.8801C58.9088 39.2063 58.9375 39.2092 58.9661 39.2149C59.0522 39.2264 59.0952 39.2981 59.0952 39.43H57.5551V39.2063H58.0972L60.0158 34.2678H60.403L62.3818 39.2063H62.6657C62.6944 39.2063 62.7231 39.2092 62.7518 39.2149C62.8435 39.2264 62.8894 39.2981 62.8894 39.43ZM60.7643 37.2877L59.9728 35.2314L59.1812 37.2877H60.7643Z" fill="#122E66"/>
<path d="M115.415 38.0621C115.415 38.4177 115.286 38.7246 115.028 38.9827C114.661 39.3383 114.145 39.5161 113.479 39.5161C112.906 39.5161 112.398 39.3699 111.956 39.0773C111.956 39.192 111.951 39.2752 111.939 39.3268C111.911 39.4071 111.827 39.4473 111.69 39.4473V37.6577H111.965C111.971 37.7151 111.976 37.7753 111.982 37.8384C112.114 38.7963 112.596 39.2752 113.428 39.2752C113.64 39.2752 113.835 39.2379 114.013 39.1634C114.391 38.9913 114.581 38.7045 114.581 38.303C114.581 38.1539 114.546 38.0162 114.477 37.89C114.34 37.6491 114.016 37.4139 113.505 37.1845C112.949 36.9321 112.622 36.7773 112.524 36.7199C111.991 36.4159 111.724 36.023 111.724 35.5412C111.724 35.2143 111.842 34.9332 112.077 34.698C112.427 34.3539 112.914 34.1818 113.539 34.1818C114.05 34.1818 114.517 34.2937 114.942 34.5174C114.942 34.46 114.948 34.4112 114.959 34.3711C114.976 34.2736 115.059 34.2248 115.209 34.2248V35.7391H114.933C114.939 35.4121 114.856 35.1368 114.684 34.9131C114.437 34.5862 114.076 34.4227 113.6 34.4227C113.416 34.4227 113.247 34.4543 113.092 34.5174C112.736 34.6608 112.559 34.916 112.559 35.2831C112.559 35.4208 112.59 35.5527 112.653 35.6789C112.785 35.914 113.104 36.1435 113.608 36.3672C114.17 36.6195 114.497 36.7744 114.589 36.8318C115.14 37.1472 115.415 37.5573 115.415 38.0621Z" fill="#122E66"/>
<path d="M51.154 39.43H49.5537C49.5537 39.4014 49.5566 39.3727 49.5623 39.344C49.5795 39.2522 49.6512 39.2063 49.7774 39.2063C50.0126 39.2063 50.1904 39.126 50.3108 38.9654L51.7649 36.9608L50.1216 34.4915H49.5967V34.2678H51.6788V34.4915H51.0594L52.3069 36.3499L53.6491 34.4915H52.9608V34.2678H54.4664C54.455 34.3711 54.3775 34.4456 54.2341 34.4915C54.1997 34.4915 54.1653 34.4915 54.1309 34.4915C53.999 34.503 53.8814 34.5833 53.7781 34.7324L52.4532 36.565L54.2341 39.2063H54.5094C54.5381 39.2063 54.5668 39.2092 54.5955 39.2149C54.6873 39.2322 54.7331 39.3039 54.7331 39.43H52.6424V39.2063H53.2705L51.9197 37.1845L50.4657 39.2063H51.154V39.43Z" fill="#122E66"/>
<path d="M69.6261 34.2678V34.4915H68.9378V39.2063H69.4024C69.4311 39.2063 69.4598 39.2092 69.4885 39.2149C69.5802 39.2322 69.6261 39.3039 69.6261 39.43H67.4666V39.2063H68.1549V35.068L66.2018 39.4817H66.0212L64.1456 35.5928V39.2063H64.6102C64.6388 39.2063 64.6675 39.2092 64.6962 39.2149C64.788 39.2322 64.8339 39.3039 64.8339 39.43H63.1131V39.2063H63.8014V34.4915H63.1131V34.2678H64.4037L66.3653 38.3718L68.1549 34.2678H69.6261Z" fill="#122E66"/>
<path d="M57.2454 39.43H55.0429V39.2063H55.7312V34.4915H55.0429V34.2678H57.2454V34.4915H56.5571V39.2063H57.0217C57.0504 39.2063 57.0791 39.2092 57.1078 39.2149C57.1995 39.2322 57.2454 39.3039 57.2454 39.43Z" fill="#122E66"/>
<path d="M74.2378 35.8337H74.0485L73.9108 35.3949C73.9108 35.3834 73.908 35.372 73.9022 35.3605C73.7244 34.7812 73.4147 34.4915 72.973 34.4915H71.6739V36.6424H73.429V36.8919H71.6739V39.2063H72.973C73.0591 39.2063 73.1422 39.1949 73.2225 39.1719C73.5323 39.0859 73.7617 38.7962 73.9108 38.303L74.0485 37.8642H74.2378L74.1947 39.43H70.1596V39.2063H70.8479V34.4915H70.1596V34.2678H74.1947L74.2378 35.8337Z" fill="#122E66"/>
<path d="M98.9046 39.4731H98.7841C98.6751 39.4731 98.5891 39.453 98.526 39.4128C98.4457 39.3555 98.3424 39.1576 98.2163 38.8192L96.5644 34.4915H96.0653V34.2678H98.0872V34.4915H97.3989L98.939 38.475L100.35 34.4915H99.6617V34.2678H101.107V34.4915H100.677L98.9046 39.4731Z" fill="#122E66"/>
<path d="M78.574 34.4915V34.2678H80.3292V34.4915H79.6409V39.387L79.2279 39.4731L75.8553 35.3003V39.2063H76.3629C76.3916 39.2063 76.4202 39.2092 76.4489 39.2149C76.5407 39.2322 76.5866 39.3039 76.5866 39.43H74.8228V39.2063H75.5111V34.4915H74.8228V34.2678H76.0704L79.2968 38.2513V34.4915H78.574Z" fill="#122E66"/>
<path d="M82.1703 34.4915V34.2678H84.3643V34.4915H83.6846V37.4512C83.6846 37.7953 83.719 38.0936 83.7878 38.346C83.9599 38.9654 84.3901 39.2752 85.0784 39.2752C85.1185 39.2752 85.1615 39.2752 85.2074 39.2752C86.0793 39.2121 86.5152 38.6098 86.5152 37.4684V34.4915H85.8269V34.2678H87.5046V34.4915H86.8163V37.4168C86.8163 37.7609 86.7819 38.0621 86.7131 38.3202C86.4951 39.1174 85.89 39.5161 84.8977 39.5161C83.5498 39.5103 82.8701 38.8393 82.8586 37.5028V34.4915H82.1703Z" fill="#122E66"/>
<path d="M91.4623 34.4915V34.2678H93.2175V34.4915H92.5292V39.387L92.1162 39.4731L88.7436 35.3003V39.2063H89.2512C89.2799 39.2063 89.3085 39.2092 89.3372 39.2149C89.429 39.2322 89.4749 39.3039 89.4749 39.43H87.7111V39.2063H88.3994V34.4915H87.7111V34.2678H88.9587L92.1851 38.2513V34.4915H91.4623Z" fill="#122E66"/>
<path d="M105.495 35.8337H105.306L105.168 35.3949C105.168 35.3834 105.165 35.372 105.159 35.3605C104.982 34.7812 104.672 34.4915 104.23 34.4915H102.931V36.6424H104.686V36.8919H102.931V39.2063H104.23C104.316 39.2063 104.399 39.1949 104.48 39.1719C104.789 39.0859 105.019 38.7962 105.168 38.303L105.306 37.8642H105.495L105.452 39.43H101.417V39.2063H102.105V34.4915H101.417V34.2678H105.452L105.495 35.8337Z" fill="#122E66"/>
<path d="M108.429 39.43H106.226V39.2063H106.915V34.4915H106.226V34.2678H108.842C109.289 34.2678 109.668 34.3711 109.978 34.5776C110.35 34.8357 110.537 35.1798 110.537 35.61C110.537 35.7821 110.502 35.9513 110.434 36.1176C110.239 36.5535 109.866 36.8432 109.315 36.9866L110.692 39.2063H110.976C111.01 39.2063 111.042 39.2092 111.07 39.2149C111.145 39.2264 111.182 39.2981 111.182 39.43H109.84L108.481 37.064H107.741V39.2063H108.429V39.43ZM108.532 34.4915H107.741V36.8145H108.567C108.813 36.8145 109.025 36.7428 109.203 36.5994C109.49 36.3757 109.633 36.0517 109.633 35.6272C109.633 35.4437 109.599 35.2687 109.53 35.1024C109.347 34.6951 109.014 34.4915 108.532 34.4915Z" fill="#122E66"/>
<path d="M118.34 39.43H116.138V39.2063H116.826V34.4915H116.138V34.2678H118.34V34.4915H117.652V39.2063H118.117C118.145 39.2063 118.174 39.2092 118.203 39.2149C118.294 39.2322 118.34 39.3039 118.34 39.43Z" fill="#122E66"/>
<path d="M122.315 39.43H119.855V39.2063H120.672V34.4915H120.276C119.8 34.4973 119.482 34.7926 119.321 35.3777L119.158 35.9886H118.917L118.96 34.2678H123.253L123.288 35.9886H123.047L122.883 35.3777C122.728 34.7926 122.413 34.4973 121.937 34.4915H121.498V39.2063H122.092C122.12 39.2063 122.149 39.2092 122.178 39.2149C122.269 39.2322 122.315 39.3039 122.315 39.43Z" fill="#122E66"/>
<path d="M127.107 39.43H124.888V39.2063H125.585V37.3479L123.976 34.4915H123.52V34.2678H125.55V34.4915H124.896L126.247 36.9694L127.52 34.4915H126.832V34.2678H128.364C128.364 34.2965 128.361 34.3252 128.355 34.3539C128.338 34.4456 128.266 34.4915 128.14 34.4915C127.962 34.503 127.81 34.5833 127.684 34.7324L126.411 37.2705V39.2063H126.875C126.984 39.2178 127.062 39.2924 127.107 39.43Z" fill="#122E66"/>
<path fill-rule="evenodd" clip-rule="evenodd" d="M23.054 19.3595H26.5012V19.1691H23.054V19.3595ZM29.469 19.3595H32.933V19.1691H29.469V19.3595ZM23.1911 21.3989H24.6617V21.2085H23.1911V21.3989ZM31.3509 21.3989H32.7959V21.2085H31.3509V21.3989ZM23.2927 22.9888H25.5573V22.7982H23.2927V22.9888ZM27.1015 22.9888H28.8609V22.7982H27.1015V22.9888ZM30.4183 22.9888H32.6916V22.7982H30.4183V22.9888ZM26.8405 23.8547L25.9593 24.7334H23.6914V24.9238H32.2956V24.7334H29.9234L29.0449 23.8547H28.7757L29.6545 24.7334H26.2285L27.1071 23.8547H26.8405Z" fill="#122E66"/>
<path fill-rule="evenodd" clip-rule="evenodd" d="M38.7837 32.0542L36.9732 30.7364L37.3071 30.2761L38.1948 30.5982C38.2936 30.6326 38.394 30.6705 38.4954 30.7113C38.5975 30.7523 38.7044 30.7974 38.8164 30.8459C38.7172 30.7924 38.6197 30.7356 38.5247 30.6751C38.4296 30.6147 38.3228 30.5407 38.2032 30.4539L37.5324 29.9654L37.821 29.5671L39.6316 30.8849L39.31 31.3286L38.3605 30.9974C38.2612 30.963 38.1602 30.9247 38.0576 30.8827C37.9557 30.8406 37.8504 30.7934 37.742 30.7415C37.886 30.8279 38.0202 30.9121 38.145 30.9932C38.2693 31.074 38.3831 31.1523 38.486 31.2271L39.0735 31.6547L38.7837 32.0542ZM40.3724 26.9867L40.4594 26.4926L40.6381 26.5241C40.7125 26.5374 40.7698 26.5339 40.8108 26.5134C40.8517 26.4935 40.8772 26.4559 40.8868 26.4014C40.8956 26.3508 40.8863 26.3078 40.8586 26.2716C40.8303 26.2359 40.7903 26.2132 40.737 26.2039C40.6908 26.1956 40.6418 26.2017 40.5917 26.2217C40.5408 26.2422 40.4874 26.2767 40.432 26.3262C40.4068 26.3478 40.3701 26.3803 40.3232 26.4236C40.1701 26.5633 40.056 26.6583 39.9805 26.7087C39.9122 26.7561 39.8365 26.7873 39.7535 26.803C39.6703 26.8179 39.5829 26.8177 39.4903 26.8014C39.306 26.7687 39.1725 26.6865 39.0892 26.5547C39.006 26.423 38.9826 26.255 39.0186 26.0505C39.0544 25.8463 39.128 25.7017 39.24 25.6148C39.3517 25.5279 39.501 25.5012 39.6887 25.5343L39.8698 25.5663L39.7868 26.0387L39.6348 26.0119C39.5642 25.9995 39.5104 26.0027 39.4724 26.022C39.4348 26.0415 39.4114 26.078 39.402 26.1318C39.3941 26.1756 39.4026 26.214 39.4276 26.246C39.4524 26.2782 39.4893 26.2985 39.5386 26.3071C39.6208 26.3217 39.7711 26.2355 39.9888 26.0479L40.0032 26.0367L40.0405 26.0044C40.2349 25.8398 40.3706 25.7449 40.4469 25.7196C40.4981 25.7025 40.5525 25.6927 40.6111 25.6892C40.6693 25.6862 40.73 25.6905 40.7938 25.7017C40.9837 25.7353 41.121 25.8199 41.2066 25.9571C41.2919 26.0939 41.3159 26.2687 41.2784 26.4814C41.2413 26.6923 41.1594 26.8433 41.0332 26.9337C40.9071 27.0246 40.7415 27.0518 40.5375 27.0158L40.3724 26.9867ZM40.7887 28.3247L38.6605 27.6319L38.8168 27.1499L40.9452 27.8427L40.7887 28.3247ZM39.3058 29.8732L39.5095 29.415L39.6752 29.4891C39.7444 29.5198 39.8008 29.5302 39.8456 29.5204C39.8898 29.511 39.9237 29.4807 39.9463 29.4302C39.9671 29.383 39.9682 29.3391 39.9501 29.2974C39.9314 29.2559 39.8981 29.2243 39.8488 29.2022C39.8058 29.183 39.757 29.1771 39.7032 29.1843C39.649 29.1916 39.5887 29.2123 39.5229 29.247C39.4935 29.2617 39.4503 29.2844 39.3941 29.3151C39.2119 29.4135 39.0783 29.478 38.9925 29.5087C38.9148 29.538 38.8341 29.5499 38.7496 29.5449C38.6655 29.5395 38.5805 29.518 38.4944 29.4798C38.3236 29.4033 38.214 29.2913 38.165 29.1433C38.116 28.9951 38.134 28.8263 38.2183 28.6367C38.3023 28.4475 38.4088 28.3249 38.5383 28.2678C38.6676 28.2105 38.8191 28.2209 38.9932 28.2983L39.161 28.3734L38.9663 28.8116L38.8256 28.7489C38.7602 28.7196 38.7071 28.7095 38.6655 28.7193C38.6244 28.7292 38.5925 28.7588 38.5706 28.8089C38.5525 28.8492 38.5516 28.8887 38.568 28.9257C38.584 28.963 38.6151 28.9916 38.6608 29.0118C38.7373 29.046 38.9037 28.9987 39.1604 28.8695L39.177 28.8622L39.221 28.8399C39.4493 28.7273 39.6039 28.6681 39.684 28.6619C39.738 28.6577 39.7932 28.6617 39.8508 28.6723C39.9079 28.6836 39.966 28.7023 40.025 28.7287C40.201 28.8073 40.314 28.923 40.3639 29.0764C40.4136 29.2299 40.3946 29.4052 40.3071 29.6027C40.2202 29.7983 40.104 29.9249 39.9597 29.9822C39.8154 30.0398 39.6484 30.0259 39.4591 29.9417L39.3058 29.8732ZM37.5573 33.4846L35.9474 31.9273L36.7343 31.111L37.0456 31.4119L36.6103 31.8636L36.9304 32.1729L37.3143 31.7747L37.6215 32.0718L37.2375 32.4702L37.5976 32.8187L38.046 32.3535L38.3573 32.6547L37.5573 33.4846ZM36.6074 34.3436L35.1101 32.6775L35.4863 32.338L36.9837 34.0043L36.6074 34.3436ZM34.3301 33.9415L34.937 34.8427C34.9776 34.903 35.0172 34.9399 35.0562 34.9535C35.0949 34.9668 35.1362 34.9583 35.1815 34.9279C35.2263 34.8977 35.2493 34.8625 35.2516 34.8215C35.2535 34.7803 35.234 34.7299 35.1935 34.6692L34.5868 33.7681C34.546 33.7078 34.506 33.6705 34.4669 33.6571C34.4276 33.6436 34.3855 33.6518 34.3404 33.6823C34.2965 33.7119 34.274 33.7475 34.2719 33.7887C34.27 33.8299 34.2895 33.8809 34.3301 33.9415ZM33.9517 34.2961C33.8237 34.1057 33.7736 33.9313 33.8016 33.7727C33.8301 33.614 33.9357 33.4727 34.1188 33.3492C34.3036 33.2241 34.474 33.1783 34.6295 33.2116C34.785 33.2449 34.9276 33.3575 35.0568 33.5492L35.5712 34.3134C35.6997 34.5044 35.7509 34.6793 35.7237 34.8379C35.6964 34.9964 35.5908 35.1375 35.4063 35.2622C35.2242 35.3852 35.054 35.4302 34.8957 35.3964C34.7376 35.3625 34.5941 35.2505 34.466 35.0601L33.9517 34.2961ZM32.3416 36.7537L31.485 34.6827L32.2034 34.3843L32.5698 35.0017C32.6154 35.0793 32.6612 35.1617 32.7074 35.2492C32.7532 35.3367 32.8013 35.4323 32.8514 35.5359C32.8092 35.411 32.7735 35.2999 32.7431 35.2036C32.7132 35.1063 32.6911 35.0316 32.6781 34.9785L32.5045 34.2591L33.2194 33.9623L34.076 36.0332L33.6274 36.2198L33.314 35.462C33.2484 35.3036 33.1816 35.1401 33.1141 34.9708C33.0468 34.8017 32.9788 34.6275 32.9095 34.4491C32.9562 34.6398 32.9944 34.7999 33.0253 34.9292C33.0562 35.0583 33.076 35.1415 33.0842 35.1785L33.3536 36.3334L33.0604 36.4553L32.4559 35.494C32.3706 35.3575 32.2952 35.2335 32.2293 35.1233C32.164 35.0137 32.102 34.9083 32.0445 34.8068C32.1156 34.9617 32.1855 35.1193 32.2551 35.2803C32.3245 35.4411 32.398 35.6147 32.4751 35.8012L32.7919 36.5668L32.3416 36.7537ZM30.1392 37.2271L30.2045 34.9481L30.876 34.8433L31.6224 36.9961L31.09 37.079L30.978 36.6884L30.633 36.7423L30.6448 37.1484L30.1392 37.2271ZM30.6285 36.3321L30.869 36.2947L30.6874 35.6299C30.6746 35.5854 30.6621 35.5379 30.6492 35.487C30.636 35.4361 30.617 35.3588 30.592 35.2556C30.5957 35.3159 30.5988 35.3787 30.6018 35.4439C30.6045 35.5092 30.6068 35.5758 30.6093 35.6447L30.6285 36.3321ZM27.5536 36.634L28.0536 36.6603L28.0442 36.8419C28.0402 36.9175 28.0508 36.9742 28.0757 37.0123C28.1005 37.0507 28.1408 37.0713 28.196 37.0742C28.2474 37.0771 28.2885 37.0623 28.321 37.0302C28.3533 36.9977 28.3708 36.9553 28.3736 36.9014C28.376 36.8543 28.364 36.8065 28.3381 36.7588C28.3117 36.7108 28.2711 36.6617 28.2151 36.6126C28.1908 36.5902 28.1541 36.5579 28.1055 36.5167C27.9484 36.3814 27.8404 36.2795 27.781 36.2105C27.726 36.1483 27.6861 36.0771 27.6602 35.9961C27.6352 35.9155 27.6247 35.8284 27.6296 35.7343C27.6396 35.547 27.7047 35.4041 27.8253 35.3052C27.9455 35.2065 28.1092 35.1627 28.316 35.1737C28.5226 35.1844 28.6751 35.2401 28.7748 35.3407C28.8743 35.4414 28.9192 35.5867 28.909 35.7772L28.8996 35.9612L28.4213 35.9361L28.4293 35.782C28.4332 35.7102 28.4234 35.6567 28.3996 35.6215C28.3757 35.5867 28.3365 35.5678 28.2821 35.5647C28.238 35.5625 28.2008 35.5756 28.1724 35.6044C28.1432 35.6327 28.1277 35.6721 28.125 35.722C28.1208 35.8059 28.2245 35.9444 28.4368 36.1383L28.4496 36.1511L28.4863 36.1844C28.673 36.3577 28.7836 36.4809 28.818 36.5537C28.841 36.6025 28.8573 36.6558 28.8679 36.7132C28.8781 36.7708 28.8813 36.8316 28.8781 36.8964C28.8679 37.0892 28.8005 37.2364 28.6754 37.338C28.5501 37.4396 28.38 37.4847 28.1645 37.4735C27.9511 37.4623 27.7916 37.3993 27.6868 37.2847C27.5812 37.1705 27.534 37.0091 27.5448 36.8019L27.5536 36.634ZM25.5178 37.2443L26.1165 35.0447L26.7936 35.102L27.0136 37.3702L26.4765 37.3251L26.4596 36.919L26.1116 36.8895L26.0277 37.2871L25.5178 37.2443ZM26.2037 36.4902L26.446 36.5105L26.4256 35.8215C26.4237 35.7755 26.4226 35.7262 26.4218 35.6737C26.4212 35.6212 26.4208 35.5415 26.4208 35.4353C26.4103 35.4947 26.3986 35.5564 26.3864 35.6206C26.3735 35.6846 26.36 35.7499 26.3464 35.8175L26.2037 36.4902ZM24.2088 36.9155L24.5826 35.146L24.2596 35.0774L24.3488 34.6535L25.4892 34.8958L25.3996 35.3196L25.0764 35.251L24.7026 37.0203L24.2088 36.9155ZM22.6824 36.3663L23.5359 34.2939L24.0039 34.4875L23.1504 36.5599L22.6824 36.3663ZM21.2549 34.7286L21.6797 34.9942L21.5834 35.1486C21.5434 35.2127 21.5253 35.2673 21.5287 35.3129C21.5317 35.3583 21.557 35.3961 21.604 35.4254C21.6474 35.4527 21.6908 35.4599 21.7344 35.4478C21.7781 35.435 21.8141 35.4063 21.8428 35.3604C21.8677 35.3206 21.8805 35.2727 21.8808 35.2187C21.881 35.1636 21.8688 35.1011 21.8439 35.031C21.8335 34.9996 21.817 34.9535 21.7943 34.8937C21.7224 34.6991 21.6773 34.5575 21.6589 34.4684C21.6408 34.3873 21.6404 34.3054 21.657 34.2223C21.674 34.1395 21.7071 34.0583 21.757 33.9783C21.856 33.8193 21.9823 33.7262 22.1354 33.6982C22.2884 33.6702 22.453 33.7115 22.6285 33.8215C22.8039 33.9311 22.9103 34.054 22.9488 34.1905C22.9874 34.3267 22.956 34.4756 22.8551 34.6374L22.7576 34.7937L22.3517 34.5395L22.4333 34.4086C22.4712 34.3476 22.4885 34.2961 22.4848 34.2537C22.4808 34.2115 22.4559 34.1761 22.4096 34.1471C22.372 34.1236 22.3333 34.1171 22.2941 34.1284C22.2552 34.139 22.2228 34.1659 22.196 34.2084C22.1519 34.2795 22.1754 34.451 22.2674 34.7239L22.2724 34.7414L22.288 34.7881C22.3677 35.0305 22.4048 35.1918 22.3999 35.2723C22.3964 35.3262 22.3848 35.3806 22.3663 35.4361C22.3471 35.4913 22.3205 35.5463 22.2864 35.6012C22.1842 35.7651 22.054 35.8609 21.8954 35.8891C21.7368 35.9171 21.566 35.8739 21.3831 35.7595C21.2018 35.6459 21.093 35.5132 21.0565 35.3623C21.0194 35.211 21.0564 35.047 21.1663 34.871L21.2549 34.7286ZM20.408 33.4679C20.4976 33.5359 20.5668 33.5713 20.6156 33.5745C20.6644 33.578 20.7114 33.5518 20.7567 33.4956L20.8362 33.3971C20.8832 33.3388 20.9008 33.2867 20.8898 33.2404C20.8784 33.1945 20.8325 33.1385 20.7519 33.0732L20.737 33.0611L20.408 33.4679ZM19.1781 34.1926L20.5866 32.4502L21.1496 32.9071C21.2951 33.0252 21.38 33.1451 21.4029 33.2663C21.426 33.3878 21.3874 33.5102 21.2871 33.6342L21.2733 33.6511L21.1928 33.751C21.1196 33.8415 21.0452 33.8996 20.9692 33.9244C20.8936 33.9489 20.806 33.9452 20.7071 33.9129C20.764 33.9975 20.788 34.0793 20.7805 34.1579C20.7725 34.2367 20.7303 34.3233 20.6543 34.4171L20.3287 34.8199C20.2909 34.8667 20.2636 34.9063 20.2474 34.9393C20.2308 34.9723 20.2202 35.0039 20.2164 35.0351L19.8188 34.7124C19.824 34.686 19.836 34.6561 19.8557 34.6236C19.8752 34.5908 19.9076 34.546 19.9528 34.4902L20.224 34.1545C20.3008 34.0595 20.3356 33.986 20.3284 33.9342C20.3216 33.8819 20.2733 33.8185 20.1848 33.7443L19.5671 34.5084L19.1781 34.1926ZM17.8279 32.8371L19.4506 31.2939L20.2308 32.1171L19.9168 32.4153L19.4856 31.9601L19.1629 32.2668L19.5436 32.6686L19.234 32.963L18.8533 32.5614L18.4901 32.9067L18.9346 33.3758L18.6208 33.6742L17.8279 32.8371ZM16.7674 31.3867L18.4234 29.8375L18.722 30.2803L18.0088 30.8667C17.9735 30.8951 17.9008 30.9521 17.7908 31.0375C17.6808 31.123 17.5533 31.2206 17.4082 31.331C17.572 31.2388 17.7674 31.1319 17.994 31.0102C18.0328 30.9895 18.0608 30.9745 18.0784 30.9647L18.8908 30.531L19.1831 30.9647L17.1255 31.9179L16.7674 31.3867ZM15.9458 29.9611L17.9573 28.978L18.1791 29.434L16.1677 30.4167L15.9458 29.9611ZM15.136 27.9265L17.2512 27.1942L17.4367 27.7319L16.6645 28.2767C16.58 28.3379 16.4914 28.3987 16.3999 28.4587C16.3077 28.5191 16.2098 28.5812 16.1058 28.6452C16.2066 28.5942 16.309 28.5468 16.4128 28.5033C16.5165 28.4601 16.6384 28.4145 16.7778 28.3662L17.5618 28.0948L17.7223 28.5603L15.6071 29.2924L15.4284 28.7742L16.2429 28.1839C16.3279 28.1222 16.4173 28.0612 16.5104 28.0012C16.6031 27.9415 16.7021 27.882 16.8068 27.8227C16.6536 27.8915 16.5076 27.9532 16.37 28.0095C16.2325 28.0652 16.1034 28.1139 15.9834 28.1556L15.297 28.3932L15.136 27.9265ZM16.9765 26.0271L15.3248 26.2131C15.2517 26.2214 15.2002 26.239 15.1709 26.266C15.1415 26.2932 15.1296 26.3332 15.1356 26.3855C15.1413 26.4388 15.1624 26.4761 15.1981 26.4967C15.2338 26.5177 15.2874 26.5239 15.3586 26.5159L17.0104 26.3299L17.0669 26.834L15.498 27.0108C15.2692 27.0364 15.0909 27.0011 14.9634 26.9044C14.8359 26.8076 14.7602 26.6502 14.7356 26.4308C14.7114 26.214 14.7509 26.0447 14.8544 25.9219C14.958 25.7993 15.1234 25.7254 15.3512 25.6996L16.9202 25.5233" fill="#122E66"/>
<path fill-rule="evenodd" clip-rule="evenodd" d="M31.4122 17.1317L31.6868 17.7002L32.3122 17.7855L31.8562 18.2223L31.9686 18.8435L31.4122 18.5451L30.8559 18.8435L30.9679 18.2223L30.5121 17.7855L31.1375 17.7002L31.4122 17.1317ZM27.9726 25.0088L28.2471 25.5773L28.8727 25.6627L28.4167 26.0997L28.5289 26.7208L27.9726 26.4224L27.4161 26.7208L27.5284 26.0997L27.0724 25.6627L27.698 25.5773L27.9726 25.0088ZM27.9726 25.4032L28.1303 25.7299L28.4897 25.7789L28.2278 26.0299L28.2922 26.3874L27.9726 26.2157L27.6529 26.3874L27.7172 26.0299L27.4553 25.7789L27.8148 25.7299L27.9726 25.4032ZM24.5766 17.1317L24.8511 17.7002L25.4766 17.7855L25.0209 18.2223L25.1329 18.8435L24.5766 18.5451L24.0204 18.8435L24.1324 18.2223L23.6764 17.7855L24.3022 17.7002L24.5766 17.1317ZM24.5766 17.5259L24.7345 17.8527L25.0938 17.9016L24.8319 18.1528L24.8962 18.5099L24.5766 18.3384L24.2569 18.5099L24.3214 18.1528L24.0594 17.9016L24.4186 17.8527L24.5766 17.5259ZM31.4122 17.5259L31.5698 17.8527L31.9292 17.9016L31.6674 18.1528L31.7318 18.5099L31.4122 18.3384L31.0924 18.5099L31.1567 18.1528L30.895 17.9016L31.2543 17.8527" fill="#122E66"/>
<path fill-rule="evenodd" clip-rule="evenodd" d="M32.5011 28.64C32.7124 28.4083 32.7761 28.2066 32.7774 28.0203C32.779 27.7992 32.6651 27.6802 32.5561 27.5506C32.4401 27.413 32.3267 27.2671 32.2606 27.0973C32.2102 26.9687 32.2313 26.7586 32.2968 26.5477C32.4268 26.128 32.8398 25.845 33.2313 25.845H34.2048L34.21 25.3383C34.2172 25.0336 34.054 24.7701 33.9372 24.4898C33.8523 24.2851 33.8027 24.0669 33.8065 23.8395L33.8267 22.6259H33.835C33.9459 22.8035 34.056 22.9797 34.1672 23.1536C34.3059 22.9261 34.6577 22.7639 35.068 22.7639C35.5992 22.7639 36.0323 23.036 36.0323 23.3695C36.0323 23.5528 35.9007 23.7171 35.6947 23.8285V25.0941L35.6948 25.096C35.78 25.1995 35.8591 25.3061 35.9278 25.4171C36.0748 25.6557 36.1531 25.9344 36.1006 26.2197C35.9676 26.9413 34.7504 27.6514 34.7363 28.4002C34.7334 28.5504 34.7422 28.8981 34.727 29.1626C34.7201 29.2826 34.7216 29.3853 34.6913 29.4445C34.6337 29.5573 34.5219 29.58 34.4073 29.556C34.1665 29.5059 33.8456 29.1659 33.6238 29.2242C33.4299 29.2757 33.371 29.4656 33.3387 29.6535C33.29 29.937 33.212 30.2178 33.082 30.4837C32.9585 30.7375 32.8163 30.9295 32.699 31.0626C32.6153 31.1581 32.5409 31.2083 32.4523 31.236C32.364 31.2637 32.2611 31.2691 32.1299 31.2315C29.5179 30.4856 26.4814 30.4859 23.8704 31.2315C23.7392 31.2691 23.6363 31.2637 23.5478 31.236C23.4592 31.2083 23.3849 31.1581 23.3011 31.0626C23.1838 30.9295 23.0417 30.7375 22.9182 30.4837C22.7883 30.2178 22.71 29.937 22.6614 29.6535C22.6292 29.4656 22.5704 29.2757 22.3763 29.2242C22.1545 29.1659 21.8334 29.5059 21.5926 29.556C21.4784 29.58 21.3664 29.5573 21.3088 29.4445C21.2785 29.3853 21.2798 29.2826 21.2731 29.1626C21.2579 28.8981 21.2667 28.5504 21.2638 28.4002C21.2499 27.6514 20.0324 26.9413 19.8993 26.2197C19.8468 25.9344 19.9254 25.6557 20.0724 25.4171C20.1408 25.3061 20.2201 25.1995 20.3054 25.096L20.3056 25.0941V23.8285C20.0993 23.7171 19.968 23.5528 19.968 23.3695C19.968 23.036 20.4009 22.7639 20.9323 22.7639C21.3424 22.7639 21.6942 22.9261 21.8329 23.1536C21.944 22.9797 22.054 22.8035 22.1651 22.6259H22.1732L22.1934 23.8395C22.1972 24.0669 22.1478 24.2851 22.063 24.4898C21.946 24.7701 21.7828 25.0336 21.7902 25.3383L21.7952 25.845H22.7688C23.1601 25.845 23.5732 26.128 23.7035 26.5477C23.7688 26.7586 23.7897 26.9687 23.7395 27.0973C23.6732 27.2671 23.56 27.413 23.4441 27.5506C23.335 27.6802 23.2209 27.7992 23.2227 28.0203C23.224 28.2066 23.2907 28.4131 23.5019 28.6448C26.728 27.9461 29.2401 27.9432 32.5011 28.64ZM32.1049 31.0202C32.195 31.0498 32.2913 31.0544 32.3318 30.9101C32.5179 30.3909 32.2968 29.7403 32.3163 29.2203C32.3216 29.0815 32.3443 28.9517 32.3964 28.8367C29.3824 28.1552 26.6275 28.1557 23.6038 28.8367C23.6558 28.9517 23.6787 29.0815 23.6838 29.2203C23.7035 29.7403 23.4822 30.3909 23.6684 30.9101C23.7089 31.0544 23.8052 31.0498 23.8953 31.0202C26.5096 30.3055 29.4916 30.3058 32.1049 31.0202ZM23.5072 30.996C23.383 30.7482 23.3889 30.396 23.4204 30.0434C23.4529 29.6799 23.5124 29.3154 23.464 29.0648C23.43 28.8898 23.3467 28.8247 23.2516 28.6888C23.0212 28.3591 22.8862 27.9226 23.1494 27.5871C23.3206 27.3683 23.5596 27.1789 23.5612 26.9567C23.5632 26.7047 23.4958 26.1855 22.9259 26.0667L21.7136 26.0608C21.6641 26.2795 21.6134 26.8256 21.7281 27.0216C21.9113 27.3346 22.1441 27.7235 22.1699 28.1888L22.1921 29.0587C22.204 29.0547 22.2158 29.0509 22.2275 29.0475C22.2275 29.0475 22.5697 28.9173 22.7412 29.2719C22.8558 29.5088 22.8601 29.8157 22.9441 30.0739C23.0174 30.3 23.1379 30.5456 23.2825 30.7352C23.3297 30.797 23.4577 30.9751 23.5072 30.996ZM21.5883 26.0179C21.5894 25.925 21.5952 25.4475 21.6065 25.1997C21.6182 24.9535 21.7704 24.7223 21.8742 24.4818C21.9499 24.3063 21.9832 24.1248 22.0014 23.9298C22.0228 23.6971 22.0161 23.4471 22.0161 23.1754C22.0161 23.1754 21.6563 23.7746 21.1355 24.432C20.8683 24.7695 20.4568 25.1279 20.2387 25.4794C20.1102 25.6869 19.9625 26.0698 20.1412 26.3967C20.1931 26.4909 20.2558 26.5819 20.3256 26.6714L20.3209 26.6624C20.3209 26.6624 21.0857 26.6695 21.5883 26.0179ZM20.4779 26.8549C20.8811 27.3151 21.3972 27.7597 21.4491 28.4048C21.4504 28.516 21.4192 29.2664 21.4859 29.3346C21.5164 29.3655 21.575 29.3981 21.6686 29.348C21.6686 29.348 21.8377 29.2261 22.022 29.1327C22.0174 28.9781 22.006 28.6226 21.9879 28.2379C21.9735 27.9333 21.8552 27.5661 21.667 27.2917C21.4976 27.0445 21.4489 26.7058 21.4795 26.4181C21.4795 26.4181 20.9817 26.769 20.4779 26.8549ZM20.5067 24.8653C20.7072 24.6458 20.9196 24.4336 21.0968 24.209C21.182 24.1005 21.2646 23.9906 21.3448 23.8795H20.5067V24.8653ZM21.4918 23.6709C21.5662 23.5621 21.6395 23.4527 21.7115 23.3421C21.6851 23.1136 21.3305 22.9311 20.9323 22.9311C20.5182 22.9311 20.151 23.1283 20.151 23.3695C20.151 23.4837 20.2336 23.5879 20.3644 23.6663C20.4121 23.6861 20.4593 23.6978 20.5067 23.7019H21.4212C21.4502 23.7019 21.4659 23.6855 21.4918 23.6709ZM32.4928 30.996C32.6172 30.7482 32.6113 30.396 32.5796 30.0434C32.5472 29.6799 32.4875 29.3154 32.5363 29.0648C32.57 28.8898 32.6534 28.8247 32.7486 28.6888C32.979 28.3591 33.1137 27.9226 32.8508 27.5871C32.6793 27.3683 32.4403 27.1789 32.439 26.9567C32.4371 26.7047 32.5043 26.1855 33.0744 26.0667L34.2865 26.0608C34.336 26.2795 34.3865 26.8256 34.2721 27.0216C34.0889 27.3346 33.856 27.7235 33.8304 28.1888L33.808 29.0587C33.7963 29.0547 33.7843 29.0509 33.7726 29.0475C33.7726 29.0475 33.4305 28.9173 33.2588 29.2719C33.1444 29.5088 33.14 29.8157 33.056 30.0739C32.9828 30.3 32.8624 30.5456 32.7177 30.7352C32.6705 30.797 32.5425 30.9751 32.4928 30.996ZM34.412 26.0179C34.4108 25.925 34.4051 25.4475 34.3934 25.1997C34.382 24.9535 34.2299 24.7223 34.1259 24.4818C34.0502 24.3063 34.0169 24.1248 33.9987 23.9298C33.9772 23.6971 33.9841 23.4471 33.9841 23.1754C33.9841 23.1754 34.344 23.7746 34.8648 24.432C35.132 24.7695 35.5435 25.1279 35.7614 25.4794C35.89 25.6869 36.0376 26.0698 35.8588 26.3967C35.8068 26.4909 35.7444 26.5819 35.6747 26.6714L35.6792 26.6624C35.6792 26.6624 34.9144 26.6695 34.412 26.0179ZM35.5224 26.8549C35.1192 27.3151 34.6028 27.7597 34.5512 28.4048C34.5497 28.516 34.5811 29.2664 34.5142 29.3346C34.4836 29.3655 34.4252 29.3981 34.3316 29.348C34.3316 29.348 34.1624 29.2261 33.9782 29.1327C33.9827 28.9781 33.9939 28.6226 34.0121 28.2379C34.0265 27.9333 34.1451 27.5661 34.3329 27.2917C34.5027 27.0445 34.5513 26.7058 34.5206 26.4181C34.5206 26.4181 35.0185 26.769 35.5224 26.8549ZM35.4932 24.8653C35.2929 24.6458 35.0804 24.4336 34.9035 24.209C34.8179 24.1005 34.7355 23.9906 34.6555 23.8795H35.4932V24.8653ZM34.5084 23.6709C34.4337 23.5621 34.3606 23.4527 34.2886 23.3421C34.315 23.1136 34.6697 22.9311 35.068 22.9311C35.482 22.9311 35.8491 23.1283 35.8491 23.3695C35.8491 23.4837 35.7665 23.5879 35.6356 23.6663C35.5881 23.6861 35.5406 23.6978 35.4932 23.7019H34.579C34.55 23.7019 34.534 23.6855 34.5084 23.6709Z" fill="#122E66"/>
<path fill-rule="evenodd" clip-rule="evenodd" d="M30.2471 20.4354V19.9735H30.4956V20.4354H30.9912V19.9735H31.2533V20.6759H29.2922V20.2895H29.4772V19.9735H29.7512V20.4354H30.2471ZM28.0468 21.5639C28.1368 21.5698 28.2234 21.5876 28.3053 21.6162L28.4072 21.3362C28.3003 21.2998 28.1877 21.2769 28.0708 21.2692H28.0468V21.5639ZM28.4192 21.6641C28.4936 21.7007 28.5624 21.747 28.6248 21.8002L28.8418 21.5834C28.746 21.5017 28.6384 21.4332 28.5223 21.3812L28.4192 21.6641ZM28.7138 21.8862C28.7512 21.9276 28.7855 21.9721 28.8157 22.0193L29.1335 21.9343C29.0775 21.8372 29.0096 21.7476 28.932 21.6679L28.7138 21.8862ZM28.8773 22.1308C28.9074 22.1942 28.9308 22.2615 28.9468 22.3314H29.25V22.2426C29.25 22.1801 29.2111 22.0902 29.1914 22.0466L28.8773 22.1308ZM28.8536 22.5468C28.8536 22.0095 28.4076 21.6748 27.9816 21.6748C27.5559 21.6748 27.1096 22.0127 27.1096 22.5468V23.7642H28.8535L28.8536 22.5468ZM27.0168 22.3314C27.0327 22.2626 27.0556 22.1964 27.0848 22.1337L26.7708 22.0497C26.7516 22.0921 26.7132 22.1788 26.7132 22.2426V22.3314H27.0168ZM27.1463 22.0223C27.1754 21.9764 27.208 21.933 27.2439 21.8929L27.0252 21.6743C26.9493 21.753 26.8831 21.8415 26.8285 21.9372L27.1463 22.0223ZM27.3319 21.806C27.393 21.7527 27.4608 21.7065 27.5336 21.6692L27.4306 21.3862C27.3157 21.439 27.2096 21.5076 27.1151 21.5894L27.3319 21.806ZM27.6471 21.6201C27.7343 21.5886 27.8268 21.569 27.9231 21.5634V21.2692H27.8928C27.7719 21.2774 27.6554 21.3015 27.5453 21.3401L27.6471 21.6201ZM28.5612 21.2692C28.778 21.3646 28.9674 21.5118 29.1135 21.6948V21.2692H28.5612ZM29.2293 21.8639C29.2768 21.9442 29.3168 22.0297 29.3479 22.119H29.6258V21.8639H29.2293ZM26.6157 22.119C26.6469 22.0297 26.6866 21.9442 26.734 21.8639H26.3404V22.119H26.6157ZM26.8424 21.7046C26.9893 21.5167 27.1818 21.3662 27.4024 21.2692H26.8424V21.7046ZM29.25 22.4551H28.977V22.6897H29.25V22.4551ZM29.25 22.8132H28.977V23.0479H29.25V22.8132ZM29.25 23.1714H28.977V23.406H29.25V23.1714ZM29.25 23.5297H28.977V23.7642H29.25V23.5297ZM26.986 22.4551H26.7132V22.5911H26.7141V22.6897H26.986V22.4551ZM26.986 22.8132H26.7132V23.0479H26.986V22.8132ZM26.986 23.1714H26.7141V23.2714H26.7132V23.406H26.986V23.1714ZM26.986 23.5297H26.7132V23.7642H26.986V23.5297ZM26.25 23.1479H26.5895V22.7148H26.25V23.1479ZM26.1264 22.7148H25.672V23.1479H26.1264V22.7148ZM26.0186 23.7642H26.5895V23.2716H26.0186V23.7642ZM25.8951 23.2714H25.6722V23.7641H25.8951V23.2714ZM26.0186 22.5911H26.5895V22.2425H26.0186V22.5911ZM25.8951 22.2426H25.6722V22.5913H25.8951V22.2426ZM26.2168 21.8639H25.6722V22.1191H26.2168V21.8639ZM26.7189 21.2692H26.0186V21.7402H26.7189V21.2692ZM25.8951 21.2692H25.2479V21.7402H25.8951V21.2692ZM25.1242 21.2692H24.7439V21.7402H25.1242V21.2692ZM31.2533 21.2692H30.8317V21.7402H31.2533V21.2692ZM30.708 21.2692H30.0608V21.7402H30.708V21.2692ZM29.9372 21.2692H29.237V21.7402H29.9372V21.2692ZM24.7439 21.1455H25.0058V20.7996H24.7439V21.1455ZM25.1296 21.1455H25.6013V20.7996H25.1296V21.1455ZM25.7248 21.1455H26.1223V20.7996H25.7248V21.1455ZM26.2458 21.1455H27.0895V20.7996H26.2458V21.1455ZM27.2133 21.1455H27.9232V20.7996H27.2133V21.1455ZM28.0468 21.1455H28.7567V20.7996H28.0468V21.1455ZM28.8804 21.1455H29.72V20.7996H28.8804V21.1455ZM29.8437 21.1455H30.241V20.7996H29.8437V21.1455ZM30.3645 21.1455H30.8362V20.7996H30.3645V21.1455ZM30.96 21.1455H31.2533V20.7996H30.96V21.1455ZM30.4271 23.8879H25.5485V21.8639H24.6204V19.8498H25.1296V20.3118H25.378V19.8498H25.8738V20.3118H26.1224V19.8498L26.4928 19.85L26.493 18.8086H27.0252V19.287H27.3103V18.8086H27.8424V19.287H28.1274V18.8086H28.6597V19.287H28.9447V18.8086L29.4772 18.8087V19.85H29.7512L29.8749 19.8498V20.3118H30.1234V19.8498H30.6192V20.3118H30.8677V19.8498H31.3768V21.8638H30.4271V23.8879ZM30.3034 21.8639H29.7493V22.1191H30.3034V21.8639ZM26.4928 19.9735H26.246V20.4354L25.8738 20.4353L25.75 20.4354V19.9735H25.5016V20.4354H25.0058V19.9735H24.7439V20.6759H26.6776V20.2895H26.4928V19.9735ZM26.8015 20.2897H27.5082V20.6761H26.8015V20.2897ZM27.6317 20.2897H28.3383V20.6761H27.6317V20.2897ZM28.4621 20.2897H29.1687V20.6761H28.4621V20.2897ZM29.3736 23.7642H29.9474V23.2716H29.3736V23.7642ZM30.0711 23.7642H30.3034V23.2716H30.0711V23.7642ZM29.3535 18.9322V19.5628H26.6165V18.9322H26.9015V19.4108H27.4338L27.4336 18.9322H27.7189V19.4108H28.2511V18.9322H28.5362V19.4108H29.0687V18.9322H29.3535ZM26.6165 19.6863H27.1631V20.1658H26.6165V19.6863ZM27.2866 19.6863H27.9463V20.1658H27.2866V19.6863ZM28.07 19.6863H28.7295V20.1658H28.07V19.6863ZM28.8532 19.6863H29.3535V20.1658H28.8532V19.6863ZM30.3034 22.7148H29.8397V23.1479H30.3034V22.7148ZM30.3034 22.2426H30.0711V22.5913H30.3034V22.2426ZM29.7162 23.1479H29.3736V22.7148H29.7162V23.1479ZM29.9474 22.2426V22.5911H29.3736V22.2426" fill="#122E66"/>
<path fill-rule="evenodd" clip-rule="evenodd" d="M24.471 16.2411L21.9136 18.4659C22.6235 18.5479 23.0978 19.3211 23.0997 19.9897L23.1046 21.5337C23.108 22.9132 23.1575 25.3567 24.6615 25.963C24.932 26.0719 26.3256 26.3991 26.9979 26.7299C27.796 27.1516 27.8827 27.4927 27.9984 27.5579C28.1142 27.4927 28.1984 27.1516 28.9965 26.7299C29.6688 26.3991 31.0623 26.0719 31.333 25.963C32.837 25.3567 32.8864 22.9132 32.8896 21.5337L32.8947 19.9897C32.8965 19.3211 33.3707 18.5479 34.0808 18.4659L31.5234 16.2411C30.3087 16.9958 29.4894 17.3434 27.9984 17.3434C26.5074 17.3434 25.6858 16.9958 24.471 16.2411ZM24.509 16.5764C25.6469 17.283 26.6024 17.582 27.9984 17.582C29.3944 17.582 30.3475 17.283 31.4853 16.5764L33.5856 18.3617C33.5376 18.3537 33.0024 18.6334 32.7499 19.4107C32.6485 19.7235 32.6408 20.1116 32.6459 20.5027C32.6506 20.8702 32.6374 21.2406 32.6408 21.554C32.621 22.8379 32.6136 25.1191 31.2339 25.7294C30.9789 25.8319 29.6503 26.134 29.0168 26.4454C28.2522 26.8214 28.139 27.0409 27.9984 27.1313C27.8579 27.0409 27.7421 26.8214 26.9776 26.4454C26.344 26.134 25.0155 25.8319 24.7605 25.7294C23.3808 25.1191 23.3734 22.8379 23.3536 21.554C23.3568 21.2406 23.3437 20.8702 23.3485 20.5027C23.3536 20.1116 23.3459 19.7235 23.2443 19.4107C22.992 18.6334 22.4567 18.3537 22.4088 18.3617L24.509 16.5764Z" fill="#122E66"/>
<path fill-rule="evenodd" clip-rule="evenodd" d="M28 8C36.8125 8 44 15.1875 44 24C44 32.8125 36.8125 40 28 40C19.1875 40 12 32.8125 12 24C12 15.1875 19.1875 8 28 8ZM28 9.37904C36.053 9.37904 42.621 15.9472 42.621 24C42.621 32.0528 36.053 38.621 28 38.621C19.9472 38.621 13.379 32.0528 13.379 24C13.379 15.9472 19.9472 9.37904 28 9.37904ZM28 9.70368C35.8742 9.70368 42.2966 16.1259 42.2966 24C42.2966 31.8742 35.8742 38.2963 28 38.2963C20.1258 38.2963 13.7037 31.8742 13.7037 24C13.7037 16.1259 20.1258 9.70368 28 9.70368ZM28 14.0843C33.4613 14.0843 37.9157 18.5386 37.9157 24C37.9157 29.4614 33.4613 33.9158 28 33.9158C22.5387 33.9158 18.0843 29.4614 18.0843 24C18.0843 18.5386 22.5387 14.0843 28 14.0843ZM28 14.3646C33.3069 14.3646 37.6354 18.6931 37.6354 24C37.6354 29.307 33.3069 33.6354 28 33.6354C22.6931 33.6354 18.3646 29.307 18.3646 24C18.3646 18.6931 22.6931 14.3646 28 14.3646ZM28 8.73024C36.4106 8.73024 43.2698 15.5898 43.2698 24C43.2698 32.4102 36.4106 39.2698 28 39.2698C19.5896 39.2698 12.7302 32.4102 12.7302 24C12.7302 15.5898 19.5896 8.73024 28 8.73024Z" fill="#122E66"/>
<path fill-rule="evenodd" clip-rule="evenodd" d="M16.0958 20.5188L16.4453 21.4076L17.3205 21.0262L16.939 21.9014L17.8277 22.2505L16.939 22.5999L17.3205 23.4751L16.4453 23.0939L16.0958 23.9822L15.7466 23.0937L14.8715 23.4751L15.2526 22.5998L14.3642 22.2505L15.2528 21.9014L14.8715 21.0262L15.7467 21.4075L16.0958 20.5188ZM39.9507 20.5188L40.3 21.4076L41.1752 21.0262L40.7939 21.9014L41.6824 22.2505L40.7938 22.5999L41.1752 23.4751L40.3 23.0939L39.9507 23.9822L39.6014 23.0937L38.7261 23.4751L39.1075 22.5998L38.219 22.2505L39.1077 21.9014L38.7261 21.0262L39.6014 21.4075" fill="#122E66"/>
<path fill-rule="evenodd" clip-rule="evenodd" d="M30.5745 10.5373C30.5609 10.5388 30.5455 10.5461 30.5311 10.5577C30.5154 10.5713 30.5151 10.5983 30.5287 10.6362C30.5433 10.745 30.5431 10.8501 30.5287 10.9513C30.5255 11.0365 30.5068 11.1487 30.4703 11.2865C30.3447 11.7645 30.2263 12.1319 30.1174 12.3913C30.0247 12.6458 29.9036 12.8876 29.749 13.1125C29.6975 13.1839 29.669 13.2538 29.6652 13.3207C29.6636 13.4341 29.6737 13.517 29.6958 13.5671C29.7206 13.6202 29.7538 13.629 29.7948 13.5949C29.8505 13.5642 29.9006 13.5042 29.9446 13.4146C30.0446 13.2305 30.1273 13.0322 30.1935 12.8255C30.2714 12.5668 30.3505 12.3113 30.4297 12.0559C30.4506 11.9844 30.4708 11.9133 30.4906 11.8452C30.5023 11.8485 30.5138 11.8519 30.5287 11.8527C30.6332 11.8553 30.7967 11.878 31.0188 11.9239C31.0185 11.9356 31.026 11.9585 31.0391 11.99C31.0766 12.0965 31.1351 12.1196 31.2145 12.0585C31.2754 12.0177 31.3161 11.9677 31.3364 11.9087C31.3881 11.7626 31.4439 11.6101 31.5039 11.4541C31.5561 11.3177 31.6228 11.2119 31.7071 11.1341C31.7593 11.0927 31.7727 11.0439 31.745 10.9893C31.7034 10.9313 31.6449 10.8661 31.5724 10.7962C31.5314 10.7655 31.4868 10.7553 31.4378 10.7633C31.2382 10.7793 31.0313 10.7775 30.8182 10.7556C30.8159 10.7525 30.8118 10.7461 30.8055 10.738C30.7511 10.6572 30.6857 10.593 30.6124 10.5476C30.5996 10.5389 30.5881 10.5357 30.5745 10.5373ZM32.2378 10.7938C32.2298 10.7922 32.2214 10.793 32.2124 10.7962C32.1895 10.8021 32.1833 10.8271 32.1921 10.87C32.2102 10.9805 32.2065 11.0989 32.182 11.2281C32.1401 11.4141 32.0878 11.6007 32.0246 11.7868C31.9969 11.8746 31.9878 11.9676 31.9967 12.0661C32.0041 12.1365 32.0186 12.1834 32.0423 12.2082C32.0828 12.2413 32.1191 12.2193 32.154 12.1399C32.1566 12.1311 32.1599 12.1253 32.1617 12.1196C32.1812 12.1281 32.2078 12.1351 32.243 12.1423C32.3812 12.1543 32.5959 12.1978 32.883 12.2743C32.6982 12.9578 32.5246 13.5287 32.3623 13.9836C32.3372 14.0604 32.3089 14.1127 32.2785 14.141C32.2569 14.153 32.2194 14.1425 32.1694 14.113C32.0969 14.0733 32.0274 14.034 31.9559 13.9913C31.9017 13.9541 31.8698 13.949 31.8646 13.9785C31.9847 14.1741 32.0761 14.3389 32.1362 14.4738C32.1554 14.5441 32.1879 14.5927 32.2327 14.6185C32.258 14.6378 32.2855 14.638 32.3166 14.6159C32.3663 14.5836 32.4311 14.5298 32.5097 14.4533C32.5692 14.3842 32.6102 14.3007 32.6314 14.2045C32.7732 13.5733 32.9868 12.7561 33.2714 11.7487C33.3188 11.5737 33.3738 11.4521 33.4366 11.3829C33.4895 11.3396 33.502 11.2933 33.4746 11.2484C33.4273 11.1759 33.3548 11.1007 33.2537 11.0223C33.2055 10.9861 33.155 10.9719 33.1039 10.9793C32.9724 11.0061 32.8689 11.0193 32.794 11.0199C32.7087 11.0165 32.5865 11.0047 32.4284 10.9842C32.3814 10.9113 32.3249 10.8527 32.2607 10.8065C32.2532 10.7996 32.2458 10.7953 32.2378 10.7938ZM30.8742 10.8826C30.9876 10.8877 31.0846 10.8941 31.1636 10.898C31.2772 10.9029 31.349 10.9223 31.382 10.9562C31.4025 10.9812 31.3994 11.0341 31.3718 11.1189C31.29 11.3585 31.2118 11.5789 31.1358 11.7765C31.1252 11.8044 31.1122 11.8261 31.0951 11.8426C31.0809 11.8172 31.0556 11.7865 31.0188 11.7513C30.9822 11.7193 30.9206 11.7036 30.8335 11.7029C30.7287 11.7036 30.6276 11.705 30.5338 11.7055C30.5666 11.5914 30.601 11.489 30.6354 11.4033C30.7836 11.4149 30.9137 11.4305 31.0241 11.4465C31.0916 11.4476 31.1145 11.4277 31.0951 11.3879C31.0774 11.3425 31.0348 11.3058 30.9655 11.2762C30.9034 11.2551 30.8135 11.2476 30.6938 11.2533C30.6908 11.2556 30.6874 11.2564 30.6838 11.2586C30.7473 11.0789 30.7956 10.9551 30.8308 10.8852C30.8436 10.8858 30.8585 10.8845 30.8742 10.8826ZM22.9278 11.0756C22.8735 11.0807 22.8276 11.0993 22.7906 11.129C22.7314 11.1777 22.7404 11.2191 22.8161 11.2559C22.9447 11.3181 23.0273 11.4007 23.0623 11.5023C23.1846 11.8509 23.2793 12.1612 23.3442 12.4319C23.0671 12.5877 22.7726 12.7509 22.4604 12.9245C22.3964 12.9586 22.3996 12.9933 22.4706 13.0261C22.5279 13.0468 22.5887 13.0561 22.6508 13.0541C22.722 13.0423 22.7785 13.0213 22.821 12.9906C22.9887 12.8634 23.1788 12.741 23.3874 12.6249C23.3932 12.6511 23.3988 12.6786 23.4026 12.7085C23.466 13.0121 23.475 13.2879 23.4306 13.5365C23.4079 13.717 23.3505 13.8991 23.2554 14.0826C23.173 14.2628 23.0177 14.4908 22.7881 14.7682C22.7532 14.8029 22.7326 14.8298 22.7297 14.8471C22.719 14.8724 22.7425 14.8786 22.8007 14.8649C22.8454 14.8495 22.9458 14.7733 23.0978 14.6388C23.2068 14.5449 23.3287 14.3954 23.4636 14.1919C23.5641 14.0338 23.6338 13.8693 23.6743 13.6941C23.7222 13.4951 23.7356 13.262 23.7124 12.9956C23.7054 12.9474 23.6999 12.898 23.6946 12.8458C23.7919 12.9357 23.9974 13.1026 24.3143 13.3461C24.6626 13.6079 24.9578 13.8023 25.1956 13.9353C25.307 14.0034 25.4014 14.026 25.4801 13.9988C25.7047 13.9018 25.918 13.8138 26.1175 13.7322C26.2039 13.6993 26.2446 13.6706 26.2369 13.6482C26.2308 13.6212 26.1729 13.6031 26.0642 13.59C25.9246 13.5781 25.7774 13.5665 25.6223 13.5569C25.4377 13.5511 25.286 13.5273 25.1676 13.4858C25.0086 13.4365 24.7767 13.3258 24.4718 13.153C24.1297 12.9653 23.8604 12.801 23.6642 12.6605C23.6567 12.6033 23.647 12.5469 23.6364 12.4876C23.8934 12.3482 24.242 12.1885 24.6801 12.0127C24.7473 11.9897 24.8119 11.966 24.873 11.9417C24.9342 11.9173 24.9655 11.8908 24.9697 11.8578C24.9686 11.817 24.9359 11.7829 24.8706 11.7589C24.7561 11.7287 24.6601 11.7161 24.5836 11.7207C24.5183 11.7237 24.4593 11.7457 24.4033 11.7842C24.2074 11.9113 23.9372 12.0789 23.5958 12.2845C23.5647 12.1692 23.534 12.0541 23.5017 11.9417C23.4714 11.8447 23.4473 11.7564 23.4281 11.6749C23.3862 11.5444 23.3633 11.3927 23.362 11.2229C23.3658 11.1805 23.3494 11.1516 23.3087 11.1341C23.229 11.1017 23.1218 11.0829 22.9862 11.0756C22.9662 11.0746 22.9458 11.0741 22.9278 11.0756ZM32.4436 11.1365C32.4647 11.1396 32.4914 11.1415 32.5223 11.1417C32.6791 11.1561 32.8351 11.1647 32.9921 11.1697C33.0583 11.1761 33.093 11.1973 33.0986 11.233C33.1044 11.3092 33.0998 11.4013 33.081 11.51C33.027 11.7298 32.9702 11.9428 32.9134 12.15C32.8999 12.1333 32.8838 12.1127 32.865 12.089C32.8281 12.0473 32.7639 12.0237 32.6697 12.0178C32.5015 12.0098 32.3471 11.9961 32.2074 11.9746C32.2154 11.9365 32.2239 11.8943 32.2303 11.8503C32.2502 11.7815 32.2708 11.7065 32.2937 11.6268C32.2967 11.6276 32.3042 11.6303 32.3191 11.6343C32.4959 11.6639 32.6486 11.6893 32.7762 11.7079C32.8425 11.7145 32.871 11.6959 32.8575 11.6546C32.8398 11.609 32.7983 11.5721 32.733 11.5405C32.6724 11.5141 32.5815 11.5005 32.4614 11.4999C32.4132 11.5047 32.3692 11.5108 32.3266 11.5175C32.3673 11.3772 32.4052 11.2492 32.4436 11.1365ZM38.117 14.9029C38.0921 14.901 38.0711 14.9153 38.0535 14.9461C38.017 15.0476 37.9287 15.1442 37.7868 15.2356C37.222 15.5823 36.7721 15.8071 36.4383 15.9085L36.4028 15.9188C36.0841 16.009 35.6958 16.066 35.2396 16.0889C35.2146 16.0873 35.1921 16.0895 35.1735 16.0965C35.1426 16.1093 35.1401 16.1285 35.166 16.1498C35.2374 16.2189 35.4849 16.2396 35.9102 16.2159C36.007 16.2052 36.1106 16.1919 36.2199 16.1753C36.6974 16.0757 37.1868 15.877 37.6878 15.581C37.8351 15.4924 37.9966 15.4133 38.1703 15.3423C38.1985 15.4261 38.3042 15.5623 38.4878 15.7511C38.7033 15.9604 38.9226 16.1775 39.1455 16.4012C39.2751 16.5217 39.3558 16.5855 39.3894 16.5943C39.4191 16.6026 39.4391 16.5956 39.4503 16.5741C39.4668 16.5415 39.4617 16.4924 39.4351 16.4242C39.405 16.3517 39.2809 16.2308 39.0591 16.0636C38.7074 15.7525 38.4361 15.4834 38.249 15.2533C38.2426 15.2447 38.2345 15.2361 38.2238 15.2305C38.2313 15.0626 38.206 14.9565 38.1449 14.9105C38.1359 14.9061 38.1252 14.9036 38.117 14.9029ZM17.4727 14.941C17.4244 14.9333 17.3263 14.9737 17.1756 15.0604C17.1343 15.0884 17.1063 15.1193 17.0943 15.1569C17.0449 15.2956 16.983 15.4476 16.9091 15.6089C16.8788 15.6581 16.8858 15.6818 16.9266 15.6826C16.9686 15.673 17.0108 15.6522 17.0537 15.6217C17.1009 15.5839 17.13 15.5399 17.1401 15.4895C17.1639 15.4269 17.1871 15.3604 17.2111 15.2916C17.2178 15.2741 17.2257 15.2657 17.234 15.2636C17.2631 15.2498 17.3052 15.2629 17.361 15.3042C17.4087 15.3469 17.4583 15.3954 17.5082 15.4465C17.4804 15.4509 17.4529 15.4685 17.4244 15.4972C17.3852 15.5396 17.3454 15.6095 17.3076 15.713C17.293 15.7708 17.2794 15.8289 17.262 15.8858C17.2446 15.9199 17.2657 15.9316 17.3279 15.9162C17.3447 15.9122 17.3591 15.8962 17.3762 15.8679C17.4545 15.7333 17.5231 15.6161 17.5794 15.5175C17.6322 15.574 17.6943 15.6362 17.7623 15.7029C17.741 15.7141 17.7215 15.7309 17.7014 15.7538C17.6636 15.798 17.629 15.8709 17.5972 15.9746C17.5822 16.0393 17.5687 16.1005 17.559 16.1575C17.5466 16.1956 17.5671 16.2021 17.6226 16.1804C17.6388 16.1759 17.6574 16.1569 17.6734 16.1245C17.7385 15.9953 17.7929 15.8831 17.841 15.7868C17.9124 15.8653 17.993 15.9477 18.0796 16.0356C18.0481 16.0937 18.0206 16.1561 17.9959 16.2185C17.8578 16.5026 17.6889 16.8717 17.4879 17.3282C17.4818 17.3383 17.478 17.3479 17.4777 17.3588C17.345 17.3127 17.2255 17.2711 17.1172 17.2292C17.1185 17.2273 17.1198 17.2242 17.1198 17.2242C17.1738 17.0954 17.2207 16.9802 17.262 16.8788C17.2809 16.8239 17.2698 16.7988 17.229 16.8026C17.1878 16.8125 17.145 16.8413 17.102 16.8889C17.0698 16.9356 17.043 17.0117 17.0207 17.1175C17.0164 17.1465 17.0166 17.1721 17.0182 17.1911C16.9639 17.1716 16.9153 17.1509 16.8734 17.1327C16.8351 17.1202 16.8038 17.1074 16.7743 17.0921C16.822 16.9389 16.8646 16.8084 16.9039 16.6985C16.9214 16.6461 16.9118 16.622 16.8734 16.6274C16.8332 16.6343 16.7954 16.6633 16.7591 16.7111C16.7265 16.7586 16.7041 16.8293 16.6906 16.9271C16.6857 16.9689 16.6809 17.0111 16.6778 17.0514C16.6278 17.0245 16.5937 17.0065 16.5737 16.9981C16.5438 16.9796 16.5151 16.9722 16.4924 16.9753C16.491 16.9081 16.4905 16.8493 16.4874 16.8026C16.4847 16.7553 16.4834 16.7077 16.4823 16.6578C16.469 16.6047 16.465 16.5489 16.4721 16.4901C16.4796 16.4383 16.4596 16.4106 16.4111 16.4089C16.363 16.4145 16.3095 16.4367 16.2511 16.4749C16.1958 16.5084 16.1638 16.5381 16.1574 16.5665C16.1442 16.5937 16.1535 16.6087 16.185 16.6146C16.2234 16.6271 16.2558 16.661 16.2791 16.7138C16.3097 16.7565 16.3338 16.8015 16.3553 16.8533C16.3722 16.8988 16.3908 16.9457 16.4111 16.993C16.3436 17.029 16.2889 17.0759 16.2436 17.1327C16.2153 17.1612 16.2055 17.1903 16.213 17.2191C16.2199 17.2476 16.2442 17.2613 16.2894 17.2572C16.4028 17.249 16.517 17.2527 16.6321 17.2698C16.7375 17.2927 16.9961 17.373 17.4066 17.5111C17.3497 17.6274 17.2935 17.7393 17.2391 17.8465C17.2327 17.8569 17.2318 17.8658 17.234 17.8743C17.2298 17.8753 17.2241 17.874 17.2162 17.8692C17.1444 17.8604 17.0884 17.8639 17.0487 17.8818C16.9911 17.9025 16.9924 17.934 17.0511 17.9759C17.0679 17.9825 17.0866 17.994 17.107 18.0065C17.154 18.0385 17.1873 18.0753 17.206 18.1181C17.2426 18.1969 17.275 18.2895 17.305 18.3949C17.3169 18.4337 17.3521 18.4653 17.4094 18.4865C17.4844 18.5178 17.5466 18.5321 17.5998 18.5321C17.6839 18.5385 17.7082 18.4967 17.6708 18.4076C17.638 18.3345 17.5858 18.2593 17.5134 18.1765C17.4263 18.0777 17.3596 17.993 17.3153 17.9276C17.4151 17.8906 17.4818 17.8252 17.5134 17.7321C17.581 17.5004 17.6618 17.2713 17.7546 17.0439C17.8633 16.7903 18.0135 16.4689 18.2017 16.0788C18.3161 15.8396 18.3954 15.6951 18.443 15.6471C18.4906 15.6204 18.5234 15.6133 18.5393 15.6268C18.5514 15.6305 18.5663 15.6506 18.5876 15.6852C18.6329 15.7549 18.6809 15.8244 18.7273 15.8985C18.75 15.9364 18.7692 15.9508 18.7882 15.9417C18.8095 15.9303 18.8201 15.8969 18.8212 15.8375C18.826 15.6509 18.8518 15.4941 18.8975 15.3676C18.9305 15.2618 18.9377 15.2026 18.9153 15.1925C18.8881 15.1793 18.7479 15.2199 18.4962 15.3119C18.4254 15.3351 18.3724 15.3791 18.3386 15.4465C18.283 15.5599 18.2289 15.681 18.1762 15.8071C17.8354 15.469 17.6214 15.2055 17.5337 15.0146C17.5262 14.9753 17.5052 14.9511 17.4727 14.941ZM37.9798 15.6242C37.97 15.629 37.9633 15.6452 37.9594 15.6698C37.9551 15.7644 37.9961 15.8434 38.0814 15.9085C38.1415 15.9487 38.205 16.002 38.2694 16.0661C38.2218 16.1114 38.1138 16.1559 37.9494 16.2033C37.902 16.1436 37.8558 16.0901 37.8071 16.0381C37.8081 15.9937 37.7988 15.95 37.7818 15.9085C37.7726 15.8917 37.7582 15.8823 37.7385 15.8833C37.7282 15.8876 37.7166 15.9021 37.7055 15.9239C37.575 16.1218 37.3786 16.273 37.1138 16.381C37.0626 16.3986 37.0238 16.4233 36.9996 16.4546C36.9583 16.5087 36.9361 16.5549 36.931 16.5892C36.9204 16.6207 36.9318 16.6362 36.9665 16.6375C36.9818 16.6399 37.0017 16.6359 37.0225 16.6274C37.0346 16.6621 37.0546 16.6989 37.0858 16.7365C36.9132 16.8642 36.5999 16.8793 36.1462 16.7823C36.1391 16.7773 36.1308 16.7741 36.1209 16.7746C35.989 16.7473 35.7826 16.6804 35.5012 16.5741C35.4812 16.5652 35.4745 16.5721 35.4809 16.5943C35.5842 16.7341 35.8465 16.8561 36.2682 16.9599C36.2785 16.9557 36.2911 16.9575 36.3038 16.9652C36.4193 16.9844 36.5708 17.0058 36.7582 17.0261C36.7526 17.0641 36.7356 17.2389 36.7102 17.5517C36.3793 17.5021 36.0775 17.3745 35.8034 17.1682C35.7866 17.1503 35.7737 17.145 35.7628 17.153C35.754 17.1596 35.7534 17.1727 35.7602 17.1911C35.931 17.4906 36.2442 17.6751 36.6999 17.7474C36.6687 18.2673 36.6738 18.5713 36.7151 18.6591C36.7919 18.7949 36.9463 18.9527 37.1799 19.1314C37.2177 19.1644 37.2406 19.1789 37.251 19.1746C37.2679 19.1655 37.269 19.1402 37.2535 19.101C37.1948 18.9484 37.1329 18.7868 37.0655 18.6133C36.9887 18.4133 36.9374 18.2276 36.9108 18.0546C36.8956 17.961 36.8814 17.8658 36.8702 17.7727C36.9761 17.7789 37.0982 17.7849 37.2358 17.7879C37.3174 17.7885 37.3934 17.8042 37.4642 17.8362C37.4974 17.8625 37.5246 17.8679 37.5481 17.8541C37.5759 17.8369 37.5898 17.7877 37.5887 17.7042C37.595 17.5983 37.5873 17.5309 37.5684 17.501C37.5522 17.4791 37.531 17.4586 37.5025 17.4426C37.4743 17.4228 37.3388 17.3045 37.0935 17.0871C37.0839 17.074 37.0746 17.0628 37.0681 17.0541C37.1124 17.082 37.1478 17.0533 37.1722 16.9676C37.189 16.8943 37.1865 16.8441 37.1671 16.8178C37.3686 17.017 37.5426 17.201 37.6903 17.3689C37.6898 17.3727 37.6886 17.3799 37.6852 17.3892C37.649 17.4498 37.6386 17.4874 37.6522 17.501C37.6716 17.5273 37.7201 17.5327 37.7994 17.5212C37.862 17.5191 37.9116 17.5044 37.9494 17.473C38.2052 17.2433 38.3943 17.1297 38.5182 17.1327C38.5628 17.1337 38.5914 17.1185 38.602 17.0871C38.6097 16.9969 38.6004 16.8895 38.5742 16.7671C38.5662 16.7289 38.537 16.6924 38.4878 16.6578C38.3719 16.5879 38.2513 16.4937 38.1271 16.3759C38.0991 16.3426 38.0694 16.3146 38.0358 16.2922C38.046 16.2877 38.0582 16.2882 38.0711 16.2922C38.1076 16.2956 38.1503 16.2973 38.2007 16.2972C38.2204 16.2962 38.2462 16.2986 38.2745 16.3049C38.3135 16.3165 38.3343 16.3076 38.3404 16.2793C38.3526 16.2501 38.3617 16.2087 38.3658 16.1549C38.4606 16.21 38.6542 16.4204 38.9474 16.7849C39.0201 16.8831 39.0695 16.9306 39.0974 16.9271C39.1255 16.9196 39.1412 16.8925 39.1404 16.8458C39.135 16.6876 39.062 16.5617 38.9246 16.4674C38.8306 16.3813 38.7105 16.2748 38.5641 16.1498C38.3966 15.9965 38.2159 15.8285 38.0204 15.642C38.0042 15.6269 37.9898 15.6193 37.9798 15.6242ZM16.7844 15.6698C16.7628 15.6697 16.7346 15.6709 16.7007 15.6749C16.6441 15.6933 16.6036 15.7157 16.5788 15.7385C16.5575 15.7676 16.566 15.7879 16.6066 15.802C16.6418 15.8137 16.6679 15.8333 16.683 15.8604C16.7297 15.9444 16.7684 16.0317 16.7998 16.1245C16.7929 16.1301 16.7834 16.1375 16.7718 16.1449C16.6713 16.2345 16.5964 16.3039 16.5457 16.353C16.5335 16.3673 16.5343 16.3796 16.5508 16.3861C16.5703 16.3941 16.591 16.3927 16.6118 16.381C16.6826 16.3396 16.7596 16.298 16.8404 16.2565C16.8623 16.3257 16.8804 16.4018 16.8963 16.4852C16.8961 16.5092 16.8988 16.525 16.9063 16.5359C16.9177 16.557 16.9306 16.5562 16.9444 16.5333C16.9553 16.5156 16.9625 16.477 16.9623 16.4141C16.9638 16.3585 16.9599 16.2889 16.9521 16.2033C17.0122 16.1737 17.0814 16.141 17.1577 16.1068C17.1916 16.0924 17.2174 16.0756 17.2366 16.0559C17.243 16.0457 17.2406 16.0281 17.229 16.0076C17.2175 15.9865 17.1729 15.9722 17.0969 15.9645C17.0569 15.9607 17.0196 15.9692 16.9876 15.9874C16.9678 15.9967 16.95 16.0074 16.9343 16.0229C16.9223 15.9733 16.9103 15.9218 16.8988 15.8655C16.8809 15.8097 16.8737 15.7644 16.8759 15.7308C16.8722 15.7033 16.8562 15.6836 16.8303 15.6749C16.8206 15.6709 16.8063 15.67 16.7844 15.6698ZM19.6186 15.8527C19.6047 15.8546 19.5895 15.8572 19.5729 15.8629C19.47 15.9052 19.3876 15.9497 19.3266 15.9925C19.2762 16.0353 19.2388 16.0873 19.215 16.1498C19.1231 16.3921 18.9938 16.7074 18.8289 17.0946C18.8169 17.0909 18.8034 17.0876 18.7882 17.0845C18.7383 17.0793 18.6906 17.0836 18.6436 17.0972C18.6356 16.9836 18.6276 16.8637 18.6206 16.7365C18.6094 16.6004 18.6177 16.4925 18.6436 16.4165C18.6574 16.3585 18.641 16.325 18.5953 16.3149C18.549 16.2977 18.431 16.3386 18.2396 16.4393C18.1862 16.4695 18.1508 16.5172 18.1356 16.5815C18.0894 16.7681 18.0242 16.997 17.9399 17.2724C17.9196 17.3471 17.8593 17.4543 17.7572 17.5924C17.7202 17.6474 17.7327 17.6793 17.7927 17.6914C17.8362 17.6937 17.885 17.6825 17.9399 17.6559C18.0334 17.6076 18.0815 17.5274 18.0847 17.4172C18.1014 17.35 18.1524 17.1393 18.2396 16.7823C18.2505 16.7428 18.2735 16.713 18.3082 16.6959C18.3446 16.6759 18.3759 16.6852 18.3996 16.7212C18.4502 16.8461 18.5063 16.9823 18.5724 17.1276C18.5391 17.1425 18.5052 17.1621 18.4734 17.1911C18.4226 17.2348 18.4001 17.2741 18.4023 17.3105C18.4001 17.3553 18.4257 17.3693 18.4809 17.3538C18.5559 17.3221 18.6385 17.3109 18.7273 17.3156C18.5294 17.7321 18.3164 18.1812 18.0873 18.6668C18.0556 18.7245 18.0775 18.7489 18.1508 18.7378C18.2129 18.7226 18.2662 18.6959 18.3108 18.6565C18.3628 18.6111 18.3958 18.5607 18.4098 18.5092C18.5057 18.1957 18.6353 17.877 18.7983 17.5517C18.8249 17.4908 18.8548 17.4257 18.8898 17.3562C19.0106 17.4055 19.1234 17.4658 19.2276 17.5365C19.3404 17.6151 19.4222 17.6948 19.4689 17.7727C19.5127 17.8453 19.4999 17.9223 19.4332 18.0039C19.3742 18.0772 19.3164 18.1452 19.2556 18.2095C19.2289 18.2356 19.2329 18.2514 19.2708 18.2527C19.2945 18.2537 19.337 18.2373 19.3977 18.2071C19.5478 18.1511 19.6646 18.125 19.7508 18.1282C19.8121 18.1306 19.8532 18.11 19.8702 18.0649C19.8878 18.0297 19.8818 17.9561 19.8522 17.8439C19.8273 17.7407 19.7692 17.6447 19.6796 17.5543C19.5745 17.4453 19.4319 17.3421 19.2505 17.2495C19.1588 17.2037 19.0759 17.1687 19.0015 17.1404C19.1393 16.8741 19.3196 16.5668 19.5425 16.2185C19.5919 16.1434 19.6369 16.0714 19.6772 16.0052C19.7124 15.953 19.7225 15.9127 19.7076 15.8858C19.6908 15.8572 19.6602 15.8471 19.6186 15.8527ZM17.3457 16.1169C17.325 16.1175 17.2983 16.1193 17.267 16.1245C17.2158 16.1391 17.1803 16.1612 17.1604 16.1879C17.1422 16.2121 17.1514 16.2313 17.1884 16.2465C17.2255 16.2546 17.2519 16.2727 17.267 16.2996C17.2927 16.3503 17.3194 16.4044 17.3508 16.4623C17.2543 16.5292 17.1836 16.5858 17.135 16.6298C17.127 16.6385 17.1284 16.6481 17.1426 16.6604C17.1602 16.6711 17.1802 16.6705 17.2036 16.6604C17.2639 16.6308 17.3295 16.6025 17.3991 16.5741C17.4001 16.5783 17.4031 16.5834 17.4066 16.5892C17.4412 16.6876 17.4708 16.7978 17.498 16.9193C17.4979 16.9436 17.502 16.9612 17.5108 16.9701C17.5215 16.9868 17.5335 16.9836 17.5463 16.9626C17.5572 16.9449 17.5617 16.9085 17.5566 16.8533C17.5593 16.7914 17.5514 16.7173 17.5362 16.6274C17.5287 16.5986 17.5233 16.5637 17.5183 16.5258C17.5866 16.501 17.6606 16.4722 17.742 16.442C17.7804 16.4303 17.809 16.4125 17.8257 16.3911C17.8316 16.3813 17.8295 16.3676 17.8207 16.3479C17.8114 16.3218 17.7699 16.3049 17.6937 16.2972C17.6571 16.2882 17.6194 16.2914 17.582 16.3074C17.5527 16.3138 17.5201 16.3343 17.4804 16.3658C17.4706 16.3465 17.4641 16.3253 17.4601 16.3023C17.4409 16.2482 17.4322 16.2028 17.4321 16.1676C17.4265 16.1426 17.4119 16.1281 17.3914 16.122C17.3818 16.118 17.3663 16.1162 17.3457 16.1169ZM37.7513 16.1626C37.761 16.1756 37.7734 16.1895 37.7868 16.2033C38.0057 16.3895 38.1886 16.5578 38.3354 16.7061C38.3921 16.7553 38.411 16.7989 38.3911 16.8407C38.369 16.9113 38.1854 17.0543 37.8428 17.2674C37.8247 17.2705 37.8055 17.2778 37.7842 17.2901C37.7842 17.2765 37.7817 17.2617 37.7742 17.2471C37.7614 17.2159 37.5401 16.998 37.1113 16.5917C37.1865 16.5564 37.2526 16.517 37.3094 16.4749C37.3108 16.5044 37.3524 16.566 37.4338 16.6578C37.5802 16.7962 37.7097 16.9228 37.8225 17.0388C37.8596 17.0754 37.8841 17.0799 37.8985 17.0489C37.9103 17.0098 37.9034 16.9641 37.8782 16.9117C37.8558 16.8676 37.6818 16.7114 37.3526 16.4445C37.4114 16.401 37.4716 16.3551 37.5329 16.3098C37.5295 16.3327 37.5575 16.3877 37.6167 16.4725C37.7722 16.6141 37.9087 16.7396 38.0281 16.8508C38.0654 16.8876 38.0914 16.8889 38.1042 16.8559C38.1159 16.8169 38.1062 16.7721 38.0788 16.7212C38.0546 16.6885 37.8838 16.5461 37.5658 16.2946C37.5642 16.2925 37.5622 16.2927 37.5582 16.2922C37.6502 16.2242 37.7137 16.1804 37.7513 16.1626ZM36.8446 17.0338C36.8777 17.0327 36.9159 17.0345 36.9615 17.0412C36.9578 17.0777 36.9729 17.1276 37.0046 17.1885C37.0478 17.2514 37.1319 17.3258 37.2585 17.4146C37.298 17.4497 37.3159 17.482 37.3119 17.5085C37.3097 17.5237 37.2474 17.5415 37.1241 17.5618C37.0407 17.5727 36.9508 17.5737 36.8548 17.5671C36.8524 17.5045 36.8495 17.4415 36.8471 17.3791C36.8514 17.2205 36.8511 17.1065 36.8446 17.0338Z" fill="#122E66"/>
<path fill-rule="evenodd" clip-rule="evenodd" d="M25.0481 28.8904C25.0204 28.8926 25.01 28.9076 25.0172 28.9348C25.0195 28.9627 25.0166 28.9838 25.0086 28.9985C25.0046 29.0037 24.9961 29.016 24.9836 29.0356C24.9411 29.0814 24.9113 29.1142 24.8942 29.1342C24.8731 29.1595 24.8649 29.1718 24.8697 29.1713C24.8745 29.1756 24.8945 29.167 24.93 29.1454C24.9432 29.1349 24.9811 29.1129 25.0436 29.0798C25.0838 29.0576 25.1102 29.0411 25.1233 29.0308C25.1321 29.0252 25.15 29.0169 25.1772 29.0052C25.2131 28.9881 25.2259 28.9729 25.2152 28.9601C25.1598 28.9136 25.1043 28.8902 25.0481 28.8904ZM27.2566 28.7789C27.2515 28.7792 27.2448 28.7819 27.2353 28.7873C27.1064 28.8379 26.882 28.8788 26.5625 28.9102C26.4756 28.9198 26.4688 28.9349 26.5432 28.9552C26.6216 28.9657 26.6993 28.9638 26.7764 28.95C26.8028 28.9876 26.7956 29.0441 26.7561 29.1192C26.68 29.2496 26.5969 29.3318 26.506 29.3659C26.4918 29.3716 26.4824 29.3768 26.4777 29.3819C26.4644 29.407 26.4614 29.4413 26.4684 29.4846C26.4748 29.5136 26.4876 29.5277 26.5073 29.5264C26.5073 29.5264 26.5289 29.5204 26.5721 29.5083C26.6344 29.4905 26.8574 29.4277 27.2409 29.3201C27.2462 29.3246 27.2512 29.3291 27.2564 29.3339C27.3184 29.3987 27.3609 29.4257 27.3849 29.4147C27.4355 29.3636 27.4299 29.298 27.3672 29.2185C27.3259 29.1768 27.256 29.1414 27.1574 29.1126C27.0635 29.0883 27.0344 29.0947 27.0708 29.132C27.1067 29.1689 27.1507 29.2177 27.2024 29.2784C26.9566 29.3251 26.7636 29.3598 26.6238 29.3814C26.6932 29.3195 26.7859 29.2248 26.9009 29.0969C26.91 29.0867 26.9217 29.0765 26.9358 29.0661C27.0064 29.0233 26.9945 28.9801 26.8998 28.9364C27.1075 28.906 27.2545 28.8811 27.3414 28.8624C27.3892 28.8497 27.4028 28.8297 27.3817 28.8016C27.3614 28.7833 27.3196 28.7755 27.2566 28.7789ZM29.3718 28.7566C29.3473 28.7598 29.3441 28.7742 29.3625 28.7995C29.3856 28.8256 29.3825 28.8811 29.3537 28.9672C29.2742 29.2747 29.1729 29.4905 29.0497 29.6156C29.0081 29.6622 29.015 29.6697 29.0702 29.6387C29.2168 29.5342 29.3332 29.3579 29.4192 29.1094C29.451 29.1545 29.5043 29.2501 29.5795 29.395C29.6152 29.4553 29.6398 29.4982 29.6532 29.5232C29.6686 29.5968 29.75 29.6254 29.8968 29.6088C29.9113 29.6096 29.9233 29.6102 29.9332 29.6108C29.9819 29.6086 30.0137 29.6028 30.0289 29.5937C30.0441 29.5851 30.0374 29.5747 30.0086 29.5636C29.7772 29.4251 29.6262 29.2952 29.5545 29.1747C29.5043 29.1139 29.4673 29.0729 29.4443 29.0521C29.462 28.9853 29.4848 28.9276 29.5115 28.8804C29.5174 28.8664 29.52 28.8542 29.5203 28.8446C29.5028 28.8144 29.4532 28.7851 29.3718 28.7566ZM31.246 29.6937C31.2892 29.7036 31.3622 29.7073 31.4652 29.7046C31.5334 29.7073 31.5774 29.7104 31.5964 29.7126C31.6545 29.7195 31.6852 29.7081 31.6884 29.6792C31.6881 29.6398 31.6616 29.6148 31.6089 29.6038C31.5753 29.5998 31.5139 29.6025 31.4244 29.6118C31.35 29.6227 31.2929 29.6281 31.2537 29.6288C31.2728 29.4646 31.2942 29.3448 31.3177 29.2691C31.3259 29.2406 31.3337 29.2145 31.3411 29.191C31.3483 29.1724 31.3524 29.1582 31.3536 29.1486C31.3352 29.0973 31.2659 29.0601 31.1464 29.0363C31.1164 29.0428 31.1132 29.0696 31.1372 29.116C31.1524 29.1523 31.1611 29.1824 31.1633 29.2072C31.175 29.3604 31.139 29.711 31.0561 30.2592L30.7784 30.2489C30.7787 30.2051 30.7804 30.1464 30.7838 30.0732C30.7913 29.8832 30.8 29.7667 30.8097 29.7241C30.8118 29.7048 30.8172 29.6808 30.8256 29.6524C30.8326 29.6337 30.8342 29.6192 30.8305 29.6091C30.7963 29.566 30.7366 29.5321 30.6515 29.5075C30.6176 29.5035 30.6147 29.5276 30.6432 29.5798C30.6633 29.6166 30.6747 29.6449 30.6772 29.6646C30.69 29.7641 30.6873 29.9571 30.6689 30.2436C30.5555 30.2499 30.4435 30.2467 30.3324 30.2337C30.2737 30.2321 30.2512 30.239 30.2641 30.2552C30.291 30.2733 30.3401 30.2912 30.4118 30.3091C30.6425 30.3016 30.8844 30.3052 31.1371 30.3198C31.2534 30.3283 31.3694 30.3417 31.4848 30.3601C31.5955 30.3729 31.7012 30.3902 31.8017 30.4117C31.8833 30.4257 31.9172 30.4076 31.9033 30.3572C31.871 30.2998 31.8166 30.264 31.7398 30.2504C31.7155 30.2475 31.6444 30.2489 31.5262 30.2547C31.3697 30.2563 31.2496 30.2571 31.1662 30.2571L31.246 29.6937ZM28.7465 28.8476C28.824 28.9537 28.8912 29.0136 28.9491 29.0264C29.023 29.0057 29.0328 28.9601 28.978 28.8889C28.8118 28.8075 28.7348 28.7936 28.7465 28.8476ZM29.0148 29.1611C29.0052 29.1604 28.971 29.1664 28.9118 29.1779C28.6953 29.2248 28.4945 29.2459 28.3097 29.2409C28.2758 29.2441 28.2724 29.2561 28.3008 29.2769C28.3379 29.3132 28.378 29.3371 28.4209 29.3489C28.4356 29.3497 28.5217 29.3301 28.6795 29.2896C28.6936 29.4901 28.5528 29.7163 28.2571 29.9685C28.2168 29.9955 28.2161 30.0052 28.2555 29.9976C28.2902 29.9896 28.3302 29.9697 28.3753 29.938C28.547 29.8254 28.6662 29.6854 28.7331 29.5189C28.738 29.5192 28.7478 29.5219 28.762 29.5276C28.8238 29.555 28.8571 29.574 28.8612 29.5838C28.8694 29.6184 28.8532 29.688 28.8137 29.7933C28.7745 29.8933 28.7424 29.9499 28.7174 29.9632C28.7124 29.9629 28.691 29.9571 28.6526 29.9452C28.5812 29.9171 28.5545 29.9133 28.5728 29.9337C28.614 29.9846 28.6403 30.0369 28.6521 30.0913C28.6515 30.1009 28.6537 30.106 28.6587 30.106C28.6969 30.1228 28.7412 30.108 28.7924 30.062C28.8339 30.0158 28.8689 29.947 28.898 29.856C28.9332 29.7409 28.967 29.6576 28.999 29.6057C29.0044 29.5913 29.0075 29.5819 29.0076 29.5769C28.9905 29.5371 28.9603 29.5061 28.9176 29.4846C28.9078 29.4841 28.896 29.4809 28.8816 29.4753C28.8428 29.4733 28.8065 29.4691 28.7729 29.4624C28.7784 29.448 28.7889 29.4315 28.8046 29.4129C28.8203 29.3896 28.8262 29.3726 28.8217 29.3627C28.8272 29.3536 28.7944 29.3273 28.7238 29.2848C28.8563 29.2624 28.9688 29.2512 29.0612 29.2512C29.1097 29.2536 29.13 29.2404 29.122 29.2105C29.104 29.1804 29.0683 29.164 29.0148 29.1611ZM29.2824 29.6352C29.2867 29.6401 29.2936 29.6504 29.3025 29.6656C29.3846 29.767 29.438 29.816 29.4625 29.8126C29.5324 29.7819 29.5446 29.7339 29.4993 29.6683C29.3422 29.6019 29.2699 29.5907 29.2824 29.6352ZM29.222 29.9461C29.3262 30.0926 29.4139 30.1824 29.4852 30.2153C29.5598 30.1852 29.568 30.127 29.5092 30.0411C29.4668 30.0099 29.396 29.9744 29.2955 29.9352C29.2284 29.9171 29.2041 29.9205 29.222 29.9461ZM27.0526 29.7606C27.1252 29.7521 27.2022 29.7384 27.2843 29.7195C27.3566 29.7107 27.3921 29.6941 27.3908 29.6699C27.3843 29.6408 27.3473 29.6284 27.2795 29.6321C27.2649 29.6329 27.243 29.6363 27.2142 29.6427C27.1852 29.6441 27.1321 29.6541 27.0552 29.6726C27.0531 29.6341 27.0582 29.5947 27.0708 29.5552C27.075 29.5403 27.0744 29.5281 27.0689 29.519C26.9841 29.4745 26.9196 29.4537 26.8758 29.4561C26.8563 29.4571 26.8574 29.4763 26.879 29.5141C26.9115 29.5758 26.9294 29.638 26.9326 29.7014C26.8891 29.7083 26.8312 29.7188 26.759 29.7323C26.6769 29.7464 26.6334 29.7536 26.6286 29.7536C26.5568 29.7721 26.5696 29.7883 26.6676 29.8029C26.7459 29.8083 26.8355 29.8009 26.9369 29.7811L26.9571 30.0285C26.759 30.0584 26.5704 30.083 26.3915 30.1019C26.3624 30.1085 26.3408 30.1118 26.3262 30.1126C26.2584 30.1209 26.2321 30.1321 26.2476 30.146C26.2724 30.1542 26.324 30.1638 26.4024 30.1742C26.4073 30.1741 26.4244 30.1707 26.4529 30.1644C26.8576 30.0801 27.2744 30.046 27.7036 30.0624C27.786 30.0628 27.8142 30.0395 27.7875 29.9924C27.7507 29.9454 27.686 29.9198 27.5932 29.9145C27.579 29.9155 27.5524 29.9192 27.5139 29.9264C27.3884 29.9523 27.239 29.9798 27.0656 30.008L27.0526 29.7606ZM24.5144 29.0267C24.4908 29.0244 24.4849 29.0364 24.4966 29.0635C24.5132 29.0947 24.5419 29.127 24.582 29.1609C24.6075 29.187 24.6313 29.1941 24.6536 29.1829C24.6761 29.1718 24.6856 29.1497 24.683 29.1174C24.664 29.0585 24.6078 29.0283 24.5144 29.0267ZM24.8953 29.4701C25.0152 29.4552 25.0952 29.4388 25.1358 29.4211C25.175 29.3902 25.1483 29.376 25.0552 29.3792C25.0414 29.3804 25.0136 29.3852 24.9724 29.3936C24.9408 29.4054 24.9156 29.4124 24.8972 29.414C24.8966 29.4046 24.9 29.3904 24.9076 29.371C24.9108 29.3566 24.9124 29.3451 24.9115 29.3357C24.9104 29.3219 24.8974 29.3064 24.8728 29.2901C25.0379 29.2573 25.1456 29.2339 25.1956 29.2205C25.2225 29.2088 25.2281 29.192 25.2121 29.1699C25.1924 29.1577 25.1619 29.1536 25.1201 29.1571C25.1156 29.1574 25.0993 29.1612 25.0721 29.168C24.899 29.2201 24.7024 29.2604 24.4809 29.2888C24.4395 29.2968 24.4358 29.3088 24.47 29.3246C24.4987 29.3361 24.5411 29.3395 24.5969 29.3347C24.6339 29.3315 24.6726 29.3257 24.714 29.3177C24.7393 29.339 24.759 29.379 24.7736 29.4387C24.7092 29.4532 24.6406 29.466 24.567 29.4772C24.5403 29.4936 24.5555 29.5061 24.6121 29.5152C24.6542 29.5163 24.7121 29.5089 24.7852 29.4936L24.7955 29.6115C24.639 29.6389 24.5241 29.6558 24.45 29.662C24.4137 29.6744 24.415 29.6883 24.4534 29.7037C24.4819 29.7109 24.5308 29.711 24.6004 29.7051C24.6558 29.7003 24.7043 29.6936 24.7456 29.6859C24.7683 29.679 24.7868 29.675 24.8009 29.6739L24.8156 29.9316C24.8017 29.9329 24.7811 29.9368 24.7536 29.944C24.4036 29.9926 24.1936 30.0176 24.1236 30.0187C24.0913 30.0214 24.0852 30.0316 24.1052 30.0481C24.1403 30.0779 24.1792 30.0982 24.2222 30.1083C24.227 30.1078 24.2452 30.1043 24.2774 30.0966C24.4033 30.0437 24.704 29.9876 25.1792 29.9281C25.2995 29.918 25.446 29.915 25.619 29.9187C25.6329 29.9174 25.64 29.9168 25.64 29.9168C25.6905 29.9076 25.6928 29.8822 25.6473 29.8392C25.6025 29.8059 25.5499 29.7918 25.4899 29.7969C25.4667 29.7989 25.4048 29.811 25.3041 29.8337C25.2219 29.8548 25.1667 29.8664 25.139 29.8688C25.204 29.8072 25.2489 29.7616 25.2744 29.7315C25.2912 29.7112 25.2852 29.6953 25.2561 29.6838C25.2124 29.6643 25.1702 29.6587 25.1289 29.667C25.1105 29.6686 25.1067 29.6804 25.1179 29.7028C25.1294 29.7299 25.1334 29.7505 25.1304 29.7646C25.1112 29.8129 25.0892 29.8544 25.064 29.8893L24.9121 29.9161L24.9049 29.6649C24.9416 29.6574 24.9968 29.6476 25.0704 29.6371C25.176 29.6184 25.2449 29.6057 25.2769 29.5982C25.3132 29.5859 25.3211 29.571 25.3009 29.5542C25.2768 29.5424 25.2369 29.5385 25.1812 29.5433C25.1721 29.5443 25.142 29.5491 25.0915 29.5584C25.0225 29.5686 24.958 29.5788 24.8984 29.5888L24.8953 29.4701ZM24.6649 29.8046C24.6393 29.7788 24.594 29.7641 24.5283 29.7601C24.5049 29.7622 24.507 29.7854 24.534 29.8299C24.5715 29.8872 24.6024 29.9172 24.6259 29.9198C24.675 29.8968 24.6883 29.8585 24.6649 29.8046ZM25.154 30.0424C25.1401 30.0435 25.0899 30.055 25.003 30.0766C24.8616 30.112 24.7404 30.1409 24.6398 30.1633C24.6049 30.1384 24.5715 30.1296 24.5395 30.1371C24.5169 30.1438 24.5184 30.1598 24.5436 30.1859C24.5598 30.2075 24.5776 30.255 24.5979 30.3278C24.6115 30.378 24.6246 30.4214 24.6369 30.4577C24.6544 30.4979 24.6747 30.5195 24.6987 30.5222C24.7166 30.5158 24.7217 30.4923 24.7132 30.4512C24.7272 30.4499 24.7825 30.4427 24.8792 30.4297C25.0865 30.3979 25.2225 30.3795 25.2873 30.374C25.3056 30.3675 25.3072 30.3582 25.2921 30.3454C25.2766 30.3281 25.2542 30.316 25.2259 30.3089C25.2571 30.2364 25.2969 30.1864 25.3459 30.1592C25.3678 30.1432 25.3566 30.1209 25.3121 30.0918C25.2536 30.0595 25.2008 30.0432 25.154 30.0424ZM24.6574 30.2041C24.6665 30.2032 24.6966 30.1982 24.7468 30.1893C24.8796 30.1592 25.0036 30.1395 25.1195 30.1294C25.138 30.1278 25.147 30.1504 25.1462 30.1971C25.1417 30.2532 25.1291 30.2963 25.1083 30.3264L24.7027 30.4099" fill="#122E66"/>
</svg>
