<svg width="198" height="48" viewBox="0 0 198 48" fill="none" xmlns="http://www.w3.org/2000/svg">
<path d="M6.58789 0.5H191.006C194.368 0.5 197.095 3.22561 197.095 6.58789V41.4121C197.095 44.7744 194.368 47.5 191.006 47.5H6.58789C3.22572 47.4998 0.500186 44.7743 0.5 41.4121V6.58789C0.500186 3.22572 3.22572 0.500186 6.58789 0.5Z" fill="white"/>
<path d="M6.58789 0.5H191.006C194.368 0.5 197.095 3.22561 197.095 6.58789V41.4121C197.095 44.7744 194.368 47.5 191.006 47.5H6.58789C3.22572 47.4998 0.500186 44.7743 0.5 41.4121V6.58789C0.500186 3.22572 3.22572 0.500186 6.58789 0.5Z" stroke="#EAECF0"/>
<path fill-rule="evenodd" clip-rule="evenodd" d="M183.523 8.44022C183.236 8.59154 182.422 9.08791 181.715 9.543C180.446 10.3601 179.731 10.5788 179.731 10.1508C179.731 9.91647 178.564 9.24284 178.158 9.24284C177.729 9.24284 177.525 10.2268 177.714 11.3853C177.881 12.4139 177.849 12.5566 177.348 13.0095C177.046 13.2826 176.799 13.5967 176.799 13.7074C176.799 13.8182 176.582 14.1021 176.316 14.3384C175.834 14.7658 175.832 14.7651 175.954 14.2043C176.099 13.5392 176.553 12.2242 176.83 11.6703C177.162 11.0032 177.051 10.9854 176.331 11.5907C175.949 11.9119 175.548 12.1746 175.439 12.1746C175.331 12.1746 175.037 11.7109 174.786 11.1442C174.327 10.1057 173.543 9.26426 173.022 9.25028C172.824 9.24509 172.74 9.68756 172.74 10.7346C172.74 11.9083 172.863 12.4524 173.317 13.2862C173.846 14.2579 173.991 14.366 175.06 14.5849C176.029 14.7834 176.318 14.7633 176.773 14.4652C177.163 14.2095 177.293 14.1905 177.223 14.3987C177.126 14.6905 176.806 14.8865 175.111 15.6931C174.616 15.9286 173.503 16.7939 172.637 17.6164L171.062 19.1113L171.459 20.3731C171.844 21.5941 172.785 22.9995 173.217 22.9995C173.333 22.9995 173.519 22.7596 173.63 22.4664C173.742 22.1732 173.993 21.8721 174.188 21.797C174.384 21.722 174.544 21.4421 174.544 21.1748C174.544 20.7482 174.499 20.7267 174.169 20.9987C173.848 21.2639 173.81 21.2599 173.902 20.9698C174.002 20.6561 176.273 18.8058 177.185 18.2956C177.405 18.1727 177.515 18.0025 177.431 17.9177C177.346 17.8329 176.952 17.9943 176.556 18.2767C176.087 18.6102 175.869 18.6781 175.934 18.4704C176.118 17.8811 179.525 16.2502 180.59 16.2416C181.182 16.2369 181.507 16.3221 181.422 16.4595C181.346 16.5835 181.041 16.685 180.746 16.685C180.45 16.685 180.146 16.7865 180.069 16.9105C179.884 17.2107 180.406 17.1951 181.646 16.8634C182.53 16.627 182.715 16.6403 183.037 16.9626C183.383 17.3081 183.382 17.3755 183.031 17.9118C182.656 18.483 182.312 18.5784 180.695 18.559C180.295 18.5541 180.022 18.638 180.088 18.7451C180.155 18.8524 180.406 18.9402 180.646 18.9402C181.13 18.9402 181.248 19.5128 180.802 19.693C180.609 19.7708 180.627 19.8127 180.859 19.8262C181.045 19.8371 181.318 20.1075 181.467 20.4272C181.693 20.9153 181.684 20.9888 181.411 20.8837C180.961 20.7114 181.001 20.9694 181.479 21.3325C182.01 21.7357 182.437 21.7224 182.437 21.3025C182.437 21.1135 182.691 20.8623 183.001 20.7443C183.311 20.6264 183.565 20.4505 183.565 20.3531C183.565 20.2559 183.793 20.036 184.072 19.8646C184.578 19.554 184.578 19.5545 184.15 20.0357C183.547 20.7141 184.128 20.6523 184.815 19.9652C185.495 19.2859 185.54 18.2483 184.949 16.871C184.448 15.7013 183.484 14.5062 182.89 14.3177C182.514 14.1982 182.574 14.0798 183.386 13.3471C184.288 12.5327 185.595 10.1091 185.595 9.24938C185.595 8.46525 184.377 7.98963 183.523 8.44022ZM84.2277 9.82017C83.6542 10.7985 82.7415 14.4032 82.4109 16.9942C82.3126 17.7657 82.0986 18.2526 81.692 18.6292C80.8084 19.4483 80.6767 19.3116 80.8438 17.7506C80.9737 16.5366 80.932 16.2572 80.5492 15.7845C80.1566 15.2998 80.0574 15.2719 79.7207 15.5513C79.5103 15.7258 79.0245 16.4836 78.6411 17.2352C78.0681 18.3588 77.9409 18.8827 77.9267 20.1805C77.9095 21.7159 77.9251 21.761 78.4923 21.827C78.8166 21.8647 79.204 21.7395 79.3655 21.5451C79.5252 21.3528 79.8129 21.1954 80.0051 21.1954C80.1972 21.1954 80.5571 21.0177 80.805 20.8007C81.1568 20.4924 81.2296 20.4802 81.1376 20.7443C81.0727 20.9304 80.7978 21.7549 80.5265 22.5767L80.0335 24.071L78.633 24.218C75.5109 24.5457 70.2308 25.3093 70.0741 25.4556C69.8024 25.7094 71.7114 27.0392 72.5819 27.2025C73.0735 27.2948 73.9124 27.2118 74.7525 26.9878C75.5057 26.7871 76.7017 26.5548 77.4102 26.4716C78.5951 26.3322 78.6984 26.3559 78.6984 26.7673C78.6984 27.6491 79.5026 28.0678 81.0616 27.9977C81.8467 27.9625 82.5496 28.0322 82.624 28.1526C82.8376 28.4981 80.9437 29.7651 80.2141 29.7651C79.8562 29.7651 78.8552 29.4543 77.9896 29.0743C77.1238 28.6943 76.3165 28.4167 76.1954 28.4571C76.074 28.4975 76.6464 28.9859 77.4673 29.5425C80.1632 31.3703 79.9016 31.2813 80.998 30.7461C81.5316 30.4856 82.5086 29.8652 83.1687 29.3677L84.3689 28.4632L85.6494 28.7936C86.3537 28.9751 87.6962 29.4676 88.633 29.8878C90.5418 30.7443 91.6038 30.7213 91.7359 29.8206C91.8381 29.1246 91.0032 28.6783 88.9099 28.3103C87.917 28.1357 86.7438 27.8421 86.3025 27.6578L85.5003 27.3225L85.7881 26.3451L86.0758 25.3675L89.3851 25.1144C93.0234 24.8361 93.5827 24.6104 93.5827 23.4199C93.5827 22.5129 93.0478 22.4465 89.3206 22.8919L86.1383 23.2722L85.6958 22.7413L85.2536 22.2102L85.2459 22.8166C85.2391 23.3678 85.1408 23.4361 84.1673 23.5685C83.578 23.6486 82.9269 23.7604 82.7203 23.817C82.1013 23.9866 82.0546 23.5599 82.5503 22.2648L83.0203 21.0371L84.8623 21.0598L86.7044 21.0826L87.5503 19.3912C88.0157 18.4609 88.5178 17.3061 88.6661 16.8246C88.9131 16.0235 88.8941 15.9157 88.4438 15.5508C87.9016 15.1118 87.1949 15.1902 85.5984 15.8668C85.1144 16.072 84.6668 16.1884 84.6039 16.1255C84.5409 16.0625 84.6027 15.4778 84.7412 14.8258C84.8794 14.1738 85.056 13.0316 85.1334 12.2874C85.2107 11.5431 85.3767 10.6005 85.5021 10.1925C85.6685 9.65148 85.6564 9.36169 85.4568 9.12128C85.0384 8.61747 84.8795 8.70768 84.2277 9.82017ZM182.97 9.58112C182.833 9.93879 182.437 10.0504 182.437 9.73154C182.437 9.49294 182.684 9.24284 182.919 9.24284C183.018 9.24284 183.041 9.39507 182.97 9.58112ZM107.806 11.4223C107.427 12.2323 106.863 13.1973 106.552 13.5669C106.241 13.9366 105.986 14.3163 105.986 14.4111C105.986 14.5058 105.479 15.4275 104.859 16.4595C104.238 17.4914 103.731 18.4287 103.731 18.5426C103.731 18.8333 104.775 17.733 106.134 16.0084C106.769 15.2022 107.909 13.9605 108.667 13.249C109.83 12.1584 110.046 11.8356 110.046 11.1906C110.046 10.3546 109.748 10.0125 108.989 9.97442C108.593 9.95458 108.358 10.2419 107.806 11.4223ZM136.145 11.4417C136.341 12.1435 136.315 15.7671 136.108 16.593C135.997 17.0366 135.828 17.136 135.187 17.136C134.497 17.136 134.402 17.2055 134.402 17.7068C134.402 18.021 134.549 18.3344 134.73 18.4037C134.987 18.5022 135.031 18.8292 134.935 19.9187C134.798 21.4707 135.026 21.9531 136.007 22.18C136.447 22.2817 136.836 22.1443 137.527 21.6432C138.69 20.8014 138.912 20.8 138.912 21.6354C138.912 22.2549 138.486 24.5782 138.373 24.5782C138.345 24.5782 137.516 24.2877 136.531 23.9325C134.467 23.1883 131.642 22.8229 131.835 23.3252C131.899 23.4939 132.326 23.7011 132.782 23.7859C133.714 23.9589 136.657 25.4324 136.657 25.7258C136.657 26.0648 135.805 26.3823 134.895 26.3823C132.999 26.3823 131.47 25.2051 131.47 23.7451C131.47 23.2877 131.378 23.0297 131.244 23.1123C130.9 23.3252 130.976 24.5152 131.385 25.3224C131.586 25.7193 132.119 26.5375 132.569 27.1403L133.387 28.2368L135.28 28.1075C136.733 28.0083 137.283 27.8748 137.648 27.5327L138.123 27.0873L140.486 28.8587C141.785 29.8332 142.927 30.5819 143.023 30.5226C143.118 30.4635 143.197 29.8605 143.197 29.183C143.197 28.0609 143.117 27.8644 142.303 26.9808C141.811 26.4475 141.05 25.8176 140.611 25.5815C140.173 25.3454 139.814 25.0436 139.814 24.911C139.814 24.7784 140.167 24.015 140.598 23.2147C141.35 21.8194 141.6 20.501 141.22 19.9325C140.67 19.1089 139.353 18.9675 138.286 19.6176C136.853 20.4917 136.474 19.9487 137.337 18.2566C137.671 17.6017 138.104 17.2089 138.972 16.7745C141.669 15.4241 142.369 14.4298 140.622 14.4298C139.376 14.4298 138.312 13.8405 138.012 12.984C137.456 11.3945 135.734 9.97262 136.145 11.4417ZM115.567 12.2628C115.383 12.7025 115.232 13.1416 115.231 13.2386C115.231 13.3356 115.124 13.7963 114.995 14.2627C114.79 15.001 114.704 15.0809 114.331 14.881C114.095 14.7548 113.77 14.3775 113.609 14.0421C113.406 13.6211 113.072 13.3827 112.528 13.2717C112.095 13.1836 111.707 13.1443 111.666 13.1849C111.626 13.2253 111.813 13.6894 112.081 14.2162C112.479 14.9965 112.543 15.3928 112.422 16.3575C112.329 17.0972 112.11 17.6899 111.836 17.9375C111.279 18.442 111.285 18.7354 111.872 19.4814C112.508 20.289 112.309 20.9859 111.011 22.5054C110.225 23.4248 109.975 23.9039 109.957 24.5261C109.935 25.2662 110.003 25.3621 110.698 25.5653C111.379 25.7648 111.508 25.7294 111.886 25.2401C112.801 24.0543 113.226 23.624 113.354 23.7521C113.427 23.8256 113.473 25.3693 113.456 27.1827C113.425 30.2867 113.457 30.5454 113.99 31.6067C114.301 32.2266 114.556 32.9345 114.556 33.1797C114.556 33.4248 114.657 33.5628 114.782 33.4862C114.906 33.4095 115.007 32.9415 115.007 32.4461C115.007 30.9353 115.678 28.4533 116.28 27.7381C116.785 27.1369 117.046 25.8895 117.258 23.0588C117.26 23.0293 117.694 22.7336 118.221 22.4019C119.704 21.4682 120.862 20.4417 120.866 20.0567C120.869 19.8646 120.487 19.4654 120.019 19.1695C118.953 18.4954 117.914 16.8841 117.691 15.5574C117.597 14.9992 117.333 13.8838 117.104 13.0787C116.602 11.312 116.08 11.0348 115.567 12.2628ZM155.817 11.9581C155.076 12.6989 154.908 13.4447 154.764 16.6232C154.684 18.4003 154.517 19.7782 154.356 19.9985C154.152 20.2784 153.603 20.3961 152.146 20.4726C149.909 20.5901 149.433 20.8945 149.552 22.1313C149.613 22.7677 149.781 22.9639 150.639 23.4014C151.382 23.7798 151.881 23.8854 152.5 23.7947C153.122 23.7034 153.345 23.7514 153.345 23.9765C153.345 24.287 150.777 27.6037 150.105 28.1621C149.903 28.3299 149.739 28.5816 149.74 28.7214C149.742 28.8614 149.836 28.8301 149.949 28.6519C150.116 28.3879 150.217 28.3811 150.499 28.615C150.689 28.7728 150.944 28.8407 151.065 28.7661C151.186 28.6912 151.341 28.7214 151.41 28.833C151.582 29.1113 152.671 29.0198 153.294 28.6747C153.575 28.5189 153.9 28.4496 154.016 28.5211C154.376 28.7437 157.039 26.3131 157.56 25.2856C157.832 24.7507 158.119 23.7383 158.199 23.036C158.279 22.3338 158.389 21.5954 158.443 21.3954C158.57 20.9326 161.4 19.617 162.271 19.6158C163.256 19.6147 164.396 18.8373 164.396 18.1675C164.396 17.5081 164.166 17.3412 162.948 17.1187C161.851 16.9182 160.985 17.2294 159.839 18.2354C159.398 18.6231 158.958 18.9402 158.862 18.9402C158.767 18.9402 158.753 17.7366 158.832 16.2657C158.964 13.8227 158.939 13.5577 158.549 13.2048C158.314 12.9923 157.999 12.5214 157.849 12.1584C157.636 11.6446 157.431 11.498 156.926 11.498C156.569 11.498 156.07 11.7051 155.817 11.9581ZM130.913 12.2168C130.856 12.3796 130.609 13.2941 130.365 14.2489C130.12 15.2038 129.813 16.1834 129.684 16.4259C129.335 17.0767 127.824 18.2068 127.181 18.2974C126.767 18.3558 126.64 18.4934 126.693 18.8274C126.801 19.4999 127.429 19.8887 128.173 19.7432C128.814 19.6179 128.821 19.628 128.683 20.4622C128.606 20.9274 128.542 21.627 128.541 22.0169C128.539 22.6272 128.255 22.9722 126.504 24.4976C124.841 25.9459 124.48 26.3726 124.53 26.8333C124.585 27.3329 124.681 27.3884 125.381 27.3202C125.815 27.2781 126.323 27.1074 126.509 26.9409C126.801 26.6807 127.006 26.8293 127.975 28.0058C129.703 30.1032 130.06 30.4417 130.543 30.4417C131.077 30.4417 131.205 29.7446 130.979 28.0737C130.895 27.4535 130.819 25.927 130.81 24.6814L130.793 22.4168L131.823 21.4114C132.835 20.4234 134.098 18.2636 133.663 18.2636C133.541 18.2636 133.048 18.6188 132.568 19.0529C132.087 19.4871 131.6 19.8422 131.485 19.8422C131.369 19.8422 131.21 20.0452 131.132 20.2933C130.854 21.1694 130.568 20.7279 130.568 19.4223C130.568 18.2927 130.666 17.9761 131.244 17.2488C132.02 16.2723 132.059 16.1097 131.559 15.918C131.251 15.7996 131.221 15.519 131.355 14.0033C131.462 12.7954 131.433 12.1782 131.264 12.074C131.127 11.9894 130.969 12.0537 130.913 12.2168ZM56.5975 14.1037C54.7972 14.49 53.3329 15.0306 53.0003 15.4313C52.8059 15.6656 52.9861 15.9403 53.8092 16.6649L54.8682 17.597L54.2154 18.325C53.8563 18.7253 52.8871 19.7633 52.061 20.6316C49.0674 23.7787 48.2921 25.2849 48.6457 27.2673L48.8236 28.2652L50.1736 28.5811C51.7962 28.9611 53.5016 28.8296 55.3572 28.1817C56.4771 27.7907 57.0062 27.7343 58.4265 27.8556C59.8876 27.9806 60.273 27.9352 61.0199 27.5503C62.2105 26.9371 63.1662 25.8798 64.1323 24.1084C65.5727 21.4664 65.1262 20.5188 62.4403 20.5188H60.941L60.8244 19.4846C60.7376 18.7138 60.5179 18.2546 59.9616 17.6804C59.5511 17.2569 59.1461 16.9105 59.0615 16.9105C58.8863 16.9105 58.0896 19.0293 57.7247 20.4656C57.5341 21.2161 57.2827 21.5521 56.5795 21.996C55.4798 22.6903 55.1549 22.5465 55.3497 21.4513C55.6501 19.7613 58.4204 16.5661 59.7149 16.4164C60.1436 16.367 60.4474 16.1063 60.7629 15.517C61.1974 14.7056 61.1979 14.6774 60.7843 14.2203C60.276 13.6587 58.8554 13.619 56.5975 14.1037ZM182.966 14.8244C183.024 14.9176 182.446 14.9936 181.683 14.9936C180.92 14.9936 179.99 15.0768 179.618 15.1787C179.179 15.2989 179.021 15.287 179.167 15.1442C179.291 15.0234 179.596 14.8759 179.844 14.8161C180.589 14.6368 182.854 14.6429 182.966 14.8244ZM107.031 15.6138C106.855 15.893 106.644 16.5779 106.562 17.136C106.427 18.0482 106.283 18.242 105.14 19.0529C103.425 20.2689 102.144 20.9473 101.537 20.9597C101.258 20.9653 100.871 21.2211 100.664 21.5372C100.342 22.0287 100.33 22.24 100.575 23.1159C100.731 23.672 100.904 24.1271 100.961 24.1271C101.017 24.1271 101.385 23.8335 101.777 23.4747C104.076 21.3728 105.867 19.8422 106.028 19.8422C106.404 19.8422 106.193 21.3359 105.703 22.1371C105.425 22.5929 104.498 23.5811 103.644 24.333C101.159 26.5219 100.508 27.6682 101.461 28.1786C102.174 28.5601 102.81 28.449 103.671 27.7925C104.118 27.4517 104.67 27.2043 104.899 27.2431C105.162 27.2875 105.39 27.1222 105.523 26.7914C105.711 26.3216 105.734 26.3498 105.747 27.0751C105.762 27.9409 106.361 29.9166 106.665 30.1045C106.767 30.1674 107.071 29.8616 107.34 29.425C107.697 28.8472 107.816 28.34 107.774 27.5629C107.613 24.5788 107.727 24.0378 108.805 22.6491C109.363 21.9301 109.82 21.2583 109.82 21.1559C109.82 20.8187 109.414 20.9613 108.727 21.5393C108.114 22.0548 108.039 22.0708 107.931 21.7084C107.865 21.4883 107.883 20.759 107.97 20.0878C108.125 18.8989 108.152 18.8608 109.031 18.6147C109.96 18.3543 110.003 18.2789 109.713 17.4179C109.6 17.0814 109.361 16.9105 109.004 16.9105C108.586 16.9105 108.467 16.7894 108.467 16.3652C108.467 15.0727 107.642 14.6413 107.031 15.6138ZM178 15.4503C178.045 15.701 176.184 16.669 175.672 16.6613C175.478 16.6586 175.54 16.5729 175.818 16.461C176.084 16.3535 176.369 16.157 176.451 16.0242C176.533 15.8916 176.842 15.7829 177.138 15.7829C177.717 15.7829 178.077 15.4433 177.697 15.2552C177.553 15.1837 177.558 15.1573 177.713 15.1853C177.849 15.2101 177.979 15.3294 178 15.4503ZM175.897 16.0084C175.897 16.1325 175.796 16.2339 175.672 16.2339C175.548 16.2339 175.446 16.1325 175.446 16.0084C175.446 15.8844 175.548 15.7829 175.672 15.7829C175.796 15.7829 175.897 15.8844 175.897 16.0084ZM87.0354 16.9669C87.0235 17.4427 86.5048 17.9727 85.2297 18.8123C83.8274 19.7358 83.6598 19.7762 83.6598 19.1907C83.6598 18.5672 84.3019 17.9129 85.554 17.2607C86.7991 16.6119 87.0458 16.563 87.0354 16.9669ZM114.287 17.846C114.208 18.9059 113.581 19.5376 113.2 18.9402C112.88 18.4386 112.927 18.1626 113.445 17.5047C114.108 16.6615 114.367 16.7666 114.287 17.846ZM174.585 17.4105C174.424 17.5722 174.319 17.5855 174.319 17.4443C174.319 17.1432 174.585 16.8764 174.736 17.0271C174.8 17.0911 174.732 17.2637 174.585 17.4105ZM175.784 17.3615C175.708 17.4856 175.77 17.5871 175.922 17.5871C176.433 17.5871 175.904 17.8863 175.278 17.9517L174.657 18.0167L175.221 17.5814C175.861 17.0869 175.984 17.039 175.784 17.3615ZM178.491 17.3615C178.414 17.4856 178.459 17.5871 178.59 17.5871C178.721 17.5871 178.829 17.4856 178.829 17.3615C178.829 17.2375 178.784 17.136 178.73 17.136C178.675 17.136 178.567 17.2375 178.491 17.3615ZM184.875 17.604C184.83 17.7373 184.698 17.8464 184.58 17.8464C184.462 17.8464 184.329 17.7373 184.285 17.604C184.24 17.4707 184.373 17.3615 184.58 17.3615C184.787 17.3615 184.919 17.4707 184.875 17.604ZM118.933 20.0114C118.129 20.7288 117.713 20.6661 117.713 19.8274C117.713 19.4471 117.813 18.9499 117.935 18.7221C118.143 18.3335 118.197 18.3448 118.829 18.9061L119.501 19.504L118.933 20.0114ZM183.79 18.9402C183.79 19.0642 183.689 19.1657 183.565 19.1657C183.441 19.1657 183.339 19.0642 183.339 18.9402C183.339 18.8161 183.441 18.7147 183.565 18.7147C183.689 18.7147 183.79 18.8161 183.79 18.9402ZM174.988 19.3348C174.984 19.428 174.705 19.6988 174.368 19.937L173.755 20.3697L174.301 19.7678C174.876 19.135 175 19.0572 174.988 19.3348ZM177.701 19.5491C175.98 20.1717 175.221 20.9712 175.221 22.1597C175.221 22.7724 176.193 23.7988 176.559 23.5726C176.693 23.4898 176.957 23.124 177.145 22.7598C177.333 22.3954 177.6 22.0974 177.737 22.0974C177.983 22.0974 177.946 22.557 177.534 24.6578L177.363 25.5265L175.221 26.0761C174.042 26.3782 172.801 26.5738 172.463 26.5104C171.266 26.2867 171.07 28.0455 172.223 28.6625C173.006 29.0813 173.797 28.9383 174.877 28.1826C175.637 27.6511 178.062 26.8929 178.286 27.1168C178.323 27.154 178.264 27.578 178.156 28.0593C177.87 29.3274 177.091 30.0028 175.709 30.1807C175.002 30.2716 174.621 30.4164 174.72 30.5558C174.987 30.929 176.525 32.0203 176.784 32.0203C176.917 32.0203 177.025 32.1218 177.025 32.2458C177.025 32.5449 177.84 32.5336 178.414 32.2264C179.157 31.8288 179.751 30.1746 179.783 28.4097L179.813 26.8333L180.843 26.7889C181.41 26.7643 182.299 26.7688 182.819 26.7988C183.857 26.8586 184.241 26.4777 184.241 25.3903C184.241 24.31 182.83 24.0953 180.386 24.8037C179.816 24.969 179.178 25.0382 178.968 24.9577C178.631 24.8283 178.679 24.6361 179.384 23.3076C180.299 21.583 180.375 20.8246 179.715 19.9855C179.26 19.4072 178.531 19.2491 177.701 19.5491ZM182.888 20.1875C182.888 20.5511 182.288 20.8959 182.057 20.6649C181.897 20.5042 182.406 19.8422 182.69 19.8422C182.799 19.8422 182.888 19.9976 182.888 20.1875ZM113.654 21.9479C113.654 22.5769 113.057 23.4506 112.626 23.4506C112.429 23.4506 112.301 23.2277 112.301 22.8868C112.301 22.5767 112.386 22.323 112.49 22.323C112.594 22.323 112.798 22.0636 112.942 21.7465C113.242 21.0878 113.654 21.2044 113.654 21.9479ZM63.0063 21.5578C63.6779 21.8155 63.4132 22.8426 62.3717 24.0204L61.3801 25.142L60.6966 24.7441C60.3206 24.5254 59.6797 24.3732 59.2724 24.4059C57.6974 24.5324 58.4132 23.0297 60.4313 21.9732C61.4448 21.4425 62.3329 21.2993 63.0063 21.5578ZM56.4363 24.1309C56.3711 24.3808 56.2283 24.6404 56.1192 24.7078C55.8939 24.847 55.8438 23.8283 56.0651 23.6071C56.3276 23.3448 56.5572 23.6689 56.4363 24.1309ZM105.048 25.3111C104.758 25.8688 104.408 25.8009 104.408 25.1871C104.408 24.46 104.911 23.9769 105.107 24.5157C105.187 24.736 105.161 25.0941 105.048 25.3111ZM128.555 26.6773C128.294 27.3631 128.044 27.4373 127.639 26.949C127.287 26.526 127.479 25.7421 128.139 24.8993L128.651 24.2451L128.718 25.1577C128.755 25.6597 128.682 26.3435 128.555 26.6773ZM53.6092 25.4239L54.3417 26.2696L54.864 25.6417C55.3795 25.0222 55.3914 25.0197 55.7854 25.455C56.1699 25.8801 56.1632 25.9098 55.5946 26.2824C54.1094 27.2555 51.3483 27.9571 50.4142 27.5985C49.9228 27.41 49.9652 27.1694 50.6179 26.4425C50.9264 26.0993 51.3903 25.5393 51.6492 25.1983C52.282 24.3646 52.7369 24.4171 53.6092 25.4239ZM158.557 25.3377C158.126 25.8571 158.744 26.7449 159.679 26.9502C160.083 27.039 160.792 27.5252 161.321 28.0766C162.074 28.8605 162.387 29.0364 162.949 28.9913C163.332 28.9607 163.754 28.8682 163.887 28.7857C164.02 28.7034 164.307 28.704 164.524 28.7872C165.16 29.0317 164.775 27.3584 164.01 26.5526C163.069 25.5632 162.259 25.229 160.474 25.0939C159.158 24.9945 158.804 25.0393 158.557 25.3377ZM84.3292 25.7621C84.3199 26.123 83.7843 26.8336 83.5223 26.8324C83.4118 26.832 82.9747 26.6202 82.5507 26.3618C81.9481 25.9944 81.8498 25.8478 82.0997 25.6895C82.5976 25.3745 84.3377 25.4311 84.3292 25.7621ZM54.5836 35.7977C54.5924 36.0147 54.6867 36.3954 54.7934 36.6434C54.9487 37.0052 54.9902 36.9271 55.0031 36.2488C55.0117 35.7838 54.9174 35.4031 54.7934 35.4031C54.6693 35.4031 54.5751 35.5808 54.5836 35.7977ZM49.141 36.2488C49.2659 36.4657 49.5661 36.8944 49.808 37.2009L50.2478 37.7586L49.4569 38.8359C48.5176 40.1155 48.9265 40.3205 49.9607 39.0885L50.6533 38.2638L51.1632 39.0885C51.4435 39.5423 51.8167 39.9135 51.9929 39.9135C52.4335 39.9135 52.4099 39.8388 51.6043 38.6961L50.8957 37.691L51.6232 36.7724C52.1372 36.1236 52.2506 35.8541 52.0098 35.8541C51.8222 35.8541 51.4223 36.1692 51.1208 36.5544L50.5728 37.2544L50.0744 36.5544C49.5349 35.7968 48.7294 35.5332 49.141 36.2488ZM52.7637 37.8838C52.7637 39.0865 52.8555 39.9135 52.9892 39.9135C53.1229 39.9135 53.2147 39.0865 53.2147 37.8838C53.2147 36.6811 53.1229 35.8541 52.9892 35.8541C52.8555 35.8541 52.7637 36.6811 52.7637 37.8838ZM56.955 37.6019C56.5991 38.5631 56.2608 39.4766 56.2031 39.6316C56.1454 39.7867 56.2392 39.9135 56.4112 39.9135C56.5833 39.9135 56.839 39.609 56.9795 39.2369C57.1866 38.6882 57.3652 38.5604 57.9252 38.5604C58.4641 38.5604 58.6924 38.7087 58.9655 39.2369C59.2823 39.8496 59.7548 40.157 59.7548 39.7504C59.7548 39.6609 59.4251 38.7478 59.0219 37.7216C58.551 36.5228 58.166 35.8555 57.9452 35.855C57.7224 35.8543 57.3744 36.468 56.955 37.6019ZM60.0279 37.8092C60.0716 39.1242 60.1853 39.7948 60.375 39.8578C60.582 39.9263 60.6569 39.5427 60.6569 38.4124V36.8737L61.6859 38.4077C62.2517 39.2513 62.8354 39.9017 62.9826 39.853C63.1547 39.796 63.2736 39.0664 63.3155 37.8092C63.3701 36.1714 63.3243 35.8541 63.0336 35.8541C62.7556 35.8541 62.6865 36.1563 62.6865 37.3739V38.8939L61.667 37.3739C60.2446 35.2536 59.9454 35.3332 60.0279 37.8092ZM66.0693 37.3825C66.0693 39.2849 66.4365 39.9135 67.5481 39.9135C68.8139 39.9135 69.2266 39.3034 69.2266 37.4328C69.2266 36.1798 69.1567 35.8541 68.8883 35.8541C68.6204 35.8541 68.55 36.1768 68.55 37.4052C68.55 39.1253 68.2553 39.6072 67.3426 39.3781C66.7718 39.2349 66.528 38.4383 66.5229 36.6998C66.5215 36.2348 66.4189 35.8541 66.2949 35.8541C66.1668 35.8541 66.0693 36.514 66.0693 37.3825ZM69.9032 37.8838C69.9032 40.2461 70.3012 40.6523 70.4002 38.3912L70.467 36.869L71.4818 38.3865C72.04 39.2211 72.6236 39.9063 72.7785 39.9087C72.9835 39.9121 73.0604 39.3596 73.0604 37.8838C73.0604 35.526 72.6626 35.1135 72.5634 37.3683L72.4966 38.8826L71.5118 37.3683C70.1506 35.2759 69.9032 35.3553 69.9032 37.8838ZM73.7846 37.8092C73.8283 39.1242 73.942 39.7948 74.1316 39.8578C74.3434 39.9279 74.4135 39.4408 74.4135 37.9025C74.4135 36.2091 74.3533 35.8541 74.0665 35.8541C73.7758 35.8541 73.73 36.1714 73.7846 37.8092ZM74.8646 36.0465C74.8646 36.6195 76.3185 39.9135 76.5715 39.9135C76.7274 39.9135 77.132 39.1778 77.4707 38.2785C77.8094 37.3791 78.177 36.4657 78.2875 36.2488C78.4346 35.9606 78.3991 35.8541 78.1567 35.8541C77.9499 35.8541 77.588 36.4905 77.1969 37.5426L76.5688 39.2308L75.9744 37.6096C75.6474 36.7179 75.2638 35.9495 75.1221 35.9024C74.9805 35.8552 74.8646 35.92 74.8646 36.0465ZM78.6984 37.8838V39.9135H80.1643C80.9913 39.9135 81.6302 39.8151 81.6302 39.688C81.6302 39.5639 81.1227 39.4624 80.5026 39.4624C79.4 39.4624 79.375 39.4473 79.375 38.7859C79.375 38.1343 79.4126 38.1093 80.3898 38.1093C81.1415 38.1093 81.4046 38.0216 81.4046 37.771C81.4046 37.5205 81.1415 37.4328 80.3898 37.4328C79.4577 37.4328 79.375 37.3868 79.375 36.869C79.375 36.3428 79.4501 36.3052 80.5026 36.3052C81.1227 36.3052 81.6302 36.2037 81.6302 36.0796C81.6302 35.9524 80.9913 35.8541 80.1643 35.8541H78.6984V37.8838ZM82.3067 37.8838C82.3067 39.0865 82.3985 39.9135 82.5322 39.9135C82.6563 39.9135 82.7578 39.5008 82.7578 38.9965C82.7578 38.1292 82.7914 38.0832 83.3775 38.1508C83.8037 38.1997 84.1675 38.4859 84.5427 39.0678C84.8429 39.533 85.2238 39.9135 85.3891 39.9135C85.819 39.9135 85.7664 39.7184 85.1007 38.8459L84.5121 38.0739L84.9879 37.7406C85.2498 37.5572 85.464 37.2172 85.464 36.9851C85.464 36.2206 84.8375 35.8541 83.5311 35.8541H82.3067V37.8838ZM86.4112 36.1247C86.058 36.4779 86.0643 37.3171 86.4224 37.6012C86.5776 37.7244 87.0834 37.9472 87.5469 38.0965C88.5895 38.4323 88.8157 38.7624 88.2744 39.1584C87.7029 39.5761 87.346 39.5402 86.8171 39.0114C86.3316 38.5258 85.915 38.4217 85.915 38.7859C85.915 39.2827 86.8417 39.9135 87.5715 39.9135C88.9952 39.9135 89.628 38.4009 88.4521 37.8085C88.1111 37.6366 87.5462 37.4273 87.1969 37.3437C86.7594 37.2386 86.5844 37.0708 86.6349 36.8045C86.7375 36.2637 87.9503 36.1505 88.3139 36.6477C88.7462 37.2388 89.1449 36.9601 88.7248 36.3604C88.3267 35.7923 86.89 35.646 86.4112 36.1247ZM89.7489 37.8838C89.7489 39.0865 89.8406 39.9135 89.9744 39.9135C90.1081 39.9135 90.1999 39.0865 90.1999 37.8838C90.1999 36.6811 90.1081 35.8541 89.9744 35.8541C89.8406 35.8541 89.7489 36.6811 89.7489 37.8838ZM90.6509 36.0796C90.6509 36.2037 90.9554 36.3052 91.3275 36.3052H92.0041V38.1093C92.0041 39.5626 92.0699 39.9135 92.3423 39.9135C92.6145 39.9135 92.6806 39.5655 92.6806 38.1348V36.3564L93.3585 36.2569C93.9613 36.1683 94.1113 36.274 94.7116 37.2095C95.1541 37.8989 95.3868 38.5527 95.3868 39.1063C95.3868 40.314 95.9197 40.0294 96.0704 38.741C96.1435 38.1179 96.4303 37.4028 96.8033 36.9136C97.4907 36.0124 97.5406 35.8534 97.1346 35.8557C96.9797 35.8566 96.5848 36.2767 96.2573 36.7891L95.6618 37.721L95.1297 36.7891L94.5975 35.8575L92.6242 35.8559C91.4578 35.8548 90.6509 35.9464 90.6509 36.0796ZM100.534 36.0882C100.028 36.3834 99.6162 37.6968 99.7998 38.4284C99.8812 38.7529 100.204 39.22 100.517 39.466C101.812 40.4845 103.506 39.611 103.506 37.9244C103.506 36.6615 102.814 35.8521 101.741 35.8609C101.285 35.8647 100.742 35.9671 100.534 36.0882ZM104.182 37.8838C104.182 39.0865 104.274 39.9135 104.408 39.9135C104.532 39.9135 104.633 39.5075 104.633 39.0114V38.1093H105.535C106.187 38.1093 106.437 38.0153 106.437 37.771C106.437 37.5268 106.187 37.4328 105.535 37.4328C104.723 37.4328 104.633 37.3764 104.633 36.869C104.633 36.3428 104.708 36.3052 105.761 36.3052C106.381 36.3052 106.888 36.2037 106.888 36.0796C106.888 35.9543 106.287 35.8541 105.535 35.8541H104.182V37.8838ZM109.723 36.2084C109.298 36.6344 109.263 37.2909 109.651 37.6087C109.806 37.7356 110.364 37.9551 110.891 38.096C111.86 38.3549 112.074 38.6968 111.579 39.1918C111.177 39.5937 110.555 39.5204 110.046 39.0114C109.426 38.3919 109.056 38.4239 109.395 39.0678C109.752 39.7457 110.028 39.9058 110.848 39.9101C112.804 39.9198 112.884 37.9645 110.948 37.4862C110.385 37.3471 110.158 37.1662 110.158 36.8545C110.158 36.2898 111.333 36.097 111.537 36.6283C111.682 37.0059 112.301 37.1224 112.301 36.7722C112.301 36.3212 111.555 35.8541 110.835 35.8541C110.419 35.8541 109.918 36.0136 109.723 36.2084ZM113.487 36.1989C112.52 36.8766 112.638 39.1442 113.67 39.6965C114.453 40.1158 115.398 39.9477 115.909 39.2987C116.484 38.568 116.139 38.3301 115.472 38.9974C114.544 39.9259 113.428 39.2865 113.428 37.8258C113.428 36.4788 114.567 35.8368 115.484 36.6667C116.109 37.2329 116.542 36.9377 115.951 36.3476C115.368 35.7637 114.209 35.6938 113.487 36.1989ZM116.811 37.8838C116.811 39.5375 116.874 39.9135 117.149 39.9135C117.425 39.9135 117.488 39.5375 117.488 37.8838C117.488 36.2301 117.425 35.8541 117.149 35.8541C116.874 35.8541 116.811 36.2301 116.811 37.8838ZM118.164 37.8838V39.9135H119.63C120.457 39.9135 121.096 39.8151 121.096 39.688C121.096 39.5639 120.589 39.4624 119.968 39.4624C118.866 39.4624 118.841 39.4473 118.841 38.7859C118.841 38.1343 118.879 38.1093 119.856 38.1093C120.607 38.1093 120.871 38.0216 120.871 37.771C120.871 37.5205 120.607 37.4328 119.856 37.4328C118.924 37.4328 118.841 37.3868 118.841 36.869C118.841 36.3428 118.916 36.3052 119.968 36.3052C120.589 36.3052 121.096 36.2037 121.096 36.0796C121.096 35.9524 120.457 35.8541 119.63 35.8541H118.164V37.8838ZM121.773 37.8838C121.773 40.2416 122.17 40.6541 122.27 38.3993L122.336 36.885L123.321 38.3993C124.682 40.4917 124.93 40.4123 124.93 37.8838C124.93 36.2596 124.864 35.8541 124.602 35.8541C124.358 35.8541 124.258 36.2118 124.208 37.2587L124.141 38.6632L123.238 37.2607C122.742 36.4892 122.21 35.8573 122.055 35.8562C121.85 35.8546 121.773 36.4093 121.773 37.8838ZM126.063 36.2995C125.447 36.9161 125.291 37.7165 125.603 38.663C126.042 39.9928 127.572 40.3778 128.499 39.3916C129.319 38.5184 128.935 38.1637 128.087 39.0114C127.496 39.6029 126.844 39.5833 126.409 38.9611C125.365 37.4711 126.826 35.5028 128.113 36.6667C128.738 37.2329 129.171 36.9377 128.581 36.3476C127.943 35.7105 126.677 35.6861 126.063 36.2995ZM129.44 37.8838V39.9135H130.906C131.733 39.9135 132.372 39.8151 132.372 39.688C132.372 39.5639 131.865 39.4624 131.244 39.4624C130.142 39.4624 130.117 39.4473 130.117 38.7859C130.117 38.1343 130.154 38.1093 131.132 38.1093C131.883 38.1093 132.146 38.0216 132.146 37.771C132.146 37.5205 131.883 37.4328 131.132 37.4328C130.2 37.4328 130.117 37.3868 130.117 36.869C130.117 36.3428 130.192 36.3052 131.244 36.3052C131.865 36.3052 132.372 36.2037 132.372 36.0796C132.372 35.9524 131.733 35.8541 130.906 35.8541H129.44V37.8838ZM136.112 36.049C136.046 36.1561 135.687 37.0694 135.315 38.0786C134.806 39.4595 134.715 39.9135 134.949 39.9135C135.12 39.9135 135.366 39.609 135.495 39.2369C135.696 38.6614 135.847 38.5604 136.51 38.5604C137.173 38.5604 137.324 38.6614 137.525 39.2369C137.655 39.609 137.92 39.9135 138.114 39.9135C138.433 39.9135 138.432 39.8314 138.105 39.0678C137.906 38.6028 137.535 37.6892 137.281 37.0381C136.856 35.9466 136.409 35.5686 136.112 36.049ZM138.687 37.8838C138.687 40.2416 139.084 40.6541 139.184 38.3993L139.25 36.885L140.235 38.3993C141.596 40.4917 141.844 40.4123 141.844 37.8838C141.844 36.2596 141.778 35.8541 141.516 35.8541C141.272 35.8541 141.172 36.2118 141.122 37.2587L141.055 38.6632L140.152 37.2607C139.656 36.4892 139.124 35.8573 138.968 35.8562C138.764 35.8546 138.687 36.4093 138.687 37.8838ZM142.52 37.8838V39.9135H143.505C145.252 39.9135 146.198 38.6711 145.67 37.0701C145.358 36.1268 144.883 35.8541 143.55 35.8541H142.52V37.8838ZM148.158 36.0796C148.158 36.2037 148.463 36.3052 148.835 36.3052H149.511V38.1093C149.511 39.1618 149.606 39.9135 149.737 39.9135C149.868 39.9135 149.963 39.1618 149.963 38.1093V36.3052H150.639C151.011 36.3052 151.316 36.2037 151.316 36.0796C151.316 35.9509 150.639 35.8541 149.737 35.8541C148.835 35.8541 148.158 35.9509 148.158 36.0796ZM151.767 37.8838V39.9135H153.233C154.981 39.9135 155.207 39.5152 153.514 39.4178C152.41 39.3542 152.326 39.308 152.259 38.7295C152.19 38.1251 152.217 38.1093 153.33 38.1093C154.196 38.1093 154.473 38.0272 154.473 37.771C154.473 37.5155 154.197 37.4328 153.345 37.4328C152.293 37.4328 152.218 37.3951 152.218 36.869C152.218 36.3358 152.285 36.3052 153.458 36.3052C154.14 36.3052 154.698 36.2037 154.698 36.0796C154.698 35.9524 154.06 35.8541 153.233 35.8541H151.767V37.8838ZM155.64 36.376C154.988 37.0699 154.977 38.5055 155.617 39.3192C156.203 40.0639 157.41 40.134 158.081 39.4624C158.931 38.6122 158.574 38.2311 157.698 39.0538C156.562 40.1212 155.136 38.5793 155.859 37.0647C156.219 36.3106 157.157 36.0896 157.699 36.6313C158.078 37.0108 158.532 37.0979 158.532 36.7912C158.532 36.3622 157.657 35.8541 156.919 35.8541C156.386 35.8541 155.971 36.0235 155.64 36.376ZM159.031 37.8092C159.075 39.1242 159.188 39.7948 159.378 39.8578C159.573 39.9223 159.66 39.6663 159.66 39.0301V38.1093H160.675H161.69V39.0114C161.69 39.5075 161.791 39.9135 161.915 39.9135C162.049 39.9135 162.141 39.0865 162.141 37.8838C162.141 36.6811 162.049 35.8541 161.915 35.8541C161.791 35.8541 161.69 36.2093 161.69 36.6434C161.69 37.4285 161.684 37.4328 160.675 37.4328C159.665 37.4328 159.66 37.4285 159.66 36.6434C159.66 36.0833 159.559 35.8541 159.313 35.8541C159.022 35.8541 158.976 36.1714 159.031 37.8092ZM162.865 37.8092C162.908 39.1242 163.022 39.7948 163.212 39.8578C163.419 39.9263 163.494 39.5427 163.494 38.4124V36.8737L164.523 38.4077C165.089 39.2513 165.672 39.9017 165.819 39.853C165.992 39.796 166.11 39.0664 166.152 37.8092C166.207 36.1714 166.161 35.8541 165.87 35.8541C165.592 35.8541 165.523 36.1563 165.523 37.3739V38.8939L164.504 37.3739C163.081 35.2536 162.782 35.3332 162.865 37.8092ZM167.118 36.4484C166.451 37.2968 166.491 38.6463 167.205 39.3598C168.619 40.7741 170.893 39.314 170.391 37.3144C170.013 35.8108 168.032 35.2865 167.118 36.4484ZM170.936 37.8838V39.9135H172.176C173.632 39.9135 173.856 39.5202 172.458 39.4189L171.5 39.3497L171.434 37.6019C171.342 35.1636 170.936 35.3936 170.936 37.8838ZM174.505 36.0882C173.999 36.3834 173.587 37.6968 173.77 38.4284C173.852 38.7529 174.174 39.22 174.487 39.466C175.782 40.4845 177.476 39.611 177.476 37.9244C177.476 36.6615 176.784 35.8521 175.712 35.8609C175.256 35.8647 174.712 35.9671 174.505 36.0882ZM178.481 36.4078C178.073 36.8151 177.927 37.205 177.927 37.8838C177.927 39.5161 179.287 40.3284 180.957 39.6936C181.427 39.5147 181.535 39.3244 181.535 38.6787C181.535 37.9206 181.499 37.8838 180.746 37.8838C180.312 37.8838 179.957 37.9853 179.957 38.1093C179.957 38.2334 180.218 38.3348 180.537 38.3348C181.313 38.3348 181.192 39.0357 180.367 39.326C179.407 39.6636 178.603 39.0114 178.603 37.8946C178.603 36.4075 179.884 35.7614 180.826 36.7731C181.124 37.0927 181.312 37.1597 181.421 36.9844C181.508 36.8432 181.401 36.5311 181.184 36.291C180.596 35.6415 179.186 35.7023 178.481 36.4078ZM182.544 37.0352C183.104 37.8667 183.339 38.4672 183.339 39.0648C183.339 39.5314 183.441 39.9135 183.565 39.9135C183.689 39.9135 183.79 39.5513 183.79 39.1084C183.79 38.5971 184.023 37.9593 184.429 37.3606C185.382 35.9524 185.426 35.8539 185.1 35.8557C184.938 35.8566 184.543 36.2677 184.223 36.7693L183.64 37.6811L183.035 36.7677C182.703 36.2652 182.277 35.8541 182.09 35.8541C181.843 35.8541 181.969 36.1813 182.544 37.0352ZM84.7514 36.8419C84.8528 37.3771 84.4289 37.6504 83.4907 37.6549C82.8229 37.658 82.7578 37.5969 82.7578 36.9689C82.7578 36.2973 82.7828 36.281 83.7142 36.3487C84.4395 36.4012 84.6902 36.5205 84.7514 36.8419ZM102.374 36.5289C103.192 36.9664 103.137 38.7227 102.288 39.2899C101.517 39.8045 100.348 38.9877 100.348 37.9341C100.348 36.6498 101.329 35.9694 102.374 36.5289ZM144.776 36.7562C145.285 37.2652 145.367 38.2866 144.945 38.8504C144.79 39.0572 144.308 39.2543 143.873 39.2881L143.084 39.3497L143.017 37.8274L142.951 36.3052H143.638C144.024 36.3052 144.522 36.5027 144.776 36.7562ZM169.45 36.7341C170.061 37.4093 169.854 38.796 169.077 39.2299C168.367 39.6264 167.837 39.4164 167.407 38.5694C167.115 37.9941 167.361 36.7921 167.831 36.4937C168.324 36.1807 169.046 36.288 169.45 36.7341ZM176.345 36.5289C177.163 36.9664 177.108 38.7227 176.258 39.2899C175.487 39.8045 174.319 38.9877 174.319 37.9341C174.319 36.6498 175.3 35.9694 176.345 36.5289ZM136.604 38.0712C135.967 38.1799 135.883 37.986 136.218 37.1772L136.517 36.4565L136.779 37.2264C137.015 37.9215 136.998 38.0038 136.604 38.0712ZM58.2596 37.2636C58.4696 38.0473 58.44 38.1093 57.8575 38.1093C57.3465 38.1093 57.3289 38.068 57.5686 37.4328C57.8733 36.6256 58.0753 36.5762 58.2596 37.2636Z" fill="#015B35"/>
<g clip-path="url(#clip0_53672_556476)">
<path fill-rule="evenodd" clip-rule="evenodd" d="M28.0015 12.8125C34.1785 12.8125 39.1865 17.8204 39.1865 23.9975C39.1865 30.1746 34.1785 35.1825 28.0015 35.1825C21.8244 35.1825 16.8145 30.1766 16.8145 23.9995C16.8145 17.8224 21.8244 12.8125 28.0015 12.8125Z" fill="white"/>
<path fill-rule="evenodd" clip-rule="evenodd" d="M28.001 8C36.8383 8 44.0025 15.1642 44.0025 24.001C44.0025 32.8383 36.8383 40.0025 28.001 40.0025C19.1642 40 12 32.8383 12 24.001C12 15.1642 19.1642 8 28.001 8ZM28.001 13.2113C33.9603 13.2113 38.7887 18.0417 38.7887 23.999C38.7887 29.9559 33.9583 34.7862 28.001 34.7862C22.0441 34.7862 17.2113 29.9583 17.2113 24.001C17.2113 18.0441 22.0417 13.2113 28.001 13.2113Z" fill="#005C33"/>
<path fill-rule="evenodd" clip-rule="evenodd" d="M26.0867 36.3712L25.8055 37.9947L25.3581 37.9163L25.5426 36.8538C25.4597 36.8965 25.3819 36.9272 25.3085 36.951C25.235 36.9743 25.1428 36.9912 25.0361 37.0031L25.0976 36.641C25.2564 36.6172 25.3839 36.5795 25.4786 36.5249C25.5733 36.4704 25.6537 36.3969 25.7177 36.3047L26.0867 36.3712ZM26.487 37.7223L26.9389 37.701C26.9459 37.7625 26.9627 37.8101 26.9885 37.8359C27.0148 37.8642 27.048 37.8786 27.0882 37.8811C27.1616 37.8855 27.2182 37.8548 27.2658 37.7863C27.2985 37.7343 27.3293 37.6231 27.3581 37.45C27.2985 37.5021 27.242 37.5378 27.183 37.5592C27.1234 37.5805 27.0575 37.5874 26.984 37.583C26.8397 37.5711 26.7212 37.5115 26.6289 37.4004C26.5366 37.2893 26.4965 37.1569 26.5084 36.9981C26.5153 36.8915 26.5485 36.7948 26.6076 36.7094C26.6646 36.6266 26.74 36.5626 26.8323 36.5249C26.9245 36.4867 27.0381 36.4728 27.173 36.4823C27.3342 36.4942 27.4622 36.5319 27.5565 36.5959C27.6512 36.6598 27.7221 36.7521 27.7722 36.8776C27.8218 37.0031 27.8382 37.1638 27.8243 37.3627C27.803 37.6539 27.7246 37.8622 27.5922 37.9897C27.4597 38.1152 27.2846 38.1698 27.0669 38.1529C26.9389 38.1435 26.8372 38.1202 26.7663 38.0844C26.6954 38.0487 26.6358 38.0016 26.5912 37.9401C26.5391 37.8855 26.5059 37.8101 26.487 37.7223ZM27.3675 37.0646C27.3744 36.9768 27.3581 36.9059 27.3174 36.8538C27.2772 36.8017 27.2251 36.771 27.1616 36.766C27.1021 36.7615 27.05 36.7804 27.0074 36.823C26.9652 36.8657 26.9389 36.9297 26.9344 37.0195C26.927 37.1093 26.9414 37.1802 26.9791 37.2323C27.0173 37.2824 27.0644 37.3106 27.1259 37.3151C27.1899 37.3201 27.2445 37.3012 27.2891 37.2586C27.3367 37.2159 27.3625 37.1519 27.3675 37.0646ZM28.1577 36.5532L29.2226 36.4728L29.2489 36.8325L28.5272 36.887L28.5079 37.1306C28.5555 37.1048 28.6026 37.0835 28.6522 37.0666C28.6998 37.0502 28.7469 37.0408 28.797 37.0383C28.9578 37.0264 29.0927 37.0646 29.2013 37.1544C29.3104 37.2442 29.3695 37.3627 29.3814 37.5115C29.3883 37.6157 29.3719 37.7179 29.3268 37.8171C29.2822 37.9163 29.2157 37.9971 29.1234 38.0537C29.0312 38.1107 28.9126 38.146 28.7638 38.1579C28.6572 38.1648 28.5649 38.1628 28.4865 38.1484C28.4087 38.1341 28.3422 38.1083 28.2856 38.0725C28.2286 38.0373 28.184 37.9947 28.1458 37.947C28.1081 37.8999 28.0773 37.8384 28.049 37.7625L28.4984 37.6797C28.5153 37.7506 28.5461 37.8052 28.5887 37.8409C28.6314 37.8761 28.681 37.8905 28.7375 37.8855C28.8015 37.8811 28.8511 37.8523 28.8868 37.8027C28.9245 37.7531 28.9389 37.6797 28.9315 37.5849C28.9245 37.4882 28.8987 37.4193 28.8536 37.3791C28.8085 37.3364 28.7519 37.3201 28.6854 37.3245C28.6428 37.327 28.6006 37.3414 28.5624 37.3672C28.5341 37.3841 28.5034 37.4148 28.4702 37.4594L28.0842 37.4337L28.1577 36.5532ZM29.8546 37.1569C29.7792 37.1331 29.7197 37.0998 29.682 37.0596C29.6274 37.0051 29.5942 36.9366 29.5803 36.8563C29.5565 36.7238 29.6016 36.6028 29.7127 36.4967C29.8005 36.4138 29.9235 36.3593 30.0842 36.333C30.297 36.2977 30.4627 36.3096 30.5788 36.3731C30.6949 36.4371 30.7633 36.5294 30.7846 36.6524C30.7965 36.7258 30.7871 36.7948 30.7589 36.8657C30.735 36.9178 30.6949 36.9699 30.6383 37.0244C30.7306 37.0502 30.806 37.0954 30.8605 37.1544C30.9151 37.2159 30.9483 37.2868 30.9622 37.3697C30.9766 37.45 30.9697 37.5259 30.9459 37.6043C30.9196 37.6797 30.8843 37.7412 30.8392 37.7888C30.7921 37.8359 30.7306 37.8736 30.6547 37.9069C30.5788 37.9376 30.494 37.9614 30.4037 37.9778C30.2355 38.0066 30.1031 38.0086 30.0064 37.9852C29.9091 37.959 29.8333 37.9143 29.7717 37.8429C29.7127 37.7744 29.675 37.6916 29.6582 37.5944C29.6418 37.5001 29.6512 37.4173 29.682 37.3459C29.7102 37.268 29.7698 37.2065 29.8546 37.1569ZM29.9989 36.8087C30.0084 36.8632 30.0346 36.9059 30.0748 36.9342C30.115 36.9624 30.1646 36.9699 30.2216 36.9604C30.2713 36.951 30.3114 36.9272 30.3377 36.8895C30.366 36.8488 30.3729 36.8042 30.366 36.7521C30.3566 36.6975 30.3303 36.6549 30.2926 36.6266C30.2524 36.5983 30.2048 36.5889 30.1527 36.5983C30.0986 36.6078 30.0585 36.6316 30.0297 36.6718C29.9989 36.7094 29.9895 36.7546 29.9989 36.8087ZM30.0937 37.5001C30.1056 37.5711 30.1363 37.6231 30.1884 37.6608C30.238 37.6985 30.2926 37.7129 30.3471 37.7035C30.3992 37.6941 30.4439 37.6633 30.4771 37.6112C30.5103 37.5592 30.5222 37.4976 30.5103 37.4267C30.4984 37.3558 30.4677 37.3012 30.4181 37.263C30.3685 37.2253 30.3139 37.2109 30.2593 37.2209C30.2048 37.2303 30.1601 37.261 30.1269 37.3106C30.0912 37.3627 30.0798 37.4267 30.0937 37.5001Z" fill="white"/>
<path fill-rule="evenodd" clip-rule="evenodd" d="M20.0849 33.7233L20.0442 33.766L20.0328 33.7541C19.9971 33.7209 19.9544 33.702 19.9048 33.6926C19.8528 33.6851 19.7937 33.6876 19.7203 33.704L19.1593 33.825L18.9792 34.5656C18.9629 34.6321 18.9579 34.6886 18.9678 34.7362C18.9773 34.7834 18.9986 34.8235 19.0338 34.8568L19.0388 34.8617L18.9986 34.9064L18.3617 34.3146L18.4019 34.27L18.4138 34.2819C18.4401 34.3052 18.4634 34.322 18.4822 34.329C18.5016 34.3359 18.5155 34.334 18.5274 34.3221C18.5368 34.3101 18.5462 34.2982 18.5536 34.2863C18.5606 34.2744 18.5651 34.2605 18.5675 34.2437L18.6648 33.8464L18.2858 33.9292C18.2719 33.9317 18.2575 33.9386 18.2436 33.9456C18.2292 33.9525 18.2173 33.9624 18.2054 33.9763C18.1891 33.9952 18.1841 34.019 18.1935 34.0472C18.203 34.076 18.2243 34.1068 18.2575 34.1395L18.2173 34.1822L17.8364 33.8275L17.8766 33.7848C17.9167 33.8201 17.9644 33.8414 18.0209 33.8533C18.078 33.8652 18.137 33.8627 18.203 33.8488L18.693 33.7372L18.8825 32.9728C18.8989 32.9044 18.9058 32.8404 18.9014 32.7814C18.8964 32.7219 18.8825 32.6817 18.8587 32.6603L18.8562 32.6584L18.8964 32.6157L19.512 33.1881L19.4718 33.2308C19.441 33.2025 19.4128 33.1837 19.3914 33.1787C19.3676 33.1742 19.3488 33.1787 19.3319 33.1975C19.3156 33.2144 19.3036 33.2427 19.2942 33.2829C19.2942 33.2853 19.2942 33.2878 19.2942 33.2878L19.1876 33.7184L19.6231 33.6236C19.6444 33.6192 19.6613 33.6142 19.6777 33.6048C19.692 33.5978 19.7035 33.5884 19.7129 33.579C19.7342 33.5552 19.7392 33.5289 19.7297 33.5006C19.7203 33.4723 19.694 33.4366 19.6514 33.3989L19.64 33.3895L19.6801 33.3469L20.0849 33.7233ZM18.1414 32.1896C18.203 32.135 18.2387 32.0854 18.2436 32.0383C18.2481 31.9932 18.2292 31.9386 18.1816 31.8796L18.2268 31.8419L18.8255 32.5304L18.7808 32.5681C18.7287 32.514 18.6786 32.4852 18.634 32.4852C18.5864 32.4852 18.5323 32.5115 18.4708 32.5661L17.6965 33.2382C17.635 33.2923 17.5998 33.3419 17.5948 33.3895C17.5904 33.4366 17.6092 33.4887 17.6563 33.5482L17.6117 33.5859L17.0125 32.897L17.0576 32.8568C17.1097 32.9113 17.1593 32.9396 17.2044 32.9396C17.2496 32.9396 17.3036 32.9138 17.3676 32.8593L18.1414 32.1896ZM17.1762 32.0522L17.2044 32.0924L16.8235 32.4808C16.8141 32.4902 16.8091 32.4971 16.8046 32.4996C16.7997 32.5021 16.7952 32.5066 16.7903 32.5091C16.757 32.5329 16.7238 32.5423 16.6886 32.5373C16.6553 32.5329 16.6271 32.514 16.6033 32.4833C16.5794 32.45 16.5725 32.4168 16.5794 32.386C16.5869 32.3528 16.6057 32.3245 16.641 32.3007C16.6459 32.2982 16.6504 32.2938 16.6578 32.2913C16.6623 32.2888 16.6717 32.2844 16.6816 32.2794L17.1762 32.0522ZM17.4103 31.1767C17.4291 31.1718 17.446 31.1673 17.4599 31.1623C17.4743 31.1579 17.4862 31.1504 17.4981 31.146C17.5333 31.1246 17.5522 31.0983 17.5546 31.0656C17.5571 31.0348 17.5427 30.9942 17.5145 30.947L17.5026 30.9282L17.5522 30.8974L17.8101 31.3092L17.7605 31.3399C17.7392 31.3067 17.7109 31.2853 17.6752 31.2734C17.64 31.262 17.5923 31.262 17.5358 31.2734L16.0591 31.5433L15.9644 31.392L16.8706 30.1683C16.9038 30.1236 16.9227 30.0854 16.9277 30.0572C16.9321 30.0289 16.9252 30.0001 16.9063 29.9694L16.9559 29.9386L17.4058 30.6584L17.3557 30.6891C17.3111 30.6182 17.2779 30.5755 17.2565 30.5611C17.2352 30.5492 17.2094 30.5517 17.1782 30.5706C17.1687 30.578 17.1573 30.5849 17.1474 30.5944C17.138 30.6038 17.1285 30.6132 17.1216 30.6251L16.9321 30.8667L17.1548 31.2238L17.4103 31.1767ZM17.0457 31.2476L16.8637 30.9565L16.568 31.3399L17.0457 31.2476ZM15.6142 30.1708C15.5383 30.204 15.4911 30.2442 15.4718 30.2844C15.453 30.327 15.4579 30.3836 15.4837 30.4525L15.4296 30.4763L15.1573 29.8657L15.699 28.7863L15.1122 29.0487C15.0368 29.082 14.9892 29.1202 14.9703 29.1623C14.9515 29.205 14.9559 29.2595 14.9847 29.333L14.9301 29.3568L14.7168 28.8811L14.7714 28.8573C14.8046 28.9237 14.8423 28.9659 14.8875 28.9803C14.9326 28.9947 14.9916 28.9852 15.0675 28.952L16.2719 28.4173L16.3453 28.583L15.6067 30.0572L16.504 29.6574C16.5794 29.6241 16.6271 29.5864 16.6459 29.5438C16.6648 29.5011 16.6603 29.4441 16.634 29.3756L16.6886 29.3518L16.9014 29.8275L16.8473 29.8513C16.8141 29.7848 16.7759 29.7422 16.7312 29.7283C16.6861 29.7139 16.6271 29.7233 16.5512 29.7566L15.6142 30.1708ZM15.0839 26.2799L14.3691 26.4312C14.2888 26.448 14.2342 26.4763 14.2059 26.512C14.1796 26.5497 14.1702 26.6043 14.1821 26.6777L14.1256 26.6896L14.0164 26.1807L14.0735 26.1688C14.0923 26.2422 14.1206 26.2893 14.1633 26.3131C14.2035 26.3369 14.265 26.3389 14.3453 26.3225L15.0556 26.1713C15.1667 26.1474 15.254 26.138 15.323 26.1425C15.389 26.1474 15.4505 26.1638 15.505 26.1926C15.5785 26.2328 15.64 26.2943 15.692 26.3791C15.7441 26.4644 15.7818 26.5641 15.8081 26.6822C15.8533 26.893 15.8389 27.0587 15.7655 27.1817C15.692 27.3047 15.5596 27.3875 15.3676 27.4277L14.6152 27.5889C14.5348 27.6053 14.4802 27.6336 14.452 27.6718C14.4237 27.7095 14.4162 27.766 14.4282 27.8394L14.3716 27.8513L14.1821 26.959L14.2392 26.9475C14.258 27.0205 14.2888 27.0681 14.3289 27.0919C14.3691 27.1152 14.4282 27.1177 14.511 27.1013L15.3701 26.9188C15.4911 26.893 15.5715 26.8503 15.6161 26.7913C15.6613 26.7318 15.6732 26.6489 15.6494 26.5448C15.6236 26.4218 15.5621 26.3389 15.4698 26.2943C15.3751 26.2491 15.2471 26.2447 15.0839 26.2799ZM14.2367 25.5299C14.1538 25.5368 14.0968 25.5557 14.0641 25.5889C14.0308 25.6221 14.0164 25.6762 14.0189 25.7521L13.9599 25.7571L13.9123 25.0894L14.7927 24.261L14.1514 24.3062C14.0685 24.3106 14.012 24.33 13.9787 24.3627C13.948 24.396 13.9311 24.4505 13.9336 24.5264L13.8746 24.5309L13.8389 24.01L13.8984 24.0056C13.9078 24.079 13.9291 24.1311 13.9668 24.1594C14.0021 24.1876 14.0641 24.1995 14.1469 24.1951L15.4604 24.1028L15.4718 24.2824L14.2719 25.4183L15.2521 25.3498C15.3349 25.3429 15.3914 25.324 15.4247 25.2908C15.4579 25.2576 15.4718 25.203 15.4698 25.1271L15.5288 25.1226L15.5641 25.641L15.505 25.6455C15.4981 25.572 15.4743 25.5205 15.4391 25.4917C15.4009 25.4634 15.3418 25.4515 15.259 25.4565L14.2367 25.5299ZM15.2233 22.9664C15.3061 22.9738 15.3657 22.9619 15.4009 22.9337C15.4366 22.9049 15.4604 22.8528 15.4698 22.7774L15.5288 22.7819L15.4649 23.6931L15.4058 23.6886C15.4083 23.6127 15.3914 23.5582 15.3607 23.5249C15.3275 23.4922 15.2709 23.4728 15.1881 23.4659L14.1658 23.395C14.0829 23.39 14.0234 23.4019 13.9857 23.4307C13.948 23.459 13.9267 23.511 13.9172 23.5845L13.8577 23.5795L13.9217 22.6683L13.9832 22.6732C13.9812 22.7486 13.9976 22.8032 14.0284 22.8364C14.0591 22.8697 14.1181 22.8885 14.1985 22.893L15.2233 22.9664ZM15.6945 21.8895L14.2059 22.207C14.1325 22.2233 14.0829 22.2422 14.0541 22.266C14.0259 22.2898 14.007 22.323 13.9976 22.3702L13.9386 22.3607L14.0829 21.5373L14.1419 21.5468L14.1395 21.5606C14.13 21.6102 14.13 21.646 14.1395 21.6698C14.1489 21.6931 14.1677 21.7075 14.1985 21.7124C14.2059 21.7144 14.2154 21.7144 14.2273 21.7124C14.2367 21.7124 14.2506 21.7099 14.2719 21.7075L15.1122 21.5299L14.4212 21.0924C14.4048 21.0805 14.388 21.073 14.3741 21.0686C14.3597 21.0636 14.3478 21.0592 14.3359 21.0567C14.3027 21.0517 14.2769 21.0611 14.2531 21.0849C14.2317 21.1088 14.2154 21.1514 14.201 21.208L14.1419 21.1985L14.2248 20.7253L14.2838 20.7347C14.2793 20.7749 14.2888 20.8151 14.3126 20.8553C14.3359 20.896 14.3741 20.9312 14.4237 20.9619L15.7134 21.7878L15.6945 21.8895ZM15.8508 20.8979L15.7937 20.8791C15.8151 20.8082 15.8126 20.7511 15.7893 20.7109C15.7655 20.6708 15.7134 20.6375 15.6355 20.6117L14.6603 20.2948C14.5819 20.2685 14.5204 20.266 14.4778 20.2853C14.4356 20.3042 14.3999 20.3488 14.3741 20.4178L14.3195 20.4009L14.755 19.0592L15.1737 19.1941L15.1573 19.2486C15.0343 19.2273 14.9396 19.2367 14.8731 19.2794C14.8071 19.322 14.7526 19.4094 14.7099 19.5418L14.639 19.7595L15.2352 19.954L15.2426 19.9277C15.2709 19.8424 15.266 19.7739 15.2307 19.7169C15.195 19.6603 15.1241 19.6083 15.013 19.5611L15.0318 19.5041L15.7679 19.7432L15.7491 19.7997C15.6305 19.7739 15.5383 19.7739 15.4768 19.7997C15.4153 19.826 15.3701 19.8826 15.3418 19.9704L15.3349 19.9892L15.8081 20.143C15.8815 20.1668 15.9311 20.1718 15.9549 20.1524C15.9783 20.136 16.0045 20.0815 16.0353 19.9892C16.0824 19.8473 16.0874 19.7288 16.0517 19.6321C16.0164 19.5373 15.9361 19.4495 15.8106 19.3692L15.8319 19.3077L16.2883 19.5537L15.8508 20.8979ZM15.9644 18.2377L15.9783 18.2094C16.0209 18.1197 16.0303 18.0413 15.9996 17.9728C15.9713 17.9044 15.9053 17.8449 15.7987 17.7953C15.6896 17.7432 15.5998 17.7268 15.5288 17.7481C15.4579 17.7695 15.3964 17.8335 15.3468 17.9371L15.9644 18.2377ZM16.452 18.4768C16.5298 18.515 16.5889 18.5264 16.634 18.5125C16.6791 18.4981 16.7193 18.4535 16.757 18.3821L16.8116 18.4059L16.4043 19.2412L16.3523 19.2154C16.383 19.1469 16.3905 19.0924 16.3711 19.0472C16.3523 19.0046 16.3076 18.9644 16.2342 18.9267L15.3136 18.4768C15.2377 18.4416 15.1786 18.4297 15.1335 18.4416C15.0884 18.4555 15.0482 18.4937 15.013 18.5596L14.9609 18.5339L15.3513 17.7338C15.446 17.5373 15.5527 17.4074 15.6682 17.3364C15.7843 17.2675 15.9053 17.263 16.0328 17.3245C16.1181 17.3672 16.1796 17.4287 16.2173 17.5091C16.2555 17.5919 16.265 17.6842 16.2461 17.7858L16.8875 17.7432C16.9559 17.7387 17.008 17.7293 17.0412 17.7124C17.0745 17.6961 17.1028 17.6698 17.1241 17.6321L17.1762 17.6579L16.9158 18.1931L16.0755 18.2308L16.0517 18.2784L16.452 18.4768ZM17.318 17.4877L16.8374 17.1514L16.8731 17.1018C16.9986 17.1658 17.131 17.1802 17.2684 17.1445C17.4058 17.1093 17.5145 17.0334 17.5948 16.9198C17.6469 16.8464 17.6707 16.7729 17.6682 16.7045C17.6658 16.6336 17.6375 16.5815 17.5829 16.5433C17.5001 16.4843 17.3344 16.5314 17.0884 16.6807C17.0859 16.6832 17.0859 16.6832 17.0859 16.6832C17.072 16.6926 17.0482 16.7065 17.0199 16.7258C16.8518 16.83 16.7168 16.8841 16.6127 16.8865C16.568 16.8865 16.5229 16.8816 16.4802 16.8677C16.4376 16.8558 16.3974 16.8344 16.3597 16.8087C16.2387 16.7233 16.1702 16.6073 16.1558 16.4604C16.1419 16.3136 16.1846 16.1673 16.2838 16.0249C16.3384 15.947 16.4118 15.8761 16.5016 15.8146C16.5913 15.7531 16.639 15.7149 16.6434 15.708C16.6578 15.6866 16.6623 15.6678 16.6553 15.6489C16.6484 15.6321 16.6295 15.6088 16.5963 15.5825L16.6315 15.5304L17.0551 15.8265L17.0244 15.8712C16.9108 15.8191 16.7952 15.8096 16.6791 15.8454C16.5606 15.8781 16.4659 15.9495 16.3924 16.0537C16.3478 16.1197 16.324 16.1812 16.3265 16.2427C16.3289 16.3042 16.3547 16.3518 16.4024 16.385C16.4733 16.4346 16.6033 16.3989 16.7878 16.2809C16.7972 16.2734 16.8066 16.269 16.8116 16.2665C16.9465 16.1812 17.0437 16.1246 17.1052 16.0959C17.1643 16.0676 17.2163 16.0512 17.261 16.0438C17.3275 16.0344 17.389 16.0368 17.4505 16.0512C17.5095 16.0651 17.5665 16.0914 17.6211 16.1291C17.7511 16.2194 17.822 16.3399 17.8389 16.4912C17.8552 16.643 17.8081 16.7943 17.7039 16.9436C17.6444 17.0284 17.5665 17.1068 17.4718 17.1777C17.3771 17.2486 17.3275 17.2888 17.323 17.2958C17.3061 17.3171 17.3017 17.3409 17.3086 17.3672C17.3131 17.3905 17.3299 17.4143 17.3557 17.4381L17.318 17.4877ZM18.442 15.4738C18.506 15.5279 18.5606 15.5517 18.6057 15.5517C18.6529 15.5492 18.7 15.521 18.7521 15.4664L18.7972 15.5046L18.2104 16.205L18.1653 16.1673C18.2104 16.1078 18.2317 16.0537 18.2243 16.0086C18.2173 15.9634 18.1816 15.9138 18.1201 15.8593L17.3344 15.199C17.2709 15.1469 17.2163 15.1212 17.1687 15.1231C17.1216 15.1256 17.0745 15.1539 17.0224 15.2085L16.9773 15.1708L17.5641 14.4723L17.6092 14.5105C17.5641 14.572 17.5427 14.6241 17.5502 14.6688C17.5571 14.7139 17.5904 14.7635 17.6543 14.8156L18.442 15.4738ZM18.8944 13.1663L19.1831 13.4644L19.1429 13.5046C19.0576 13.4312 18.9792 13.3955 18.9083 13.3955C18.8374 13.3955 18.764 13.4337 18.6861 13.5091L18.6102 13.5805L19.453 14.4535C19.5095 14.5125 19.5616 14.5433 19.6092 14.5482C19.6538 14.5532 19.7059 14.5294 19.763 14.4773L19.8032 14.52L19.1474 15.1539L19.1072 15.1117C19.1593 15.0596 19.1831 15.0076 19.1831 14.9599C19.1806 14.9128 19.1524 14.8583 19.0953 14.7992L18.2531 13.9257L18.1772 13.9991C18.0988 14.075 18.0586 14.1484 18.0566 14.2169C18.0541 14.2878 18.0874 14.3662 18.1583 14.4535L18.1157 14.4937L17.822 14.2005L18.8944 13.1663ZM20.5794 13.0006L20.8468 13.3841C20.8939 13.4525 20.9415 13.4902 20.9842 13.5021C21.0288 13.514 21.0834 13.4976 21.1474 13.457L21.1806 13.5046L20.4326 14.0274L20.3994 13.9803C20.4584 13.9351 20.4916 13.8905 20.4966 13.8429C20.5011 13.7958 20.4797 13.7387 20.4326 13.6703L20.2198 13.3647L19.4668 13.0076C19.4029 12.9768 19.3508 12.9604 19.3131 12.9604C19.2754 12.9604 19.2372 12.9719 19.202 12.9957L19.1662 12.9461L19.8597 12.4609L19.8954 12.5105C19.8597 12.5344 19.8364 12.5577 19.827 12.577C19.817 12.5959 19.817 12.6147 19.8314 12.6336C19.8364 12.6405 19.8433 12.6479 19.8503 12.6549C19.8577 12.6618 19.8671 12.6668 19.8786 12.6713L20.4609 12.9649L20.3875 12.3637C20.3875 12.3498 20.383 12.333 20.3781 12.3191C20.3736 12.3047 20.3661 12.2928 20.3592 12.2809C20.3448 12.2595 20.3215 12.2501 20.2927 12.2551C20.2645 12.2595 20.2268 12.2764 20.1866 12.3047L20.1772 12.3116L20.1414 12.262L20.5155 11.9991L20.5512 12.0492L20.5412 12.0562C20.5179 12.0725 20.4991 12.0964 20.4892 12.1296C20.4797 12.1603 20.4778 12.198 20.4847 12.2457L20.5794 13.0006ZM22.8161 12.5319C22.9247 12.4847 22.9817 12.3945 22.9887 12.262C22.9956 12.1296 22.951 11.959 22.8582 11.7462C22.7496 11.5046 22.6454 11.3389 22.5437 11.2491C22.442 11.1594 22.3329 11.14 22.2218 11.1901C22.1132 11.2397 22.0561 11.3295 22.0512 11.4644C22.0467 11.5993 22.0938 11.7794 22.196 12.0066C22.2952 12.2313 22.3969 12.3875 22.5011 12.4748C22.6003 12.5601 22.7069 12.579 22.8161 12.5319ZM23.3245 11.5021C23.4286 11.7367 23.4406 11.957 23.3552 12.1603C23.2724 12.3637 23.1067 12.52 22.8607 12.6311C22.6147 12.7402 22.3875 12.7591 22.1816 12.6832C21.9758 12.6097 21.8195 12.4535 21.7154 12.2194C21.6112 11.9828 21.5993 11.7625 21.6821 11.5616C21.765 11.3578 21.9306 11.2015 22.1767 11.0929C22.4252 10.9818 22.6524 10.9649 22.8582 11.0383C23.0621 11.1093 23.2183 11.2655 23.3245 11.5021ZM23.8974 12.146L23.883 12.0894C23.9544 12.0681 24.0016 12.0373 24.0229 11.9947C24.0442 11.952 24.0442 11.8905 24.0229 11.8121L23.758 10.8206C23.7367 10.7402 23.7059 10.6881 23.6677 10.6623C23.6276 10.636 23.573 10.6316 23.4996 10.6479L23.4857 10.5914L24.8275 10.2313L24.9411 10.6549L24.8795 10.6718C24.8299 10.5557 24.7684 10.4823 24.6975 10.449C24.6266 10.4158 24.5224 10.4183 24.3875 10.454L24.198 10.5061L24.3612 11.1142L24.3895 11.1073C24.4842 11.081 24.5507 11.0383 24.5839 10.9793C24.6191 10.9203 24.6286 10.8349 24.6097 10.7258L24.6712 10.7094L24.8582 11.4098L24.7967 11.4267C24.7565 11.3225 24.7069 11.2536 24.6479 11.2209C24.5884 11.1876 24.5105 11.1827 24.4133 11.2065L24.385 11.2134L24.5105 11.6777C24.5318 11.7581 24.5626 11.8101 24.6028 11.8359C24.6429 11.8622 24.6975 11.8667 24.7709 11.8503L24.7873 11.9069L23.8974 12.146ZM26.0606 11.6584L25.9897 11.0765L26.0487 11.0691C26.0844 11.204 26.1623 11.3131 26.2808 11.391C26.3989 11.4694 26.5293 11.5001 26.6687 11.4833C26.7585 11.4714 26.8299 11.4431 26.8795 11.3935C26.9291 11.3464 26.9505 11.2868 26.9435 11.2209C26.9316 11.1192 26.7873 11.0289 26.5105 10.9461C26.508 10.9461 26.5055 10.9461 26.5055 10.9461C26.4892 10.9416 26.4629 10.9342 26.4296 10.9247C26.2382 10.8707 26.1077 10.8067 26.0368 10.7308C26.006 10.6975 25.9802 10.6598 25.9614 10.6197C25.942 10.5795 25.9306 10.5368 25.9232 10.4892C25.9043 10.3429 25.947 10.2149 26.0462 10.1038C26.1459 9.99467 26.2828 9.9287 26.4559 9.90737C26.5507 9.89546 26.6499 9.90241 26.7585 9.9287C26.8652 9.95449 26.9242 9.96391 26.9341 9.96391C26.9599 9.96143 26.9763 9.95002 26.9862 9.93316C26.9956 9.91679 26.9976 9.88604 26.9956 9.84338L27.0591 9.83594L27.1231 10.3498L27.069 10.3568C27.0308 10.2387 26.9599 10.1465 26.8557 10.0825C26.7516 10.0185 26.6355 9.99219 26.5105 10.0091C26.4296 10.0185 26.3681 10.0443 26.3255 10.0869C26.2808 10.1296 26.264 10.1792 26.2714 10.2387C26.2808 10.3235 26.3944 10.3969 26.6072 10.4565C26.6191 10.4585 26.6286 10.4634 26.6335 10.4634C26.7873 10.5061 26.8934 10.5413 26.9549 10.5676C27.0169 10.5934 27.0641 10.6197 27.0973 10.6479C27.1469 10.6906 27.1871 10.7402 27.2178 10.7948C27.2461 10.8493 27.2655 10.9084 27.2749 10.9743C27.2937 11.1306 27.2536 11.2655 27.1519 11.3791C27.0497 11.4907 26.9078 11.5592 26.7258 11.5805C26.6216 11.5924 26.5125 11.5874 26.3964 11.5661C26.2808 11.5448 26.2193 11.5329 26.2099 11.5353C26.1836 11.5378 26.1623 11.5497 26.1484 11.5711C26.134 11.5924 26.1271 11.6182 26.1271 11.6539L26.0606 11.6584ZM29.1489 11.1594C29.0685 11.2824 28.9693 11.3746 28.8508 11.4361C28.7327 11.4976 28.6003 11.5284 28.451 11.5259C28.3418 11.5234 28.2402 11.5046 28.1479 11.4644C28.0556 11.4267 27.9703 11.3697 27.8994 11.2963C27.819 11.2159 27.7575 11.1236 27.7173 11.015C27.6772 10.9059 27.6583 10.7853 27.6603 10.6549C27.6653 10.4089 27.7456 10.2099 27.9019 10.0587C28.0581 9.90737 28.259 9.83395 28.5031 9.83842C28.6072 9.8409 28.7089 9.85975 28.8106 9.89546C28.9123 9.93068 28.9644 9.94754 28.9718 9.94754C28.9951 9.94754 29.014 9.94258 29.0259 9.93068C29.0378 9.91877 29.0497 9.89546 29.0591 9.86223H29.1206L29.1112 10.3781H29.0497C29.0308 10.2501 28.9832 10.1484 28.9103 10.0775C28.8369 10.0066 28.7421 9.96887 28.6286 9.96639C28.4911 9.96391 28.3845 10.021 28.3111 10.1365C28.2382 10.2526 28.2 10.4257 28.1955 10.6529C28.1906 10.8915 28.2238 11.0716 28.2922 11.1946C28.3612 11.3176 28.4629 11.3816 28.6003 11.3841C28.6876 11.3865 28.7704 11.3627 28.8508 11.3156C28.9311 11.268 29.007 11.197 29.0735 11.1048L29.1489 11.1594ZM30.1196 11.3697C30.1077 11.4525 30.1122 11.512 30.1385 11.5497C30.1643 11.5874 30.2139 11.6157 30.2873 11.6326L30.2779 11.6916L29.3761 11.5497L29.386 11.4907C29.4614 11.5001 29.516 11.4882 29.5517 11.4599C29.5869 11.4312 29.6132 11.3746 29.6246 11.2943L29.7858 10.2809C29.7977 10.198 29.7927 10.139 29.7669 10.0988C29.7407 10.0587 29.6911 10.0324 29.6176 10.0185L29.6271 9.95945L30.5288 10.1013L30.5194 10.1603C30.4435 10.1534 30.387 10.1628 30.3513 10.1911C30.3161 10.2194 30.2922 10.2764 30.2779 10.3568L30.1196 11.3697ZM30.4837 11.7154L30.4981 11.6584C30.5715 11.6752 30.6281 11.6703 30.6662 11.642C30.7039 11.6157 30.7347 11.5616 30.7536 11.4813L31.0021 10.4872C31.0209 10.4064 31.0209 10.3449 31.0001 10.3047C30.9787 10.2645 30.9311 10.2313 30.8602 10.2099L30.8746 10.1534L32.2446 10.4942L32.1385 10.9203L32.0839 10.9059C32.0958 10.7804 32.0789 10.6856 32.0318 10.6241C31.9842 10.5601 31.8944 10.513 31.757 10.4798L31.5348 10.4257L31.383 11.0339L31.4068 11.0408C31.4921 11.0621 31.5631 11.0527 31.6176 11.015C31.6722 10.9743 31.7193 10.8989 31.7595 10.7878L31.8185 10.8017L31.6315 11.5522L31.5725 11.5378C31.5913 11.4173 31.5844 11.327 31.5536 11.2655C31.5229 11.2065 31.4639 11.1638 31.3761 11.1425L31.3572 11.138L31.2367 11.6207C31.2178 11.6966 31.2178 11.7462 31.2367 11.7675C31.2555 11.7913 31.3121 11.8121 31.4043 11.8359C31.5487 11.8717 31.6697 11.8692 31.762 11.829C31.8542 11.7888 31.9371 11.701 32.008 11.5686L32.072 11.5849L31.8592 12.0587L30.4837 11.7154ZM32.8979 11.0408C32.9311 10.9649 32.9381 10.9034 32.9242 10.8607C32.9098 10.8161 32.8671 10.7779 32.8007 10.7471L32.8245 10.6931L33.4401 10.9535L33.7784 12.1127L34.0293 11.5215C34.0626 11.4456 34.0695 11.3865 34.0551 11.3414C34.0412 11.2987 33.9986 11.261 33.9296 11.2278L33.9535 11.1732L34.4316 11.3771L34.4078 11.4312C34.3369 11.4054 34.2823 11.4004 34.2397 11.4218C34.1975 11.4406 34.1593 11.4907 34.1286 11.5661L33.6127 12.7779L33.447 12.707L32.9807 11.1236L32.5973 12.0279C32.5641 12.1033 32.5571 12.1628 32.5715 12.2075C32.5854 12.2501 32.6281 12.2903 32.697 12.3235L32.6732 12.3781L32.1925 12.1742L32.2163 12.1202C32.2848 12.146 32.3418 12.1509 32.3845 12.1296C32.4272 12.1107 32.4649 12.0606 32.4956 11.9852L32.8979 11.0408ZM35.4539 13.4882C35.324 13.5542 35.1911 13.5849 35.0561 13.578C34.9237 13.573 34.7937 13.5304 34.6658 13.455C34.571 13.3979 34.4956 13.3295 34.4316 13.2511C34.3701 13.1708 34.325 13.081 34.2992 12.9813C34.2684 12.8726 34.2635 12.7591 34.2823 12.6455C34.3012 12.5294 34.3463 12.4158 34.4128 12.3047C34.5403 12.0939 34.7084 11.9614 34.9192 11.9094C35.1295 11.8573 35.3404 11.893 35.5512 12.0185C35.641 12.0725 35.7188 12.139 35.7903 12.2194C35.8587 12.2997 35.8964 12.3424 35.9038 12.3473C35.9227 12.3593 35.9415 12.3637 35.9579 12.3593C35.9748 12.3543 35.9961 12.3399 36.0219 12.3166L36.074 12.3473L35.8091 12.7898L35.757 12.7591C35.8041 12.6385 35.8136 12.5269 35.7878 12.4277C35.7595 12.3285 35.6975 12.2501 35.6008 12.1911C35.4822 12.1202 35.3617 12.1177 35.2412 12.1817C35.1181 12.2457 34.9996 12.3756 34.881 12.5696C34.758 12.7734 34.6965 12.9461 34.694 13.0879C34.692 13.2298 34.7486 13.334 34.8647 13.4054C34.9381 13.45 35.0234 13.4714 35.1181 13.4689C35.2124 13.4689 35.3121 13.4431 35.4182 13.3979L35.4539 13.4882ZM35.4659 13.9376L35.5036 13.8925C35.5631 13.9376 35.6147 13.9565 35.6623 13.9495C35.7094 13.9426 35.757 13.9069 35.8111 13.8429L36.4574 13.0453C36.5095 12.9813 36.5333 12.9247 36.5308 12.8796C36.5284 12.8325 36.5001 12.7848 36.443 12.7352L36.4812 12.6906L37.577 13.578L37.2977 13.9163L37.2526 13.8811C37.3165 13.7719 37.3423 13.6797 37.326 13.6038C37.3096 13.5259 37.2481 13.4456 37.139 13.3553L36.9614 13.2109L36.5665 13.6985L36.5874 13.7154C36.6563 13.7695 36.7223 13.7933 36.7888 13.7789C36.8552 13.7675 36.9287 13.7174 37.0135 13.6326L37.0611 13.6703L36.5735 14.2715L36.5259 14.2333C36.5948 14.1316 36.6256 14.0468 36.6231 13.9803C36.6206 13.9138 36.5829 13.8503 36.5145 13.7933L36.5001 13.7814L36.1851 14.1698C36.1355 14.2288 36.1166 14.2739 36.1236 14.3022C36.131 14.3305 36.1732 14.3756 36.2466 14.4346C36.3627 14.5294 36.4718 14.5765 36.5735 14.579C36.6752 14.5815 36.7863 14.5363 36.9073 14.4466L36.9594 14.4892L36.5665 14.8275L35.4659 13.9376ZM37.8562 15.9282C37.88 15.8096 37.9108 15.6961 37.946 15.5894C37.9817 15.4833 38.0244 15.3836 38.0715 15.2913C38.0288 15.2794 37.9887 15.2774 37.951 15.2868C37.9128 15.2938 37.8776 15.3126 37.8443 15.3389C37.8086 15.3697 37.7759 15.4049 37.7496 15.45C37.7238 15.4952 37.7044 15.5398 37.695 15.5874C37.6856 15.6415 37.6856 15.6891 37.695 15.7318C37.7044 15.7744 37.7213 15.8121 37.7496 15.8454C37.764 15.8617 37.7779 15.8761 37.7947 15.89C37.8136 15.9019 37.8349 15.9163 37.8562 15.9282ZM37.8394 16.0438C37.7471 16.0249 37.6667 15.9917 37.5933 15.9495C37.5199 15.9069 37.4564 15.8498 37.4019 15.7814C37.3215 15.6817 37.2858 15.5755 37.2927 15.4619C37.3022 15.3483 37.3523 15.2536 37.4445 15.1777C37.5274 15.1117 37.6266 15.0785 37.7426 15.081C37.8587 15.083 37.9862 15.1212 38.1261 15.1946C38.1593 15.1425 38.1901 15.0973 38.2183 15.0616C38.2491 15.0239 38.2774 14.9957 38.3056 14.9719C38.4123 14.8865 38.5284 14.8513 38.6538 14.8652C38.7793 14.8796 38.8855 14.9436 38.9758 15.0522C39.0442 15.135 39.0775 15.2228 39.075 15.3126C39.075 15.4024 39.0393 15.4758 38.9708 15.5304C38.9068 15.5825 38.8334 15.6038 38.7461 15.5988C38.6583 15.5944 38.5591 15.5587 38.4406 15.4952C38.4004 15.5944 38.3696 15.6817 38.3458 15.76C38.3225 15.8379 38.3056 15.9113 38.2942 15.9847C38.3508 15.9847 38.4029 15.9778 38.448 15.9659C38.4926 15.9515 38.5308 15.9351 38.5591 15.9113C38.5874 15.888 38.6042 15.8642 38.6112 15.8379C38.6181 15.8121 38.6137 15.7839 38.6018 15.7481L38.6419 15.7149L38.9306 16.0701L38.8905 16.1033C38.8334 16.0438 38.7059 16.0299 38.5095 16.0582C38.4148 16.0725 38.3364 16.0795 38.2798 16.0864C38.2585 16.1673 38.2491 16.2357 38.2491 16.2923C38.2491 16.3493 38.2585 16.3895 38.2774 16.4133C38.2917 16.4297 38.3081 16.4441 38.327 16.4535C38.3458 16.4629 38.3696 16.4723 38.3979 16.4748L38.4053 16.5314C38.2679 16.5408 38.1613 16.5363 38.0859 16.5175C38.01 16.4986 37.951 16.458 37.9058 16.4014C37.8701 16.3588 37.8468 16.3067 37.8374 16.2476C37.823 16.1886 37.8255 16.1221 37.8394 16.0438ZM38.4882 15.391C38.5328 15.4123 38.578 15.4218 38.6231 15.4168C38.6677 15.4123 38.7079 15.3955 38.7436 15.3647C38.7982 15.3196 38.8384 15.2655 38.8597 15.199C38.881 15.1331 38.8786 15.0854 38.8528 15.0522C38.8359 15.0309 38.8146 15.0215 38.7863 15.0239C38.758 15.0264 38.7317 15.0383 38.7035 15.0596C38.6702 15.0854 38.635 15.1281 38.5968 15.1871C38.5591 15.2467 38.5214 15.3151 38.4882 15.391ZM40.6915 17.7526L40.3319 17.9609L40.3032 17.9113C40.3954 17.8449 40.4475 17.7789 40.4644 17.7099C40.4807 17.6415 40.4619 17.5611 40.4073 17.4664L40.3552 17.3766L39.3046 17.9823C39.2337 18.0249 39.1911 18.0676 39.1742 18.1102C39.1603 18.1529 39.1697 18.2094 39.2049 18.2784L39.1529 18.3092L38.6965 17.5185L38.7486 17.4902C38.7888 17.5542 38.8314 17.5894 38.8761 17.5988C38.9212 17.6083 38.9802 17.5919 39.0537 17.5517L40.1047 16.9436L40.0527 16.8533C39.9981 16.7586 39.9366 16.702 39.8701 16.6832C39.8041 16.6643 39.7188 16.6757 39.6171 16.7233L39.5864 16.6713L39.946 16.4629L40.6915 17.7526ZM39.3919 18.7442L39.4465 18.7233C39.4773 18.7918 39.513 18.8344 39.5576 18.8483C39.6028 18.8652 39.6618 18.8558 39.7402 18.825L40.6915 18.4416C40.7669 18.4108 40.817 18.3726 40.8359 18.3325C40.8572 18.2898 40.8547 18.2333 40.8289 18.1643L40.883 18.1435L41.4108 19.452L41.004 19.6152L40.9827 19.5631C41.0913 19.4991 41.1578 19.4307 41.1811 19.3548C41.2049 19.2794 41.1911 19.1777 41.139 19.0472L41.0537 18.8344L40.4713 19.0686L40.4807 19.0924C40.514 19.1752 40.5611 19.2248 40.6251 19.2462C40.6891 19.2675 40.7769 19.2605 40.8924 19.2273L40.9162 19.2839L40.199 19.5725L40.1757 19.516C40.2843 19.459 40.3533 19.4024 40.384 19.3409C40.4148 19.2819 40.4123 19.2085 40.379 19.1231L40.3721 19.1043L39.9103 19.2913C39.8369 19.3196 39.7992 19.3478 39.7922 19.3786C39.7848 19.4069 39.7992 19.4664 39.8349 19.5537C39.8914 19.6936 39.9624 19.7883 40.0502 19.8379C40.1375 19.8875 40.256 19.9039 40.4048 19.8826L40.4287 19.9441L39.9222 20.0482L39.3919 18.7442ZM40.6821 21.8092C40.5447 21.762 40.4311 21.6861 40.3413 21.5869C40.2511 21.4872 40.192 21.3642 40.1588 21.2199C40.1355 21.1132 40.1281 21.0095 40.1449 20.9098C40.1588 20.8106 40.1945 20.7159 40.2491 20.6281C40.3056 20.5314 40.384 20.4485 40.4783 20.3821C40.5755 20.3161 40.6866 20.2685 40.8146 20.2402C41.0537 20.1856 41.2664 20.2139 41.451 20.33C41.636 20.4461 41.7565 20.6212 41.8111 20.8602C41.8344 20.9619 41.8418 21.0661 41.8299 21.1727C41.8205 21.2789 41.8156 21.3359 41.8156 21.3429C41.8205 21.3667 41.8299 21.3811 41.8463 21.3905C41.8607 21.3999 41.8865 21.4044 41.9222 21.4069L41.9361 21.4659L41.4321 21.582L41.4182 21.5229C41.5388 21.4733 41.6241 21.4024 41.6762 21.3146C41.7283 21.2248 41.7421 21.1251 41.7163 21.0165C41.6856 20.8816 41.6052 20.7938 41.4723 20.7511C41.3423 20.709 41.1648 20.7134 40.9425 20.763C40.7104 20.8176 40.5422 20.891 40.4381 20.9882C40.3339 21.0849 40.2987 21.1985 40.3294 21.331C40.3483 21.4163 40.391 21.4897 40.4569 21.5582C40.5234 21.6246 40.6112 21.6817 40.7173 21.7238L40.6821 21.8092ZM40.7461 22.7963C40.6633 22.8032 40.6062 22.8245 40.5755 22.8578C40.5447 22.891 40.5303 22.9451 40.5328 23.0234L40.4738 23.0279L40.3934 22.1192L40.4525 22.1147C40.4619 22.1881 40.4857 22.2402 40.5234 22.2685C40.5611 22.2968 40.6206 22.3062 40.7035 22.2992L41.7258 22.2095C41.8086 22.202 41.8652 22.1807 41.8959 22.1479C41.9291 22.1147 41.9411 22.0577 41.9386 21.9843L41.9981 21.9798L42.0785 22.8885L42.0189 22.893C42.0095 22.8176 41.9862 22.768 41.948 22.7392C41.9103 22.7109 41.8513 22.7015 41.7684 22.7085L41.3468 22.7417L41.3895 23.2318L41.8111 23.1936C41.8939 23.1866 41.9505 23.1653 41.9812 23.1321C42.012 23.0993 42.0264 23.0448 42.0239 22.9689L42.0829 22.9644L42.1638 23.8731L42.1042 23.8776C42.0948 23.8042 42.0735 23.7521 42.0358 23.7238C41.9981 23.6956 41.9386 23.6861 41.8557 23.6931L40.8334 23.7829C40.7506 23.7903 40.694 23.8116 40.6608 23.8444C40.6276 23.8801 40.6157 23.9346 40.6181 24.0081L40.5591 24.0125L40.4783 23.1038L40.5378 23.0993C40.5472 23.1747 40.5705 23.2268 40.6087 23.2531C40.6464 23.2789 40.7054 23.2908 40.7883 23.2839L41.2714 23.2412L41.2287 22.7511L40.7461 22.7963ZM41.8156 24.5026C41.8984 24.5071 41.9574 24.4932 41.9931 24.4649C42.0288 24.4361 42.0522 24.3841 42.0596 24.3087L42.1186 24.3106L42.0829 24.9783L41.1102 25.6931L41.7516 25.7263C41.8344 25.7308 41.8939 25.7189 41.9291 25.6906C41.9649 25.6623 41.9862 25.6102 41.9931 25.5344L42.0522 25.5368L42.0264 26.0577L41.9673 26.0552C41.9673 25.9793 41.9505 25.9272 41.9172 25.894C41.8845 25.8612 41.8275 25.8419 41.7446 25.8374L40.4287 25.769L40.4381 25.5889L41.766 24.6112L40.7838 24.5592C40.701 24.5547 40.6419 24.5666 40.6062 24.5973C40.5705 24.6256 40.5497 24.6777 40.5398 24.7536L40.4807 24.7511L40.509 24.2303L40.5685 24.2328C40.5661 24.3087 40.5824 24.3607 40.6157 24.3935C40.6489 24.4267 40.7079 24.4456 40.7908 24.4505L41.8156 24.5026ZM40.1945 27.0845C40.1662 27.198 40.2015 27.3002 40.3012 27.3875C40.4004 27.4728 40.5636 27.5463 40.7883 27.6003C41.0462 27.6643 41.2407 27.6832 41.3731 27.6574C41.5055 27.6311 41.5884 27.5582 41.6166 27.4396C41.6454 27.3235 41.6097 27.2219 41.5055 27.1365C41.4038 27.0517 41.2312 26.9783 40.9897 26.9168C40.7506 26.8573 40.5661 26.8409 40.4336 26.8692C40.3056 26.8974 40.2253 26.9689 40.1945 27.0845ZM40.694 28.1187C40.4455 28.0572 40.2655 27.9297 40.1563 27.7377C40.0477 27.5463 40.0264 27.3191 40.0904 27.0587C40.1563 26.7982 40.2818 26.6088 40.4668 26.4907C40.6534 26.3721 40.8711 26.3464 41.1196 26.4079C41.3706 26.4694 41.5507 26.5969 41.6593 26.7863C41.7684 26.9758 41.7898 27.203 41.7233 27.4654C41.6568 27.7283 41.5318 27.9203 41.3468 28.0358C41.1623 28.1544 40.9445 28.1827 40.694 28.1187Z" fill="white"/>
<path fill-rule="evenodd" clip-rule="evenodd" d="M39.8319 28.927C39.7654 28.8987 39.7158 28.8918 39.6801 28.9012C39.6449 28.9126 39.6166 28.9439 39.5953 28.998C39.5457 29.1115 39.5477 29.2251 39.5997 29.3367C39.6518 29.4479 39.7491 29.5471 39.8934 29.6349L39.8602 29.6914L39.316 29.3933L39.8388 28.1602L39.8934 28.184C39.8671 28.2524 39.8626 28.3095 39.884 28.3521C39.9053 28.3948 39.9524 28.4325 40.0283 28.4632L40.9728 28.863C41.0482 28.8963 41.1097 28.9032 41.1523 28.8893C41.1975 28.8749 41.2352 28.8323 41.2659 28.7663L41.3205 28.7896L40.9628 29.6299L40.9088 29.6061C40.9346 29.5352 40.9371 29.4786 40.9182 29.4359C40.8994 29.3933 40.8517 29.3576 40.7739 29.3248L39.8319 28.927ZM38.7902 30.4821C38.7287 30.5838 38.7337 30.6904 38.8046 30.8015C38.8755 30.9126 39.008 31.0287 39.2069 31.1492C39.4341 31.2866 39.6141 31.3625 39.7491 31.3764C39.884 31.3908 39.9832 31.3457 40.0472 31.2395C40.1087 31.1373 40.1042 31.0287 40.0308 30.9176C39.9574 30.804 39.815 30.6855 39.6022 30.558C39.3914 30.43 39.2188 30.361 39.0839 30.3496C38.949 30.3353 38.8522 30.3804 38.7902 30.4821ZM38.9658 31.618C38.7456 31.4856 38.6107 31.3129 38.563 31.0972C38.5134 30.8819 38.5611 30.6597 38.698 30.4275C38.8378 30.1959 39.0129 30.051 39.2238 29.9945C39.4366 29.9374 39.6518 29.9756 39.8721 30.1081C40.0943 30.2405 40.2292 30.4156 40.2768 30.6289C40.324 30.8417 40.2793 31.0644 40.1394 31.2961C40 31.5282 39.8249 31.675 39.6117 31.7316C39.4033 31.7886 39.1856 31.7504 38.9658 31.618ZM37.4911 32.3139L37.7868 32.553C37.8463 32.6026 37.8984 32.6239 37.9385 32.6215C37.9787 32.619 38.0239 32.5907 38.0759 32.5361L38.1231 32.5743L37.6097 33.2083L37.5621 33.1706C37.5953 33.1185 37.6072 33.0734 37.5978 33.0332C37.5883 32.993 37.5551 32.9479 37.4961 32.9032L37.2188 32.6785C37.2545 32.5456 37.2947 32.43 37.3418 32.3303C37.387 32.2286 37.4415 32.1433 37.5005 32.0699C37.6687 31.8615 37.8626 31.748 38.0829 31.7222C38.3031 31.6984 38.5159 31.7673 38.7193 31.935C38.8284 32.0252 38.9113 32.1244 38.9658 32.2356C39.0199 32.3472 39.0437 32.4627 39.0368 32.5858C39.0293 32.683 39.0105 32.7752 38.9752 32.863C38.9395 32.9528 38.8899 33.0357 38.8259 33.116C38.7902 33.1587 38.7525 33.1988 38.7123 33.2346C38.6722 33.2698 38.6226 33.3055 38.563 33.3407C38.5516 33.3482 38.5323 33.3601 38.5065 33.372C38.4614 33.3953 38.4331 33.4166 38.4187 33.431C38.4023 33.4523 38.3974 33.4712 38.3998 33.495C38.4023 33.5183 38.4167 33.5396 38.438 33.561L38.4048 33.6011L38.0045 33.2772L38.0377 33.2346C38.1563 33.2936 38.2699 33.3149 38.3785 33.2961C38.4901 33.2772 38.5799 33.2251 38.6533 33.1349C38.7431 33.0237 38.7644 32.8983 38.7148 32.7564C38.6652 32.6145 38.5492 32.4702 38.3691 32.3258C38.1821 32.174 38.0214 32.0843 37.8865 32.058C37.7515 32.0322 37.6424 32.0679 37.5645 32.1671C37.5482 32.1884 37.5338 32.2098 37.5219 32.2356C37.51 32.2569 37.5005 32.2857 37.4911 32.3139ZM36.691 34.0391L36.379 33.6914C36.3245 33.6299 36.2724 33.5967 36.2272 33.5917C36.1826 33.5872 36.1305 33.6086 36.069 33.6557L36.0283 33.613L36.7079 33.0024L36.7481 33.0451C36.6935 33.0972 36.6677 33.1468 36.6677 33.1944C36.6677 33.2415 36.696 33.2961 36.7505 33.3576L36.9991 33.6344L37.7892 33.8997C37.8557 33.9231 37.9103 33.9305 37.948 33.928C37.9857 33.9231 38.0214 33.9067 38.0546 33.8784L38.0948 33.9231L37.4653 34.489L37.4246 34.4439C37.4579 34.4156 37.4767 34.3893 37.4842 34.368C37.4911 34.3467 37.4886 34.3278 37.4723 34.3114C37.4653 34.304 37.4604 34.2995 37.4509 34.2946C37.444 34.2901 37.4321 34.2852 37.4202 34.2807L36.8071 34.0605L36.9514 34.6497C36.9539 34.6641 36.9589 34.6805 36.9658 34.6924C36.9728 34.7063 36.9797 34.7182 36.9896 34.7276C37.006 34.747 37.0298 34.7539 37.0581 34.7445C37.0864 34.7375 37.1196 34.7162 37.1573 34.6805L37.1667 34.6711L37.2074 34.7162L36.8686 35.0213L36.8284 34.9761L36.8378 34.9667C36.8592 34.9479 36.8736 34.9221 36.8805 34.8888C36.8874 34.8556 36.883 34.8204 36.8736 34.7728L36.691 34.0391Z" fill="white"/>
<path fill-rule="evenodd" clip-rule="evenodd" d="M28.0013 14.1953C33.4165 14.1953 37.8044 18.5857 37.8044 23.9984C37.8044 29.4106 33.4165 33.801 28.0013 33.801C22.5867 33.801 18.1963 29.4131 18.1963 24.0004C18.1963 18.5882 22.5867 14.1953 28.0013 14.1953ZM28.0013 15.0996C32.917 15.0996 36.9026 19.0852 36.9026 24.0004C36.9026 28.916 32.917 32.9017 28.0013 32.9017C23.0862 32.9017 19.1006 28.916 19.1006 24.0004C19.1006 19.0852 23.0862 15.0996 28.0013 15.0996Z" fill="#699F31"/>
<path fill-rule="evenodd" clip-rule="evenodd" d="M28.0015 15.5312C32.6781 15.5312 36.4722 19.3249 36.4722 24.0015C36.4722 28.6781 32.6781 32.4722 28.0015 32.4722C23.3249 32.4722 19.5312 28.6781 19.5312 24.0015C19.5312 19.3249 23.3249 15.5312 28.0015 15.5312Z" fill="#699F31"/>
<path fill-rule="evenodd" clip-rule="evenodd" d="M35.9697 26.5089C35.8467 26.7217 34.0575 25.5199 33.9296 25.437C33.7783 25.3398 33.0397 24.8973 32.9876 24.9092C32.8507 24.94 32.7773 25.0228 32.7723 25.0863C32.7604 25.2143 32.8576 25.2118 33.435 25.56C33.627 25.6756 33.9985 25.9291 34.4147 26.1964C34.7818 26.433 35.7475 27.001 35.5838 27.1741C35.4445 27.3204 34.4598 26.6558 34.1662 26.4901C33.7594 26.2579 32.7986 25.6429 32.5144 25.4936C32.3963 25.4321 32.311 25.7659 32.3041 25.818C32.2803 25.9648 32.7698 26.2203 32.9569 26.3314C33.2436 26.502 33.5273 26.7173 33.7733 26.8874C34.1548 27.1503 35.12 27.7703 34.9807 28.0139C34.8929 28.1682 34.4812 27.8011 33.8968 27.4058C33.3026 27.0035 32.5451 26.5585 32.4365 26.4807C32.3512 26.4192 32.0293 26.1895 31.9727 26.4073C31.88 26.7599 32.2044 26.8686 32.5784 27.1409C32.9569 27.4152 33.4112 27.7252 33.5486 27.8224C34.0833 28.2034 34.5496 28.6553 34.4033 28.8046C34.2728 28.937 34.0104 28.5724 33.4539 28.1821C32.8482 27.7584 32.0223 27.2614 31.9891 27.2475C31.7996 27.1597 31.4544 26.999 31.4777 26.7738C31.5015 26.5491 31.6528 26.123 31.7525 25.9221C31.7877 25.8462 31.757 25.7659 31.7049 25.7277C31.6126 25.6617 31.6458 25.5481 31.691 25.4678C31.7763 25.3209 31.8259 25.2828 31.9628 25.3115C32.0719 25.3328 32.2113 25.1151 32.4246 24.871C32.6374 24.63 32.7912 24.5352 32.9831 24.438C33.0422 24.4073 33.2743 24.4355 33.3145 24.5114C33.3309 24.5447 34.2778 25.2996 35.0704 25.7371C35.7168 26.1017 36.067 26.3433 35.9697 26.5089Z" fill="black"/>
<path fill-rule="evenodd" clip-rule="evenodd" d="M21.4545 25.8518C21.7268 25.7099 22.2571 25.4922 22.5195 25.5537C22.7824 25.6152 22.9312 25.7858 22.9833 25.8141C23.0354 25.8448 23.1941 25.8141 23.2556 25.9182C23.2839 25.9634 23.3052 26.1266 23.2958 26.4416C23.2913 26.6568 23.3196 26.95 23.2392 27.0874C23.0592 27.3974 21.8736 28.0864 21.6985 28.1147C21.523 28.1429 21.457 28.0556 21.2367 27.58C21.0165 27.1038 20.6926 26.8389 20.6524 26.517C20.6122 26.2258 21.1802 25.9966 21.4545 25.8518ZM22.517 26.5031C22.4793 26.446 22.515 26.4058 22.5383 26.3607C22.574 26.2947 22.6192 26.2352 22.6425 26.2188C22.704 26.1787 22.7303 26.259 22.8012 26.3964C22.8201 26.4316 22.8627 26.4793 22.8722 26.5145C22.9004 26.6117 22.7849 26.6261 22.6544 26.574C22.5904 26.5527 22.5408 26.5383 22.517 26.5031ZM22.2119 27.1087C22.1549 27.0328 22.1931 26.9644 22.2164 26.9192C22.2402 26.8766 22.271 26.8225 22.3444 26.8245C22.4699 26.8295 22.5458 26.9148 22.5998 26.9361C22.7134 26.9807 22.6876 27.0636 22.6519 27.1137C22.6167 27.1608 22.5552 27.1891 22.5264 27.2079C22.4768 27.2412 22.3042 27.2293 22.2119 27.1087ZM21.9113 27.5606C21.8925 27.5279 21.9044 27.5065 21.9302 27.4589C21.9609 27.4044 21.9942 27.3478 22.018 27.3548C22.0651 27.3667 22.0914 27.5204 22.0507 27.568C22.0319 27.5869 21.9421 27.6176 21.9113 27.5606ZM21.8235 26.1052C21.826 26.0556 21.9044 26.0507 21.9778 26.0368C22.0914 26.0155 22.2189 26.006 22.2571 26.0224C22.3206 26.0532 22.2189 26.264 22.141 26.3324C22.1028 26.3632 22.0651 26.3086 21.9991 26.259C21.9257 26.2 21.8235 26.1429 21.8235 26.1052ZM21.2417 26.4341C21.2392 26.3443 21.3836 26.2684 21.452 26.3161C21.4853 26.3374 21.5894 26.4177 21.703 26.4768C21.8335 26.5452 21.9704 26.5928 21.9679 26.6281C21.9634 26.697 21.8756 26.8865 21.8449 26.8766C21.7858 26.8577 21.637 26.7302 21.4902 26.633C21.3692 26.5502 21.2417 26.5031 21.2417 26.4341ZM21.5279 27.4971C21.4287 27.258 21.2109 26.9148 21.3479 26.9361C21.4853 26.955 21.6985 27.1301 21.708 27.1846C21.7199 27.2367 21.5731 27.6082 21.5279 27.4971Z" fill="black"/>
<path fill-rule="evenodd" clip-rule="evenodd" d="M21.5665 28.8156C21.4742 28.6356 21.815 28.4158 21.9147 28.3588C22.0139 28.3023 22.6885 27.8216 22.8378 27.7244C22.9301 27.6654 23.1855 27.4833 23.4102 27.3484C23.5784 27.2467 23.7321 27.2016 23.7465 27.1257C23.7793 26.9506 23.621 27.019 23.6374 26.7899C23.6493 26.6167 23.7912 26.5413 23.9593 26.4466C24.1275 26.3519 24.2267 26.3375 24.312 26.4039C24.3973 26.4724 24.3899 26.4585 24.4325 26.5766C24.4777 26.6951 24.5724 26.6569 24.5059 26.4491C24.44 26.2407 24.1414 25.8598 24.0585 25.6609C23.9757 25.462 23.6399 25.024 23.557 24.9223C23.4742 24.8206 23.3581 24.6242 23.4554 24.5081C23.5521 24.392 23.6989 24.4183 23.8199 24.4679C23.938 24.5175 24.0491 24.6713 24.1746 24.8563C24.3026 25.0408 24.4112 25.4054 24.494 25.6019C24.5749 25.7983 24.6577 25.9754 24.7877 26.1862C24.9157 26.397 25.0506 26.6073 25.0337 26.7899C25.0198 26.9694 24.9177 27.081 24.7406 27.1658C24.563 27.2512 24.4305 27.2323 24.3452 27.1495C24.2599 27.0666 24.2386 27.0384 24.182 26.9342C24.1225 26.83 24.0208 26.8489 24.0967 27.0096C24.1726 27.1708 24.3145 27.4501 24.0352 27.5374C23.7559 27.6252 23.6399 27.6654 23.4271 27.7884C23.2138 27.9114 22.9087 28.0865 22.6721 28.2546C22.4375 28.4228 22.1156 28.5979 21.9097 28.7353C21.7088 28.8796 21.6185 28.9173 21.5665 28.8156Z" fill="black"/>
<path fill-rule="evenodd" clip-rule="evenodd" d="M27.8192 21.1213C28.0062 21.1213 28.2855 21.0102 28.5221 20.8395C28.7706 20.6595 29.0097 20.4938 29.2369 20.4963C29.0003 20.3237 28.8346 20.3544 28.5578 20.5345C28.3163 20.6902 28.0866 20.8559 27.7577 20.9387C27.7483 20.906 27.7433 20.8822 27.7389 20.8609C27.9899 20.785 28.101 20.7403 28.3187 20.596C28.4204 20.527 28.4983 20.4631 28.5742 20.4135C28.664 20.3519 28.8133 20.3023 28.8584 20.2929C28.8177 20.2666 28.5504 20.222 28.4323 20.2646C28.217 20.3425 28.1079 20.4442 27.9517 20.5484C27.8877 20.5935 27.7721 20.6431 27.7056 20.6689C27.6109 20.2453 27.1402 20.1223 26.7637 20.2622C27.4289 20.3212 27.2324 20.9318 27.3907 21.2632C27.5851 21.6679 27.9661 21.6868 28.3351 21.6228C28.1506 21.5801 27.9472 21.403 27.8192 21.1213Z" fill="white"/>
<path fill-rule="evenodd" clip-rule="evenodd" d="M26.3306 31.7554C26.3256 31.6537 26.3544 31.3388 26.3732 31.0193C26.3851 30.7946 26.3965 30.5034 26.399 30.366C26.404 30.12 26.3732 29.7014 26.4278 29.6279C26.4818 29.5545 26.5647 29.4548 26.6689 29.4598C26.773 29.4643 26.8891 29.4786 26.896 29.3913C26.901 29.3035 26.6381 29.3179 26.586 29.2872C26.5339 29.2564 26.3777 29.2088 26.3544 29.0833C26.3306 28.9578 26.3425 28.622 26.34 28.5416C26.3375 28.4608 26.4253 28.376 26.4441 28.3497C26.4655 28.3214 26.468 28.2644 26.4561 28.243C26.4441 28.2222 26.3588 28.2549 26.3137 28.2197C26.2904 28.2028 26.2641 28.1344 26.3732 27.9925C26.4441 27.9003 26.5696 27.8908 26.6569 27.8884C26.8464 27.8834 26.9694 27.9285 27.0572 27.9474C27.1445 27.9662 27.3315 28.1275 27.3315 28.1795C27.3315 28.2361 27.3385 28.5059 27.3291 28.6929C27.3196 28.8799 27.2889 28.9866 27.3033 29.0243C27.3172 29.062 27.3955 29.0808 27.4025 28.9697C27.405 28.9345 27.4427 28.8373 27.4476 28.7167C27.4501 28.5769 27.4501 28.4375 27.4476 28.3923C27.4451 28.3095 27.4997 28.2882 27.6485 28.2931C27.7978 28.2951 27.7909 28.3497 27.8286 28.3948C27.8643 28.4375 27.9208 28.4231 27.9565 28.3993C27.9942 28.376 28.0037 28.3189 28.1574 28.2718C28.2497 28.243 28.3162 28.2718 28.3613 28.2361C28.3921 28.2123 28.3707 28.1463 28.3777 28.0848C28.394 27.9355 28.3375 27.8432 28.5057 27.8363C28.6312 27.8313 28.7115 27.8809 28.7234 27.9474C28.7304 27.99 28.7681 28.0114 28.7988 28.0089C28.9124 28.002 28.8603 27.9593 28.9313 27.9543C29.0047 27.9474 28.9719 27.9618 29.0453 28.0089C29.1183 28.0565 29.1445 28.1275 29.1589 28.2549C29.1728 28.3829 29.0662 28.4608 28.9575 28.4682C28.8509 28.4752 28.7869 28.494 28.7824 28.5511C28.78 28.5793 28.7988 28.5843 28.839 28.5863C28.8722 28.5863 28.9268 28.5863 28.9694 28.5843C29.0592 28.5818 29.1163 28.6007 29.1277 28.6339C29.1515 28.6979 29.1609 28.8135 29.1232 28.8775C29.0855 28.9414 28.9694 28.9345 28.8866 28.932C28.8038 28.9295 28.7849 28.9464 28.7894 29.0054C28.7943 29.0645 28.8797 29.055 29.0592 29.0406C29.1326 29.0337 29.3077 28.939 29.3053 28.8115C29.3053 28.6835 29.3033 28.558 29.3033 28.4137C29.3033 28.2693 29.2914 28.0873 29.3053 28.0183C29.3196 27.9499 29.3246 27.8978 29.4804 27.8928C29.5349 27.8908 29.6247 27.9261 29.6723 28.0064C29.7125 28.0754 29.7125 28.1795 29.71 28.3239C29.7075 28.4469 29.6698 28.5888 29.6629 28.6785C29.644 28.9176 29.6748 29.1071 29.5374 29.2207C29.4025 29.3343 29.2651 29.3393 29.1897 29.3601C29.1684 29.365 29.0523 29.4027 29.019 29.4027C28.8891 29.4027 28.8296 29.4008 28.8082 29.4221C28.78 29.4528 28.7467 29.5545 28.839 29.5778C28.8841 29.5878 29.0166 29.5615 29.1088 29.5992C29.1798 29.6279 29.2462 29.6255 29.2889 29.6324C29.3836 29.6493 29.4144 29.6562 29.4169 29.7534C29.4189 29.8363 29.4169 29.9945 29.4169 30.0798C29.4169 30.2123 29.405 30.3616 29.405 30.5436C29.405 30.8417 29.4189 31.0168 29.4144 31.2113C29.4119 31.4052 29.4853 31.7316 29.4665 31.8025C29.4476 31.874 29.4213 32.0441 29.277 32.0466C29.1351 32.0491 29.147 31.8596 29.1376 31.7177C29.1277 31.5754 29.0687 31.3814 29.0687 31.1661C29.0687 30.9484 29.0617 30.2078 29.0548 30.1438C29.0473 30.0798 29.0949 30.0347 28.9908 29.9662C28.8866 29.8978 28.716 29.9568 28.6073 29.8765C28.5503 29.8338 28.4982 29.8169 28.4888 29.6989C28.4794 29.5803 28.5195 29.4881 28.4347 29.493C28.3494 29.4975 28.3092 29.5258 28.2591 29.6537C28.2095 29.7817 28.2145 30.0302 28.1669 30.2336C28.1222 30.437 28.1292 30.5411 28.1341 30.7544C28.1386 30.9648 28.1242 31.2515 28.1341 31.5094C28.1411 31.7673 28.0865 31.8313 27.9635 31.8358C27.8405 31.8407 27.8549 31.7579 27.8449 31.554C27.838 31.3507 27.838 31.2892 27.843 31.0243C27.8449 30.7589 27.8499 30.5129 27.8405 30.3259C27.8355 30.25 27.9164 29.9613 27.9069 29.8169C27.895 29.623 28.0012 29.4077 28.0205 29.365C28.0533 29.2916 28.1788 29.2753 28.3112 29.2326C28.4511 29.1875 28.4556 29.0362 28.3613 29.055C28.2666 29.0714 28.2428 29.1022 28.1788 29.1121C28.1148 29.1215 28.0652 29.126 28.025 29.1022C27.9848 29.0788 27.9422 29.0764 27.9164 29.062C27.8901 29.0481 27.8901 28.9533 27.9278 28.9251C27.9848 28.8799 28.0463 28.8586 28.089 28.8348C28.1455 28.8016 28.1956 28.7594 28.217 28.745C28.2522 28.7187 28.3539 28.7381 28.3683 28.7118C28.3826 28.686 28.3846 28.6031 28.3633 28.5937C28.342 28.5843 28.1932 28.5937 28.1034 28.5937C28.0558 28.5937 27.9823 28.5937 27.9422 28.5937C27.8311 28.5912 27.8216 28.6503 27.7978 28.7594C27.7646 28.9082 27.8335 29.0645 27.7105 29.1428C27.6485 29.1805 27.6039 29.2138 27.5682 29.2396C27.5448 29.2564 27.5329 29.2847 27.5022 29.2916C27.4238 29.3105 27.3058 29.2658 27.277 29.3199C27.2462 29.372 27.2487 29.4975 27.2725 29.5144C27.3291 29.5521 27.4734 29.4742 27.5944 29.5778C27.7125 29.682 27.7175 29.7296 27.7244 29.8596C27.7314 29.992 27.7269 30.2217 27.7314 30.3591C27.7363 30.4965 27.7269 31.4618 27.7338 31.6061C27.7413 31.7505 27.6842 31.7862 27.5801 31.7911C27.4313 31.7981 27.4501 31.6632 27.4451 31.5327C27.4382 31.2986 27.4427 30.9886 27.4427 30.8869C27.4427 30.558 27.4501 30.2361 27.3931 30.0491C27.3578 29.9261 27.4288 29.7554 27.3058 29.7554C27.1827 29.7554 27.2085 29.8125 27.2085 29.9186C27.2085 30.0253 27.2085 30.4395 27.2061 30.6408C27.2036 30.8417 27.211 31.3249 27.2061 31.5044C27.2016 31.6845 27.2393 31.9876 27.0711 31.9776C26.9035 31.9682 26.9293 31.9519 26.9243 31.689C26.9174 31.4266 26.9223 31.0362 26.9198 30.8085C26.9149 30.5813 26.9174 30.1771 26.9174 30.0466C26.9174 29.9186 26.96 29.805 26.8514 29.815C26.7423 29.8244 26.7517 29.8879 26.7472 30.0372C26.7423 30.1984 26.7353 30.4156 26.7279 30.4583C26.6951 30.7024 26.6971 30.8085 26.6902 30.9886C26.6877 31.0669 26.6381 31.1612 26.6312 31.2797C26.6242 31.4454 26.6569 31.6369 26.6168 31.7152C26.5508 31.8452 26.333 31.8477 26.3306 31.7554ZM26.6312 28.305C26.6431 28.2336 26.7234 28.2316 26.8063 28.2386C26.8891 28.2455 26.9223 28.2316 26.9198 28.4087C26.9174 28.5843 26.9198 28.7331 26.9198 28.8209C26.9198 28.9057 26.9387 29.0029 26.8514 29.0005C26.7636 28.998 26.7165 28.9365 26.7542 28.8209C26.7943 28.7024 26.8489 28.6835 26.8559 28.6245C26.8628 28.5649 26.8514 28.5248 26.8132 28.4915C26.7755 28.4588 26.7398 28.5153 26.7447 28.376C26.7447 28.3522 26.6996 28.3591 26.6619 28.3591C26.6381 28.3546 26.6242 28.3566 26.6312 28.305Z" fill="black"/>
<path fill-rule="evenodd" clip-rule="evenodd" d="M27.8073 22.3657C27.5305 22.1272 27.2607 21.8762 26.9978 21.6133C26.7354 21.3509 26.4869 21.083 26.2478 20.8062L26.2171 20.771C25.2681 21.9635 24.8207 23.0453 25.1923 23.4193C25.5638 23.7908 26.6451 23.3434 27.8381 22.3945L27.8073 22.3657ZM26.0797 20.6073C24.8892 19.1614 24.3143 17.8221 24.7662 17.3697C25.218 16.9178 26.5578 17.4927 28.0038 18.6832C29.4497 17.4927 30.7895 16.9153 31.2414 17.3697C31.6937 17.8221 31.1183 19.1614 29.9279 20.6073C31.1183 22.0537 31.6937 23.393 31.2414 23.8449C30.7895 24.2973 29.4497 23.7219 28.0038 22.5294C26.5578 23.7199 25.218 24.2948 24.7662 23.8429C24.3143 23.393 24.8892 22.0537 26.0797 20.6073ZM28.167 18.8206C28.4462 19.0597 28.7304 19.3201 29.0097 19.6019C29.289 19.8811 29.5519 20.1649 29.7885 20.4441C30.7374 19.2492 31.1848 18.1673 30.8133 17.7958C30.4437 17.4243 29.3624 17.8717 28.167 18.8206ZM26.2453 20.4109C26.4844 20.1341 26.7354 19.8643 26.9978 19.6019C27.2607 19.339 27.5281 19.0904 27.8048 18.8514L27.8406 18.8206C26.6476 17.8717 25.5663 17.4243 25.1947 17.7958C24.8232 18.1673 25.2701 19.2492 26.2195 20.4416L26.2453 20.4109ZM29.7905 20.773C29.5519 21.0523 29.2915 21.3365 29.0122 21.6157C28.7329 21.895 28.4487 22.1579 28.1694 22.3945C29.3649 23.3459 30.4462 23.7908 30.8177 23.4193C31.1868 23.0478 30.7399 21.9659 29.7905 20.773ZM26.4869 20.4466C26.6952 20.2075 26.913 19.9734 27.1402 19.7437C27.3673 19.5165 27.6015 19.2988 27.8406 19.0929C27.8951 19.0453 27.9492 19.0007 28.0038 18.9555C28.29 19.1921 28.5811 19.4575 28.8698 19.7462C29.159 20.0349 29.4214 20.3236 29.658 20.6098C29.4214 20.8965 29.1565 21.1872 28.8698 21.4739C28.5811 21.7626 28.29 22.025 28.0038 22.2621C27.9492 22.2169 27.8971 22.1718 27.843 22.1272C27.604 21.9188 27.3693 21.7011 27.1402 21.4739C26.913 21.2467 26.6952 21.0121 26.4894 20.773C26.4418 20.7189 26.3966 20.6644 26.352 20.6098C26.3946 20.5552 26.4393 20.5012 26.4869 20.4466Z" fill="white"/>
</g>
<defs>
<clipPath id="clip0_53672_556476">
<rect width="32" height="32" fill="white" transform="translate(12 8)"/>
</clipPath>
</defs>
</svg>
