<svg width="140" height="48" viewBox="0 0 140 48" fill="none" xmlns="http://www.w3.org/2000/svg">
<path d="M6.58789 0.5H133.216C136.578 0.5 139.305 3.22561 139.305 6.58789V41.4121C139.305 44.7744 136.578 47.5 133.216 47.5H6.58789C3.22572 47.4998 0.500182 44.7743 0.5 41.4121V6.58789C0.500181 3.33053 3.05845 0.670639 6.27539 0.507812L6.58789 0.5Z" fill="white"/>
<path d="M6.58789 0.5H133.216C136.578 0.5 139.305 3.22561 139.305 6.58789V41.4121C139.305 44.7744 136.578 47.5 133.216 47.5H6.58789C3.22572 47.4998 0.500182 44.7743 0.5 41.4121V6.58789C0.500181 3.33053 3.05845 0.670639 6.27539 0.507812L6.58789 0.5Z" stroke="#EAECF0"/>
<path fill-rule="evenodd" clip-rule="evenodd" d="M105.784 27.6985C104.955 27.5237 105.445 27.2585 105.316 26.5705C105.203 25.9612 104.65 25.3634 104.667 24.9124C104.713 23.6923 106.275 23.7844 107.222 24.1567C107.451 24.2983 107.645 24.4914 107.786 24.7207C108.219 25.3469 108.733 26.2604 108.062 26.9767C107.771 27.2701 107.415 27.4912 107.023 27.6224C106.632 27.7537 106.215 27.7913 105.806 27.7323" fill="#003F88"/>
<path fill-rule="evenodd" clip-rule="evenodd" d="M96.3658 26.4326L96.2871 26.3987V26.1338C97.1539 25.6385 97.9918 25.0944 98.7969 24.504C99.4876 24.0445 99.9931 23.3551 100.224 22.5582C98.6099 23.0884 97.0821 24.2506 95.4129 24.3911C94.7686 24.1719 94.1486 23.8865 93.5631 23.5394V23.4493C92.6776 22.8853 92.5989 22.1296 93.5631 21.8081C95.2555 22.1804 97.8137 20.9792 99.4002 20.3754C99.9923 20.1785 100.551 19.8934 101.058 19.5297C101.431 17.313 101.188 15.0854 101.318 12.9648C101.882 11.4252 102.818 12.4685 103.765 13.2403C103.833 13.3643 104.047 13.5052 104.238 13.8043H104.334C104.734 14.4474 104.845 14.7406 104.221 15.3393C103.791 16.4136 103.598 17.5683 103.657 18.724C104.785 18.5603 105.507 17.5508 106.849 17.5283C107.023 17.7919 107.087 18.1125 107.029 18.4227C106.971 18.7329 106.796 19.0086 106.539 19.192C105.563 19.6599 104.503 20.0775 103.397 20.5793C103.163 21.8067 102.652 22.9644 101.902 23.9641C101.658 24.241 101.392 24.4975 101.107 24.7311C100.443 25.1962 99.7229 25.5752 98.9638 25.8591C98.1279 26.1537 97.2584 26.3427 96.3756 26.4215" fill="#003F88"/>
<path fill-rule="evenodd" clip-rule="evenodd" d="M75.6278 30.2159C74.8365 29.7383 74.1667 29.0839 73.6709 28.3039C73.7441 28.0894 73.8177 27.8753 73.9023 27.6742C75.8192 26.3388 77.6396 24.8702 79.3502 23.2792C79.8689 22.4841 80.5404 21.6549 81.0984 20.8709C81.1273 20.852 81.1602 20.8404 81.1945 20.837C81.192 20.8089 81.192 20.7806 81.1945 20.7524C81.6739 20.3801 81.8769 20.2801 82.2831 20.8933C82.317 21.412 81.3921 21.9591 81.1043 22.4444C80.7434 23.3638 80.3318 24.2997 79.8634 25.2643C79.5746 25.6142 79.3214 25.9921 79.1077 26.3923C78.499 26.9725 78.0037 27.6611 77.6472 28.4228C77.0832 28.7668 76.8014 29.8156 76.0851 30.1825C75.9339 30.1904 75.7833 30.2073 75.634 30.2332" fill="#003F88"/>
<path fill-rule="evenodd" clip-rule="evenodd" d="M86.7329 23.6211C85.5711 23.5703 85.244 22.8316 84.6123 22.1547C84.6123 21.85 84.776 21.6698 84.804 21.4553C84.9711 21.4327 85.131 21.373 85.2719 21.2805C85.7568 21.2128 85.932 21.2412 86.4562 21.2073C87.1272 21.055 88.8362 19.8762 89.4116 20.384C89.4962 21.7937 87.962 23.2039 86.7325 23.6211" fill="#003F88"/>
<path fill-rule="evenodd" clip-rule="evenodd" d="M77.8218 21.4015C77.3818 21.0122 77.2917 19.2187 77.2578 18.6547C77.5849 17.6566 78.596 17.6169 79.4347 18.2655C80.1057 19.1451 80.5627 19.5119 79.8578 20.5215C79.3109 21.0535 78.5845 21.3613 77.8218 21.3842" fill="#003F88"/>
<path fill-rule="evenodd" clip-rule="evenodd" d="M86.4466 20.5329C86.3285 19.9689 87.0763 18.8405 86.8638 18.5422C86.582 18.5815 86.2998 18.689 86.0011 18.7059C85.3017 18.3674 84.5346 17.5157 84.8168 16.8616C85.3285 16.2976 85.1317 16.4287 85.9448 16.3767C86.7119 16.0327 87.4797 15.6998 88.2571 15.3672C89.5598 15.1248 90.1576 15.8395 90.2367 17.1155C89.9542 17.9089 89.5041 18.6322 88.9171 19.236C88.2291 19.6139 87.6029 20.0311 86.9771 20.4431C86.7997 20.4552 86.6239 20.4854 86.4525 20.5333" fill="#003F88"/>
<path fill-rule="evenodd" clip-rule="evenodd" d="M79.2994 16.848C79.0239 16.6056 79.1357 16.4757 79.2994 16.2277C79.2656 15.6921 78.9452 15.2576 78.9102 14.7444C79.0849 13.797 78.9102 13.453 79.6883 12.9961C80.2975 13.2669 82.4181 14.3496 81.9442 15.5398C81.2573 16.2665 80.3373 16.7295 79.3443 16.848" fill="#003F88"/>
<path fill-rule="evenodd" clip-rule="evenodd" d="M51.8283 31.1234C50.5649 30.6385 49.4668 28.1401 50.988 27.5253C51.0105 27.4137 51.0597 27.3093 51.1314 27.2208C51.2031 27.1324 51.2951 27.0627 51.3997 27.0176C51.3971 26.9856 51.3971 26.9535 51.3997 26.9216C52.6237 25.7373 53.4242 24.1016 54.4565 22.7764C54.7214 22.2801 54.8627 21.8008 55.4267 21.6484C55.7144 21.8968 55.6129 22.4663 55.5338 22.9004C55.6577 23.0134 56.0978 22.9287 56.3571 22.8496C57.2088 22.1109 58.3199 21.4678 59.1771 20.6952C59.2223 20.3174 59.2617 19.9395 59.3239 19.5672C58.726 19.7081 56.7802 20.1651 57.2486 19.0654C57.9763 18.7777 59.087 18.1519 59.5045 17.373C59.6907 16.5721 59.5833 15.6807 59.9894 15.1171C60.8073 14.694 61.777 15.7263 61.9408 16.6126C62.2678 17.1766 63.2943 16.4717 62.0195 18.2708C61.7487 18.4676 61.7601 18.8348 61.8109 19.2689H62.0927C62.8366 18.7179 63.6083 18.2055 64.4049 17.7339C64.5457 16.6584 64.87 15.615 65.3637 14.6491C66.1587 14.0851 67.2359 14.6944 68.0089 15.3146C68.573 15.2558 69.1031 15.0165 69.5202 14.6322C69.7167 14.5691 69.9243 14.5479 70.1295 14.57C70.2943 14.8768 70.3797 15.2199 70.3778 15.5681C70 16.7413 66.6389 17.1247 67.2871 18.4896C67.8511 18.4503 68.0711 17.8127 68.2911 17.3616C68.9452 17.0121 70.3664 17.4348 71.0489 17.9256C71.816 18.856 71.2236 19.1721 70.3778 19.7585C70.2877 19.8825 70.2031 20.0123 70.1295 20.1363C70.0732 22.0086 70.0732 22.0086 70.1295 24.5467C69.9022 25.1394 69.5525 25.6775 69.103 26.1257V26.2045H68.9621C68.6351 26.7685 67.8342 27.3324 67.3717 26.7685C67.3717 24.6825 67.4788 22.5218 67.4056 20.5645C67.37 20.5698 67.3356 20.5813 67.304 20.5984C67.1517 21.6134 66.1367 23.5199 65.268 24.1457C64.9049 24.1745 64.5425 24.083 64.2366 23.8852C63.9307 23.6874 63.6984 23.3945 63.5757 23.0515C63.6603 22.8429 63.8118 22.7977 63.9818 22.6513C64.4329 21.7264 64.2967 20.023 64.2967 19.115C63.6426 19.211 62.5484 20.683 62.0407 21.2301C61.7137 21.4949 61.3807 21.7547 61.0596 22.0196C60.8281 22.7922 60.6479 23.5545 60.4448 24.381C60.27 24.7474 60.0953 25.1367 59.9146 25.509H59.8245C59.5199 26.0207 58.5332 27.3702 57.9464 26.524V26.1915C58.448 25.4445 58.7455 24.5792 58.8091 23.6816C58.0141 23.9465 57.4839 24.6742 56.6838 24.725C56.2602 24.6484 55.8486 24.516 55.4598 24.3314C55.4574 24.3014 55.4574 24.2713 55.4598 24.2413C55.263 24.1173 55.0662 23.9481 54.9481 23.993C54.8013 24.4385 54.6604 24.9065 54.525 25.3705C53.7139 27.078 53.0554 28.8539 52.5572 30.6774C52.3757 30.9012 52.1192 31.0515 51.8353 31.1005" fill="#003F88"/>
<path fill-rule="evenodd" clip-rule="evenodd" d="M53.4021 21.175C53.1537 20.8141 53.4583 20.3462 53.4698 19.9286C53.0805 18.7498 52.7704 17.8702 53.5205 16.8776L53.8814 16.8438C54.5571 17.3864 55.1582 18.016 55.6691 18.716C56.233 20.1258 54.4226 20.7575 53.4131 21.1691" fill="#003F88"/>
<path fill-rule="evenodd" clip-rule="evenodd" d="M54.5358 16.6132C54.237 16.5117 54.2425 16.444 54.1863 16.3425C54.3272 16.0547 54.4618 15.8855 54.4063 15.5923C53.6845 14.4643 53.7238 12.7723 54.9703 12.2422C55.3367 12.2874 55.3426 12.5964 55.5343 13.0939C56.3462 13.8834 57.8563 14.8591 56.4253 15.9138C55.822 16.1787 55.1659 16.3861 54.5641 16.5963" fill="#003F88"/>
<path fill-rule="evenodd" clip-rule="evenodd" d="M114.77 20.9396C113.642 20.5901 113.851 18.7356 114.042 17.9842C114.866 17.4596 115.948 18.5482 116.01 19.5192C115.796 20.585 115.807 20.7432 114.769 20.9404" fill="#003F88"/>
<path fill-rule="evenodd" clip-rule="evenodd" d="M120.876 29.4959L120.78 29.4396C119.386 29.5509 117.983 29.3781 116.657 28.9319C116.606 28.8449 116.583 28.7447 116.59 28.6442C117.351 28.1986 118.428 28.3226 119.015 27.5162C119.122 26.9588 119.156 26.3899 119.116 25.8238C117.684 25.9084 116.917 26.9518 115.783 27.3351C114.813 27.3914 113.082 26.5118 112.8 25.7392C112.8 24.4927 113.059 25.0512 114.396 24.9721C115.986 24.6903 117.577 23.7709 119.116 23.0999C119.264 22.9605 119.438 22.8513 119.628 22.7783C119.966 21.7405 120.192 21.5543 121.286 21.3457C121.709 21.1312 121.709 21.1312 122.944 20.387C122.972 20.2627 123.008 20.1403 123.051 20.0205C121.179 20.2461 119.667 21.7633 118.171 22.7614C117.569 22.9377 116.923 22.8831 116.359 22.6083C116.031 22.6536 114.17 22.9861 115.073 22.2419C115.637 22.0274 116.048 21.6271 116.635 21.3677C118.039 20.4259 119.665 19.6136 121.181 18.7454C121.175 18.5912 121.124 18.4421 121.034 18.3168C121.036 18.0665 121.088 17.8191 121.186 17.589C120.904 17.6906 120.826 17.6677 120.769 17.8822C119.873 18.2758 119.489 19.0948 118.739 18.2317C118.672 18.6027 118.483 18.9407 118.202 19.192C117.921 19.4433 117.564 19.5936 117.188 19.6191C116.387 19.2074 116.364 17.8649 116.224 17.2447C116.167 17.1659 116.054 16.6468 115.834 16.0435C115.468 15.3047 114.796 14.4755 115.244 13.7875C115.808 13.438 116.045 13.3081 116.53 14.0807C117.04 14.4493 117.497 14.8863 117.889 15.3795H117.979C118.233 16.062 118.858 16.9585 118.791 17.8271C119.214 17.5788 119.812 17.0939 119.502 16.5583C118.808 16.1859 119.203 15.5373 119.688 15.2988C119.951 15.3188 120.216 15.3093 120.477 15.2705C120.482 15.221 120.474 15.1712 120.456 15.1252C120.437 15.0792 120.408 15.0382 120.37 15.0056C119.806 14.8025 119.902 14.6671 120.055 14.1937C119.91 14.1498 119.776 14.0756 119.662 13.9761C119.548 13.8766 119.456 13.754 119.392 13.6164C119.329 13.4788 119.296 13.3293 119.294 13.1778C119.293 13.0263 119.323 12.8762 119.384 12.7374C121.347 12.2466 121.347 12.2466 122.261 11.9534C122.873 11.1946 123.533 9.13425 124.716 9.49516C125.14 10.0335 125.342 10.7135 125.28 11.3957C125.096 11.6796 124.956 11.9895 124.863 12.3151H125.217C126.035 11.909 126.413 11.4241 126.91 12.6422C127.705 13.0708 127.987 12.957 127.688 14.1086C127.124 15.265 126.492 16.5 125.855 17.6618C125.847 17.714 125.847 17.7671 125.855 17.8193C126.002 17.8455 126.148 17.8794 126.295 17.9208C126.377 18.5168 126.405 19.1188 126.38 19.7198C125.889 20.4476 125.252 20.4476 124.485 20.5487C123.487 21.045 122.59 21.4567 121.665 22.0152C121.643 22.2222 121.664 22.4315 121.727 22.6299H123.178C123.714 22.9794 123.669 23.9551 123.336 24.525C122.86 24.5574 122.396 24.6916 121.977 24.9186C121.926 25.1838 121.875 25.4542 121.83 25.7305C121.864 26.7684 122.394 29.2778 120.866 29.5147M123.926 16.72C124.171 16.5216 124.369 16.2706 124.503 15.9855C124.638 15.7004 124.707 15.3886 124.704 15.0733C124.256 14.7737 123.718 14.6401 123.182 14.6955C123.037 15.0791 122.847 15.4444 122.618 15.7841L122.77 15.8518C122.72 15.8645 122.672 15.8855 122.629 15.914C122.635 15.945 122.644 15.9753 122.657 16.0041C122.749 15.9998 122.837 15.9707 122.914 15.9201C122.99 15.8694 123.051 15.799 123.09 15.7164C123.846 15.5924 123.863 15.8632 123.807 16.6696C123.841 16.6821 123.873 16.6992 123.903 16.7204" fill="#003F88"/>
<path d="M54.0391 35.8987L56.2557 33.1634H54.2138V32.7344H56.8645V33.1516L54.6479 35.8924H56.8645V36.3254H54.0391V35.8987Z" fill="#003F88"/>
<path d="M57.9697 32.7344H58.4546V34.2063H60.3272V32.7344H60.818V36.3269H60.3272V34.6346H58.4546V36.3269H57.9697V32.7344Z" fill="#003F88"/>
<path d="M62.127 36.3269V32.7344H64.7552V33.163H62.6118V34.2626H64.5687V34.6912H62.6118V35.8924H64.7765V36.3254L62.127 36.3269Z" fill="#003F88"/>
<path d="M67.2699 32.7344H67.7548V35.3174C67.7763 35.6151 67.6789 35.9092 67.484 36.1353C67.386 36.2344 67.2678 36.3114 67.1374 36.3611C67.007 36.4107 66.8676 36.4318 66.7284 36.423C66.5871 36.4324 66.4453 36.4133 66.3116 36.3668C66.1778 36.3202 66.0548 36.2473 65.9499 36.1522C65.8569 36.0546 65.786 35.938 65.7422 35.8105C65.6984 35.683 65.6827 35.5476 65.696 35.4134V35.1651H66.153V35.4134C66.1409 35.5729 66.1915 35.7307 66.2939 35.8535C66.3447 35.9077 66.407 35.95 66.4763 35.9772C66.5455 36.0045 66.6199 36.016 66.6941 36.0109C66.7738 36.0115 66.8527 35.9952 66.9256 35.9631C66.9985 35.9311 67.0638 35.8839 67.1172 35.8247C67.2241 35.6777 67.2779 35.4986 67.2695 35.317L67.2699 32.7344Z" fill="#003F88"/>
<path d="M69.0918 32.7344H69.5767V36.3269H69.0918V32.7344Z" fill="#003F88"/>
<path d="M71.9567 32.7344H72.5207L73.812 36.3214H73.2873L72.9095 35.2836H71.4769L71.0991 36.3214H70.5977L71.9567 32.7344ZM71.6351 34.855H72.7623L72.1983 33.259L71.6351 34.855Z" fill="#003F88"/>
<path d="M75.216 36.3269H74.748V32.7344H75.329L77.128 35.65V32.7344H77.5975V36.3269H77.0674L75.2176 33.3944L75.216 36.3269Z" fill="#003F88"/>
<path d="M80.5893 36.4236C80.3609 36.4316 80.1336 36.3887 79.9239 36.2979C79.7142 36.2072 79.5272 36.0709 79.3767 35.8989C79.06 35.5166 78.8971 35.03 78.9198 34.534C78.8929 34.0318 79.0605 33.5385 79.3877 33.1565C79.6775 32.858 80.0654 32.6742 80.4799 32.639C80.8944 32.6038 81.3077 32.7195 81.6437 32.9648C81.78 33.0642 81.8945 33.1906 81.9798 33.3361C82.0652 33.4816 82.1197 33.6431 82.14 33.8106H81.6721C81.6561 33.6981 81.6174 33.5901 81.5582 33.4931C81.4991 33.3962 81.4208 33.3123 81.3281 33.2466C81.1129 33.1101 80.8608 33.0432 80.6063 33.0549C80.4423 33.0505 80.2796 33.085 80.1316 33.1556C79.9835 33.2262 79.8543 33.3309 79.7546 33.4611C79.5449 33.7802 79.4332 34.1537 79.4332 34.5356C79.4332 34.9174 79.5449 35.2909 79.7546 35.61C79.8619 35.7387 79.9979 35.8404 80.1517 35.907C80.3055 35.9736 80.4728 36.0032 80.6401 35.9934C80.8105 35.9978 80.9797 35.9636 81.135 35.8932C81.2903 35.8229 81.4276 35.7183 81.5367 35.5872C81.5732 35.5454 81.6053 35.5001 81.6327 35.4518C81.6808 35.3697 81.7151 35.2802 81.7342 35.1869C81.7605 35.0818 81.7737 34.9738 81.7736 34.8654V34.8201H80.6456V34.41H82.2136V36.3106H81.909L81.796 35.8596C81.6555 36.0301 81.4776 36.1661 81.2762 36.2571C81.0747 36.348 80.8551 36.3915 80.6342 36.3842" fill="#003F88"/>
<path d="M88.3848 35.0099C88.4029 35.1998 88.379 35.3915 88.3146 35.5711C88.2503 35.7508 88.1472 35.914 88.0126 36.0493C87.878 36.1846 87.7152 36.2885 87.5359 36.3538C87.3566 36.419 87.1651 36.4439 86.975 36.4267C86.7841 36.4392 86.5926 36.4137 86.4115 36.3517C86.2305 36.2898 86.0635 36.1926 85.9202 36.0658C85.7924 35.9233 85.6945 35.7564 85.6325 35.5752C85.5705 35.3939 85.5456 35.2021 85.5593 35.0111V32.7539H86.0442V35.0099C86.0232 35.2845 86.1076 35.5569 86.2804 35.7714C86.4716 35.9389 86.7171 36.0312 86.9713 36.0312C87.2254 36.0312 87.471 35.9389 87.6622 35.7714C87.8349 35.5569 87.9194 35.2845 87.8983 35.0099V32.7539H88.3832L88.3848 35.0099Z" fill="#003F88"/>
<path d="M90.2301 36.3269H89.7578V32.7344H90.3442L92.1433 35.65V32.7344H92.6112V36.3269H92.0811L90.2313 33.3944L90.2301 36.3269Z" fill="#003F88"/>
<path d="M93.9463 32.7344H94.4312V36.3269H93.9463V32.7344Z" fill="#003F88"/>
<path d="M95.3789 32.7344H95.9205L96.9524 35.8043L97.9789 32.7344H98.5204L97.213 36.3269H96.6883L95.3789 32.7344Z" fill="#003F88"/>
<path d="M99.4502 36.3269V32.7344H102.073V33.163H99.9351V34.2626H101.886V34.6912H99.9351V35.8924H102.1V36.3254L99.4502 36.3269Z" fill="#003F88"/>
<path d="M103.398 32.738H105.091C105.401 32.715 105.709 32.803 105.959 32.9863C106.063 33.0758 106.143 33.1883 106.195 33.3147C106.247 33.441 106.269 33.5778 106.258 33.714C106.266 33.8867 106.226 34.0582 106.141 34.2088C106.056 34.3595 105.931 34.4832 105.779 34.5657L105.863 34.6051C105.971 34.6699 106.06 34.7626 106.119 34.8734C106.179 34.9842 106.207 35.1091 106.202 35.2348V35.8889C106.2 35.97 106.215 36.0505 106.247 36.1251C106.279 36.1794 106.329 36.2211 106.388 36.2431V36.3218H105.79C105.765 36.2472 105.752 36.1691 105.751 36.0904C105.755 35.9526 105.745 35.8148 105.722 35.6787V35.3969C105.731 35.2221 105.673 35.0504 105.559 34.9176C105.413 34.8098 105.232 34.7596 105.051 34.7767H103.923V36.3218H103.438L103.398 32.738ZM103.883 34.3567H105.085C105.262 34.3708 105.439 34.3185 105.581 34.2099C105.637 34.1464 105.679 34.0722 105.705 33.9917C105.732 33.9112 105.741 33.8262 105.733 33.742C105.741 33.6594 105.73 33.5761 105.702 33.4982C105.673 33.4202 105.628 33.3494 105.569 33.2909C105.421 33.1784 105.236 33.126 105.051 33.1441H103.883V34.3567Z" fill="#003F88"/>
<path d="M109.742 33.7734C109.736 33.6719 109.708 33.5727 109.662 33.4823C109.615 33.392 109.55 33.3124 109.471 33.2487C109.288 33.1186 109.065 33.0549 108.841 33.0681C108.621 33.0518 108.401 33.107 108.215 33.2255C108.145 33.2804 108.09 33.3508 108.053 33.4312C108.015 33.5115 107.998 33.5995 108.001 33.688C107.997 33.7479 108.008 33.8077 108.034 33.862C108.06 33.9162 108.099 33.9631 108.148 33.9981C108.323 34.0967 108.514 34.1653 108.712 34.2012L109.338 34.3535C109.605 34.3977 109.854 34.5192 110.054 34.703C110.206 34.8879 110.283 35.1238 110.269 35.363C110.274 35.5124 110.243 35.6608 110.178 35.7954C110.113 35.93 110.016 36.0468 109.896 36.1356C109.606 36.3413 109.254 36.4427 108.898 36.4233C108.504 36.4475 108.113 36.3295 107.798 36.0907C107.67 35.9828 107.568 35.8469 107.501 35.6933C107.433 35.5398 107.402 35.3728 107.409 35.2052V35.1769H107.877C107.877 35.2926 107.902 35.407 107.952 35.5115C108.002 35.616 108.075 35.7079 108.165 35.7802C108.386 35.9327 108.652 36.0062 108.921 35.9888C109.156 36.007 109.392 35.9539 109.598 35.8365C109.672 35.7878 109.732 35.7207 109.773 35.6416C109.813 35.5625 109.833 35.4742 109.829 35.3855C109.834 35.3142 109.823 35.2427 109.796 35.1763C109.77 35.1099 109.729 35.0503 109.676 35.0021C109.489 34.8877 109.283 34.8092 109.067 34.7707L108.441 34.6184C108.19 34.5777 107.954 34.4706 107.758 34.3082C107.689 34.2324 107.636 34.1433 107.602 34.0464C107.569 33.9494 107.555 33.8467 107.562 33.7442C107.554 33.5903 107.581 33.4367 107.642 33.295C107.703 33.1533 107.795 33.0272 107.911 32.9264C108.179 32.7128 108.517 32.6064 108.858 32.6277C109.205 32.6075 109.548 32.7136 109.823 32.9264C109.942 33.0309 110.037 33.1592 110.103 33.303C110.169 33.4468 110.204 33.6029 110.206 33.7612L109.742 33.7734Z" fill="#003F88"/>
<path d="M111.463 32.7344H111.948V36.3269H111.463V32.7344Z" fill="#003F88"/>
<path d="M114.187 33.163H112.967V32.7344H115.882V33.163H114.67V36.3269H114.185L114.187 33.163Z" fill="#003F88"/>
<path d="M118.084 34.8888L116.73 32.7344H117.294L118.326 34.4771L119.358 32.7344H119.922L118.569 34.8943V36.3269H118.084V34.8888Z" fill="#003F88"/>
<path d="M28 8C31.1645 8 34.2579 8.93838 36.8891 10.6965C39.5203 12.4546 41.5711 14.9534 42.7821 17.8771C43.9931 20.8007 44.3099 24.0178 43.6926 27.1214C43.0752 30.2251 41.5514 33.0761 39.3137 35.3137C37.0761 37.5514 34.2251 39.0752 31.1214 39.6926C28.0178 40.3099 24.8007 39.9931 21.8771 38.7821C18.9534 37.5711 16.4546 35.5203 14.6965 32.8891C12.9384 30.2579 12 27.1645 12 24C12 19.7565 13.6857 15.6869 16.6863 12.6863C19.6869 9.68571 23.7565 8 28 8ZM28 8.6372C24.9615 8.6372 21.9913 9.53821 19.4649 11.2263C16.9385 12.9144 14.9694 15.3137 13.8066 18.1209C12.6438 20.9281 12.3396 24.017 12.9324 26.9971C13.5252 29.9772 14.9883 32.7146 17.1369 34.8631C19.2854 37.0117 22.0228 38.4748 25.0029 39.0676C27.983 39.6604 31.0719 39.3562 33.8791 38.1934C36.6863 37.0306 39.0856 35.0615 40.7737 32.5351C42.4618 30.0087 43.3628 27.0385 43.3628 24C43.3628 19.9255 41.7442 16.0179 38.8631 13.1369C35.9821 10.2558 32.0745 8.6372 28 8.6372Z" fill="#003F88"/>
<path d="M22.3767 30.8179C21.3675 29.9781 20.555 28.9269 19.9967 27.7386C19.295 26.2403 19.0278 24.5752 19.2254 22.9326C19.4231 21.29 20.0778 19.7358 21.115 18.4469C22.1521 17.1579 23.5302 16.1858 25.0924 15.6412C26.6547 15.0965 28.3384 15.0012 29.9521 15.3661C31.5658 15.7309 33.0448 16.5413 34.2208 17.705C35.3968 18.8687 36.2227 20.339 36.6045 21.9488C36.9863 23.5586 36.9087 25.2433 36.3805 26.8112C35.8523 28.379 34.8948 29.7672 33.6168 30.8179L33.4306 30.5585C34.66 29.5444 35.5802 28.2057 36.0866 26.6947C36.5929 25.1836 36.6652 23.5607 36.2951 22.0106C35.925 20.4605 35.1274 19.0453 33.993 17.926C32.8587 16.8066 31.433 16.028 29.878 15.6787C28.3231 15.3293 26.7014 15.4232 25.1972 15.9497C23.693 16.4762 22.3667 17.4142 21.3691 18.657C20.3715 19.8998 19.7426 21.3976 19.5539 22.98C19.3652 24.5625 19.6243 26.1662 20.3017 27.6087C20.8377 28.7458 21.6153 29.7523 22.5801 30.5582L22.3767 30.8179Z" fill="#003F88"/>
<path fill-rule="evenodd" clip-rule="evenodd" d="M14.3016 29.3418L13.6982 27.7231L14.0253 27.6101L16.789 28.0332L16.3706 26.8942L16.6977 26.7812L17.2487 28.2646L16.9161 28.3776L14.1552 27.9545L14.6275 29.2289L14.3016 29.3418Z" fill="#003F88"/>
<path fill-rule="evenodd" clip-rule="evenodd" d="M15.3507 31.5505L15.1886 31.2235L16.4874 30.5579L16.0725 29.7511L14.7737 30.4221L14.6045 30.1006L17.3847 28.668L17.5539 28.995L16.3827 29.5937L16.7943 30.3946L17.9676 29.7967L18.1313 30.1183L15.3507 31.5505Z" fill="#003F88"/>
<path fill-rule="evenodd" clip-rule="evenodd" d="M16.6697 33.3127L15.6826 31.9313L18.2881 30.3125L19.2299 31.627L18.9422 31.8018L18.2259 30.8037L17.414 31.3055L18.074 32.2249L17.7863 32.4055L17.127 31.4857L16.1958 32.0667L16.957 33.1325L16.6697 33.3127Z" fill="#003F88"/>
<path fill-rule="evenodd" clip-rule="evenodd" d="M18.8863 35.4768L18.5537 35.2013L20.4767 32.8438L20.8038 33.1193L18.8863 35.4768Z" fill="#003F88"/>
<path fill-rule="evenodd" clip-rule="evenodd" d="M20.3758 36.5156L20.765 35.6808L20.2927 35.3368L19.5819 36.0248L19.2549 35.7768L21.5109 33.5547L21.9678 33.8302L20.7607 36.7627L20.3758 36.5156ZM20.9398 35.2746L21.4077 34.1974L21.3625 34.158L20.5505 34.9873L20.9398 35.2746Z" fill="#003F88"/>
<path fill-rule="evenodd" clip-rule="evenodd" d="M22.6254 37.6103L22.2251 37.4186L22.4613 35.254L21.5702 37.0754L21.1641 36.8893L22.5738 34.0977L22.9403 34.2669L22.771 36.3253L23.6904 34.6278L24.0289 34.7687L22.6254 37.6103Z" fill="#003F88"/>
<path fill-rule="evenodd" clip-rule="evenodd" d="M24.7289 38.2348L24.464 38.1502V37.9022C24.3928 37.9594 24.3065 37.9946 24.2157 38.0038C24.1133 38.0197 24.0087 38.0099 23.911 37.9754C23.7969 37.9344 23.694 37.867 23.6107 37.7788C23.5274 37.6906 23.4661 37.584 23.4317 37.4677C23.3226 37.0957 23.3445 36.6975 23.4938 36.3397C23.5813 35.9364 23.7762 35.5642 24.0578 35.2625C24.1846 35.1495 24.3391 35.0722 24.5056 35.0386C24.672 35.0049 24.8444 35.016 25.0052 35.0708C25.3436 35.1779 25.5692 35.5896 25.4676 36.1595L25.0614 36.1311C25.1291 35.8832 25.0953 35.5014 24.8584 35.4262C24.7604 35.3922 24.6545 35.388 24.5541 35.4141C24.4537 35.4403 24.3633 35.4956 24.2944 35.573C24.107 35.8364 23.9716 36.1331 23.8953 36.4472C23.7842 36.7263 23.751 37.0303 23.7993 37.3268C23.8136 37.404 23.8476 37.4763 23.898 37.5365C23.9484 37.5968 24.0135 37.643 24.087 37.6708C24.1465 37.6935 24.2108 37.7007 24.2739 37.6918C24.337 37.6829 24.3969 37.6582 24.4479 37.62C24.5804 37.5005 24.6729 37.343 24.7127 37.169L24.769 36.9883L24.2889 36.8364L24.3849 36.5216L25.1744 36.7809L24.7289 38.2348Z" fill="#003F88"/>
<path fill-rule="evenodd" clip-rule="evenodd" d="M28.8857 37.5485C28.8923 37.7884 28.8123 38.0228 28.6602 38.2085C28.576 38.2922 28.4738 38.3556 28.3614 38.3937C28.2489 38.4318 28.1293 38.4437 28.0116 38.4285C27.8918 38.4343 27.7723 38.413 27.6619 38.3661C27.5516 38.3192 27.4533 38.248 27.3744 38.1577C27.2357 37.9607 27.1717 37.7207 27.1937 37.4808L27.2614 35.3555H27.6337L27.566 37.4985C27.5484 37.6565 27.5905 37.8154 27.6841 37.944C27.7267 37.9917 27.7789 38.0298 27.8372 38.0561C27.8955 38.0823 27.9586 38.096 28.0226 38.0963C28.0859 38.1008 28.1494 38.0915 28.2088 38.069C28.2682 38.0466 28.322 38.0116 28.3666 37.9664C28.4693 37.8464 28.5219 37.6913 28.5134 37.5335L28.5811 35.4082H28.9589L28.8857 37.5485Z" fill="#003F88"/>
<path fill-rule="evenodd" clip-rule="evenodd" d="M31.0233 38.1136L30.6849 38.1698L29.6301 36.1339L29.7938 38.3166L29.3935 38.3729L29.1621 35.3105L29.619 35.2712L30.4932 36.6967L30.331 35.1618L30.6636 35.1055L31.0233 38.1136Z" fill="#003F88"/>
<path fill-rule="evenodd" clip-rule="evenodd" d="M32.1622 37.7967L31.7729 37.9148L30.9551 35.0165L31.3487 34.8984L32.1622 37.7967Z" fill="#003F88"/>
<path fill-rule="evenodd" clip-rule="evenodd" d="M33.2226 34.125L33.7189 37.3228L33.3356 37.5145L31.6377 34.796L32.01 34.6386L33.1888 36.4939L32.8617 34.2832L33.2226 34.125Z" fill="#003F88"/>
<path fill-rule="evenodd" clip-rule="evenodd" d="M36.369 35.9346L34.9423 36.7072L33.3857 34.034L34.7448 33.3008L34.914 33.5995L33.8761 34.158L34.3618 34.9872L35.315 34.4756L35.4898 34.7688L34.5362 35.2844L35.0872 36.2376L36.1927 35.6398L36.369 35.9346Z" fill="#003F88"/>
<path fill-rule="evenodd" clip-rule="evenodd" d="M37.999 34.7951L37.6842 35.0599L36.5562 34.1465L36.2685 34.4058L37.0186 35.4209L36.7038 35.7534L34.8701 33.1767L35.4341 32.7595C35.6202 32.6145 35.8528 32.5423 36.0882 32.5564C36.2007 32.5581 36.3116 32.5833 36.4138 32.6303C36.516 32.6774 36.6072 32.7454 36.6816 32.8298C36.756 32.9143 36.8118 33.0133 36.8456 33.1206C36.8794 33.228 36.8903 33.3412 36.8777 33.453C36.8773 33.5967 36.8545 33.7394 36.81 33.8761L37.999 34.7951ZM36.0194 32.9791C35.7879 32.9169 35.6077 33.0972 35.4554 33.2275L36.0658 34.0355C36.2384 33.9413 36.381 33.8006 36.4775 33.6293C36.4956 33.5575 36.4983 33.4827 36.4855 33.4098C36.4727 33.3369 36.4445 33.2675 36.403 33.2063C36.3614 33.145 36.3074 33.0933 36.2444 33.0544C36.1814 33.0155 36.1109 32.9904 36.0375 32.9807" fill="#003F88"/>
<path fill-rule="evenodd" clip-rule="evenodd" d="M38.9867 32.3072C39.1345 32.4052 39.2493 32.5455 39.3159 32.7099C39.3825 32.8742 39.3979 33.0548 39.3601 33.2281C39.3223 33.4013 39.233 33.5591 39.1039 33.6807C38.9748 33.8023 38.812 33.882 38.6368 33.9095C38.4295 33.9372 38.2186 33.8997 38.0335 33.8024L38.1744 33.4753C38.3058 33.524 38.4464 33.5432 38.5861 33.5316C38.6867 33.5195 38.7812 33.4765 38.8564 33.4086C38.9316 33.3406 38.984 33.251 39.0063 33.1521C39.0285 33.0532 39.0196 32.9498 38.9807 32.8562C38.9418 32.7625 38.8749 32.6832 38.7891 32.6292C38.6702 32.5539 38.5274 32.5258 38.3889 32.5504C38.0225 32.5898 37.7855 32.8653 37.3794 32.8944C37.1791 32.9132 36.9795 32.852 36.8242 32.7241C36.6689 32.5962 36.5705 32.4121 36.5505 32.212C36.5116 31.9932 36.5581 31.7678 36.6804 31.5823C36.7403 31.4938 36.8172 31.4183 36.9067 31.36C36.9962 31.3018 37.0965 31.2621 37.2016 31.2431C37.3067 31.2242 37.4145 31.2265 37.5187 31.2499C37.6229 31.2732 37.7214 31.3172 37.8084 31.3792L37.6675 31.7117C37.5591 31.6521 37.4341 31.6297 37.3118 31.6481C37.1895 31.6664 37.0766 31.7245 36.9905 31.8133C36.9559 31.8606 36.9316 31.9146 36.919 31.9719C36.9064 32.0291 36.9058 32.0884 36.9173 32.1459C36.9212 32.2 36.9362 32.2527 36.9615 32.3007C36.9867 32.3487 37.0216 32.391 37.064 32.4249C37.1063 32.4587 37.1552 32.4835 37.2076 32.4976C37.26 32.5117 37.3147 32.5148 37.3683 32.5068C37.7619 32.456 38.0284 32.1289 38.4231 32.1459C38.6305 32.15 38.8336 32.2063 39.0135 32.3096" fill="#003F88"/>
<path fill-rule="evenodd" clip-rule="evenodd" d="M40.3346 31.9147L40.109 32.1965L37.4697 30.5435L37.7011 30.2617L40.3346 31.9147Z" fill="#003F88"/>
<path fill-rule="evenodd" clip-rule="evenodd" d="M39.0037 28.5748L38.7159 29.1163L41.2029 30.5828L41.0337 30.8929L38.5467 29.4332L38.2535 29.9688L37.9434 29.7874L38.6935 28.3945L39.0037 28.5748Z" fill="#003F88"/>
<path fill-rule="evenodd" clip-rule="evenodd" d="M39.4603 26.5195L40.9775 27.873L41.9925 28.3142L41.8686 28.6527L40.9322 28.2918L38.7676 28.241L38.8746 27.8915L40.386 27.914L39.3135 26.9312L39.4603 26.5195Z" fill="#003F88"/>
<path fill-rule="evenodd" clip-rule="evenodd" d="M18.6549 34.1188C18.4636 34.346 18.1938 34.4929 17.8992 34.5305C17.7806 34.5327 17.6629 34.5092 17.5543 34.4616C17.4456 34.4141 17.3484 34.3436 17.2695 34.255C17.1877 34.1749 17.1228 34.0791 17.0789 33.9733C17.0349 33.8675 17.0128 33.754 17.0137 33.6395C17.0163 33.5107 17.0512 33.3847 17.1152 33.273L17.4592 33.4816C17.4325 33.5343 17.4171 33.5919 17.414 33.6509C17.4094 33.7084 17.417 33.7662 17.4365 33.8205C17.456 33.8748 17.4868 33.9243 17.5269 33.9657C17.5718 34.0188 17.628 34.0611 17.6914 34.0894C17.7549 34.1178 17.8239 34.1314 17.8933 34.1295C18.0752 34.0876 18.2379 33.9863 18.3558 33.8418L19.8955 32.3359L20.1773 32.6236L18.6549 34.1188Z" fill="#003F88"/>
<path fill-rule="evenodd" clip-rule="evenodd" d="M23.8435 33.5882L22.7607 32.9286L22.8568 32.7648L23.2503 33.0073L23.8801 31.8793L23.4865 31.6369L23.5711 31.4901C23.6806 31.5634 23.8031 31.6151 23.932 31.6424C23.9759 31.648 24.0205 31.6408 24.0605 31.6219C24.1004 31.6029 24.1341 31.5729 24.1575 31.5353L24.4059 31.6876L23.5558 33.171L23.945 33.4135L23.8435 33.5882ZM27.0192 32.9172C27.0277 32.874 27.0238 32.8293 27.0078 32.7883C26.9919 32.7474 26.9646 32.7118 26.9291 32.6857C26.8285 32.6072 26.7069 32.5601 26.5796 32.5504C26.4592 32.521 26.3336 32.521 26.2132 32.5504C26.1705 32.5637 26.1319 32.5878 26.1013 32.6204C26.0707 32.6531 26.049 32.693 26.0384 32.7365C26.0321 32.7659 26.0323 32.7963 26.0391 32.8256C26.0459 32.8548 26.0591 32.8822 26.0778 32.9058C26.128 32.9681 26.1916 33.0183 26.264 33.0526C26.2978 33.0526 26.3541 33.1033 26.4332 33.1372C26.5043 33.1725 26.5778 33.2026 26.6532 33.2273C26.7504 33.1996 26.8407 33.1515 26.9181 33.0864C26.9693 33.0313 27.0044 32.9633 27.0196 32.8896M26.8787 33.8429C26.8878 33.8107 26.89 33.777 26.8851 33.744C26.8802 33.7109 26.8684 33.6793 26.8504 33.6512C26.7808 33.5746 26.6963 33.5131 26.602 33.4705L26.4383 33.3973L26.2022 33.2958C26.0969 33.3176 25.9984 33.364 25.9145 33.4312C25.8488 33.4897 25.8018 33.5662 25.7791 33.6512C25.7672 33.7069 25.7709 33.7648 25.7898 33.8185C25.8087 33.8723 25.842 33.9198 25.8861 33.9558C25.9897 34.0527 26.1227 34.1123 26.264 34.125C26.3966 34.1543 26.5344 34.1502 26.665 34.1128C26.7163 34.0934 26.7616 34.0608 26.7961 34.0182C26.8307 33.9756 26.8534 33.9246 26.8618 33.8704M26.2018 34.3384C26.0704 34.3231 25.9415 34.2908 25.8184 34.2423C25.7148 34.2065 25.6191 34.1509 25.5366 34.0786C25.4695 34.0249 25.4171 33.955 25.3843 33.8755C25.3619 33.8 25.3619 33.7196 25.3843 33.6441C25.4002 33.5398 25.4545 33.4452 25.5366 33.3788C25.658 33.2966 25.7972 33.2444 25.9428 33.2265C25.8357 33.1718 25.74 33.0972 25.661 33.0065C25.6334 32.971 25.6139 32.9299 25.6037 32.886C25.5936 32.8422 25.5931 32.7967 25.6024 32.7526C25.6227 32.6754 25.6631 32.6049 25.7196 32.5484C25.7761 32.4919 25.8466 32.4514 25.9239 32.4311C26.1355 32.3563 26.3627 32.3369 26.5839 32.3748C26.8051 32.3947 27.0172 32.4724 27.1987 32.6003C27.2611 32.6395 27.3105 32.6963 27.3407 32.7636C27.3708 32.8308 27.3803 32.9055 27.3679 32.9782C27.3426 33.0736 27.2847 33.1571 27.2042 33.2143C27.0934 33.2919 26.9658 33.3422 26.8319 33.3611C26.9627 33.419 27.0813 33.5013 27.1814 33.6036C27.2168 33.6449 27.2419 33.6941 27.2547 33.7471C27.2674 33.8 27.2674 33.8552 27.2546 33.9082C27.2311 33.9941 27.1863 34.0727 27.1244 34.1368C27.0625 34.2008 26.9854 34.2482 26.9004 34.2746C26.6722 34.3619 26.4245 34.3854 26.1841 34.3423M29.8726 33.175C29.8777 33.0671 29.8584 32.9595 29.8164 32.8601C29.7868 32.7835 29.7358 32.7169 29.6696 32.6684C29.6166 32.6303 29.5575 32.6017 29.4948 32.5838C29.4329 32.5776 29.3705 32.5776 29.3086 32.5838C29.1732 32.5748 29.0391 32.6149 28.9308 32.6968C28.8833 32.7364 28.8457 32.7866 28.8213 32.8434C28.7968 32.9003 28.786 32.9621 28.7899 33.0238C28.7854 33.0944 28.8011 33.1649 28.8352 33.2269C28.8721 33.2855 28.9249 33.3325 28.9875 33.3623C29.0384 33.3893 29.094 33.4065 29.1512 33.4131C29.3062 33.4214 29.4616 33.4101 29.6137 33.3792C29.6989 33.364 29.7822 33.3394 29.862 33.306C29.8651 33.2892 29.8651 33.272 29.862 33.2552C29.865 33.2309 29.865 33.2063 29.862 33.182M28.3845 33.0183C28.3857 32.9233 28.4109 32.8302 28.4577 32.7475C28.5097 32.6663 28.5765 32.5956 28.6545 32.5389C28.7444 32.4784 28.8434 32.4327 28.9477 32.4035C29.062 32.3746 29.1794 32.3596 29.2972 32.3591C29.419 32.3585 29.5403 32.3737 29.6581 32.4043C29.7572 32.4304 29.8506 32.4744 29.9336 32.5342C30.0336 32.6022 30.1135 32.6957 30.1651 32.805C30.2254 32.9411 30.2543 33.0891 30.2497 33.2379C30.2497 33.3917 30.2231 33.5443 30.171 33.689C30.1191 33.8229 30.0385 33.9438 29.9348 34.0432C29.8183 34.145 29.682 34.2218 29.5346 34.2687C29.3516 34.3233 29.1615 34.3498 28.9706 34.3474H28.6435V34.0991C28.6922 34.1192 28.7435 34.1325 28.7958 34.1384H28.9989C29.2115 34.1504 29.422 34.0908 29.5967 33.9692C29.6691 33.9129 29.7283 33.8414 29.7702 33.7598C29.812 33.6783 29.8356 33.5885 29.8392 33.4969C29.7448 33.5399 29.6467 33.5739 29.546 33.5984C29.4462 33.6221 29.3439 33.6335 29.2413 33.6323C29.1437 33.6385 29.0458 33.6385 28.9481 33.6323C28.8578 33.615 28.7704 33.5846 28.6888 33.5422C28.5941 33.4986 28.5126 33.4307 28.4526 33.3454C28.4001 33.2567 28.3729 33.1553 28.3739 33.0522M32.5529 31.4165L32.4797 33.3902L32.181 33.5819V31.716L31.0514 32.2804L30.9499 32.0604L32.3994 31.3047L32.5529 31.4165Z" fill="#003F88"/>
<path fill-rule="evenodd" clip-rule="evenodd" d="M33.2221 15.3954C32.9859 15.2824 33.1488 15.238 33.1658 15.0231C33.1827 14.8082 33.0528 14.6169 33.0926 14.4874C33.1941 14.1332 33.6566 14.2674 33.899 14.4481C33.9544 14.5072 33.9949 14.5787 34.0171 14.6567C34.1017 14.8712 34.1863 15.1754 33.9384 15.3336C33.8318 15.3983 33.7117 15.4375 33.5875 15.4483C33.4632 15.4591 33.3382 15.4411 33.2221 15.3958" fill="#003F88"/>
<path fill-rule="evenodd" clip-rule="evenodd" d="M30.532 14.3404C30.5288 14.3161 30.5288 14.2915 30.532 14.2672C30.8237 14.1833 31.11 14.0816 31.3892 13.9626C31.6289 13.8823 31.83 13.7154 31.9532 13.4946C31.4454 13.6188 30.9248 13.6831 30.4021 13.6863C30.2291 13.5736 30.0668 13.4453 29.9172 13.303C29.7027 13.0716 29.7311 12.846 30.0412 12.8236C30.5092 13.055 31.3554 12.8858 31.8627 12.8236C32.0567 12.813 32.2475 12.7691 32.4267 12.6937C32.6505 12.0656 32.8389 11.4254 32.9911 10.7762C33.2618 10.3645 33.4704 10.7369 33.6959 11.0356C33.6959 11.0749 33.7581 11.1316 33.7975 11.2324C33.8707 11.4524 33.8821 11.5425 33.6566 11.6779C33.4509 11.9636 33.3104 12.2908 33.2449 12.6367C33.5944 12.6705 33.8746 12.4222 34.2713 12.5127C34.3046 12.6025 34.3014 12.7017 34.2624 12.7892C34.2235 12.8766 34.1518 12.9454 34.0628 12.9806C33.7357 13.0538 33.3972 13.0987 33.0308 13.1668C32.876 13.5146 32.6423 13.8215 32.3483 14.0634C32.2531 14.1255 32.1533 14.1803 32.0496 14.2271C31.8206 14.315 31.582 14.3756 31.3388 14.4077C31.0711 14.4422 30.8001 14.4422 30.5324 14.4077" fill="#003F88"/>
<path fill-rule="evenodd" clip-rule="evenodd" d="M22.7156 16.6179C22.4215 16.5661 22.1435 16.4464 21.9036 16.2684C21.898 16.1952 21.898 16.1217 21.9036 16.0484C22.3237 15.4187 22.7005 14.7613 23.0316 14.0806C23.0938 13.7818 23.1954 13.4508 23.2741 13.1501C23.3756 12.9809 23.4264 12.9246 23.6181 13.06C23.6913 13.2123 23.4772 13.4886 23.4488 13.6693C23.4559 13.9989 23.4408 14.3287 23.4036 14.6564C23.3622 14.8005 23.3321 14.9476 23.3134 15.0964C23.198 15.3426 23.1312 15.6088 23.1166 15.8804C22.9757 16.0551 23.0265 16.3991 22.8518 16.5967L22.7219 16.6644" fill="#003F88"/>
<path fill-rule="evenodd" clip-rule="evenodd" d="M25.3047 13.3146C24.9505 13.4386 24.7407 13.2524 24.4928 13.1284C24.4475 13.0383 24.4928 12.9592 24.4928 12.8923C24.5416 12.8687 24.5826 12.8315 24.6108 12.7852C24.7517 12.7065 24.8076 12.6951 24.9603 12.6215C25.113 12.5479 25.5243 11.9391 25.7554 12.0237C25.8166 12.2567 25.8093 12.5025 25.7343 12.7314C25.6593 12.9604 25.5199 13.1629 25.3327 13.3146" fill="#003F88"/>
<path fill-rule="evenodd" clip-rule="evenodd" d="M22.3547 13.7037C22.174 13.636 21.9375 13.1397 21.8584 12.9425C21.8584 12.604 22.1402 12.4702 22.4677 12.5647C22.7723 12.7508 22.9584 12.8071 22.8679 13.2019C22.7645 13.4261 22.5825 13.6046 22.3563 13.7037" fill="#003F88"/>
<path fill-rule="evenodd" clip-rule="evenodd" d="M24.8418 12.4199C24.7403 12.2675 24.8418 11.8559 24.7288 11.7712C24.6501 11.8165 24.5765 11.8842 24.4927 11.9236C24.2388 11.9236 23.9287 11.7374 23.9287 11.5064C23.9287 11.2753 23.9681 11.3371 24.2042 11.2246L24.7686 10.659C25.1295 10.4335 25.3948 10.5744 25.5695 10.9522C25.5771 11.2246 25.5271 11.4955 25.4227 11.7472C25.259 11.9389 25.124 12.1408 24.9827 12.3112C24.9323 12.3388 24.8833 12.3688 24.8359 12.4014" fill="#003F88"/>
<path fill-rule="evenodd" clip-rule="evenodd" d="M22.259 12.1494C22.1519 12.11 22.1519 12.0593 22.1858 11.9463C22.1071 11.7889 21.9603 11.698 21.8926 11.5461C21.8304 11.2359 21.7351 11.1568 21.8926 10.9258C22.1126 10.9258 22.8797 11.0104 22.8627 11.4276C22.7451 11.7286 22.5226 11.9769 22.2362 12.1266" fill="#003F88"/>
<path fill-rule="evenodd" clip-rule="evenodd" d="M18.328 22.6984C17.9954 22.9298 17.2 22.7771 17.3015 22.3048C17.2759 22.2784 17.2573 22.2459 17.2475 22.2105C17.2377 22.175 17.2369 22.1376 17.2453 22.1017C17.1102 21.608 16.9426 21.1238 16.7435 20.6522C16.6647 20.5054 16.5687 20.3873 16.6305 20.2236C16.7435 20.1953 16.8619 20.3196 16.9576 20.4098C17.0028 20.4098 17.0591 20.2744 17.0815 20.1953C17.0477 19.8682 17.0815 19.4845 17.0253 19.1464C16.9406 19.0732 16.856 18.9996 16.7769 18.9209C16.7092 19.0901 16.4951 19.6486 16.3046 19.3495C16.3791 19.0721 16.3654 18.7784 16.2653 18.5092C16.096 18.3344 15.865 18.2105 15.793 18.0129C15.8213 17.7374 16.244 17.6744 16.4868 17.7815C16.6836 17.7815 16.6836 17.4273 16.904 18.0464C16.904 18.1424 17.0056 18.2101 17.1185 18.2608L17.1693 18.1987C17.1526 17.9226 17.1526 17.6458 17.1693 17.3698C16.9273 17.1562 16.7243 16.9021 16.5695 16.6189C16.5695 16.3312 16.8966 16.1619 17.1787 16.0549C17.2595 15.9069 17.2892 15.7365 17.2634 15.57C17.2841 15.5108 17.3146 15.4554 17.3535 15.4062C17.4567 15.4216 17.5551 15.4602 17.6412 15.5192C17.8667 15.8069 17.3929 16.698 17.838 16.7712C17.9226 16.6189 17.8041 16.461 17.7364 16.3382C17.7364 16.1182 18.0973 15.8419 18.3398 15.7742C18.694 15.7404 18.6724 15.9435 18.6783 16.2465L18.729 16.3705C19.1801 16.6976 19.1801 16.6976 19.8063 17.1207C19.9129 17.2768 19.986 17.4535 20.0208 17.6394C20.1054 17.8141 20.1109 18.1074 19.8968 18.1302C19.3851 17.7862 18.8758 17.3914 18.374 17.0699C18.3716 17.081 18.3716 17.0926 18.374 17.1037C18.6579 17.4082 18.8427 17.7917 18.9042 18.2034C18.8493 18.2992 18.7641 18.374 18.6619 18.4159C18.5598 18.4578 18.4465 18.4645 18.3402 18.4348C18.3168 18.3836 18.307 18.3272 18.3118 18.2711C18.0863 17.9963 17.8108 17.7666 17.4999 17.5941C17.4098 17.7689 17.5845 18.288 17.6408 18.5021V18.8744C17.7931 19.0606 17.9454 19.2353 18.1131 19.4384L18.3048 19.76V19.7883C18.378 19.9457 18.5409 20.4145 18.2371 20.418C18.2068 20.4026 18.1784 20.3837 18.1525 20.3618C18.0526 20.1071 17.8873 19.8833 17.6731 19.7131C17.5999 19.9493 17.6731 20.2039 17.566 20.407C17.4774 20.4987 17.3769 20.5781 17.2673 20.6432C17.2376 20.6432 17.2084 20.651 17.1826 20.6659C17.1568 20.6807 17.1354 20.7021 17.1205 20.7278C17.2051 20.8348 17.2952 20.9533 17.3854 21.0603C17.6713 21.5468 17.998 22.0081 18.3618 22.4394C18.3918 22.5195 18.3918 22.6077 18.3618 22.6878" fill="#003F88"/>
<path fill-rule="evenodd" clip-rule="evenodd" d="M16.1566 20.6381C16.0212 20.6381 15.9598 20.4858 15.8579 20.4126C15.5037 20.3111 15.2376 20.2379 15.1191 19.888L15.1699 19.7919C15.4231 19.7183 15.6845 19.6767 15.948 19.668C16.3935 19.7695 16.2412 20.3221 16.1735 20.6381" fill="#003F88"/>
<path fill-rule="evenodd" clip-rule="evenodd" d="M15.2276 19.5935C15.1489 19.6498 15.1375 19.6329 15.0977 19.6329C15.058 19.6329 15.0355 19.4861 14.9509 19.4523C14.5617 19.4523 14.1559 19.1476 14.2232 18.7474C14.2964 18.6627 14.3755 18.7135 14.5219 18.7474C14.8545 18.6797 15.3508 18.4766 15.3677 19.0067C15.331 19.1972 15.2842 19.3856 15.2276 19.5711" fill="#003F88"/>
<path d="M35.5126 20.0966H31.6213C30.4933 20.0966 29.929 21.2246 29.4724 22.2117L28.8183 20.7397L29.9179 20.3336C29.2748 19.7243 27.2672 19.3862 27.0023 20.3052L26.5297 22.2121C26.1573 21.3549 25.6272 20.097 24.4374 20.097H20.4883C20.9999 21.005 21.4923 21.3321 23.3082 21.2534L23.5444 21.8795H21.5541C22.1181 22.9599 22.4849 23.0067 24.0863 22.9599L24.4248 23.7101L22.8568 23.7663C23.1953 24.5334 23.5507 24.8605 24.8928 24.7983L25.1577 25.4808H23.9116C24.3796 26.2533 24.611 26.6087 25.604 26.5186L25.8688 27.2404H25.0002C25.0934 27.5207 25.2733 27.764 25.5138 27.9354C25.7543 28.1067 26.0431 28.1972 26.3384 28.1937C26.8107 28.2669 26.9024 29.1579 26.3384 29.4456L28.0308 32.164L29.7231 29.4456C29.1591 29.1579 29.2382 28.2669 29.7231 28.1937C30.0184 28.1972 30.3072 28.1067 30.5477 27.9354C30.7882 27.764 30.9681 27.5207 31.0613 27.2404H30.138L30.4028 26.5186C31.3899 26.6032 31.6229 26.2537 32.0952 25.4808H30.8484L31.1132 24.8207C32.4553 24.8829 32.8056 24.5499 33.1437 23.7888L31.5816 23.7325L31.9201 22.9823C33.5219 23.0276 33.86 22.9823 34.4523 21.8996H32.4557L32.6982 21.2734C34.5141 21.3522 35.0049 21.0251 35.5181 20.1171" fill="#003F88"/>
<path d="M41.4399 18.2356V18.2018C41.4962 18.0609 41.4906 18.005 41.4792 17.9818C41.4287 17.9411 41.3685 17.914 41.3045 17.9031H41.1636V17.8637C41.1455 17.8422 41.1246 17.8233 41.1014 17.8074L41.0282 17.7791L41.1242 17.7059C41.1847 17.6553 41.2534 17.6153 41.3273 17.5878H41.3667C41.5062 17.4652 41.593 17.2935 41.6091 17.1084C41.5817 17.078 41.5475 17.0544 41.5093 17.0397C41.471 17.025 41.4299 17.0195 41.3891 17.0238C41.2353 17.04 41.0839 17.0741 40.9381 17.1254C40.8385 17.1602 40.7367 17.1885 40.6334 17.21H40.5996C40.3513 17.0919 40.3402 17.086 39.8215 16.8164C39.7821 16.8391 39.7522 16.8751 39.7369 16.9179C39.7192 16.9559 39.7101 16.9973 39.7101 17.0392C39.7101 17.081 39.7192 17.1224 39.7369 17.1604L39.7821 17.1942L39.6582 17.2619H39.6298L39.596 17.2958C39.5918 17.3182 39.5918 17.3411 39.596 17.3635V17.4198C39.5956 17.441 39.5909 17.462 39.5822 17.4814C39.5734 17.5009 39.5609 17.5183 39.5452 17.5327V17.5949L39.472 17.5386C39.4085 17.49 39.3482 17.4374 39.2914 17.3812H39.2292C39.2061 17.3808 39.1833 17.3851 39.1619 17.3938C39.1406 17.4025 39.1213 17.4155 39.1052 17.432C39.1052 17.432 39.1052 17.4997 39.1052 17.5559V17.5843C39.1052 17.6575 39.0265 17.7811 38.7951 17.7874H38.677C38.6492 17.7809 38.6202 17.7809 38.5924 17.7874C38.5924 17.9448 38.6601 17.9566 38.8285 17.9841C38.901 17.991 38.9728 18.0042 39.043 18.0235H39.0934C39.1276 18.0271 39.1605 18.0387 39.1894 18.0573L39.3134 18.1026H39.3528L39.2004 18.1758C39.1434 18.2017 39.0918 18.238 39.0481 18.2829C39.0371 18.3313 39.0138 18.376 38.9804 18.4127V18.4466H38.9182L38.5857 18.362L38.4109 18.3167C38.1063 18.238 37.7285 18.1361 37.3731 18.0806C37.2932 18.05 37.21 18.0291 37.1251 18.0184H36.9559V18.0692C37.0147 18.1151 37.077 18.1565 37.142 18.1931V18.2195C37.1958 18.3762 37.3065 18.507 37.4522 18.5859L37.8583 18.6422C38.3067 18.6523 38.7445 18.7807 39.1272 19.0145L39.2174 19.0653H39.2457L39.1103 19.133C39.0723 19.1511 39.0379 19.1759 39.0088 19.2062H38.9635C38.7723 19.1733 38.5838 19.1262 38.3995 19.0653C38.3268 18.9876 38.2268 18.9412 38.1205 18.936C38.0142 18.9307 37.9101 18.9669 37.83 19.037H37.7623C37.7038 19.0178 37.6431 19.0064 37.5817 19.0031L37.2093 18.8791C36.834 18.7734 36.4738 18.6198 36.1376 18.4222C36.0608 18.3581 35.9909 18.2863 35.929 18.2077C35.929 18.2077 35.9007 18.1738 35.8897 18.1738V18.1345C35.8418 18.1666 35.7982 18.2045 35.7598 18.2474C35.7487 18.4035 35.7689 18.5603 35.8192 18.7084C35.8696 18.8566 35.9491 18.9932 36.053 19.1102C36.1765 19.1584 36.3051 19.1925 36.4364 19.2117C36.6842 19.2382 36.9202 19.3318 37.1188 19.4825H37.181L37.1247 19.5612C37.0471 19.6577 36.9602 19.7464 36.8654 19.8261L36.8146 19.843C36.7857 19.8644 36.7593 19.889 36.7359 19.9162H36.595C36.4408 19.9033 36.2922 19.8529 36.162 19.7694C36.1196 19.7432 36.0742 19.7223 36.0266 19.7072V19.7544C36.2136 20.0723 36.4581 20.3526 36.7477 20.581V20.6203C36.7834 20.6418 36.8241 20.6535 36.8658 20.6542C37.0913 20.6542 37.3337 20.3393 37.5144 20.0902L37.6273 19.9493H37.6726C37.8418 19.8194 37.8532 19.8139 37.8473 19.8084L37.9434 19.8422C38.0731 19.883 38.1964 19.9418 38.3098 20.017C38.4452 19.9548 38.5853 19.8202 38.5691 19.673L38.507 19.5998L38.2586 19.3798H38.2193V19.3066C38.2505 19.2418 38.2947 19.1842 38.3491 19.1373H38.4054C38.6479 19.1936 38.8624 19.2613 39.1272 19.3404L39.3587 19.4191L39.4149 19.4585C39.517 19.5577 39.6508 19.6176 39.7928 19.6277C39.8208 19.6322 39.8494 19.6322 39.8774 19.6277C39.9908 19.524 40.086 19.402 40.1592 19.2668C40.1139 19.1991 40.0915 19.1822 40.086 19.1822L40.1253 19.1314C40.145 19.1109 40.1678 19.0937 40.193 19.0806C40.5866 18.9567 41.0109 18.7988 41.321 18.6914C41.5127 18.5733 41.5296 18.5615 41.4619 18.3868C41.4498 18.348 41.4347 18.3102 41.4167 18.2738M39.8939 18.5052L39.9561 18.449C40.0407 18.3702 40.0801 18.3309 40.0915 18.2915C40.1029 18.2522 40.0915 18.2577 40.0293 18.2293H39.9671C39.9413 18.23 39.9157 18.2247 39.8922 18.2139C39.8687 18.2032 39.8481 18.1872 39.8317 18.1672V18.0318L39.9164 18.0034C40.0319 17.9761 40.1437 17.9345 40.2489 17.8795V17.8401L40.3052 17.8909C40.4528 18.007 40.5563 18.1702 40.5984 18.3533V18.3872C40.5269 18.4641 40.4392 18.5242 40.3417 18.5632C40.2442 18.6022 40.1393 18.6191 40.0344 18.6127H39.9837V18.5281H39.9443L39.8939 18.5052Z" fill="#003F88"/>
<path d="M38.2531 17.7786C38.1658 17.7803 38.0804 17.7526 38.0107 17.6999C38.0058 17.6032 38.0202 17.5065 38.0531 17.4155C38.086 17.3244 38.1368 17.2409 38.2024 17.1697C38.2362 17.1189 38.2646 17.0851 38.287 17.0457V17.0064L38.3208 16.9442C38.3629 16.8635 38.4006 16.7806 38.4338 16.6958C38.4495 16.6534 38.4627 16.61 38.4732 16.566C38.5353 16.3235 38.5802 16.1724 38.7046 16.133C38.8289 16.0937 38.8455 16.1614 38.8683 16.1952C38.8911 16.2291 38.8683 16.2798 38.8683 16.37V16.4038C38.8747 16.4429 38.8747 16.4828 38.8683 16.5219C38.8879 16.6622 38.8879 16.8046 38.8683 16.945V17.0237C38.8586 17.0715 38.8454 17.1186 38.8289 17.1646C38.7888 17.3435 38.7055 17.51 38.5865 17.6495L38.5302 17.6947H38.4964C38.4185 17.749 38.326 17.7784 38.2311 17.7794L38.2531 17.7786Z" fill="#003F88"/>
<path d="M38.2535 17.7721C38.3459 17.7672 38.4353 17.738 38.5128 17.6875H38.5467L38.603 17.6422C38.7211 17.5051 38.8024 17.3401 38.8391 17.1628C38.8583 17.1178 38.8715 17.0704 38.8785 17.0219V16.9656C38.9013 16.8255 38.9013 16.6827 38.8785 16.5426V16.4186V16.3847C38.8954 16.3296 38.8954 16.2706 38.8785 16.2155C38.8785 16.1816 38.8108 16.1702 38.721 16.1533C38.6313 16.1364 38.5573 16.345 38.501 16.5705C38.5062 16.6226 38.4922 16.6748 38.4617 16.7173C38.4168 16.7953 38.3773 16.8763 38.3436 16.9597L38.3097 17.0274V17.0668C38.2857 17.1095 38.2595 17.1509 38.231 17.1908C38.1295 17.3376 37.9886 17.5348 38.0342 17.7095C38.1029 17.7595 38.1854 17.787 38.2704 17.7882" fill="#003F88"/>
<path d="M37.3796 17.5877C37.3078 17.5771 37.2399 17.5479 37.1828 17.5031C37.0529 17.2044 37.5213 16.8734 37.5764 16.832C37.6107 16.8394 37.6424 16.8559 37.6682 16.8797C37.6941 16.9035 37.713 16.9338 37.7232 16.9674C37.7467 17.0494 37.7512 17.1356 37.7366 17.2196C37.7219 17.3036 37.6884 17.3831 37.6386 17.4523C37.4922 17.5483 37.4359 17.5877 37.3796 17.5877Z" fill="#003F88"/>
<path d="M37.3789 17.5532C37.4296 17.5532 37.4918 17.5139 37.6272 17.4178C37.6772 17.3498 37.7112 17.2714 37.7268 17.1884C37.7424 17.1054 37.7392 17.02 37.7173 16.9385C37.7065 16.9078 37.6886 16.88 37.6651 16.8575C37.6416 16.8349 37.6131 16.8182 37.582 16.8086C37.5257 16.848 37.0632 17.1809 37.1884 17.4686C37.2438 17.5131 37.3099 17.5423 37.3801 17.5532" fill="#003F88"/>
</svg>
