<svg width="164" height="56" viewBox="0 0 164 56" fill="none" xmlns="http://www.w3.org/2000/svg">
<rect width="164" height="56" rx="6.58824" stroke="#EAECF0"/>
<rect x="0.5" y="0.5" width="163" height="55" rx="6.08824" fill="white" stroke="#EAECF0"/>
<g clip-path="url(#clip0_53672_556145)">
<g clip-path="url(#clip1_53672_556145)">
<path d="M44.5244 42.7653C44.7038 42.4471 44.8669 42.1585 45.0314 41.8699C45.3766 41.2618 45.7191 40.6523 46.0697 40.0468C46.4392 39.4104 46.8181 38.778 47.1889 38.1429C47.4033 37.7761 47.6137 37.4066 47.8187 37.0344C47.8874 36.909 47.9697 36.8484 48.1221 36.8484C51.0549 36.8484 53.9878 36.8443 56.9206 36.8389C56.9908 36.8389 57.0609 36.8106 57.1323 36.7958C57.1094 36.7283 57.0959 36.6542 57.0609 36.5935C56.748 36.0541 56.4298 35.5174 56.1197 34.9754C56.0509 34.8554 55.9673 34.8203 55.8338 34.8203C52.9117 34.8257 49.9896 34.8257 47.0676 34.827C47.0244 34.827 46.9813 34.827 46.9381 34.827C46.841 34.823 46.8114 34.7785 46.8613 34.6908C47.2577 34.0004 47.6528 33.31 48.0492 32.6196C48.3594 32.0789 48.6695 31.5369 48.981 30.9961C49.7928 29.5843 50.6045 28.1711 51.419 26.7593C52.1472 25.4972 52.8794 24.2364 53.6102 22.977C53.9986 22.3068 54.3883 21.6393 54.7793 20.9705C54.867 20.8195 54.9034 20.8235 54.9897 20.9759C55.4697 21.816 55.9498 22.6574 56.4325 23.4961C57.0514 24.5722 57.6717 25.6496 58.2947 26.7229C58.6588 27.3513 59.0283 27.9756 59.395 28.6013C59.4233 28.6498 59.4449 28.7038 59.48 28.7806C59.3923 28.7901 59.3317 28.8022 59.2696 28.8022C58.6439 28.8022 58.0183 28.8049 57.3939 28.7995C57.2524 28.7995 57.1688 28.8521 57.0986 28.9748C56.8006 29.498 56.4918 30.0145 56.1857 30.5336C56.183 30.5377 56.1777 30.5417 56.1763 30.5471C56.152 30.6253 56.1278 30.7049 56.1035 30.7831C56.175 30.7939 56.2464 30.8154 56.3192 30.8154C57.7 30.8168 59.0795 30.8181 60.4603 30.8141C60.6032 30.8141 60.6882 30.8613 60.7583 30.9826C61.2518 31.8402 61.7535 32.6925 62.247 33.5501C62.7796 34.4778 63.3028 35.4123 63.8368 36.34C64.6728 37.795 65.5102 39.2486 66.353 40.6995C66.7279 41.3454 67.1135 41.9846 67.4924 42.6278C67.5127 42.6615 67.518 42.7046 67.5369 42.7613H44.5244V42.7653Z" fill="#7DA6D7"/>
<path d="M32.9404 42.7789C33.0281 42.6144 33.0968 42.4796 33.1724 42.3488C33.4555 41.8539 33.7401 41.3604 34.0259 40.8668C34.7622 39.5912 35.5011 38.3156 36.236 37.04C37.0923 35.554 37.9458 34.0653 38.8021 32.5807C39.3981 31.5464 40.0022 30.5162 40.5996 29.4833C40.907 28.952 41.2064 28.4181 41.5125 27.8868C42.1584 26.7635 42.8043 25.6403 43.4529 24.5184C44.0853 23.4248 44.7231 22.3339 45.3555 21.239C45.721 20.6052 46.0796 19.9674 46.4424 19.3336C46.5111 19.2123 46.5961 19.1003 46.6662 18.979C46.6932 18.9331 46.6972 18.8738 46.7121 18.8212C46.6622 18.8091 46.6123 18.7848 46.5624 18.7848C45.9475 18.7835 45.3326 18.7848 44.7191 18.7848C44.6584 18.7848 44.5977 18.7632 44.537 18.7524C44.5559 18.6891 44.5627 18.6189 44.595 18.5637C45.1142 17.6467 45.6333 16.7284 46.1592 15.8155C46.6608 14.9444 47.1705 14.0774 47.6762 13.209C47.714 13.1443 47.7625 13.0823 47.7868 13.0135C47.8717 12.764 48.043 12.7114 48.2938 12.7195C48.8804 12.7384 49.4683 12.7303 50.0562 12.7222C50.183 12.7209 50.2558 12.7681 50.3138 12.8705C50.6697 13.4976 51.0244 14.1246 51.3844 14.7489C51.9157 15.6713 52.4524 16.5909 52.985 17.5132C53.1954 17.876 53.3963 18.2441 53.6147 18.6028C53.697 18.7376 53.6862 18.8401 53.6107 18.9695C53.2412 19.6006 52.8798 20.2371 52.5171 20.8708C52.2016 21.421 51.8887 21.9739 51.5732 22.524C50.8275 23.8199 50.0818 25.1144 49.3334 26.4089C48.7388 27.4377 48.1374 28.4626 47.5427 29.4914C47.2326 30.0267 46.9319 30.5675 46.6231 31.1028C46.0931 32.0197 45.5592 32.9353 45.0292 33.8523C44.7474 34.3417 44.475 34.8353 44.1918 35.3248C43.9356 35.767 43.67 36.2026 43.4124 36.6435C43.3046 36.8283 43.3275 36.8579 43.5446 36.8579C44.1649 36.8579 44.7851 36.8552 45.4041 36.8579C45.4526 36.8579 45.5012 36.8836 45.5497 36.897C45.5335 36.9456 45.5241 36.9968 45.4998 37.04C45.0737 37.7938 44.649 38.5489 44.2174 39.2986C43.8844 39.8771 43.5392 40.4475 43.2048 41.0233C42.8838 41.5775 42.571 42.1357 42.2501 42.6886C42.2245 42.7331 42.157 42.7587 42.1044 42.7816C42.0721 42.7951 42.0303 42.7843 41.9925 42.7843C39.0543 42.7843 36.116 42.7843 33.1778 42.7843C33.1144 42.7843 33.051 42.7843 32.9418 42.7843L32.9404 42.7789Z" fill="#005297"/>
<path d="M76.3878 26.7605C76.4565 26.7686 76.5064 26.7794 76.5577 26.7794C77.9479 26.77 79.3395 26.7605 80.7297 26.7497C80.8093 26.7497 80.8929 26.7444 80.9684 26.7228C81.1424 26.6742 81.2165 26.5704 81.2179 26.3911C81.2179 26.1861 81.2219 25.9811 81.2125 25.7775C81.2057 25.6332 81.257 25.5699 81.4053 25.5712C81.9986 25.5753 82.5919 25.5739 83.1839 25.5712C83.312 25.5712 83.3713 25.6225 83.37 25.7532C83.366 26.3668 83.3767 26.9817 83.3592 27.5952C83.3538 27.8056 83.3039 28.0227 83.2352 28.2222C83.1381 28.5068 82.9061 28.6578 82.6189 28.7077C82.4072 28.7441 82.1915 28.7684 81.9771 28.7684C79.1952 28.7724 76.4134 28.7711 73.6316 28.7711C73.4158 28.7711 73.3915 28.7468 73.3929 28.5283C73.3929 28.1885 73.4023 27.8487 73.3902 27.5103C73.3834 27.3255 73.4414 27.1759 73.5452 27.0316C73.9794 26.4288 74.4136 25.8274 74.8424 25.2206C75.3225 24.5383 75.7931 23.8506 76.2731 23.1683C76.9757 22.1691 77.6755 21.1686 78.3889 20.1775C78.8473 19.5396 79.326 18.9167 79.8007 18.291C79.8991 18.1602 80.0191 18.0456 80.154 17.8945C80.0758 17.877 80.038 17.8622 80.0016 17.8622C79.2478 17.8716 78.4927 17.8865 77.7389 17.8932C77.2157 17.8986 76.6925 17.8932 76.1707 17.8932C75.7634 17.8932 75.6326 18.0429 75.6596 18.4528C75.6704 18.6079 75.6623 18.7656 75.6663 18.9207C75.669 19.034 75.6259 19.0866 75.5045 19.0852C74.895 19.0812 74.2855 19.0825 73.6774 19.0852C73.5695 19.0852 73.5102 19.0421 73.5115 18.9355C73.5223 18.1872 73.5223 17.4388 73.5547 16.6917C73.5709 16.3142 73.8904 16 74.2667 15.9339C74.4258 15.9056 74.5876 15.8894 74.7481 15.8894C77.449 15.8867 80.1499 15.8867 82.8508 15.8867C83.0936 15.8867 83.1084 15.9029 83.1084 16.1416C83.1084 16.4868 83.1178 16.832 83.103 17.1758C83.0976 17.2918 83.0599 17.4226 82.9938 17.5183C82.5232 18.2074 82.0431 18.8883 81.5631 19.5707C81.0426 20.3096 80.5194 21.0472 80.0002 21.7861C79.6726 22.2527 79.3489 22.722 79.0199 23.1885C78.5668 23.8304 78.1057 24.4655 77.6566 25.11C77.275 25.6589 76.8921 26.205 76.4228 26.6837C76.4134 26.6945 76.4107 26.712 76.3905 26.7605H76.3878Z" fill="#005297"/>
<path d="M91.6005 19.3978C91.3038 19.3978 91.0071 19.3937 90.7105 19.3991C90.5716 19.4018 90.5109 19.3479 90.5244 19.2076C90.5311 19.1321 90.5244 19.0566 90.5257 18.9811C90.5298 18.4943 90.3477 18.2125 89.8933 18.0277C89.1773 17.7365 88.4572 17.7365 87.7453 18.0399C87.1519 18.292 86.8539 18.88 87.0023 19.5043C87.0629 19.7591 87.2234 19.9668 87.4284 20.1165C87.6994 20.316 87.9812 20.5116 88.2833 20.6585C89.1126 21.0644 89.9634 21.4272 90.79 21.8384C91.4562 22.1715 92.0387 22.6205 92.4554 23.257C92.895 23.9272 93.0581 24.6688 92.9974 25.4563C92.9408 26.1831 92.7035 26.8506 92.2531 27.4372C91.8877 27.9145 91.4265 28.2664 90.8858 28.5146C89.9554 28.9434 88.9804 29.0539 87.9678 28.9164C86.5816 28.7276 85.4125 28.1249 84.4389 27.1257C84.3283 27.011 84.3323 26.9382 84.4308 26.8182C84.7895 26.3813 85.136 25.9336 85.488 25.4914C85.6322 25.3093 85.6363 25.3107 85.8048 25.4738C86.3523 26.0065 86.9807 26.4231 87.7075 26.6551C88.4087 26.8789 89.1274 26.9355 89.8165 26.589C90.2763 26.3584 90.546 25.9781 90.6107 25.4644C90.6592 25.0801 90.519 24.7578 90.2628 24.4773C89.9351 24.1213 89.5212 23.8894 89.0964 23.6791C88.4181 23.3433 87.725 23.0372 87.0508 22.692C86.4319 22.3751 85.8466 22.0043 85.3787 21.4717C84.7706 20.7786 84.5171 19.9695 84.5764 19.0593C84.6533 17.8821 85.2142 16.9787 86.208 16.3678C87.2018 15.7556 88.2995 15.5453 89.4618 15.6869C89.9392 15.7448 90.4044 15.8487 90.8534 16.0226C91.5371 16.2869 92.1385 16.6496 92.485 17.3319C92.6199 17.5976 92.6698 17.8821 92.6779 18.1747C92.6859 18.5199 92.6779 18.8638 92.6833 19.209C92.6859 19.3492 92.6307 19.4005 92.4918 19.3978C92.1951 19.391 91.8985 19.3964 91.6018 19.3964L91.6005 19.3978Z" fill="#005297"/>
<path d="M121.569 23.4156C121.569 21.7409 121.569 20.0647 121.569 18.39C121.569 18.3253 121.572 18.2605 121.565 18.1958C121.545 17.976 121.403 17.8452 121.185 17.8439C120.985 17.8425 120.786 17.8398 120.586 17.8439C120.468 17.8466 120.408 17.8075 120.408 17.6767C120.412 17.1332 120.411 16.5885 120.408 16.045C120.408 15.921 120.459 15.8711 120.582 15.8711C121.316 15.8738 122.048 15.867 122.781 15.8778C122.968 15.8805 123.159 15.9129 123.337 15.9682C123.696 16.0774 123.816 16.3741 123.859 16.7125C123.871 16.8137 123.871 16.9161 123.871 17.0186C123.871 18.866 123.872 20.7147 123.868 22.562C123.868 22.7144 123.918 22.7818 124.073 22.7711C124.347 22.7522 124.622 22.7495 124.894 22.7239C125.148 22.7009 125.325 22.5526 125.461 22.3423C126.049 21.4294 126.639 20.5165 127.237 19.609C127.273 19.5537 127.369 19.5105 127.438 19.5092C128.182 19.5024 128.925 19.5038 129.669 19.5065C129.708 19.5065 129.749 19.5267 129.788 19.5375C129.774 19.5807 129.77 19.6292 129.748 19.6643C129.377 20.2252 129.007 20.7875 128.63 21.3444C128.217 21.9553 127.803 22.5647 127.377 23.1648C127.254 23.3388 127.088 23.483 126.939 23.6368C126.886 23.6907 126.848 23.7379 126.925 23.7945C127.283 24.0575 127.465 24.4445 127.661 24.8207C127.93 25.3358 128.189 25.8563 128.465 26.366C128.607 26.6276 128.806 26.8204 129.143 26.8002C129.352 26.7881 129.564 26.8029 129.774 26.8002C129.877 26.8002 129.916 26.838 129.916 26.9431C129.912 27.5027 129.913 28.0637 129.916 28.6233C129.916 28.7109 129.886 28.7554 129.796 28.7541C129.139 28.746 128.481 28.7406 127.825 28.7298C127.338 28.7231 127.029 28.4453 126.812 28.0408C126.585 27.6187 126.368 27.1926 126.142 26.7719C125.829 26.1894 125.513 25.6095 125.194 25.0297C125.083 24.8274 124.893 24.7425 124.673 24.7276C124.475 24.7142 124.274 24.7249 124.076 24.7142C123.92 24.7061 123.87 24.7694 123.871 24.9218C123.875 26.1179 123.874 27.314 123.874 28.51C123.874 28.7312 123.855 28.7527 123.638 28.7527C123.017 28.7527 122.397 28.7527 121.778 28.7527C121.584 28.7527 121.572 28.7393 121.572 28.5383C121.572 26.8312 121.572 25.1227 121.572 23.4156H121.569Z" fill="#005297"/>
<path d="M106.833 27.448C106.785 27.5046 106.731 27.5572 106.692 27.6179C106.381 28.1141 105.935 28.4539 105.413 28.6953C104.712 29.0189 103.97 29.0513 103.23 28.8881C102.299 28.6818 101.58 28.1613 101.148 27.2983C100.997 26.9976 100.901 26.6672 100.908 26.3193C100.914 26.0092 100.891 25.7018 100.979 25.3903C101.131 24.8482 101.447 24.4248 101.873 24.0796C102.357 23.6872 102.919 23.4418 103.521 23.2975C103.959 23.1923 104.401 23.0871 104.849 23.0372C105.378 22.9779 105.913 22.9725 106.446 22.9523C106.698 22.9415 106.714 22.9361 106.694 22.6826C106.667 22.3495 106.636 22.0178 106.466 21.7171C106.293 21.411 106.02 21.2398 105.695 21.1467C105.233 21.0159 104.765 21.0119 104.306 21.1521C103.917 21.2708 103.742 21.4137 103.764 21.8142C103.782 22.1661 103.768 22.1661 103.413 22.1661C102.89 22.1661 102.367 22.1661 101.845 22.1661C101.64 22.1661 101.609 22.1392 101.615 21.9315C101.628 21.5661 101.62 21.198 101.671 20.8379C101.738 20.3538 102.063 20.0343 102.473 19.8037C103.093 19.4558 103.776 19.3452 104.474 19.3048C105.139 19.2657 105.802 19.2751 106.452 19.4261C107.364 19.6378 108.103 20.0909 108.567 20.9512C108.929 21.6241 108.994 22.3441 109.005 23.0763C109.021 24.1645 109.009 25.2527 109.009 26.3409C109.009 26.7131 109.097 26.8007 109.466 26.8021C109.633 26.8021 109.801 26.8034 109.968 26.8007C110.07 26.798 110.116 26.8452 110.116 26.945C110.116 27.4992 110.119 28.0548 110.111 28.609C110.111 28.6575 110.039 28.7465 110 28.7465C109.246 28.7438 108.49 28.7573 107.739 28.7128C107.16 28.6791 106.873 28.2476 106.877 27.6974C106.877 27.6192 106.877 27.541 106.877 27.4628C106.862 27.4574 106.847 27.452 106.833 27.4466V27.448ZM106.025 24.5354V24.5407C105.939 24.5407 105.852 24.5367 105.766 24.5407C105.07 24.5785 104.388 24.6621 103.769 25.0262C103.057 25.4455 103.025 26.3841 103.621 26.8533C104.12 27.2457 104.718 27.3091 105.283 27.0327C106.241 26.5621 106.719 25.7624 106.725 24.6877C106.725 24.5758 106.683 24.5313 106.574 24.534C106.39 24.5367 106.208 24.534 106.025 24.534V24.5354Z" fill="#005297"/>
<path d="M118.413 22.4675C118.138 22.4675 117.863 22.4594 117.589 22.4702C117.441 22.4756 117.405 22.4122 117.402 22.2801C117.398 22.1156 117.401 21.9443 117.356 21.7865C117.291 21.5533 117.081 21.4467 116.875 21.3645C116.435 21.1905 115.974 21.1892 115.521 21.2728C114.891 21.3887 114.363 21.6975 113.963 22.2086C113.39 22.9435 113.21 23.7714 113.369 24.6857C113.528 25.5972 114.036 26.2526 114.851 26.6558C115.425 26.9403 116.044 27.0266 116.69 26.9187C117.517 26.7812 118.197 26.3699 118.819 25.8386C118.923 25.7496 118.977 25.7253 119.059 25.871C119.311 26.3159 119.576 26.7528 119.847 27.1857C119.909 27.2855 119.883 27.3381 119.816 27.4055C119.411 27.8235 118.946 28.1552 118.421 28.4101C117.978 28.6258 117.518 28.7944 117.035 28.8807C116.516 28.9737 115.99 29.0047 115.457 28.9508C114.768 28.882 114.112 28.7054 113.5 28.3925C112.79 28.0312 112.223 27.5012 111.79 26.8297C111.523 26.4144 111.347 25.9627 111.196 25.4934C110.928 24.6641 110.915 23.824 111.124 22.9934C111.378 21.978 111.869 21.084 112.696 20.4017C113.223 19.9661 113.823 19.6843 114.476 19.4928C115.24 19.269 116.018 19.2366 116.796 19.331C117.517 19.42 118.21 19.6331 118.792 20.0942C119.221 20.4341 119.446 20.8831 119.431 21.4413C119.425 21.7164 119.426 21.9902 119.431 22.2652C119.435 22.4082 119.387 22.4702 119.236 22.4662C118.961 22.4581 118.686 22.4635 118.411 22.4635L118.413 22.4675Z" fill="#005297"/>
<path d="M95.8477 38.4629C95.8477 39.8032 95.8477 41.1449 95.8477 42.4853C95.8477 42.6849 95.841 42.693 95.6373 42.693C94.0529 42.693 92.4685 42.693 90.8841 42.693C90.6454 42.693 90.6387 42.6849 90.6387 42.4489C90.6387 39.783 90.6387 37.1172 90.6387 34.4513C90.6387 34.2612 90.6549 34.2423 90.8531 34.2409C91.3925 34.2409 91.9305 34.2409 92.4699 34.2409C92.66 34.2409 92.6802 34.2194 92.6789 34.0252C92.6789 33.5681 92.6762 33.1096 92.6775 32.6525C92.6775 32.465 92.7085 32.434 92.8919 32.4327C93.14 32.4327 93.3881 32.4394 93.6349 32.43C93.7886 32.4246 93.8345 32.4934 93.8331 32.6322C93.8304 33.0786 93.8318 33.5263 93.8318 33.9726C93.8318 34.2274 93.8439 34.2396 94.0934 34.2396C94.6112 34.2396 95.1276 34.2436 95.6454 34.2369C95.7978 34.2342 95.8517 34.2787 95.8504 34.4378C95.845 35.7782 95.8477 37.1199 95.8477 38.4602V38.4629ZM92.6775 40.3076C92.6775 39.8936 92.6775 39.4783 92.6775 39.0643C92.6775 38.9618 92.6586 38.8796 92.5319 38.8796C92.3323 38.8796 92.1327 38.8796 91.9345 38.8823C91.8361 38.8823 91.7902 38.9349 91.7902 39.036C91.7916 39.8761 91.7916 40.7148 91.7902 41.5549C91.7902 41.6722 91.8428 41.7221 91.9548 41.7221C92.1327 41.7221 92.3107 41.7167 92.4874 41.7248C92.6249 41.7302 92.6802 41.6789 92.6789 41.5373C92.6721 41.1288 92.6762 40.7188 92.6762 40.3103L92.6775 40.3076ZM94.7231 40.3076C94.7231 39.8936 94.7204 39.4796 94.7245 39.0657C94.7245 38.9375 94.6786 38.8755 94.5451 38.8782C94.3617 38.8823 94.1797 38.8809 93.9963 38.8809C93.8857 38.8809 93.8291 38.9241 93.8291 39.0454C93.8318 39.8788 93.8318 40.7121 93.8291 41.5468C93.8291 41.6708 93.879 41.7248 94.0017 41.7234C94.1797 41.7207 94.3577 41.718 94.5343 41.7248C94.6732 41.7302 94.7271 41.6762 94.7258 41.536C94.7204 41.1274 94.7245 40.7188 94.7245 40.3103L94.7231 40.3076ZM94.7231 36.5562C94.7231 36.1692 94.7191 35.7822 94.7258 35.3939C94.7285 35.2536 94.6746 35.1983 94.5357 35.2037C94.3523 35.2091 94.1702 35.2051 93.9869 35.2064C93.8817 35.2064 93.8304 35.2563 93.8304 35.3655C93.8304 36.1503 93.8304 36.9365 93.8304 37.7213C93.8304 37.8426 93.8857 37.9006 94.0057 37.8993C94.1729 37.8993 94.3388 37.8993 94.506 37.8993C94.6948 37.8993 94.7218 37.8736 94.7218 37.6862C94.7218 37.31 94.7218 36.9338 94.7218 36.5562H94.7231ZM92.6775 36.5454C92.6775 36.1584 92.6748 35.7701 92.6789 35.3831C92.6789 35.2617 92.6384 35.2024 92.5117 35.2051C92.3283 35.2091 92.1449 35.2078 91.9628 35.2051C91.8415 35.2051 91.7902 35.2577 91.7916 35.3817C91.7943 36.1571 91.7943 36.9324 91.7916 37.7064C91.7916 37.8453 91.8536 37.9019 91.9871 37.8993C92.1489 37.8952 92.3107 37.8925 92.4712 37.8993C92.6263 37.9073 92.6816 37.8426 92.6789 37.6902C92.6721 37.3086 92.6762 36.9257 92.6762 36.5441L92.6775 36.5454Z" fill="#005297"/>
<path d="M95.1987 23.5839C95.1987 22.8949 95.196 22.2045 95.2014 21.5154C95.2014 21.3698 95.1421 21.328 95.0086 21.3307C94.7389 21.3361 94.4692 21.328 94.1996 21.3347C94.0607 21.3388 94.0094 21.2889 94.0108 21.1473C94.0175 20.6565 94.0162 20.167 94.0108 19.6762C94.0094 19.5481 94.0553 19.5022 94.1793 19.5036C94.4706 19.5076 94.7619 19.5049 95.0531 19.5036C95.2567 19.5036 95.2702 19.4874 95.2702 19.2797C95.2702 18.5799 95.2743 17.8787 95.2662 17.1789C95.2648 17.0197 95.3174 16.9752 95.4711 16.9766C96.0806 16.9833 96.6901 16.9833 97.2983 16.9766C97.4533 16.9752 97.5032 17.0211 97.5019 17.1789C97.4938 17.8787 97.4978 18.5799 97.4978 19.2797C97.4978 19.4874 97.5127 19.5022 97.7163 19.5022C98.288 19.5022 98.8598 19.5063 99.4315 19.4995C99.5866 19.4982 99.6351 19.5508 99.6324 19.7072C99.623 20.1805 99.623 20.6551 99.6324 21.1298C99.6351 21.2876 99.5785 21.3347 99.4275 21.3334C98.8557 21.3267 98.284 21.3307 97.7122 21.3307C97.5127 21.3307 97.4992 21.3455 97.4992 21.5397C97.4992 22.6926 97.4978 23.8455 97.5005 24.9985C97.5005 25.3679 97.5545 25.728 97.7486 26.0529C98.0345 26.5303 98.4862 26.7258 99.0121 26.7811C99.2036 26.8013 99.3991 26.7905 99.5933 26.7838C99.712 26.7797 99.7578 26.8229 99.7578 26.9416C99.7551 27.5025 99.7538 28.0621 99.7578 28.6231C99.7578 28.7458 99.7079 28.7943 99.5893 28.8064C98.8301 28.8793 98.0777 28.8361 97.3549 28.5853C96.5377 28.3021 95.8784 27.8153 95.5183 26.9955C95.3066 26.5155 95.219 26.0057 95.2055 25.4879C95.1893 24.8528 95.2014 24.2164 95.2014 23.5812C95.2014 23.5812 95.2014 23.5812 95.2001 23.5812L95.1987 23.5839Z" fill="#005297"/>
<path d="M121.154 42.7781C120.694 42.7781 120.259 42.7794 119.823 42.7754C119.785 42.7754 119.741 42.7349 119.713 42.7012C119.207 42.1066 118.704 41.5092 118.201 40.9132C118.073 40.7622 118.047 40.7608 117.919 40.9132C117.423 41.5092 116.927 42.1052 116.429 42.6999C116.401 42.7336 116.356 42.774 116.32 42.7754C115.884 42.7808 115.449 42.7781 114.959 42.7781C115.083 42.6163 115.176 42.4855 115.279 42.3628C115.91 41.6144 116.545 40.8673 117.178 40.119C117.361 39.9019 117.358 39.8978 117.182 39.6875C116.71 39.1279 116.236 38.5696 115.766 38.01C115.729 37.9669 115.7 37.921 115.646 37.8482C115.727 37.8361 115.771 37.8253 115.816 37.8239C116.166 37.8226 116.517 37.8158 116.866 37.828C116.956 37.8307 117.07 37.8765 117.128 37.9426C117.401 38.2541 117.66 38.5777 117.925 38.8973C118.039 39.0362 118.07 39.0348 118.183 38.9013C118.588 38.4253 118.994 37.952 119.396 37.4747C119.42 37.4464 119.443 37.3884 119.431 37.3668C119.415 37.3398 119.359 37.325 119.322 37.325C118.034 37.3263 116.745 37.3304 115.457 37.3344C115.255 37.3344 115.238 37.3196 115.237 37.1119C115.237 36.9393 115.237 36.7667 115.237 36.5941C115.237 36.3555 115.248 36.3447 115.478 36.3447C116.088 36.3447 116.697 36.3447 117.306 36.3447C117.488 36.3447 117.507 36.3218 117.505 36.1384C117.504 35.7284 117.498 35.3199 117.509 34.9099C117.513 34.7576 117.459 34.7144 117.314 34.7158C116.586 34.7212 115.859 34.7185 115.131 34.7185C114.914 34.7185 114.901 34.705 114.901 34.4906C114.901 34.3126 114.901 34.1346 114.901 33.9566C114.901 33.7651 114.92 33.7435 115.114 33.7435C115.837 33.7435 116.559 33.7435 117.281 33.7435C117.501 33.7435 117.508 33.7314 117.505 33.517C117.5 33.215 117.505 32.9143 117.501 32.6122C117.498 32.4693 117.565 32.4234 117.699 32.4261C117.958 32.4315 118.217 32.4342 118.476 32.4261C118.616 32.4207 118.657 32.4801 118.655 32.6068C118.653 32.9089 118.653 33.2096 118.654 33.5116C118.654 33.7247 118.673 33.7449 118.883 33.7449C119.606 33.7449 120.327 33.7449 121.05 33.7449C121.27 33.7449 121.274 33.7503 121.274 33.9728C121.274 34.1454 121.274 34.318 121.274 34.4906C121.274 34.7171 121.274 34.7185 121.053 34.7185C120.336 34.7185 119.62 34.7185 118.902 34.7185C118.654 34.7185 118.654 34.7185 118.655 34.9733C118.655 35.3617 118.659 35.7487 118.653 36.137C118.65 36.2894 118.705 36.3487 118.86 36.3474C119.47 36.342 120.079 36.3447 120.688 36.3447C120.899 36.3447 120.919 36.3649 120.919 36.5739C120.919 36.6009 120.919 36.6279 120.919 36.6548C120.918 37.3641 120.911 37.3587 120.448 37.9008C119.919 38.5184 119.405 39.1494 118.883 39.7724C118.813 39.856 118.81 39.9302 118.883 40.0165C119.474 40.7231 120.063 41.431 120.654 42.1376C120.809 42.3237 120.971 42.503 121.127 42.6877C121.139 42.7026 121.141 42.7255 121.155 42.7754L121.154 42.7781Z" fill="#005297"/>
<path d="M78.3005 36.5001C79.8539 36.5001 81.406 36.5015 82.9594 36.4974C83.1091 36.4974 83.1644 36.5527 83.1617 36.6957C83.1576 36.8952 83.1576 37.0948 83.1617 37.293C83.1644 37.4306 83.1091 37.4832 82.9688 37.4832C81.3682 37.4832 79.7663 37.4885 78.1657 37.4912C78.0322 37.4912 77.9378 37.5142 77.8677 37.6517C77.4011 38.5538 76.9251 39.4519 76.4491 40.3486C76.2401 40.7423 76.0217 41.132 75.8086 41.5244C75.7237 41.6822 75.7466 41.7186 75.93 41.7186C77.5953 41.7186 79.262 41.7186 80.9273 41.7186C81.1066 41.7186 81.1215 41.6943 81.0392 41.5393C80.5848 40.679 80.1317 39.8173 79.6773 38.957C79.618 38.8451 79.6476 38.7952 79.7717 38.7952C80.1007 38.7952 80.4297 38.7884 80.7587 38.8019C80.8275 38.8046 80.9206 38.8693 80.9543 38.9327C81.3939 39.7391 81.8267 40.5509 82.2582 41.3613C82.4605 41.7402 82.6574 42.1231 82.8596 42.502C82.9459 42.6639 82.9338 42.6881 82.7437 42.6881C81.9292 42.6881 81.1161 42.6881 80.3016 42.6881C78.2533 42.6881 76.2037 42.6881 74.1554 42.6881C73.9168 42.6881 73.9073 42.676 74.0138 42.4724C74.5559 41.4462 75.098 40.4201 75.6428 39.3952C75.9475 38.8208 76.2576 38.2491 76.5664 37.676C76.6527 37.5142 76.6339 37.4791 76.4518 37.4791C75.5187 37.4791 74.5869 37.4791 73.6538 37.4791C73.403 37.4791 73.3936 37.4697 73.3936 37.2121C73.3936 37.0449 73.3936 36.8777 73.3936 36.7105C73.3936 36.5231 73.4219 36.4961 73.6107 36.4961C75.1748 36.4961 76.7377 36.4961 78.3019 36.4961L78.3005 36.5001Z" fill="#005297"/>
<path d="M98.6551 42.7794C98.7063 42.6526 98.7481 42.5623 98.7791 42.4692C98.945 41.9892 98.9827 41.4916 98.9814 40.9887C98.9814 39.5121 98.9814 38.0369 98.9814 36.5604C98.9814 36.5118 98.9814 36.4633 98.9814 36.4148C98.9881 36.1936 98.9881 36.1896 98.7697 36.1788C98.6578 36.1734 98.6213 36.1221 98.624 36.0156C98.6294 35.816 98.6348 35.6165 98.624 35.4183C98.6146 35.2618 98.6712 35.2079 98.8263 35.2093C99.2848 35.216 99.7433 35.2119 100.202 35.2119C100.412 35.2119 100.422 35.1998 100.419 34.9948C100.416 34.7413 100.416 34.4878 100.424 34.2357C100.428 34.1035 100.382 34.0523 100.248 34.0536C99.8323 34.059 99.4169 34.0536 99.0016 34.059C98.8492 34.0617 98.7886 34.0078 98.798 33.85C98.8101 33.641 98.8007 33.4293 98.802 33.2203C98.802 33.0302 98.8304 33.0032 99.0151 33.0032C99.9482 33.0005 100.881 33.018 101.813 32.9857C102.172 32.9735 102.529 32.8589 102.882 32.7726C103.004 32.743 103.029 32.7726 103.029 32.8765C103.029 33.1569 103.036 33.4374 103.025 33.7165C103.024 33.7678 102.966 33.8446 102.917 33.8635C102.557 34.001 102.179 34.0469 101.796 34.055C101.565 34.0604 101.569 34.0644 101.574 34.2991C101.58 34.5472 101.577 34.7953 101.57 35.042C101.568 35.1661 101.611 35.216 101.739 35.2146C102.154 35.2093 102.57 35.2146 102.985 35.2106C103.133 35.2079 103.203 35.2524 103.193 35.4156C103.18 35.5976 103.189 35.7823 103.19 35.9644C103.19 36.1707 103.183 36.1788 102.969 36.1788C102.57 36.1788 102.17 36.1788 101.771 36.1788C101.574 36.1788 101.561 36.195 101.573 36.3932C101.578 36.4741 101.578 36.555 101.578 36.6359C101.578 38.6235 101.578 40.6124 101.578 42.6C101.578 42.6526 101.573 42.7052 101.569 42.7821C101.286 42.7821 101.013 42.7821 100.741 42.7821C100.525 42.7821 100.417 42.6742 100.417 42.4585C100.417 40.4816 100.417 38.5035 100.417 36.5267C100.417 36.4889 100.417 36.4512 100.42 36.4134C100.435 36.1882 100.417 36.1774 100.198 36.1774C100.03 36.1774 100.022 36.2718 100.024 36.3986C100.026 37.9344 100.02 39.469 100.029 41.0048C100.032 41.5429 99.9617 42.0661 99.8066 42.5785C99.7662 42.7106 99.7163 42.7996 99.5423 42.7875C99.2646 42.7673 98.9841 42.7821 98.6578 42.7821L98.6551 42.7794Z" fill="#005297"/>
<path d="M89.03 42.7801C88.6727 42.7801 88.3329 42.7787 87.9944 42.7801C87.8731 42.7801 87.8906 42.6978 87.8906 42.6237C87.8906 42.0371 87.8906 41.4492 87.8906 40.8626C87.8906 40.628 87.8529 40.6091 87.6236 40.6725C87.273 40.7696 86.9157 40.8491 86.5624 40.9381C86.3655 40.988 86.1673 41.0379 85.9718 41.0972C85.7965 41.1498 85.756 41.1255 85.756 40.9475C85.756 40.7102 85.7628 40.4729 85.7533 40.2369C85.7479 40.1061 85.7965 40.032 85.9205 40.0023C86.3601 39.8958 86.7984 39.7892 87.238 39.6841C87.4052 39.6436 87.5724 39.6045 87.7396 39.5627C87.8515 39.5357 87.8933 39.4629 87.892 39.3483C87.8879 39.0085 87.8866 38.67 87.892 38.3302C87.8947 38.1832 87.8353 38.1307 87.6897 38.132C87.1773 38.1374 86.6649 38.1347 86.1538 38.1347C85.9529 38.1347 85.9259 38.1091 85.9758 37.923C86.1174 37.3944 86.2711 36.8685 86.4114 36.3399C86.5422 35.8464 86.6622 35.3502 86.7876 34.8553C86.8159 34.7434 86.7444 34.7245 86.6608 34.7245C86.4235 34.7232 86.1862 34.7164 85.9489 34.7258C85.8005 34.7312 85.7466 34.68 85.7547 34.5303C85.7655 34.3429 85.7574 34.1528 85.7574 33.9653C85.7574 33.7577 85.7628 33.7523 85.9785 33.7509C86.259 33.7509 86.5395 33.7509 86.8199 33.7509C87.0627 33.7509 87.0788 33.7307 87.1301 33.5001C87.1962 33.2062 87.273 32.9149 87.3472 32.6236C87.3822 32.4874 87.4578 32.42 87.6142 32.4308C87.8502 32.4456 88.0888 32.4375 88.3262 32.4335C88.4597 32.4308 88.5163 32.4713 88.4772 32.6169C88.3976 32.9122 88.3235 33.2102 88.256 33.5082C88.2035 33.7401 88.2183 33.7509 88.465 33.7509C88.9505 33.7509 89.4359 33.7509 89.9214 33.7509C90.1506 33.7509 90.1627 33.7631 90.1614 33.9842C90.1614 34.1568 90.1614 34.3294 90.1614 34.502C90.1614 34.7164 90.1519 34.7245 89.9295 34.7245C89.3415 34.7245 88.7536 34.7245 88.167 34.7245C87.9648 34.7245 87.9311 34.7596 87.8825 34.9551C87.7639 35.4351 87.6385 35.9138 87.5171 36.3925C87.4645 36.6015 87.416 36.8105 87.3674 37.0195C87.3607 37.0492 87.362 37.1085 87.3661 37.1099C87.505 37.1315 87.6452 37.1598 87.7841 37.1557C87.8218 37.1557 87.8879 37.0546 87.8893 36.9993C87.8987 36.611 87.8933 36.224 87.8947 35.8356C87.8947 35.6325 87.9971 35.5309 88.2021 35.5309C88.4232 35.5309 88.6444 35.5349 88.8655 35.5295C88.999 35.5268 89.0489 35.5821 89.0476 35.7129C89.0422 36.1336 89.0489 36.553 89.0381 36.9737C89.0341 37.1261 89.0853 37.1746 89.2323 37.1706C89.4858 37.1625 89.7393 37.1706 89.9928 37.1665C90.1142 37.1652 90.1708 37.2083 90.1668 37.3364C90.16 37.5468 90.16 37.7571 90.1668 37.9661C90.1708 38.0943 90.1142 38.1401 89.9928 38.1387C89.7339 38.1361 89.475 38.1414 89.2161 38.1347C89.0786 38.1307 89.0368 38.19 89.0408 38.3194C89.0489 38.5568 89.0462 38.7927 89.0476 39.0301C89.0476 39.1986 89.0867 39.2337 89.2525 39.1932C89.4818 39.1379 89.7083 39.0651 89.9389 39.0152C90.1479 38.9707 90.1654 38.9923 90.1641 39.2C90.1641 39.4319 90.1614 39.6638 90.1641 39.8944C90.1654 39.9969 90.1304 40.0549 90.0279 40.0792C89.7825 40.1385 89.5398 40.2086 89.293 40.2625C89.0759 40.3111 89.0462 40.3408 89.0462 40.5619C89.0462 41.2456 89.0462 41.9306 89.0462 42.6142C89.0462 42.6614 89.0395 42.7086 89.0341 42.7814L89.03 42.7801Z" fill="#005297"/>
<path d="M112.454 40.4678C112.454 40.0741 112.453 39.6817 112.454 39.2879C112.454 39.1598 112.422 39.1167 112.28 39.1558C111.903 39.2623 111.52 39.3486 111.14 39.4484C111.041 39.474 110.993 39.4484 110.993 39.3459C110.993 39.0655 110.993 38.7863 110.993 38.5058C110.993 38.4007 111.051 38.3575 111.148 38.3332C111.544 38.2389 111.939 38.1364 112.337 38.042C112.442 38.0164 112.453 37.9516 112.453 37.8626C112.45 37.1035 112.449 36.3443 112.448 35.5851C112.448 35.2076 112.448 35.2076 112.07 35.2076C111.773 35.2076 111.477 35.2008 111.181 35.2103C111.028 35.2157 110.983 35.1563 110.99 35.012C110.999 34.8138 110.998 34.6129 110.99 34.4147C110.985 34.2785 111.04 34.2367 111.171 34.238C111.537 34.2448 111.904 34.2407 112.27 34.2434C112.442 34.2448 112.458 34.2246 112.456 34.0479C112.45 33.5638 112.452 33.0784 112.448 32.5943C112.448 32.4824 112.488 32.4271 112.609 32.4298C112.868 32.4352 113.127 32.4365 113.386 32.4298C113.53 32.4271 113.591 32.4824 113.59 32.6294C113.584 33.0973 113.588 33.5665 113.584 34.0344C113.584 34.2286 113.598 34.2461 113.795 34.2461C114.005 34.2461 114.215 34.2488 114.426 34.2448C114.544 34.2421 114.589 34.2879 114.585 34.4066C114.577 34.6223 114.579 34.8367 114.581 35.0525C114.581 35.1604 114.538 35.2076 114.426 35.2049C114.205 35.1995 113.983 35.2062 113.762 35.2008C113.63 35.1968 113.582 35.248 113.582 35.3815C113.586 36.1029 113.583 36.8243 113.583 37.5471C113.583 37.7157 113.617 37.7332 113.774 37.69C113.997 37.628 114.223 37.5808 114.447 37.5228C114.531 37.5013 114.577 37.5282 114.578 37.6105C114.581 37.9071 114.581 38.2024 114.574 38.4991C114.574 38.5342 114.526 38.5868 114.49 38.5975C114.248 38.6663 114.006 38.7391 113.758 38.785C113.623 38.8106 113.579 38.8618 113.58 38.9953C113.586 40.0458 113.587 41.0962 113.582 42.1466C113.582 42.2666 113.553 42.3961 113.499 42.5026C113.418 42.6658 113.309 42.7898 113.081 42.7831C112.495 42.7656 111.907 42.7723 111.319 42.7804C111.158 42.7831 111.111 42.7305 111.123 42.5768C111.136 42.4109 111.133 42.2424 111.123 42.0765C111.117 41.9322 111.183 41.885 111.316 41.8864C111.602 41.8904 111.888 41.8877 112.174 41.8891C112.398 41.8891 112.456 41.8203 112.453 41.5978C112.448 41.2216 112.452 40.844 112.452 40.4665L112.454 40.4678Z" fill="#005297"/>
<path d="M106.632 35.7818C106.632 34.7475 106.632 33.7133 106.632 32.679C106.632 32.5145 106.716 32.4327 106.885 32.4336C107.096 32.4336 107.306 32.4336 107.516 32.4336C107.735 32.4336 107.758 32.4565 107.758 32.6736C107.758 34.4023 107.758 36.131 107.758 37.8597C107.758 38.1564 107.758 38.4517 107.754 38.7483C107.751 38.8805 107.808 38.9236 107.932 38.8994C108.144 38.8589 108.355 38.8252 108.566 38.7807C108.692 38.7537 108.75 38.7928 108.75 38.9236C108.749 39.1718 108.748 39.4185 108.75 39.6666C108.75 39.7826 108.704 39.8419 108.583 39.8581C108.354 39.8878 108.126 39.9309 107.898 39.966C107.767 39.9862 107.758 40.0779 107.758 40.1804C107.758 40.9719 107.758 41.7635 107.761 42.555C107.761 42.7761 107.761 42.7761 107.541 42.7761C107.298 42.7761 107.055 42.768 106.814 42.7788C106.672 42.7856 106.629 42.7438 106.631 42.5995C106.639 41.8781 106.635 41.1567 106.635 40.4339C106.635 40.2208 106.627 40.2087 106.418 40.2438C105.893 40.3314 105.368 40.4245 104.844 40.5161C104.462 40.5836 104.082 40.651 103.7 40.7184C103.583 40.74 103.516 40.7157 103.52 40.5741C103.526 40.3206 103.525 40.0685 103.52 39.815C103.517 39.7084 103.563 39.6572 103.664 39.6397C104.147 39.5561 104.628 39.4698 105.111 39.3862C105.301 39.3524 105.492 39.3214 105.683 39.2877C105.937 39.2432 106.191 39.1947 106.446 39.1542C106.589 39.1313 106.639 39.0612 106.637 38.9129C106.632 37.8678 106.635 36.8228 106.635 35.7777L106.632 35.7818Z" fill="#005297"/>
<path d="M78.3016 34.4089C77.03 34.4089 75.7585 34.4089 74.4855 34.4089C74.2401 34.4089 74.2266 34.3954 74.2266 34.1568C74.2266 33.9896 74.2266 33.8224 74.2266 33.6565C74.2253 33.4475 74.2442 33.4259 74.4572 33.4259C76.0093 33.4259 77.5613 33.4259 79.1134 33.4259C80.1261 33.4259 81.1401 33.4286 82.1528 33.4219C82.3146 33.4219 82.3618 33.4772 82.355 33.6282C82.3469 33.8331 82.351 34.0368 82.3537 34.2417C82.355 34.3617 82.3132 34.4116 82.1824 34.4116C80.8893 34.4076 79.5961 34.4089 78.303 34.4089H78.3016Z" fill="#005297"/>
<path d="M101.982 42.7787C101.977 42.7127 101.969 42.6614 101.969 42.6088C101.969 40.7507 101.969 38.8925 101.966 37.033C101.966 36.8834 102.018 36.8321 102.164 36.8362C102.396 36.8442 102.628 36.8416 102.86 36.8362C102.984 36.8335 103.032 36.8834 103.032 37.0088C103.03 38.8831 103.031 40.7574 103.031 42.6317C103.031 42.7005 103.042 42.7774 102.933 42.7774C102.621 42.776 102.31 42.7774 101.983 42.7774L101.982 42.7787Z" fill="#005297"/>
<path d="M103.857 36.1867C104.019 36.1867 104.13 36.1867 104.24 36.1867C104.483 36.1867 104.724 36.1948 104.967 36.184C105.097 36.1786 105.165 36.2285 105.215 36.3391C105.451 36.8569 105.69 37.3733 105.927 37.8898C105.97 37.9828 106.01 38.0772 106.053 38.1689C106.094 38.2565 106.069 38.3064 105.972 38.3064C105.623 38.3078 105.272 38.3105 104.923 38.301C104.875 38.301 104.811 38.239 104.787 38.1891C104.524 37.6309 104.266 37.0699 104.008 36.5103C103.967 36.4186 103.923 36.3283 103.857 36.1867Z" fill="#005297"/>
<path d="M105.61 35.5341C105.458 35.5341 105.307 35.5273 105.158 35.5368C105.031 35.5449 104.957 35.4923 104.906 35.3804C104.629 34.7749 104.354 34.1695 104.074 33.5667C104.021 33.4534 104.043 33.4062 104.168 33.4062C104.49 33.4062 104.814 33.4062 105.136 33.4062C105.245 33.4062 105.312 33.4575 105.357 33.5586C105.604 34.1007 105.855 34.6414 106.107 35.1808C106.134 35.2388 106.169 35.2927 106.203 35.3467C106.277 35.4653 106.249 35.5287 106.108 35.5327C105.941 35.5368 105.775 35.5327 105.608 35.5327L105.61 35.5341Z" fill="#005297"/>
</g>
</g>
<defs>
<clipPath id="clip0_53672_556145">
<rect width="97.2314" height="30.573" fill="white" transform="translate(32.9473 12.7148)"/>
</clipPath>
<clipPath id="clip1_53672_556145">
<rect width="96.9759" height="30.0715" fill="white" transform="translate(32.9453 12.7148)"/>
</clipPath>
</defs>
</svg>
